<?xml version="1.0" standalone="no"?>
<!DOCTYPE svg PUBLIC "-//W3C//DTD SVG 20010904//EN"
 "http://www.w3.org/TR/2001/REC-SVG-20010904/DTD/svg10.dtd">
<svg version="1.0" xmlns="http://www.w3.org/2000/svg"
 width="300.000000pt" height="300.000000pt" viewBox="0 0 300.000000 300.000000"
 preserveAspectRatio="xMidYMid meet">

<g transform="translate(0.000000,300.000000) scale(0.100000,-0.100000)"
fill="#000000" stroke="none">
<path d="M0 1500 l0 -1500 1500 0 1500 0 0 1500 0 1500 -1500 0 -1500 0 0
-1500z m1830 1450 c16 -10 11 -17 -117 -150 l-63 -65 40 -25 c22 -14 40 -28
40 -32 0 -3 -45 -49 -100 -100 -55 -51 -100 -95 -100 -98 0 -3 14 -14 30 -23
20 -12 30 -26 30 -42 0 -24 -59 -132 -158 -289 l-56 -89 -23 29 c-60 74 -93
231 -75 353 38 263 197 470 403 525 63 17 128 20 149 6z m-909 -486 c195 -57
334 -211 347 -384 2 -38 2 -70 -1 -70 -4 0 -62 22 -129 48 -68 27 -152 59
-188 72 -84 30 -86 32 -72 76 l11 37 -140 -5 c-76 -3 -139 -3 -139 -1 0 2 7
20 15 40 l15 36 -77 -6 c-43 -4 -107 -9 -143 -13 l-65 -7 37 40 c49 50 135
102 217 130 82 28 229 31 312 7z m1302 -27 c84 -42 172 -119 183 -161 3 -15 4
-29 1 -32 -3 -3 -60 2 -127 11 -66 10 -123 15 -126 12 -3 -3 0 -24 7 -46 7
-23 9 -44 6 -48 -4 -3 -66 1 -139 10 -73 8 -134 14 -136 12 -2 -2 2 -22 9 -44
7 -25 9 -45 3 -50 -15 -14 -419 -119 -422 -110 -8 19 21 121 53 188 61 127
167 219 314 273 69 25 87 28 187 25 105 -2 114 -4 187 -40z m-1248 -373 c33
-8 79 -26 101 -39 47 -28 124 -96 124 -111 0 -9 -380 -114 -413 -114 -11 0
-22 12 -28 30 -6 17 -13 30 -15 30 -2 0 -54 -31 -115 -70 -61 -38 -115 -68
-119 -65 -4 3 -10 19 -14 36 -6 31 -6 31 -31 15 -85 -56 -208 -126 -213 -122
-11 12 21 88 62 148 49 73 131 143 225 191 64 33 169 71 221 80 59 10 160 6
215 -9z m968 -69 c201 -42 388 -224 441 -430 21 -83 26 -255 7 -255 -4 0 -45
56 -91 125 -46 69 -86 125 -90 125 -4 0 -13 -13 -20 -29 -19 -46 -37 -45 -70
2 -64 89 -141 187 -148 187 -4 0 -13 -13 -19 -30 -6 -16 -18 -32 -26 -36 -8
-3 -60 23 -118 59 -57 35 -143 85 -191 111 -49 26 -88 51 -88 55 0 11 84 69
127 88 47 21 137 41 183 42 19 0 65 -6 103 -14z m-486 -17 c16 -20 56 -185 50
-201 -3 -8 -25 -18 -49 -22 -33 -6 -38 -9 -24 -15 14 -5 2 -10 -43 -19 -111
-22 -110 -21 -98 -83 5 -29 13 -56 16 -60 8 -9 206 24 217 35 4 4 3 33 -2 64
-8 53 -11 58 -39 65 -29 6 -29 6 5 5 34 -2 35 -3 45 -57 6 -30 14 -48 17 -40
5 12 8 12 21 -5 15 -20 16 -20 51 -1 50 27 84 65 67 75 -7 5 -11 19 -9 32 l3
24 23 -22 c32 -33 28 -67 -14 -113 -50 -55 -104 -68 -132 -32 -11 14 -12 10
-6 -27 5 -30 3 -45 -5 -51 -10 -5 -9 -9 2 -13 11 -4 19 4 26 24 7 22 16 29 35
29 32 0 33 -16 4 -41 -13 -10 -18 -18 -11 -19 7 0 18 7 25 16 7 8 21 23 31 32
9 9 17 24 17 34 0 11 8 18 20 18 13 0 20 -7 20 -20 0 -13 -7 -20 -20 -20 -14
0 -20 -7 -20 -22 0 -13 -9 -36 -20 -53 -22 -33 -26 -95 -8 -113 19 -19 54 -14
108 13 35 18 50 21 50 12 0 -21 -29 -56 -60 -72 -44 -23 -78 -19 -111 14 -23
24 -29 38 -29 74 0 32 -5 47 -16 51 -14 5 -16 1 -11 -31 4 -21 9 -64 13 -95 7
-56 6 -58 -17 -59 l-24 -1 25 -7 c29 -8 36 -36 42 -150 l3 -76 -35 -6 -35 -6
33 -2 c43 -1 52 -26 52 -142 l0 -89 -112 -2 -113 -2 105 -3 c58 -2 108 -7 112
-11 4 -4 -54 -6 -128 -4 l-135 3 3 -68 3 -68 128 -3 127 -3 0 62 c0 44 3 60
10 53 7 -7 10 -47 8 -100 l-3 -89 -115 -3 c-63 -2 -130 0 -149 3 l-34 6 8 102
c9 122 9 109 1 229 -5 66 -3 98 4 103 8 5 8 11 1 19 -14 17 -27 216 -14 216 5
0 8 -12 6 -27 -6 -45 11 -108 29 -107 9 1 60 4 114 8 53 4 101 9 106 12 10 6
0 114 -11 126 -3 4 -33 10 -66 12 -46 4 -53 3 -30 -4 23 -7 13 -8 -40 -5 -47
3 -62 1 -45 -4 23 -8 22 -9 -11 -10 -55 -2 -65 13 -78 117 -12 94 -10 112 12
112 9 0 9 -2 -1 -8 -9 -6 -10 -21 -2 -62 6 -30 14 -58 18 -62 6 -6 222 19 230
27 4 3 -16 126 -21 132 -3 2 -22 6 -43 9 -27 3 -33 2 -19 -4 18 -8 17 -9 -7
-14 -15 -3 -25 -1 -22 3 3 5 -7 9 -23 8 -25 0 -26 -1 -8 -10 14 -6 5 -7 -30
-4 -38 4 -45 3 -30 -5 15 -8 11 -9 -20 -4 -22 3 -42 8 -44 10 -8 8 -40 197
-35 205 3 5 15 10 27 10 17 1 15 3 -7 8 -28 6 -31 11 -52 101 -15 61 -19 99
-13 105 8 8 180 60 210 64 4 1 11 -5 16 -11z m137 -201 c32 -48 57 -117 43
-117 -12 0 -97 132 -97 150 0 33 17 23 54 -33z m-436 37 c57 -7 63 -16 32 -49
l-20 -22 29 5 c23 3 33 -1 46 -22 24 -36 13 -58 -27 -54 -32 3 -33 2 -29 -32
11 -101 -5 -126 -27 -40 -11 44 -11 62 -2 88 6 19 10 35 7 38 -2 2 -42 -42
-89 -98 -47 -57 -100 -116 -117 -132 l-31 -30 -31 23 c-17 13 -34 19 -38 15
-4 -5 -27 -53 -52 -106 -24 -54 -50 -100 -58 -103 -8 -3 -25 4 -38 16 -12 13
-25 21 -26 18 -2 -2 -30 -50 -61 -106 -31 -57 -61 -103 -66 -103 -9 0 -35 75
-43 122 -8 49 13 148 44 211 84 170 242 300 421 347 81 21 100 23 176 14z
m637 -154 c8 -16 15 -39 15 -51 0 -22 1 -22 14 -4 19 26 43 13 55 -33 12 -43
2 -94 -25 -123 -22 -24 -94 -27 -94 -4 0 8 8 15 19 15 19 0 71 36 71 50 0 4
-9 10 -20 13 -14 4 -20 14 -20 34 l-1 28 -14 -27 c-18 -33 -44 -42 -79 -28
-32 12 -27 25 11 33 16 3 34 15 41 27 11 19 11 25 -2 39 -20 22 -21 61 -1 61
8 0 21 -13 30 -30z m-557 -13 c15 -17 -1 -39 -21 -31 -17 6 -22 25 -10 37 10
10 19 8 31 -6z m-90 -44 c5 -17 -26 -29 -40 -15 -6 6 -7 15 -3 22 9 14 37 9
43 -7z m112 -22 c17 -33 12 -86 -10 -106 -16 -14 -17 -21 -8 -32 7 -9 8 -17 1
-24 -14 -14 -45 1 -39 18 4 9 -1 17 -14 20 -28 7 -25 17 10 30 37 14 47 37 30
68 -12 23 -7 45 10 45 5 0 14 -9 20 -19z m-102 -23 c22 -22 13 -29 -25 -22
-35 7 -37 6 -24 -10 10 -12 23 -15 47 -10 22 4 34 2 34 -5 0 -11 -8 -15 -77
-41 -18 -7 -33 -18 -33 -26 0 -20 41 -44 77 -44 42 0 45 -25 3 -33 -80 -17
-144 59 -91 107 16 15 18 22 8 36 -23 38 49 80 81 48z m572 -78 c35 -35 20
-80 -27 -80 -29 0 -41 41 -23 76 16 29 24 30 50 4z m-672 -104 c3 -15 0 -18
-17 -13 -12 3 -24 0 -28 -5 -4 -8 6 -9 30 -5 55 9 50 -22 -6 -45 -52 -22 -61
-22 -54 -3 4 8 2 17 -3 20 -29 18 16 78 53 73 12 -2 23 -12 25 -22z m230 -20
c11 -35 11 -42 -6 -58 -10 -10 -42 -23 -73 -30 -76 -16 -113 1 -117 55 -2 27
1 37 11 37 10 0 13 -7 10 -20 -8 -29 34 -44 94 -34 30 5 40 9 26 12 -49 8 -35
86 15 80 21 -2 30 -11 40 -42z m-305 -514 c44 -38 -8 -121 -67 -106 -38 9 -62
48 -50 82 17 50 74 61 117 24z m160 -5 c38 -44 -9 -116 -67 -101 -61 15 -72
93 -16 121 30 15 59 8 83 -20z m780 5 c34 -30 16 -91 -33 -107 -29 -9 -74 16
-78 44 -11 76 54 113 111 63z m410 -4 c9 -11 17 -28 17 -38 0 -25 -31 -58 -60
-65 -58 -14 -106 69 -62 107 36 32 74 31 105 -4z m-346 -209 c42 -26 70 -73
83 -140 23 -112 38 -129 113 -129 65 0 97 28 97 86 0 25 -7 61 -15 81 -28 66
-15 112 35 128 55 18 101 -65 107 -192 3 -67 0 -89 -16 -121 -44 -86 -111
-116 -243 -111 -67 3 -91 8 -107 23 -12 11 -21 15 -21 9 0 -25 -57 -33 -248
-33 -179 0 -200 2 -229 20 -18 11 -33 25 -33 32 0 6 -10 2 -22 -10 -38 -34
-73 -42 -198 -42 -113 0 -120 1 -149 26 -30 25 -31 28 -31 110 0 51 -6 98 -14
119 -13 31 -19 35 -53 35 -24 0 -59 -12 -96 -33 -60 -33 -156 -106 -157 -119
0 -5 56 -8 125 -8 l125 0 0 -36 c0 -26 -8 -43 -29 -65 l-29 -29 -178 0 c-199
0 -214 5 -214 66 0 75 183 249 342 324 158 75 278 8 295 -166 7 -72 24 -94 73
-94 60 0 74 18 80 102 l5 73 115 0 115 0 5 -73 c7 -102 7 -102 197 -102 143 0
153 1 144 18 -5 9 -12 39 -16 65 -12 76 -54 91 -177 61 -25 -6 -27 -4 -39 50
-7 34 -9 60 -3 65 18 17 139 40 184 35 25 -3 59 -15 77 -25z m-934 -461 l16
-23 0 23 c1 15 7 22 21 22 18 0 20 -7 20 -65 0 -57 -2 -65 -19 -65 -10 0 -26
10 -34 22 l-16 23 0 -22 c-1 -18 -7 -23 -26 -23 -24 0 -25 2 -25 65 0 62 1 65
24 65 13 0 30 -10 39 -22z m206 -34 c27 -70 26 -74 -4 -74 -14 0 -25 5 -25 10
0 6 -9 10 -20 10 -11 0 -20 -4 -20 -10 0 -5 -12 -10 -26 -10 -17 0 -24 4 -21
13 3 6 14 36 23 65 15 45 21 52 44 52 24 0 30 -7 49 -56z m102 44 c0 -10 2
-10 6 0 2 6 18 12 35 12 l29 0 -21 -30 -21 -30 20 -26 c12 -15 21 -31 21 -35
0 -16 -49 -9 -59 9 -10 16 -10 16 -11 0 0 -12 -8 -18 -25 -18 -24 0 -25 2 -25
65 0 63 1 65 25 65 14 0 25 -6 26 -12z m149 -8 c0 -11 6 -20 14 -20 9 0 12 7
9 20 -4 16 0 20 21 20 25 0 26 -2 26 -66 0 -62 -1 -65 -22 -62 -17 2 -23 9
-22 26 0 12 -5 22 -13 22 -7 0 -13 -11 -13 -25 0 -20 -5 -25 -25 -25 -24 0
-25 2 -25 65 0 63 1 65 25 65 18 0 25 -5 25 -20z m158 -25 c-3 -38 0 -45 14
-45 11 0 18 -8 18 -20 0 -17 -7 -20 -40 -20 l-40 0 0 65 c0 63 1 65 26 65 25
0 26 -2 22 -45z m173 -10 c10 -27 18 -56 18 -62 1 -17 -31 -17 -47 -1 -10 10
-17 10 -32 0 -11 -6 -27 -12 -36 -12 -19 0 -16 31 11 93 13 32 20 38 42 35 22
-2 30 -12 44 -53z m99 35 c0 -11 5 -20 10 -20 6 0 10 9 10 20 0 15 7 20 25 20
24 0 25 -2 25 -65 0 -63 -1 -65 -25 -65 -20 0 -25 5 -25 25 0 14 -4 25 -10 25
-5 0 -10 -11 -10 -25 0 -20 -5 -25 -25 -25 -24 0 -25 2 -25 65 0 63 1 65 25
65 18 0 25 -5 25 -20z"/>
<path d="M1592 2895 c-98 -49 -178 -137 -236 -258 -65 -137 -87 -257 -67 -375
10 -64 54 -174 76 -192 9 -8 28 17 77 97 101 169 116 196 123 234 6 31 3 38
-19 53 -14 9 -26 22 -26 29 0 6 25 34 55 60 30 26 54 51 53 55 -1 4 4 31 10
61 9 37 9 57 2 66 -7 9 -6 16 4 25 14 11 36 74 51 148 6 27 4 32 -13 32 -11 0
-51 -16 -90 -35z"/>
<path d="M630 2451 c-30 -10 -74 -28 -98 -40 -36 -18 -41 -25 -32 -37 7 -8 18
-14 25 -14 7 0 26 -7 41 -15 16 -8 42 -15 57 -15 16 0 30 -7 34 -15 10 -26 74
-49 158 -54 l80 -6 0 -39 c0 -26 5 -41 15 -44 8 -3 17 -8 20 -11 6 -7 314
-131 325 -131 13 0 -4 107 -26 165 -41 110 -170 218 -308 259 -74 22 -219 20
-291 -3z"/>
<path d="M1891 2455 c-187 -53 -342 -205 -380 -375 -8 -37 -7 -41 7 -35 10 4
49 15 87 26 39 10 115 31 170 47 l100 29 -3 32 c-2 36 1 36 136 22 53 -5 76
-4 83 5 6 7 19 11 31 9 17 -4 19 0 15 20 -8 47 11 58 80 45 72 -12 155 -8 161
9 7 22 -89 103 -165 139 -67 31 -85 36 -171 39 -66 2 -114 -2 -151 -12z"/>
<path d="M735 2055 c-208 -47 -387 -177 -450 -328 -15 -37 -15 -38 5 -27 11 6
20 8 20 6 0 -3 38 17 84 44 47 28 89 50 95 50 6 0 15 -9 20 -19 10 -18 13 -18
53 -4 24 8 75 35 115 60 70 43 93 48 93 17 0 -16 23 -18 49 -4 10 5 29 11 42
14 47 9 191 49 229 63 8 3 24 8 34 10 32 6 32 14 1 39 -98 81 -247 111 -390
79z"/>
<path d="M1728 1978 c-16 -5 -28 -14 -28 -18 0 -5 36 -31 80 -58 44 -27 77
-52 73 -56 -3 -3 1 -6 10 -6 9 0 17 -4 17 -10 0 -5 6 -10 14 -10 7 0 25 -11
39 -24 14 -13 54 -45 89 -72 35 -26 65 -51 68 -54 12 -14 98 -80 104 -80 4 0
48 -41 99 -91 l92 -91 3 35 c2 19 -4 64 -12 101 -46 195 -203 370 -384 426
-70 22 -215 26 -264 8z"/>
<path d="M1335 1951 c-55 -15 -100 -32 -100 -37 0 -5 9 -42 19 -82 15 -58 22
-72 35 -68 9 3 50 12 92 20 85 17 109 25 109 35 -2 29 -39 155 -46 157 -5 1
-54 -10 -109 -25z"/>
<path d="M1378 1733 c6 -2 18 -2 25 0 6 3 1 5 -13 5 -14 0 -19 -2 -12 -5z"/>
<path d="M1338 1723 c7 -3 16 -2 19 1 4 3 -2 6 -13 5 -11 0 -14 -3 -6 -6z"/>
<path d="M1440 1031 l45 -8 -57 -1 c-31 -1 -59 -5 -61 -9 -2 -5 -2 -35 0 -69
l5 -61 117 4 c64 2 122 6 129 8 9 4 11 21 6 67 -3 35 -7 64 -8 65 0 1 -50 4
-111 6 -67 4 -92 3 -65 -2z"/>
<path d="M917 1766 c-151 -62 -276 -176 -343 -312 -36 -72 -39 -84 -39 -165 0
-48 4 -91 8 -95 10 -10 83 66 116 119 12 20 28 37 34 37 7 0 28 22 47 47 19
26 41 52 48 59 11 12 34 41 152 200 16 23 30 46 30 52 0 6 4 12 8 14 4 2 18
18 31 36 l22 32 -28 0 c-15 0 -54 -11 -86 -24z"/>
<path d="M1696 1452 c-3 -6 -1 -14 5 -17 15 -10 25 3 12 16 -7 7 -13 7 -17 1z"/>
<path d="M1235 1360 c-3 -5 1 -10 10 -10 9 0 13 5 10 10 -3 6 -8 10 -10 10 -2
0 -7 -4 -10 -10z"/>
<path d="M908 843 c-18 -5 -31 -43 -22 -67 8 -22 47 -30 73 -16 28 14 29 65 2
80 -20 10 -25 11 -53 3z"/>
<path d="M1068 843 c-38 -10 -33 -79 7 -89 52 -13 87 43 49 80 -15 16 -25 17
-56 9z"/>
<path d="M1848 839 c-12 -6 -18 -22 -18 -43 0 -28 5 -35 25 -40 37 -10 65 9
65 44 0 41 -36 61 -72 39z"/>
<path d="M2248 839 c-25 -14 -24 -65 1 -79 27 -14 47 -13 65 6 17 17 20 42 8
61 -11 17 -54 24 -74 12z"/>
<path d="M1808 626 c-32 -7 -60 -15 -64 -19 -3 -3 -2 -23 3 -44 7 -30 13 -37
29 -35 96 16 120 14 148 -9 19 -17 31 -42 42 -88 8 -36 12 -71 10 -78 -4 -10
-42 -13 -160 -13 -148 0 -156 1 -182 24 -24 20 -28 32 -32 90 l-4 66 -99 0
-99 0 0 -61 c0 -54 -3 -64 -29 -90 -38 -38 -87 -39 -129 -4 -25 21 -30 34 -35
85 -6 75 -40 146 -78 165 -36 19 -115 19 -168 0 -95 -33 -264 -165 -326 -255
-19 -27 -25 -48 -23 -72 l3 -33 182 -3 c172 -2 184 -1 203 18 11 11 20 31 20
45 l0 25 -114 0 c-89 0 -116 3 -126 15 -10 12 -6 21 26 50 91 82 195 138 247
133 53 -5 71 -44 75 -159 5 -129 4 -129 170 -129 125 0 148 5 189 43 20 18 23
18 29 3 15 -39 54 -46 258 -46 189 0 246 8 246 33 0 6 9 2 21 -9 17 -15 40
-20 118 -22 84 -3 101 0 141 20 29 15 53 37 68 63 20 35 22 50 19 125 -5 102
-28 167 -63 176 -51 13 -67 -34 -39 -111 8 -22 14 -59 15 -81 0 -85 -106 -134
-187 -84 -33 20 -33 19 -73 171 -13 46 -52 86 -99 99 -44 12 -60 12 -133 -4z"/>
</g>
</svg>
