<?xml version="1.0" encoding="utf-8"?>
<!-- Generator: Adobe Illustrator 27.3.1, SVG Export Plug-In . SVG Version: 6.00 Build 0)  -->
<svg version="1.1" id="Layer_1" xmlns="http://www.w3.org/2000/svg" xmlns:xlink="http://www.w3.org/1999/xlink" x="0px" y="0px"
	 viewBox="0 0 512 512" style="enable-background:new 0 0 512 512;" xml:space="preserve">
<style type="text/css">
	.st0{fill:#AE6AD0;}
	.st1{fill:#FFFFFF;}
</style>
<g>
	<path class="st0" d="M-498.3,131.8c15.6-71.6,56.9-119.8,129.1-136C-303.3-19-246,1-204.2,53.9c47.7,60.4,48.1,125.8,11,192.6
		c1.4,0.3,3.2,0.6,5.1,0.9c25.6,4,43.7,24.7,43.9,50.4c0.1,6.8-0.1,13.5,0.1,20.3c0.1,2.6-0.7,3.7-3.4,3.5c-1.9-0.2-3.7,0-5.6,0
		c-113.4,0-226.8,0.1-340.3-0.1c-34.2-0.1-58.9-15.9-73.5-46.8c-4.2-9-6.1-18.7-6.1-28.6c0-53-0.1-106,0.1-159c0-4-1-6.5-4.2-9
		c-19.8-15.8-24.2-43.6-10.1-64.3c3-4.4,7.5-7.8,11.1-11.8c1.4-1.6,2.9-3.6,3-5.5c0.3-8.6,0.3-17.3,0.1-25.9c0-1.8-0.9-3.9-2-5.4
		c-3.8-5.3-3.2-12.3,1.7-16.9c4.9-4.7,12.3-4.9,17.4-0.5c5,4.3,6.2,11.8,2.2,16.8c-2.3,2.9-3.1,5.9-2.9,9.5
		c0.3,6.1,0.1,12.1,0.1,18.4c6.8,0,13.4,0,20.4,0c0-7.4,0.1-15.2-0.1-23c0-1.1-1.2-2.3-2-3.3c-4.5-5.6-4.3-12.8,0.7-17.7
		c4.9-4.9,12.2-5.3,17.4-1c5.5,4.5,6.4,11.8,2.4,17.9c-0.9,1.4-1.6,3.1-1.6,4.7c-0.2,9-0.4,18.1-0.2,27.1c0,1.9,1.4,4.3,3,5.6
		c11.5,9.2,18,21,18.1,35.7c0.3,28.7,0.1,57.4,0.2,86.1C-498.3,126.8-498.3,129.3-498.3,131.8z M-333.5,246.8
		c51.2,0.7,90.2-42.2,90.7-88.8c0.5-53-44.1-93.9-94.9-91.5c-47.1,2.2-87,41.9-86.3,92.1C-423.3,207.2-381.4,247.8-333.5,246.8z
		 M-473.7,246.7c-5.2-10.9-10.8-21-14.8-31.7c-4-10.8-6.5-22.3-9.6-33.4c0.6,0.4,0.4,1.2,0.4,1.9c-0.2,13.2-0.8,26.5-0.1,39.7
		c0.2,4.5,2.9,9.3,5.5,13.3C-488.1,242.9-481.6,246-473.7,246.7z M-527.8,28c0-4.5-3.2-8-7.6-8.1c-4.2-0.1-7.9,3.4-8,7.7
		c0,4.5,3.2,8,7.6,8.1C-531.4,35.8-527.8,32.4-527.8,28z"/>
	<path class="st1" d="M-333.5,246.8c-47.9,1-89.8-39.6-90.5-88.2c-0.7-50.2,39.2-89.9,86.3-92.1c50.8-2.4,95.4,38.5,94.9,91.5
		C-243.3,204.6-282.3,247.6-333.5,246.8z M-247.1,158.1c1.3-43.1-31.4-84.9-81.9-87.3c-49.7-2.4-89.6,34.6-90.8,84.1
		c-1.1,47.2,34.4,85.8,83.2,87.8C-288.8,244.6-247.4,207.3-247.1,158.1z"/>
	<path class="st1" d="M-473.7,246.7c-7.9-0.8-14.4-3.9-18.6-10.2c-2.6-4-5.3-8.8-5.5-13.3c-0.6-13.2,0-26.5,0.1-39.7
		c0-0.7,0.2-1.5-0.4-1.9c3.1,11.2,5.6,22.6,9.6,33.4C-484.5,225.8-478.9,235.8-473.7,246.7z"/>
	<path class="st1" d="M-527.8,28c0,4.4-3.6,7.8-7.9,7.7c-4.4-0.1-7.6-3.6-7.6-8.1c0-4.3,3.8-7.8,8-7.7C-531,20-527.8,23.5-527.8,28z
		"/>
	<path class="st0" d="M-328.9,176c0.3-0.8,0.5-1.5,0.7-2.2c5.8-26.4,11.6-52.7,17.4-79.1c0.5-2.3,0.9-4.7,1.6-6.9
		c0.9-2.6,3.6-4.3,6.3-4.1c2.7,0.2,5.4,2.3,5.5,5c0.7,10.4,6.4,18.5,12.1,26.6c3.9,5.5,7.9,10.9,11.3,16.6
		c7.4,12.7,8.4,26.2,2.6,39.8c-2.4,5.6-5.5,10.8-8.6,16c-1.9,3.1-5,3.7-7.5,2c-2.8-1.9-3.3-4.9-1.2-8.1c3.1-4.7,5.7-9.6,6.9-15.2
		c1.3-6.4,0-12.2-4.1-17.4c-5.1-6.5-12-10.7-19-14.6c-1.6-0.9-2,0-2.3,1.4c-4.1,18.8-8.3,37.6-12.4,56.4
		c-1.8,8.1-6.8,13.7-13.5,18.2c-11.7,7.8-24.3,9.5-37.5,4.9c-3-1-5.8-2.8-8.4-4.8c-6.6-5.1-8.2-13.4-4.6-20.9
		c3.6-7.4,9.8-11.9,17.1-14.9c10.4-4.2,21.1-5.1,31.9-1.3C-332.6,174.2-330.9,175.1-328.9,176z"/>
</g>
<path class="st0" d="M470.4,355.4c0-1.1,0.1-2.3,0.1-3.5c0-67.9-46.2-127.7-107.5-139.1c-43.2-8-95,2.3-138.5,27.7
	c-8.2,4.7-16,10-23.4,15.9c0.1-7.6-0.7-15.2-2.2-22.6c30.1-3.1,59.1-13.2,84.6-29.4c56.4-33.4,87.4-77.9,72.2-103.6
	c-10.3-17.3-38.3-20.2-72.8-9.9c9.5-32.1,6.3-56.4-9.3-66.5c-12.8-8.3-31.3-4.9-52.1,9.5c-21.6,16-39.9,36-54,58.8
	c-20.5,31.9-32.5,65.5-32.8,90.3c-15.7,1.8-31,6.2-45.3,13c-24,10.5-50.7,24-63.6,50.5c-10.1,21.9-9.2,47.3,2.3,68.5
	c17.9,32.5,51.1,38,73.9,38c6.2,0,12.5-0.4,18.6-1.1l3.8-0.4c2.6-0.3,5.1-0.7,7.5-1.2c5.4,17.3,22.4,58,66.5,73.4
	c13.9,4.9,17.9,11.6,18.9,16.3H209c-17.5,0-31.7,14.2-31.7,31.7c0,4.4,3.5,7.9,7.9,7.9h212.3c10.3-0.7,18.1-9.5,17.5-19.8
	c0.1-6.3-2.6-12.2-7.5-16.2c9-4.2,17.5-9.5,25.3-15.9c6.1,3.6,13.1,5.5,20.2,5.5c22.6,0.1,40.9-18.2,40.9-40.7
	C494,376.6,484.8,362.2,470.4,355.4L470.4,355.4z M48.2,303l-5.5,5.5c-0.2-0.4-0.5-0.7-0.7-1.1c-2.5-4.7-4.4-9.7-5.6-14.9l0.6-0.6
	c3.1-3,8.2-3,11.2,0.2C51.2,295.1,51.2,299.9,48.2,303L48.2,303z M113,256.8c-3.1,3.1-8.1,3.1-11.2,0c-1.8-1.7-4.2-2.6-6.7-2.2
	c-2,0.3-3.8,1.5-4.8,3.2c-0.2,0.6-0.2,0.5-0.2-0.1c-0.3,4.4-4,7.7-8.4,7.5c-4-0.2-7.3-3.5-7.5-7.5c0.1-2.5,0.8-5,2.1-7.2
	c3.3-6.2,9.4-10.5,16.4-11.5c7.4-1.1,14.9,1.3,20.3,6.6C116.1,248.7,116.1,253.8,113,256.8z M188,208.2c-14.4-3.1-5.4-15.2-0.4-21.5
	c28.5-35.8,69.6-59.4,115-65.9c31.1-5.7,29.2,16.8,17.4,28.9c-14.2,14-30.4,25.8-48.1,35C240.6,201.6,208.9,209.9,188,208.2
	L188,208.2z M275.1,441.8c-25.3-11-41.8-35.8-42.3-63.5c0-0.5,0-1.1,0-1.6c0-48.2,26.7-64.9,50.5-70.2
	c-38.7,20.1-53.8,67.8-33.7,106.5C255.6,424.5,264.4,434.4,275.1,441.8L275.1,441.8z"/>
<path class="st1" d="M330.7,373.3c0.3-0.9,0.6-1.7,0.8-2.5c6.6-30.1,13.3-60.2,19.9-90.3c0.6-2.6,1-5.3,1.9-7.9c1-3,4.1-4.9,7.2-4.6
	c3.1,0.2,6.1,2.6,6.3,5.7c0.8,11.9,7.4,21.1,13.8,30.4c4.4,6.3,9.1,12.4,12.9,19c8.5,14.6,9.6,29.9,3,45.5
	c-2.7,6.4-6.3,12.4-9.8,18.3c-2.1,3.6-5.7,4.3-8.5,2.3c-3.2-2.2-3.7-5.5-1.4-9.2c3.5-5.4,6.6-11,7.9-17.4c1.5-7.4,0-14-4.7-19.9
	c-5.8-7.4-13.7-12.2-21.8-16.7c-1.8-1-2.2,0-2.6,1.6c-4.7,21.5-9.5,43-14.2,64.5c-2,9.3-7.8,15.7-15.4,20.7
	c-13.4,8.9-27.7,10.8-42.9,5.6c-3.4-1.2-6.7-3.2-9.5-5.5c-7.5-5.9-9.4-15.3-5.3-23.9c4.1-8.5,11.2-13.6,19.6-17
	c11.9-4.8,24.1-5.8,36.5-1.5C326.5,371.2,328.4,372.2,330.7,373.3z"/>
</svg>
