<?xml version="1.0" encoding="iso-8859-1"?>
<!-- Generator: Adobe Illustrator 27.2.0, SVG Export Plug-In . SVG Version: 6.00 Build 0)  -->
<svg version="1.1" id="Capa_1" xmlns="http://www.w3.org/2000/svg" xmlns:xlink="http://www.w3.org/1999/xlink" x="0px" y="0px"
	 viewBox="0 0 510 510" style="enable-background:new 0 0 510 510;" xml:space="preserve">
<g>
	<g>
		<g>
			<g>
				<path style="fill:#FDE0BE;" d="M35.415,466.453v-73.195h154.523c35.933,0,65.062,29.129,65.062,65.062v8.133H35.415z"/>
			</g>
			<g>
				<path style="fill:#FDE0BE;" d="M474.585,466.453v-73.195H320.062c-35.933,0-65.062,29.129-65.062,65.062v8.133H474.585z"/>
			</g>
		</g>
		<g>
			<g>
				<path style="fill:#FFFFFF;" d="M92.344,84.213v178.921c0,22.458,18.206,40.664,40.664,40.664h97.593L255,336.329l24.398-32.531
					h97.593c22.458,0,40.664-18.206,40.664-40.664V84.213c0-22.458-18.206-40.664-40.664-40.664H133.008
					C110.55,43.549,92.344,61.755,92.344,84.213z"/>
			</g>
			<g>
				<path style="fill:#D2DCFD;" d="M198.059,181.806c0-50.686,14.277-98.032,39.014-138.257H133.008
					c-22.458,0-40.664,18.205-40.664,40.664v178.921c0,22.458,18.206,40.664,40.664,40.664h94.842
					C208.826,267.299,198.059,225.812,198.059,181.806z"/>
			</g>
		</g>
	</g>
	<g>
		<g>
			<g>
				<path style="fill:#052A75;" d="M500,456.451h-15.42v-63.19c0-5.53-4.47-10-10-10H320.06c-27.78,0-52.08,15.17-65.06,37.66
					c-12.98-22.49-37.28-37.66-65.06-37.66H35.42c-5.53,0-10,4.47-10,10v63.19H10c-5.52,0-10,4.48-10,10c0,5.52,4.48,10,10,10h490
					c5.52,0,10-4.48,10-10C510,460.931,505.52,456.451,500,456.451z M45.42,456.451v-53.19h144.52c29.73,0,54.04,23.69,55.02,53.19
					H45.42z M320.06,403.261h144.52v53.19H265.04C266.02,426.951,290.33,403.261,320.06,403.261z"/>
			</g>
		</g>
		<g>
			<g>
				<path style="fill:#FD6050;" d="M247.97,202.361l-40.67-97.6c-1.55-3.72-5.19-6.15-9.23-6.15c-4.04,0-7.68,2.43-9.23,6.15
					l-40.66,97.6c-2.13,5.1,0.28,10.95,5.38,13.07c1.26,0.53,2.56,0.78,3.84,0.78c3.92,0,7.64-2.32,9.24-6.16l7.6-18.25h47.66
					l7.6,18.25c2.13,5.1,7.98,7.51,13.08,5.38C247.68,213.311,250.09,207.461,247.97,202.361z M182.58,171.801l15.49-37.19
					l15.49,37.19H182.58z"/>
			</g>
			<g>
				<path style="fill:#FD6050;" d="M362.59,238.731c0,5.53-4.47,10-10,10c-16.63,0-31.42-8.05-40.66-20.47
					c-9.24,12.42-24.03,20.47-40.66,20.47c-5.53,0-10-4.47-10-10c0-5.52,4.47-10,10-10c16.9,0,30.66-13.75,30.66-30.66v-6.27H279.4
					c-5.52,0-10-4.47-10-10c0-5.52,4.48-10,10-10h22.53v-30.66c0-5.52,4.48-10,10-10s10,4.48,10,10v30.66h22.53
					c5.52,0,10,4.48,10,10c0,5.53-4.48,10-10,10h-22.53v6.27c0,16.91,13.76,30.66,30.66,30.66
					C358.12,228.731,362.59,233.211,362.59,238.731z"/>
			</g>
			<g>
				<path style="fill:#052A75;" d="M255,346.329c-3.147,0-6.111-1.482-8-4l-21.398-28.531h-92.593
					c-27.936,0-50.664-22.728-50.664-50.664V84.213c0-27.937,22.728-50.664,50.664-50.664h243.983
					c27.936,0,50.664,22.728,50.664,50.664v178.921c0,27.937-22.728,50.664-50.664,50.664h-92.593L263,342.329
					C261.111,344.847,258.147,346.329,255,346.329z M133.008,53.549c-16.908,0-30.664,13.756-30.664,30.664v178.921
					c0,16.908,13.756,30.664,30.664,30.664h97.593c3.147,0,6.111,1.482,8,4L255,319.662l16.398-21.864c1.889-2.518,4.853-4,8-4
					h97.593c16.908,0,30.664-13.756,30.664-30.664V84.213c0-16.908-13.756-30.664-30.664-30.664H133.008z"/>
			</g>
		</g>
	</g>
</g>
<g>
</g>
<g>
</g>
<g>
</g>
<g>
</g>
<g>
</g>
<g>
</g>
<g>
</g>
<g>
</g>
<g>
</g>
<g>
</g>
<g>
</g>
<g>
</g>
<g>
</g>
<g>
</g>
<g>
</g>
</svg>
