<?xml version="1.0" encoding="utf-8"?>
<!-- Generator: Adobe Illustrator 27.3.1, SVG Export Plug-In . SVG Version: 6.00 Build 0)  -->
<svg version="1.1" id="Layer_1" xmlns="http://www.w3.org/2000/svg" xmlns:xlink="http://www.w3.org/1999/xlink" x="0px" y="0px"
	 viewBox="0 0 512 512" style="enable-background:new 0 0 512 512;" xml:space="preserve">
<style type="text/css">
	.st0{fill:url(#SVGID_1_);}
	.st1{fill:url(#SVGID_00000033333437365359080170000011292482491512199819_);}
	.st2{fill:url(#SVGID_00000023998530352789287180000018050025837283708311_);}
	.st3{fill:url(#SVGID_00000153683718617919462760000012827705230178650789_);}
	.st4{fill:#C5B69F;}
	.st5{fill:url(#SVGID_00000164477303953716493800000003111320458571282095_);}
	.st6{fill:#DECFB8;}
	.st7{fill:url(#SVGID_00000094619378972020290810000015397219168367999877_);}
	.st8{fill:#FFB200;}
	.st9{fill:#F5F2E4;}
	.st10{fill:url(#SVGID_00000093861929787069534860000005488242782966014648_);}
	.st11{fill:url(#SVGID_00000085220611071511954260000012218436409122998930_);}
	.st12{fill:url(#SVGID_00000047752765219255296850000015862581055717860506_);}
	.st13{fill:url(#SVGID_00000098929442443919239720000017673949546683572359_);}
	.st14{fill:url(#SVGID_00000113328619493053293120000015542286435304439483_);}
	.st15{fill:url(#SVGID_00000074418898496453714500000002466732141458444438_);}
	.st16{fill:url(#SVGID_00000040552718979805035400000016296030023078392979_);}
	.st17{fill:url(#SVGID_00000170262395660168075320000003290553755300428962_);}
	.st18{fill:url(#SVGID_00000096779930619364877600000016812778250337735356_);}
	.st19{fill:url(#SVGID_00000093170511799806503330000017253528057789273731_);}
	.st20{fill:url(#SVGID_00000123440778113410850130000010823575570276192703_);}
	.st21{fill:url(#SVGID_00000084512687507407983830000013047437528304290731_);}
	.st22{fill:url(#SVGID_00000128451475259449973930000003592944264900894631_);}
	.st23{fill:url(#SVGID_00000173859584615243337390000000340276030705180585_);}
	.st24{fill:url(#SVGID_00000031202773475768949750000002830132577791958439_);}
	.st25{fill:url(#SVGID_00000172416939920468267410000014728721181474582188_);}
	.st26{fill:url(#SVGID_00000088850050396804593900000018011551818882922638_);}
	.st27{fill:url(#SVGID_00000001664893467532402680000011257414996481592969_);}
	.st28{fill:#A2238E;}
</style>
<g>
	<g>
		<linearGradient id="SVGID_1_" gradientUnits="userSpaceOnUse" x1="256.1611" y1="401.5749" x2="256.1611" y2="126.1462">
			<stop  offset="0" style="stop-color:#7B0045"/>
			<stop  offset="1" style="stop-color:#D10045"/>
		</linearGradient>
		<path class="st0" d="M286.4,396.5c-19.7,6.4-40.8,6.9-60.5,0.5c0-91,0-179.9,0-270.9c19.7,6.4,40.9,6.4,60.6,0
			C286.5,217.1,286.4,305.6,286.4,396.5z"/>
		
			<linearGradient id="SVGID_00000158714548057416461970000001448644898028873404_" gradientUnits="userSpaceOnUse" x1="124.8759" y1="218.9343" x2="124.8759" y2="-53.9854" gradientTransform="matrix(1 7.540000e-02 0 1 0 234.0146)">
			<stop  offset="0" style="stop-color:#7B0045"/>
			<stop  offset="1" style="stop-color:#8E278F"/>
		</linearGradient>
		<path style="fill:url(#SVGID_00000158714548057416461970000001448644898028873404_);" d="M225.9,397L47,383.5
			c-12.8-1-23.2-12.1-23.2-24.9V132c0-12.8,10.4-22.4,23.2-21.4l178.8,13.5V397z"/>
		
			<linearGradient id="SVGID_00000168831649313777149910000017598442839233077941_" gradientUnits="userSpaceOnUse" x1="392.3018" y1="655.2059" x2="392.3018" y2="382.2856" gradientTransform="matrix(0.9986 -7.620000e-02 0 1 -4.4901 -236.4702)">
			<stop  offset="0" style="stop-color:#7B0045"/>
			<stop  offset="1" style="stop-color:#8E278F"/>
		</linearGradient>
		<path style="fill:url(#SVGID_00000168831649313777149910000017598442839233077941_);" d="M286.4,396.5L465,382.9
			c12.8-1,23.1-12.1,23.1-24.9V131.4c0-12.8-10.4-22.4-23.1-21.4l-178.6,13.6V396.5z"/>
	</g>
	<g>
		
			<linearGradient id="SVGID_00000021109222566708995860000009569817673210120848_" gradientUnits="userSpaceOnUse" x1="36.8215" y1="-1.6414" x2="253.2843" y2="-1.6414" gradientTransform="matrix(1 7.540000e-02 0 1 0 234.0146)">
			<stop  offset="0" style="stop-color:#C5B69F"/>
			<stop  offset="1" style="stop-color:#A39B88"/>
		</linearGradient>
		<path style="fill:url(#SVGID_00000021109222566708995860000009569817673210120848_);" d="M253.3,387.9L60,373.4
			c-12.8-1-23.2-12.1-23.2-24.9V121.9c0-12.8,10.4-22.4,23.2-21.4L253.3,115V387.9z"/>
		<path class="st4" d="M253.3,387.9L452,372.8c12.8-1,23.1-12.1,23.1-24.9V121.3c0-12.8-10.4-22.4-23.1-21.4L253.3,115V387.9z"/>
	</g>
	<g>
		
			<linearGradient id="SVGID_00000035517784779569351260000015044350094373591205_" gradientUnits="userSpaceOnUse" x1="41.8423" y1="-5.6828" x2="253.3466" y2="-5.6828" gradientTransform="matrix(1 7.540000e-02 0 1 0 234.0146)">
			<stop  offset="0" style="stop-color:#DECFB8"/>
			<stop  offset="1" style="stop-color:#BCB4A1"/>
		</linearGradient>
		<path style="fill:url(#SVGID_00000035517784779569351260000015044350094373591205_);" d="M253.3,384.6L64.5,370
			c-12.5-1-22.6-12.2-22.6-25V117.5C41.8,104.7,52,95,64.5,96l188.9,14.6V384.6z"/>
		<path class="st6" d="M253.3,384.6l194.2-15.2c12.5-1,22.6-12.2,22.6-25V116.9c0-12.8-10.1-22.5-22.6-21.5l-194.2,15.2V384.6z"/>
	</g>
	<g>
		
			<linearGradient id="SVGID_00000129197202373500231950000013734730992545324472_" gradientUnits="userSpaceOnUse" x1="45.8687" y1="-9.3675" x2="253.3266" y2="-9.3675" gradientTransform="matrix(1 7.540000e-02 0 1 0 234.0146)">
			<stop  offset="0" style="stop-color:#F5F2E4"/>
			<stop  offset="1" style="stop-color:#DECFB8"/>
		</linearGradient>
		<path style="fill:url(#SVGID_00000129197202373500231950000013734730992545324472_);" d="M253.3,380.3L68.7,366.2
			c-12.6-1-22.8-12.1-22.8-24.9V114.7c0-12.8,10.2-22.4,22.8-21.4l184.6,14.1V380.3z"/>
		<g>
			<path class="st8" d="M232.8,364.3L71,351.9c-6-0.5-10.9-5.8-10.9-11.9V118.1c0-6.1,4.9-10.7,10.9-10.2l161.8,12.4
				c3.5,0.3,6.3,3.4,6.3,6.9v231.2C239.1,361.9,236.3,364.6,232.8,364.3z M71,116.1c-1.6-0.1-2.8,1.1-2.8,2.6v221.9
				c0,1.6,1.3,3,2.8,3.1L231.1,356V128.3L71,116.1z"/>
		</g>
		<path class="st9" d="M253.3,380.3l190-14.7c12.6-1,22.8-12.1,22.8-24.9V114.1c0-12.8-10.2-22.4-22.8-21.4l-190,14.7V380.3z"/>
		<g>
			<path class="st8" d="M441.1,351.3l-167.2,13c-3.5,0.3-6.3-2.4-6.3-5.9V127.2c0-3.5,2.8-6.6,6.3-6.9l167.2-13
				c6-0.5,10.9,4.1,10.9,10.2v221.9C451.9,345.5,447.1,350.8,441.1,351.3z M275.6,356l165.5-12.8c1.6-0.1,2.8-1.5,2.8-3.1V118.1
				c0-1.6-1.3-2.8-2.8-2.6l-165.5,12.8V356z"/>
		</g>
		<g>
			<g>
				
					<linearGradient id="SVGID_00000057842902608545980610000018259430776870067615_" gradientUnits="userSpaceOnUse" x1="79.0812" y1="-99.1404" x2="217.6669" y2="-99.1404" gradientTransform="matrix(1 7.540000e-02 0 1 0 234.0146)">
					<stop  offset="0" style="stop-color:#8D5828"/>
					<stop  offset="1" style="stop-color:#AE6E3A"/>
				</linearGradient>
				<path style="fill:url(#SVGID_00000057842902608545980610000018259430776870067615_);" d="M213.6,155.1l-130.5-10
					c-2.2-0.2-4-2.1-4-4.4c0-2.3,1.8-3.9,4-3.8l130.5,10c2.2,0.2,4,2.1,4,4.4S215.9,155.3,213.6,155.1z"/>
			</g>
			<g>
				
					<linearGradient id="SVGID_00000107561847859334157060000014500746321366140335_" gradientUnits="userSpaceOnUse" x1="79.0812" y1="-76.8461" x2="217.6669" y2="-76.8461" gradientTransform="matrix(1 7.540000e-02 0 1 0 234.0146)">
					<stop  offset="0" style="stop-color:#8D5828"/>
					<stop  offset="1" style="stop-color:#AE6E3A"/>
				</linearGradient>
				<path style="fill:url(#SVGID_00000107561847859334157060000014500746321366140335_);" d="M213.6,177.4l-130.5-10
					c-2.2-0.2-4-2.1-4-4.4c0-2.3,1.8-3.9,4-3.8l130.5,10c2.2,0.2,4,2.1,4,4.4C217.7,175.9,215.9,177.6,213.6,177.4z"/>
			</g>
			<g>
				
					<linearGradient id="SVGID_00000084495846160608653180000010082890002822966945_" gradientUnits="userSpaceOnUse" x1="79.0812" y1="-54.5518" x2="217.6669" y2="-54.5518" gradientTransform="matrix(1 7.540000e-02 0 1 0 234.0146)">
					<stop  offset="0" style="stop-color:#8D5828"/>
					<stop  offset="1" style="stop-color:#AE6E3A"/>
				</linearGradient>
				<path style="fill:url(#SVGID_00000084495846160608653180000010082890002822966945_);" d="M213.6,199.7l-130.5-10
					c-2.2-0.2-4-2.1-4-4.4s1.8-3.9,4-3.8l130.5,10c2.2,0.2,4,2.1,4,4.4S215.9,199.9,213.6,199.7z"/>
			</g>
			<g>
				
					<linearGradient id="SVGID_00000133513389839904633110000003327369225270977471_" gradientUnits="userSpaceOnUse" x1="79.0812" y1="-32.2576" x2="217.6669" y2="-32.2576" gradientTransform="matrix(1 7.540000e-02 0 1 0 234.0146)">
					<stop  offset="0" style="stop-color:#8D5828"/>
					<stop  offset="1" style="stop-color:#AE6E3A"/>
				</linearGradient>
				<path style="fill:url(#SVGID_00000133513389839904633110000003327369225270977471_);" d="M213.6,222L83.1,212
					c-2.2-0.2-4-2.1-4-4.4c0-2.3,1.8-3.9,4-3.8l130.5,10c2.2,0.2,4,2.1,4,4.4C217.7,220.5,215.9,222.2,213.6,222z"/>
			</g>
			<g>
				
					<linearGradient id="SVGID_00000049917086813558246440000009145610626203171509_" gradientUnits="userSpaceOnUse" x1="79.0812" y1="-9.9633" x2="217.6669" y2="-9.9633" gradientTransform="matrix(1 7.540000e-02 0 1 0 234.0146)">
					<stop  offset="0" style="stop-color:#8D5828"/>
					<stop  offset="1" style="stop-color:#AE6E3A"/>
				</linearGradient>
				<path style="fill:url(#SVGID_00000049917086813558246440000009145610626203171509_);" d="M213.6,244.3l-130.5-10
					c-2.2-0.2-4-2.1-4-4.4c0-2.3,1.8-3.9,4-3.8l130.5,10c2.2,0.2,4,2.1,4,4.4C217.7,242.8,215.9,244.5,213.6,244.3z"/>
			</g>
			<g>
				
					<linearGradient id="SVGID_00000152949333838006508180000000605057712510003080_" gradientUnits="userSpaceOnUse" x1="79.0812" y1="12.3306" x2="217.6669" y2="12.3306" gradientTransform="matrix(1 7.540000e-02 0 1 0 234.0146)">
					<stop  offset="0" style="stop-color:#8D5828"/>
					<stop  offset="1" style="stop-color:#AE6E3A"/>
				</linearGradient>
				<path style="fill:url(#SVGID_00000152949333838006508180000000605057712510003080_);" d="M213.6,266.6l-130.5-10
					c-2.2-0.2-4-2.1-4-4.4c0-2.3,1.8-3.9,4-3.8l130.5,10c2.2,0.2,4,2.1,4,4.4C217.7,265.1,215.9,266.8,213.6,266.6z"/>
			</g>
			<g>
				
					<linearGradient id="SVGID_00000150790853551307127920000014603929395551872926_" gradientUnits="userSpaceOnUse" x1="79.0812" y1="34.6248" x2="217.6669" y2="34.6248" gradientTransform="matrix(1 7.540000e-02 0 1 0 234.0146)">
					<stop  offset="0" style="stop-color:#8D5828"/>
					<stop  offset="1" style="stop-color:#AE6E3A"/>
				</linearGradient>
				<path style="fill:url(#SVGID_00000150790853551307127920000014603929395551872926_);" d="M213.6,288.9l-130.5-10
					c-2.2-0.2-4-2.1-4-4.4s1.8-3.9,4-3.8l130.5,10c2.2,0.2,4,2.1,4,4.4S215.9,289.1,213.6,288.9z"/>
			</g>
			<g>
				
					<linearGradient id="SVGID_00000016790348823428901050000000136727255554750117_" gradientUnits="userSpaceOnUse" x1="79.0812" y1="56.9191" x2="217.6669" y2="56.9191" gradientTransform="matrix(1 7.540000e-02 0 1 0 234.0146)">
					<stop  offset="0" style="stop-color:#8D5828"/>
					<stop  offset="1" style="stop-color:#AE6E3A"/>
				</linearGradient>
				<path style="fill:url(#SVGID_00000016790348823428901050000000136727255554750117_);" d="M213.6,311.2l-130.5-10
					c-2.2-0.2-4-2.1-4-4.4s1.8-3.9,4-3.8l130.5,10c2.2,0.2,4,2.1,4,4.4C217.7,309.7,215.9,311.4,213.6,311.2z"/>
			</g>
			<g>
				
					<linearGradient id="SVGID_00000060749059107722288290000010536370615396387232_" gradientUnits="userSpaceOnUse" x1="79.0812" y1="79.2133" x2="217.6669" y2="79.2133" gradientTransform="matrix(1 7.540000e-02 0 1 0 234.0146)">
					<stop  offset="0" style="stop-color:#8D5828"/>
					<stop  offset="1" style="stop-color:#AE6E3A"/>
				</linearGradient>
				<path style="fill:url(#SVGID_00000060749059107722288290000010536370615396387232_);" d="M213.6,333.5l-130.5-10
					c-2.2-0.2-4-2.1-4-4.4c0-2.3,1.8-3.9,4-3.8l130.5,10c2.2,0.2,4,2.1,4,4.4S215.9,333.7,213.6,333.5z"/>
			</g>
		</g>
		<g>
			<g>
				
					<linearGradient id="SVGID_00000097468877042631590410000014412303674245696670_" gradientUnits="userSpaceOnUse" x1="295.4378" y1="410.1148" x2="434.0278" y2="410.1148" gradientTransform="matrix(0.9986 -7.620000e-02 0 1 -4.4901 -236.4702)">
					<stop  offset="0" style="stop-color:#8D5828"/>
					<stop  offset="1" style="stop-color:#AE6E3A"/>
				</linearGradient>
				<path style="fill:url(#SVGID_00000097468877042631590410000014412303674245696670_);" d="M424.9,144.9L294.6,155
					c-2.2,0.2-4-1.5-4-3.8c0-2.3,1.8-4.2,4-4.4l130.4-10.1c2.2-0.2,4,1.5,4,3.8C428.9,142.7,427.1,144.7,424.9,144.9z"/>
			</g>
			<g>
				
					<linearGradient id="SVGID_00000115496800221500871620000012114585845289404042_" gradientUnits="userSpaceOnUse" x1="295.4378" y1="432.4091" x2="434.0278" y2="432.4091" gradientTransform="matrix(0.9986 -7.620000e-02 0 1 -4.4901 -236.4702)">
					<stop  offset="0" style="stop-color:#8D5828"/>
					<stop  offset="1" style="stop-color:#AE6E3A"/>
				</linearGradient>
				<path style="fill:url(#SVGID_00000115496800221500871620000012114585845289404042_);" d="M424.9,167.2l-130.4,10.1
					c-2.2,0.2-4-1.5-4-3.8c0-2.3,1.8-4.2,4-4.4L424.9,159c2.2-0.2,4,1.5,4,3.8C428.9,165,427.1,167,424.9,167.2z"/>
			</g>
			<g>
				
					<linearGradient id="SVGID_00000169529814626244890340000009522783726718118823_" gradientUnits="userSpaceOnUse" x1="295.4378" y1="454.7033" x2="434.0278" y2="454.7033" gradientTransform="matrix(0.9986 -7.620000e-02 0 1 -4.4901 -236.4702)">
					<stop  offset="0" style="stop-color:#8D5828"/>
					<stop  offset="1" style="stop-color:#AE6E3A"/>
				</linearGradient>
				<path style="fill:url(#SVGID_00000169529814626244890340000009522783726718118823_);" d="M424.9,189.5l-130.4,10.1
					c-2.2,0.2-4-1.5-4-3.8s1.8-4.2,4-4.4l130.4-10.1c2.2-0.2,4,1.5,4,3.8C428.9,187.3,427.1,189.3,424.9,189.5z"/>
			</g>
			<g>
				
					<linearGradient id="SVGID_00000153696453500521187490000003104899659815084430_" gradientUnits="userSpaceOnUse" x1="295.4378" y1="476.9976" x2="434.0278" y2="476.9976" gradientTransform="matrix(0.9986 -7.620000e-02 0 1 -4.4901 -236.4702)">
					<stop  offset="0" style="stop-color:#8D5828"/>
					<stop  offset="1" style="stop-color:#AE6E3A"/>
				</linearGradient>
				<path style="fill:url(#SVGID_00000153696453500521187490000003104899659815084430_);" d="M424.9,211.8l-130.4,10.1
					c-2.2,0.2-4-1.5-4-3.8c0-2.3,1.8-4.2,4-4.4l130.4-10.1c2.2-0.2,4,1.5,4,3.8S427.1,211.6,424.9,211.8z"/>
			</g>
			<g>
				
					<linearGradient id="SVGID_00000114069247363852147760000005804033314556987044_" gradientUnits="userSpaceOnUse" x1="295.4378" y1="499.2918" x2="434.0278" y2="499.2918" gradientTransform="matrix(0.9986 -7.620000e-02 0 1 -4.4901 -236.4702)">
					<stop  offset="0" style="stop-color:#8D5828"/>
					<stop  offset="1" style="stop-color:#AE6E3A"/>
				</linearGradient>
				<path style="fill:url(#SVGID_00000114069247363852147760000005804033314556987044_);" d="M424.9,234.1l-130.4,10.1
					c-2.2,0.2-4-1.5-4-3.8c0-2.3,1.8-4.2,4-4.4l130.4-10.1c2.2-0.2,4,1.5,4,3.8S427.1,233.9,424.9,234.1z"/>
			</g>
			<g>
				
					<linearGradient id="SVGID_00000054264448133523871850000017242078929889434272_" gradientUnits="userSpaceOnUse" x1="295.4378" y1="521.5857" x2="434.0278" y2="521.5857" gradientTransform="matrix(0.9986 -7.620000e-02 0 1 -4.4901 -236.4702)">
					<stop  offset="0" style="stop-color:#8D5828"/>
					<stop  offset="1" style="stop-color:#AE6E3A"/>
				</linearGradient>
				<path style="fill:url(#SVGID_00000054264448133523871850000017242078929889434272_);" d="M424.9,256.4l-130.4,10.1
					c-2.2,0.2-4-1.5-4-3.8c0-2.3,1.8-4.2,4-4.4l130.4-10.1c2.2-0.2,4,1.5,4,3.8C428.9,254.2,427.1,256.2,424.9,256.4z"/>
			</g>
			<g>
				
					<linearGradient id="SVGID_00000157993433094375029790000018435779912170371257_" gradientUnits="userSpaceOnUse" x1="295.4378" y1="543.8799" x2="434.0278" y2="543.8799" gradientTransform="matrix(0.9986 -7.620000e-02 0 1 -4.4901 -236.4702)">
					<stop  offset="0" style="stop-color:#8D5828"/>
					<stop  offset="1" style="stop-color:#AE6E3A"/>
				</linearGradient>
				<path style="fill:url(#SVGID_00000157993433094375029790000018435779912170371257_);" d="M424.9,278.7l-130.4,10.1
					c-2.2,0.2-4-1.5-4-3.8s1.8-4.2,4-4.4l130.4-10.1c2.2-0.2,4,1.5,4,3.8C428.9,276.5,427.1,278.5,424.9,278.7z"/>
			</g>
			<g>
				
					<linearGradient id="SVGID_00000076599548703555580020000000433267587138167190_" gradientUnits="userSpaceOnUse" x1="295.4378" y1="566.1742" x2="434.0278" y2="566.1742" gradientTransform="matrix(0.9986 -7.620000e-02 0 1 -4.4901 -236.4702)">
					<stop  offset="0" style="stop-color:#8D5828"/>
					<stop  offset="1" style="stop-color:#AE6E3A"/>
				</linearGradient>
				<path style="fill:url(#SVGID_00000076599548703555580020000000433267587138167190_);" d="M424.9,300.9l-130.4,10.1
					c-2.2,0.2-4-1.5-4-3.8c0-2.3,1.8-4.2,4-4.4l130.4-10.1c2.2-0.2,4,1.5,4,3.8C428.9,298.8,427.1,300.8,424.9,300.9z"/>
			</g>
			<g>
				
					<linearGradient id="SVGID_00000066496979953115942880000005363376139564044433_" gradientUnits="userSpaceOnUse" x1="295.4378" y1="588.4684" x2="434.0278" y2="588.4684" gradientTransform="matrix(0.9986 -7.620000e-02 0 1 -4.4901 -236.4702)">
					<stop  offset="0" style="stop-color:#8D5828"/>
					<stop  offset="1" style="stop-color:#AE6E3A"/>
				</linearGradient>
				<path style="fill:url(#SVGID_00000066496979953115942880000005363376139564044433_);" d="M424.9,323.2l-130.4,10.1
					c-2.2,0.2-4-1.5-4-3.8s1.8-4.2,4-4.4l130.4-10.1c2.2-0.2,4,1.5,4,3.8S427.1,323.1,424.9,323.2z"/>
			</g>
		</g>
	</g>
	<path class="st28" d="M286.4,414.4l-16.5-9.9l-16.5,15l0-317c0-2.4,1.9-4.4,4.3-4.6l23.8-1.8c2.7-0.2,5,1.9,5,4.6V414.4z"/>
</g>
</svg>
