<?xml version="1.0" encoding="utf-8"?>
<!-- Generator: Adobe Illustrator 27.3.1, SVG Export Plug-In . SVG Version: 6.00 Build 0)  -->
<svg version="1.1" id="Layer_1" xmlns="http://www.w3.org/2000/svg" xmlns:xlink="http://www.w3.org/1999/xlink" x="0px" y="0px"
	 viewBox="0 0 512 512" style="enable-background:new 0 0 512 512;" xml:space="preserve">
<style type="text/css">
	.st0{fill:url(#SVGID_1_);}
	.st1{fill:#EF86B1;}
	.st2{fill:#E4EEF9;}
	.st3{fill:url(#SVGID_00000014636409778392896210000009877250959010224785_);}
	.st4{fill:#572058;}
	.st5{fill:#3D0D3E;}
</style>
<g>
	<g>
		<g>
			
				<linearGradient id="SVGID_1_" gradientUnits="userSpaceOnUse" x1="55.3" y1="1757.3895" x2="249" y2="1757.3895" gradientTransform="matrix(1 0 0 1 0 -1406)">
				<stop  offset="0" style="stop-color:#7B0045"/>
				<stop  offset="1" style="stop-color:#8E278F"/>
			</linearGradient>
			<path class="st0" d="M55.3,226.2C71.8,285,83,345.4,88.7,406.2c56.5,13.2,114.1,34.3,160.3,70.5c0-56.4,0-189.4,0-189.4
				s-31.3-26-72.9-40.8C137.3,232.8,96.4,225,55.3,226.2z"/>
			<path class="st1" d="M249,281.6c0,0-56.8-58.4-176.4-63L68,199C67.9,198.9,207.6,207.2,249,281.6z"/>
			<path class="st2" d="M249,271.2c0,0-46.1-68.5-164.6-80.4l-3.8-18.9C80.6,171.9,193.8,182.6,249,271.2z"/>
		</g>
		<g>
			
				<linearGradient id="SVGID_00000129183394221190654880000014606555408957431218_" gradientUnits="userSpaceOnUse" x1="249" y1="1757.3895" x2="442.7" y2="1757.3895" gradientTransform="matrix(1 0 0 1 0 -1406)">
				<stop  offset="0" style="stop-color:#7B0045"/>
				<stop  offset="1" style="stop-color:#8E278F"/>
			</linearGradient>
			<path style="fill:url(#SVGID_00000129183394221190654880000014606555408957431218_);" d="M442.7,226.2
				c-16.5,58.8-27.7,119.1-33.4,180c-56.5,13.2-114.1,34.3-160.3,70.5c0-56.4,0-189.4,0-189.4s31.3-26,72.9-40.8
				C360.6,232.8,401.6,225,442.7,226.2z"/>
			<path class="st1" d="M249,281.6c0,0,56.8-58.4,176.4-63L430,199C430,198.9,290.3,207.2,249,281.6z"/>
			<path class="st2" d="M249,271.2c0,0,46.1-68.5,164.6-80.4l3.8-18.9C417.3,171.9,304.2,182.6,249,271.2z"/>
		</g>
	</g>
	<g>
		<path class="st1" d="M189.5,174.1c-8.7,0-15.9-7.1-15.9-15.9c0-8.7,7.1-15.9,15.9-15.9s15.9,7.1,15.9,15.9
			C205.3,167,198.2,174.1,189.5,174.1z M189.5,146.7c-6.4,0-11.5,5.2-11.5,11.5c0,6.4,5.2,11.5,11.5,11.5s11.5-5.2,11.5-11.5
			S195.8,146.7,189.5,146.7z"/>
	</g>
	<g>
		<path class="st2" d="M338,160.4c-11.4,0-20.6-9.3-20.6-20.6c0-11.4,9.3-20.6,20.6-20.6s20.6,9.3,20.6,20.6
			C358.7,151.1,349.4,160.4,338,160.4z M338,123.4c-9,0-16.3,7.3-16.3,16.3S329,156,338,156s16.3-7.3,16.3-16.3
			C354.3,130.8,347,123.4,338,123.4z"/>
	</g>
	<g>
		<path class="st4" d="M135,156.4c-4.5,0-8.2-3.7-8.2-8.2s3.7-8.2,8.2-8.2s8.2,3.7,8.2,8.2S139.5,156.4,135,156.4z M135,144.4
			c-2.1,0-3.8,1.7-3.8,3.8s1.7,3.8,3.8,3.8s3.8-1.7,3.8-3.8C138.9,146.1,137.1,144.4,135,144.4z"/>
	</g>
	<g>
		<path class="st1" d="M285.8,96.1l-8.3-3.5c-1.2-0.5-2-1.6-2.3-2.8l-1.8-8.8c-0.6-3.2-4.6-4.2-6.8-1.8l-5.9,6.8
			c-0.8,1-2.1,1.5-3.4,1.3l-8.9-1c-3.2-0.4-5.4,3.1-3.8,5.9l4.6,7.7c0.7,1.1,0.7,2.5,0.2,3.6l-3.7,8.2c-1.3,2.9,1.3,6.1,4.4,5.4
			l8.8-2c1.3-0.3,2.6,0.1,3.5,0.9l6.6,6.1c2.4,2.2,6.2,0.7,6.5-2.5l0.8-9c0.1-1.3,0.9-2.4,2-3l7.8-4.4
			C289,101.4,288.7,97.3,285.8,96.1z"/>
	</g>
	<g>
		<path class="st2" d="M184,33.1l-12.9,3.7c-1.8,0.5-3.8,0.1-5.3-1.1l-10.4-8.5c-3.7-3-9.3-0.5-9.5,4.3L145.6,45
			c-0.1,1.9-1.1,3.7-2.7,4.7l-11.3,7.2c-4,2.6-3.4,8.7,1.2,10.3l12.6,4.5c1.8,0.6,3.2,2.1,3.6,4l3.4,12.9c1.2,4.6,7.2,5.9,10.2,2.1
			l8.2-10.6c1.2-1.5,3-2.3,4.9-2.2l13.4,0.8c4.8,0.3,7.8-5.1,5.1-9l-7.5-11.1c-1.1-1.6-1.3-3.6-0.6-5.4l4.9-12.5
			C192.8,36.3,188.6,31.8,184,33.1z"/>
	</g>
	<g>
		<g>
			<path class="st5" d="M256.6,200.6l-6.7,1.3c-0.9,0.2-1.9-0.1-2.6-0.8l-4.8-4.7c-1.7-1.7-4.7-0.7-5,1.7l-0.8,6.7
				c-0.1,1-0.7,1.8-1.6,2.2l-6,3.1c-2.2,1.1-2.1,4.2,0.1,5.3l6.2,2.9c0.9,0.4,1.5,1.2,1.7,2.2l1.1,6.7c0.4,2.4,3.4,3.3,5,1.5l4.6-5
				c0.7-0.7,1.6-1,2.6-0.9l6.7,1c2.4,0.4,4.2-2.2,3-4.3l-3.3-5.9c-0.5-0.8-0.5-1.9-0.1-2.7l3-6.1C260.9,202.6,259,200.1,256.6,200.6
				z"/>
		</g>
	</g>
	<g>
		<path class="st5" d="M422.2,92.9l-8.7-5.4c-1.2-0.8-2-2.1-2.1-3.5L411,73.8c-0.2-3.7-4.5-5.5-7.2-3.2l-7.8,6.6
			c-1.1,0.9-2.6,1.3-4,0.9l-9.8-2.7c-3.5-1-6.6,2.5-5.3,5.9l3.8,9.4c0.5,1.3,0.4,2.9-0.4,4.1l-5.6,8.5c-2,3.1,0.4,7.1,4,6.8
			l10.2-0.7c1.4-0.1,2.9,0.5,3.8,1.6l6.4,8c2.3,2.9,6.9,1.9,7.7-1.7l2.4-9.9c0.3-1.4,1.4-2.6,2.7-3.1l9.5-3.6
			C424.8,99.5,425.3,94.8,422.2,92.9z"/>
	</g>
	<g>
		<path class="st5" d="M288.1,152.2c0,2.2-1.8,4-4,4s-4-1.8-4-4s1.8-4,4-4S288.1,150,288.1,152.2z"/>
	</g>
	<path class="st2" d="M107.5,89.1c0,2.2-1.8,4-4,4s-4-1.8-4-4s1.8-4,4-4S107.5,86.9,107.5,89.1z"/>
	<circle class="st2" cx="342.2" cy="69.6" r="8.1"/>
	<circle class="st1" cx="190.9" cy="105.4" r="6.3"/>
</g>
<g>
	<path class="st1" d="M96.1,138.2l-1.2,0.9c-1.6,1.1-1.7,1.6-1.3,3l0.7,2.4l-1.5,0.5l-1.1-1.6c-1-1.5-1.4-2.2-1.5-2.7
		c-0.4-1.2,0.2-2.2,2.5-3.8l2.1-1.5c1.4-1,1.9-2.2,1.5-3.6c-0.6-2-3-3.7-5.1-4.7l5.4,1.5l-8.1,1c-2.6,0.3-3.3-0.3-3.6-1.3
		c-0.4-1.3,0.2-2.1,1.5-2.9c3.6-0.7,10.7,0.9,12.4,6.4C99.4,134.3,98.6,136.4,96.1,138.2z M93,152.2c-0.4-1.4,0.3-3,1.8-3.5
		c1.5-0.5,3,0.4,3.5,1.8s-0.3,3-1.8,3.5C95,154.5,93.5,153.6,93,152.2z"/>
</g>
<g>
	<path class="st2" d="M321,60.9l-2.8,0.4c-3.6,0.5-4.2,1.2-4.7,3.8l-0.8,4.6l-3-0.5l-0.5-3.5c-0.4-3.4-0.3-4.8-0.2-5.8
		c0.4-2.4,2.2-3.5,7.4-4.2l4.7-0.7c3.1-0.5,5.1-2,5.6-4.8c0.7-3.9-1.8-8.8-4.5-12.3l7.7,7.3l-14.4-5.3c-4.6-1.7-5.3-3.4-4.9-5.3
		c0.4-2.5,2.1-3.4,5.1-3.6c6.6,1.9,17,10.8,15.1,21.3C329.9,57.2,326.7,60.1,321,60.9z M303.8,81.6c0.5-2.8,3.2-4.7,6-4.2
		c2.9,0.5,4.7,3.4,4.2,6s-3.2,4.7-6,4.2C305.1,87.1,303.3,84.3,303.8,81.6z"/>
</g>
<g>
	<path class="st5" d="M224.3,134.9l-1.7,1.3c-2.3,1.7-2.4,2.4-1.7,4.5l1.1,3.6l-2.2,0.7l-1.6-2.4c-1.5-2.3-2-3.4-2.3-4.1
		c-0.6-1.9,0.2-3.3,3.4-5.7l2.9-2.2c1.9-1.5,2.7-3.3,2-5.5c-1-3.1-4.4-5.7-7.6-7.2l7.9,2.4l-11.6,1.4c-3.7,0.4-4.8-0.5-5.3-2
		c-0.6-1.9,0.2-3.2,2.1-4.4c5.1-1,15.4,1.6,18,9.9C228.9,129,227.8,132.3,224.3,134.9z M220.3,156.1c-0.7-2.2,0.4-4.5,2.5-5.2
		s4.4,0.7,5.1,2.8c0.7,2.1-0.4,4.5-2.5,5.2C223.3,159.5,221,158.2,220.3,156.1z"/>
</g>
</svg>
