<?xml version="1.0" encoding="UTF-8"?>
<svg version="1.1" xmlns="http://www.w3.org/2000/svg" width="200" height="200">
<path d="M0 0 C25.74 0 51.48 0 78 0 C78 30.36 78 60.72 78 92 C73.38 92 68.76 92 64 92 C63.98541748 90.44684082 63.97083496 88.89368164 63.95581055 87.29345703 C63.89756908 81.49716885 63.82033782 75.70125867 63.73754883 69.90527344 C63.70442081 67.40305749 63.67635167 64.90076899 63.65356445 62.3984375 C63.61979548 58.78874981 63.56746726 55.17971976 63.51171875 51.5703125 C63.50532883 50.46261505 63.4989389 49.3549176 63.49235535 48.21365356 C63.32105528 39.03735588 62.27904884 30.37641323 55.74609375 23.46875 C49.74628077 18.42192745 42.75107187 16.37491356 35 17 C27.30944897 19.31918179 21.39898464 22.11321714 17.4074707 29.30810547 C14.32204336 35.63762831 14.27013062 41.50445094 14.29296875 48.4453125 C14.27784744 49.69633759 14.26272614 50.94736267 14.24714661 52.23629761 C14.21168288 55.52764562 14.19712866 58.81817301 14.19311523 62.10968018 C14.18371863 65.48214157 14.14626534 68.85428612 14.11132812 72.2265625 C14.04864789 78.8177754 14.01617581 85.40851557 14 92 C9.38 92 4.76 92 0 92 C0 61.64 0 31.28 0 0 Z " fill="#CA8E24" transform="translate(62,84)"/>
<path d="M0 0 C5.09620539 3.01237564 8.70841667 7.93775001 10.5625 13.5 C10.65090088 15.35594728 10.68012704 17.21495117 10.67602539 19.07299805 C10.67594986 20.21395432 10.67587433 21.35491058 10.67579651 22.53044128 C10.67063522 23.76176285 10.66547394 24.99308441 10.66015625 26.26171875 C10.6587413 27.52264847 10.65732635 28.78357819 10.65586853 30.0827179 C10.65121575 33.43151709 10.64223342 36.78024811 10.63116455 40.12902832 C10.62092687 43.54760133 10.61631105 46.96618159 10.61132812 50.38476562 C10.60114107 57.08988216 10.58156669 63.79487926 10.5625 70.5 C-3.6275 70.5 -17.8175 70.5 -32.4375 70.5 C-32.55263101 62.70690972 -32.65207691 54.9168 -32.7121582 47.12353516 C-32.73721759 44.47564668 -32.77127435 41.82782678 -32.81469727 39.18017578 C-32.87572279 35.36213196 -32.90379732 31.54500706 -32.92578125 27.7265625 C-32.96449089 25.96658432 -32.96449089 25.96658432 -33.00398254 24.17105103 C-33.00653005 16.61324749 -31.86559271 10.75737605 -27.4375 4.5 C-20.25284491 -2.33106772 -9.15504707 -4.02751102 0 0 Z " fill="#CA8E24" transform="translate(111.4375,105.5)"/>
<path d="M0 0 C0.44988281 0.35191406 0.89976563 0.70382813 1.36328125 1.06640625 C8.31340437 6.40086948 15.49907871 11.24174551 23.30859375 15.234375 C24.43890015 15.81384888 24.43890015 15.81384888 25.59204102 16.4050293 C27.07945935 17.15915723 28.5732491 17.90088763 30.07397461 18.62817383 C35.50676633 21.37133997 39.21273097 24.42546193 42 30 C42.44197139 36.7400637 41.57656669 39.80013318 37.30319214 45.10728455 C34.22561096 47.63637683 32.35360021 47.5126914 28.39892578 47.53344727 C27.74473663 47.54206284 27.09054749 47.55067841 26.41653442 47.55955505 C24.25905511 47.58221314 22.1028753 47.57547634 19.9453125 47.56640625 C18.4408225 47.57164298 16.93633579 47.57791964 15.43185425 47.58518982 C12.27944487 47.59559439 9.12748683 47.59103374 5.97509766 47.57641602 C1.94414805 47.5592505 -2.08537312 47.58269331 -6.11616325 47.61790562 C-9.2235755 47.63991928 -12.33064825 47.63842836 -15.43811417 47.6301403 C-16.92361134 47.62932249 -18.40913386 47.63615341 -19.89455795 47.65091133 C-32.9535915 47.76074246 -32.9535915 47.76074246 -36.86767578 44.60131836 C-40.83602858 39.76014604 -41.22286431 36.45319874 -40.77734375 30.37890625 C-38.86843285 24.53706334 -35.10380302 21.84743758 -29.8671875 19.10546875 C-27.87455015 18.12310086 -25.87692309 17.15080382 -23.875 16.1875 C-14.87147379 11.69418694 -7.16356829 7.16356829 0 0 Z " fill="#CA8E24" transform="translate(100,24)"/>
<path d="M0 0 C7.074375 -0.020625 14.14875 -0.04125 21.4375 -0.0625 C24.79119751 -0.07615601 24.79119751 -0.07615601 28.21264648 -0.09008789 C29.97379496 -0.09300696 31.73494411 -0.09555554 33.49609375 -0.09765625 C34.41942505 -0.10277222 35.34275635 -0.10788818 36.29406738 -0.11315918 C37.16696411 -0.11328003 38.03986084 -0.11340088 38.93920898 -0.11352539 C40.08171364 -0.11685631 40.08171364 -0.11685631 41.24729919 -0.12025452 C43 0 43 0 44 1 C44.09956278 3.1726268 44.12799719 5.34853106 44.12939453 7.5234375 C44.13114685 8.20472717 44.13289917 8.88601685 44.13470459 9.58795166 C44.13912242 11.85032667 44.13618538 14.11262413 44.1328125 16.375 C44.13348556 17.9405926 44.1344556 19.5061851 44.13571167 21.07177734 C44.13718855 24.35710645 44.13503441 27.64240842 44.13037109 30.92773438 C44.1246738 35.14820516 44.12795286 39.36861236 44.13394356 43.58908081 C44.13754944 46.82316572 44.13641046 50.05723545 44.13381577 53.2913208 C44.13314657 54.84792081 44.13397466 56.40452218 44.13629532 57.96112061 C44.1388223 60.13297196 44.13498065 62.30471896 44.12939453 64.4765625 C44.12859894 65.71486816 44.12780334 66.95317383 44.12698364 68.22900391 C44 71 44 71 43 72 C41.64905018 72.09268999 40.29332909 72.11747326 38.93920898 72.11352539 C38.06631226 72.11340454 37.19341553 72.11328369 36.29406738 72.11315918 C35.37073608 72.10804321 34.44740479 72.10292725 33.49609375 72.09765625 C32.6517981 72.09664917 31.80750244 72.09564209 30.93762207 72.09460449 C27.77090098 72.0893557 24.60419919 72.07539456 21.4375 72.0625 C14.363125 72.041875 7.28875 72.02125 0 72 C0 48.24 0 24.48 0 0 Z M10.25 18.9375 C6.75841616 23.68993357 6.87240189 27.25325483 6.8671875 33.1015625 C6.86623077 33.77923676 6.86527405 34.45691101 6.86428833 35.15512085 C6.86360985 36.58225599 6.86544094 38.00939428 6.86962891 39.43652344 C6.87499857 41.62441894 6.86966423 43.81211071 6.86328125 46 C6.86394176 47.38802129 6.86522237 48.77604245 6.8671875 50.1640625 C6.86831543 51.42686035 6.86944336 52.6896582 6.87060547 53.99072266 C6.79150427 56.92332287 6.79150427 56.92332287 8 59 C17.24 59 26.48 59 36 59 C36.09207371 53.98198272 36.17163196 48.96692096 36.21972656 43.94873047 C36.23978369 42.24355106 36.26703657 40.53843994 36.30175781 38.83349609 C36.35053861 36.37580476 36.37302719 33.91902634 36.390625 31.4609375 C36.41127014 30.70444916 36.43191528 29.94796082 36.45318604 29.16854858 C36.45535997 23.98566429 35.3855546 21.12994553 32 17 C28.71979455 14.16709529 26.23424153 12.74861122 21.9375 12.5625 C16.47761173 13.16915425 13.81329133 14.92752828 10.25 18.9375 Z " fill="#CA8E24" transform="translate(143,104)"/>
<path d="M0 0 C14.19 0 28.38 0 43 0 C43 23.76 43 47.52 43 72 C28.81 72 14.62 72 0 72 C0 48.24 0 24.48 0 0 Z M9.6875 18.5 C6.7684069 22.82458238 6.85314004 26.6634568 6.8671875 31.6953125 C6.86623077 32.44336151 6.86527405 33.19141052 6.86428833 33.96212769 C6.86360857 35.54067062 6.86544863 37.11921636 6.86962891 38.69775391 C6.8749951 41.12278455 6.86966936 43.54763125 6.86328125 45.97265625 C6.86394177 47.50520874 6.8652224 49.03776112 6.8671875 50.5703125 C6.86516327 51.29944855 6.86313904 52.02858459 6.86105347 52.77981567 C6.57417913 56.17682425 6.57417913 56.17682425 8 59 C9.98757028 59.09983058 11.9786752 59.13080753 13.96875 59.1328125 C15.78439453 59.13474609 15.78439453 59.13474609 17.63671875 59.13671875 C19.54904297 59.13091797 19.54904297 59.13091797 21.5 59.125 C22.77488281 59.12886719 24.04976562 59.13273437 25.36328125 59.13671875 C26.57371094 59.13542969 27.78414062 59.13414062 29.03125 59.1328125 C30.15080078 59.13168457 31.27035156 59.13055664 32.42382812 59.12939453 C34.93141802 59.29216368 34.93141802 59.29216368 36 58 C36.13820586 55.64516284 36.21310628 53.32176706 36.23828125 50.96484375 C36.246353 50.2527626 36.25442474 49.54068146 36.26274109 48.80702209 C36.27660385 47.29300381 36.28731616 45.77895398 36.29516602 44.26489258 C36.31225131 41.97089093 36.35609708 39.67837934 36.40039062 37.38476562 C36.51812706 26.60704295 36.51812706 26.60704295 32 17 C28.77315241 14.2123062 25.69566704 13.08543279 21.4375 12.5625 C16.30157377 13.21616334 13.20969738 14.69221904 9.6875 18.5 Z " fill="#CA8E24" transform="translate(15,104)"/>
<path d="M0 0 C4.76450414 2.78009296 9.3448441 5.82322702 13.9375 8.875 C14.72318359 9.39191406 15.50886719 9.90882812 16.31835938 10.44140625 C29.83219169 19.4204714 29.83219169 19.4204714 31 25 C31.05847693 29.10173875 30.56791682 31.99695673 28.52880859 35.59838867 C25.3406069 38.6262261 23.70109093 38.56848889 19.44818115 38.56648254 C18.59387512 38.54067612 17.73956909 38.51486969 16.859375 38.48828125 C15.97719299 38.48120651 15.09501099 38.47413177 14.18609619 38.46684265 C11.37319519 38.43889178 8.56229748 38.37615381 5.75 38.3125 C3.84117462 38.28741794 1.93231798 38.26460461 0.0234375 38.24414062 C-4.65181152 38.18906299 -9.32556633 38.10278694 -14 38 C-14 34.7 -14 31.4 -14 28 C-16.31 27.67 -18.62 27.34 -21 27 C-21.38848284 22.77393672 -21.4234556 20.63183592 -19.0234375 17.05078125 C-18.14945313 16.14714844 -17.27546875 15.24351563 -16.375 14.3125 C-15.51648438 13.40113281 -14.65796875 12.48976563 -13.7734375 11.55078125 C-11.00429952 9.00395435 -8.15288198 7.03984535 -5 5 C-3.29671681 3.3707726 -1.61838719 1.71358643 0 0 Z " fill="#CA8E24" transform="translate(157,53)"/>
<path d="M0 0 C0.928125 0.845625 1.85625 1.69125 2.8125 2.5625 C5.86723916 5.20828828 9.03689046 7.29713428 12.5 9.375 C17.4512184 12.46182857 22.04642563 15.85896612 25 21 C25.17578125 23.7421875 25.17578125 23.7421875 25 26 C22.69 26.66 20.38 27.32 18 28 C17.67 30.97 17.34 33.94 17 37 C11.53743725 37.12381149 6.07569512 37.21443826 0.61206055 37.2746582 C-1.24550609 37.29976702 -3.10297427 37.33386134 -4.96020508 37.37719727 C-7.63387358 37.43801124 -10.30623365 37.4662452 -12.98046875 37.48828125 C-14.2213752 37.52699089 -14.2213752 37.52699089 -15.48735046 37.56648254 C-19.83795767 37.56858783 -21.48288075 37.40662725 -25.0222168 34.62353516 C-27.1551915 31.79413803 -27.68018749 30.55586817 -27.625 27.0625 C-27.63789063 26.24910156 -27.65078125 25.43570313 -27.6640625 24.59765625 C-26.08877489 18.43550177 -21.28563853 15.2583041 -16.1171875 12.16210938 C-15.06917969 11.55592773 -15.06917969 11.55592773 -14 10.9375 C-9.02491146 8.03230531 -4.90275785 5.26494561 -1 1 C-0.67 0.67 -0.34 0.34 0 0 Z " fill="#CA8E24" transform="translate(41,54)"/>
<path d="M0 0 C3.95607107 2.13019212 6.46252928 3.75297164 8 8 C8.22705078 11.39160156 8.22705078 11.39160156 8.1953125 15.390625 C8.1924826 16.09523865 8.18965271 16.79985229 8.18673706 17.52581787 C8.17557801 19.7673876 8.15048193 22.00855186 8.125 24.25 C8.11496464 25.77343171 8.10583976 27.29686971 8.09765625 28.8203125 C8.07735754 32.54715536 8.03820258 36.27312596 8 40 C0.74 40 -6.52 40 -14 40 C-14.11516968 35.40856885 -14.21456963 30.82219685 -14.2746582 26.23046875 C-14.29971627 24.67072521 -14.33377301 23.1110981 -14.37719727 21.55175781 C-14.43824193 19.30244157 -14.46629426 17.0546844 -14.48828125 14.8046875 C-14.51408768 14.1138205 -14.5398941 13.42295349 -14.56648254 12.71115112 C-14.56865999 8.90444996 -13.98468672 6.50944641 -11.65698242 3.57470703 C-7.92975158 -0.0371074 -5.06940632 -0.49700062 0 0 Z " fill="#CA8E24" transform="translate(168,120)"/>
<path d="M0 0 C3.51585913 2.78352624 4.87538803 4.19020979 5.56762695 8.6887207 C5.56684281 10.10132163 5.53902725 11.5140919 5.48828125 12.92578125 C5.48120651 13.67337204 5.47413177 14.42096283 5.46684265 15.19120789 C5.43897645 17.56601402 5.37626132 19.93841351 5.3125 22.3125 C5.28740668 23.92770018 5.26459531 25.54293754 5.24414062 27.15820312 C5.19343536 31.10712901 5.09559439 35.05088962 5 39 C-2.26 39 -9.52 39 -17 39 C-17.06911525 34.69437588 -17.12876967 30.39069913 -17.16479492 26.08496094 C-17.17982196 24.62232925 -17.20024955 23.15974218 -17.22631836 21.69726562 C-17.26297267 19.5871272 -17.27978676 17.47758774 -17.29296875 15.3671875 C-17.3086792 14.09987793 -17.32438965 12.83256836 -17.34057617 11.52685547 C-16.96692037 7.657442 -16.03942778 5.28928281 -14 2 C-9.60329027 -1.16972097 -5.06974271 -2.0318044 0 0 Z " fill="#CA8E24" transform="translate(42,121)"/>
<path d="M0 0 C20.79 0 41.58 0 63 0 C63 1.65 63 3.3 63 5 C42.21 5 21.42 5 0 5 C0 3.35 0 1.7 0 0 Z " fill="#CA8E24" transform="translate(69,75)"/>
<path d="M0 0 C12.87 0 25.74 0 39 0 C39 1.65 39 3.3 39 5 C26.13 5 13.26 5 0 5 C0 3.35 0 1.7 0 0 Z " fill="#CA8E24" transform="translate(143,95)"/>
<path d="M0 0 C12.54 0 25.08 0 38 0 C38 1.65 38 3.3 38 5 C25.46 5 12.92 5 0 5 C0 3.35 0 1.7 0 0 Z " fill="#CA8E24" transform="translate(20,95)"/>
</svg>
