<?xml version="1.0" encoding="UTF-8"?>
<svg version="1.1" xmlns="http://www.w3.org/2000/svg" width="200" height="200">
<path d="M0 0 C2.65795898 -0.38818359 2.65795898 -0.38818359 5.99609375 -0.3984375 C7.19427734 -0.40230469 8.39246094 -0.40617187 9.62695312 -0.41015625 C11.51317383 -0.39275391 11.51317383 -0.39275391 13.4375 -0.375 C15.31791992 -0.39240234 15.31791992 -0.39240234 17.23632812 -0.41015625 C18.43580078 -0.40628906 19.63527344 -0.40242188 20.87109375 -0.3984375 C21.97380615 -0.39505371 23.07651855 -0.39166992 24.21264648 -0.38818359 C27 0 27 0 28.85595703 1.17358398 C31.41111938 5.25279217 30.46623064 10.78052517 30.4375 15.4375 C30.4674707 17.15549805 30.4674707 17.15549805 30.49804688 18.90820312 C30.49740234 20.00970703 30.49675781 21.11121094 30.49609375 22.24609375 C30.49887329 23.75707642 30.49887329 23.75707642 30.50170898 25.29858398 C29.85541042 28.77853219 28.85259842 29.93846841 26 32 C23.40625 32.50170898 23.40625 32.50170898 20.5 32.49609375 C19.448125 32.49673828 18.39625 32.49738281 17.3125 32.49804688 C16.219375 32.47806641 15.12625 32.45808594 14 32.4375 C12.906875 32.44458984 11.81375 32.45167969 10.6875 32.45898438 C2.79049121 32.39607928 2.79049121 32.39607928 -0.31494141 30.84008789 C-2.67611059 28.26168567 -2.48790245 26.5849734 -2.4609375 23.125 C-2.45707031 21.97515625 -2.45320313 20.8253125 -2.44921875 19.640625 C-2.42472656 18.43921875 -2.40023437 17.2378125 -2.375 16 C-2.37371094 14.79859375 -2.37242188 13.5971875 -2.37109375 12.359375 C-2.28091207 3.4213681 -2.28091207 3.4213681 0 0 Z M1 4 C0.90067847 5.69558726 0.86919993 7.39525747 0.8671875 9.09375 C0.86589844 10.12371094 0.86460938 11.15367188 0.86328125 12.21484375 C0.86714844 13.29894531 0.87101562 14.38304688 0.875 15.5 C0.87113281 16.58410156 0.86726563 17.66820312 0.86328125 18.78515625 C0.86457031 19.81511719 0.86585937 20.84507813 0.8671875 21.90625 C0.86831543 22.85822266 0.86944336 23.81019531 0.87060547 24.79101562 C0.75300544 26.97452138 0.75300544 26.97452138 2 28 C3.78071246 28.08726223 5.5648314 28.10699041 7.34765625 28.09765625 C8.42724609 28.09443359 9.50683594 28.09121094 10.61914062 28.08789062 C11.75544922 28.07951172 12.89175781 28.07113281 14.0625 28.0625 C15.77276367 28.05573242 15.77276367 28.05573242 17.51757812 28.04882812 C20.34507418 28.0369976 23.17254345 28.0190615 26 28 C26 22.72 26 17.44 26 12 C23.69 13.65 21.38 15.3 19 17 C19.33 19.64 19.66 22.28 20 25 C18.35 23.68 16.7 22.36 15 21 C11.54074837 22.2491742 8.85306797 23.67527795 6 26 C6.99 23.03 7.98 20.06 9 17 C5.90672105 14.02324541 5.90672105 14.02324541 2 13 C2 12.34 2 11.68 2 11 C4.97 11 7.94 11 11 11 C12.25664978 8.09399739 13 6.20395416 13 3 C11.18757948 2.97312721 9.37504767 2.95366285 7.5625 2.9375 C6.04849609 2.92009766 6.04849609 2.92009766 4.50390625 2.90234375 C2.05978933 2.71387324 2.05978933 2.71387324 1 4 Z M14 3 C14.99 5.64 15.98 8.28 17 11 C19.97 11 22.94 11 26 11 C26 8.36 26 5.72 26 3 C22.04 3 18.08 3 14 3 Z M11 14 C11.66 15.32 12.32 16.64 13 18 C13.66 17.67 14.32 17.34 15 17 C15 16.34 15 15.68 15 15 C15.66 14.67 16.32 14.34 17 14 C15.02 14 13.04 14 11 14 Z " fill="#9B3C88" transform="translate(54,101)"/>
<path d="M0 0 C1.20269531 -0.00257812 2.40539062 -0.00515625 3.64453125 -0.0078125 C4.90652344 -0.00007813 6.16851562 0.00765625 7.46875 0.015625 C8.73074219 0.00789063 9.99273437 0.00015625 11.29296875 -0.0078125 C12.49566406 -0.00523438 13.69835937 -0.00265625 14.9375 0 C16.04544922 0.00225586 17.15339844 0.00451172 18.29492188 0.00683594 C20.96875 0.265625 20.96875 0.265625 22.96875 2.265625 C23.19580078 5.06298828 23.19580078 5.06298828 23.1640625 8.5859375 C23.15761719 9.84277344 23.15117187 11.09960938 23.14453125 12.39453125 C23.12777344 13.71324219 23.11101562 15.03195313 23.09375 16.390625 C23.08371983 17.73046221 23.07459404 19.07030652 23.06640625 20.41015625 C23.04277075 23.69549073 23.00982234 26.98046965 22.96875 30.265625 C19.74790003 32.16909028 17.37230613 32.51264422 13.65234375 32.49609375 C12.64107422 32.49416016 11.62980469 32.49222656 10.58789062 32.49023438 C9.01297852 32.47186523 9.01297852 32.47186523 7.40625 32.453125 C6.35244141 32.45248047 5.29863281 32.45183594 4.21289062 32.45117188 C-3.60939022 32.40624493 -3.60939022 32.40624493 -7.03125 31.265625 C-9.26264155 26.8028419 -8.21624699 20.66652168 -8.21875 15.765625 C-8.23099609 14.50363281 -8.24324219 13.24164063 -8.25585938 11.94140625 C-8.25779297 10.73871094 -8.25972656 9.53601563 -8.26171875 8.296875 C-8.26582764 7.18892578 -8.26993652 6.08097656 -8.27416992 4.93945312 C-7.7836997 -0.45916989 -4.61887533 0.00940434 0 0 Z M-5.03125 4.265625 C-5.11851223 6.04633746 -5.13824041 7.8304564 -5.12890625 9.61328125 C-5.12640869 10.58531494 -5.12391113 11.55734863 -5.12133789 12.55883789 C-5.11223389 13.80270264 -5.10312988 15.04656738 -5.09375 16.328125 C-5.073125 20.2675 -5.0525 24.206875 -5.03125 28.265625 C3.21875 28.265625 11.46875 28.265625 19.96875 28.265625 C19.989375 24.32625 20.01 20.386875 20.03125 16.328125 C20.040354 15.08426025 20.04945801 13.84039551 20.05883789 12.55883789 C20.06133545 11.5868042 20.06383301 10.61477051 20.06640625 9.61328125 C20.07164307 8.61304932 20.07687988 7.61281738 20.08227539 6.58227539 C20.23056095 4.30355272 20.23056095 4.30355272 18.96875 3.265625 C17.11587498 3.19335998 15.26041122 3.1818128 13.40625 3.203125 C12.39433594 3.21214844 11.38242188 3.22117187 10.33984375 3.23046875 C9.55738281 3.24207031 8.77492187 3.25367187 7.96875 3.265625 C8.95875 5.905625 9.94875 8.545625 10.96875 11.265625 C13.60875 11.265625 16.24875 11.265625 18.96875 11.265625 C17.7621875 12.379375 17.7621875 12.379375 16.53125 13.515625 C12.92799641 17.38253129 12.96875 19.06470495 12.96875 24.265625 C10.98875 23.275625 9.00875 22.285625 6.96875 21.265625 C4.98875 22.585625 3.00875 23.905625 0.96875 25.265625 C1.46375 20.810625 1.46375 20.810625 1.96875 16.265625 C1.164375 15.811875 0.36 15.358125 -0.46875 14.890625 C-3.03125 13.265625 -3.03125 13.265625 -4.03125 11.265625 C-1.06125 11.265625 1.90875 11.265625 4.96875 11.265625 C5.62875 8.625625 6.28875 5.985625 6.96875 3.265625 C5.15632948 3.23875221 3.34379767 3.21928785 1.53125 3.203125 C0.01724609 3.18572266 0.01724609 3.18572266 -1.52734375 3.16796875 C-3.97146067 2.97949824 -3.97146067 2.97949824 -5.03125 4.265625 Z M6.96875 13.265625 C6.30875 13.925625 5.64875 14.585625 4.96875 15.265625 C5.29875 15.925625 5.62875 16.585625 5.96875 17.265625 C6.95875 17.265625 7.94875 17.265625 8.96875 17.265625 C8.96875 16.605625 8.96875 15.945625 8.96875 15.265625 C9.62875 14.935625 10.28875 14.605625 10.96875 14.265625 C9.07695797 13.5841427 9.07695797 13.5841427 6.96875 13.265625 Z " fill="#9D3C88" transform="translate(126.03125,100.734375)"/>
<path d="M0 0 C1.20269531 -0.00257812 2.40539062 -0.00515625 3.64453125 -0.0078125 C4.90652344 -0.00007813 6.16851562 0.00765625 7.46875 0.015625 C8.73074219 0.00789063 9.99273437 0.00015625 11.29296875 -0.0078125 C12.49566406 -0.00523438 13.69835937 -0.00265625 14.9375 0 C16.04544922 0.00225586 17.15339844 0.00451172 18.29492188 0.00683594 C20.96875 0.265625 20.96875 0.265625 22.96875 2.265625 C23.43050646 6.91520475 23.29274074 11.59578776 23.28125 16.265625 C23.29736328 17.5753125 23.31347656 18.885 23.33007812 20.234375 C23.33072266 21.4821875 23.33136719 22.73 23.33203125 24.015625 C23.33501221 25.16546875 23.33799316 26.3153125 23.34106445 27.5 C23.21820068 28.41265625 23.09533691 29.3253125 22.96875 30.265625 C18.30835179 33.37255714 13.51160279 32.5941588 8.03125 32.578125 C6.93361328 32.59423828 5.83597656 32.61035156 4.70507812 32.62695312 C3.64869141 32.62759766 2.59230469 32.62824219 1.50390625 32.62890625 C0.538479 32.63188721 -0.42694824 32.63486816 -1.42163086 32.63793945 C-4.56505534 32.18946697 -5.89669369 31.6253115 -8.03125 29.265625 C-8.51708984 26.47827148 -8.51708984 26.47827148 -8.4921875 23.13671875 C-8.48832031 21.93724609 -8.48445313 20.73777344 -8.48046875 19.50195312 C-8.45597656 18.24833984 -8.43148437 16.99472656 -8.40625 15.703125 C-8.40496094 14.44564453 -8.40367188 13.18816406 -8.40234375 11.89257812 C-8.28735576 0.01687362 -8.28735576 0.01687362 0 0 Z M-5.03125 4.265625 C-5.11851223 6.04633746 -5.13824041 7.8304564 -5.12890625 9.61328125 C-5.12640869 10.58531494 -5.12391113 11.55734863 -5.12133789 12.55883789 C-5.11223389 13.80270264 -5.10312988 15.04656738 -5.09375 16.328125 C-5.073125 20.2675 -5.0525 24.206875 -5.03125 28.265625 C3.21875 28.265625 11.46875 28.265625 19.96875 28.265625 C19.96875 22.985625 19.96875 17.705625 19.96875 12.265625 C17.65875 13.915625 15.34875 15.565625 12.96875 17.265625 C13.29875 19.905625 13.62875 22.545625 13.96875 25.265625 C12.31875 23.945625 10.66875 22.625625 8.96875 21.265625 C7.8240625 21.7296875 7.8240625 21.7296875 6.65625 22.203125 C4.78085323 22.94456093 2.88190348 23.62790717 0.96875 24.265625 C1.95875 20.800625 1.95875 20.800625 2.96875 17.265625 C-0.12452895 14.28887041 -0.12452895 14.28887041 -4.03125 13.265625 C-4.03125 12.605625 -4.03125 11.945625 -4.03125 11.265625 C-1.06125 11.265625 1.90875 11.265625 4.96875 11.265625 C5.62875 8.625625 6.28875 5.985625 6.96875 3.265625 C5.15632948 3.23875221 3.34379767 3.21928785 1.53125 3.203125 C0.01724609 3.18572266 0.01724609 3.18572266 -1.52734375 3.16796875 C-3.97146067 2.97949824 -3.97146067 2.97949824 -5.03125 4.265625 Z M7.96875 3.265625 C8.95875 5.905625 9.94875 8.545625 10.96875 11.265625 C13.93875 11.265625 16.90875 11.265625 19.96875 11.265625 C20.01116723 8.93267725 20.00967937 6.59859933 19.96875 4.265625 C18.90896067 2.97949824 18.90896067 2.97949824 16.46484375 3.16796875 C15.45550781 3.17957031 14.44617188 3.19117187 13.40625 3.203125 C12.39433594 3.21214844 11.38242188 3.22117187 10.33984375 3.23046875 C9.55738281 3.24207031 8.77492188 3.25367187 7.96875 3.265625 Z M6.96875 13.265625 C6.30875 13.925625 5.64875 14.585625 4.96875 15.265625 C5.95875 16.750625 5.95875 16.750625 6.96875 18.265625 C7.62875 17.935625 8.28875 17.605625 8.96875 17.265625 C8.96875 16.605625 8.96875 15.945625 8.96875 15.265625 C9.62875 14.935625 10.28875 14.605625 10.96875 14.265625 C9.07695797 13.5841427 9.07695797 13.5841427 6.96875 13.265625 Z " fill="#9B3C88" transform="translate(93.03125,100.734375)"/>
<path d="M0 0 C1.10794922 0.00410889 2.21589844 0.00821777 3.35742188 0.01245117 C5.16146484 0.01535156 5.16146484 0.01535156 7.00195312 0.01831055 C8.26394531 0.03055664 9.5259375 0.04280273 10.82617188 0.05541992 C12.08816406 0.05606445 13.35015625 0.05670898 14.65039062 0.05737305 C24.0457082 0.10268808 24.0457082 0.10268808 26.32617188 1.24291992 C26.35082933 5.35464552 26.36901146 9.4663427 26.38110352 13.578125 C26.38614267 14.97787221 26.39297404 16.37761412 26.40161133 17.77734375 C26.41369507 19.78537769 26.41886994 21.7934495 26.42382812 23.80151367 C26.43168335 25.61607056 26.43168335 25.61607056 26.43969727 27.46728516 C26.32617188 30.24291992 26.32617188 30.24291992 25.32617188 31.24291992 C20.68601862 31.49707542 16.03495881 31.4281479 11.38867188 31.43041992 C10.07447266 31.44266602 8.76027344 31.45491211 7.40625 31.4675293 C6.15392578 31.46946289 4.90160156 31.47139648 3.61132812 31.47338867 C1.87701538 31.479552 1.87701538 31.479552 0.10766602 31.48583984 C-2.67382812 31.24291992 -2.67382812 31.24291992 -4.67382812 29.24291992 C-4.93261719 26.5690918 -4.93261719 26.5690918 -4.93945312 23.21166992 C-4.94203125 22.00897461 -4.94460937 20.8062793 -4.94726562 19.56713867 C-4.93953125 18.30514648 -4.93179687 17.0431543 -4.92382812 15.74291992 C-4.9315625 14.48092773 -4.93929688 13.21893555 -4.94726562 11.91870117 C-4.9446875 10.71600586 -4.94210938 9.51331055 -4.93945312 8.27416992 C-4.93719727 7.1662207 -4.93494141 6.05827148 -4.93261719 4.91674805 C-4.57340263 1.20531615 -3.71590085 0.33759326 0 0 Z M-1.67382812 4.24291992 C-1.77314966 5.93850718 -1.80462819 7.6381774 -1.80664062 9.33666992 C-1.80792969 10.36663086 -1.80921875 11.3965918 -1.81054688 12.45776367 C-1.80667969 13.54186523 -1.8028125 14.6259668 -1.79882812 15.74291992 C-1.80269531 16.82702148 -1.8065625 17.91112305 -1.81054688 19.02807617 C-1.80925781 20.05803711 -1.80796875 21.08799805 -1.80664062 22.14916992 C-1.8055127 23.10114258 -1.80438477 24.05311523 -1.80322266 25.03393555 C-1.92082269 27.2174413 -1.92082269 27.2174413 -0.67382812 28.24291992 C1.10688434 28.33018215 2.89100328 28.34991033 4.67382812 28.34057617 C5.75341797 28.33735352 6.83300781 28.33413086 7.9453125 28.33081055 C9.08162109 28.32243164 10.21792969 28.31405273 11.38867188 28.30541992 C13.09893555 28.29865234 13.09893555 28.29865234 14.84375 28.29174805 C17.67124605 28.27991752 20.49871532 28.26198143 23.32617188 28.24291992 C23.32617188 22.96291992 23.32617188 17.68291992 23.32617188 12.24291992 C17.26770134 15.39509717 17.26770134 15.39509717 16.32617188 19.24291992 C17.20936481 22.39312353 17.20936481 22.39312353 18.32617188 25.24291992 C17.43929687 24.54166992 16.55242188 23.84041992 15.63867188 23.11791992 C12.55193113 20.87444576 12.55193113 20.87444576 9.70117188 21.86791992 C8.91742188 22.32166992 8.13367187 22.77541992 7.32617188 23.24291992 C6.18148438 23.79979492 6.18148438 23.79979492 5.01367188 24.36791992 C4.45679688 24.65666992 3.89992188 24.94541992 3.32617188 25.24291992 C3.65617187 24.50041992 3.98617188 23.75791992 4.32617188 22.99291992 C5.55400058 20.1040868 5.55400058 20.1040868 5.32617188 16.24291992 C2.72629984 13.78586296 2.72629984 13.78586296 -0.67382812 13.24291992 C-0.67382812 12.58291992 -0.67382812 11.92291992 -0.67382812 11.24291992 C2.29617187 11.24291992 5.26617188 11.24291992 8.32617188 11.24291992 C8.98617187 8.60291992 9.64617188 5.96291992 10.32617188 3.24291992 C8.51375136 3.21604713 6.70121954 3.19658277 4.88867188 3.18041992 C3.37466797 3.16301758 3.37466797 3.16301758 1.83007812 3.14526367 C-0.6140388 2.95679317 -0.6140388 2.95679317 -1.67382812 4.24291992 Z M11.32617188 3.24291992 C12.31617187 5.88291992 13.30617188 8.52291992 14.32617188 11.24291992 C17.29617187 11.24291992 20.26617187 11.24291992 23.32617188 11.24291992 C23.32617188 8.60291992 23.32617188 5.96291992 23.32617188 3.24291992 C19.36617187 3.24291992 15.40617187 3.24291992 11.32617188 3.24291992 Z M10.32617188 13.24291992 C9.66617188 13.90291992 9.00617187 14.56291992 8.32617188 15.24291992 C8.65617187 15.90291992 8.98617187 16.56291992 9.32617188 17.24291992 C10.31617188 17.24291992 11.30617188 17.24291992 12.32617188 17.24291992 C12.65617187 16.25291992 12.98617187 15.26291992 13.32617188 14.24291992 C12.33617187 13.91291992 11.34617187 13.58291992 10.32617188 13.24291992 Z " fill="#9B3C88" transform="translate(23.673828125,133.757080078125)"/>
<path d="M0 0 C1.20269531 -0.00257813 2.40539062 -0.00515625 3.64453125 -0.0078125 C4.90652344 -0.00007812 6.16851562 0.00765625 7.46875 0.015625 C8.73074219 0.00789062 9.99273437 0.00015625 11.29296875 -0.0078125 C12.49566406 -0.00523437 13.69835937 -0.00265625 14.9375 0 C16.04544922 0.00225586 17.15339844 0.00451172 18.29492188 0.00683594 C20.96875 0.265625 20.96875 0.265625 22.96875 2.265625 C23.21166992 5.04711914 23.21166992 5.04711914 23.19921875 8.55078125 C23.19728516 9.80310547 23.19535156 11.05542969 23.19335938 12.34570312 C23.17499023 14.31700195 23.17499023 14.31700195 23.15625 16.328125 C23.15560547 17.64619141 23.15496094 18.96425781 23.15429688 20.32226562 C23.10884123 30.12553377 23.10884123 30.12553377 21.96875 31.265625 C17.32859675 31.5197805 12.67753694 31.45085298 8.03125 31.453125 C6.71705078 31.46537109 5.40285156 31.47761719 4.04882812 31.49023438 C2.79650391 31.49216797 1.54417969 31.49410156 0.25390625 31.49609375 C-1.48040649 31.50225708 -1.48040649 31.50225708 -3.24975586 31.50854492 C-6.03125 31.265625 -6.03125 31.265625 -8.03125 29.265625 C-8.29003906 26.59179688 -8.29003906 26.59179688 -8.296875 23.234375 C-8.29945312 22.03167969 -8.30203125 20.82898438 -8.3046875 19.58984375 C-8.29695313 18.32785156 -8.28921875 17.06585938 -8.28125 15.765625 C-8.28898437 14.50363281 -8.29671875 13.24164063 -8.3046875 11.94140625 C-8.30210938 10.73871094 -8.29953125 9.53601563 -8.296875 8.296875 C-8.29461914 7.18892578 -8.29236328 6.08097656 -8.29003906 4.93945312 C-7.76802202 -0.45406638 -4.62736724 0.00942163 0 0 Z M-5.03125 4.265625 C-5.13057153 5.96121226 -5.16205007 7.66088247 -5.1640625 9.359375 C-5.16535156 10.38933594 -5.16664062 11.41929687 -5.16796875 12.48046875 C-5.16410156 13.56457031 -5.16023438 14.64867187 -5.15625 15.765625 C-5.16011719 16.84972656 -5.16398437 17.93382812 -5.16796875 19.05078125 C-5.16667969 20.08074219 -5.16539063 21.11070312 -5.1640625 22.171875 C-5.16293457 23.12384766 -5.16180664 24.07582031 -5.16064453 25.05664062 C-5.27824456 27.24014638 -5.27824456 27.24014638 -4.03125 28.265625 C-2.25053754 28.35288723 -0.4664186 28.37261541 1.31640625 28.36328125 C2.28843994 28.36078369 3.26047363 28.35828613 4.26196289 28.35571289 C5.50582764 28.34660889 6.74969238 28.33750488 8.03125 28.328125 C13.9403125 28.2971875 13.9403125 28.2971875 19.96875 28.265625 C19.96875 20.015625 19.96875 11.765625 19.96875 3.265625 C16.00875 3.265625 12.04875 3.265625 7.96875 3.265625 C8.95875 5.905625 9.94875 8.545625 10.96875 11.265625 C13.60875 11.265625 16.24875 11.265625 18.96875 11.265625 C15.21875 15.140625 15.21875 15.140625 12.96875 16.265625 C13.62875 19.235625 14.28875 22.205625 14.96875 25.265625 C14.081875 24.564375 13.195 23.863125 12.28125 23.140625 C9.19450926 20.89715084 9.19450926 20.89715084 6.34375 21.890625 C5.56 22.344375 4.77625 22.798125 3.96875 23.265625 C2.8240625 23.8225 2.8240625 23.8225 1.65625 24.390625 C1.099375 24.679375 0.5425 24.968125 -0.03125 25.265625 C0.29875 24.523125 0.62875 23.780625 0.96875 23.015625 C2.19657871 20.12679188 2.19657871 20.12679188 1.96875 16.265625 C-0.63112203 13.80856804 -0.63112203 13.80856804 -4.03125 13.265625 C-4.03125 12.605625 -4.03125 11.945625 -4.03125 11.265625 C-1.06125 11.265625 1.90875 11.265625 4.96875 11.265625 C5.62875 8.625625 6.28875 5.985625 6.96875 3.265625 C5.15632948 3.23875221 3.34379767 3.21928785 1.53125 3.203125 C0.01724609 3.18572266 0.01724609 3.18572266 -1.52734375 3.16796875 C-3.97146067 2.97949824 -3.97146067 2.97949824 -5.03125 4.265625 Z M6.96875 13.265625 C6.30875 13.925625 5.64875 14.585625 4.96875 15.265625 C5.29875 15.925625 5.62875 16.585625 5.96875 17.265625 C6.95875 17.265625 7.94875 17.265625 8.96875 17.265625 C9.29875 16.275625 9.62875 15.285625 9.96875 14.265625 C8.97875 13.935625 7.98875 13.605625 6.96875 13.265625 Z " fill="#9D3C88" transform="translate(126.03125,133.734375)"/>
<path d="M0 0 C1.10794922 0.00410889 2.21589844 0.00821777 3.35742188 0.01245117 C5.16146484 0.01535156 5.16146484 0.01535156 7.00195312 0.01831055 C8.26394531 0.03055664 9.5259375 0.04280273 10.82617188 0.05541992 C12.08816406 0.05606445 13.35015625 0.05670898 14.65039062 0.05737305 C24.0457082 0.10268808 24.0457082 0.10268808 26.32617188 1.24291992 C26.35082933 5.35464552 26.36901146 9.4663427 26.38110352 13.578125 C26.38614267 14.97787221 26.39297404 16.37761412 26.40161133 17.77734375 C26.41369507 19.78537769 26.41886994 21.7934495 26.42382812 23.80151367 C26.43168335 25.61607056 26.43168335 25.61607056 26.43969727 27.46728516 C26.32617188 30.24291992 26.32617188 30.24291992 25.32617188 31.24291992 C20.68601862 31.49707542 16.03495881 31.4281479 11.38867188 31.43041992 C10.07447266 31.44266602 8.76027344 31.45491211 7.40625 31.4675293 C6.15392578 31.46946289 4.90160156 31.47139648 3.61132812 31.47338867 C1.87701538 31.479552 1.87701538 31.479552 0.10766602 31.48583984 C-2.67382812 31.24291992 -2.67382812 31.24291992 -4.67382812 29.24291992 C-4.93261719 26.5690918 -4.93261719 26.5690918 -4.93945312 23.21166992 C-4.94203125 22.00897461 -4.94460937 20.8062793 -4.94726562 19.56713867 C-4.93953125 18.30514648 -4.93179688 17.0431543 -4.92382812 15.74291992 C-4.9315625 14.48092773 -4.93929687 13.21893555 -4.94726562 11.91870117 C-4.9446875 10.71600586 -4.94210938 9.51331055 -4.93945312 8.27416992 C-4.93719727 7.1662207 -4.93494141 6.05827148 -4.93261719 4.91674805 C-4.57340263 1.20531615 -3.71590085 0.33759326 0 0 Z M-1.67382812 4.24291992 C-1.77314966 5.93850718 -1.80462819 7.6381774 -1.80664062 9.33666992 C-1.80792969 10.36663086 -1.80921875 11.3965918 -1.81054688 12.45776367 C-1.80667969 13.54186523 -1.8028125 14.6259668 -1.79882812 15.74291992 C-1.80269531 16.82702148 -1.8065625 17.91112305 -1.81054688 19.02807617 C-1.80925781 20.05803711 -1.80796875 21.08799805 -1.80664062 22.14916992 C-1.8055127 23.10114258 -1.80438477 24.05311523 -1.80322266 25.03393555 C-1.92082269 27.2174413 -1.92082269 27.2174413 -0.67382812 28.24291992 C1.10688434 28.33018215 2.89100328 28.34991033 4.67382812 28.34057617 C5.75341797 28.33735352 6.83300781 28.33413086 7.9453125 28.33081055 C9.08162109 28.32243164 10.21792969 28.31405273 11.38867188 28.30541992 C13.09893555 28.29865234 13.09893555 28.29865234 14.84375 28.29174805 C17.67124605 28.27991752 20.49871532 28.26198143 23.32617188 28.24291992 C23.32617188 22.96291992 23.32617188 17.68291992 23.32617188 12.24291992 C17.26770134 15.39509717 17.26770134 15.39509717 16.32617188 19.24291992 C17.20936481 22.39312353 17.20936481 22.39312353 18.32617188 25.24291992 C17.43929687 24.54166992 16.55242187 23.84041992 15.63867188 23.11791992 C12.5384169 20.8579486 12.5384169 20.8579486 9.63867188 21.93041992 C8.49398437 22.58010742 8.49398437 22.58010742 7.32617188 23.24291992 C6.33617188 23.57291992 5.34617187 23.90291992 4.32617188 24.24291992 C4.65617187 21.60291992 4.98617187 18.96291992 5.32617188 16.24291992 C2.65369554 13.90004574 2.65369554 13.90004574 -0.67382812 13.24291992 C-0.67382812 12.58291992 -0.67382812 11.92291992 -0.67382812 11.24291992 C2.29617187 11.24291992 5.26617187 11.24291992 8.32617188 11.24291992 C8.98617187 8.60291992 9.64617187 5.96291992 10.32617188 3.24291992 C8.51375136 3.21604713 6.70121954 3.19658277 4.88867188 3.18041992 C3.37466797 3.16301758 3.37466797 3.16301758 1.83007812 3.14526367 C-0.6140388 2.95679317 -0.6140388 2.95679317 -1.67382812 4.24291992 Z M11.32617188 3.24291992 C12.31617187 5.88291992 13.30617188 8.52291992 14.32617188 11.24291992 C17.29617187 11.24291992 20.26617187 11.24291992 23.32617188 11.24291992 C23.32617188 8.60291992 23.32617188 5.96291992 23.32617188 3.24291992 C19.36617187 3.24291992 15.40617187 3.24291992 11.32617188 3.24291992 Z M10.32617188 13.24291992 C9.66617188 13.90291992 9.00617188 14.56291992 8.32617188 15.24291992 C8.65617187 15.90291992 8.98617187 16.56291992 9.32617188 17.24291992 C10.31617187 17.24291992 11.30617188 17.24291992 12.32617188 17.24291992 C12.65617187 16.25291992 12.98617187 15.26291992 13.32617188 14.24291992 C12.33617187 13.91291992 11.34617187 13.58291992 10.32617188 13.24291992 Z " fill="#9B3C88" transform="translate(89.673828125,133.757080078125)"/>
<path d="M0 0 C1.65708984 0.0009668 1.65708984 0.0009668 3.34765625 0.00195312 C5.07822266 0.02612305 5.07822266 0.02612305 6.84375 0.05078125 C7.99746094 0.04755859 9.15117188 0.04433594 10.33984375 0.04101562 C18.9431724 0.09622952 18.9431724 0.09622952 22.34375 2.36328125 C22.71606445 5.12890625 22.71606445 5.12890625 22.70703125 8.61328125 C22.70638672 9.86109375 22.70574219 11.10890625 22.70507812 12.39453125 C22.68896484 13.70421875 22.67285156 15.01390625 22.65625 16.36328125 C22.66108398 18.3278125 22.66108398 18.3278125 22.66601562 20.33203125 C22.61053571 30.09649554 22.61053571 30.09649554 20.34375 32.36328125 C17.77758789 32.62207031 17.77758789 32.62207031 14.56640625 32.62890625 C12.83680664 32.63277344 12.83680664 32.63277344 11.07226562 32.63671875 C9.86248047 32.62898438 8.65269531 32.62125 7.40625 32.61328125 C5.59737305 32.62488281 5.59737305 32.62488281 3.75195312 32.63671875 C2.59759766 32.63414063 1.44324219 32.6315625 0.25390625 32.62890625 C-0.80691162 32.62665039 -1.86772949 32.62439453 -2.96069336 32.62207031 C-5.65625 32.36328125 -5.65625 32.36328125 -8.65625 30.36328125 C-9.04443359 27.70532227 -9.04443359 27.70532227 -9.0546875 24.3671875 C-9.05855469 23.16900391 -9.06242187 21.97082031 -9.06640625 20.73632812 C-9.05480469 19.47884766 -9.04320313 18.22136719 -9.03125 16.92578125 C-9.04285156 15.67216797 -9.05445312 14.41855469 -9.06640625 13.12695312 C-9.06253906 11.92748047 -9.05867188 10.72800781 -9.0546875 9.4921875 C-9.05130371 8.3894751 -9.04791992 7.2867627 -9.04443359 6.15063477 C-8.65625 3.36328125 -8.65625 3.36328125 -7.48486328 1.50292969 C-4.92068727 -0.09514423 -3.00957059 -0.00886013 0 0 Z M-5.65625 4.36328125 C-5.68511984 8.34243284 -5.70300406 12.32155778 -5.71875 16.30078125 C-5.72712891 17.43708984 -5.73550781 18.57339844 -5.74414062 19.74414062 C-5.74736328 20.82373047 -5.75058594 21.90332031 -5.75390625 23.015625 C-5.75914307 24.01585693 -5.76437988 25.01608887 -5.76977539 26.04663086 C-5.91806095 28.32535353 -5.91806095 28.32535353 -4.65625 29.36328125 C-2.96066274 29.46260278 -1.26099253 29.49408132 0.4375 29.49609375 C1.46746094 29.49738281 2.49742188 29.49867187 3.55859375 29.5 C4.64269531 29.49613281 5.72679688 29.49226563 6.84375 29.48828125 C8.46990234 29.49408203 8.46990234 29.49408203 10.12890625 29.5 C11.15886719 29.49871094 12.18882813 29.49742188 13.25 29.49609375 C14.20197266 29.49496582 15.15394531 29.49383789 16.13476562 29.49267578 C18.31827138 29.61027581 18.31827138 29.61027581 19.34375 28.36328125 C19.41688567 25.83278723 19.43622527 23.33023288 19.40625 20.80078125 C19.40173828 20.08986328 19.39722656 19.37894531 19.39257812 18.64648438 C19.38075864 16.88538112 19.36282263 15.12432089 19.34375 13.36328125 C16.85013429 14.56709573 14.66231917 15.81756847 12.34375 17.36328125 C12.67375 20.00328125 13.00375 22.64328125 13.34375 25.36328125 C11.03375 24.04328125 8.72375 22.72328125 6.34375 21.36328125 C2.87875 23.83828125 2.87875 23.83828125 -0.65625 26.36328125 C0.33375 23.39328125 1.32375 20.42328125 2.34375 17.36328125 C0.36375 16.04328125 -1.61625 14.72328125 -3.65625 13.36328125 C-1.01625 13.03328125 1.62375 12.70328125 4.34375 12.36328125 C5.00375 9.39328125 5.66375 6.42328125 6.34375 3.36328125 C4.71884046 3.33629936 3.09380367 3.31689368 1.46875 3.30078125 C0.56382813 3.28917969 -0.34109375 3.27757812 -1.2734375 3.265625 C-3.6731085 3.20078868 -3.6731085 3.20078868 -5.65625 4.36328125 Z M7.34375 3.36328125 C8.33375 6.33328125 9.32375 9.30328125 10.34375 12.36328125 C13.31375 12.36328125 16.28375 12.36328125 19.34375 12.36328125 C19.364375 11.06390625 19.385 9.76453125 19.40625 8.42578125 C19.41785156 7.69488281 19.42945313 6.96398438 19.44140625 6.2109375 C19.54936184 4.34595984 19.54936184 4.34595984 18.34375 3.36328125 C16.49087498 3.29101623 14.63541122 3.27946905 12.78125 3.30078125 C11.76933594 3.30980469 10.75742188 3.31882813 9.71484375 3.328125 C8.93238281 3.33972656 8.14992188 3.35132813 7.34375 3.36328125 Z M6.34375 13.36328125 C6.01375 15.01328125 5.68375 16.66328125 5.34375 18.36328125 C6.66375 17.70328125 7.98375 17.04328125 9.34375 16.36328125 C8.68375 16.03328125 8.02375 15.70328125 7.34375 15.36328125 C7.01375 14.70328125 6.68375 14.04328125 6.34375 13.36328125 Z " fill="#9F3B88" transform="translate(93.65625,34.63671875)"/>
<path d="M0 0 C1.20269531 -0.00257813 2.40539062 -0.00515625 3.64453125 -0.0078125 C4.90652344 -0.00007812 6.16851562 0.00765625 7.46875 0.015625 C8.73074219 0.00789062 9.99273437 0.00015625 11.29296875 -0.0078125 C12.49566406 -0.00523437 13.69835937 -0.00265625 14.9375 0 C16.04544922 0.00225586 17.15339844 0.00451172 18.29492188 0.00683594 C20.96875 0.265625 20.96875 0.265625 22.96875 2.265625 C23.22753906 4.93945312 23.22753906 4.93945312 23.234375 8.296875 C23.23824219 10.10091797 23.23824219 10.10091797 23.2421875 11.94140625 C23.23445313 13.20339844 23.22671875 14.46539062 23.21875 15.765625 C23.22648437 17.02761719 23.23421875 18.28960937 23.2421875 19.58984375 C23.23960938 20.79253906 23.23703125 21.99523437 23.234375 23.234375 C23.23211914 24.34232422 23.22986328 25.45027344 23.22753906 26.59179688 C22.96875 29.265625 22.96875 29.265625 20.96875 31.265625 C18.18725586 31.50854492 18.18725586 31.50854492 14.68359375 31.49609375 C13.43126953 31.49416016 12.17894531 31.49222656 10.88867188 31.49023438 C8.91737305 31.47186523 8.91737305 31.47186523 6.90625 31.453125 C5.58818359 31.45248047 4.27011719 31.45183594 2.91210938 31.45117188 C-6.89115877 31.40571623 -6.89115877 31.40571623 -8.03125 30.265625 C-8.2854055 25.62547175 -8.21647798 20.97441194 -8.21875 16.328125 C-8.23099609 15.01392578 -8.24324219 13.69972656 -8.25585938 12.34570312 C-8.25875977 10.4672168 -8.25875977 10.4672168 -8.26171875 8.55078125 C-8.26582764 7.39457275 -8.26993652 6.23836426 -8.27416992 5.04711914 C-7.79559478 -0.43268645 -4.71585763 0.0096018 0 0 Z M-5.03125 4.265625 C-5.11851223 6.04633746 -5.13824041 7.8304564 -5.12890625 9.61328125 C-5.12640869 10.58531494 -5.12391113 11.55734863 -5.12133789 12.55883789 C-5.11223389 13.80270264 -5.10312988 15.04656738 -5.09375 16.328125 C-5.073125 20.2675 -5.0525 24.206875 -5.03125 28.265625 C3.21875 28.265625 11.46875 28.265625 19.96875 28.265625 C19.989375 24.32625 20.01 20.386875 20.03125 16.328125 C20.040354 15.08426025 20.04945801 13.84039551 20.05883789 12.55883789 C20.06133545 11.5868042 20.06383301 10.61477051 20.06640625 9.61328125 C20.07164307 8.61304932 20.07687988 7.61281738 20.08227539 6.58227539 C20.23056095 4.30355272 20.23056095 4.30355272 18.96875 3.265625 C17.11587498 3.19335998 15.26041122 3.1818128 13.40625 3.203125 C12.39433594 3.21214844 11.38242188 3.22117188 10.33984375 3.23046875 C9.55738281 3.24207031 8.77492188 3.25367188 7.96875 3.265625 C8.62875 5.905625 9.28875 8.545625 9.96875 11.265625 C12.93875 11.265625 15.90875 11.265625 18.96875 11.265625 C18.96875 11.925625 18.96875 12.585625 18.96875 13.265625 C16.96875 14.265625 14.96875 15.265625 12.96875 16.265625 C13.45359276 20.91149392 13.45359276 20.91149392 14.96875 25.265625 C13.6075 24.2446875 13.6075 24.2446875 12.21875 23.203125 C9.30367922 21.07042117 9.30367922 21.07042117 6.90625 21.328125 C4.49220052 22.49621346 2.22804386 23.82218726 -0.03125 25.265625 C0.29875 24.523125 0.62875 23.780625 0.96875 23.015625 C2.19657871 20.12679188 2.19657871 20.12679188 1.96875 16.265625 C-0.44180254 14.60262535 -0.44180254 14.60262535 -3.03125 13.265625 C-3.36125 12.605625 -3.69125 11.945625 -4.03125 11.265625 C-1.39125 11.265625 1.24875 11.265625 3.96875 11.265625 C4.95875 8.625625 5.94875 5.985625 6.96875 3.265625 C5.15632948 3.23875221 3.34379767 3.21928785 1.53125 3.203125 C0.01724609 3.18572266 0.01724609 3.18572266 -1.52734375 3.16796875 C-3.97146067 2.97949824 -3.97146067 2.97949824 -5.03125 4.265625 Z M6.96875 12.265625 C6.96875 12.925625 6.96875 13.585625 6.96875 14.265625 C5.97875 14.760625 5.97875 14.760625 4.96875 15.265625 C5.29875 15.925625 5.62875 16.585625 5.96875 17.265625 C6.95875 17.265625 7.94875 17.265625 8.96875 17.265625 C9.29875 16.275625 9.62875 15.285625 9.96875 14.265625 C9.30875 14.265625 8.64875 14.265625 7.96875 14.265625 C7.63875 13.605625 7.30875 12.945625 6.96875 12.265625 Z " fill="#9D3C88" transform="translate(61.03125,133.734375)"/>
<path d="M0 0 C1.15435547 -0.00257812 2.30871094 -0.00515625 3.49804688 -0.0078125 C5.30692383 0.00378906 5.30692383 0.00378906 7.15234375 0.015625 C8.36212891 0.00789063 9.57191406 0.00015625 10.81835938 -0.0078125 C11.97142578 -0.00523438 13.12449219 -0.00265625 14.3125 0 C15.37218994 0.00225586 16.43187988 0.00451172 17.52368164 0.00683594 C20.08984375 0.265625 20.08984375 0.265625 22.08984375 2.265625 C22.34863281 5.03125 22.34863281 5.03125 22.35546875 8.515625 C22.35933594 10.38734375 22.35933594 10.38734375 22.36328125 12.296875 C22.35554688 13.6065625 22.3478125 14.91625 22.33984375 16.265625 C22.34757812 17.5753125 22.3553125 18.885 22.36328125 20.234375 C22.36070313 21.4821875 22.358125 22.73 22.35546875 24.015625 C22.35321289 25.16546875 22.35095703 26.3153125 22.34863281 27.5 C22.08984375 30.265625 22.08984375 30.265625 20.08984375 32.265625 C15.79531168 32.7252719 11.46861557 32.58962279 7.15234375 32.578125 C5.3434668 32.60229492 5.3434668 32.60229492 3.49804688 32.62695312 C2.34369141 32.62759766 1.18933594 32.62824219 0 32.62890625 C-1.06081787 32.63188721 -2.12163574 32.63486816 -3.21459961 32.63793945 C-5.91015625 32.265625 -5.91015625 32.265625 -7.75463867 31.12597656 C-9.42886283 28.43052166 -9.29890586 26.29381779 -9.30859375 23.13671875 C-9.31246094 21.93724609 -9.31632812 20.73777344 -9.3203125 19.50195312 C-9.30871094 18.24833984 -9.29710938 16.99472656 -9.28515625 15.703125 C-9.29675781 14.44564453 -9.30835937 13.18816406 -9.3203125 11.89257812 C-9.31644531 10.69439453 -9.31257813 9.49621094 -9.30859375 8.26171875 C-9.30520996 7.16013428 -9.30182617 6.0585498 -9.29833984 4.92358398 C-9.17023926 4.04645752 -9.04213867 3.16933105 -8.91015625 2.265625 C-5.44919469 -0.0416827 -4.08074528 0.00867782 0 0 Z M-5.91015625 4.265625 C-5.99741848 6.04633746 -6.01714666 7.8304564 -6.0078125 9.61328125 C-6.00458984 10.69287109 -6.00136719 11.77246094 -5.99804688 12.88476562 C-5.98966797 14.02107422 -5.98128906 15.15738281 -5.97265625 16.328125 C-5.96814453 17.46830078 -5.96363281 18.60847656 -5.95898438 19.78320312 C-5.94715372 22.61072851 -5.93067035 25.4381514 -5.91015625 28.265625 C-3.4201996 29.51060333 -1.72020714 29.39496872 1.0625 29.3984375 C2.53493164 29.40037109 2.53493164 29.40037109 4.03710938 29.40234375 C5.06513672 29.39847656 6.09316406 29.39460938 7.15234375 29.390625 C8.70018555 29.39642578 8.70018555 29.39642578 10.27929688 29.40234375 C11.25962891 29.40105469 12.23996094 29.39976563 13.25 29.3984375 C14.15371338 29.39730957 15.05742676 29.39618164 15.98852539 29.39501953 C18.0769886 29.49925022 18.0769886 29.49925022 19.08984375 28.265625 C19.16297942 25.73513098 19.18231902 23.23257663 19.15234375 20.703125 C19.14783203 19.99220703 19.14332031 19.28128906 19.13867188 18.54882812 C19.12685239 16.78772487 19.10891638 15.02666464 19.08984375 13.265625 C15.45598151 14.49193991 15.45598151 14.49193991 12.71484375 17.015625 C11.8837665 20.00750309 12.40936039 22.27149823 13.08984375 25.265625 C10.77984375 23.945625 8.46984375 22.625625 6.08984375 21.265625 C2.62484375 23.740625 2.62484375 23.740625 -0.91015625 26.265625 C0.07984375 23.295625 1.06984375 20.325625 2.08984375 17.265625 C0.10984375 15.945625 -1.87015625 14.625625 -3.91015625 13.265625 C-1.27015625 12.935625 1.36984375 12.605625 4.08984375 12.265625 C4.74984375 9.295625 5.40984375 6.325625 6.08984375 3.265625 C4.27742323 3.23875221 2.46489142 3.21928785 0.65234375 3.203125 C-0.86166016 3.18572266 -0.86166016 3.18572266 -2.40625 3.16796875 C-4.85036692 2.97949824 -4.85036692 2.97949824 -5.91015625 4.265625 Z M7.08984375 3.265625 C8.07984375 6.235625 9.06984375 9.205625 10.08984375 12.265625 C13.05984375 12.265625 16.02984375 12.265625 19.08984375 12.265625 C19.11046875 10.96625 19.13109375 9.666875 19.15234375 8.328125 C19.16394531 7.59722656 19.17554688 6.86632812 19.1875 6.11328125 C19.29545559 4.24830359 19.29545559 4.24830359 18.08984375 3.265625 C16.23696873 3.19335998 14.38150497 3.1818128 12.52734375 3.203125 C11.51542969 3.21214844 10.50351563 3.22117187 9.4609375 3.23046875 C8.67847656 3.24207031 7.89601563 3.25367187 7.08984375 3.265625 Z M6.08984375 13.265625 C5.75984375 14.915625 5.42984375 16.565625 5.08984375 18.265625 C6.40984375 17.605625 7.72984375 16.945625 9.08984375 16.265625 C8.42984375 15.935625 7.76984375 15.605625 7.08984375 15.265625 C6.75984375 14.605625 6.42984375 13.945625 6.08984375 13.265625 Z " fill="#9F3C88" transform="translate(93.91015625,67.734375)"/>
<path d="M0 0 C1.20269531 -0.00257813 2.40539062 -0.00515625 3.64453125 -0.0078125 C4.90652344 -0.00007812 6.16851562 0.00765625 7.46875 0.015625 C8.73074219 0.00789062 9.99273437 0.00015625 11.29296875 -0.0078125 C12.49566406 -0.00523437 13.69835937 -0.00265625 14.9375 0 C16.04544922 0.00225586 17.15339844 0.00451172 18.29492188 0.00683594 C20.96875 0.265625 20.96875 0.265625 22.96875 2.265625 C23.21166992 4.93945312 23.21166992 4.93945312 23.19921875 8.296875 C23.19728516 9.49957031 23.19535156 10.70226562 23.19335938 11.94140625 C23.17499023 13.83439453 23.17499023 13.83439453 23.15625 15.765625 C23.15560547 17.02761719 23.15496094 18.28960937 23.15429688 19.58984375 C23.10898184 28.98516132 23.10898184 28.98516132 21.96875 31.265625 C18.01778022 31.31502162 14.0669297 31.35134255 10.11572266 31.37548828 C8.1096364 31.39050607 6.10363676 31.41591481 4.09765625 31.44140625 C2.84082031 31.44785156 1.58398438 31.45429688 0.2890625 31.4609375 C-0.87351074 31.47141113 -2.03608398 31.48188477 -3.23388672 31.49267578 C-6.03125 31.265625 -6.03125 31.265625 -8.03125 29.265625 C-8.29003906 26.59179688 -8.29003906 26.59179688 -8.296875 23.234375 C-8.29945313 22.03167969 -8.30203125 20.82898438 -8.3046875 19.58984375 C-8.29695312 18.32785156 -8.28921875 17.06585938 -8.28125 15.765625 C-8.28898438 14.50363281 -8.29671875 13.24164063 -8.3046875 11.94140625 C-8.30210937 10.73871094 -8.29953125 9.53601563 -8.296875 8.296875 C-8.29461914 7.18892578 -8.29236328 6.08097656 -8.29003906 4.93945312 C-7.76802202 -0.45406638 -4.62736724 0.00942163 0 0 Z M-5.03125 4.265625 C-5.11851223 6.04633746 -5.13824041 7.8304564 -5.12890625 9.61328125 C-5.12640869 10.58531494 -5.12391113 11.55734863 -5.12133789 12.55883789 C-5.11223389 13.80270264 -5.10312988 15.04656738 -5.09375 16.328125 C-5.073125 20.2675 -5.0525 24.206875 -5.03125 28.265625 C3.21875 28.265625 11.46875 28.265625 19.96875 28.265625 C19.989375 24.32625 20.01 20.386875 20.03125 16.328125 C20.040354 15.08426025 20.04945801 13.84039551 20.05883789 12.55883789 C20.06133545 11.5868042 20.06383301 10.61477051 20.06640625 9.61328125 C20.07164307 8.61304932 20.07687988 7.61281738 20.08227539 6.58227539 C20.23056095 4.30355272 20.23056095 4.30355272 18.96875 3.265625 C17.11587498 3.19335998 15.26041122 3.1818128 13.40625 3.203125 C12.39433594 3.21214844 11.38242188 3.22117188 10.33984375 3.23046875 C9.55738281 3.24207031 8.77492187 3.25367188 7.96875 3.265625 C8.62875 5.905625 9.28875 8.545625 9.96875 11.265625 C12.93875 11.265625 15.90875 11.265625 18.96875 11.265625 C18.96875 11.925625 18.96875 12.585625 18.96875 13.265625 C16.96875 14.265625 14.96875 15.265625 12.96875 16.265625 C13.45359276 20.91149392 13.45359276 20.91149392 14.96875 25.265625 C13.6075 24.2446875 13.6075 24.2446875 12.21875 23.203125 C9.30367922 21.07042117 9.30367922 21.07042117 6.90625 21.328125 C4.49220052 22.49621346 2.22804386 23.82218726 -0.03125 25.265625 C0.29875 24.523125 0.62875 23.780625 0.96875 23.015625 C2.19657871 20.12679188 2.19657871 20.12679188 1.96875 16.265625 C-0.63112203 13.80856804 -0.63112203 13.80856804 -4.03125 13.265625 C-4.03125 12.605625 -4.03125 11.945625 -4.03125 11.265625 C-1.06125 11.265625 1.90875 11.265625 4.96875 11.265625 C5.62875 8.625625 6.28875 5.985625 6.96875 3.265625 C5.15632948 3.23875221 3.34379767 3.21928785 1.53125 3.203125 C0.01724609 3.18572266 0.01724609 3.18572266 -1.52734375 3.16796875 C-3.97146067 2.97949824 -3.97146067 2.97949824 -5.03125 4.265625 Z M6.96875 12.265625 C6.96875 12.925625 6.96875 13.585625 6.96875 14.265625 C5.97875 14.760625 5.97875 14.760625 4.96875 15.265625 C5.29875 15.925625 5.62875 16.585625 5.96875 17.265625 C6.95875 17.265625 7.94875 17.265625 8.96875 17.265625 C9.29875 16.275625 9.62875 15.285625 9.96875 14.265625 C9.30875 14.265625 8.64875 14.265625 7.96875 14.265625 C7.63875 13.605625 7.30875 12.945625 6.96875 12.265625 Z " fill="#9E3C88" transform="translate(159.03125,133.734375)"/>
<path d="M0 0 C2 3 2 3 3 6 C5.97 6.33 8.94 6.66 12 7 C11.195625 7.763125 10.39125 8.52625 9.5625 9.3125 C6.83200976 11.79430898 6.83200976 11.79430898 6 15 C6.27571139 17.00875442 6.60235737 19.01178687 7 21 C5.8553125 20.5359375 5.8553125 20.5359375 4.6875 20.0625 C2.81210323 19.32106407 0.91315348 18.63771783 -1 18 C-1.66 18.495 -2.32 18.99 -3 19.5 C-3.66 19.995 -4.32 20.49 -5 21 C-5.99 20.67 -6.98 20.34 -8 20 C-7.67 17.36 -7.34 14.72 -7 12 C-7.825 11.54625 -8.65 11.0925 -9.5 10.625 C-10.7375 9.820625 -10.7375 9.820625 -12 9 C-12 8.34 -12 7.68 -12 7 C-10.54257537 6.91903197 -9.08387193 6.86082226 -7.625 6.8125 C-6.81289062 6.77769531 -6.00078125 6.74289063 -5.1640625 6.70703125 C-4.44992188 6.80371094 -3.73578125 6.90039062 -3 7 C-2.01 8.485 -2.01 8.485 -1 10 C-1.33 10.99 -1.66 11.98 -2 13 C-1.01 13 -0.02 13 1 13 C0.67 12.01 0.34 11.02 0 10 C-0.06802967 8.27204648 -0.08495645 6.54164635 -0.0625 4.8125 C-0.05347656 3.91144531 -0.04445313 3.01039063 -0.03515625 2.08203125 C-0.02355469 1.39496094 -0.01195313 0.70789063 0 0 Z " fill="#9A3C88" transform="translate(101,138)"/>
<path d="M0 0 C1.45742463 -0.08096803 2.91612807 -0.13917774 4.375 -0.1875 C5.18710937 -0.22230469 5.99921875 -0.25710937 6.8359375 -0.29296875 C7.55007812 -0.19628906 8.26421875 -0.09960938 9 0 C11 3 11 3 11 6 C11.66 6 12.32 6 13 6 C13 5.34 13 4.68 13 4 C17.95 2.515 17.95 2.515 23 1 C22.154375 1.639375 21.30875 2.27875 20.4375 2.9375 C17.78779668 5.65331049 17.78779668 5.65331049 17.890625 8.3359375 C18.16088149 10.59044562 18.5121463 12.7829223 19 15 C18.113125 14.29875 17.22625 13.5975 16.3125 12.875 C13.22575926 10.63152584 13.22575926 10.63152584 10.375 11.625 C9.199375 12.305625 9.199375 12.305625 8 13 C6.02 13.99 6.02 13.99 4 15 C4.66 12.03 5.32 9.06 6 6 C5.01 5.38125 4.02 4.7625 3 4.125 C2.01 3.42375 1.02 2.7225 0 2 C0 1.34 0 0.68 0 0 Z " fill="#A93A88" transform="translate(56,112)"/>
<path d="M0 0 C1.45742463 -0.08096803 2.91612807 -0.13917774 4.375 -0.1875 C5.18710938 -0.22230469 5.99921875 -0.25710937 6.8359375 -0.29296875 C7.55007812 -0.19628906 8.26421875 -0.09960938 9 0 C11 3 11 3 11 6 C11.66 6 12.32 6 13 6 C13 5.34 13 4.68 13 4 C17.95 2.515 17.95 2.515 23 1 C22.154375 1.639375 21.30875 2.27875 20.4375 2.9375 C17.78779668 5.65331049 17.78779668 5.65331049 17.890625 8.3359375 C18.16088149 10.59044562 18.5121463 12.7829223 19 15 C18.113125 14.29875 17.22625 13.5975 16.3125 12.875 C13.22575926 10.63152584 13.22575926 10.63152584 10.375 11.625 C9.199375 12.305625 9.199375 12.305625 8 13 C6.02 13.99 6.02 13.99 4 15 C4.66 12.03 5.32 9.06 6 6 C5.01 5.38125 4.02 4.7625 3 4.125 C2.01 3.42375 1.02 2.7225 0 2 C0 1.34 0 0.68 0 0 Z " fill="#A53B88" transform="translate(89,112)"/>
<path d="M0 0 C1.98 0.495 1.98 0.495 4 1 C4.66 3.97 5.32 6.94 6 10 C3.03595495 7.19195732 0.55500981 4.81684226 -1 1 C-0.67 0.67 -0.34 0.34 0 0 Z " fill="#9C3C88" transform="translate(102,51)"/>
<path d="M0 0 C1.32 0 2.64 0 4 0 C4.66 2.97 5.32 5.94 6 9 C2.91910327 6.22719294 1.31224548 3.93673644 0 0 Z " fill="#9B3C88" transform="translate(102,85)"/>
<path d="M0 0 C1.27875 0.103125 2.5575 0.20625 3.875 0.3125 C4.95394531 0.39951172 4.95394531 0.39951172 6.0546875 0.48828125 C8 1 8 1 10 4 C8.375 4.75 8.375 4.75 6 5 C2.75 3.125 2.75 3.125 0 1 C0 0.67 0 0.34 0 0 Z " fill="#993C89" transform="translate(122,113)"/>
<path d="M0 0 C2.01822917 0.06510417 4.03645833 0.13020833 6.0546875 0.1953125 C3.48379333 2.30711842 1.42408183 3.85837307 -1.9453125 4.1953125 C-2.6053125 3.5353125 -3.2653125 2.8753125 -3.9453125 2.1953125 C-1.9453125 0.1953125 -1.9453125 0.1953125 0 0 Z " fill="#9A3C89" transform="translate(138.9453125,111.8046875)"/>
<path d="M0 0 C1.32 0.33 2.64 0.66 4 1 C4.66 3.31 5.32 5.62 6 8 C1.3125 4.38671875 1.3125 4.38671875 0 3 C0 2.01 0 1.02 0 0 Z " fill="#983C89" transform="translate(135,150)"/>
<path d="M0 0 C1.32 0.33 2.64 0.66 4 1 C4.66 3.31 5.32 5.62 6 8 C1.3125 4.38671875 1.3125 4.38671875 0 3 C0 2.01 0 1.02 0 0 Z " fill="#983C89" transform="translate(36,150)"/>
<path d="M0 0 C2 1 2 1 2.73828125 2.7421875 C2.92777344 3.44601563 3.11726563 4.14984375 3.3125 4.875 C3.51488281 5.57367188 3.71726562 6.27234375 3.92578125 6.9921875 C3.95027344 7.65476562 3.97476563 8.31734375 4 9 C3.01 9.99 2.02 10.98 1 12 C0.67 8.04 0.34 4.08 0 0 Z " fill="#BB3888" transform="translate(100,71)"/>
<path d="M0 0 C2 1 2 1 2.73828125 2.7421875 C2.92777344 3.44601563 3.11726563 4.14984375 3.3125 4.875 C3.51488281 5.57367188 3.71726562 6.27234375 3.92578125 6.9921875 C3.95027344 7.65476562 3.97476563 8.31734375 4 9 C3.01 9.99 2.02 10.98 1 12 C0.67 8.04 0.34 4.08 0 0 Z " fill="#BB3888" transform="translate(100,38)"/>
<path d="M0 0 C0.66 0 1.32 0 2 0 C3.5078125 1.75 3.5078125 1.75 5.125 4 C5.66382813 4.7425 6.20265625 5.485 6.7578125 6.25 C7.16773438 6.8275 7.57765625 7.405 8 8 C4.67689517 6.83242263 2.16638868 5.85051143 0 3 C0 2.01 0 1.02 0 0 Z " fill="#B93988" transform="translate(133,151)"/>
<path d="M0 0 C0.66 0 1.32 0 2 0 C3.5078125 1.75 3.5078125 1.75 5.125 4 C5.66382813 4.7425 6.20265625 5.485 6.7578125 6.25 C7.16773438 6.8275 7.57765625 7.405 8 8 C4.67689517 6.83242263 2.16638868 5.85051143 0 3 C0 2.01 0 1.02 0 0 Z " fill="#B93888" transform="translate(34,151)"/>
<path d="M0 0 C0.66 0 1.32 0 2 0 C2.33 1.32 2.66 2.64 3 4 C1.02 5.32 -0.96 6.64 -3 8 C-2.37240135 5.07120629 -1.41377341 2.63904371 0 0 Z " fill="#983C89" transform="translate(98,151)"/>
<path d="M0 0 C-1.3697164 3.99500618 -3.25722422 6.80009492 -6 10 C-5.71872579 8.51882199 -5.42466268 7.04006751 -5.125 5.5625 C-4.96257812 4.73878906 -4.80015625 3.91507812 -4.6328125 3.06640625 C-4.42398438 2.38449219 -4.21515625 1.70257813 -4 1 C-2 0 -2 0 0 0 Z " fill="#BB3888" transform="translate(132,117)"/>
<path d="M0 0 C2.64 0.33 5.28 0.66 8 1 C8 1.99 8 2.98 8 4 C4.31245243 3.50168276 2.39509338 2.89932357 0 0 Z " fill="#973C89" transform="translate(90,48)"/>
<path d="M0 0 C0.66 0 1.32 0 2 0 C3.5078125 1.75 3.5078125 1.75 5.125 4 C5.66382812 4.7425 6.20265625 5.485 6.7578125 6.25 C7.16773437 6.8275 7.57765625 7.405 8 8 C4.67689517 6.83242263 2.16638868 5.85051143 0 3 C0 2.01 0 1.02 0 0 Z " fill="#B93888" transform="translate(100,151)"/>
<path d="M0 0 C0.66 0 1.32 0 2 0 C1.75 2.375 1.75 2.375 1 5 C-1.0625 6.3125 -1.0625 6.3125 -3 7 C-1.125 1.125 -1.125 1.125 0 0 Z " fill="#983C89" transform="translate(66,151)"/>
<path d="M0 0 C0.66 0.33 1.32 0.66 2 1 C-1.78756477 4.61139896 -1.78756477 4.61139896 -4 6 C-6.875 5.8125 -6.875 5.8125 -9 5 C-6.06626269 3.04417512 -3.21783702 1.43775696 0 0 Z " fill="#BD3888" transform="translate(45,145)"/>
<path d="M0 0 C1.45742463 -0.08096803 2.91612807 -0.13917774 4.375 -0.1875 C5.18710938 -0.22230469 5.99921875 -0.25710937 6.8359375 -0.29296875 C7.55007812 -0.19628906 8.26421875 -0.09960938 9 0 C9.66 0.99 10.32 1.98 11 3 C9.741875 2.87625 8.48375 2.7525 7.1875 2.625 C6.12595703 2.52058594 6.12595703 2.52058594 5.04296875 2.4140625 C3 2 3 2 0 0 Z " fill="#BA3888" transform="translate(155,145)"/>
<path d="M0 0 C0.33 0 0.66 0 1 0 C1.25 2.3125 1.25 2.3125 1 5 C-1 6.8125 -1 6.8125 -3 8 C-3.66 7.67 -4.32 7.34 -5 7 C-4.19152271 5.83054208 -3.37810888 4.66449539 -2.5625 3.5 C-2.11003906 2.8503125 -1.65757812 2.200625 -1.19140625 1.53125 C-0.79824219 1.0259375 -0.40507812 0.520625 0 0 Z " fill="#983C89" transform="translate(132,118)"/>
<path d="M0 0 C-4.30769231 3.93846154 -4.30769231 3.93846154 -7.8125 4.25 C-8.534375 4.1675 -9.25625 4.085 -10 4 C-10 3.34 -10 2.68 -10 2 C-8.71211992 1.46987262 -7.41953322 0.9511671 -6.125 0.4375 C-5.40570313 0.14746094 -4.68640625 -0.14257812 -3.9453125 -0.44140625 C-2 -1 -2 -1 0 0 Z " fill="#BC3888" transform="translate(112,114)"/>
<path d="M0 0 C2 1 2 1 2.6328125 2.84765625 C2.79523438 3.57855469 2.95765625 4.30945313 3.125 5.0625 C3.29257813 5.79597656 3.46015625 6.52945313 3.6328125 7.28515625 C3.75398437 7.85105469 3.87515625 8.41695312 4 9 C3.01 9.66 2.02 10.32 1 11 C0.67 7.37 0.34 3.74 0 0 Z " fill="#BB3888" transform="translate(133,104)"/>
<path d="M0 0 C0.99 0.33 1.98 0.66 3 1 C1.68 3.64 0.36 6.28 -1 9 C-1.66 9 -2.32 9 -3 9 C-2.01 6.03 -1.02 3.06 0 0 Z " fill="#BA3888" transform="translate(162,150)"/>
<path d="M0 0 C0.99 0.33 1.98 0.66 3 1 C1.68 3.64 0.36 6.28 -1 9 C-1.66 9 -2.32 9 -3 9 C-2.01 6.03 -1.02 3.06 0 0 Z " fill="#BA3888" transform="translate(64,150)"/>
<path d="M0 0 C0.33 0.66 0.66 1.32 1 2 C-0.98 3.32 -2.96 4.64 -5 6 C-6.32 5.34 -7.64 4.68 -9 4 C-6.03 2.68 -3.06 1.36 0 0 Z " fill="#BB3888" transform="translate(177,145)"/>
<path d="M0 0 C0.33 0.66 0.66 1.32 1 2 C-0.98 3.32 -2.96 4.64 -5 6 C-6.32 5.34 -7.64 4.68 -9 4 C-6.03 2.68 -3.06 1.36 0 0 Z " fill="#BC3888" transform="translate(79,145)"/>
<path d="M0 0 C1.95775078 2.93662616 2.56073149 4.5737056 3 8 C2.67 8.66 2.34 9.32 2 10 C1.34 10 0.68 10 0 10 C0 6.7 0 3.4 0 0 Z " fill="#B93888" transform="translate(101,138)"/>
<path d="M0 0 C2.96404505 2.80804268 5.44499019 5.18315774 7 9 C1.21538462 5.67692308 1.21538462 5.67692308 0.125 2.25 C0.08375 1.5075 0.0425 0.765 0 0 Z " fill="#BC3888" transform="translate(68,118)"/>
<path d="M0 0 C0.99 0 1.98 0 3 0 C3.66 2.31 4.32 4.62 5 7 C3.02 5.35 1.04 3.7 -1 2 C-0.67 1.34 -0.34 0.68 0 0 Z " fill="#973C89" transform="translate(70,118)"/>
<path d="M0 0 C-4.30769231 3.93846154 -4.30769231 3.93846154 -7.8125 4.25 C-8.534375 4.1675 -9.25625 4.085 -10 4 C-10 3.34 -10 2.68 -10 2 C-8.71211992 1.46987262 -7.41953322 0.9511671 -6.125 0.4375 C-5.40570313 0.14746094 -4.68640625 -0.14257812 -3.9453125 -0.44140625 C-2 -1 -2 -1 0 0 Z " fill="#BB3888" transform="translate(145,114)"/>
<path d="M0 0 C2.97 0 5.94 0 9 0 C9.33 0.99 9.66 1.98 10 3 C6.7 2.34 3.4 1.68 0 1 C0 0.67 0 0.34 0 0 Z " fill="#BC3888" transform="translate(122,112)"/>
<path d="M0 0 C1.95775078 2.93662616 2.56073149 4.5737056 3 8 C2.67 8.66 2.34 9.32 2 10 C1.34 10 0.68 10 0 10 C0 6.7 0 3.4 0 0 Z " fill="#B93888" transform="translate(68,105)"/>
<path d="M0 0 C1.95775078 2.93662616 2.56073149 4.5737056 3 8 C2.67 8.66 2.34 9.32 2 10 C1.34 10 0.68 10 0 10 C0 6.7 0 3.4 0 0 Z " fill="#BA3888" transform="translate(101,105)"/>
<path d="M0 0 C2.64752004 2.57784846 4.94432065 4.91648098 7 8 C4.08482708 6.92598892 2.22189824 6.22189824 0 4 C0 2.68 0 1.36 0 0 Z " fill="#BA3888" transform="translate(100,52)"/>
<path d="M0 0 C0.66 0 1.32 0 2 0 C1.75 2.375 1.75 2.375 1 5 C-1.0625 6.3125 -1.0625 6.3125 -3 7 C-1.125 1.125 -1.125 1.125 0 0 Z " fill="#983C89" transform="translate(98,53)"/>
<path d="M0 0 C0.66 0.33 1.32 0.66 2 1 C0.68 3.64 -0.64 6.28 -2 9 C-2.66 8.67 -3.32 8.34 -4 8 C-3.40138258 5.64828869 -2.73075648 3.3140622 -2 1 C-1.34 0.67 -0.68 0.34 0 0 Z " fill="#BB3888" transform="translate(97,150)"/>
<path d="M0 0 C0.66 0.33 1.32 0.66 2 1 C0.35 3.64 -1.3 6.28 -3 9 C-4 7 -4 7 -3.1875 3.9375 C-2 1 -2 1 0 0 Z " fill="#BE3888" transform="translate(31,150)"/>
<path d="M0 0 C0 0.99 0 1.98 0 3 C-2.25 4.8125 -2.25 4.8125 -5 6 C-6.32 5.34 -7.64 4.68 -9 4 C-6.03 2.68 -3.06 1.36 0 0 Z " fill="#BD3888" transform="translate(144,145)"/>
<path d="M0 0 C0.66 0.33 1.32 0.66 2 1 C-0.1875 3.0625 -0.1875 3.0625 -3 5 C-5.8125 4.75 -5.8125 4.75 -8 4 C-5.31143836 2.20762558 -3.0466145 1.01553817 0 0 Z " fill="#BC3888" transform="translate(110,146)"/>
<path d="M0 0 C1.9451 2.91765 2.45276317 4.62537285 3 8 C2.01 8.66 1.02 9.32 0 10 C0 6.7 0 3.4 0 0 Z " fill="#BC3888" transform="translate(134,138)"/>
<path d="M0 0 C1.45742463 -0.08096803 2.91612807 -0.13917774 4.375 -0.1875 C5.18710938 -0.22230469 5.99921875 -0.25710937 6.8359375 -0.29296875 C7.55007812 -0.19628906 8.26421875 -0.09960938 9 0 C9.66 0.99 10.32 1.98 11 3 C7.37 2.34 3.74 1.68 0 1 C0 0.67 0 0.34 0 0 Z " fill="#BC3888" transform="translate(122,145)"/>
<path d="M0 0 C1.45742463 -0.08096803 2.91612807 -0.13917774 4.375 -0.1875 C5.18710938 -0.22230469 5.99921875 -0.25710937 6.8359375 -0.29296875 C7.55007812 -0.19628906 8.26421875 -0.09960938 9 0 C9.66 0.99 10.32 1.98 11 3 C7.37 2.34 3.74 1.68 0 1 C0 0.67 0 0.34 0 0 Z " fill="#BD3888" transform="translate(89,145)"/>
<path d="M0 0 C2.97 0 5.94 0 9 0 C9.33 0.99 9.66 1.98 10 3 C6.7 2.34 3.4 1.68 0 1 C0 0.67 0 0.34 0 0 Z " fill="#BC3888" transform="translate(57,145)"/>
<path d="M0 0 C1.45742463 -0.08096803 2.91612807 -0.13917774 4.375 -0.1875 C5.18710937 -0.22230469 5.99921875 -0.25710937 6.8359375 -0.29296875 C7.55007812 -0.19628906 8.26421875 -0.09960938 9 0 C9.66 0.99 10.32 1.98 11 3 C7.37 2.34 3.74 1.68 0 1 C0 0.67 0 0.34 0 0 Z " fill="#BC3888" transform="translate(23,145)"/>
<path d="M0 0 C1.9451 2.91765 2.45276317 4.62537285 3 8 C2.01 8.66 1.02 9.32 0 10 C0 6.7 0 3.4 0 0 Z " fill="#BB3888" transform="translate(35,138)"/>
<path d="M0 0 C1.45742463 -0.08096803 2.91612807 -0.13917774 4.375 -0.1875 C5.18710938 -0.22230469 5.99921875 -0.25710937 6.8359375 -0.29296875 C7.55007812 -0.19628906 8.26421875 -0.09960938 9 0 C9.66 0.99 10.32 1.98 11 3 C7.37 2.34 3.74 1.68 0 1 C0 0.67 0 0.34 0 0 Z " fill="#BD3888" transform="translate(89,112)"/>
<path d="M0 0 C1.45742463 -0.08096803 2.91612807 -0.13917774 4.375 -0.1875 C5.18710937 -0.22230469 5.99921875 -0.25710937 6.8359375 -0.29296875 C7.55007812 -0.19628906 8.26421875 -0.09960938 9 0 C9.66 0.99 10.32 1.98 11 3 C7.37 2.34 3.74 1.68 0 1 C0 0.67 0 0.34 0 0 Z " fill="#BD3888" transform="translate(56,112)"/>
<path d="M0 0 C4.875 3.625 4.875 3.625 6 7 C4 6 2 5 0 4 C0 2.68 0 1.36 0 0 Z " fill="#BA3888" transform="translate(68,151)"/>
<path d="M0 0 C0.66 0 1.32 0 2 0 C3.2890625 1.75 3.2890625 1.75 4.625 4 C5.07101563 4.7425 5.51703125 5.485 5.9765625 6.25 C6.31429687 6.8275 6.65203125 7.405 7 8 C5 7 3 6 1 5 C0.375 2.4375 0.375 2.4375 0 0 Z " fill="#BD3888" transform="translate(100,85)"/>
</svg>
