<?xml version="1.0" encoding="UTF-8"?>
<svg version="1.1" xmlns="http://www.w3.org/2000/svg" width="200" height="200">
<path d="M0 0 C3.06458538 2.04305692 3.82153128 3.44079802 4.9375 6.9375 C5.01221891 10.59872681 4.21363944 12.1304674 2 15 C1.34 15.33 0.68 15.66 0 16 C0 17.65 0 19.3 0 21 C0.56847656 21.14695312 1.13695313 21.29390625 1.72265625 21.4453125 C8.34631542 23.36938044 13.36642192 26.02494309 17.25 31.88671875 C19.08667258 35.32372736 20.21976653 38.63840315 21.0625 42.4375 C21.371875 43.613125 21.68125 44.78875 22 46 C23.485 46.495 23.485 46.495 25 47 C25.33 46.01 25.66 45.02 26 44 C33.28014296 37.73939566 40.87699013 35.45427976 50.3515625 35.6875 C58.4251291 36.64013323 65.60135728 39.88247796 71 46 C76.35746461 52.88612784 78.77266853 60.1915788 78 69 C76.63737075 76.56866344 73.23808796 80.64324016 67 85 C62.43658027 87.76206983 57.18433184 87.62528582 52 87 C46.01790513 85.23807788 41.03122737 81.4961815 38 76 C37.15419093 72.26026569 37.53332568 69.13751864 39 65.5625 C42.07044305 63.16371637 45.14223439 62.66225787 49 63 C52 64.8125 52 64.8125 54 67 C54 67.66 54 68.32 54 69 C55.65 69 57.3 69 59 69 C60.29914639 64.38081284 59.77764428 60.66586566 59 56 C56.15678351 53.15678351 48.81157126 54.00917346 45 54 C41.23505221 55.16843207 39.74034379 55.99379709 37.43359375 59.12890625 C35.69025726 62.62032946 35.2127282 65.99768468 34.6875 69.8125 C33.59901751 76.51342289 32.00215026 81.16458808 27 86 C26.2575 86.763125 25.515 87.52625 24.75 88.3125 C20.0247126 91.21210817 14.56273639 93 9 93 C14.69055811 100.00649967 20.06114838 106.56517909 29.3125 108.125 C30.13363281 108.21007812 30.95476562 108.29515625 31.80078125 108.3828125 C34.7314862 109.20528387 35.50747833 110.39632654 37 113 C37.5 116.4375 37.5 116.4375 37 120 C34.39902681 123.34174562 32.90437776 124.82605226 28.69897461 125.63491821 C27.44608643 125.63889618 26.19319824 125.64287415 24.90234375 125.64697266 C24.207388 125.65573425 23.51243225 125.66449585 22.79641724 125.67352295 C20.50946788 125.69544945 18.22446744 125.680991 15.9375 125.6640625 C14.34236278 125.66743265 12.74722806 125.67228692 11.15209961 125.67855835 C7.81306448 125.68592043 4.47469928 125.67524651 1.13574219 125.65185547 C-3.138548 125.62336698 -7.41126847 125.63977468 -11.6855011 125.66971779 C-14.97818776 125.68780939 -18.27050391 125.68202444 -21.5632019 125.66907883 C-23.13882637 125.66574991 -24.71448477 125.66981386 -26.29006958 125.68147659 C-28.49506354 125.69421745 -30.697537 125.67476957 -32.90234375 125.64697266 C-34.78167603 125.64100571 -34.78167603 125.64100571 -36.69897461 125.63491821 C-40.90451401 124.82602605 -42.39609751 123.33926103 -45 120 C-45.5625 116.4375 -45.5625 116.4375 -45 113 C-42.24099386 109.55906264 -40.29350834 108.59558238 -36 107.9375 C-28.20291496 106.09856485 -23.41675675 100.5616867 -18 95 C-17.67 94.67 -17.34 94.34 -17 94 C-17.99257812 93.8040625 -18.98515625 93.608125 -20.0078125 93.40625 C-38.94798261 89.36004761 -52.06911667 79.03192085 -65.6875 65.5625 C-66.40075439 64.85875244 -67.11400879 64.15500488 -67.84887695 63.42993164 C-72.12107757 59.13091494 -75.86702898 54.71556756 -79.37036133 49.76538086 C-81.27120448 47.70620531 -82.2516802 47.33317931 -85 47 C-86.32 47 -87.64 47 -89 47 C-90.3363641 46.83548548 -91.67030798 46.64928562 -93 46.4375 C-93.99 46.293125 -94.98 46.14875 -96 46 C-95.85252617 39.06873011 -92.64018377 34.99382365 -88 30 C-83.04710957 27.52355478 -77.02395302 29.09062195 -71.98828125 30.6953125 C-67.42394278 32.68810864 -63.36620721 35.38605496 -59.18823242 38.07885742 C-54.67656102 40.97902766 -50.13635317 43.71550627 -45.375 46.1875 C-44.28960937 46.75855469 -43.20421875 47.32960937 -42.0859375 47.91796875 C-38.5229746 49.1672608 -36.59740861 49.04689209 -33 48 C-29.7164912 45.09174935 -28.70936926 42.24309596 -27.625 38.125 C-25.96083302 32.14467804 -23.26687646 28.06461557 -17.97265625 24.71875 C-14.70592601 23.01542697 -11.59619259 21.81513699 -8 21 C-7.66501699 18.66834966 -7.66501699 18.66834966 -8 16 C-8.99 15.1028125 -8.99 15.1028125 -10 14.1875 C-12.21110509 11.76910381 -12.36056458 11.14310681 -12.5 8 C-12.32990133 5.15084726 -12.0090396 4.01506601 -10.5 1.5 C-6.97359191 -0.61584485 -4.01178761 -0.80730018 0 0 Z " fill="#0E0D0A" transform="translate(110,38)"/>
<path d="M0 0 C9.79352924 -0.90680826 16.28846703 3.90394722 24.375 8.9375 C37.20329603 17.70875521 37.20329603 17.70875521 52 19 C53.19988253 18.19196867 54.37799326 17.3511549 55.5390625 16.48828125 C62.43063916 12.53314629 70.30440335 13.33022291 78.01196289 13.45800781 C80.6916605 13.5000653 83.36885402 13.4990498 86.04882812 13.4921875 C87.76564234 13.50267559 89.48244372 13.51561164 91.19921875 13.53125 C92.39003304 13.53155212 92.39003304 13.53155212 93.60490417 13.53186035 C99.43568963 13.65535006 103.68653802 14.84713482 108.08203125 18.9375 C108.65308594 19.618125 109.22414063 20.29875 109.8125 21 C110.39644531 21.680625 110.98039062 22.36125 111.58203125 23.0625 C114.67138039 27.28375944 114.57689891 31.98666726 114 37 C111.91065241 43.69785141 108.06401665 47.27727658 102.34375 51.10961914 C98.79909641 52.45621827 95.24347377 52.34583526 91.5 52.37109375 C90.66847412 52.38012222 89.83694824 52.3891507 88.98022461 52.39845276 C87.21846099 52.41294935 85.4566436 52.42184054 83.69482422 52.42553711 C81.03647063 52.4373381 78.38051351 52.48644351 75.72265625 52.53710938 C55.92781784 52.72666832 42.09209125 44.63104133 28 31 C27.43812988 30.45859375 26.87625977 29.9171875 26.29736328 29.359375 C13.3308185 16.81267285 13.3308185 16.81267285 9.2109375 10.453125 C6.07021738 6.68426086 1.62026518 6.53310752 -3 6 C-2 4 -1 2 0 0 Z " fill="#C88C23" transform="translate(25,73)"/>
<path d="M0 0 C4.74924952 2.74175424 7.74146217 6.31234957 10.5 11 C10.87511719 11.63035156 11.25023437 12.26070312 11.63671875 12.91015625 C13.77693633 18.09122596 13.12088268 24.29257262 11.25 29.4375 C8.71091331 33.15544837 6.82669372 35.55776876 2.5 37 C-2.37109606 37.69249831 -6.71360315 38.11649803 -11 35.4375 C-12.95405617 33.70676454 -14.76497665 31.94879414 -16.5 30 C-16.17 28.35 -15.84 26.7 -15.5 25 C-13.85 25.33 -12.2 25.66 -10.5 26 C-10.17 26.99 -9.84 27.98 -9.5 29 C-5.78207831 30.23930723 -2.3632708 30.52857629 1.5 30 C4.18620182 28.73061576 4.18620182 28.73061576 5.5 26 C6.02857053 21.75611491 5.85318907 18.05956722 4.5 14 C2.85448038 13.28272222 1.18577711 12.61674772 -0.5 12 C-1.16 11.34 -1.82 10.68 -2.5 10 C-2.5 8.68 -2.5 7.36 -2.5 6 C-8.58195322 4.24805563 -15.75046417 3.61105165 -21.4375 6.75 C-24.06944551 8.68367425 -26.32864126 10.56807821 -28.5 13 C-30.125 11.3125 -30.125 11.3125 -31.5 9 C-30.40289939 4.87595916 -28.80904637 2.96788236 -25.25 0.6875 C-17.29957152 -3.74727658 -8.2782834 -3.65291722 0 0 Z " fill="#C28822" transform="translate(169.5,82)"/>
<path d="M0 0 C5.09896101 3.1384694 8.0272345 6.40072854 10.3671875 11.89453125 C10.3671875 13.21453125 10.3671875 14.53453125 10.3671875 15.89453125 C-2.1728125 15.89453125 -14.7128125 15.89453125 -27.6328125 15.89453125 C-26.38867443 8.42970282 -24.4183308 5.11157642 -18.5703125 0.45703125 C-12.80917637 -2.41726107 -5.89096125 -2.4735045 0 0 Z " fill="#C18822" transform="translate(114.6328125,66.10546875)"/>
<path d="M0 0 C23.1 0 46.2 0 70 0 C70 1.65 70 3.3 70 5 C68.15202799 6.84797201 65.13203923 6.12775947 62.66015625 6.12939453 C61.66748245 6.13202301 61.66748245 6.13202301 60.65475464 6.13470459 C58.4573101 6.13912217 56.25994542 6.13618547 54.0625 6.1328125 C52.54174789 6.13348557 51.02099588 6.13445561 49.50024414 6.13571167 C46.30907164 6.13718851 43.11792708 6.13503452 39.92675781 6.13037109 C35.8273547 6.1246738 31.72801704 6.12795288 27.62861633 6.13394356 C24.48717756 6.13754954 21.34575442 6.13641042 18.20431519 6.13381577 C16.69237256 6.1331466 15.18042854 6.13397457 13.66848755 6.13629532 C11.55890113 6.13882245 9.44942213 6.13498044 7.33984375 6.12939453 C6.13706787 6.12859894 4.93429199 6.12780334 3.69506836 6.12698364 C1 6 1 6 0 5 C0 3.35 0 1.7 0 0 Z " fill="#BB8422" transform="translate(71,152)"/>
<path d="M0 0 C3.01893716 0.27119266 4.19068471 0.76281071 6.3828125 2.88671875 C7.56456268 4.44737089 8.70060645 6.04349555 9.79296875 7.66796875 C11.48719298 10.04453501 13.17621606 11.67375265 15.4375 13.5 C16.448125 14.345625 17.45875 15.19125 18.5 16.0625 C18.5 16.7225 18.5 17.3825 18.5 18.0625 C5.96 18.0625 -6.58 18.0625 -19.5 18.0625 C-19.5 17.4025 -19.5 16.7425 -19.5 16.0625 C-17.99609375 14.6171875 -17.99609375 14.6171875 -15.9375 12.9375 C-12.8643979 10.37658159 -10.47252855 7.81008469 -8.0625 4.625 C-5.55251394 1.70907086 -3.87392415 0.40640152 0 0 Z " fill="#C38923" transform="translate(106.5,128.9375)"/>
<path d="M0 0 C1.65 0.33 3.3 0.66 5 1 C4.67 2.65 4.34 4.3 4 6 C2.35 5.67 0.7 5.34 -1 5 C-0.67 3.35 -0.34 1.7 0 0 Z " fill="#B37E21" transform="translate(104,43)"/>
</svg>
