<?xml version="1.0" encoding="UTF-8"?>
<svg version="1.1" xmlns="http://www.w3.org/2000/svg" width="200" height="200">
<path d="M0 0 C1.25780273 0.00773437 1.25780273 0.00773437 2.54101562 0.015625 C3.8490918 0.0465625 3.8490918 0.0465625 5.18359375 0.078125 C6.05951172 0.08328125 6.93542969 0.0884375 7.83789062 0.09375 C14.31182481 0.17349053 14.31182481 0.17349053 16.62109375 1.328125 C17.71146303 4.3018594 17.65973541 5.21220001 16.62109375 8.328125 C13.73693492 9.77020441 11.20387847 9.42207387 7.99609375 9.390625 C6.80757812 9.38160156 5.6190625 9.37257813 4.39453125 9.36328125 C3.47929687 9.35167969 2.5640625 9.34007812 1.62109375 9.328125 C1.95109375 9.988125 2.28109375 10.648125 2.62109375 11.328125 C2.95109375 10.998125 3.28109375 10.668125 3.62109375 10.328125 C5.9742293 10.25540759 8.32943043 10.24441632 10.68359375 10.265625 C11.97394531 10.27464844 13.26429687 10.28367187 14.59375 10.29296875 C15.59277344 10.30457031 16.59179688 10.31617188 17.62109375 10.328125 C17.95109375 9.008125 18.28109375 7.688125 18.62109375 6.328125 C19.61109375 6.328125 20.60109375 6.328125 21.62109375 6.328125 C21.62109375 4.678125 21.62109375 3.028125 21.62109375 1.328125 C24.13306422 0.07213977 25.85069087 0.19667015 28.66282654 0.18768311 C29.72983795 0.18197296 30.79684937 0.17626282 31.89619446 0.17037964 C33.07183456 0.16926178 34.24747467 0.16814392 35.45874023 0.16699219 C37.31000519 0.15954483 37.31000519 0.15954483 39.19866943 0.15194702 C42.58915599 0.13982589 45.97958077 0.13237721 49.37008166 0.12793636 C51.48710634 0.12500703 53.60412559 0.12090253 55.72114754 0.11643219 C62.34141879 0.10275689 68.96167765 0.09308993 75.58196205 0.0892303 C83.23072826 0.08474682 90.87931602 0.06718579 98.52802795 0.0382297 C104.43635026 0.01663653 110.34462227 0.00652732 116.25298363 0.00518918 C119.78377612 0.0041396 123.31440086 -0.00180043 126.8451519 -0.01963043 C130.78151123 -0.03912209 134.71764619 -0.03483159 138.65405273 -0.02832031 C139.82766861 -0.0375351 141.00128448 -0.04674988 142.21046448 -0.0562439 C143.28029572 -0.05067474 144.35012695 -0.04510559 145.45237732 -0.03936768 C146.38355597 -0.04083424 147.31473463 -0.0423008 148.27413082 -0.0438118 C151.07589048 0.40019927 151.96826697 1.05420459 153.62109375 3.328125 C153.9934082 6.11547852 153.9934082 6.11547852 153.984375 9.45703125 C153.9834082 11.25624023 153.9834082 11.25624023 153.98242188 13.09179688 C153.96630859 14.34541016 153.95019531 15.59902344 153.93359375 16.890625 C153.93681641 18.14810547 153.94003906 19.40558594 153.94335938 20.70117188 C153.88797433 30.06124442 153.88797433 30.06124442 151.62109375 32.328125 C150.63109375 32.328125 149.64109375 32.328125 148.62109375 32.328125 C148.53859375 33.215 148.45609375 34.101875 148.37109375 35.015625 C147.62109375 38.328125 147.62109375 38.328125 145.6083374 40.59233093 C143.07664587 44.07765427 143.10559809 46.13413903 143.07519531 50.41333008 C143.0596888 51.45318054 143.0596888 51.45318054 143.04386902 52.51403809 C143.01450789 54.79214978 143.01294337 57.06937046 143.01171875 59.34765625 C142.99673245 60.93236478 142.98000435 62.51705772 142.96160889 64.10173035 C142.91797305 68.26261117 142.89794481 72.42328132 142.88287354 76.58435059 C142.86328873 80.83435504 142.82132031 85.08413243 142.78125 89.33398438 C142.70598877 97.6653051 142.65567278 105.99653656 142.62109375 114.328125 C143.26046875 114.4725 143.89984375 114.616875 144.55859375 114.765625 C146.62109375 115.328125 146.62109375 115.328125 147.62109375 116.328125 C147.66173207 117.99429615 147.66381475 119.66200595 147.62109375 121.328125 C144.21417949 123.39112119 141.55555897 123.58533788 137.60546875 123.59375 C136.43628906 123.59632813 135.26710937 123.59890625 134.0625 123.6015625 C132.23525391 123.58996094 132.23525391 123.58996094 130.37109375 123.578125 C128.56705078 123.58972656 128.56705078 123.58972656 126.7265625 123.6015625 C116.84245739 123.57986304 116.84245739 123.57986304 112.01171875 122.1875 C108.10842928 121.198187 107.94512703 121.60199867 104.62109375 123.328125 C102.54431057 123.57701397 102.54431057 123.57701397 100.28794861 123.57536316 C99.42854172 123.57955765 98.56913483 123.58375214 97.6836853 123.58807373 C96.74900421 123.58245422 95.81432312 123.57683472 94.85131836 123.57104492 C93.86068893 123.57294327 92.87005951 123.57484161 91.84941101 123.57679749 C88.57400608 123.58050305 85.29882274 123.56980447 82.0234375 123.55859375 C79.74947638 123.55740177 77.47551476 123.55694883 75.20155334 123.5572052 C70.43601397 123.55564074 65.67054976 123.5473534 60.9050293 123.53393555 C54.78922727 123.51693618 48.67350779 123.51312152 42.5576849 123.51388073 C37.86262724 123.51360913 33.16758772 123.5081297 28.47253609 123.50087929 C26.21702779 123.49769207 23.96151743 123.49572509 21.706007 123.49498558 C18.55779375 123.49282314 15.40966894 123.48408117 12.26147461 123.47338867 C11.32476929 123.47384186 10.38806396 123.47429504 9.42297363 123.47476196 C8.56638657 123.47049698 7.7097995 123.46623199 6.82725525 123.46183777 C6.08303283 123.46016192 5.33881041 123.45848608 4.57203579 123.45675945 C2.62109375 123.328125 2.62109375 123.328125 -0.37890625 122.328125 C-1.00390625 119.453125 -1.00390625 119.453125 -1.37890625 116.328125 C-0.38890625 115.338125 -0.38890625 115.338125 0.62109375 114.328125 C1.61109375 114.328125 2.60109375 114.328125 3.62109375 114.328125 C3.58303021 105.15696683 3.52365943 95.9862649 3.43719101 86.81543446 C3.39770586 82.55687242 3.36552263 78.29851747 3.35009766 74.03979492 C3.33493766 69.92873358 3.30050451 65.81824152 3.25278473 61.7074337 C3.23796402 60.14023478 3.23005233 58.57295458 3.2292099 57.00568581 C3.2268404 54.80761879 3.19976627 52.61112532 3.16699219 50.41333008 C3.15810974 49.16312576 3.14922729 47.91292145 3.14007568 46.62483215 C2.52999587 42.74944777 1.18846309 41.2162306 -1.37890625 38.328125 C-2.12890625 35.015625 -2.12890625 35.015625 -2.37890625 32.328125 C-3.01828125 32.18375 -3.65765625 32.039375 -4.31640625 31.890625 C-6.37890625 31.328125 -6.37890625 31.328125 -7.37890625 30.328125 C-7.66082675 25.87634395 -7.6107407 21.41276692 -7.62890625 16.953125 C-7.64953125 15.695 -7.67015625 14.436875 -7.69140625 13.140625 C-7.6965625 11.93664062 -7.70171875 10.73265625 -7.70703125 9.4921875 C-7.71637695 8.38311035 -7.72572266 7.2740332 -7.73535156 6.13134766 C-7.37890625 3.328125 -7.37890625 3.328125 -6.13208008 1.46337891 C-3.93022697 0.03758626 -2.61269007 -0.03181191 0 0 Z M25.62109375 9.328125 C25.62109375 9.658125 25.62109375 9.988125 25.62109375 10.328125 C64.89109375 10.328125 104.16109375 10.328125 144.62109375 10.328125 C144.62109375 9.998125 144.62109375 9.668125 144.62109375 9.328125 C105.35109375 9.328125 66.08109375 9.328125 25.62109375 9.328125 Z " fill="#0B100F" transform="translate(27.37890625,38.671875)"/>
<path d="M0 0 C1.0209375 0.928125 1.0209375 0.928125 2.0625 1.875 C8.19770204 6.31323126 15.61673939 7.09107008 23 6 C25.34757104 4.89367342 27.2835868 3.66506092 29.34375 2.09375 C31 1 31 1 34 1 C35.17449327 1.79242919 36.31718696 2.63266087 37.4375 3.5 C42.7052141 6.89539583 47.91229408 7.08007686 54 6 C56.3525198 4.8237401 58.25957748 3.57429761 60.28125 1.8984375 C61.13203125 1.45371094 61.13203125 1.45371094 62 1 C64.40910724 1.87562655 66.18673937 3.12617525 68.3125 4.5625 C71.54177723 6.28978782 74.37956857 6.64505574 78 7 C78 7.99 78 8.98 78 10 C78.66 10 79.32 10 80 10 C80 27.16 80 44.32 80 62 C66.8 62 53.6 62 40 62 C40 61.34 40 60.68 40 60 C39.01 60 38.02 60 37 60 C37 50.43 37 40.86 37 31 C31.74877015 31.11963539 26.49778141 31.24216547 21.24682617 31.37231445 C19.4591073 31.415727 17.67134526 31.45739729 15.88354492 31.49731445 C13.31936609 31.5548646 10.75540588 31.61860203 8.19140625 31.68359375 C7.3872377 31.70030624 6.58306915 31.71701874 5.75453186 31.73423767 C2.07330002 31.49220696 2.07330002 31.49220696 -1 33 C-1.15858842 35.14386657 -1.25129298 37.29266838 -1.31640625 39.44140625 C-1.35451416 40.61646729 -1.39262207 41.79152832 -1.43188477 43.00219727 C-1.47498779 44.50709717 -1.51809082 46.01199707 -1.5625 47.5625 C-1.706875 52.326875 -1.85125 57.09125 -2 62 C-15.2 62 -28.4 62 -42 62 C-42 61.34 -42 60.68 -42 60 C-42.99 60 -43.98 60 -45 60 C-45 42.51 -45 25.02 -45 7 C-42.03 6.34 -39.06 5.68 -36 5 C-34.845 4.195625 -33.69 3.39125 -32.5 2.5625 C-31.345 2.046875 -30.19 1.53125 -29 1 C-26.62096287 1.99429224 -24.6232642 3.33161181 -22.45703125 4.7265625 C-18.0804454 6.9948725 -13.77350547 6.90423231 -9 6 C-5.63468033 4.48695227 -2.61894728 2.61894728 0 0 Z " fill="#259B5B" transform="translate(84,78)"/>
<path d="M0 0 C2.9375 0.375 2.9375 0.375 6 1 C6.33 1.66 6.66 2.32 7 3 C7.91579315 3.00634791 7.91579315 3.00634791 8.85008717 3.01282406 C23.69729614 3.11607427 38.54445841 3.22470358 53.39158344 3.33933926 C60.57150456 3.39464584 67.75143065 3.44812363 74.93139648 3.49731445 C81.188566 3.5401877 87.44569931 3.58647363 93.70281285 3.63687855 C97.01669656 3.66345419 100.33057242 3.6877977 103.64449501 3.70907402 C107.34157964 3.73309978 111.03856847 3.76315705 114.7355957 3.79467773 C115.83754776 3.8004332 116.93949982 3.80618866 118.07484436 3.81211853 C119.08025269 3.82190735 120.08566101 3.83169617 121.12153625 3.84178162 C121.9963178 3.84823417 122.87109934 3.85468672 123.77238941 3.8613348 C126 4 126 4 129 5 C129 10.28 129 15.56 129 21 C81.48 21 33.96 21 -15 21 C-16.13130884 17.60607349 -16.1329194 14.94665128 -16.125 11.375 C-16.12886719 9.62316406 -16.12886719 9.62316406 -16.1328125 7.8359375 C-16 5 -16 5 -15 4 C-12.64686445 3.92728259 -10.29166332 3.91629132 -7.9375 3.9375 C-6.64714844 3.94652344 -5.35679688 3.95554688 -4.02734375 3.96484375 C-3.02832031 3.97644531 -2.02929688 3.98804688 -1 4 C-0.67 2.68 -0.34 1.36 0 0 Z " fill="#209A58" transform="translate(46,45)"/>
<path d="M0 0 C1.03688965 0.01047363 2.0737793 0.02094727 3.14208984 0.03173828 C4.15223145 0.0367334 5.16237305 0.04172852 6.203125 0.046875 C7.49009277 0.06508301 8.77706055 0.08329102 10.10302734 0.10205078 C14.18677734 0.14330078 18.27052734 0.18455078 22.47802734 0.22705078 C22.47802734 9.13705078 22.47802734 18.04705078 22.47802734 27.22705078 C19.81624514 28.55794188 17.79063338 28.33974071 14.81396484 28.32470703 C13.69248047 28.32148438 12.57099609 28.31826172 11.41552734 28.31494141 C10.23990234 28.3065625 9.06427734 28.29818359 7.85302734 28.28955078 C6.66966797 28.28503906 5.48630859 28.28052734 4.26708984 28.27587891 C1.33735228 28.26406545 -1.59228538 28.24759336 -4.52197266 28.22705078 C-4.57981107 23.93544031 -4.61551386 19.64392933 -4.64697266 15.35205078 C-4.66373047 14.12873047 -4.68048828 12.90541016 -4.69775391 11.64501953 C-4.70419922 10.47841797 -4.71064453 9.31181641 -4.71728516 8.10986328 C-4.72775879 7.0310791 -4.73823242 5.95229492 -4.74902344 4.84082031 C-4.43822855 1.26300308 -3.59330981 0.32350224 0 0 Z " fill="#0A0F0E" transform="translate(133.52197265625,99.77294921875)"/>
<path d="M0 0 C1.03688965 0.01047363 2.0737793 0.02094727 3.14208984 0.03173828 C4.15223145 0.0367334 5.16237305 0.04172852 6.203125 0.046875 C7.49009277 0.06508301 8.77706055 0.08329102 10.10302734 0.10205078 C14.18677734 0.14330078 18.27052734 0.18455078 22.47802734 0.22705078 C22.47802734 9.13705078 22.47802734 18.04705078 22.47802734 27.22705078 C20.00460566 28.46376162 18.33943423 28.35636897 15.57568359 28.35986328 C14.60308594 28.36115234 13.63048828 28.36244141 12.62841797 28.36376953 C11.60941406 28.35990234 10.59041016 28.35603516 9.54052734 28.35205078 C8.52539062 28.35591797 7.51025391 28.35978516 6.46435547 28.36376953 C5.00352539 28.36183594 5.00352539 28.36183594 3.51318359 28.35986328 C2.17332397 28.35817139 2.17332397 28.35817139 0.80639648 28.35644531 C-1.52197266 28.22705078 -1.52197266 28.22705078 -4.52197266 27.22705078 C-4.57981973 23.10210927 -4.61551673 18.97727134 -4.64697266 14.85205078 C-4.66373047 13.67642578 -4.68048828 12.50080078 -4.69775391 11.28955078 C-4.70419922 10.16806641 -4.71064453 9.04658203 -4.71728516 7.89111328 C-4.72775879 6.85422363 -4.73823242 5.81733398 -4.74902344 4.74902344 C-4.43139869 1.22099798 -3.52802546 0.31762475 0 0 Z " fill="#0B0F0E" transform="translate(51.52197265625,99.77294921875)"/>
<path d="M0 0 C3.3 0 6.6 0 10 0 C10 0.66 10 1.32 10 2 C10.66 2 11.32 2 12 2 C12 15.2 12 28.4 12 42 C9.03 42 6.06 42 3 42 C3 41.34 3 40.68 3 40 C2.01 40 1.02 40 0 40 C0 26.8 0 13.6 0 0 Z " fill="#239B5A" transform="translate(104,114)"/>
<path d="M0 0 C3.3 0 6.6 0 10 0 C10 0.66 10 1.32 10 2 C10.66 2 11.32 2 12 2 C12 15.2 12 28.4 12 42 C9.03 42 6.06 42 3 42 C3 41.34 3 40.68 3 40 C2.01 40 1.02 40 0 40 C0 26.8 0 13.6 0 0 Z " fill="#219A59" transform="translate(87,114)"/>
<path d="M0 0 C1.6874269 0.00015917 3.37485866 0.00585622 5.06225586 0.01586914 C6.39189613 0.01799156 6.39189613 0.01799156 7.74839783 0.02015686 C10.59133215 0.02577324 13.43418892 0.03832848 16.27709961 0.05102539 C18.19962452 0.05603828 20.12215065 0.06060155 22.04467773 0.06469727 C26.7680151 0.07574798 31.49129419 0.09302356 36.21459961 0.11352539 C36.21459961 1.10352539 36.21459961 2.09352539 36.21459961 3.11352539 C36.87459961 3.11352539 37.53459961 3.11352539 38.21459961 3.11352539 C38.21459961 5.75352539 38.21459961 8.39352539 38.21459961 11.11352539 C37.64950684 11.12810791 37.08441406 11.14269043 36.50219727 11.15771484 C33.94729942 11.23208597 31.39372463 11.32877781 28.83959961 11.42602539 C27.50541992 11.45986328 27.50541992 11.45986328 26.14428711 11.49438477 C24.86811523 11.54755859 24.86811523 11.54755859 23.56616211 11.60180664 C22.38787842 11.64108276 22.38787842 11.64108276 21.18579102 11.68115234 C18.81419805 11.96242136 18.81419805 11.96242136 17.21459961 15.11352539 C14.08959961 15.30102539 14.08959961 15.30102539 11.21459961 15.11352539 C10.88459961 14.12352539 10.55459961 13.13352539 10.21459961 12.11352539 C6.25459961 11.78352539 2.29459961 11.45352539 -1.78540039 11.11352539 C-1.78540039 10.45352539 -1.78540039 9.79352539 -1.78540039 9.11352539 C-2.77540039 8.78352539 -3.76540039 8.45352539 -4.78540039 8.11352539 C-4.82781762 5.78057764 -4.82632976 3.44649972 -4.78540039 1.11352539 C-3.78540039 0.11352539 -3.78540039 0.11352539 0 0 Z " fill="#219A59" transform="translate(125.785400390625,144.886474609375)"/>
<path d="M0 0 C1.64510941 0.00015915 3.29022379 0.00585551 4.93530273 0.01586914 C6.23164894 0.01799156 6.23164894 0.01799156 7.55418396 0.02015686 C10.32578941 0.025773 13.09731528 0.0383282 15.86889648 0.05102539 C17.74324428 0.05603831 19.61759334 0.06060158 21.49194336 0.06469727 C26.09679192 0.07574767 30.70158069 0.09302309 35.30639648 0.11352539 C35.80139648 1.59852539 35.80139648 1.59852539 36.30639648 3.11352539 C36.96639648 3.11352539 37.62639648 3.11352539 38.30639648 3.11352539 C38.30639648 5.75352539 38.30639648 8.39352539 38.30639648 11.11352539 C25.10639648 11.11352539 11.90639648 11.11352539 -1.69360352 11.11352539 C-1.69360352 10.45352539 -1.69360352 9.79352539 -1.69360352 9.11352539 C-2.68360352 8.78352539 -3.67360352 8.45352539 -4.69360352 8.11352539 C-4.73602075 5.78057764 -4.73453289 3.44649972 -4.69360352 1.11352539 C-3.69360352 0.11352539 -3.69360352 0.11352539 0 0 Z " fill="#219A59" transform="translate(43.693603515625,144.886474609375)"/>
<path d="M0 0 C4.95 0 9.9 0 15 0 C15.33 0.99 15.66 1.98 16 3 C16.66 3 17.32 3 18 3 C18 7.95 18 12.9 18 18 C12.72 18 7.44 18 2 18 C2 17.34 2 16.68 2 16 C1.34 16 0.68 16 0 16 C0 10.72 0 5.44 0 0 Z " fill="#219657" transform="translate(52,105)"/>
<path d="M0 0 C4.95 0 9.9 0 15 0 C15.33 0.99 15.66 1.98 16 3 C16.66 3 17.32 3 18 3 C18 7.95 18 12.9 18 18 C13.05 18 8.1 18 3 18 C3 17.34 3 16.68 3 16 C2.01 16 1.02 16 0 16 C0 10.72 0 5.44 0 0 Z " fill="#219757" transform="translate(134,105)"/>
<path d="M0 0 C0.99 0.99 1.98 1.98 3 3 C-2.10168414 7.37287212 -5.20815869 9 -12 9 C-12 25.5 -12 42 -12 59 C-12.99 59 -13.98 59 -15 59 C-15 41.51 -15 24.02 -15 6 C-12.03 5.34 -9.06 4.68 -6 4 C-2.54530761 2.03396503 -2.54530761 2.03396503 0 0 Z " fill="#E9EBE8" transform="translate(54,79)"/>
<path d="M0 0 C7.59 0 15.18 0 23 0 C23 0.66 23 1.32 23 2 C23.66 2 24.32 2 25 2 C24.64140507 4.59981323 24.24295456 5.76888314 22.31640625 7.6015625 C17.90932371 10.26216208 12.95219199 9.81459033 8 9 C3.912879 6.79711106 1.4704647 4.41139411 0 0 Z " fill="#299B5D" transform="translate(89,71)"/>
<path d="M0 0 C7.26 0 14.52 0 22 0 C22 0.66 22 1.32 22 2 C22.66 2 23.32 2 24 2 C22.52715424 6.66401159 22.52715424 6.66401159 20.22265625 8.1328125 C16.1748047 9.71211486 12.25440375 9.76344362 8 9 C4.02142221 6.7316382 1.4550109 4.36503271 0 0 Z " fill="#2F9D61" transform="translate(121,71)"/>
<path d="M0 0 C6.93 0 13.86 0 21 0 C21 0.66 21 1.32 21 2 C21.66 2 22.32 2 23 2 C22.63587639 4.63989617 22.24310905 5.77437295 20.26171875 7.61328125 C16.39360395 9.98492331 12.39499721 9.53961194 8 9 C4.875 7.625 4.875 7.625 3 6 C3 5.34 3 4.68 3 4 C2.34 4 1.68 4 1 4 C0.67 2.68 0.34 1.36 0 0 Z " fill="#2F9D61" transform="translate(59,71)"/>
<path d="M0 0 C3.3 0 6.6 0 10 0 C10 0.99 10 1.98 10 3 C7.69 3 5.38 3 3 3 C3 14.88 3 26.76 3 39 C2.01 39 1.02 39 0 39 C0 26.13 0 13.26 0 0 Z " fill="#D7E7DC" transform="translate(87,114)"/>
<path d="M0 0 C1.6874269 0.00015917 3.37485866 0.00585622 5.06225586 0.01586914 C6.39189613 0.01799156 6.39189613 0.01799156 7.74839783 0.02015686 C10.59133215 0.02577324 13.43418892 0.03832848 16.27709961 0.05102539 C18.19962452 0.05603828 20.12215065 0.06060155 22.04467773 0.06469727 C26.7680151 0.07574798 31.49129419 0.09302356 36.21459961 0.11352539 C36.21459961 1.10352539 36.21459961 2.09352539 36.21459961 3.11352539 C23.67459961 3.11352539 11.13459961 3.11352539 -1.78540039 3.11352539 C-1.78540039 4.76352539 -1.78540039 6.41352539 -1.78540039 8.11352539 C-2.77540039 8.11352539 -3.76540039 8.11352539 -4.78540039 8.11352539 C-4.82781762 5.78057764 -4.82632976 3.44649972 -4.78540039 1.11352539 C-3.78540039 0.11352539 -3.78540039 0.11352539 0 0 Z " fill="#E7E7E5" transform="translate(125.785400390625,144.886474609375)"/>
<path d="M0 0 C1.64510941 0.00015915 3.29022379 0.00585551 4.93530273 0.01586914 C6.23164894 0.01799156 6.23164894 0.01799156 7.55418396 0.02015686 C10.32578941 0.025773 13.09731528 0.0383282 15.86889648 0.05102539 C17.74324428 0.05603831 19.61759334 0.06060158 21.49194336 0.06469727 C26.09679192 0.07574767 30.70158069 0.09302309 35.30639648 0.11352539 C35.80139648 1.59852539 35.80139648 1.59852539 36.30639648 3.11352539 C23.76639648 3.11352539 11.22639648 3.11352539 -1.69360352 3.11352539 C-1.69360352 4.76352539 -1.69360352 6.41352539 -1.69360352 8.11352539 C-2.68360352 8.11352539 -3.67360352 8.11352539 -4.69360352 8.11352539 C-4.73602075 5.78057764 -4.73453289 3.44649972 -4.69360352 1.11352539 C-3.69360352 0.11352539 -3.69360352 0.11352539 0 0 Z " fill="#E8E8E5" transform="translate(43.693603515625,144.886474609375)"/>
<path d="M0 0 C3.3 0 6.6 0 10 0 C10 0.66 10 1.32 10 2 C8.02 2.33 6.04 2.66 4 3 C3.67 14.88 3.34 26.76 3 39 C2.01 39 1.02 39 0 39 C0 26.13 0 13.26 0 0 Z " fill="#E6E7E4" transform="translate(104,114)"/>
<path d="M0 0 C5.61 0 11.22 0 17 0 C17 0.66 17 1.32 17 2 C17.66 2 18.32 2 19 2 C18.6875 4.375 18.6875 4.375 18 7 C14.30390328 9.46406448 11.28972609 9.67864807 7 9 C2.5647991 6.39672991 1.9876325 4.96908126 0 0 Z " fill="#2B9A5E" transform="translate(33,71)"/>
<path d="M0 0 C5.28 0 10.56 0 16 0 C16 0.66 16 1.32 16 2 C16.99 2.33 17.98 2.66 19 3 C16.25 7.875 16.25 7.875 14 9 C7.1957653 9.79382738 7.1957653 9.79382738 4.140625 7.765625 C2.55236339 6.23786859 1.19176464 4.85536086 0 3 C0 2.01 0 1.02 0 0 Z " fill="#2E9D61" transform="translate(152,71)"/>
<path d="M0 0 C0.66 0.33 1.32 0.66 2 1 C2.02886338 5.47915328 2.04675187 9.95828291 2.0625 14.4375 C2.07087891 15.71689453 2.07925781 16.99628906 2.08789062 18.31445312 C2.09272461 20.13686523 2.09272461 20.13686523 2.09765625 21.99609375 C2.10551147 23.68496704 2.10551147 23.68496704 2.11352539 25.40795898 C2 28 2 28 1 29 C-1.07262076 29.08767112 -3.14820294 29.10695873 -5.22265625 29.09765625 C-6.48271484 29.09443359 -7.74277344 29.09121094 -9.04101562 29.08789062 C-10.38151109 29.07953403 -11.72200588 29.07106907 -13.0625 29.0625 C-14.40689942 29.0574866 -15.7513006 29.05292342 -17.09570312 29.04882812 C-20.39717941 29.03699488 -23.69856803 29.02050971 -27 29 C-27 28.34 -27 27.68 -27 27 C-18.42 26.67 -9.84 26.34 -1 26 C-0.67 17.42 -0.34 8.84 0 0 Z " fill="#FAFBF8" transform="translate(157,101)"/>
<path d="M0 0 C0.66 0.33 1.32 0.66 2 1 C2.02886338 5.47915328 2.04675187 9.95828291 2.0625 14.4375 C2.07087891 15.71689453 2.07925781 16.99628906 2.08789062 18.31445312 C2.09272461 20.13686523 2.09272461 20.13686523 2.09765625 21.99609375 C2.10551147 23.68496704 2.10551147 23.68496704 2.11352539 25.40795898 C2 28 2 28 1 29 C-1.07262076 29.08767112 -3.14820294 29.10695873 -5.22265625 29.09765625 C-6.48271484 29.09443359 -7.74277344 29.09121094 -9.04101562 29.08789062 C-10.38151109 29.07953403 -11.72200588 29.07106907 -13.0625 29.0625 C-14.40689942 29.0574866 -15.7513006 29.05292342 -17.09570312 29.04882812 C-20.39717941 29.03699488 -23.69856803 29.02050971 -27 29 C-27 28.34 -27 27.68 -27 27 C-18.42 26.67 -9.84 26.34 -1 26 C-0.67 17.42 -0.34 8.84 0 0 Z " fill="#FAFBF7" transform="translate(75,101)"/>
<path d="M0 0 C0.99 0.99 1.98 1.98 3 3 C-1.00358201 7.34674618 -3.951187 9.68403957 -9.90234375 10.30078125 C-20.24590164 10.34071777 -20.24590164 10.34071777 -25 7 C-25.33 6.34 -25.66 5.68 -26 5 C-24.8553125 5.2475 -24.8553125 5.2475 -23.6875 5.5 C-15.54188718 6.60448987 -9.36604439 7.13771752 -2.4609375 2.19140625 C-1.03950434 1.07320413 -1.03950434 1.07320413 0 0 Z " fill="#F0F3EF" transform="translate(116,78)"/>
<path d="M0 0 C0.99 0.99 1.98 1.98 3 3 C-0.90535612 7.24010093 -3.86189326 9.60195106 -9.6484375 10.3359375 C-16.03758014 10.42747249 -19.76770471 9.72074331 -25 6 C-24.34 5.67 -23.68 5.34 -23 5 C-22.01 5.33 -21.02 5.66 -20 6 C-13.04767351 6.78620817 -8.20407368 6.30536707 -2.4609375 2.19140625 C-1.03950434 1.07320413 -1.03950434 1.07320413 0 0 Z " fill="#EDF3ED" transform="translate(84,78)"/>
<path d="M0 0 C0.99 0.33 1.98 0.66 3 1 C3 10.24 3 19.48 3 29 C2.01 29 1.02 29 0 29 C0 19.43 0 9.86 0 0 Z " fill="#E4E6E3" transform="translate(121,109)"/>
<path d="M0 0 C4.95 0 9.9 0 15 0 C15 0.99 15 1.98 15 3 C11.04 3 7.08 3 3 3 C3 6.96 3 10.92 3 15 C2.01 15 1.02 15 0 15 C0 10.05 0 5.1 0 0 Z " fill="#E9EDE8" transform="translate(134,105)"/>
<path d="M0 0 C4.95 0 9.9 0 15 0 C15 0.99 15 1.98 15 3 C11.04 3 7.08 3 3 3 C3 6.96 3 10.92 3 15 C2.01 15 1.02 15 0 15 C0 10.05 0 5.1 0 0 Z " fill="#E4ECE5" transform="translate(52,105)"/>
<path d="M0 0 C0.99 0.33 1.98 0.66 3 1 C3 1.99 3 2.98 3 4 C-3.69916299 7.99373178 -9.06761344 10.02482175 -17 9 C-19.61584521 7.9068822 -21.63808299 6.60811371 -24 5 C-23.34 4.67 -22.68 4.34 -22 4 C-21.34 4.33 -20.68 4.66 -20 5 C-12.75094092 5.7806679 -7.44165583 5.6149914 -1.62109375 0.99609375 C-1.08613281 0.66738281 -0.55117187 0.33867188 0 0 Z " fill="#EEF2ED" transform="translate(146,79)"/>
<path d="M0 0 C3.3 0 6.6 0 10 0 C10 0.99 10 1.98 10 3 C7.36 3 4.72 3 2 3 C2 10.26 2 17.52 2 25 C1.67 25 1.34 25 1 25 C0.17463655 19.28094617 -0.12753701 13.7732851 -0.0625 8 C-0.05798828 7.22527344 -0.05347656 6.45054688 -0.04882812 5.65234375 C-0.03719758 3.76819476 -0.01926906 1.88408635 0 0 Z " fill="#F0F6F0" transform="translate(87,114)"/>
<path d="M0 0 C7.59 0 15.18 0 23 0 C22.67 0.66 22.34 1.32 22 2 C15.73 2 9.46 2 3 2 C2.67 2.66 2.34 3.32 2 4 C1.34 2.68 0.68 1.36 0 0 Z " fill="#F9FAF6" transform="translate(89,71)"/>
<path d="M0 0 C7.26 0 14.52 0 22 0 C21.67 0.66 21.34 1.32 21 2 C14.4 2.33 7.8 2.66 1 3 C0.67 2.01 0.34 1.02 0 0 Z " fill="#F7F7F4" transform="translate(121,71)"/>
<path d="M0 0 C6.93 0 13.86 0 21 0 C20.67 0.66 20.34 1.32 20 2 C10.595 2.495 10.595 2.495 1 3 C0.67 2.01 0.34 1.02 0 0 Z " fill="#FCFCF9" transform="translate(59,71)"/>
<path d="M0 0 C5.28 0 10.56 0 16 0 C16 0.66 16 1.32 16 2 C11.38 2 6.76 2 2 2 C1.67 2.66 1.34 3.32 1 4 C0.67 2.68 0.34 1.36 0 0 Z " fill="#F9FAF7" transform="translate(152,71)"/>
<path d="M0 0 C5.61 0 11.22 0 17 0 C16.67 0.66 16.34 1.32 16 2 C11.71 2 7.42 2 3 2 C2.67 2.66 2.34 3.32 2 4 C1.34 2.68 0.68 1.36 0 0 Z " fill="#FAFAF7" transform="translate(33,71)"/>
<path d="M0 0 C4.29 0.66 8.58 1.32 13 2 C13 2.33 13 2.66 13 3 C15.97 3.495 15.97 3.495 19 4 C19 4.33 19 4.66 19 5 C6.07294779 5.56477413 6.07294779 5.56477413 1 2 C0.67 1.34 0.34 0.68 0 0 Z " fill="#CBDDD1" transform="translate(90,83)"/>
<path d="M0 0 C2.97 0 5.94 0 9 0 C9 0.66 9 1.32 9 2 C8.05125 2.103125 7.1025 2.20625 6.125 2.3125 C2.70892499 2.68539295 2.70892499 2.68539295 1 6 C0.67 4.02 0.34 2.04 0 0 Z " fill="#F4F9F3" transform="translate(105,114)"/>
<path d="M0 0 C5.94 0.99 5.94 0.99 12 2 C11.67 2.99 11.34 3.98 11 5 C6.62886504 4.49172849 3.61004338 3.54826592 0 1 C0 0.67 0 0.34 0 0 Z " fill="#D8E5DB" transform="translate(59,83)"/>
<path d="M0 0 C3.63 0.66 7.26 1.32 11 2 C11 2.99 11 3.98 11 5 C6.62886504 4.49172849 3.61004338 3.54826592 0 1 C0 0.67 0 0.34 0 0 Z " fill="#DDEBE1" transform="translate(151,83)"/>
<path d="M0 0 C3.63 0.66 7.26 1.32 11 2 C11 2.99 11 3.98 11 5 C6.62886504 4.49172849 3.61004338 3.54826592 0 1 C0 0.67 0 0.34 0 0 Z " fill="#D9E6DC" transform="translate(122,83)"/>
</svg>
