<svg id="Layer_1" enable-background="new 0 0 512 512" height="512" viewBox="0 0 512 512" width="512" xmlns="http://www.w3.org/2000/svg"><g><g><g><path d="m302.91 37.286-159.38 106.254v224.934l159.38 106.254c18.381 12.252 33.42 4.205 33.42-17.886v-401.669c0-22.09-15.039-30.141-33.42-17.887z" fill="#c5e1e6"/></g><g><path d="m55.163 143.54c-22.091 0-40.166 18.076-40.166 40.168v144.6c0 22.092 18.075 40.166 40.166 40.166h88.367v-224.934z" fill="#ffd400"/></g></g><g><path d="m400.6 273.133c-8.284 0-15 6.717-15 15 0 8.285 6.716 15 15 15 25.989 0 47.134-21.143 47.134-47.133 0-25.989-21.145-47.133-47.134-47.133-8.284 0-15 6.715-15 15 0 8.283 6.716 15 15 15 9.448 0 17.134 7.686 17.134 17.133s-7.686 17.133-17.134 17.133z"/><path d="m400.6 144.6c-8.284 0-15 6.717-15 15 0 8.285 6.716 15 15 15 44.884 0 81.4 36.517 81.4 81.4 0 44.885-36.517 81.4-81.4 81.4-8.284 0-15 6.715-15 15 0 8.283 6.716 15 15 15 61.427 0 111.4-49.975 111.4-111.4s-49.974-111.4-111.4-111.4z"/><path d="m319.026 16.548c-8 0-16.221 2.776-24.434 8.251l-155.6 103.734h-83.826c-30.418 0-55.166 24.748-55.166 55.168v144.6c0 30.419 24.748 55.166 55.166 55.166h83.825l155.602 103.734c8.212 5.475 16.432 8.25 24.433 8.251h.003c9.882 0 18.574-4.3 24.478-12.106 5.12-6.771 7.827-15.939 7.827-26.512v-401.668c-.001-26.678-16.228-38.618-32.308-38.618zm-289.026 311.753v-144.6c0-13.877 11.29-25.168 25.166-25.168h73.367v194.934h-73.367c-13.876 0-25.166-11.289-25.166-25.166zm291.333 128.533c0 5.699-1.431 8.141-1.896 8.587-.065.013-.196.031-.408.031-.001 0-.001 0-.001 0-.698 0-3.323-.231-7.795-3.213l-152.7-101.8v-208.877l152.7-101.801c4.472-2.981 7.096-3.213 7.793-3.213.213 0 .344.019.409.031.465.444 1.897 2.884 1.897 8.587v401.668z"/></g></g></svg>