<?xml version="1.0" encoding="iso-8859-1"?>
<!-- Generator: Adobe Illustrator 27.2.0, SVG Export Plug-In . SVG Version: 6.00 Build 0)  -->
<svg version="1.1" id="Capa_1" xmlns="http://www.w3.org/2000/svg" xmlns:xlink="http://www.w3.org/1999/xlink" x="0px" y="0px"
	 viewBox="0 0 509.536 509.536" style="enable-background:new 0 0 509.536 509.536;" xml:space="preserve">
<g>
	<g>
		<g>
			<path style="fill:#FFFFFF;" d="M77.026,360.258c-7.819,37.075-33.239,67.594-67.032,82.262l-0.002,0.002
				c16.764,19.276,41.38,31.448,68.818,31.448c28.037,0,53.127-12.709,69.903-32.719c36.08,24.932,79.756,39.519,126.813,39.519
				c123.969,0,224.466-101.242,224.466-226.131S399.495,28.508,275.526,28.508S51.06,129.75,51.06,254.639
				c0,38.155,9.38,74.103,25.944,105.631L77.026,360.258z"/>
			<path style="fill:#FFFFFF;" d="M275.526,482.27c-45.399,0-89.126-13.487-126.547-39.018
				c-17.69,20.493-43.185,32.218-70.169,32.218c-26.788,0-52.284-11.65-69.949-31.964l-1.025-1.18l1.376-1.101l0.186-0.082
				c33.624-14.595,58.275-44.708,66.04-80.631C58.506,328.104,49.56,291.506,49.56,254.639c0-60.8,23.503-117.962,66.18-160.955
				c42.68-42.997,99.426-66.676,159.786-66.676s117.106,23.679,159.786,66.676c42.677,42.993,66.18,100.154,66.18,160.955
				s-23.503,117.962-66.18,160.955C392.632,458.591,335.886,482.27,275.526,482.27z M148.441,439.239l1.124,0.776
				c37.164,25.681,80.72,39.254,125.961,39.254c122.944,0,222.966-100.769,222.966-224.631S398.47,30.008,275.526,30.008
				S52.56,130.777,52.56,254.639c0,36.053,8.667,71.842,25.08,103.606l1.487-0.775l-0.633,3.098
				c-7.687,36.445-32.294,67.136-66.018,82.49c17.03,18.718,41.089,29.412,66.333,29.412c26.547,0,51.606-11.73,68.754-32.184
				L148.441,439.239z"/>
		</g>
		<path style="fill:#D2DCFD;" d="M153.354,262.064c0-93.742,42.534-177.542,109.345-233.181
			C144.7,35.582,51.06,134.088,51.06,254.639c0,38.155,9.38,74.103,25.944,105.631l0.022-0.012
			c-7.819,37.075-33.239,67.594-67.032,82.262l-0.002,0.002c16.764,19.276,41.38,31.448,68.818,31.448
			c28.037,0,53.127-12.709,69.903-32.719c27.953,19.315,60.467,32.416,95.578,37.341
			C188.179,423.546,153.354,346.878,153.354,262.064z"/>
		<circle style="fill:#B1D952;" cx="275.526" cy="254.639" r="146.75"/>
	</g>
	<g>
		<path style="fill:#052A75;" d="M275.526,411.389c-86.432,0-156.75-70.317-156.75-156.75s70.317-156.75,156.75-156.75
			s156.75,70.317,156.75,156.75S361.958,411.389,275.526,411.389z M275.526,117.889c-75.404,0-136.75,61.346-136.75,136.75
			s61.346,136.75,136.75,136.75c75.404,0,136.75-61.346,136.75-136.75S350.93,117.889,275.526,117.889z"/>
		<g>
			<path style="fill:#052A75;" d="M441.345,87.695c-87.29-91.636-244.351-91.641-331.637,0.003
				C38.329,157.619,20.63,272.971,66.464,361.585c-7.852,31.983-30.238,58.648-60.456,71.764c-1.826,0.808-3.404,2.148-4.466,3.828
				c-1.383,2.185-1.865,4.896-1.33,7.424c0.335,1.626,1.144,3.197,2.233,4.483c37.08,44.04,107.92,46.505,147.852,5.219
				c89.647,58.817,216.531,44.813,291.046-32.722C532.264,333.703,532.269,175.574,441.345,87.695z M275.526,470.77
				c-43.515,0.001-85.407-13.06-121.15-37.759c-1.243-0.845-2.667-1.429-4.157-1.637c-2.822-0.457-5.834,0.396-7.993,2.278
				c-28.093,34.95-81.141,40.62-115.306,11.494c30.526-17.721,52.502-47.791,59.891-82.824c0.53-2.513,0.056-4.999-1.136-7.06
				C10.33,214.22,115.632,37.117,275.528,38.509C560.023,50.35,559.966,458.959,275.526,470.77z"/>
			<path style="fill:#052A75;" d="M224.696,230.74c-5.523,0-10-4.478-10-10v-8.456c0-5.523,4.477-10,10-10c5.523,0,10,4.477,10,10
				v8.456C234.696,226.263,230.219,230.74,224.696,230.74z"/>
			<path style="fill:#052A75;" d="M326.356,230.74c-5.523,0-10-4.478-10-10v-8.456c0-5.523,4.477-10,10-10c5.523,0,10,4.477,10,10
				v8.456C336.356,226.263,331.879,230.74,326.356,230.74z"/>
			<path style="fill:#052A75;" d="M288.005,327.325h-24.958c-26.661,0-48.351-21.69-48.351-48.351c0-5.522,4.477-10,10-10
				c5.523,0,10,4.478,10,10c0,15.633,12.718,28.351,28.351,28.351h24.958c15.633,0,28.351-12.718,28.351-28.351
				c0-5.522,4.477-10,10-10c5.523,0,10,4.478,10,10C336.356,305.635,314.666,327.325,288.005,327.325z"/>
		</g>
	</g>
</g>
<g>
</g>
<g>
</g>
<g>
</g>
<g>
</g>
<g>
</g>
<g>
</g>
<g>
</g>
<g>
</g>
<g>
</g>
<g>
</g>
<g>
</g>
<g>
</g>
<g>
</g>
<g>
</g>
<g>
</g>
</svg>
