<svg id="a" viewBox="0 0 64 64" xmlns="http://www.w3.org/2000/svg"><path d="m38 22.40233h-30c-3.30859 0-6 2.69141-6 6v18c0 3.30859 2.69141 6 6 6h11.23926c.87582 3.74688 4.64052 6.20897 8.40921 6.19529.93429-.07645 2.60697.08484 2.66212-1.2011-.00492-.46685-.3311-.86821-.78715-.96782-1.60251-.32853-2.85657-2.32068-2.49707-4.02637h10.97363c3.30859 0 6-2.69141 6-6v-18c0-3.30859-2.69141-6-6-6zm-7.19336 16.00488c0 .55273-.44727 1-1 1h-2c-.55273 0-1-.44727-1-1s.44727-1 1-1h2c.55273 0 1 .44727 1 1zm-7 1h-2c-1.31399-.02156-1.31487-1.97838.00004-2-.00004 0 1.99996 0 1.99996 0 1.31399.02156 1.31487 1.97838 0 2zm-5-1c0 .55273-.44727 1-1 1h-2c-.55273 0-1-.44727-1-1s.44727-1 1-1h2c.55273 0 1 .44727 1 1zm-6 0c0 .55273-.44727 1-1 1h-2c-.55273 0-1-.44727-1-1s.44727-1 1-1h2c.55273 0 1 .44727 1 1z" fill="#0e5952"/><path d="m56 5.40233h-30c-3.30859 0-6 2.69141-6 6v18c0 3.30859 2.69141 6 6 6h10.97363c.35945 1.70625-.89539 3.69793-2.4971 4.02635-.45602.09962-.78219.50099-.78708.96779.05488 1.28696 1.72883 1.12331 2.66207 1.20123 3.76909.01359 7.53417-2.44843 8.40922-6.19537h11.23926c3.30859 0 6-2.69141 6-6v-18c0-3.30859-2.69141-6-6-6z" fill="#f2be22"/><g fill="#0e5952"><path d="m47.41504 52.28807c-.82634.02564-2.03924-.03368-1.94431-1.15729.05759-.54876.54294-.95111 1.10056-.88763 6.1095.76338 10.83711-5.98715 8.02231-11.47567-.55863-1.18382 1.19979-2.05448 1.79704-.87878 3.32618 6.42166-1.77124 14.54667-8.9756 14.39937z"/><path d="m59.0459 42.041c-.21094 0-.4248-.06641-.60547-.20508l-3.55469-2.71289c-.43945-.33496-.52344-.96289-.18848-1.40137s.96289-.52539 1.40137-.18848l3.55469 2.71289c.76499.54137.31091 1.82993-.60742 1.79492z"/><path d="m53.67578 42.44334c-.74619.01879-1.26072-.86203-.86325-1.50392-.00003 0 1.8154-3.11523 1.8154-3.11523.6825-1.12171 2.37002-.14104 1.72849 1.00785.00002-.00004-1.81541 3.1152-1.81541 3.1152-.18652.31836-.52148.49609-.86523.49609z"/><path d="m7.3623 21.29881c-.4209 0-.81152-.2666-.9502-.6875-1.7207-5.23926 1.13965-10.90137 6.37793-12.62305 1.23413-.48456 6.65914-1.20029 6.25788 1.00479-.13386.53623-.67878.85654-1.21199.72959-5.94966-1.59249-11.55647 4.43838-9.5233 10.26378.21988.63181-.28441 1.32382-.95033 1.31239z"/><path d="m7.3623 21.29881c-.25684 0-.51465-.09863-.70996-.2959l-3.14941-3.17578c-.91575-.93152.49371-2.33342 1.41996-1.40816-.00004-.00005 3.14937 3.17573 3.14937 3.17573.63316.59578.14405 1.73416-.70996 1.7041z"/><path d="m7.36133 21.29881c-.80258.02486-1.30998-.99249-.7861-1.6172-.00004 0 2.22555-2.8369 2.22555-2.8369.81145-1.02611 2.37691.20171 1.57418 1.23442.00004-.00005-2.22554 2.83687-2.22554 2.83687-.19727.25195-.49121.38281-.78809.38281z"/><path d="m40 26.01561c-3.7287-.68131.51604-5.50452 2.21088-6.39153 2.92666-2.07014 1.03217-6.37489-2.46972-5.62213-1.38178.38866-2.42573 1.9785-2.23237 3.40233.23265 1.95524-2.67471 2.35626-2.97266.40228-.39257-2.89837 1.57715-5.90033 4.39258-6.6933 6.86488-1.60749 10.6924 7.09775 4.8593 11.06352-1.08293.6689-1.93059 1.69136-2.3886 2.87789-.22949.5957-.79785.96094-1.39941.96094z"/><path d="m39.91504 29.90233c-1.97054-.03157-1.98213-2.96377-.0097-3 1.97788.02198 1.98723 2.96545.0097 3z"/></g></svg>