<svg enable-background="new 0 0 64 64" height="64" viewBox="0 0 64 64" width="64" xmlns="http://www.w3.org/2000/svg"><g id="Layer_1"/><g id="Layer_2"/><g id="Layer_3"/><g id="Layer_4"/><g id="Layer_5"/><g id="Layer_6"/><g id="Layer_7"/><g id="Layer_8"/><g id="Layer_9"/><g id="Layer_10"/><g id="Layer_11"/><g id="Layer_12"/><g id="Layer_13"/><g id="Layer_14"/><g id="Layer_15"/><g id="Layer_16"/><g id="Layer_17"/><g id="Layer_18"/><g id="Layer_19"/><g id="Layer_20"/><g id="Layer_21"/><g id="Layer_22"/><g id="Layer_23"/><g id="Layer_24"/><g id="Layer_25"/><g id="Layer_26"/><g id="Layer_27"/><g id="Layer_28"/><g id="Layer_29"/><g id="Layer_30"/><g id="Layer_31"/><g id="Layer_32"/><g id="Layer_33"/><g id="Layer_34"/><g id="Layer_35"/><g id="Layer_36"/><g id="Layer_37"/><g id="Layer_38"/><g id="Layer_39"><g fill="#00aeef"><path d="m29.84 30.165v13.11c0 .58-.47 1.05-1.05 1.05h-1.319c-.58 0-1.051-.47-1.051-1.05v-7.96c-.4.25-.779.47-1.15.64-.299.14-.699.11-1-.08-.299-.19-.479-.52-.479-.88v-1.55c0-.39.2-.73.53-.92.64-.36 1.209-.81 1.67-1.33.46-.49.789-.98.97-1.43.181-.4.56-.65.97-.65h.86c.58 0 1.049.47 1.049 1.05z"/><path d="m39.949 33.535c-.18-.87-.439-1.61-.76-2.21-.381-.7-.859-1.25-1.439-1.62-.611-.39-1.311-.59-2.09-.59-1.061 0-1.961.36-2.679 1.07-.641.63-1.121 1.52-1.44 2.65-.28 1.03-.431 2.38-.431 4 0 2.68.41 4.6 1.24 5.88.791 1.22 1.91 1.84 3.31 1.84 1.07 0 1.969-.36 2.699-1.08.641-.64 1.121-1.53 1.439-2.65.271-1 .41-2.35.41-3.99.001-1.39-.079-2.47-.259-3.3zm-3.67 7.05c-.311.55-.539.55-.619.55-.201 0-.4-.18-.611-.54-.18-.3-.479-1.2-.479-3.76 0-2.66.379-3.6.549-3.88.23-.41.42-.41.531-.41.08 0 .318 0 .639.55.141.24.471 1.09.471 3.74 0 2.64-.33 3.5-.481 3.75z"/><path d="m45.209 48.385v4.28c0 .54-.459 1-1 1h-1.049c-.551 0-1-.45-1-1v-3.92c0-.32-.021-.48-.041-.55 0 .02-.029.02-.07.02-.199 0-.299.05-.389.14-.041.05-.131.26-.131.69v3.62c0 .54-.461 1-1 1h-1.061c-.549 0-1-.45-1-1v-4.05c0-.2-.02-.33-.039-.4-.09 0-.25.02-.35.08-.07.04-.111.1-.141.18s-.109.32-.109.96v3.23c0 .55-.451 1-1 1h-1.059c-.541 0-1-.46-1-1v-6.23c0-.54.459-1 1-1h.949c.191 0 .371.05.531.15.959-.43 2.238-.35 3.029.16.061.04.119.08.17.12.539-.38 1.15-.57 1.83-.57.891 0 1.619.28 2.15.82.52.53.78 1.3.78 2.27z"/><path d="m48.83 46.435v6.23c0 .55-.451 1-1 1h-1.051c-.551 0-1-.45-1-1v-6.23c0-.55.449-1 1-1h1.051c.549 0 1 .45 1 1z"/><path d="m48.83 43.075v1.21c0 .55-.451 1-1 1h-1.051c-.551 0-1-.45-1-1v-1.21c0-.56.439-1 1-1h1.051c.559 0 1 .44 1 1z"/><path d="m56.488 48.835v3.83c0 .55-.449 1-1 1h-1.049c-.551 0-1-.45-1-1v-3.79c0-.44-.061-.6-.061-.61-.199-.13-.549-.04-.74.13-.039.04-.15.28-.15.87v3.4c0 .55-.449 1-1 1h-1.049c-.551 0-1-.45-1-1v-6.23c0-.55.449-1 1-1h.949c.191 0 .381.06.531.16.859-.38 2-.39 2.879-.01.471.2.85.49 1.111.86.25.34.42.74.5 1.17.06.26.079.63.079 1.22z"/><path d="m43.38 15.46v-9.67c0-1.1-.899-2-2-2h-19.81c-1.1 0-2 .9-2 2v9.67c-7.2 4.13-12.06 11.9-12.06 20.79 0 13.21 10.75 23.96 23.96 23.96.92 0 1.69-.62 1.919-1.47.03-.12.061-.24.07-.37.01-.06.01-.13.01-.2v-5.34c0-1.1-.89-2-2-2-1.1 0-2 .9-2 2v3.28c-3.44-.34-6.63-1.57-9.34-3.44l2.64-2.64c.78-.78.78-2.05 0-2.83s-2.04-.78-2.82 0l-2.87 2.86c-2.96-3.08-4.94-7.1-5.44-11.56h4.5c1.1 0 2-.9 2-2s-.9-2-2-2h-4.55c.33-3.79 1.72-7.28 3.88-10.17l3.48 3.47c.39.39.9.59 1.41.59s1.02-.2 1.41-.59c.78-.78.78-2.05 0-2.83l-3.59-3.59c3.06-2.76 6.98-4.57 11.29-5v3.79c0 1.1.9 2 2 2 1.11 0 2-.9 2-2v-3.79c4.311.43 8.24 2.24 11.3 5l-3.6 3.59c-.78.78-.78 2.05 0 2.83.39.39.91.59 1.42.59s1.021-.2 1.41-.59l3.48-3.48c2.479 3.33 3.96 7.46 3.96 11.93 0 1.1.89 2 2 2 1.1 0 2-.9 2-2 .001-8.89-4.859-16.66-12.059-20.79zm-4-1.83c-2.479-.88-5.14-1.35-7.91-1.35-2.76 0-5.42.47-7.9 1.35v-5.84h15.81z"/></g><path d="m39.38 7.79v5.84c-2.479-.88-5.14-1.35-7.91-1.35-2.76 0-5.42.47-7.9 1.35v-5.84z" fill="#ffefa1"/></g><g id="Layer_40"/><g id="Layer_41"/><g id="Layer_42"/><g id="Layer_43"/><g id="Layer_44"/><g id="Layer_45"/><g id="Layer_46"/><g id="Layer_47"/><g id="Layer_48"/><g id="Layer_49"/></svg>