<svg enable-background="new 0 0 64 64" height="64" viewBox="0 0 64 64" width="64" xmlns="http://www.w3.org/2000/svg"><g id="Layer_1"/><g id="Layer_2"/><g id="Layer_3"/><g id="Layer_4"/><g id="Layer_5"/><g id="Layer_6"/><g id="Layer_7"/><g id="Layer_8"/><g id="Layer_9"/><g id="Layer_10"/><g id="Layer_11"/><g id="Layer_12"/><g id="Layer_13"/><g id="Layer_14"/><g id="Layer_15"/><g id="Layer_16"/><g id="Layer_17"/><g id="Layer_18"/><g id="Layer_19"/><g id="Layer_20"/><g id="Layer_21"/><g id="Layer_22"/><g id="Layer_23"/><g id="Layer_24"/><g id="Layer_25"/><g id="Layer_26"/><g id="Layer_27"/><g id="Layer_28"/><g id="Layer_29"/><g id="Layer_30"/><g id="Layer_31"/><g id="Layer_32"/><g id="Layer_33"/><g id="Layer_34"/><g id="Layer_35"/><g id="Layer_36"/><g id="Layer_37"/><g id="Layer_38"/><g id="Layer_39"/><g id="Layer_40"/><g id="Layer_41"><path d="m43.64 15.46v-9.67c0-1.1-.899-2-2-2h-19.81c-1.1 0-2 .9-2 2v9.67c-7.2 4.13-12.06 11.9-12.06 20.79 0 13.21 10.75 23.96 23.961 23.96.92 0 1.689-.62 1.92-1.47.029-.12.06-.24.069-.37.011-.06.011-.13.011-.2v-5.34c0-1.1-.891-2-2-2-1.101 0-2 .9-2 2v3.28c-3.44-.34-6.631-1.57-9.341-3.44l2.641-2.64c.779-.78.779-2.05 0-2.83-.78-.78-2.04-.78-2.82 0l-2.87 2.86c-2.96-3.08-4.939-7.1-5.439-11.56h4.5c1.1 0 2-.9 2-2s-.9-2-2-2h-4.552c.33-3.79 1.721-7.28 3.881-10.17l3.479 3.47c.39.39.9.59 1.41.59s1.02-.2 1.41-.59c.779-.78.779-2.05 0-2.83l-3.59-3.59c3.06-2.76 6.979-4.57 11.29-5v3.79c0 1.1.899 2 2 2 1.109 0 2-.9 2-2v-3.79c4.31.43 8.239 2.24 11.3 5l-3.601 3.59c-.779.78-.779 2.05 0 2.83.391.39.91.59 1.42.59.511 0 1.021-.2 1.41-.59l3.48-3.48c2.479 3.33 3.96 7.46 3.96 11.93 0 1.1.89 2 2 2 1.1 0 2-.9 2-2 .001-8.89-4.859-16.66-12.059-20.79zm-4-1.83c-2.479-.88-5.14-1.35-7.909-1.35-2.761 0-5.421.47-7.9 1.35v-5.84h15.81v5.84z" fill="#00aeef"/><path d="m39.64 7.79v5.84c-2.479-.88-5.14-1.35-7.909-1.35-2.761 0-5.421.47-7.9 1.35v-5.84z" fill="#ffefa1"/><g fill="#00aeef"><path d="m31.896 41.735v1.54c0 .58-.469 1.05-1.049 1.05h-7.102c-.568 0-1.029-.45-1.049-1.01-.01-.52.049-.99.199-1.47.211-.68.551-1.36 1.01-2.02.42-.62 1.051-1.33 1.85-2.13 1.33-1.32 1.932-2.12 2.211-2.55.301-.5.461-.98.461-1.39 0-.38-.102-.68-.311-.93-.18-.2-.371-.28-.66-.28-.33 0-.529.09-.721.31-.209.26-.33.7-.33 1.26 0 .31-.139.6-.369.79-.18.18-.5.29-.811.26l-1.359-.17c-.561-.08-.961-.57-.92-1.12.109-1.48.559-2.64 1.34-3.46.799-.86 1.879-1.3 3.199-1.3 1.33 0 2.42.47 3.24 1.4.76.89 1.15 1.99 1.15 3.28 0 .63-.109 1.26-.32 1.88-.209.61-.551 1.24-1.02 1.88-.451.6-1.141 1.39-2.121 2.4-.289.29-.52.53-.709.73h3.141c.581 0 1.05.47 1.05 1.05z"/><path d="m41.046 33.535c-.18-.87-.439-1.61-.77-2.21-.371-.7-.85-1.25-1.43-1.62-.611-.39-1.311-.59-2.092-.59-1.068 0-1.969.36-2.68 1.07-.639.63-1.129 1.52-1.439 2.65-.289 1.03-.43 2.38-.43 4 0 2.68.4 4.6 1.23 5.88.799 1.22 1.92 1.84 3.318 1.84 1.061 0 1.971-.36 2.691-1.08.639-.64 1.129-1.53 1.439-2.65.279-1 .42-2.35.42-3.99.003-1.39-.077-2.47-.257-3.3zm-3.67 7.05c-.32.55-.551.55-.621.55-.199 0-.408-.18-.619-.54-.17-.3-.471-1.2-.471-3.76 0-2.66.381-3.6.541-3.88.24-.41.43-.41.539-.41.08 0 .311 0 .631.55.15.24.48 1.09.48 3.74 0 2.64-.339 3.5-.48 3.75z"/><path d="m44.947 48.385v4.28c0 .54-.459 1-1 1h-1.049c-.551 0-1-.45-1-1v-3.92c0-.32-.021-.48-.041-.55 0 .02-.029.02-.07.02-.199 0-.299.05-.389.14-.041.05-.131.26-.131.69v3.62c0 .54-.461 1-1 1h-1.061c-.549 0-1-.45-1-1v-4.05c0-.2-.02-.33-.039-.4-.09 0-.25.02-.35.08-.07.04-.111.1-.141.18s-.109.32-.109.96v3.23c0 .55-.451 1-1 1h-1.061c-.541 0-1-.46-1-1v-6.23c0-.54.459-1 1-1h.949c.191 0 .371.05.531.15.959-.43 2.238-.35 3.029.16.061.04.119.08.17.12.539-.38 1.15-.57 1.83-.57.891 0 1.619.28 2.15.82.523.53.782 1.3.782 2.27z"/><path d="m48.568 46.435v6.23c0 .55-.451 1-1 1h-1.051c-.551 0-1-.45-1-1v-6.23c0-.55.449-1 1-1h1.051c.549 0 1 .45 1 1z"/><path d="m48.568 43.075v1.21c0 .55-.451 1-1 1h-1.051c-.551 0-1-.45-1-1v-1.21c0-.56.439-1 1-1h1.051c.559 0 1 .44 1 1z"/><path d="m56.227 48.835v3.83c0 .55-.449 1-1 1h-1.049c-.551 0-1-.45-1-1v-3.79c0-.44-.061-.6-.061-.61-.199-.13-.549-.04-.74.13-.039.04-.15.28-.15.87v3.4c0 .55-.449 1-1 1h-1.049c-.551 0-1-.45-1-1v-6.23c0-.55.449-1 1-1h.949c.191 0 .381.06.531.16.859-.38 2-.39 2.879-.01.471.2.85.49 1.111.86.25.34.42.74.5 1.17.059.26.079.63.079 1.22z"/></g></g><g id="Layer_42"/><g id="Layer_43"/><g id="Layer_44"/><g id="Layer_45"/><g id="Layer_46"/><g id="Layer_47"/><g id="Layer_48"/><g id="Layer_49"/></svg>