<svg enable-background="new 0 0 64 64" height="64" viewBox="0 0 64 64" width="64" xmlns="http://www.w3.org/2000/svg"><g id="Layer_1"/><g id="Layer_2"/><g id="Layer_3"/><g id="Layer_4"/><g id="Layer_5"/><g id="Layer_6"/><g id="Layer_7"/><g id="Layer_8"/><g id="Layer_9"/><g id="Layer_10"/><g id="Layer_11"/><g id="Layer_12"/><g id="Layer_13"/><g id="Layer_14"/><g id="Layer_15"/><g id="Layer_16"/><g id="Layer_17"/><g id="Layer_18"/><g id="Layer_19"/><g id="Layer_20"/><g id="Layer_21"/><g id="Layer_22"/><g id="Layer_23"/><g id="Layer_24"/><g id="Layer_25"/><g id="Layer_26"/><g id="Layer_27"/><g id="Layer_28"/><g id="Layer_29"/><g id="Layer_30"/><g id="Layer_31"/><g id="Layer_32"/><g id="Layer_33"/><g id="Layer_34"/><g id="Layer_35"/><g id="Layer_36"/><g id="Layer_37"/><g id="Layer_38"/><g id="Layer_39"/><g id="Layer_40"/><g id="Layer_41"/><g id="Layer_42"/><g id="Layer_43"><path d="m43.38 15.46v-9.67c0-1.1-.9-2-2-2h-19.81c-1.1 0-2 .9-2 2v9.67c-7.2 4.13-12.06 11.9-12.06 20.79 0 13.21 10.75 23.96 23.96 23.96.92 0 1.69-.62 1.92-1.47.03-.12.06-.24.07-.37.01-.06.01-.13.01-.2v-5.34c0-1.1-.89-2-2-2-1.1 0-2 .9-2 2v3.28c-3.44-.34-6.63-1.57-9.34-3.44l2.64-2.64c.78-.78.78-2.05 0-2.83s-2.04-.78-2.82 0l-2.87 2.86c-2.96-3.08-4.94-7.1-5.44-11.56h4.5c1.1 0 2-.9 2-2s-.9-2-2-2h-4.55c.33-3.79 1.72-7.28 3.88-10.17l3.48 3.47c.39.39.9.59 1.41.59s1.02-.2 1.41-.59c.78-.78.78-2.05 0-2.83l-3.59-3.59c3.06-2.76 6.98-4.57 11.29-5v3.79c0 1.1.9 2 2 2 1.11 0 2-.9 2-2v-3.79c4.31.43 8.24 2.24 11.3 5l-3.6 3.59c-.78.78-.78 2.05 0 2.83.39.39.91.59 1.42.59s1.02-.2 1.41-.59l3.48-3.48c2.48 3.33 3.96 7.46 3.96 11.93 0 1.1.89 2 2 2 1.1 0 2-.9 2-2 0-8.89-4.86-16.66-12.06-20.79zm-4-1.83c-2.48-.88-5.14-1.35-7.91-1.35-2.76 0-5.42.47-7.9 1.35v-5.84h15.81z" fill="#00aeef"/><path d="m39.38 7.79v5.84c-2.48-.88-5.14-1.35-7.91-1.35-2.76 0-5.42.47-7.9 1.35v-5.84z" fill="#ffefa1"/><g fill="#00aeef"><path d="m31.912 39.425c0 1.39-.43 2.59-1.28 3.59-.87 1.01-2.04 1.55-3.39 1.55-1.24 0-2.29-.46-3.12-1.37-.78-.86-1.23-1.96-1.34-3.28-.04-.55.34-1.03.87-1.12l1.33-.21c.03-.01.15-.02.17-.02.52 0 .95.37 1.03.88.16.88.37 1.27.52 1.43.17.18.33.26.55.26.3 0 .52-.12.76-.41.27-.33.4-.74.4-1.27 0-.5-.11-.86-.35-1.15-.2-.24-.41-.34-.7-.34-.05 0-.23.01-.6.13-.42.12-.72.04-.99-.18-.28-.24-.42-.59-.39-.93l.15-1.4c.02-.28.17-.55.41-.73.16-.13.4-.21.64-.21h.14c.37.03.66-.09.93-.3.12-.09.28-.27.28-.82 0-.34-.08-.58-.24-.77-.25-.3-.7-.29-.95.01-.21.23-.35.65-.41 1.2-.04.3-.2.56-.45.73-.23.16-.54.23-.82.17l-1.31-.28c-.56-.13-.9-.64-.83-1.18.2-1.29.67-2.33 1.39-3.09.78-.8 1.74-1.2 2.88-1.2.79 0 1.52.21 2.17.62.66.4 1.17.97 1.53 1.68.33.66.5 1.39.5 2.15 0 .73-.17 1.42-.5 2.04-.08.14-.17.28-.27.42.23.21.43.46.61.74.45.7.68 1.6.68 2.66z"/><path d="m40.961 33.525c-.19-.86-.45-1.6-.77-2.2-.37-.7-.84-1.23-1.44-1.62s-1.3-.59-2.08-.59c-1.07 0-1.98.36-2.69 1.07-.65.64-1.13 1.53-1.43 2.64-.29 1-.43 2.35-.43 4.01 0 2.69.4 4.62 1.23 5.88.78 1.2 1.92 1.84 3.32 1.84 1.05 0 1.98-.37 2.7-1.08.64-.66 1.12-1.55 1.42-2.65.29-1.04.43-2.38.43-3.99.001-1.33-.09-2.43-.26-3.31zm-3.669 7.06c-.15.25-.37.55-.62.55-.07 0-.3 0-.62-.54-.14-.25-.48-1.12-.48-3.76 0-2.66.38-3.6.54-3.88.24-.41.44-.41.54-.41.08 0 .32 0 .64.55.14.23.47 1.07.47 3.74-.001 2.65-.33 3.5-.47 3.75z"/><path d="m45.209 48.385v4.28c0 .54-.46 1-1 1h-1.05c-.551 0-1-.45-1-1v-3.92c0-.32-.021-.48-.04-.55 0 .02-.03.02-.07.02-.2 0-.3.05-.39.14-.04.05-.131.26-.131.69v3.62c0 .54-.46 1-1 1h-1.06c-.55 0-1-.45-1-1v-4.05c0-.2-.021-.33-.04-.4-.09 0-.25.02-.35.08-.07.04-.11.1-.141.18-.029.08-.109.32-.109.96v3.23c0 .55-.45 1-1 1h-1.061c-.54 0-1-.46-1-1v-6.23c0-.54.46-1 1-1h.95c.19 0 .37.05.53.15.96-.43 2.239-.35 3.029.16.061.04.12.08.17.12.54-.38 1.15-.57 1.83-.57.891 0 1.62.28 2.15.82.523.53.783 1.3.783 2.27z"/><path d="m48.83 46.435v6.23c0 .55-.45 1-1 1h-1.051c-.55 0-1-.45-1-1v-6.23c0-.55.45-1 1-1h1.051c.549 0 1 .45 1 1z"/><path d="m48.83 43.075v1.21c0 .55-.45 1-1 1h-1.051c-.55 0-1-.45-1-1v-1.21c0-.56.44-1 1-1h1.051c.559 0 1 .44 1 1z"/><path d="m56.489 48.835v3.83c0 .55-.449 1-1 1h-1.05c-.55 0-1-.45-1-1v-3.79c0-.44-.06-.6-.06-.61-.2-.13-.55-.04-.74.13-.04.04-.15.28-.15.87v3.4c0 .55-.449 1-1 1h-1.05c-.55 0-1-.45-1-1v-6.23c0-.55.45-1 1-1h.95c.19 0 .38.06.53.16.859-.38 2-.39 2.88-.01.47.2.85.49 1.11.86.25.34.42.74.5 1.17.06.26.08.63.08 1.22z"/></g></g><g id="Layer_44"/><g id="Layer_45"/><g id="Layer_46"/><g id="Layer_47"/><g id="Layer_48"/><g id="Layer_49"/></svg>