<svg xmlns="http://www.w3.org/2000/svg" version="1.1" xmlns:xlink="http://www.w3.org/1999/xlink" width="512" height="512" x="0" y="0" viewBox="0 0 64 64" style="enable-background:new 0 0 512 512" xml:space="preserve" class=""><g><g paint-order="fill markers stroke"><path fill="#4c2806" d="m48.697 31.532-.004.005c-2.6 4.056-5.728 7.725-8.376 9.42-5.079 3.252-6.823 4.434-9.244 6.2a51.367 51.367 0 0 1-2.13 1.47c.69.446 1.459.945 2.35 1.527 2.515 1.646 18.807 5.792 24.89 2.238-1.157-.672-2.317-1.671-2.55-2.176-.427-.922.254-2.379.018-3.718-.55-3.13 1.845-3.904 3.802-4.379.122-.03.244-.038.366-.03.915.056 1.791 1.104 2.472 2.182.055-1.665-.622-2.687-1.372-3.69-2.18-3.347-5.712-6.323-10.221-9.049zm9.223 19.18c-.78.275-.988 1.24-1.733 1.678.747-.437 1.34-.99 1.733-1.678z" opacity="1" data-original="#583513" class=""></path><path fill="#44270e" d="m48.698 31.532-.006.005c-2.6 4.057-5.727 7.725-8.375 9.42-5.08 3.252-6.824 4.433-9.244 6.2-.712.52-1.42 1.006-2.129 1.47.69.446 1.459.945 2.35 1.528 2.515 1.645 18.806 5.791 24.888 2.238-1.157-.672-2.317-1.672-2.55-2.176-.427-.922.255-2.379.02-3.719-.551-3.129 1.845-3.904 3.802-4.378a1.22 1.22 0 0 1 .365-.032c.632.04 1.244.555 1.787 1.223l-.021-.133s-1.46-1.503-2.432-1.68-4.318 1.026-4.592 2.463c-.262 1.375-.067 2.234.084 3.106.1.573-.374 2.435-.138 3.342.26 1 1.785 2.232 1.785 2.232s-1.115.083-2.971-.006c-1.856-.088-15.823-3.712-14.188-4.861 1.526-1.072 9.353-5.798 12.516-15.643-.316-.2-.625-.402-.951-.6zm9.223 19.18c-.78.274-.988 1.24-1.733 1.679.747-.437 1.339-.991 1.733-1.68z" opacity="1" data-original="#44270e" class=""></path><path fill="#4c2806" d="M18.103 22.778c-3.406.568-6.131 2.272-7.326 4.033-.905 1.693-.915 3.752-.11 5.928l6.115-.61 4.685-6.142z" opacity="1" data-original="#583513" class=""></path><path fill="#834713" d="M40.558 9.555c-6.935 1.222-14.134 5.735-21.565 12.156-4 4.624-6.418 9.443-10.888 13.801-5.77 5.625-5.156 13.246-2.564 16.49 4.43 4.501 14.867 2.94 25.533-4.846 2.42-1.766 4.163-2.948 9.242-6.2 5.08-3.25 11.948-13.75 13.4-20.358-2.012-.112-3.454.076-7.073-4.217-5.276-2.72-5.117-4.502-6.085-6.826z" opacity="1" data-original="#6c3f18" class=""></path><path fill="#4c2806" d="M40.557 9.555c-.432.076-.864.166-1.298.268-.048 1.313.392 2.157 1.244 4.234.7 1.707 3.32 3.44 5.215 5.164C48.28 21.554 29.98 49.509 6.176 52.567c4.735 3.779 14.71 2.025 24.897-5.41 2.42-1.767 4.165-2.948 9.244-6.2 5.08-3.251 11.946-13.751 13.399-20.359-2.013-.111-3.454.076-7.073-4.217-5.276-2.72-5.118-4.502-6.086-6.826z" opacity="1" data-original="#583513" class=""></path><path fill="#ed983b" d="M41.669 9.5a8.35 8.35 0 0 0-1.09.084l-.008.006c.952 2.307.824 4.085 6.072 6.791 3.576 4.242 5.027 4.11 7.002 4.213l.026-.03c.567-1.612-4.72-11.146-12.002-11.064zM57.819 42.088a1.226 1.226 0 0 0-.366.031c-1.957.475-4.352 1.25-3.802 4.379.236 1.34-.445 2.796-.019 3.718.234.505 1.394 1.504 2.55 2.176.754-.43 2.28-1.64 2.976-2.276 2.84-2.6 1.455-4.04 1.133-5.845-.681-1.078-1.557-2.126-2.472-2.183z" opacity="1" data-original="#ed983b"></path><g stroke-dashoffset="2379.84" stroke-linecap="round" stroke-linejoin="round"><path d="M46.679 11.087c.245 2.46 1.489 2.371 1.923 2.796.435.425.12 1.183 1.328 1.502 1.209.319 1.904.857 1.904.857z" fill="#000000" opacity="1" data-original="#000000"></path><path fill="#e5d4b1" d="M46.315 10.748a.5.5 0 0 0-.135.389c.132 1.314.567 2.067 1.065 2.492.497.425.973.578 1.008.612.067.066.1.262.267.636.168.375.574.804 1.283.99 1.12.296 1.725.77 1.725.77a.5.5 0 0 0 .66-.068 19.169 19.169 0 0 0-2.234-2.914l-.844-.844c-.843-.787-1.778-1.501-2.795-2.063z" opacity="1" data-original="#e5d4b1"></path><path d="M41.514 9c-.397.018-.795.04-1.188.063-7.083 1.249-14.339 5.82-21.803 12.27-.25.218-.558.567-.906 1-3.4.627-6.119 2.316-7.396 4.197-1.06 1.974-.827 4.001-.265 6.078-.767.91-1.55 1.776-2.342 2.547a16.05 16.05 0 0 0-2.062 2.447.5.5 0 0 0 .826.564 15.059 15.059 0 0 1 1.934-2.296c4.527-4.414 6.956-9.242 10.893-13.803.443-.383.884-.757 1.324-1.125.307-.138.608-.28.846-.416.787-.45 2.076-1.063 4.049-1.68 1.881-.588 3.142-.202 4.97-.015 1.827.186 4.13.127 7.755-1.428a.5.5 0 0 0-.388-.92c-3.498 1.5-5.532 1.528-7.262 1.352-1.73-.177-3.245-.606-5.37.058-.479.15-.916.3-1.322.447 5.615-4.245 11.065-7.165 16.307-8.181.252.672.453 1.334.787 2.027a.5.5 0 0 0 .9-.433c-.261-.542-.44-1.112-.668-1.735 1.766-.11 3.428.391 4.92 1.238.145 1.24.566 1.961 1.049 2.373.497.426.973.578 1.007.612.068.066.1.262.268.637.168.374.574.803 1.283.99 1.12.295 1.725.77 1.725.77.056.042.112.07.17.087.326.515.606 1.014.831 1.473.283.576.482 1.092.588 1.492.04.146.058.27.07.379-.761-.038-1.41-.093-2.191-.463-.965-.457-2.185-1.428-3.97-3.547a.5.5 0 0 0-.153-.123c-.583-.3-1.098-.588-1.55-.865a.5.5 0 0 0-.522.853c.452.277.967.56 1.531.854 1.79 2.11 3.09 3.19 4.236 3.732.927.439 1.698.426 2.484.467-.785 3.14-2.697 7.137-5.093 10.785-2.51 3.82-5.492 7.225-7.911 8.774-5.082 3.253-6.84 4.445-9.267 6.217-.703.512-1.403.993-2.102 1.45 2.269-2.635 1.86-3.911 2.73-5.02 1.218-1.553 4.364-3.593 4.364-3.593a.5.5 0 1 0-.536-.845s-3.159 1.966-4.612 3.82c-1.52 1.938-.048 3.185-5.75 7.887-3.194 1.675-6.252 2.754-8.991 3.242-4.383.78-7.901.05-9.96-2.024-1.458-1.838-2.3-5.36-1.4-9.042a.5.5 0 0 0-.972-.237c-.97 3.971-.128 7.76 1.602 9.924.01.014.022.027.033.04 2.372 2.41 6.277 3.142 10.872 2.323 3.902-.695 8.337-2.52 12.882-5.457.627.406 1.291.836 2.08 1.352.755.494 2.233 1.035 4.23 1.605a59.765 59.765 0 0 0 7.074 1.54c5.192.804 10.828 1.024 14.11-.893.495-.29.77-.716 1.006-1.037.235-.321.413-.523.644-.604 1.958-.689 2.8-2.064 2.998-3.422.195-1.338-.135-2.661-.293-3.535.039-1.757-.707-2.917-1.453-3.918v-.004c-2.17-3.328-5.606-6.257-9.947-8.933 2.283-3.637 4.124-7.527 4.814-10.666.064-.433-.043-.85-.119-1.274-.13-.49-.353-1.055-.658-1.676-.609-1.24-1.55-2.695-2.765-4.068C48.316 11.2 45.176 8.957 41.518 9zm1.039 4.174a.5.5 0 0 0-.37.848c.228.235.485.472.778.713a.5.5 0 0 0 .637-.772 8.339 8.339 0 0 1-.694-.636.5.5 0 0 0-.351-.153zm3.037 9.969a.498.498 0 0 0-.102.004c-2.317.352-3.91.797-5.062 1.363s-1.86 1.276-2.324 2.063c-.928 1.574-.96 3.288-2.38 5.338-1.536 2.216-3.746 3.222-3.746 3.222a.5.5 0 0 0 .41.91s2.447-1.092 4.157-3.562c1.56-2.251 1.666-4.12 2.42-5.4.377-.64.896-1.176 1.904-1.672s2.512-.93 4.771-1.274a.5.5 0 0 0-.048-.992zm-28.92.436c-1.553 2.124-3.654 5.253-5.955 8.105-.466-1.725-.348-3.282.352-4.61.931-1.357 2.98-2.772 5.603-3.495zm15.175 1.703a.497.497 0 0 0-.354.144c-2.867 2.84-5.272 3.593-7.443 3.988a.5.5 0 0 0 .178.983c2.27-.414 4.961-1.281 7.968-4.26a.5.5 0 0 0-.353-.855zm-9.728 4.437a.5.5 0 1 0-.713 1.137c.263-.053.537-.098.818-.143a.5.5 0 0 0-.105-.994zm-2.76.762a.503.503 0 0 0-.191.05 5.926 5.926 0 0 0-.685.395c-.843.564-2.52 2.093-4.063 3.526-1.542 1.432-2.898 2.74-2.898 2.74a.5.5 0 0 0 .693.72s1.35-1.303 2.884-2.728c1.534-1.425 3.304-3.002 3.94-3.428a4.94 4.94 0 0 1 .57-.328.5.5 0 0 0-.25-.947zm29.354 1.734c1.926 1.188 3.658 2.422 5.17 3.707-1.483-.347-2.716-.388-3.655-.312-1.325.107-2.107.465-2.107.465a.5.5 0 0 0 .424.906s.576-.279 1.763-.375 2.941.01 5.177.851c.03.012.061.019.092.024 1.088 1.087 2.021 2.209 2.78 3.373.398.477.69 1.018.973 1.566-.461-.44-.994-.79-1.623-.83-.167-.01-.34.001-.514.043-.79.192-1.683.433-2.467.893a.5.5 0 0 0 .506.863c.625-.367 1.429-.597 2.195-.783a.728.728 0 0 1 .22-.018c.277.017.633.21 1.005.569.351.338.7.815 1.013 1.302.168.922.44 2.1.286 3.159-.16 1.092-.666 2.033-2.34 2.623-.55.194-.867.614-1.117.955a3.61 3.61 0 0 1-.506.549c-.44-.28-.89-.581-1.244-.883-.44-.376-.764-.776-.8-.856-.18-.385-.023-1.223.077-2.209a.5.5 0 1 0-.994-.101c-.09.884-.403 1.838.01 2.73.197.425.569.778 1.057 1.195.28.24.597.48.93.711-2.967 1.244-8.013 1.122-12.689.397a58.83 58.83 0 0 1-6.95-1.512c-.39-.111-.755-.224-1.104-.336 4.01-.19 5.114-1.011 8.3-2.273 1.832-.726 3.295-.866 4.293-.83.997.035 1.488.23 1.488.23a.5.5 0 1 0 .357-.933s-.684-.255-1.81-.295c-1.126-.04-2.736.121-4.697.898-3.833 1.519-4.314 2.296-10.359 2.246-.024 0-.047.005-.07.008a3.701 3.701 0 0 1-.357-.195c-.652-.427-1.18-.77-1.719-1.12.507-.342 1.014-.685 1.522-1.056 1.786-1.304 3.21-2.292 5.88-4.031 3.741-1.752 6.295-1.915 7.892-1.672.8.121 1.362.346 1.719.531.357.186.48.307.48.307a.5.5 0 1 0 .684-.73s-.255-.233-.703-.465c-.448-.233-1.118-.493-2.03-.631-1.103-.168-2.559-.153-4.397.289 2.58-1.765 5.44-5.102 7.9-8.848l.06-.096zm-44.24 7.24c-.155.32-.297.64-.427.961a.5.5 0 1 0 .926.373c.12-.298.255-.595.4-.892a.5.5 0 1 0-.898-.442zm15.455 3.366c-4.172-.03-7.389.65-9.673 1.414-2.813.94-4.248 2.037-4.248 2.037a.5.5 0 0 0 .611.79s1.262-.98 3.953-1.88c2.69-.9 6.772-1.69 12.313-1.22a.5.5 0 1 0 .084-.999 39.362 39.362 0 0 0-3.04-.142zm33.16 1.685a3.865 3.865 0 0 0-.161 1.145.5.5 0 1 0 1-.004 2.855 2.855 0 0 1 .115-.85.499.499 0 1 0-.955-.291zm4.116.137c-.13.123-.212.245-.295.363-.166.237-.346.445-.39.469-.542.414-.582 1.029-.704 1.664-.089.681-.103 1.442-.01 2.05 0 .453.633 1.018 1.135.368.197-.255.32-.56.473-.941.115-.286 1.01-2.517 1.056-3.077a1.375 1.375 0 0 0-.047-.554c-.144-.463-.718-.813-1.218-.342z" fill="#000000" opacity="1" data-original="#000000"></path></g></g></g></svg>