<?xml version="1.0" encoding="UTF-8"?>
<svg version="1.1" xmlns="http://www.w3.org/2000/svg" width="400" height="600">
<path d="M0 0 C132 0 264 0 400 0 C400 198 400 396 400 600 C268 600 136 600 0 600 C0 402 0 204 0 0 Z " fill="#f8f9fa00" transform="translate(0,0)"/>
<path d="M0 0 C9.05328615 4.7929162 12.06055416 14.82903595 14.98828125 24.14453125 C18.70549214 38.43201006 18.23911367 53.30476795 11.6796875 66.6953125 C6.05114631 75.76864393 -1.86508022 81.74476546 -12.125 84.58911133 C-19.61587164 86.23017793 -26.97790674 86.36719684 -34.625 86.375 C-35.89601563 86.39949219 -37.16703125 86.42398438 -38.4765625 86.44921875 C-48.49191031 86.48051671 -54.34889736 84.69471481 -62 78 C-62.86625 78.94875 -63.7325 79.8975 -64.625 80.875 C-68.28397376 84.88244746 -72.35616097 85.87791276 -77.69134521 86.27415466 C-79.08285299 86.29496718 -80.47454814 86.30509509 -81.86621094 86.30639648 C-83.01385925 86.31888176 -83.01385925 86.31888176 -84.18469238 86.33161926 C-86.70130584 86.35561313 -89.21765946 86.36447897 -91.734375 86.37109375 C-93.49546379 86.38006927 -95.25655185 86.38919127 -97.01763916 86.39845276 C-100.70611417 86.41491729 -104.3944987 86.42263804 -108.08300781 86.42553711 C-112.78818829 86.43091342 -117.49250723 86.46857296 -122.19744492 86.51428127 C-125.83509352 86.54416148 -129.47253755 86.55126306 -133.11029816 86.55226326 C-134.84371123 86.55644506 -136.57712608 86.56879658 -138.31041718 86.58978081 C-149.15070846 86.71055957 -158.04026099 86.31920632 -166.5078125 78.76171875 C-167.04148438 78.07722656 -167.57515625 77.39273438 -168.125 76.6875 C-168.68445313 75.99011719 -169.24390625 75.29273438 -169.8203125 74.57421875 C-170.20960938 74.05472656 -170.59890625 73.53523437 -171 73 C-171.4125 73.53109375 -171.825 74.0621875 -172.25 74.609375 C-177.6232676 81.18203269 -182.62528581 84.5308637 -191 86 C-192.55237069 86.09960163 -194.10789066 86.15742011 -195.66333008 86.17700195 C-197.00546318 86.19625481 -197.00546318 86.19625481 -198.37471008 86.21589661 C-199.33000107 86.22328354 -200.28529205 86.23067047 -201.26953125 86.23828125 C-202.26450119 86.246353 -203.25947113 86.25442474 -204.28459167 86.26274109 C-206.38673172 86.27654624 -208.48889385 86.28728428 -210.59106445 86.29516602 C-212.7333842 86.30669347 -214.87567506 86.32715722 -217.01782227 86.35668945 C-220.12275598 86.39947162 -223.22683897 86.41554892 -226.33203125 86.42578125 C-227.28124954 86.44328934 -228.23046783 86.46079742 -229.20845032 86.47883606 C-236.57054524 86.45501608 -242.08794386 84.91205614 -247.375 79.625 C-250.63091374 74.36544704 -251.24523528 69.63198147 -251.2734375 63.51171875 C-251.29373209 62.0683517 -251.31458297 60.62499238 -251.3359375 59.18164062 C-251.35845299 56.937189 -251.37498549 54.69304545 -251.38085938 52.44848633 C-251.23179271 40.12449363 -251.23179271 40.12449363 -256 29 C-259.62398401 26.28201199 -263.07505588 25.37774377 -267.62890625 25.6015625 C-285.21475275 28.55668003 -306.68781632 43.42537958 -318 57 C-318 58.32 -318 59.64 -318 61 C-293.25 61.495 -293.25 61.495 -268 62 C-268 75.94736842 -268 75.94736842 -272 81 C-277.62706938 85.45476326 -281.65996905 86.11742383 -288.69287109 86.19287109 C-289.35681381 86.20104858 -290.02075653 86.20922607 -290.70481873 86.21765137 C-292.89434935 86.24239325 -295.08381575 86.25899031 -297.2734375 86.2734375 C-298.39857191 86.28142302 -298.39857191 86.28142302 -299.54643631 86.28956985 C-303.5149966 86.31624975 -307.48352596 86.33564304 -311.45214844 86.35009766 C-314.73075197 86.36344616 -318.00873447 86.39132163 -321.28710938 86.43212891 C-325.25347357 86.48149112 -329.21927393 86.50622212 -333.18593216 86.51332474 C-334.69380481 86.52002747 -336.20166535 86.53522433 -337.70936203 86.55921555 C-350.97775257 86.75834583 -350.97775257 86.75834583 -354.90869141 83.59228516 C-358.24494301 79.45682876 -358.65733971 76.44539977 -358.58203125 71.1875 C-356.15280086 57.8837953 -339.93947504 43.92367313 -329.91796875 35.6171875 C-328.54646104 34.46076349 -327.2196406 33.25050227 -325.92578125 32.0078125 C-308.80403765 15.6709366 -284.56246778 0.45072562 -260.31640625 0.7265625 C-251.60787758 1.44458018 -244.75512429 5.53788846 -239 12 C-231.52585575 21.98282693 -228.54398666 32.73357675 -228.41479492 45.03735352 C-228.29589364 50.69612453 -227.12851408 54.58053795 -223.37109375 58.8515625 C-219.67310435 60.64268093 -216.11535754 60.43359553 -212.0625 60.375 C-211.26392578 60.38660156 -210.46535156 60.39820313 -209.64257812 60.41015625 C-205.013749 60.38714633 -201.58245246 60.23278398 -198 57 C-194.28060145 50.88310834 -194.45815089 44.57455022 -194.3125 37.5625 C-194.27833984 36.44939453 -194.24417969 35.33628906 -194.20898438 34.18945312 C-194.12697571 31.45973617 -194.05767163 28.7303214 -194 26 C-191.70797012 24.85398506 -190.4054331 24.86762761 -187.85742188 24.85473633 C-187.00313599 24.84835648 -186.1488501 24.84197662 -185.26867676 24.83540344 C-184.34470093 24.83429062 -183.4207251 24.8331778 -182.46875 24.83203125 C-181.52189331 24.82870285 -180.57503662 24.82537445 -179.5994873 24.82194519 C-177.59546394 24.81687754 -175.59143211 24.81453681 -173.58740234 24.81469727 C-170.51255497 24.81250894 -167.43806519 24.79434646 -164.36328125 24.77539062 C-162.41927207 24.77245711 -160.47526117 24.77047203 -158.53125 24.76953125 C-157.60727417 24.76234573 -156.68329834 24.75516022 -155.73132324 24.74775696 C-154.87703735 24.75083359 -154.02275146 24.75391022 -153.14257812 24.75708008 C-152.38916138 24.75565506 -151.63574463 24.75423004 -150.85949707 24.75276184 C-149 25 -149 25 -147 27 C-146.74462891 29.42675781 -146.74462891 29.42675781 -146.7265625 32.453125 C-146.695625 34.09474609 -146.695625 34.09474609 -146.6640625 35.76953125 C-146.63819702 38.0741457 -146.61986299 40.37885802 -146.609375 42.68359375 C-146.43738057 51.13490939 -146.43738057 51.13490939 -142 58 C-138.43628654 60.37580897 -136.83390187 60.27046969 -132.60083008 60.31884766 C-131.63456947 60.33391609 -131.63456947 60.33391609 -130.64878845 60.34928894 C-128.52237835 60.38014705 -126.3960943 60.39716293 -124.26953125 60.4140625 C-122.79407159 60.43277209 -121.31862265 60.45234534 -119.84318542 60.4727478 C-115.96182575 60.52409736 -112.08043137 60.56370781 -108.19891357 60.60089111 C-104.23733923 60.64091316 -100.2759096 60.69201368 -96.31445312 60.7421875 C-88.54306799 60.83898018 -80.77161291 60.9233741 -73 61 C-73.41796593 59.77506081 -73.41796593 59.77506081 -73.84437561 58.52537537 C-74.38946022 56.91264488 -74.38946022 56.91264488 -74.94555664 55.26733398 C-75.48727257 53.67114479 -75.48727257 53.67114479 -76.03993225 52.04270935 C-77.56606277 47.20599693 -78.24246518 42.35954976 -78.99609375 37.34765625 C-80.47199695 32.42606465 -83.44134584 30.13002426 -87.5 27.1875 C-96.42739756 24.15856154 -104.89504116 25.77859868 -113.44140625 29.22265625 C-116.23020774 30.06994098 -117.28708901 29.80879806 -120 29 C-120.8678228 25.89948553 -121.71686767 22.79413335 -122.5625 19.6875 C-122.80935547 18.80642578 -123.05621094 17.92535156 -123.31054688 17.01757812 C-123.53935547 16.17001953 -123.76816406 15.32246094 -124.00390625 14.44921875 C-124.21861572 13.66893311 -124.4333252 12.88864746 -124.65454102 12.0847168 C-125 10 -125 10 -124 7 C-121.2349832 5.97350235 -118.58781134 5.13487675 -115.75 4.375 C-114.98558594 4.1584375 -114.22117188 3.941875 -113.43359375 3.71875 C-101.01759763 0.24484435 -85.19125423 -2.1696682 -73.125 3.4375 C-62.75683335 9.8374187 -57.22629089 18.86978373 -54.37207031 30.57519531 C-53.49505117 34.43222201 -52.6390655 38.28964466 -51.87426758 42.1706543 C-50.51785171 48.77710793 -49.03780365 54.1487793 -43.96484375 58.91015625 C-39.22718965 60.65166546 -34.56760165 60.47201794 -29.5625 60.4375 C-28.53833984 60.45748047 -27.51417969 60.47746094 -26.45898438 60.49804688 C-20.53336323 60.49421152 -16.49314158 60.27952154 -12 56 C-7.32928066 48.96933825 -8.31133137 40.3486597 -9.3515625 32.26953125 C-10.06978836 28.73318189 -11.05010539 25.89593496 -12.625 22.625 C-14.82444613 16.8264602 -15.11441971 10.81537611 -12.8125 5 C-9.02817209 0.8241899 -5.65609437 -0.80801348 0 0 Z " fill="#229B59" transform="translate(370,456)"/>
<path d="M0 0 C-3.73619881 3.30087107 -8.01935752 4.6877033 -12.6328125 6.35546875 C-13.46585907 6.66196854 -14.29890564 6.96846832 -15.15719604 7.28425598 C-16.91271343 7.92861077 -18.66942756 8.56971322 -20.42724609 9.20776367 C-23.1249434 10.18747945 -25.81854671 11.17784273 -28.51171875 12.16992188 C-30.21852008 12.79489909 -31.92554385 13.41926925 -33.6328125 14.04296875 C-34.44114532 14.3397905 -35.24947815 14.63661224 -36.08230591 14.94242859 C-41.76766735 17 -41.76766735 17 -44 17 C-41.03 20.96 -38.06 24.92 -35 29 C-37.96178563 31.22133922 -39.57370931 32.40298676 -42.81884766 33.62573242 C-43.55285797 33.90579636 -44.28686829 34.18586029 -45.04312134 34.47441101 C-45.82553192 34.76516006 -46.6079425 35.05590912 -47.4140625 35.35546875 C-48.22491302 35.66196854 -49.03576355 35.96846832 -49.8711853 36.28425598 C-51.57962871 36.9285137 -53.28926378 37.56961913 -55 38.20776367 C-57.6252969 39.18761081 -60.24645432 40.17794147 -62.8671875 41.16992188 C-64.52841291 41.79489031 -66.18986365 42.4192602 -67.8515625 43.04296875 C-68.63802155 43.3397905 -69.42448059 43.63661224 -70.23477173 43.94242859 C-75.76790481 46 -75.76790481 46 -78 46 C-75.39441065 50.77071361 -75.39441065 50.77071361 -72.1875 55.125 C-71 57 -71 57 -71.02734375 59.2578125 C-72.42405886 63.19553944 -75.2138268 65.20983052 -78.375 67.75 C-79.00986328 68.27658203 -79.64472656 68.80316406 -80.29882812 69.34570312 C-82.18946707 70.90951805 -84.09272179 72.45654971 -86 74 C-86.95132813 74.77859375 -87.90265625 75.5571875 -88.8828125 76.359375 C-90.63796131 77.79492955 -92.39581103 79.22718778 -94.15625 80.65625 C-97.47687672 83.39303026 -100.74012935 86.19140791 -104 89 C-108.37143177 92.75898873 -112.75307208 96.50288288 -117.1875 100.1875 C-118.04730469 100.90292969 -118.90710938 101.61835938 -119.79296875 102.35546875 C-122 104 -122 104 -125 105 C-126.83472554 98.72270005 -128.61495552 92.55708104 -129 86 C-129.06445312 84.99582031 -129.12890625 83.99164063 -129.1953125 82.95703125 C-129.99254335 59.4387211 -119.11318043 39.3461188 -104 22 C-103.45988281 21.37480469 -102.91976562 20.74960938 -102.36328125 20.10546875 C-75.87033662 -8.38946162 -34.83896768 -15.27003596 0 0 Z " fill="#1E8753" transform="translate(333,127)"/>
<path d="M0 0 C18.04188929 14.07323658 32.65653284 35.59003456 36.16796875 58.546875 C36.33224551 61.4230104 36.35847041 64.29148442 36.35546875 67.171875 C36.35466309 67.97077148 36.35385742 68.76966797 36.35302734 69.59277344 C36.26705746 77.93016686 35.13256144 85.71188004 32.16796875 93.546875 C27.58712696 91.05615114 23.91742077 87.86088414 20.04296875 84.421875 C14.74824342 79.77564094 9.39443225 75.23364273 3.921875 70.796875 C-15.22738009 55.15152616 -15.22738009 55.15152616 -20.83203125 49.546875 C-20.52084888 44.15304718 -19.31194198 41.58806165 -15.83203125 37.546875 C-15.83203125 36.556875 -15.83203125 35.566875 -15.83203125 34.546875 C-17.10095215 34.08631714 -17.10095215 34.08631714 -18.39550781 33.61645508 C-21.59457189 32.45381406 -24.79268757 31.28863052 -27.99023438 30.12182617 C-29.36292097 29.62148768 -30.73595694 29.12210644 -32.109375 28.6237793 C-40.77979442 25.47694944 -49.35311146 22.18769357 -57.83203125 18.546875 C-57.40204834 17.98379639 -56.97206543 17.42071777 -56.52905273 16.84057617 C-53.7422597 13.18299482 -51.09118312 9.56314499 -48.83203125 5.546875 C-49.36175537 5.40064697 -49.89147949 5.25441895 -50.43725586 5.10375977 C-58.16800058 2.88252044 -65.67623353 0.12412789 -73.20336914 -2.6965332 C-75.41865798 -3.52464396 -77.63790177 -4.34151136 -79.85742188 -5.15820312 C-81.26718027 -5.68421776 -82.67669502 -6.21088599 -84.0859375 -6.73828125 C-84.74936661 -6.98103287 -85.41279572 -7.22378448 -86.09632874 -7.47389221 C-90.71763966 -9.22434183 -90.71763966 -9.22434183 -91.83203125 -11.453125 C-89.69040615 -12.42188287 -87.54442251 -13.37801889 -85.39453125 -14.328125 C-84.19957031 -14.86179687 -83.00460938 -15.39546875 -81.7734375 -15.9453125 C-54.20082998 -27.11312508 -22.88074438 -16.48550527 0 0 Z " fill="#1E8652" transform="translate(157.83203125,138.453125)"/>
<path d="M0 0 C1.5768457 -0.02416992 1.5768457 -0.02416992 3.18554688 -0.04882812 C13.17065118 -0.05496525 22.31083508 1.97992141 31.4375 6 C32.44296875 6.43699219 33.4484375 6.87398438 34.484375 7.32421875 C35.21140625 7.65035156 35.9384375 7.97648437 36.6875 8.3125 C35.18028852 12.07631862 33.03833069 13.89713482 29.875 16.375 C28.39580078 17.55255859 28.39580078 17.55255859 26.88671875 18.75390625 C26.10240479 19.37676514 26.10240479 19.37676514 25.30224609 20.01220703 C22.55275057 22.2262701 19.87317071 24.52180438 17.1875 26.8125 C12.3723102 30.90689532 7.50375203 34.92647963 2.58984375 38.90234375 C0.37926705 40.73804472 -1.78412154 42.59883303 -3.93359375 44.50390625 C-4.5562915 45.05183838 -5.17898926 45.59977051 -5.82055664 46.16430664 C-7.03912313 47.24009353 -8.25091718 48.32361488 -9.45483398 49.41577148 C-12.59695045 52.18103327 -15.01140478 54.2751641 -19.3125 54.3125 C-21.97757456 52.09160453 -23.95970792 49.79595581 -26 47 C-26.433125 46.443125 -26.86625 45.88625 -27.3125 45.3125 C-27.9725 45.3125 -28.6325 45.3125 -29.3125 45.3125 C-30.68821861 47.1690699 -30.68821861 47.1690699 -32.03515625 49.59765625 C-32.56987549 50.51466309 -33.10459473 51.43166992 -33.65551758 52.37646484 C-34.50666138 53.86073975 -34.50666138 53.86073975 -35.375 55.375 C-36.54644256 57.38957443 -37.71831981 59.40389616 -38.890625 61.41796875 C-39.46876953 62.41618652 -40.04691406 63.4144043 -40.64257812 64.44287109 C-42.93363648 68.37987401 -45.27276524 72.28683601 -47.625 76.1875 C-48.00342041 76.81664307 -48.38184082 77.44578613 -48.77172852 78.09399414 C-49.61787757 79.50062911 -50.4650481 80.90664957 -51.3125 82.3125 C-54.18928022 81.96083926 -55.87945223 81.71133407 -58.04296875 79.71875 C-58.76419922 78.77515625 -58.76419922 78.77515625 -59.5 77.8125 C-61.53271988 75.11740429 -61.53271988 75.11740429 -64.3125 73.3125 C-64.56394775 74.00021484 -64.81539551 74.68792969 -65.07446289 75.39648438 C-66.4999956 78.75411851 -68.26255939 81.83962758 -70.12109375 84.96875 C-70.67217552 85.9058783 -70.67217552 85.9058783 -71.23439026 86.86193848 C-72.40300669 88.8473975 -73.57643887 90.82996053 -74.75 92.8125 C-75.53482026 94.14434565 -76.31932854 95.47637519 -77.10351562 96.80859375 C-79.16797409 100.31300495 -81.23693924 103.81465018 -83.3125 107.3125 C-83.8475415 108.27478516 -84.38258301 109.23707031 -84.93383789 110.22851562 C-85.38879639 110.91623047 -85.84375488 111.60394531 -86.3125 112.3125 C-86.9725 112.3125 -87.6325 112.3125 -88.3125 112.3125 C-94.79944912 91.84772002 -92.21040833 70.91985963 -82.51757812 52.02563477 C-79.3067358 46.04507272 -75.58545814 40.59036332 -71.3125 35.3125 C-70.72210938 34.55839844 -70.13171875 33.80429687 -69.5234375 33.02734375 C-52.56517656 12.5691864 -26.4389504 -0.08016662 0 0 Z " fill="#279661" transform="translate(133.3125,256.6875)"/>
<path d="M0 0 C1.63086548 0.00966797 1.63086548 0.00966797 3.29467773 0.01953125 C27.64547151 0.56284437 49.7458226 11.61830496 67.25 28.25 C75.19169651 36.62132927 81.47018203 45.78128324 86.4375 56.1875 C86.91437256 57.18342163 86.91437256 57.18342163 87.40087891 58.19946289 C92.02737863 68.39194789 93.48749779 77.9064692 93.375 89.0625 C93.38660156 90.21685547 93.39820313 91.37121094 93.41015625 92.56054688 C93.3858483 99.70303302 92.51118772 105.80254604 90 112.5 C86.56685921 109.3801387 84.27792896 105.93370182 81.99609375 101.94140625 C81.44925682 101.00215553 81.44925682 101.00215553 80.89137268 100.04393005 C79.73420745 98.05345957 78.58569529 96.05815554 77.4375 94.0625 C76.66268942 92.72557512 75.88730418 91.38898312 75.11132812 90.05273438 C73.68314697 87.59264558 72.25889219 85.13036034 70.83764648 82.66625977 C69.24895612 79.9289507 67.63689436 77.20867421 66 74.5 C62.11492151 75.79502616 61.48833543 77.60305201 59.4765625 81.00390625 C58 82.5 58 82.5 55.40771484 82.59350586 C54.215896 82.54722046 54.215896 82.54722046 53 82.5 C52.68885254 81.94763672 52.37770508 81.39527344 52.05712891 80.82617188 C46.62597039 71.20355414 41.17238901 61.59548636 35.375 52.1875 C34.9620166 51.506875 34.5490332 50.82625 34.12353516 50.125 C33.13875776 48.54670914 32.07702251 47.01684246 31 45.5 C30.34 45.5 29.68 45.5 29 45.5 C27.18759253 47.51608167 27.18759253 47.51608167 25.375 50 C24.74335938 50.8353125 24.11171875 51.670625 23.4609375 52.53125 C22.73777344 53.50578125 22.73777344 53.50578125 22 54.5 C16.64902694 54.12061048 13.97333996 52.17498397 10.3125 48.5 C9.2574954 47.48719558 8.20015862 46.47681549 7.140625 45.46875 C6.61404297 44.96472656 6.08746094 44.46070313 5.54492188 43.94140625 C2.45610476 41.05955159 -0.86487802 38.46139325 -4.15234375 35.8125 C-7.3062181 33.25132906 -10.40583062 30.63263837 -13.5 28 C-23.16781208 19.63319936 -23.16781208 19.63319936 -33.30859375 11.875 C-33.86675781 11.42125 -34.42492187 10.9675 -35 10.5 C-35 9.84 -35 9.18 -35 8.5 C-33.23322652 7.7199063 -31.46127023 6.95155097 -29.6875 6.1875 C-28.70136719 5.75824219 -27.71523437 5.32898438 -26.69921875 4.88671875 C-17.74519645 1.53014228 -9.57246339 -0.06013326 0 0 Z " fill="#279661" transform="translate(263,256.5)"/>
<path d="M0 0 C11.91859328 8.74813004 21.67858972 20.15779907 26 34.5625 C20.10051381 32.92802925 14.33597299 31.00304197 8.6015625 28.86328125 C7.95411072 28.62189423 7.30665894 28.3805072 6.6395874 28.13180542 C3.94781526 27.1252121 1.25769343 26.11438329 -1.43017578 25.09741211 C-3.41750988 24.34699513 -5.40771328 23.60464909 -7.3984375 22.86328125 C-8.57067871 22.42153564 -9.74291992 21.97979004 -10.95068359 21.5246582 C-14.10285013 20.36189436 -14.10285013 20.36189436 -18 20.5625 C-18.33 25.1825 -18.66 29.8025 -19 34.5625 C-23.98112487 32.91041671 -28.96156566 31.25629225 -33.94140625 29.6003418 C-35.63262975 29.03826819 -37.32403302 28.47673517 -39.015625 27.91577148 C-41.45881822 27.10545534 -43.90134027 26.29314296 -46.34375 25.48046875 C-47.08991577 25.23346725 -47.83608154 24.98646576 -48.6048584 24.73197937 C-53.44805028 23.1177514 -58.22917995 21.37984301 -63 19.5625 C-63.07347656 20.93535156 -63.07347656 20.93535156 -63.1484375 22.3359375 C-63.22320312 23.52445313 -63.29796875 24.71296875 -63.375 25.9375 C-63.44460938 27.12085938 -63.51421875 28.30421875 -63.5859375 29.5234375 C-64 32.5625 -64 32.5625 -66 34.5625 C-68.89797974 34.80300903 -68.89797974 34.80300903 -72.65283203 34.78955078 C-73.33587402 34.78984283 -74.01891602 34.79013489 -74.72265625 34.79043579 C-76.98450341 34.78904039 -79.24602276 34.77346967 -81.5078125 34.7578125 C-83.07436951 34.75408311 -84.64092884 34.75123579 -86.20748901 34.74923706 C-90.33394797 34.74159476 -94.46026651 34.72194124 -98.58666992 34.6998291 C-102.79604187 34.67938346 -107.00543648 34.6702381 -111.21484375 34.66015625 C-119.476627 34.63869583 -127.73829604 34.60455279 -136 34.5625 C-129.88391711 15.91789844 -116.84240182 2.97391802 -99.74609375 -6.1796875 C-68.60230888 -21.24563397 -28.84161917 -19.75684685 0 0 Z " fill="#238F5A" transform="translate(361,211.4375)"/>
<path d="M0 0 C0.70243835 0.00304138 1.40487671 0.00608276 2.12860107 0.00921631 C12.96350725 0.07854245 22.9536148 0.78944299 33.25 4.4375 C34.45914063 4.86160156 35.66828125 5.28570312 36.9140625 5.72265625 C55.64870664 13.04916741 69.68663708 25.96458881 79.25 43.4375 C79.65089844 44.16066406 80.05179688 44.88382813 80.46484375 45.62890625 C81.25 47.4375 81.25 47.4375 81.25 50.4375 C72.15769199 50.48378063 63.06542434 50.51934737 53.97302437 50.54112434 C49.7513425 50.55157464 45.52974105 50.56575645 41.30810547 50.58837891 C37.23622723 50.61006303 33.16442647 50.62205923 29.09249496 50.62725449 C27.53670913 50.63095824 25.98092768 50.63819046 24.42517471 50.64896011 C22.25096626 50.66341638 20.07708058 50.66548044 17.90283203 50.66455078 C16.66373077 50.668992 15.42462952 50.67343323 14.14797974 50.67800903 C11.25 50.4375 11.25 50.4375 9.25 48.4375 C9.0546875 45.3984375 9.0546875 45.3984375 9.125 41.8125 C9.14304687 40.62398437 9.16109375 39.43546875 9.1796875 38.2109375 C9.20289062 37.29570312 9.22609375 36.38046875 9.25 35.4375 C8.45529297 35.71424561 7.66058594 35.99099121 6.84179688 36.27612305 C-7.29747259 41.19355138 -21.42088165 46.09534292 -35.75 50.4375 C-36.08 45.8175 -36.41 41.1975 -36.75 36.4375 C-41.91421702 37.27937554 -41.91421702 37.27937554 -46.73583984 38.74438477 C-47.45613373 39.00457901 -48.17642761 39.26477325 -48.91854858 39.53285217 C-49.67503693 39.81205002 -50.43152527 40.09124786 -51.2109375 40.37890625 C-52.00150543 40.66603989 -52.79207336 40.95317352 -53.6065979 41.24900818 C-56.11453398 42.16114707 -58.61977166 43.08045365 -61.125 44 C-62.83185771 44.62222104 -64.53888727 45.24397091 -66.24609375 45.86523438 C-70.41607131 47.38387629 -74.58364502 48.90894911 -78.75 50.4375 C-79.75 47.4375 -79.75 47.4375 -78.6328125 44.6875 C-67.55652629 24.20867749 -51.19568672 10.37309844 -28.75 3.4375 C-19.12771182 0.67034507 -9.98201354 -0.09181646 0 0 Z " fill="#238F5A" transform="translate(91.75,195.5625)"/>
<path d="M0 0 C0.75643295 0.00142502 1.51286591 0.00285004 2.29222107 0.00431824 C3.57849144 -0.00029671 3.57849144 -0.00029671 4.89074707 -0.00500488 C5.81785995 0.00218063 6.74497284 0.00936615 7.70018005 0.01676941 C8.64940842 0.01722763 9.59863678 0.01768585 10.57662964 0.01815796 C12.58486683 0.02118178 14.59310164 0.02907192 16.6013031 0.04142761 C19.68708029 0.05968377 22.77255763 0.06193734 25.85838318 0.06169128 C27.80565142 0.06660633 29.75291761 0.07243459 31.70018005 0.07926941 C33.09388573 0.08093864 33.09388573 0.08093864 34.51574707 0.0826416 C35.37010849 0.08902145 36.22446991 0.09540131 37.10472107 0.10197449 C37.86035843 0.10578629 38.61599579 0.10959808 39.39453125 0.11352539 C41.1337738 0.24723816 41.1337738 0.24723816 42.1337738 1.24723816 C42.23464592 3.75647969 42.27349413 6.237602 42.2665863 8.74723816 C42.26754303 9.49811707 42.26849976 10.24899597 42.26948547 11.02262878 C42.27016719 12.61312443 42.26831352 14.20362283 42.2641449 15.79411316 C42.25879647 18.23688471 42.26409014 20.67947237 42.27049255 23.12223816 C42.26983177 24.66390523 42.2685506 26.20557219 42.2665863 27.74723816 C42.26861053 28.48264832 42.27063477 29.21805847 42.27272034 29.97575378 C42.24872541 35.13228655 42.24872541 35.13228655 41.1337738 36.24723816 C39.79383764 36.3502523 38.44859416 36.38572269 37.10472107 36.39250183 C36.25035965 36.39888168 35.39599823 36.40526154 34.51574707 36.41183472 C33.58660995 36.41294754 32.65747284 36.41406036 31.70018005 36.41520691 C30.75190842 36.41853531 29.80363678 36.42186371 28.82662964 36.42529297 C26.81662991 36.43036635 24.80662173 36.43270117 22.7966156 36.43254089 C19.71289761 36.43472638 16.62953774 36.45287499 13.54588318 36.47184753 C11.5973167 36.4747815 9.64874851 36.47676628 7.70018005 36.47770691 C6.77306717 36.48489243 5.84595428 36.49207794 4.89074707 36.4994812 C4.03323349 36.49640457 3.17571991 36.49332794 2.29222107 36.49015808 C1.53578812 36.4915831 0.77935516 36.49300812 0 36.49447632 C-1.8662262 36.24723816 -1.8662262 36.24723816 -3.8662262 34.24723816 C-4.12501526 31.11442566 -4.12501526 31.11442566 -4.1318512 27.12223816 C-4.13376465 26.41953796 -4.1356781 25.71683777 -4.13764954 24.99284363 C-4.13901095 23.50667462 -4.13531752 22.02049371 -4.12696838 20.53434753 C-4.11626773 18.2560817 -4.12686459 15.97860439 -4.1396637 13.70036316 C-4.13834209 12.25765308 -4.13577968 10.81494349 -4.1318512 9.37223816 C-4.12959534 8.05481628 -4.12733948 6.73739441 -4.12501526 5.38005066 C-3.84942103 2.04380051 -3.54776531 0.47000892 0 0 Z " fill="#219057" transform="translate(179.86622619628906,441.7527618408203)"/>
<path d="M0 0 C0.92607559 -0.0033284 1.85215118 -0.0066568 2.80628967 -0.01008606 C4.76921083 -0.01515933 6.73214065 -0.01749426 8.69506836 -0.01733398 C11.70636136 -0.01951942 14.71728759 -0.03766799 17.72851562 -0.05664062 C19.63150916 -0.05957461 21.53450444 -0.06155937 23.4375 -0.0625 C24.79535866 -0.07327827 24.79535866 -0.07327827 26.1806488 -0.08427429 C27.01814163 -0.08119766 27.85563446 -0.07812103 28.71850586 -0.07495117 C29.45717392 -0.07637619 30.19584198 -0.07780121 30.95689392 -0.07926941 C32.78515625 0.16796875 32.78515625 0.16796875 34.78515625 2.16796875 C35.04394531 5.30078125 35.04394531 5.30078125 35.05078125 9.29296875 C35.05365143 10.34701904 35.05365143 10.34701904 35.05657959 11.42236328 C35.057941 12.90853229 35.05424757 14.3947132 35.04589844 15.88085938 C35.03519779 18.15912521 35.04579464 20.43660252 35.05859375 22.71484375 C35.05727215 24.15755383 35.05470974 25.60026341 35.05078125 27.04296875 C35.04852539 28.36039062 35.04626953 29.6778125 35.04394531 31.03515625 C34.78515625 34.16796875 34.78515625 34.16796875 32.78515625 36.16796875 C29.72323494 36.35584564 26.75329498 36.42343244 23.69140625 36.3984375 C22.78894165 36.39797928 21.88647705 36.39752106 20.95666504 36.39704895 C19.04678026 36.39402515 17.13689798 36.38613506 15.22705078 36.3737793 C12.29711203 36.35554316 9.36748953 36.35326945 6.4375 36.35351562 C4.58463267 36.34859972 2.7317675 36.34277108 0.87890625 36.3359375 C-0.00132202 36.33482468 -0.88155029 36.33371185 -1.78845215 36.33256531 C-7.98271856 36.28403135 -7.98271856 36.28403135 -10.21484375 35.16796875 C-10.23949565 30.34416073 -10.25768068 25.52038908 -10.26977539 20.6965332 C-10.27481549 19.05427411 -10.28164753 17.41201952 -10.2902832 15.76977539 C-10.30236301 13.41421396 -10.30807514 11.05871166 -10.3125 8.703125 C-10.31766129 7.96457779 -10.32282257 7.22603058 -10.32814026 6.46510315 C-10.32833625 4.69898787 -10.27679094 2.93299729 -10.21484375 1.16796875 C-8.04998863 -0.99688637 -3.00896107 0.00369071 0 0 Z " fill="#25935C" transform="translate(187.21484375,402.83203125)"/>
<path d="M0 0 C1.28498634 -0.00074776 1.28498634 -0.00074776 2.59593201 -0.00151062 C4.40569378 0.00082886 6.21545887 0.01055004 8.02514648 0.02709961 C10.8015639 0.05072144 13.57702308 0.04765619 16.35351562 0.04101562 C18.11068283 0.04659139 19.86784598 0.05370063 21.625 0.0625 C22.45834366 0.06158859 23.29168732 0.06067719 24.15028381 0.05973816 C30.01506029 0.13224779 30.01506029 0.13224779 32.24609375 2.36328125 C32.43331227 4.86071987 32.50189142 7.24516808 32.4765625 9.7421875 C32.47610428 10.46945541 32.47564606 11.19672333 32.47517395 11.94602966 C32.47215211 13.48348624 32.4642678 15.02093977 32.4519043 16.55834961 C32.43363948 18.9198686 32.43139465 21.28099586 32.43164062 23.64257812 C32.42672578 25.13411799 32.42089761 26.62565519 32.4140625 28.1171875 C32.41294968 28.82758682 32.41183685 29.53798615 32.41069031 30.26991272 C32.3621474 35.2472276 32.3621474 35.2472276 31.24609375 36.36328125 C28.1552791 36.46445045 25.0872682 36.50296683 21.99609375 36.49609375 C21.06764648 36.49705048 20.13919922 36.4980072 19.18261719 36.49899292 C17.2154941 36.4996748 15.24836879 36.49781997 13.28125 36.49365234 C10.25906349 36.4883042 7.2370256 36.49359707 4.21484375 36.5 C2.30859342 36.49933922 0.40234318 36.49805806 -1.50390625 36.49609375 C-2.86950684 36.4991301 -2.86950684 36.4991301 -4.26269531 36.50222778 C-10.63895656 36.47823094 -10.63895656 36.47823094 -11.75390625 35.36328125 C-11.99660431 30.83953648 -11.98242882 26.31030056 -11.99414062 21.78076172 C-12.00383712 19.50450986 -12.03484254 17.22916433 -12.06640625 14.953125 C-12.07293704 13.50911996 -12.07818721 12.06510844 -12.08203125 10.62109375 C-12.09137695 9.30254395 -12.10072266 7.98399414 -12.11035156 6.62548828 C-11.75390625 3.36328125 -11.75390625 3.36328125 -10.47468567 1.68266296 C-7.45022833 -0.63629417 -3.66118314 -0.04056031 0 0 Z " fill="#239158" transform="translate(188.75390625,362.63671875)"/>
<path d="M0 0 C1.2219104 0.00607269 1.2219104 0.00607269 2.46850586 0.01226807 C3.30438232 0.01035461 4.14025879 0.00844116 5.00146484 0.00646973 C6.77010397 0.00510771 8.53875309 0.0088053 10.30737305 0.01715088 C13.02016579 0.02785031 15.7322963 0.01725631 18.44506836 0.00445557 C20.16121566 0.00577716 21.87736255 0.00833955 23.59350586 0.01226807 C24.40811279 0.0082196 25.22271973 0.00417114 26.06201172 0 C31.80108658 0.04797379 31.80108658 0.04797379 34.03100586 2.27789307 C34.21822438 4.77533169 34.28680353 7.1597799 34.26147461 9.65679932 C34.26101639 10.38406723 34.26055817 11.11133514 34.26008606 11.86064148 C34.25706422 13.39809806 34.24917991 14.93555159 34.23681641 16.47296143 C34.21855159 18.83448042 34.21630676 21.19560767 34.21655273 23.55718994 C34.21163789 25.04872981 34.20580972 26.54026701 34.19897461 28.03179932 C34.19786179 28.74219864 34.19674896 29.45259796 34.19560242 30.18452454 C34.14705951 35.16183942 34.14705951 35.16183942 33.03100586 36.27789307 C30.08565016 36.3789966 27.16423026 36.41758586 24.21850586 36.41070557 C22.8924231 36.41214066 22.8924231 36.41214066 21.53955078 36.41360474 C19.66658456 36.41428658 17.793616 36.412432 15.9206543 36.40826416 C13.04332198 36.40291596 10.16614578 36.408209 7.28881836 36.41461182 C5.47371385 36.41395104 3.65860943 36.41266987 1.84350586 36.41070557 C0.97685303 36.4127298 0.1102002 36.41475403 -0.78271484 36.4168396 C-6.85404405 36.39284316 -6.85404405 36.39284316 -7.96899414 35.27789307 C-8.08221848 32.85298936 -8.13316289 30.45762445 -8.13696289 28.03179932 C-8.14029129 27.30548813 -8.14361969 26.57917694 -8.14704895 25.83085632 C-8.15212089 24.29164261 -8.15445719 22.75241786 -8.15429688 21.2131958 C-8.1564818 18.85371836 -8.17462979 16.49470946 -8.19360352 14.13531494 C-8.19653766 12.64247801 -8.19852231 11.14963884 -8.19946289 9.65679932 C-8.20664841 8.94842422 -8.21383392 8.24004913 -8.22123718 7.51020813 C-8.1898994 0.81505242 -6.53030688 0.05458781 0 0 Z " fill="#219159" transform="translate(185.968994140625,323.72210693359375)"/>
<path d="M0 0 C0.83729141 -0.0033284 1.67458282 -0.0066568 2.5372467 -0.01008606 C4.31185353 -0.01515881 6.08646992 -0.01749428 7.86108398 -0.01733398 C10.58267881 -0.01951922 13.30386768 -0.03766758 16.02539062 -0.05664062 C17.74609236 -0.05957467 19.46679602 -0.06155939 21.1875 -0.0625 C22.00524399 -0.06968552 22.82298798 -0.07687103 23.66551208 -0.08427429 C29.43133421 -0.06085329 29.43133421 -0.06085329 31.66015625 2.16796875 C31.91894531 5.30078125 31.91894531 5.30078125 31.92578125 9.29296875 C31.92865143 10.34701904 31.92865143 10.34701904 31.93157959 11.42236328 C31.932941 12.90853229 31.92924757 14.3947132 31.92089844 15.88085938 C31.91019779 18.15912521 31.92079464 20.43660252 31.93359375 22.71484375 C31.93227215 24.15755383 31.92970974 25.60026341 31.92578125 27.04296875 C31.92352539 28.36039062 31.92126953 29.6778125 31.91894531 31.03515625 C31.66015625 34.16796875 31.66015625 34.16796875 29.66015625 36.16796875 C26.80301161 36.35557905 24.04449639 36.42354193 21.1875 36.3984375 C20.34925186 36.39797928 19.51100372 36.39752106 18.64735413 36.39704895 C16.8745075 36.39402599 15.10166354 36.38613838 13.32885742 36.3737793 C10.60521103 36.3555194 7.88190433 36.3532696 5.15820312 36.35351562 C3.43879912 36.34860067 1.71939744 36.34277245 0 36.3359375 C-1.22965233 36.33426826 -1.22965233 36.33426826 -2.48414612 36.33256531 C-8.22379574 36.28401676 -8.22379574 36.28401676 -9.33984375 35.16796875 C-9.44071587 32.65872722 -9.47956407 30.17760491 -9.47265625 27.66796875 C-9.47361298 26.91708984 -9.4745697 26.16621094 -9.47555542 25.39257812 C-9.47623713 23.80208248 -9.47438347 22.21158408 -9.47021484 20.62109375 C-9.46486642 18.1783222 -9.47016009 15.73573454 -9.4765625 13.29296875 C-9.47590172 11.75130168 -9.47462055 10.20963472 -9.47265625 8.66796875 C-9.47468048 7.93255859 -9.47670471 7.19714844 -9.47879028 6.43945312 C-9.44318768 -1.21158051 -6.82843981 0.00926951 0 0 Z " fill="#23925A" transform="translate(188.33984375,284.83203125)"/>
<path d="M0 0 C1.55521173 0.00031721 3.11044535 0.0116478 4.66552734 0.03173828 C5.89316299 0.03598312 5.89316299 0.03598312 7.14559937 0.04031372 C9.76436877 0.05152546 12.38279848 0.07663149 15.00146484 0.10205078 C16.77489741 0.11207931 18.54833533 0.12120538 20.32177734 0.12939453 C24.6734711 0.151468 29.02491034 0.18600434 33.37646484 0.22705078 C35.62861911 4.73135931 34.56230932 10.92561289 34.56176758 15.93994141 C34.56395627 18.21812556 34.58212288 20.49582721 34.60107422 22.77392578 C34.60400777 24.21663245 34.60599282 25.65934143 34.60693359 27.10205078 C34.61104248 28.41947266 34.61515137 29.73689453 34.61938477 31.09423828 C34.37646484 34.22705078 34.37646484 34.22705078 32.37646484 36.22705078 C29.67511162 36.42678812 27.07849273 36.50686651 24.37646484 36.49267578 C23.58498047 36.49458923 22.79349609 36.49650269 21.97802734 36.49847412 C20.30354495 36.49983596 18.62905199 36.4961396 16.95458984 36.48779297 C14.38664103 36.47709318 11.81939181 36.48768803 9.25146484 36.50048828 C7.62646329 36.49916669 6.00146218 36.49660429 4.37646484 36.49267578 C3.22017578 36.49874847 3.22017578 36.49874847 2.04052734 36.50494385 C-3.39361383 36.4569721 -3.39361383 36.4569721 -5.62353516 34.22705078 C-5.88232422 31.09423828 -5.88232422 31.09423828 -5.88916016 27.10205078 C-5.89107361 26.39935059 -5.89298706 25.69665039 -5.8949585 24.97265625 C-5.89631991 23.48648724 -5.89262648 22.00030633 -5.88427734 20.51416016 C-5.87357669 18.23589433 -5.88417355 15.95841701 -5.89697266 13.68017578 C-5.89565105 12.2374657 -5.89308864 10.79475612 -5.88916016 9.35205078 C-5.8869043 8.03462891 -5.88464844 6.71720703 -5.88232422 5.35986328 C-5.50025705 0.73468784 -4.595212 0.28793607 0 0 Z " fill="#1C8B4E" transform="translate(184.62353515625,245.77294921875)"/>
<path d="M0 0 C3.8076546 2.01159111 7.04834016 4.09668033 9 8 C9.55335968 12.9011857 9.5327637 15.00795724 7.1875 19.375 C4.81979553 22.21624536 3.23089529 23.81642849 -0.48828125 24.37109375 C-9.05155127 24.57244311 -9.05155127 24.57244311 -12.625 21.625 C-16.06892753 17.81855378 -16.45004496 15.40094356 -16.42578125 10.39453125 C-15.69260603 6.27126142 -13.08526198 3.68561665 -10 1 C-6.78548618 -0.60725691 -3.48666924 -0.47397924 0 0 Z " fill="#229B59" transform="translate(85,413)"/>
<path d="M0 0 C4.36350222 2.22291622 7.09544338 4.45022584 9 9 C9.55438343 13.3558698 9.30805175 15.43700886 7.1875 19.3125 C4.83050641 22.20823498 3.26649244 23.81111965 -0.48828125 24.37109375 C-9.05155127 24.57244311 -9.05155127 24.57244311 -12.625 21.625 C-16.17088402 17.70586503 -16.28877642 15.37169015 -16.21484375 10.25390625 C-15.80919933 5.99832748 -14.01720785 3.84282936 -10.8125 1.1875 C-7.13998514 -0.36311739 -3.88989939 -0.68645283 0 0 Z " fill="#239B59" transform="translate(364,413)"/>
<path d="M0 0 C4.32777286 2.20471448 7.26335482 4.40299806 9 9 C9.30118376 14.01060262 8.75072023 17.09913572 5.5 21 C4.675 21.66 3.85 22.32 3 23 C2.67 23.33 2.34 23.66 2 24 C-2.38266144 24.52263424 -7.01751008 25.02371348 -11.02734375 22.953125 C-13.91499966 20.55262865 -15.80756636 18.55321436 -16.2734375 14.79296875 C-16.54942724 7.71277047 -16.54942724 7.71277047 -13.6875 4 C-8.99652203 0.50903965 -5.86605904 -0.89990678 0 0 Z " fill="#229B59" transform="translate(118,413)"/>
<path d="M0 0 C3.00869887 1.78524456 5.40952957 3.81905914 7 7 C7.50872093 13.10465114 7.06705978 16.11952826 3 21 C-1.4575575 23.971705 -5.77413182 23.75294249 -11 23 C-14.17568542 21.34766078 -16.37696485 19.24607029 -18 16 C-18.5259826 12.24298142 -18.82762888 8.57249487 -17.0234375 5.14453125 C-12.10688232 -0.96345908 -7.33409633 -2.00482218 0 0 Z " fill="#229A59" transform="translate(282,414)"/>
<path d="M0 0 C7 0 7 0 9.1796875 2.1171875 C9.73914063 3.02726563 10.29859375 3.93734375 10.875 4.875 C11.44992188 5.77992188 12.02484375 6.68484375 12.6171875 7.6171875 C13.45184253 9.05543487 14.2563328 10.5126656 15 12 C15.33 8.04 15.66 4.08 16 0 C18.31 0 20.62 0 23 0 C23 7.92 23 15.84 23 24 C20.36 24 17.72 24 15 24 C12.6875 21.59375 12.6875 21.59375 11 18.5 C10.4225 17.4790625 9.845 16.458125 9.25 15.40625 C8.8375 14.6121875 8.425 13.818125 8 13 C7.67 16.63 7.34 20.26 7 24 C4.69 24 2.38 24 0 24 C0 16.08 0 8.16 0 0 Z " fill="#CA8E19" transform="translate(95,552)"/>
<path d="M0 0 C2.64 0 5.28 0 8 0 C11.69266229 7.79562039 14.36498065 15.80336195 17 24 C14.69 24 12.38 24 10 24 C9.67 22.68 9.34 21.36 9 20 C6.03 20 3.06 20 0 20 C-0.33 21.32 -0.66 22.64 -1 24 C-3.31 24 -5.62 24 -8 24 C-7.39461212 20.64048698 -6.56675919 17.55115637 -5.37109375 14.35546875 C-4.90219727 13.09379883 -4.90219727 13.09379883 -4.42382812 11.80664062 C-4.09833984 10.94232422 -3.77285156 10.07800781 -3.4375 9.1875 C-3.10814453 8.30384766 -2.77878906 7.42019531 -2.43945312 6.50976562 C-1.62965399 4.33856505 -0.81641107 2.16872111 0 0 Z " fill="#C98C16" transform="translate(135,552)"/>
<path d="M0 0 C2.05078125 0.03255208 4.1015625 0.06510417 6.15234375 0.09765625 C7.49380869 3.5320384 8.8241028 6.97064042 10.15234375 10.41015625 C10.53390625 11.38662109 10.91546875 12.36308594 11.30859375 13.36914062 C11.66953125 14.30693359 12.03046875 15.24472656 12.40234375 16.2109375 C12.7375 17.07501221 13.07265625 17.93908691 13.41796875 18.8293457 C14.15234375 21.09765625 14.15234375 21.09765625 14.15234375 24.09765625 C11.84234375 24.09765625 9.53234375 24.09765625 7.15234375 24.09765625 C6.82234375 23.10765625 6.49234375 22.11765625 6.15234375 21.09765625 C3.18234375 20.76765625 0.21234375 20.43765625 -2.84765625 20.09765625 C-2.84765625 21.41765625 -2.84765625 22.73765625 -2.84765625 24.09765625 C-5.48765625 24.09765625 -8.12765625 24.09765625 -10.84765625 24.09765625 C-9.53984234 20.28353229 -8.2256261 16.47164582 -6.91015625 12.66015625 C-6.53697266 11.57154297 -6.16378906 10.48292969 -5.77929688 9.36132812 C-5.42158203 8.32685547 -5.06386719 7.29238281 -4.6953125 6.2265625 C-4.36539307 5.2682251 -4.03547363 4.3098877 -3.69555664 3.32250977 C-2.47927497 0.1310399 -2.47927497 0.1310399 0 0 Z " fill="#C98C15" transform="translate(257.84765625,551.90234375)"/>
<path d="M0 0 C2.31 0 4.62 0 7 0 C7.33 2.64 7.66 5.28 8 8 C8.51046875 7.13375 8.51046875 7.13375 9.03125 6.25 C12.94293157 0.25763675 12.94293157 0.25763675 16.1796875 -0.53125 C18.375 -0.5 18.375 -0.5 22 0 C19.33333333 4 16.66666667 8 14 12 C14.5775 12.78246094 15.155 13.56492187 15.75 14.37109375 C16.86375 15.88896484 16.86375 15.88896484 18 17.4375 C18.7425 18.44683594 19.485 19.45617187 20.25 20.49609375 C22 23 22 23 22 24 C16.89119171 24.70466321 16.89119171 24.70466321 14 24 C11.50873331 21.62339412 9.74263186 18.95719346 8 16 C7.67 18.64 7.34 21.28 7 24 C4.69 24 2.38 24 0 24 C0 16.08 0 8.16 0 0 Z " fill="#C98C16" transform="translate(161,552)"/>
<path d="M0 0 C1.98 0 3.96 0 6 0 C6 2.97 6 5.94 6 9 C8.64 9 11.28 9 14 9 C14 6.03 14 3.06 14 0 C16.31 0 18.62 0 21 0 C21 7.92 21 15.84 21 24 C18.69 24 16.38 24 14 24 C14 20.7 14 17.4 14 14 C11.36 14 8.72 14 6 14 C6 17.3 6 20.6 6 24 C4.02 24 2.04 24 0 24 C0 16.08 0 8.16 0 0 Z " fill="#C98C14" transform="translate(282,552)"/>
<path d="M0 0 C2.31 0 4.62 0 7 0 C7 2.97 7 5.94 7 9 C9.64 9 12.28 9 15 9 C15 6.03 15 3.06 15 0 C16.98 0 18.96 0 21 0 C21 7.92 21 15.84 21 24 C19.02 24 17.04 24 15 24 C15 20.7 15 17.4 15 14 C12.36 14 9.72 14 7 14 C7 17.3 7 20.6 7 24 C4.69 24 2.38 24 0 24 C0 16.08 0 8.16 0 0 Z " fill="#C98C15" transform="translate(193,552)"/>
<path d="M0 0 C1.75 0.9375 1.75 0.9375 2.75 2.9375 C0.44 4.2575 -1.87 5.5775 -4.25 6.9375 C-4.25 7.5975 -4.25 8.2575 -4.25 8.9375 C1.89689273 8.56868644 4.44027374 7.03699571 8.75 2.9375 C9.10444236 6.18464935 9.04083353 7.54250749 7.0703125 10.21875 C6.34585938 10.9509375 5.62140625 11.683125 4.875 12.4375 C1.01664371 16.36500246 -1.04568887 19.43468865 -1.5 25 C-1.24438637 28.00346017 -1.10778008 29.57305263 0.75 31.9375 C7.90671288 35.43263885 14.41484628 32.86461725 21.515625 30.4609375 C23.75 29.9375 23.75 29.9375 26.75 30.9375 C22.0329155 36.08341036 17.39761363 40.0860827 10.1875 40.4375 C5.75436277 40.21848641 3.12024303 38.90652362 -0.25 35.9375 C-3.32742597 31.83912702 -3.60681975 28.81859692 -3.5 23.75 C-3.47679687 21.90341797 -3.47679687 21.90341797 -3.453125 20.01953125 C-3.25 16.9375 -3.25 16.9375 -2.25 14.9375 C-2.889375 14.628125 -3.52875 14.31875 -4.1875 14 C-6.25 12.9375 -6.25 12.9375 -7.25 11.9375 C-7.76425685 7.48060733 -7.73479234 5.58388979 -5 1.9375 C-2.25 -0.0625 -2.25 -0.0625 0 0 Z " fill="#C98D18" transform="translate(230.25,317.0625)"/>
<path d="M0 0 C3.88345318 4.09336956 4.44290756 7.55652273 4.43359375 12.94921875 C3.88502388 15.54380597 3.09884825 16.40678338 1 18 C-5.53154508 20.59320367 -15.45285319 21.85740872 -22.02734375 19.171875 C-24.27654508 17.69807071 -26.10306722 15.89693278 -28 14 C-28.23046875 11.90625 -28.23046875 11.90625 -28.1875 9.5 C-28.18105469 8.7059375 -28.17460937 7.911875 -28.16796875 7.09375 C-28 5 -28 5 -27 3 C-26.34 3.33 -25.68 3.66 -25 4 C-25.12375 5.0725 -25.2475 6.145 -25.375 7.25 C-25.35912986 11.06282318 -25.35912986 11.06282318 -22.875 13.4375 C-15.98554061 17.28507398 -5.48483861 15.42568355 2 14 C2 13.34 2 12.68 2 12 C0.906875 12.04125 -0.18625 12.0825 -1.3125 12.125 C-5 12 -5 12 -8 10 C-8.64825345 4.05767669 -8.64825345 4.05767669 -6.8125 1.0625 C-4.23167788 -0.45039572 -2.93880123 -0.64510271 0 0 Z " fill="#CA8D19" transform="translate(166,336)"/>
<path d="M0 0 C2.8125 0.9375 2.8125 0.9375 4.8125 2.9375 C4.4825 3.9275 4.1525 4.9175 3.8125 5.9375 C-0.6425 4.9475 -0.6425 4.9475 -5.1875 3.9375 C-4.5275 5.9175 -3.8675 7.8975 -3.1875 9.9375 C0.4425 10.2675 4.0725 10.5975 7.8125 10.9375 C7.1525 12.2575 6.4925 13.5775 5.8125 14.9375 C3.21806478 15.51470233 0.93655046 15.86140454 -1.6875 16.0625 C-6.92099426 16.26663617 -6.92099426 16.26663617 -11.1875 18.9375 C-11.11443027 22.88326524 -10.85792885 25.15893746 -8.25 28.1875 C-4.09565614 30.56141078 0.19624913 31.7543056 4.8125 32.9375 C4.4825 33.5975 4.1525 34.2575 3.8125 34.9375 C-2.50216089 35.59527718 -6.38512702 34.80339595 -11.65625 31.2265625 C-13.59736949 29.59245681 -14.11657161 28.45325072 -14.4609375 25.94921875 C-14.65635725 21.47711287 -14.72664275 19.60433445 -11.8125 16 C-10.94625 15.319375 -10.08 14.63875 -9.1875 13.9375 C-8.5275 13.2775 -7.8675 12.6175 -7.1875 11.9375 C-7.414375 10.844375 -7.64125 9.75125 -7.875 8.625 C-8.1875 4.9375 -8.1875 4.9375 -6.125 1.9375 C-3.1875 -0.0625 -3.1875 -0.0625 0 0 Z " fill="#CC9222" transform="translate(149.1875,302.0625)"/>
<path d="M0 0 C2.31 0 4.62 0 7 0 C7 6.27 7 12.54 7 19 C9.31 19 11.62 19 14 19 C14 20.65 14 22.3 14 24 C9.38 24 4.76 24 0 24 C0 16.08 0 8.16 0 0 Z " fill="#C98B12" transform="translate(225,552)"/>
<path d="M0 0 C1.32 0 2.64 0 4 0 C6.63637225 4.5978332 6.63838164 8.81509544 6 14 C4.48640384 18.57199665 2.09008974 23.34696882 -2 26 C-6.49336951 26.57309149 -10.64763513 26.21668382 -15 25 C-15 24.34 -15 23.68 -15 23 C-14.35933594 22.92523438 -13.71867188 22.85046875 -13.05859375 22.7734375 C-6.43147127 21.76603587 -2.61329397 19.85770689 2 15 C0.98570845 13.81420987 0.98570845 13.81420987 -1 13.5 C-3 13 -3 13 -4 12 C-4.45656235 8.07356375 -4.09084206 6.1751954 -2.25 2.625 C-1.5075 1.75875 -0.765 0.8925 0 0 Z " fill="#CB911F" transform="translate(267,316)"/>
<path d="M0 0 C1.875 0.25 1.875 0.25 4 1 C5.47362065 3.06306891 5.96554493 4.85835139 6.5625 7.3125 C5.61741669 11.82789805 2.54435538 14.22780776 -1 17 C-6.84452212 20.74895333 -12.93600713 23.44599548 -20 23 C-22.5625 22.0625 -22.5625 22.0625 -24 20 C-24.32003603 17.2444355 -24.18315114 14.79305493 -24 12 C-23.690625 12.639375 -23.38125 13.27875 -23.0625 13.9375 C-22.1654837 15.93610821 -22.1654837 15.93610821 -21 17 C-12.57505897 16.73254155 -4.97811525 14.23889393 1.125 8.1875 C1.74375 7.465625 2.3625 6.74375 3 6 C2.01 5.34 1.02 4.68 0 4 C0 2.68 0 1.36 0 0 Z " fill="#C98D17" transform="translate(247,290)"/>
<path d="M0 0 C2.875 0.125 2.875 0.125 6 1 C9.05305441 4.56189681 9.32046578 7.40665718 9 12 C6 13 6 13 3 12 C0.66700175 11.96045766 -1.66708189 11.95598268 -4 12 C-3.97679687 13.26457031 -3.95359375 14.52914063 -3.9296875 15.83203125 C-3.91092874 17.4921816 -3.89272865 19.15233833 -3.875 20.8125 C-3.85824219 21.64587891 -3.84148437 22.47925781 -3.82421875 23.33789062 C-3.81777344 24.14033203 -3.81132812 24.94277344 -3.8046875 25.76953125 C-3.79421387 26.50792236 -3.78374023 27.24631348 -3.77294922 28.00708008 C-4 30 -4 30 -6 33 C-6.76774274 28.10564003 -7.16051195 23.26618453 -7.3125 18.3125 C-7.34988281 17.23613281 -7.38726562 16.15976562 -7.42578125 15.05078125 C-6.90193666 11.29736266 -5.48475791 9.79180974 -3 7 C-2.27648573 5.01985568 -1.59734611 3.02178685 -1 1 C-0.67 0.67 -0.34 0.34 0 0 Z " fill="#CC9222" transform="translate(165,274)"/>
<path d="M0 0 C0.33 1.65 0.66 3.3 1 5 C-1.62113708 5 -3.50935112 4.68707555 -6 4 C-6 5.32 -6 6.64 -6 8 C-2.37 8.33 1.26 8.66 5 9 C3 13 3 13 0.25 14.30078125 C-0.8225 14.63464844 -1.895 14.96851563 -3 15.3125 C-4.60875 15.83263672 -4.60875 15.83263672 -6.25 16.36328125 C-9 17 -9 17 -11 16 C-10.34 15.01 -9.68 14.02 -9 13 C-9.515625 12.62875 -10.03125 12.2575 -10.5625 11.875 C-12 10 -12 10 -12 7.0625 C-9.9931182 0.91642448 -6.16844685 -0.57380901 0 0 Z " fill="#CD9426" transform="translate(131,330)"/>
<path d="M0 0 C3 1 3 1 4.1640625 2.79296875 C5.80002788 7.11222315 5.8657271 11.73972727 4.20703125 16.0703125 C2.48220879 19.22918275 1.01325589 20.99116274 -2 23 C-6.2475253 23.30891093 -9.3586453 23.33046701 -13 21 C-12.67 20.34 -12.34 19.68 -12 19 C-10.948125 18.87625 -9.89625 18.7525 -8.8125 18.625 C-4.53114516 17.92313855 -2.31478158 16.76231798 1 14 C2.23075102 12.0827517 2.23075102 12.0827517 2 10 C1.2575 9.071875 1.2575 9.071875 0.5 8.125 C-1 6 -1 6 -0.6875 2.75 C-0.460625 1.8425 -0.23375 0.935 0 0 Z " fill="#C98C16" transform="translate(257,303)"/>
<path d="M0 0 C2.33951898 1.6084193 4.17330216 2.87679469 6 5 C6.56150519 8.61858899 6.68582324 10.78075869 4.875 14 C2.06863762 15.49672661 -0.00159282 14.73294398 -3 14 C-4.07511878 9.60993163 -4.3257941 6.95377757 -2.0625 3.0625 C-1.381875 2.051875 -0.70125 1.04125 0 0 Z " fill="#CA8E1C" transform="translate(241,330)"/>
<path d="M0 0 C0.66 0 1.32 0 2 0 C4.75776569 4.86664534 4.29572453 9.73296393 3 15 C1.14399441 18.69716314 -1.04229715 20.66081358 -5 22.0625 C-8.54082858 21.98873274 -10.2115941 21.1323104 -13 19 C-13 18.67 -13 18.34 -13 18 C-12.31292969 17.89042969 -11.62585938 17.78085937 -10.91796875 17.66796875 C-10.01691406 17.50941406 -9.11585938 17.35085938 -8.1875 17.1875 C-7.29417969 17.03667969 -6.40085938 16.88585937 -5.48046875 16.73046875 C-2.69740792 15.91089021 -1.56105523 15.45006295 0 13 C0.1073156 10.04912561 0.1073156 10.04912561 -0.375 6.875 C-0.61407847 4.92018192 -0.83015126 2.96204578 -1 1 C-0.67 0.67 -0.34 0.34 0 0 Z " fill="#CB9120" transform="translate(168,302)"/>
<path d="M0 0 C5.37514905 -0.04935509 10.75016685 -0.08569802 16.12548828 -0.10986328 C17.95493873 -0.11993484 19.78437303 -0.13359276 21.61376953 -0.15087891 C24.23994934 -0.17507677 26.86591675 -0.18647132 29.4921875 -0.1953125 C30.72350906 -0.21079636 30.72350906 -0.21079636 31.97970581 -0.22659302 C33.98789142 -0.22699184 35.99555382 -0.1224954 38 0 C40 2 40 2 40.1953125 4.1640625 C40.17210937 4.97617187 40.14890625 5.78828125 40.125 6.625 C40.10695312 7.44226563 40.08890625 8.25953125 40.0703125 9.1015625 C40.04710937 9.72804688 40.02390625 10.35453125 40 11 C39.67 11 39.34 11 39 11 C38.505 7.04 38.505 7.04 38 3 C32.76726669 2.95064176 27.53466824 2.91430051 22.30175781 2.89013672 C20.52080933 2.88006569 18.73987743 2.86640815 16.95898438 2.84912109 C14.40230217 2.82492087 11.84583815 2.81352816 9.2890625 2.8046875 C8.49005524 2.79436493 7.69104797 2.78404236 6.86782837 2.77340698 C4.9104278 2.77300774 2.95356923 2.87758931 1 3 C0.34 3.66 -0.32 4.32 -1 5 C-0.67 3.35 -0.34 1.7 0 0 Z " fill="#077828" transform="translate(180,324)"/>
<path d="M0 0 C0.66 0.33 1.32 0.66 2 1 C2.103125 2.093125 2.20625 3.18625 2.3125 4.3125 C2.68276146 8.01275384 2.68276146 8.01275384 4.9375 10.25 C9.09184386 12.62391078 13.38374913 13.8168056 18 15 C17.67 15.66 17.34 16.32 17 17 C10.68533911 17.65777718 6.80237298 16.86589595 1.53125 13.2890625 C0 12 0 12 -1 10 C-1.09472912 8.48154798 -1.1298841 6.95889616 -1.125 5.4375 C-1.12886719 4.22900391 -1.12886719 4.22900391 -1.1328125 2.99609375 C-1 1 -1 1 0 0 Z " fill="#C98C15" transform="translate(136,320)"/>
<path d="M0 0 C3.32297496 2.68623725 4.60757782 6.25714517 6.125 10.125 C6.39070801 10.79281494 6.65641602 11.46062988 6.93017578 12.14868164 C8.83709464 17.13040176 9.81196647 21.64104442 10 27 C6.42530199 25.21265099 5.45495162 20.9630811 3.875 17.4375 C3.31619141 16.25704102 3.31619141 16.25704102 2.74609375 15.05273438 C0.35881077 9.74911853 -0.41260264 5.80971132 0 0 Z " fill="#C88910" transform="translate(227,274)"/>
<path d="M0 0 C-0.32642811 2.93785297 -0.8824406 4.81876259 -2.5 7.3125 C-6.20139167 9.81093938 -9.65803534 9.46630254 -14 9 C-15.34005655 8.69481589 -16.67637645 8.37001295 -18 8 C-18 7.34 -18 6.68 -18 6 C-17.33613281 5.90203125 -16.67226562 5.8040625 -15.98828125 5.703125 C-10.19861966 4.72268596 -5.10153678 0 0 0 Z " fill="#C98D17" transform="translate(270,333)"/>
<path d="M0 0 C2.75 -0.3125 2.75 -0.3125 6 0 C8.4375 2.3125 8.4375 2.3125 10 5 C9.67 5.99 9.34 6.98 9 8 C6.1875 8.625 6.1875 8.625 3 9 C2.01 8.34 1.02 7.68 0 7 C-0.1875 3.375 -0.1875 3.375 0 0 Z " fill="#CA8F1B" transform="translate(158,339)"/>
<path d="M0 0 C0.82290527 0.00202423 1.64581055 0.00404846 2.49365234 0.00613403 C3.33331543 0.00517731 4.17297852 0.00422058 5.03808594 0.00323486 C6.81689529 0.00255306 8.59570712 0.00440737 10.37451172 0.00857544 C13.10699011 0.01392371 15.83930411 0.00863048 18.57177734 0.00222778 C20.29573604 0.00288856 22.01969464 0.00416973 23.74365234 0.00613403 C24.56655762 0.0041098 25.38946289 0.00208557 26.23730469 0 C32.0037018 0.02399599 32.0037018 0.02399599 33.11865234 1.13894653 C33.19045198 2.65822691 33.20257242 4.18062135 33.18115234 5.70144653 C33.17212891 6.5277356 33.16310547 7.35402466 33.15380859 8.20535278 C33.14220703 8.84343872 33.13060547 9.48152466 33.11865234 10.13894653 C32.78865234 10.13894653 32.45865234 10.13894653 32.11865234 10.13894653 C31.62365234 6.17894653 31.62365234 6.17894653 31.11865234 2.13894653 C26.15242885 2.11429556 21.18624068 2.09611005 16.2199707 2.08401489 C14.52920919 2.07897464 12.83845205 2.07214248 11.14770508 2.06350708 C8.72264528 2.05142797 6.2976429 2.0457153 3.87255859 2.04129028 C3.1121376 2.036129 2.35171661 2.03096771 1.56825256 2.02565002 C-0.24867336 2.02545416 -2.06547893 2.07697377 -3.88134766 2.13894653 C-5.82225591 4.07985479 -5.28054201 7.61188556 -5.44384766 10.20144653 C-5.52763672 11.4917981 -5.61142578 12.78214966 -5.69775391 14.11160278 C-5.75833984 15.11062622 -5.81892578 16.10964966 -5.88134766 17.13894653 C-6.21134766 17.13894653 -6.54134766 17.13894653 -6.88134766 17.13894653 C-6.90819444 14.49304639 -6.92811122 11.84741558 -6.94384766 9.20144653 C-6.95222656 8.44670044 -6.96060547 7.69195435 -6.96923828 6.91433716 C-6.97787206 4.9890034 -6.93359098 3.06359072 -6.88134766 1.13894653 C-5.03858257 -0.70381855 -2.45171007 0.01020242 0 0 Z " fill="#006A12" transform="translate(185.88134765625,284.8610534667969)"/>
<path d="M0 0 C1.77206192 0.00015919 3.54412846 0.00585754 5.31616211 0.01586914 C6.24698105 0.01728409 7.17779999 0.01869904 8.13682556 0.02015686 C11.12241777 0.02577367 14.10793615 0.03832899 17.09350586 0.05102539 C19.11238499 0.05603823 21.13126529 0.06060151 23.15014648 0.06469727 C28.11046158 0.07574856 33.07072118 0.09302444 38.03100586 0.11352539 C38.03100586 0.44352539 38.03100586 0.77352539 38.03100586 1.11352539 C36.82452393 1.13858154 35.61804199 1.1636377 34.375 1.18945312 C29.91524925 1.28335062 25.45566073 1.38361372 20.99609375 1.48583984 C19.06286401 1.5292558 17.12959427 1.57092582 15.19628906 1.61083984 C12.42362384 1.6683817 9.65116129 1.73212159 6.87866211 1.79711914 C6.00887222 1.81383163 5.13908234 1.83054413 4.24293518 1.84776306 C0.3198462 1.56378752 0.3198462 1.56378752 -2.96899414 3.11352539 C-3.20552937 5.63948798 -3.39073106 8.14459746 -3.53149414 10.67602539 C-3.57467773 11.38694336 -3.61786133 12.09786133 -3.66235352 12.83032227 C-3.76871191 14.59114451 -3.8693826 16.35230859 -3.96899414 18.11352539 C-4.29899414 18.11352539 -4.62899414 18.11352539 -4.96899414 18.11352539 C-4.99583726 15.30096258 -5.01575602 12.48865298 -5.03149414 9.67602539 C-5.03987305 8.87358398 -5.04825195 8.07114258 -5.05688477 7.24438477 C-5.06550844 5.20057318 -5.02127564 3.15668637 -4.96899414 1.11352539 C-3.96899414 0.11352539 -3.96899414 0.11352539 0 0 Z " fill="#006B13" transform="translate(181.968994140625,402.886474609375)"/>
<path d="M0 0 C2.4375 -0.4375 2.4375 -0.4375 5 0 C7.13465991 2.20041957 7.94420762 3.50902701 8.29296875 6.578125 C8.25816406 7.45984375 8.22335938 8.3415625 8.1875 9.25 C8.16042969 10.14203125 8.13335937 11.0340625 8.10546875 11.953125 C8.07066406 12.62859375 8.03585938 13.3040625 8 14 C7.67 13.34 7.34 12.68 7 12 C5.02 12 3.04 12 1 12 C1 11.67 1 11.34 1 11 C2.65 10.67 4.3 10.34 6 10 C5.43923199 7.50995496 5.43923199 7.50995496 4 5 C0.97017694 3.62810173 0.97017694 3.62810173 -2 3 C-1.34 2.01 -0.68 1.02 0 0 Z " fill="#C8890F" transform="translate(161,336)"/>
<path d="M0 0 C0.66 0.33 1.32 0.66 2 1 C-3.94 6.94 -9.88 12.88 -16 19 C-16 14.76641181 -13.57639709 12.97541337 -10.8125 10.0625 C-10.08836914 9.27456055 -10.08836914 9.27456055 -9.34960938 8.47070312 C-6.43336087 5.34307553 -3.41697361 2.59240228 0 0 Z " fill="#126836" transform="translate(239,140)"/>
<path d="M0 0 C4.5862069 1.44827586 4.5862069 1.44827586 6.3125 3.75 C7.17450101 6.57109421 7.13329111 9.06759551 7 12 C6.01 12.495 6.01 12.495 5 13 C3 9.25 3 9.25 3 7 C1.62514468 5.45833358 1.62514468 5.45833358 0 4 C-0.66 3.34 -1.32 2.68 -2 2 C-1.34 1.34 -0.68 0.68 0 0 Z " fill="#C98D18" transform="translate(167,274)"/>
<path d="M0 0 C0.33 0 0.66 0 1 0 C3.03907638 17.44138544 3.03907638 17.44138544 0 22 C-1.09460611 15.02188603 -1.3524287 8.05893948 -1 1 C-0.67 0.67 -0.34 0.34 0 0 Z " fill="#C88911" transform="translate(159,285)"/>
<path d="M0 0 C1.65 0.33 3.3 0.66 5 1 C5.33 2.65 5.66 4.3 6 6 C4.02 6.33 2.04 6.66 0 7 C-0.66 5.68 -1.32 4.36 -2 3 C-1.34 2.01 -0.68 1.02 0 0 Z " fill="#FAF5EB" transform="translate(240,335)"/>
<path d="M0 0 C0.66 0.33 1.32 0.66 2 1 C-3.28 6.28 -8.56 11.56 -14 17 C-14.66 16.67 -15.32 16.34 -16 16 C-10.96679794 10.22494276 -5.96260189 4.82082706 0 0 Z " fill="#197744" transform="translate(77,277)"/>
<path d="M0 0 C1.32 0 2.64 0 4 0 C5.04449911 3.13349732 4.93423645 3.98968256 4 7 C2.35 7.33 0.7 7.66 -1 8 C-1 7.34 -1 6.68 -1 6 C-1.66 5.34 -2.32 4.68 -3 4 C-1.75 2 -1.75 2 0 0 Z " fill="#CF982E" transform="translate(267,316)"/>
<path d="M0 0 C1.875 0.75 1.875 0.75 2.875 2.75 C-3.75 6.75 -3.75 6.75 -7.125 6.75 C-4.62946429 -0.54464286 -4.62946429 -0.54464286 0 0 Z " fill="#CB9121" transform="translate(230.125,317.25)"/>
<path d="M0 0 C0.66 0 1.32 0 2 0 C4.20399168 4.55491614 4.58846263 9.02906176 5 14 C2.35507692 12.67753846 2.02166213 11.35464102 0.8125 8.6875 C0.26529297 7.51767578 0.26529297 7.51767578 -0.29296875 6.32421875 C-1.07807525 3.7433438 -0.89937661 2.50336038 0 0 Z " fill="#CC9222" transform="translate(232,287)"/>
<path d="M0 0 C3.125 -0.1875 3.125 -0.1875 6 0 C6.33 1.65 6.66 3.3 7 5 C3.58012972 5 1.05491313 4.52745657 -2 3 C-1.34 2.01 -0.68 1.02 0 0 Z " fill="#C88A13" transform="translate(125,330)"/>
<path d="M0 0 C2.8992226 0.46761655 3.86675182 0.86675182 6 3 C6 3.99 6 4.98 6 6 C3.03 5.505 3.03 5.505 0 5 C-0.5625 3.0625 -0.5625 3.0625 -1 1 C-0.67 0.67 -0.34 0.34 0 0 Z " fill="#FBF7EF" transform="translate(161,339)"/>
<path d="M0 0 C0.66 0.33 1.32 0.66 2 1 C1.43410156 1.26554687 0.86820313 1.53109375 0.28515625 1.8046875 C-0.44832031 2.15789062 -1.18179688 2.51109375 -1.9375 2.875 C-3.03384766 3.39707031 -3.03384766 3.39707031 -4.15234375 3.9296875 C-6.16332459 4.8684977 -6.16332459 4.8684977 -7 7 C-5.68 7.33 -4.36 7.66 -3 8 C-3.99 8.495 -3.99 8.495 -5 9 C-7.03144641 8.06553465 -9.03533587 7.06775224 -11 6 C-7.57874946 3.12614955 -4.16111563 1.54115394 0 0 Z " fill="#3CB27D" transform="translate(77,122)"/>
<path d="M0 0 C5.75 0.75 5.75 0.75 8 3 C7.67 3.99 7.34 4.98 7 6 C4.36 5.34 1.72 4.68 -1 4 C0.32 3.67 1.64 3.34 3 3 C3 2.34 3 1.68 3 1 C2.01 0.67 1.02 0.34 0 0 Z " fill="#CF982F" transform="translate(146,302)"/>
<path d="M0 0 C4.67692308 1.47692308 4.67692308 1.47692308 6.3125 4.125 C6.539375 4.74375 6.76625 5.3625 7 6 C4.36 5.34 1.72 4.68 -1 4 C-0.67 2.68 -0.34 1.36 0 0 Z " fill="#F9F4E9" transform="translate(165,277)"/>
<path d="M0 0 C1.98 0.495 1.98 0.495 4 1 C4 2.32 4 3.64 4 5 C2.35 5 0.7 5 -1 5 C-0.67 3.35 -0.34 1.7 0 0 Z " fill="#CC9325" transform="translate(243,313)"/>
<path d="M0 0 C0.66 0.33 1.32 0.66 2 1 C2.625 4.0625 2.625 4.0625 3 7 C1.35 7 -0.3 7 -2 7 C-1.34 4.69 -0.68 2.38 0 0 Z " fill="#F9F2E5" transform="translate(259,560)"/>
<path d="M0 0 C0.66 0.66 1.32 1.32 2 2 C1.67 2.33 1.34 2.66 1 3 C0.76346477 5.52596259 0.57826308 8.03107207 0.4375 10.5625 C0.39431641 11.27341797 0.35113281 11.98433594 0.30664062 12.71679688 C0.20028223 14.47761912 0.09961154 16.2387832 0 18 C-0.33 18 -0.66 18 -1 18 C-1.02684312 15.18743719 -1.04676188 12.37512759 -1.0625 9.5625 C-1.07087891 8.76005859 -1.07925781 7.95761719 -1.08789062 7.13085938 C-1.0965143 5.08704779 -1.0522815 3.04316098 -1 1 C-0.67 0.67 -0.34 0.34 0 0 Z " fill="#067B31" transform="translate(178,403)"/>
<path d="M0 0 C0.33 0 0.66 0 1 0 C1.13277344 0.61488281 1.26554688 1.22976563 1.40234375 1.86328125 C1.57894531 2.67152344 1.75554687 3.47976563 1.9375 4.3125 C2.19853516 5.51326172 2.19853516 5.51326172 2.46484375 6.73828125 C2.99886159 9.145401 2.99886159 9.145401 4 12 C3.01 12 2.02 12 1 12 C-0.26237731 9.47524538 -0.09856404 7.68799534 -0.0625 4.875 C-0.05347656 3.96492188 -0.04445312 3.05484375 -0.03515625 2.1171875 C-0.02355469 1.41851562 -0.01195312 0.71984375 0 0 Z " fill="#C6850A" transform="translate(227,338)"/>
<path d="M0 0 C0 0.99 0 1.98 0 3 C-1.75 4.125 -1.75 4.125 -4 5 C-6.25 4.125 -6.25 4.125 -8 3 C-7.67 2.34 -7.34 1.68 -7 1 C-4.67843403 0.59270772 -2.3431213 0.25561323 0 0 Z " fill="#CB9121" transform="translate(252,321)"/>
<path d="M0 0 C2.31 0 4.62 0 7 0 C7 0.66 7 1.32 7 2 C7.66 2.66 8.32 3.32 9 4 C3.46153846 3.38461538 3.46153846 3.38461538 1.125 1.4375 C0.75375 0.963125 0.3825 0.48875 0 0 Z " fill="#D3A142" transform="translate(155,320)"/>
<path d="M0 0 C0.66 0.66 1.32 1.32 2 2 C1.67 2.33 1.34 2.66 1 3 C0.76472227 5.34987262 0.58613583 7.70556039 0.4375 10.0625 C0.35371094 11.35285156 0.26992187 12.64320313 0.18359375 13.97265625 C0.12300781 14.97167969 0.06242188 15.97070312 0 17 C-0.33 17 -0.66 17 -1 17 C-1.02684679 14.35409986 -1.04676357 11.70846904 -1.0625 9.0625 C-1.07087891 8.30775391 -1.07925781 7.55300781 -1.08789062 6.77539062 C-1.09652441 4.85005687 -1.05224333 2.92464419 -1 1 C-0.67 0.67 -0.34 0.34 0 0 Z " fill="#0B7C33" transform="translate(180,285)"/>
<path d="M0 0 C2.50037734 2.17424117 3.43628586 3.73045798 4 7 C2.68 7.33 1.36 7.66 0 8 C0 5.36 0 2.72 0 0 Z " fill="#CA8F1B" transform="translate(227,274)"/>
<path d="M0 0 C1.74627478 2.61941217 2.38722388 4.03824877 3 7 C1.35 7 -0.3 7 -2 7 C-1.34 4.69 -0.68 2.38 0 0 Z " fill="#FBF7EF" transform="translate(139,560)"/>
<path d="M0 0 C3.875 0.875 3.875 0.875 5 2 C5.04092937 4.33297433 5.04241723 6.66705225 5 9 C4.01 9.495 4.01 9.495 3 10 C2.87625 8.906875 2.7525 7.81375 2.625 6.6875 C2.24535199 2.92618198 2.24535199 2.92618198 0 0 Z " fill="#C6860C" transform="translate(242,333)"/>
<path d="M0 0 C0.66 0.33 1.32 0.66 2 1 C2 2.98 2 4.96 2 7 C1.01 7.495 1.01 7.495 0 8 C-1.125 6.25 -1.125 6.25 -2 4 C-1.125 1.75 -1.125 1.75 0 0 Z " fill="#C7870B" transform="translate(172,279)"/>
<path d="M0 0 C0.99 0.66 1.98 1.32 3 2 C2.67 3.32 2.34 4.64 2 6 C1.34 6 0.68 6 0 6 C-0.66 4.68 -1.32 3.36 -2 2 C-1.34 1.34 -0.68 0.68 0 0 Z " fill="#CA8E1B" transform="translate(167,291)"/>
<path d="M0 0 C1.32 0.66 2.64 1.32 4 2 C3.67 2.99 3.34 3.98 3 5 C1.68 4.34 0.36 3.68 -1 3 C-0.67 2.01 -0.34 1.02 0 0 Z " fill="#C88A12" transform="translate(161,327)"/>
<path d="M0 0 C0.99 0 1.98 0 3 0 C3.33 1.32 3.66 2.64 4 4 C2.68 4 1.36 4 0 4 C-0.33 3.01 -0.66 2.02 -1 1 C-0.67 0.67 -0.34 0.34 0 0 Z " fill="#C88A12" transform="translate(149,294)"/>
<path d="M0 0 C1.9375 0.3125 1.9375 0.3125 4 1 C4.33 1.99 4.66 2.98 5 4 C3.68 4.33 2.36 4.66 1 5 C0.67 3.35 0.34 1.7 0 0 Z " fill="#CE972C" transform="translate(247,290)"/>
<path d="M0 0 C0.66 0.33 1.32 0.66 2 1 C0.35 2.65 -1.3 4.3 -3 6 C-3.99 5.67 -4.98 5.34 -6 5 C-6 4.34 -6 3.68 -6 3 C-4.03533587 1.93224776 -2.03144641 0.93446535 0 0 Z " fill="#43B985" transform="translate(234,262)"/>
</svg>
