<?xml version="1.0" encoding="UTF-8"?>
<svg version="1.1" xmlns="http://www.w3.org/2000/svg" width="4167" height="4167">
<path d="M0 0 C25.51069115 24.36575129 36.04025184 58.94615503 41.59765625 92.84765625 C45.46525941 116.83004329 45.46525941 116.83004329 53.97265625 139.47265625 C54.31506348 140.17181152 54.6574707 140.8709668 55.01025391 141.59130859 C62.09705645 155.65679325 72.214703 163.31584976 87.09765625 168.41015625 C90.58006904 169.22530589 93.82716954 169.54833466 97.40014648 169.5871582 C98.43570175 169.59999344 99.47125702 169.61282867 100.53819275 169.62605286 C101.64965164 169.63343979 102.76111053 169.64082672 103.90625 169.6484375 C105.64371239 169.66054512 105.64371239 169.66054512 107.41627502 169.67289734 C109.8698681 169.68671834 112.32348024 169.69744935 114.77709961 169.70532227 C117.26641542 169.7168042 119.75570735 169.73719523 122.24487305 169.7668457 C142.42603004 170.00708159 159.30431265 169.54498744 174.91015625 155.09765625 C186.61682287 142.57685694 189.49280226 127.03255542 189.41015625 110.47265625 C189.4045166 109.28333496 189.39887695 108.09401367 189.39306641 106.86865234 C189.06000157 82.42960785 181.88110179 60.19043913 172.97119141 37.62744141 C166.83781803 22.05916387 164.5808231 8.36635532 171.38671875 -7.6171875 C177.38471448 -19.30846794 185.619919 -25.430598 198.09765625 -29.58984375 C211.44687034 -30.46732442 222.49055933 -29.52317306 233.11328125 -20.5390625 C255.60798321 1.55711128 264.18258829 46.53525818 269.09765625 76.41015625 C269.2147998 77.10463867 269.33194336 77.79912109 269.45263672 78.51464844 C276.12909371 120.04161571 269.96894668 165.76952533 245.09765625 200.41015625 C228.2641901 222.93508054 206.6063899 237.84462525 179.66015625 245.78515625 C178.90001221 246.01178955 178.13986816 246.23842285 177.35668945 246.47192383 C161.46899722 250.80522711 145.27782431 251.87317251 128.89453125 251.80859375 C127.0333037 251.81062412 125.17207694 251.81354346 123.31085205 251.81729126 C119.44869256 251.82166505 115.58674397 251.81544298 111.72460938 251.80126953 C106.82108254 251.78413218 101.91804697 251.79407941 97.01453781 251.81198692 C93.18451349 251.82291886 89.35460234 251.81933652 85.52457428 251.81160355 C83.71800933 251.80962993 81.91143343 251.81195847 80.10488129 251.81904221 C60.14103407 251.88022124 39.05316332 250.17361829 24.09765625 235.41015625 C20.58547116 231.55448118 17.3127764 227.51456495 14.09765625 223.41015625 C13.34742187 224.33957031 12.5971875 225.26898437 11.82421875 226.2265625 C-0.16254862 240.81486439 -12.80273964 249.04263797 -31.90234375 251.41015625 C-39.97016297 251.9662973 -48.07314358 251.83137538 -56.15527344 251.81420898 C-58.59115918 251.81991975 -61.02704224 251.82688672 -63.46292114 251.83500671 C-69.36395842 251.8510261 -75.26489715 251.85305411 -81.16594455 251.84779381 C-85.96905177 251.8437326 -90.7721277 251.84521867 -95.57523346 251.85054207 C-96.2619799 251.85129049 -96.94872634 251.85203891 -97.65628327 251.85281001 C-99.05196864 251.85434169 -100.447654 251.85588004 -101.84333935 251.85742498 C-114.89843622 251.87111679 -127.95347298 251.86573624 -141.00856844 251.85423977 C-152.91338634 251.84431548 -164.81804863 251.85724003 -176.72284254 251.88117396 C-188.98854339 251.90564492 -201.25417201 251.915153 -213.51989675 251.90852123 C-220.38935576 251.9050461 -227.25869532 251.90714693 -234.12813568 251.92477226 C-240.59288357 251.94115543 -247.057409 251.93618898 -253.52215195 251.91746712 C-255.88183667 251.91380511 -258.24154368 251.9168191 -260.60120773 251.92735291 C-285.39756962 252.02951343 -305.96955771 248.81161401 -324.90234375 231.41015625 C-325.84078125 230.55292969 -326.77921875 229.69570312 -327.74609375 228.8125 C-334.28462619 222.57035708 -339.20919869 216.11552049 -343.90234375 208.41015625 C-346.64742519 211.78216316 -349.2136733 215.22952086 -351.71484375 218.78515625 C-365.59949697 237.86057302 -386.03103819 246.69757966 -408.67370605 250.92793274 C-414.70019789 251.7686533 -420.80558981 251.57477171 -426.87719727 251.5871582 C-428.29392154 251.593432 -429.7106442 251.6000796 -431.12736511 251.60707092 C-435.76198198 251.62800812 -440.39659879 251.63846492 -445.03125 251.6484375 C-446.63413954 251.65248919 -448.23702893 251.65660623 -449.83991814 251.66078758 C-457.37482432 251.67981806 -464.90972085 251.69405248 -472.44464642 251.70239955 C-481.10809936 251.71215836 -489.77129589 251.73845132 -498.43465859 251.77890044 C-505.15343635 251.80918096 -511.87214111 251.82387975 -518.59098572 251.82718056 C-522.59326499 251.82951778 -526.59526971 251.838303 -530.59747505 251.86364174 C-534.36920862 251.88713729 -538.14049099 251.89107089 -541.91227913 251.88088036 C-543.93251576 251.88015882 -545.95273061 251.89909826 -547.97286987 251.91894531 C-564.4610579 251.82643452 -578.90561703 246.7343795 -590.77734375 235.09765625 C-606.31481515 218.73301011 -608.19246817 200.07420825 -608.17673874 178.54781532 C-608.17575874 175.580262 -608.18888826 172.6130566 -608.20571899 169.64555359 C-608.25154233 161.21726131 -608.27656109 152.78900864 -608.28320312 144.3605957 C-608.28826838 139.17772951 -608.31276389 133.99523117 -608.34852982 128.81249046 C-608.35820774 126.85967422 -608.36072687 124.90680661 -608.35535812 122.95397377 C-608.30094161 102.18759063 -611.031215 78.80100864 -625.5234375 62.59765625 C-635.49670751 53.38447379 -647.47566868 52.75193026 -660.38476562 53.23974609 C-679.13042516 54.50860474 -697.4971987 63.66505722 -713.85205078 72.32958984 C-715.95110801 73.43585649 -718.06482815 74.51023946 -720.1796875 75.5859375 C-737.25827877 84.46402884 -753.0349498 95.56393375 -768.90234375 106.41015625 C-769.51331909 106.8275708 -770.12429443 107.24498535 -770.75378418 107.67504883 C-788.21381566 119.62418764 -804.1821919 133.06008235 -819.65234375 147.47265625 C-820.33216309 148.10397461 -821.01198242 148.73529297 -821.71240234 149.38574219 C-822.34742676 149.98290039 -822.98245117 150.58005859 -823.63671875 151.1953125 C-824.19584961 151.7200415 -824.75498047 152.24477051 -825.33105469 152.78540039 C-828.24221661 155.79562142 -829.78804493 157.62435186 -830.40234375 161.84765625 C-829.76261175 166.40574675 -828.45709585 167.56521442 -824.90234375 170.41015625 C-821.66878709 171.15830379 -821.66878709 171.15830379 -818.07499695 171.0493927 C-817.40102224 171.05774838 -816.72704753 171.06610405 -816.03264934 171.07471293 C-813.78124537 171.09660665 -811.53147838 171.08304892 -809.2800293 171.06958008 C-807.66353621 171.07803455 -806.04705331 171.08867924 -804.43058777 171.10134888 C-800.04658418 171.1295062 -795.66306969 171.12702174 -791.2790029 171.11905503 C-786.69584155 171.11593117 -782.1128363 171.14096079 -777.52973938 171.16300964 C-768.85296596 171.20047222 -760.17634927 171.21259894 -751.49950296 171.21563405 C-741.62041837 171.22032247 -731.74149103 171.25323887 -721.86247575 171.2885319 C-701.54244964 171.36049301 -681.22248742 171.39698743 -660.90234375 171.41015625 C-660.86578156 175.74086293 -660.84374074 180.07152937 -660.82421875 184.40234375 C-660.81374512 185.62203857 -660.80327148 186.8417334 -660.79248047 188.09838867 C-660.72899266 206.88443156 -665.89183117 222.51827893 -678.90234375 236.41015625 C-690.73406942 246.20026621 -703.55731813 251.56066305 -718.94023132 251.55732727 C-719.85216352 251.56100396 -720.76409571 251.56468065 -721.70366222 251.56846875 C-724.76037363 251.57948456 -727.81705102 251.58334586 -730.8737793 251.5871582 C-733.06516121 251.5934244 -735.25654206 251.60007134 -737.44792175 251.60707092 C-744.64496117 251.62809366 -751.84200075 251.63847107 -759.0390625 251.6484375 C-761.51807987 251.6524856 -763.99709713 251.65660254 -766.47611427 251.66078758 C-777.45455583 251.67874253 -788.4329928 251.69312192 -799.41144644 251.70096399 C-801.41874751 251.70240241 -803.42604856 251.70385379 -805.43334961 251.70532227 C-806.09779671 251.70580601 -806.7622438 251.70628975 -807.44682566 251.70678815 C-818.20657196 251.71508567 -828.96620699 251.74042021 -839.72590473 251.77290294 C-850.78441604 251.8060144 -861.84286799 251.82365623 -872.90142852 251.82718056 C-879.10568762 251.82953012 -885.3097707 251.83847878 -891.51398277 251.86364174 C-897.35234444 251.88693884 -903.19041438 251.8911489 -909.0288105 251.88088036 C-911.16771287 251.8803853 -913.30662968 251.88669662 -915.44548798 251.9004364 C-918.37385172 251.91819049 -921.30117241 251.91103164 -924.22953796 251.89790344 C-925.48808807 251.91435731 -925.48808807 251.91435731 -926.77206343 251.93114358 C-934.54519054 251.84746558 -942.63897478 249.46976785 -948.46484375 244.07421875 C-956.91986863 234.28660842 -960.49379834 223.83825694 -960.33984375 211.03515625 C-960.3241333 209.65227417 -960.3241333 209.65227417 -960.30810547 208.24145508 C-959.79403138 188.90920543 -947.60615149 173.92737931 -935.90234375 159.41015625 C-935.13921875 158.45367188 -934.37609375 157.4971875 -933.58984375 156.51171875 C-929.29652756 151.18979555 -924.85177973 146.03875384 -920.23828125 140.9921875 C-918.96114002 139.58049795 -917.68995599 138.16296271 -916.44935608 136.71905518 C-911.91076771 131.43988178 -907.11543031 126.47747505 -902.1875 121.5625 C-901.37292831 120.74697159 -900.55835663 119.93144318 -899.71910095 119.09120178 C-898.00675182 117.37817617 -896.29315533 115.6663966 -894.57836914 113.95581055 C-891.9723236 111.35512073 -889.37165853 108.74913669 -886.77148438 106.14257812 C-885.09797676 104.46973139 -883.42415893 102.79719491 -881.75 101.125 C-880.98204605 100.35502182 -880.2140921 99.58504364 -879.42286682 98.79173279 C-875.2626131 94.64925829 -871.01887734 90.67000625 -866.5610199 86.84864807 C-864.57516405 85.12640868 -862.72774901 83.30075455 -860.90234375 81.41015625 C-857.06646796 77.52984947 -853.04672088 73.95567429 -848.90234375 70.41015625 C-847.84846887 69.49274947 -846.79512613 68.5747312 -845.7421875 67.65625 C-838.01342795 60.93800669 -830.1274364 54.51314401 -821.90234375 48.41015625 C-820.91306885 47.67394043 -820.91306885 47.67394043 -819.90380859 46.92285156 C-766.41119805 7.2758232 -697.80936095 -37.07500515 -628.0012207 -26.81420898 C-607.52029807 -23.07066571 -590.53876822 -13.05279949 -575.90234375 1.41015625 C-575.18691406 2.05339844 -574.47148438 2.69664062 -573.734375 3.359375 C-550.13138086 25.07789855 -536.51836969 65.32307075 -534.90234375 96.41015625 C-534.6492586 103.17259148 -534.44402024 109.93659612 -534.33081055 116.70288086 C-534.0275377 132.39653653 -532.80685035 146.40345007 -521.65234375 158.34765625 C-512.69995006 166.66705241 -502.37250718 169.71472036 -490.41796875 169.74609375 C-489.07360748 169.75607895 -489.07360748 169.75607895 -487.7020874 169.76626587 C-485.81280556 169.7763491 -483.92348841 169.78108424 -482.03417969 169.78076172 C-479.17451866 169.78512244 -476.3164186 169.8214534 -473.45703125 169.859375 C-458.58639938 169.95154649 -447.0716855 167.75044359 -435.7421875 157.4453125 C-428.15849514 149.60646787 -423.88300474 139.56098345 -423.71289062 128.63354492 C-423.6961731 127.71034958 -423.67945557 126.78715424 -423.66223145 125.83598328 C-423.64865601 124.84339005 -423.63508057 123.85079681 -423.62109375 122.828125 C-423.60268433 121.78231766 -423.5842749 120.73651031 -423.56530762 119.65901184 C-423.5066965 116.30528285 -423.4540119 112.95149886 -423.40234375 109.59765625 C-423.28113933 101.96687513 -423.14532819 94.33678748 -422.97314453 86.70697021 C-422.92524749 84.47666114 -422.88342434 82.24621471 -422.84716797 80.01568604 C-422.7906853 76.7258672 -422.70879638 73.4375542 -422.62109375 70.1484375 C-422.60278503 68.65874702 -422.60278503 68.65874702 -422.58410645 67.13896179 C-422.40250073 61.45956341 -421.8591487 57.81337222 -417.90234375 53.41015625 C-414.63842471 51.32646585 -412.01767051 51.15540576 -408.1847229 51.14273071 C-407.01832779 51.13420074 -405.85193268 51.12567078 -404.65019226 51.11688232 C-402.73627434 51.11824188 -402.73627434 51.11824188 -400.78369141 51.11962891 C-399.42339204 51.11364309 -398.06309607 51.10683742 -396.70280457 51.09927368 C-393.01058938 51.08161175 -389.3184669 51.07691823 -385.62621355 51.07564211 C-383.31852156 51.07422005 -381.0108531 51.06994943 -378.70316696 51.06464767 C-370.64975234 51.04614674 -362.59640392 51.03797714 -354.54296875 51.03955078 C-347.04024876 51.0407522 -339.53781644 51.01965021 -332.03516924 50.98806345 C-325.5900238 50.96189744 -319.14497229 50.95118362 -312.69977415 50.9524616 C-308.85197865 50.95297114 -305.00443883 50.94729246 -301.15669632 50.9261055 C-297.53684266 50.90671738 -293.9174884 50.90660205 -290.29761696 50.92113876 C-288.34023746 50.92422121 -286.38285788 50.90755436 -284.42555237 50.89025879 C-273.48253692 50.96858471 -273.48253692 50.96858471 -268.90234375 55.41015625 C-266.34193533 58.82367809 -266.61685771 62.37863917 -266.55517578 66.54272461 C-266.54180176 67.2539447 -266.52842773 67.96516479 -266.51464844 68.69793701 C-266.48659545 70.24036317 -266.46279204 71.7828712 -266.44275284 73.32542229 C-266.40977214 75.77857037 -266.36328157 78.23112518 -266.31295776 80.68397522 C-266.17193192 87.65758261 -266.05197598 94.63144624 -265.94873047 101.60571289 C-265.88454689 105.87716411 -265.80183407 110.14795054 -265.70833969 114.41885567 C-265.67663122 116.03519082 -265.6518382 117.65167891 -265.6345253 119.26823235 C-265.47323165 134.12792843 -263.39945585 147.07907669 -252.90234375 158.41015625 C-240.43148287 169.51604729 -227.23605621 170.00043015 -211.3762207 169.95605469 C-209.30565111 169.96479963 -207.23508827 169.9752886 -205.16453552 169.98738098 C-199.57026981 170.01514861 -193.97622563 170.0186477 -188.38190103 170.01766109 C-182.52556205 170.02079813 -176.66932169 170.04643283 -170.81303406 170.06964111 C-159.7352871 170.11014404 -148.65759892 170.13052844 -137.57978934 170.14361501 C-124.96303482 170.15950437 -112.34638007 170.1979282 -99.72968352 170.23820829 C-73.78727044 170.32052916 -47.84486019 170.3746701 -21.90234375 170.41015625 C-22.44213867 169.21592041 -22.98193359 168.02168457 -23.53808594 166.79125977 C-24.25864105 165.18644036 -24.9790086 163.58153674 -25.69921875 161.9765625 C-26.0535498 161.19398071 -26.40788086 160.41139893 -26.77294922 159.60510254 C-33.77490858 143.96336919 -36.96171958 128.4026288 -39.43457031 111.50830078 C-42.73166127 86.94850826 -42.73166127 86.94850826 -56.90234375 67.41015625 C-71.13058831 57.31628568 -87.35626073 52.24771013 -104.71484375 51.97265625 C-105.4713623 51.95041992 -106.22788086 51.92818359 -107.00732422 51.90527344 C-122.7709382 51.96417837 -138.12219716 58.35617456 -152.71484375 63.66015625 C-155.41110474 64.636318 -158.10825858 65.60964506 -160.80827332 66.57537842 C-162.46998098 67.17001471 -164.12955008 67.77067248 -165.78657532 68.37823486 C-166.90506111 68.7793045 -166.90506111 68.7793045 -168.04614258 69.18847656 C-168.69658035 69.42512024 -169.34701813 69.66176392 -170.01716614 69.90557861 C-171.90234375 70.41015625 -171.90234375 70.41015625 -175.90234375 70.41015625 C-179.86930287 56.38747089 -183.5958371 42.30500558 -187.26098633 28.20068359 C-188.22608407 24.49196144 -189.19801241 20.78506709 -190.16992188 17.078125 C-190.78557615 14.71234881 -191.40082582 12.34646729 -192.015625 9.98046875 C-192.45144646 8.32436081 -192.45144646 8.32436081 -192.89607239 6.63479614 C-193.29230049 5.10071609 -193.29230049 5.10071609 -193.6965332 3.53564453 C-193.93016068 2.63951447 -194.16378815 1.7433844 -194.40449524 0.82009888 C-194.90234375 -1.58984375 -194.90234375 -1.58984375 -194.90234375 -5.58984375 C-167.58531315 -15.30354571 -139.53327831 -22.92574713 -110.90234375 -27.58984375 C-109.73227783 -27.78465332 -109.73227783 -27.78465332 -108.53857422 -27.98339844 C-68.99087196 -34.33308574 -30.18480316 -26.93475706 0 0 Z " fill="#229B59" transform="translate(2427.90234375,2470.58984375)"/>
<path d="M0 0 C0.87112427 0.00215515 1.74224854 0.0043103 2.63977051 0.00653076 C17.08299105 0.06357037 31.19088125 0.77631929 45.4375 3.3125 C47.05760986 3.59456299 47.05760986 3.59456299 48.71044922 3.88232422 C103.55931493 13.75276433 155.71565736 39.40907669 197.4375 76.3125 C198.283125 77.05886719 199.12875 77.80523438 200 78.57421875 C202.49611955 80.80232546 204.96844847 83.05444687 207.4375 85.3125 C208.52460345 86.29442157 209.61185132 87.27618327 210.69921875 88.2578125 C215.98567953 93.0537925 221.15132795 97.80804058 225.73046875 103.30078125 C226.96168363 104.75175531 228.24197099 106.16158121 229.55078125 107.54296875 C278.96895673 159.7110918 306.51889851 232.16530603 304.58544922 303.72216797 C303.61837579 327.19045479 299.16629732 350.14415517 291.4375 372.3125 C290.7775 372.3125 290.1175 372.3125 289.4375 372.3125 C288.12839675 370.40751455 286.9203633 368.43301969 285.75390625 366.4375 C285.38687088 365.81454041 285.01983551 365.19158081 284.64167786 364.54974365 C283.42101294 362.47455755 282.21070912 360.3935076 281 358.3125 C280.14548876 356.85662959 279.29017099 355.4012323 278.43408203 353.94628906 C276.65121762 350.91464842 274.87187887 347.88098143 273.09521484 344.84570312 C269.41746381 338.5667873 265.70759236 332.30699766 261.99252319 326.05010986 C261.2025981 324.71957423 260.41307082 323.38880234 259.62393188 322.05780029 C253.69895471 312.0647899 247.69001391 302.12593364 241.63348389 292.21221924 C235.77968769 282.62256781 230.14694057 272.92574582 224.57104492 263.17285156 C220.10134798 255.38327763 215.44141643 247.77091202 210.4375 240.3125 C204.90389191 246.06043798 200.41560794 252.46070098 195.96582031 259.05639648 C187.70414576 271.08976489 187.70414576 271.08976489 182.40576172 273.07299805 C179.20744341 273.62992471 176.89413365 273.52054727 173.93774414 272.17358398 C170.90012292 269.91249751 169.47474075 267.67125524 167.55859375 264.41015625 C167.21743027 263.83499771 166.87626678 263.25983917 166.52476501 262.66725159 C163.0520147 256.76871598 159.77209338 250.76135209 156.5 244.75 C150.5853722 233.96866092 144.3471289 223.42289477 137.91845703 212.94165039 C132.43194228 203.99120781 127.1033726 194.95737026 121.82528687 185.88272095 C115.81667487 175.56101636 109.61020528 165.37334489 103.26147461 155.25732422 C102.62733643 154.24041504 101.99319824 153.22350586 101.33984375 152.17578125 C100.77773193 151.28157471 100.21562012 150.38736816 99.63647461 149.46606445 C98.4375 147.3125 98.4375 147.3125 98.4375 145.3125 C92.9891185 147.80463005 90.46018145 152.08986942 87.1875 156.875 C72.18844108 178.20231833 72.18844108 178.20231833 64.19140625 179.74609375 C63.46824219 179.74738281 62.74507812 179.74867188 62 179.75 C61.27941406 179.76933594 60.55882813 179.78867188 59.81640625 179.80859375 C53.89205607 178.57313813 49.19874509 173.5252099 44.75 169.625 C40.54735839 165.97910208 36.3274356 162.37322638 32 158.875 C26.94895932 154.77334729 22.03621604 150.52658989 17.12963867 146.25463867 C11.47814433 141.33652796 5.76879204 136.49058344 0.0390625 131.6640625 C-1.60178736 130.2793453 -3.23888805 128.89031109 -4.875 127.5 C-9.88196389 123.24735876 -14.90147129 119.01802114 -20 114.875 C-24.86299424 110.91806582 -29.61950203 106.84814058 -34.36865234 102.75634766 C-38.78281766 98.96086633 -43.26583198 95.25972087 -47.78515625 91.58984375 C-51.47009143 88.56830056 -55.09818321 85.48214049 -58.72900391 82.39599609 C-62.12223475 79.51692157 -65.5452672 76.68038508 -69 73.875 C-73.86299424 69.91806582 -78.61950203 65.84814058 -83.36865234 61.75634766 C-87.77787485 57.96511637 -92.25608516 54.26832077 -96.76953125 50.6015625 C-101.08608737 47.06379762 -105.34048839 43.45394533 -109.58984375 39.8359375 C-111.36411749 38.3297866 -113.14553894 36.83189976 -114.94140625 35.3515625 C-116.5169576 34.04656037 -118.04711981 32.68691459 -119.5625 31.3125 C-119.5625 30.6525 -119.5625 29.9925 -119.5625 29.3125 C-82.2811815 9.90929363 -42.0309128 -0.18889163 0 0 Z " fill="#279662" transform="translate(2295.5625,1784.6875)"/>
<path d="M0 0 C1.30661087 0.00273422 1.30661087 0.00273422 2.63961792 0.00552368 C16.72992401 0.05495318 30.49198603 0.73251502 44.375 3.3125 C45.81649414 3.57788574 45.81649414 3.57788574 47.28710938 3.84863281 C73.28464249 8.78390221 97.60891809 17.7895512 121.375 29.3125 C119.86778852 33.07631862 117.72583069 34.89713482 114.5625 37.375 C113.57378906 38.16261719 112.58507813 38.95023438 111.56640625 39.76171875 C110.78160889 40.38506104 110.78160889 40.38506104 109.98095703 41.02099609 C107.27897921 43.19391532 104.64076673 45.44091328 102 47.6875 C101.45835205 48.14697021 100.9167041 48.60644043 100.35864258 49.07983398 C98.69667945 50.4898434 97.03569959 51.9010027 95.375 53.3125 C88.36265442 59.2725827 81.32539195 65.19008795 74.1875 71 C71.05700334 73.57396392 67.96327539 76.18819086 64.875 78.8125 C60.90592065 82.18528574 56.91483137 85.52426517 52.875 88.8125 C46.63583244 93.89425677 40.50608038 99.10144106 34.375 104.3125 C28.26611965 109.50469022 22.15989359 114.69373581 15.9375 119.75 C11.07291376 123.70822956 6.31437822 127.77899061 1.56445312 131.87304688 C-1.93716351 134.88481987 -5.47277593 137.84301691 -9.0625 140.75 C-14.16441756 144.89014224 -19.11654918 149.18795383 -24.06689453 153.5065918 C-28.65299698 157.49763604 -33.32901289 161.35937032 -38.05859375 165.1796875 C-41.59761351 168.12079068 -44.97209447 171.22835069 -48.3359375 174.3671875 C-53.19062646 178.49284467 -56.74126365 180.0278724 -63.08203125 179.765625 C-72.65034899 178.0606713 -78.32072001 167.66509406 -83.625 160.3125 C-84.37523437 159.27351563 -85.12546875 158.23453125 -85.8984375 157.1640625 C-87.21916059 155.33272527 -88.53275701 153.4962055 -89.8359375 151.65234375 C-91.6111018 149.33067691 -93.51234173 147.3274362 -95.625 145.3125 C-100.50456902 152.35918222 -104.88090467 159.68335515 -109.22521973 167.06536865 C-111.32275643 170.62902669 -113.42844212 174.18785533 -115.53515625 177.74609375 C-116.1764296 178.82935944 -116.1764296 178.82935944 -116.83065796 179.93450928 C-120.61126388 186.31025334 -124.45927222 192.64350719 -128.32452393 198.96817017 C-138.63650579 215.84594444 -148.58245603 232.92479231 -158.125 250.25 C-168.48546803 269.00710494 -168.48546803 269.00710494 -174.625 273.3125 C-178.29618573 273.93738268 -180.14327734 273.5428891 -183.5 271.9375 C-189.16013567 267.7143936 -193.14718858 261.44805761 -197.1484375 255.72265625 C-197.7966748 254.79815674 -197.7966748 254.79815674 -198.45800781 253.85498047 C-199.29693745 252.6504855 -200.12754898 251.44013825 -200.94824219 250.22314453 C-203.742543 246.18603639 -206.73593948 243.31665834 -210.625 240.3125 C-210.88297363 241.01109131 -211.14094727 241.70968262 -211.40673828 242.42944336 C-212.75015272 245.60867806 -214.36510218 248.46746602 -216.1171875 251.44140625 C-216.45878906 252.02319641 -216.80039063 252.60498657 -217.15234375 253.20440674 C-218.26474463 255.09668099 -219.38223157 256.98589224 -220.5 258.875 C-221.28031773 260.19934091 -222.06042653 261.52380495 -222.84033203 262.84838867 C-227.48695715 270.73208419 -232.16763673 278.59504347 -236.89086914 286.43310547 C-241.6097374 294.26704362 -246.27299802 302.13362818 -250.9375 310 C-257.39081077 320.88075797 -263.85476608 331.75470471 -270.38696289 342.58837891 C-273.33119946 347.47270392 -276.24892278 352.3691102 -279.11328125 357.30078125 C-279.94001343 358.71278809 -279.94001343 358.71278809 -280.78344727 360.15332031 C-281.81778252 361.92211451 -282.84352204 363.69597332 -283.85913086 365.47558594 C-284.31296143 366.24805664 -284.76679199 367.02052734 -285.234375 367.81640625 C-285.8217041 368.83456421 -285.8217041 368.83456421 -286.42089844 369.87329102 C-286.81825195 370.34822998 -287.21560547 370.82316895 -287.625 371.3125 C-288.615 371.3125 -289.605 371.3125 -290.625 371.3125 C-297.35515533 349.95021524 -302.65786251 328.26433644 -302.86328125 305.7578125 C-302.8730751 304.86683868 -302.88286896 303.97586487 -302.89295959 303.05789185 C-303.06678616 283.13219713 -302.84227217 263.87756176 -298.625 244.3125 C-298.41069336 243.29929687 -298.19638672 242.28609375 -297.97558594 241.2421875 C-287.54679665 193.27279281 -263.89188347 145.82081614 -230.07421875 109.9375 C-228.12230547 107.84549725 -226.2456219 105.72502126 -224.37890625 103.55859375 C-214.45881426 92.17750637 -203.55929761 81.55472185 -191.625 72.3125 C-190.56991582 71.43719839 -189.51802399 70.55803951 -188.46875 69.67578125 C-171.98610166 55.9347919 -153.74175369 44.05122358 -134.625 34.3125 C-133.6963916 33.8386084 -132.7677832 33.3647168 -131.81103516 32.87646484 C-90.52966585 12.0181574 -46.38041418 -0.20310316 0 0 Z " fill="#279661" transform="translate(1869.625,1784.6875)"/>
<path d="M0 0 C0.99422974 0.00215515 1.98845947 0.0043103 3.01281738 0.00653076 C17.48109955 0.05686686 31.66189071 0.35398296 45.875 3.3125 C46.85130371 3.51117676 47.82760742 3.70985352 48.83349609 3.91455078 C72.26306713 8.81636512 99.93643655 15.3674927 119.875 29.3125 C119.875 29.9725 119.875 30.6325 119.875 31.3125 C119.19550293 31.56574539 118.51600586 31.81899078 117.81591797 32.07991028 C98.6630636 39.21852305 79.51291854 46.36437662 60.36477566 53.51561737 C55.33473695 55.39413279 50.30444906 57.27197923 45.27400017 59.14939594 C36.93900947 62.26017626 28.60495398 65.37344045 20.27247429 68.49094105 C16.27610328 69.98608199 12.27932162 71.48010135 8.28149414 72.97134399 C4.5076657 74.37909374 0.73503268 75.79000036 -3.03671837 77.2033062 C-4.4228533 77.72208846 -5.80940967 78.23974629 -7.19642067 78.75618172 C-9.09799933 79.46441858 -10.99789187 80.17717763 -12.89770508 80.89013672 C-13.96136795 81.28772186 -15.02503082 81.68530701 -16.1209259 82.09494019 C-19.21372902 83.34846212 -22.16103531 84.78146788 -25.125 86.3125 C-24.42375 87.13492187 -23.7225 87.95734375 -23 88.8046875 C-17.94671357 94.74520582 -12.95000786 100.71501585 -8.10546875 106.828125 C-5.1457657 110.54088859 -2.12400515 114.20220348 0.89453125 117.8671875 C5.875 124.01664201 5.875 124.01664201 5.875 126.3125 C-19.37937977 136.03666005 -44.66228181 145.68238937 -70 155.1875 C-71.18598785 155.6325589 -72.37197571 156.0776178 -73.59390259 156.53616333 C-84.98823221 160.8092198 -96.38630466 165.06937021 -107.83203125 169.203125 C-108.6219043 169.48854156 -109.41177734 169.77395813 -110.22558594 170.06802368 C-113.74780195 171.33863779 -117.27250379 172.60152092 -120.80224609 173.85107422 C-121.98512207 174.27404785 -123.16799805 174.69702148 -124.38671875 175.1328125 C-125.38662842 175.48617676 -126.38653809 175.83954102 -127.41674805 176.20361328 C-130.18218657 177.33591489 -132.60770865 178.70930886 -135.125 180.3125 C-134.73706958 186.0236978 -133.11498181 189.34356165 -129.5 193.625 C-128.58830376 194.75787698 -127.67815925 195.8920044 -126.76953125 197.02734375 C-126.3204541 197.58147949 -125.87137695 198.13561523 -125.40869141 198.70654297 C-113.74056372 213.30390773 -113.74056372 213.30390773 -114 221.75 C-114.87422737 227.34695566 -118.19095481 230.48115076 -122.125 234.3125 C-122.66382812 234.88613281 -123.20265625 235.45976563 -123.7578125 236.05078125 C-127.86337576 240.36459772 -132.40210514 244.06237753 -137.03515625 247.79296875 C-140.44909217 250.57677237 -143.79043821 253.43465287 -147.125 256.3125 C-152.11405926 260.61262283 -157.16722505 264.81736504 -162.28125 268.96875 C-165.60186594 271.70552138 -168.86543709 274.50356385 -172.125 277.3125 C-177.13814773 281.63184272 -182.21037515 285.86347277 -187.34765625 290.03515625 C-190.46896267 292.59453972 -193.54953424 295.19839916 -196.625 297.8125 C-200.57150481 301.16697127 -204.54142072 304.48471829 -208.5625 307.75 C-212.80892382 311.20524151 -216.97796294 314.73947834 -221.125 318.3125 C-226.13819488 322.63178956 -231.2103732 326.86347119 -236.34765625 331.03515625 C-239.46896267 333.59453972 -242.54953424 336.19839916 -245.625 338.8125 C-249.57150481 342.16697127 -253.54142072 345.48471829 -257.5625 348.75 C-261.83247333 352.22324361 -266.01948761 355.78103531 -270.1875 359.375 C-286.38788251 373.3125 -286.38788251 373.3125 -289.125 373.3125 C-293.08924715 362.34513038 -296.56486744 351.42985145 -298.9375 340 C-299.13174561 339.07251953 -299.32599121 338.14503906 -299.52612305 337.18945312 C-302.47309965 322.33161762 -303.50444559 307.85625344 -303.4375 292.75 C-303.43534485 291.87165497 -303.4331897 290.99330994 -303.43096924 290.08834839 C-303.28331382 252.49724112 -294.40506353 216.22314909 -278.125 182.3125 C-277.75149414 181.51924316 -277.37798828 180.72598633 -276.99316406 179.90869141 C-268.4904234 161.90850978 -258.06897745 145.22542448 -246.125 129.3125 C-245.69364746 128.73693359 -245.26229492 128.16136719 -244.81787109 127.56835938 C-238.89351588 119.7211302 -232.58509773 112.36937798 -225.84375 105.21484375 C-223.62915944 102.85070468 -221.48326959 100.45805068 -219.375 98 C-214.16959608 92.00055141 -208.51436011 86.50115731 -202.484375 81.3359375 C-200.68838525 79.79566814 -198.91028118 78.23451654 -197.140625 76.6640625 C-153.32462731 38.01202377 -97.04362027 10.60355762 -39.125 2.3125 C-37.91730957 2.13517334 -36.70961914 1.95784668 -35.46533203 1.77514648 C-23.64715168 0.14985716 -11.91554565 -0.04649654 0 0 Z " fill="#1E8752" transform="translate(2403.125,1331.6875)"/>
<path d="M0 0 C1.00772461 0.18804199 2.01544922 0.37608398 3.05371094 0.56982422 C53.621331 10.11676 101.06325282 32.60495615 141 65 C141.91136719 65.72058594 142.82273437 66.44117188 143.76171875 67.18359375 C160.94957708 80.93878423 177.49122389 96.60010903 191 114 C191.92397097 115.12625848 192.85127752 116.24978572 193.78125 117.37109375 C238.64152195 171.75649194 263.79947785 242.90613435 257.05224609 313.53686523 C254.96431254 332.63015749 250.28648028 350.88719791 244 369 C239.50206646 369 239.50206646 369 236.71484375 366.47265625 C236.10761475 365.9324585 235.50038574 365.39226074 234.87475586 364.83569336 C234.23546143 364.25053955 233.59616699 363.66538574 232.9375 363.0625 C231.58440809 361.85556485 230.2302356 360.64984006 228.875 359.4453125 C228.21242188 358.85266602 227.54984375 358.26001953 226.8671875 357.64941406 C224.44491441 355.50965504 221.95304116 353.46640373 219.4375 351.4375 C215.22801285 348.02862853 211.10242906 344.53596636 207 341 C201.98413025 336.67821817 196.9082451 332.44520648 191.76953125 328.26953125 C185.89200589 323.45311061 180.12388086 318.505057 174.33398438 313.58398438 C167.87593074 308.09729486 161.38502384 302.66222871 154.8125 297.3125 C151.1190609 294.2756723 147.47701514 291.18039045 143.83374023 288.08374023 C140.44045891 285.2045468 137.01732214 282.36795763 133.5625 279.5625 C128.69950576 275.60556582 123.94299797 271.53564058 119.19384766 267.44384766 C114.77691282 263.64598499 110.29046003 259.94319959 105.76953125 256.26953125 C101.58493957 252.84040887 97.46338467 249.33870144 93.34375 245.83203125 C91.08834537 243.91427396 88.81679384 242.01844037 86.53125 240.13671875 C69.74664108 226.25924798 69.74664108 226.25924798 68.65625 220.0390625 C67.87104618 207.90766349 76.60067454 198.87634699 83.91113281 190.07543945 C84.4109668 189.47304443 84.91080078 188.87064941 85.42578125 188.25 C85.87348877 187.71890625 86.32119629 187.1878125 86.7824707 186.640625 C89.37422842 183.18630193 89.37422842 183.18630193 89.82673645 179.02970886 C88.67582899 176.20413238 87.28557086 175.7491387 84.54882812 174.4777832 C83.64011963 174.05558502 82.73141113 173.63338684 81.79516602 173.19839478 C77.65359601 171.42274502 73.47091234 169.84450402 69.21875 168.35546875 C68.30429611 168.02891296 67.38984222 167.70235718 66.44767761 167.36590576 C64.48703039 166.66592129 62.52547162 165.96848558 60.56307983 165.27340698 C55.28242713 163.40133771 50.01021203 161.50584267 44.73828125 159.609375 C43.12817924 159.03043739 43.12817924 159.03043739 41.48554993 158.43980408 C31.17481602 154.72187121 20.92230705 150.85895737 10.6875 146.9375 C9.42670624 146.45463028 9.42670624 146.45463028 8.14044189 145.96200562 C4.73855067 144.65841657 1.33714616 143.35357138 -2.06347656 142.04667664 C-11.62412276 138.37246418 -21.19685109 134.73006426 -30.76937866 131.08694458 C-35.27631733 129.37145363 -39.78267733 127.65444427 -44.2890625 125.9375 C-45.79638381 125.36327361 -47.30370771 124.78905402 -48.81103516 124.21484375 C-49.86339355 123.81394531 -50.91575195 123.41304687 -52 123 C-50.65303168 120.08324748 -49.11555313 117.74064765 -47.05859375 115.27734375 C-46.47916016 114.57923584 -45.89972656 113.88112793 -45.30273438 113.16186523 C-44.37944336 112.06080444 -44.37944336 112.06080444 -43.4375 110.9375 C-42.16528458 109.40631647 -40.89314917 107.87506646 -39.62109375 106.34375 C-39.00089355 105.59996094 -38.38069336 104.85617187 -37.74169922 104.08984375 C-31.98904418 97.1873028 -26.30273899 90.25747415 -21 83 C-23.95558306 81.02961129 -26.53665628 79.94416918 -29.85498047 78.70703125 C-31.07595932 78.24962051 -32.29693817 77.79220978 -33.55491638 77.32093811 C-34.90898541 76.81806792 -36.26307652 76.31525719 -37.6171875 75.8125 C-39.03997249 75.28102794 -40.46262252 74.74919446 -41.88514709 74.21702576 C-44.94453319 73.07323704 -48.00476341 71.9317467 -51.06564331 70.79196167 C-55.89393449 68.99375197 -60.71977555 67.18903336 -65.54516602 65.38305664 C-72.26889293 62.86710496 -78.99319158 60.35269125 -85.71826172 57.84033203 C-86.56712165 57.52321353 -87.41598158 57.20609503 -88.29056454 56.87936687 C-92.55932274 55.28479511 -96.82827056 53.69073273 -101.09747314 52.09735107 C-110.0752733 48.74649495 -119.05179161 45.39229379 -128.02433395 42.02737999 C-132.61517512 40.30602886 -137.20835145 38.59111068 -141.80334949 36.88088894 C-144.65067823 35.81945649 -147.49576792 34.75212672 -150.34023857 33.6830616 C-151.66178876 33.18773413 -152.98426279 32.69486375 -154.30769539 32.20458794 C-156.10592131 31.53802527 -157.90060886 30.86193952 -159.69506836 30.18530273 C-160.70145859 29.80929428 -161.70784882 29.43328583 -162.74473572 29.04588318 C-165 28 -165 28 -166 26 C-114.90245197 0.62699659 -56.78509336 -11.40074757 0 0 Z " fill="#1E8753" transform="translate(1809,1335)"/>
<path d="M0 0 C1.14797058 0.00182281 2.29594116 0.00364563 3.47869873 0.00552368 C19.97811702 0.049649 36.08930059 0.44982342 52.375 3.3125 C53.91124023 3.56193359 53.91124023 3.56193359 55.47851562 3.81640625 C105.39843781 11.98017305 153.0345634 31.25475708 192.375 63.3125 C193.3043335 64.06829346 193.3043335 64.06829346 194.25244141 64.83935547 C206.87189607 75.18885752 218.34144402 86.41738834 228.375 99.3125 C229.15101563 100.2715625 229.92703125 101.230625 230.7265625 102.21875 C266.375 147.03392857 266.375 147.03392857 266.375 167.3125 C237.30390289 167.38093823 208.23281365 167.43402925 179.16165208 167.46569599 C175.72951271 167.46944811 172.2973735 167.47333107 168.86523438 167.47729492 C168.18195745 167.47808185 167.49868053 167.47886878 166.79469825 167.47967956 C155.73126678 167.49273337 144.66788207 167.51638708 133.60447834 167.54395839 C122.25234553 167.57201329 110.90024738 167.58845188 99.5480777 167.59476548 C93.17175402 167.59868023 86.7955364 167.60789624 80.41924667 167.62969017 C74.41931709 167.65003182 68.41953743 167.65633844 62.41957664 167.65182304 C60.21611021 167.65264928 58.01263884 167.65862863 55.80920219 167.67011642 C52.80270088 167.68502397 49.79676691 167.68145971 46.79025269 167.67326355 C45.91670257 167.68200207 45.04315246 167.6907406 44.14313114 167.69974393 C39.13664685 167.6628086 35.72244323 167.07172575 31.375 164.3125 C28.26859871 160.88474685 27.24942047 157.82065522 27.2421875 153.2421875 C27.24025391 152.43595947 27.23832031 151.62973145 27.23632812 150.79907227 C27.24083984 149.93725342 27.24535156 149.07543457 27.25 148.1875 C27.25193359 147.3018335 27.25386719 146.41616699 27.25585938 145.50366211 C27.3024672 138.25420309 27.65172217 131.04677476 28.15625 123.81640625 C28.3343204 120.96409995 28.39211162 118.16739109 28.375 115.3125 C27.50423828 115.64701172 26.63347656 115.98152344 25.73632812 116.32617188 C14.31768931 120.67749247 2.78607384 124.68142525 -8.76779175 128.65713501 C-14.54601788 130.64568016 -20.32168539 132.64163442 -26.09765625 134.63671875 C-27.25350723 135.03577927 -28.40935822 135.43483978 -29.60023499 135.84599304 C-39.92984387 139.4138098 -50.24873315 143.01168103 -60.5625 146.625 C-62.16104913 147.18441414 -63.75960054 147.74382174 -65.3581543 148.30322266 C-72.75900899 150.89486815 -80.15573995 153.49768161 -87.545578 156.12059021 C-91.01248056 157.35083778 -94.48048662 158.57795872 -97.94851685 159.80502319 C-100.38158195 160.66767408 -102.81275141 161.53552028 -105.24389648 162.40356445 C-106.71068282 162.92294846 -108.17755614 163.44208692 -109.64453125 163.9609375 C-110.31120819 164.20078873 -110.97788513 164.44063995 -111.6647644 164.6877594 C-114.46953409 165.67436516 -116.62479991 166.3125 -119.625 166.3125 C-121.30058058 162.96133885 -120.70174862 159.18909556 -120.65234375 155.5078125 C-120.63969569 153.70963735 -120.62733487 151.91146017 -120.61523438 150.11328125 C-120.59041916 147.27353602 -120.5624576 144.43389595 -120.52905273 141.59423828 C-120.49884085 138.85708952 -120.48107059 136.12007489 -120.46484375 133.3828125 C-120.45138412 132.53478058 -120.4379245 131.68674866 -120.42405701 130.8130188 C-120.42067825 130.01894623 -120.4172995 129.22487366 -120.41381836 128.40673828 C-120.40263222 127.36321701 -120.40263222 127.36321701 -120.39122009 126.2986145 C-120.67088262 123.92269686 -121.37488018 122.34386965 -122.625 120.3125 C-126.81016529 118.21991735 -131.78831718 118.81342378 -136.18487549 120.00808716 C-139.00099688 121.01158618 -141.76907065 122.09807582 -144.5390625 123.22265625 C-146.6792381 124.05814011 -148.82021799 124.89156602 -150.96191406 125.72314453 C-152.06200806 126.15395325 -153.16210205 126.58476196 -154.29553223 127.02862549 C-159.64977098 129.09327099 -165.0530098 131.0149376 -170.4609375 132.93359375 C-171.54976227 133.32151093 -172.63858704 133.7094281 -173.76040649 134.10910034 C-177.17299433 135.3244554 -180.58647875 136.53726936 -184 137.75 C-188.89625284 139.49231268 -193.79197182 141.23612107 -198.6875 142.98046875 C-200.53485245 143.63850998 -200.53485245 143.63850998 -202.41952515 144.30984497 C-211.05823079 147.38978041 -219.68781262 150.49432313 -228.3125 153.61328125 C-230.05812729 154.24410866 -230.05812729 154.24410866 -231.83901978 154.88768005 C-236.32814089 156.51023461 -240.81717014 158.13300281 -245.30389404 159.76217651 C-248.355285 160.87015624 -251.40798428 161.97445885 -254.4609375 163.078125 C-255.36650391 163.40835159 -256.27207031 163.73857819 -257.20507812 164.07881165 C-258.43846924 164.52368172 -258.43846924 164.52368172 -259.69677734 164.97753906 C-260.76912125 165.36670502 -260.76912125 165.36670502 -261.86312866 165.76373291 C-263.625 166.3125 -263.625 166.3125 -265.625 166.3125 C-265.00750292 160.93512957 -263.2371444 156.42800182 -261.125 151.5 C-260.76970215 150.66758789 -260.4144043 149.83517578 -260.04833984 148.97753906 C-249.53073484 124.76547063 -234.902989 103.32502501 -216.625 84.3125 C-216.05620117 83.71646973 -215.48740234 83.12043945 -214.90136719 82.50634766 C-206.92155264 74.18527692 -198.74532772 66.4932873 -189.45263672 59.65722656 C-188.21663915 58.74781238 -186.98661186 57.83023666 -185.76220703 56.90527344 C-148.73313594 28.97056487 -104.49959384 12.77532919 -59.1875 4.5 C-57.59264771 4.20754395 -57.59264771 4.20754395 -55.96557617 3.90917969 C-37.34000609 0.69802097 -18.87115944 -0.06223435 0 0 Z " fill="#238F5B" transform="translate(1733.625,1583.6875)"/>
<path d="M0 0 C1.56561424 -0.01052147 1.56561424 -0.01052147 3.16285706 -0.02125549 C6.51486573 -0.03866986 9.86669774 -0.04510829 13.21875 -0.046875 C14.36391083 -0.04754974 15.50907166 -0.04822449 16.68893433 -0.04891968 C33.56219505 -0.03310815 50.04670958 0.37431496 66.71875 3.203125 C67.77594238 3.37473145 68.83313477 3.54633789 69.92236328 3.72314453 C123.61094878 12.61166756 177.09399549 33.86695163 217.47265625 71.14453125 C219.42829276 72.93691462 221.42919258 74.63352444 223.46875 76.328125 C249.59460336 99.24091978 269.571523 131.46275961 280.71875 164.203125 C280.71875 164.863125 280.71875 165.523125 280.71875 166.203125 C273.08123215 164.23734693 265.67189229 161.88484838 258.2578125 159.203125 C257.17336349 158.81471939 256.08891449 158.42631378 254.97160339 158.02613831 C251.42755333 156.75575182 247.88564205 155.47951437 244.34375 154.203125 C241.86561251 153.31334742 239.38733895 152.42394875 236.90893555 151.53491211 C232.41887656 149.92392443 227.92939337 148.31134884 223.44058514 146.69687939 C215.19698265 143.73204291 206.94891101 140.77988105 198.69921875 137.83203125 C195.12378255 136.55362831 191.54841575 135.2750315 187.9730835 133.99633789 C185.70078551 133.18382141 183.42836763 132.37164015 181.15582275 131.55981445 C177.97442615 130.42291383 174.79363651 129.28434143 171.61328125 128.14453125 C170.14936195 127.62023277 170.14936195 127.62023277 168.65586853 127.08534241 C162.44689835 124.85198389 156.2871691 122.52836429 150.17089844 120.05078125 C146.36230973 118.73423207 143.70455004 118.55090317 139.71875 119.203125 C136.75016843 121.41053181 135.89009209 122.68909873 134.71875 126.203125 C134.63330709 127.53841307 134.60100375 128.87756388 134.60522461 130.21557617 C134.60533791 131.4164814 134.60533791 131.4164814 134.60545349 132.64164734 C134.61061478 133.50111465 134.61577606 134.36058197 134.62109375 135.24609375 C134.6225087 136.1296907 134.62392365 137.01328766 134.62538147 137.92366028 C134.63097931 140.74601628 134.64353139 143.56829297 134.65625 146.390625 C134.66126528 148.30403531 134.66582814 150.21744687 134.66992188 152.13085938 C134.68094803 156.82164514 134.69821117 161.51237163 134.71875 166.203125 C128.97645545 165.60424126 123.98389654 164.06676936 118.57421875 162.08984375 C117.22802208 161.60772179 117.22802208 161.60772179 115.85462952 161.11585999 C113.89978096 160.41531259 111.94595505 159.71190646 109.99304199 159.00598145 C104.62432389 157.06609228 99.24757818 155.14870705 93.87109375 153.23046875 C92.73241852 152.8237796 91.59374329 152.41709045 90.42056274 151.99807739 C76.97448471 147.20667239 63.4705986 142.58442578 49.96875 137.953125 C28.47580222 130.5745113 7.04903534 123.03980981 -14.28125 115.203125 C-14.22066406 115.99895996 -14.16007812 116.79479492 -14.09765625 117.61474609 C-13.82166878 121.2689264 -13.55142132 124.92351026 -13.28125 128.578125 C-13.13816406 130.45564453 -13.13816406 130.45564453 -12.9921875 132.37109375 C-11.36001835 154.63854426 -11.36001835 154.63854426 -15.28125 162.203125 C-20.42907012 167.22538853 -24.28655122 167.34617984 -31.21548462 167.32337952 C-32.62074813 167.32466115 -32.62074813 167.32466115 -34.0544008 167.32596868 C-37.21288133 167.32762385 -40.37130947 167.32210149 -43.52978516 167.31665039 C-45.78620909 167.3163685 -48.04263312 167.31652629 -50.29905701 167.3170929 C-56.44131265 167.3173808 -62.58354891 167.31148519 -68.72580004 167.30451894 C-75.13868138 167.29828425 -81.55156312 167.29768151 -87.96444702 167.29649353 C-98.73346355 167.29373464 -109.50247157 167.28748071 -120.27148438 167.27856445 C-131.36490849 167.26938913 -142.45833067 167.26230888 -153.55175781 167.25805664 C-154.57700262 167.25766256 -154.57700262 167.25766256 -155.62295945 167.25726051 C-159.05177049 167.2559555 -162.48058154 167.25469178 -165.9093926 167.25344861 C-194.36668331 167.24307745 -222.82396627 167.22538619 -251.28125 167.203125 C-250.69978448 163.51662296 -250.08703453 160.28915834 -248.56640625 156.875 C-248.21537842 156.08456299 -247.86435059 155.29412598 -247.50268555 154.47973633 C-247.12023682 153.64595459 -246.73778809 152.81217285 -246.34375 151.953125 C-245.94260986 151.07487061 -245.54146973 150.19661621 -245.12817383 149.29174805 C-234.68111337 126.77747312 -221.05075551 106.7670167 -204.3046875 88.44921875 C-202.70713072 86.67586904 -201.19741508 84.88628518 -199.71875 83.015625 C-197.18302957 80.08979373 -194.49935067 77.66929044 -191.5546875 75.16796875 C-189.06446515 73.01576627 -186.68124575 70.76787326 -184.28125 68.515625 C-171.17262396 56.62807646 -156.49593338 47.16350223 -141.28125 38.203125 C-140.30236816 37.62353027 -140.30236816 37.62353027 -139.30371094 37.03222656 C-98.48022383 13.18306925 -47.15852777 0.21302926 0 0 Z " fill="#238F5B" transform="translate(2418.28125,1583.796875)"/>
<path d="M0 0 C1.1257695 -0.00708481 2.251539 -0.01416962 3.41142273 -0.02146912 C5.25756668 -0.01775299 5.25756668 -0.01775299 7.14100647 -0.01396179 C8.44053757 -0.01907272 9.74006866 -0.02418365 11.07897949 -0.02944946 C14.64097684 -0.04283644 18.20286806 -0.04341849 21.76488566 -0.04088616 C24.73956168 -0.03981625 27.71421624 -0.04470032 30.68888766 -0.04949158 C37.70712328 -0.06058571 44.72530538 -0.06102471 51.74354553 -0.05497742 C58.98153575 -0.04893664 66.21933162 -0.06125139 73.45728868 -0.08254749 C79.67396913 -0.10016551 85.89058774 -0.10616454 92.10729223 -0.10290974 C95.81919073 -0.10109707 99.53095059 -0.1037314 103.24282646 -0.11762428 C107.38219184 -0.13253757 111.5211618 -0.12323079 115.66053772 -0.11161804 C116.88927612 -0.11926178 118.11801453 -0.12690552 119.38398743 -0.13478088 C120.51257675 -0.12776657 121.64116608 -0.12075226 122.80395508 -0.11352539 C123.78231292 -0.11369313 124.76067076 -0.11386087 125.7686758 -0.1140337 C130.19160257 0.50054943 133.62742126 2.8550387 136.46546936 6.26069641 C137.72908886 10.0515549 137.70011491 13.65769663 137.78187561 17.61225891 C137.80292862 18.4749942 137.82398163 19.33772949 137.84567261 20.22660828 C137.91313838 23.1128689 137.97182983 25.99919398 138.02796936 28.88569641 C138.04748657 29.87746887 138.06700378 30.86924133 138.08711243 31.8910675 C138.21263051 38.47193233 138.317173 45.05298251 138.41218567 51.63435364 C138.44849295 54.10532831 138.48669659 56.57627567 138.52656555 59.04719543 C138.65214754 66.84408156 138.74830237 74.64043547 138.8065033 82.43812561 C138.82910331 84.98155139 138.86025921 87.52491588 138.90007019 90.06813049 C138.95383403 93.65342379 138.97531801 97.23755539 138.98890686 100.82319641 C139.01153091 101.8931485 139.03415497 102.96310059 139.0574646 104.06547546 C139.03444907 112.22090573 139.03444907 112.22090573 136.05775452 115.91304016 C132.42310238 119.20469725 130.78983568 119.38765955 125.98835754 119.40786743 C124.82471176 119.41502274 123.66106598 119.42217804 122.4621582 119.42955017 C121.17902237 119.43223907 119.89588654 119.43492798 118.5738678 119.43769836 C117.21386542 119.44396237 115.85386475 119.45060911 114.49386597 119.45761108 C110.79329229 119.47502802 107.09273155 119.485575 103.39212704 119.49381661 C101.08009809 119.49896596 98.76807317 119.50504176 96.45604706 119.51132774 C89.22228028 119.53038291 81.98852372 119.5446126 74.75473666 119.55293971 C66.40470224 119.56271036 58.05493303 119.58902379 49.70499206 119.62944061 C43.25140589 119.6596061 36.79789572 119.67440904 30.34424043 119.67772073 C26.48969148 119.68007099 22.63542576 119.68902769 18.78095245 119.7141819 C15.15294008 119.73747514 11.52539712 119.74169116 7.89732933 119.73142052 C5.93514359 119.73068965 3.97298163 119.74977278 2.01089478 119.76948547 C-8.95788739 119.70465988 -8.95788739 119.70465988 -13.53453064 115.26069641 C-15.78356308 112.12794182 -15.77447404 109.40630762 -15.745224 105.61177063 C-15.7390078 103.90732285 -15.7390078 103.90732285 -15.73266602 102.16844177 C-15.71755478 100.93818268 -15.70244354 99.70792358 -15.68687439 98.44038391 C-15.67857101 97.1547757 -15.67026764 95.86916748 -15.66171265 94.54460144 C-15.63840192 91.13123786 -15.60151016 87.71817316 -15.55951691 84.30499268 C-15.53523051 82.31795768 -15.5135107 80.33089183 -15.49186707 78.34382629 C-15.40622227 70.64947789 -15.29332006 62.95586293 -15.16221619 55.26216125 C-15.09623792 51.33855491 -15.03692797 47.41488141 -14.97789001 43.49116516 C-14.86609444 36.41330657 -14.71539964 29.33710754 -14.53453064 22.26069641 C-14.51525513 21.39102234 -14.49597961 20.52134827 -14.47612 19.62532043 C-14.42233104 17.49957638 -14.34318574 15.37717822 -14.24937439 13.25288391 C-14.20804382 12.18151184 -14.16671326 11.11013977 -14.12413025 10.00630188 C-13.37294245 6.50822402 -12.02376938 4.8009159 -9.53453064 2.26069641 C-6.3048177 0.23417882 -3.78016724 0.00793491 0 0 Z " fill="#219057" transform="translate(2021.5345306396484,2392.739303588867)"/>
<path d="M0 0 C1.08362823 -0.00852997 2.16725647 -0.01705994 3.28372192 -0.02584839 C4.46256454 -0.02494202 5.64140717 -0.02403564 6.85597229 -0.02310181 C8.10527527 -0.02981903 9.35457825 -0.03653625 10.64173889 -0.04345703 C14.0612326 -0.05918613 17.48048341 -0.06581117 20.89999652 -0.0670886 C23.03800731 -0.06851206 25.17599278 -0.07278529 27.31399727 -0.07808304 C34.77738685 -0.09657272 42.24070509 -0.10475479 49.70411682 -0.10317993 C56.65416692 -0.1019781 63.60390668 -0.12309108 70.55387825 -0.15466726 C76.52771125 -0.18083853 82.50144292 -0.19154691 88.4753328 -0.19026911 C92.04031138 -0.18975982 95.60501391 -0.19542483 99.16993523 -0.21662521 C103.14613298 -0.23962734 107.12190636 -0.23048141 111.09815979 -0.21841431 C112.27497818 -0.22965332 113.45179657 -0.24089233 114.66427612 -0.25247192 C120.91235799 -0.20422754 124.83883986 -0.01993813 129.54176331 4.26742554 C133.26473062 9.48027021 133.01380326 14.81069034 133.05348206 20.97836304 C133.08081673 22.56990707 133.08081673 22.56990707 133.10870361 24.19360352 C133.16415543 27.67651976 133.19784933 31.15921522 133.22926331 34.64242554 C133.25876806 37.05649552 133.28888557 39.47055808 133.31959534 41.88461304 C133.37944294 46.86210368 133.42819677 51.83955687 133.46998596 56.81723022 C133.52266828 62.84302833 133.61247442 68.86747724 133.71670532 74.89257812 C133.78845302 79.30378973 133.8378342 83.71504012 133.88078308 88.12661743 C133.90466487 90.21132164 133.93663685 92.2959497 133.97691345 94.38040161 C134.03035429 97.28058236 134.05181616 100.1793214 134.06520081 103.07992554 C134.08781479 103.92753448 134.11042877 104.77514343 134.13372803 105.6484375 C134.11887743 109.83694917 133.81303897 112.46020209 131.13404846 115.77914429 C127.57030376 119.19990959 126.02937808 119.39373469 121.21650696 119.41459656 C120.08651779 119.42175186 118.95652863 119.42890717 117.79229736 119.4362793 C115.92369804 119.44031265 115.92369804 119.44031265 114.01734924 119.44442749 C112.70996292 119.45099869 111.4025766 119.45756989 110.05557251 119.46434021 C106.4624336 119.48175607 102.86930801 119.49230386 99.27613735 119.50054574 C97.03111223 119.50569538 94.78609124 119.51177117 92.54106903 119.51805687 C85.51660525 119.53711185 78.492152 119.55134151 71.46766734 119.55966884 C63.35987151 119.56943903 55.25234885 119.5957513 47.14464927 119.63616973 C40.87789801 119.66633804 34.61122501 119.68113843 28.34440255 119.68444985 C24.60163272 119.68679982 20.85915462 119.69575262 17.11646271 119.72091103 C12.93871904 119.74853947 8.76158472 119.74435846 4.58375549 119.73739624 C3.34611954 119.7502063 2.10848358 119.76301636 0.83334351 119.7762146 C-5.51705742 119.73757687 -9.70226263 119.69075856 -14.45823669 115.26742554 C-16.93359371 111.18328562 -16.70407217 106.95555232 -16.61058044 102.31430054 C-16.60227707 101.49919006 -16.59397369 100.68407959 -16.5854187 99.8442688 C-16.55321468 96.98510222 -16.50539181 94.12638285 -16.45823669 91.26742554 C-16.429012 88.99985685 -16.40056759 86.73227801 -16.37278748 84.46469116 C-16.29121996 78.13044854 -16.19177547 71.7966176 -16.08592224 65.46273804 C-16.02108167 61.53830488 -15.96122946 57.61381583 -15.90159607 53.68930054 C-15.80237805 47.39892744 -15.67904577 41.10944568 -15.53617859 34.81991577 C-15.48487704 32.48165791 -15.4392735 30.14326694 -15.39982605 27.80477905 C-15.34331055 24.61965624 -15.26185674 21.43616542 -15.17308044 18.25180054 C-15.16112137 17.32152039 -15.14916229 16.39124023 -15.13684082 15.43276978 C-14.95059271 9.96774628 -14.28078643 6.48297075 -10.45823669 2.26742554 C-6.87657605 0.49325745 -3.97342945 0.01418454 0 0 Z " fill="#219057" transform="translate(2024.458236694336,2263.7325744628906)"/>
<path d="M0 0 C1.20068115 -0.00525696 2.4013623 -0.01051392 3.63842773 -0.01593018 C6.91948593 -0.02684784 10.20017919 -0.02432219 13.48123169 -0.01479292 C16.92174013 -0.00717518 20.36222493 -0.01424779 23.80273438 -0.01895142 C29.57947133 -0.02440284 35.35609306 -0.01723355 41.1328125 -0.00292969 C47.80280542 0.01339574 54.4725232 0.00810679 61.14250946 -0.0084089 C66.87858173 -0.02204134 72.61457136 -0.02393487 78.3506546 -0.0160929 C81.77247118 -0.011426 85.19415861 -0.01076429 88.6159668 -0.02070236 C92.4316671 -0.0283207 96.24683904 -0.01670616 100.0625 0 C101.19099365 -0.00607269 102.3194873 -0.01214539 103.48217773 -0.0184021 C109.06751759 0.02690193 113.24225414 0.162915 118.03125 3.38818359 C122.03699594 7.53205871 122.144675 12.30427674 122.23657227 17.84472656 C122.25649734 18.92100815 122.27642242 19.99728973 122.29695129 21.10618591 C122.32205025 22.85065758 122.32205025 22.85065758 122.34765625 24.63037109 C122.36861862 25.8509169 122.38958099 27.07146271 122.41117859 28.32899475 C122.46619504 31.62595433 122.5168415 34.92293633 122.56428528 38.22001266 C122.59372725 40.26160622 122.62419865 42.30318221 122.65490723 44.34475708 C122.77601405 52.45258724 122.88416416 60.56052696 122.98443604 68.66864014 C123.02759147 72.09749972 123.07451449 75.52628421 123.12255859 78.95507812 C123.18557154 83.58778034 123.23234323 88.22030086 123.26242065 92.85333252 C123.27489457 94.49119608 123.29234761 96.12902987 123.31497192 97.76678467 C123.34437086 100.0040583 123.35466487 102.24058491 123.359375 104.47802734 C123.3687207 105.70384521 123.37806641 106.92966309 123.38769531 108.19262695 C122.9011923 112.55415975 121.48489843 115.06019101 118.26152611 118.00492954 C115.50955953 119.71174463 113.84197594 119.76765512 110.61734009 119.77586365 C109.51825821 119.78576828 108.41917633 119.79567291 107.28678894 119.80587769 C106.08564957 119.80137604 104.88451019 119.79687439 103.64697266 119.79223633 C102.37830856 119.79909958 101.10964447 119.80596283 99.80253601 119.81303406 C96.32513493 119.83097837 92.84798602 119.82979452 89.37055254 119.82409167 C86.46555019 119.82100092 83.56059635 119.82709116 80.65560091 119.83313042 C73.80030747 119.84717887 66.94513864 119.8456124 60.08984375 119.83422852 C53.02335323 119.82275303 45.95724249 119.83681235 38.89080203 119.86362499 C32.81931311 119.88579782 26.74794327 119.89241565 20.67641675 119.88654858 C17.05219709 119.8831808 13.42822072 119.88558156 9.80403519 119.90279961 C5.76055195 119.92117091 1.71780487 119.90706554 -2.32568359 119.88989258 C-4.12131996 119.90439453 -4.12131996 119.90439453 -5.95323181 119.91918945 C-16.42657588 119.82595664 -16.42657588 119.82595664 -20.96875 115.38818359 C-23.20195876 111.56478087 -23.19232094 108.16183193 -23.11987305 103.79492188 C-23.11201782 103.15148331 -23.1041626 102.50804474 -23.09606934 101.84510803 C-23.0675102 99.71595717 -23.02412831 97.58738667 -22.98046875 95.45849609 C-22.9567552 93.94808206 -22.93388886 92.43765452 -22.91181946 90.92721558 C-22.86323937 87.74446798 -22.80796648 84.56193469 -22.74731445 81.37939453 C-22.67149611 77.4009214 -22.60629218 73.42238126 -22.5454998 69.44365311 C-22.41544474 60.93912786 -22.2518829 52.43571584 -22.06536865 43.93225098 C-21.9991603 40.89384966 -21.94034542 37.85543946 -21.88775635 34.81677246 C-21.82457908 31.18399283 -21.74731159 27.55178121 -21.65928078 23.91952133 C-21.61448219 21.93360843 -21.58362203 19.94739649 -21.55314636 17.96121216 C-21.52118668 16.77035004 -21.48922699 15.57948792 -21.45629883 14.35253906 C-21.43449051 13.31628387 -21.41268219 12.28002869 -21.39021301 11.21237183 C-20.88721958 7.84185508 -20.09416422 6.05539971 -17.96875 3.38818359 C-12.50737639 -0.61527054 -6.48550923 -0.03490007 0 0 Z " fill="#219057" transform="translate(2032.96875,2134.61181640625)"/>
<path d="M0 0 C0.99673737 -0.00571014 1.99347473 -0.01142029 3.02041626 -0.01730347 C4.11294205 -0.01842133 5.20546783 -0.01953918 6.33110046 -0.02069092 C8.05831329 -0.02813828 8.05831329 -0.02813828 9.82041931 -0.03573608 C13.63868299 -0.0503694 17.45690512 -0.05716164 21.27519226 -0.06268311 C23.25515362 -0.06698062 25.23511497 -0.07127866 27.21507615 -0.07565761 C32.73281998 -0.08746829 38.25055375 -0.0950058 43.76830894 -0.09845281 C50.89859621 -0.10293194 58.02869164 -0.1204741 65.15892059 -0.1494534 C70.67410749 -0.17108868 76.1892405 -0.18115808 81.70446938 -0.18249393 C84.99670237 -0.18354072 88.28871409 -0.19087195 91.58091164 -0.20731354 C95.25560184 -0.22435541 98.92982435 -0.22249799 102.60453796 -0.21600342 C104.23421761 -0.22982559 104.23421761 -0.22982559 105.89682007 -0.243927 C112.38895899 -0.20795821 117.13072883 0.18598221 121.99517822 4.92730713 C123.54399026 7.8651947 123.66820823 10.23816047 123.82963562 13.55059814 C123.89399811 14.79857178 123.9583606 16.04654541 124.02467346 17.33233643 C124.23185409 23.08124188 124.39443671 28.82584392 124.47831726 34.57794189 C124.49909836 35.81874512 124.51987946 37.05954834 124.54129028 38.33795166 C124.58423319 40.95307508 124.62531064 43.56822974 124.66459656 46.18341064 C124.7234283 50.07543031 124.78884144 53.96729533 124.85527039 57.85919189 C124.96209578 64.29619812 125.04112357 70.73320647 125.11045837 77.17071533 C125.15485432 80.59599657 125.21741218 84.02003882 125.28858662 87.44480896 C125.34192379 90.20245055 125.3781291 92.96015024 125.41055107 95.71810913 C125.43853722 97.65332437 125.48691512 99.58821083 125.53582764 101.52301025 C125.63418428 112.43119701 125.63418428 112.43119701 121.16191101 117.14044189 C117.85531352 119.34484022 116.85767744 119.39262759 113.01338196 119.40113831 C111.41513832 119.41176552 111.41513832 119.41176552 109.78460693 119.42260742 C108.61570419 119.42013 107.44680145 119.41765259 106.24247742 119.4151001 C105.01136734 119.42021103 103.78025726 119.42532196 102.51184082 119.43058777 C99.13361049 119.44211949 95.75562525 119.44455512 92.37739229 119.44202447 C89.55685632 119.44095529 86.73634302 119.44583689 83.9158119 119.45062989 C77.26052303 119.46172946 70.6052906 119.46216029 63.94999695 119.45611572 C57.08635994 119.45007769 50.22292802 119.46238145 43.359326 119.48368579 C37.46537997 119.50130706 31.57149919 119.50730224 25.67752779 119.50404805 C22.15787773 119.50223551 18.6383739 119.50486807 15.11874771 119.51876259 C11.19246133 119.53368197 7.26643557 119.52436613 3.34013367 119.51275635 C2.17527939 119.52040009 1.01042511 119.52804382 -0.18972778 119.53591919 C-1.26086319 119.52890488 -2.3319986 119.52189056 -3.43559265 119.5146637 C-4.82764703 119.51491531 -4.82764703 119.51491531 -6.24782372 119.515172 C-9.41028663 119.05766285 -11.2651915 118.01230175 -13.83808899 116.14044189 C-16.12463662 112.71062045 -16.08658454 111.48367818 -16.08100891 107.45196533 C-16.08403015 106.2754541 -16.08705139 105.09894287 -16.09016418 103.88677979 C-16.08303406 102.60408203 -16.07590393 101.32138428 -16.06855774 99.99981689 C-16.06782801 98.65175394 -16.06788433 97.30369036 -16.06867981 95.95562744 C-16.06783905 92.34605195 -16.05373905 88.73664846 -16.03593063 85.12712097 C-16.0256166 82.89641421 -16.01842986 80.66571952 -16.01231384 78.43499756 C-15.98404866 68.33653526 -15.9228635 58.23858197 -15.83808899 48.14044189 C-15.82842102 46.97190674 -15.81875305 45.80337158 -15.80879211 44.59942627 C-15.75725487 38.84443447 -15.6858513 33.09048959 -15.57261658 27.33636475 C-15.54147291 25.71657082 -15.51470009 24.09668648 -15.49247742 22.47674561 C-15.45980661 20.27546688 -15.40813184 18.07554516 -15.34980774 15.87481689 C-15.32362366 14.68082275 -15.29743958 13.48682861 -15.27046204 12.25665283 C-14.66935467 7.92433527 -13.11078848 5.25405395 -9.83808899 2.39044189 C-6.51976677 0.31649051 -3.8194614 0.01310468 0 0 Z " fill="#219057" transform="translate(2028.8380889892578,2005.8595581054688)"/>
<path d="M0 0 C1.10153915 -0.00525696 2.20307831 -0.01051392 3.33799744 -0.01593018 C6.97295383 -0.02911497 10.60747092 -0.02039648 14.24243164 -0.01025391 C16.77299585 -0.01227521 19.30355949 -0.01518712 21.8341217 -0.01895142 C27.13589566 -0.02337285 32.43751284 -0.01723713 37.73925781 -0.00292969 C43.85597113 0.01338716 49.97238427 0.00811268 56.08909029 -0.0084089 C61.98802861 -0.02370056 67.88687425 -0.02203424 73.78582954 -0.0132637 C76.28923141 -0.01126462 78.79264096 -0.01371068 81.29603386 -0.02070236 C84.79782155 -0.0283356 88.29903615 -0.0166851 91.80078125 0 C92.83217224 -0.00607269 93.86356323 -0.01214539 94.9262085 -0.0184021 C100.71086626 0.03256325 104.86677068 0.57976233 109.96508789 3.38818359 C113.64418329 7.52142399 113.49009393 12.01932942 113.61743164 17.29443359 C113.64973373 18.20173218 113.68203583 19.10903076 113.71531677 20.04382324 C113.81807741 23.15837809 113.89453965 26.27273636 113.96508789 29.38818359 C114.00584442 31.10811523 114.00584442 31.10811523 114.04742432 32.86279297 C114.23687224 41.20243978 114.37426969 49.54250283 114.49731445 57.88336182 C114.54765428 61.21705599 114.60356023 64.55065504 114.65844727 67.88427734 C114.76131563 74.22869215 114.84034849 80.57315397 114.91363525 86.91796875 C114.96229037 90.19950551 115.04274035 93.47864728 115.13256836 96.75927734 C115.16957293 98.64598861 115.20622048 100.53270693 115.24243164 102.41943359 C115.29023521 103.67065002 115.29023521 103.67065002 115.33900452 104.94714355 C115.41192176 110.24988829 114.51385308 113.19466018 110.96508789 117.38818359 C107.69296784 119.56959696 106.75814849 119.64021442 102.96841431 119.64888 C101.93657516 119.65596481 100.90473602 119.66304962 99.84162903 119.67034912 C98.71012924 119.6678717 97.57862946 119.66539429 96.4128418 119.6628418 C95.220746 119.66795273 94.02865021 119.67306366 92.8004303 119.67832947 C89.52966808 119.68985997 86.25906277 119.69229698 82.98828554 119.68976617 C80.25722109 119.68869687 77.52618004 119.6935789 74.7951206 119.69837159 C68.35078202 119.70947063 61.90650172 119.70990231 55.4621582 119.70385742 C48.81664486 119.69781958 42.17134335 119.71012276 35.52586615 119.73142749 C29.81875466 119.74905038 24.11171054 119.75504368 18.40457284 119.75178975 C14.99670364 119.74997745 11.58898545 119.75260735 8.1811409 119.76650429 C4.37930161 119.77881807 0.57795425 119.77210662 -3.22387695 119.76049805 C-4.91505394 119.77196365 -4.91505394 119.77196365 -6.64039612 119.78366089 C-8.1966143 119.77313942 -8.1966143 119.77313942 -9.78427124 119.7624054 C-10.68281012 119.76257314 -11.58134899 119.76274088 -12.50711632 119.7629137 C-15.60412634 119.3038011 -17.49417969 118.18625925 -20.03491211 116.38818359 C-22.05655096 113.45161056 -22.28376999 111.05698875 -22.27783203 107.53930664 C-22.28084824 106.56850662 -22.28386444 105.5977066 -22.28697205 104.5974884 C-22.27984695 103.542285 -22.27272186 102.4870816 -22.26538086 101.39990234 C-22.26550926 99.73328804 -22.26550926 99.73328804 -22.26564026 98.03300476 C-22.26233869 94.38044304 -22.24342157 90.7281837 -22.22241211 87.07568359 C-22.21284786 84.55501349 -22.20340886 82.03434291 -22.1940918 79.51367188 C-22.16529922 73.06351776 -22.11848141 66.61362659 -22.06488037 60.16363525 C-22.03597064 56.52153851 -22.01343858 52.87945451 -21.99243164 49.23730469 C-21.95822369 43.76463884 -21.9011391 38.29269602 -21.82437134 32.82046509 C-21.7981869 30.79170775 -21.77825074 28.76285959 -21.76473999 26.73397827 C-21.74363661 23.91753872 -21.69742329 21.10261393 -21.64428711 18.28662109 C-21.64304337 17.46723557 -21.64179962 16.64785004 -21.64051819 15.80363464 C-21.50565085 10.58916637 -20.62283981 7.42816319 -17.03491211 3.38818359 C-11.53826578 -0.28209741 -6.37237977 -0.03744623 0 0 Z " fill="#219057" transform="translate(2037.034912109375,1876.61181640625)"/>
<path d="M0 0 C0.91956482 -0.00571014 1.83912964 -0.01142029 2.78656006 -0.01730347 C4.2967572 -0.01898026 4.2967572 -0.01898026 5.83746338 -0.02069092 C6.89955017 -0.02565582 7.96163696 -0.03062073 9.0559082 -0.03573608 C12.57717533 -0.05036677 16.09839739 -0.0571616 19.61968994 -0.06268311 C22.06486004 -0.06843425 24.51003013 -0.07419199 26.9552002 -0.07995605 C32.08652965 -0.09046893 37.21784342 -0.09630958 42.34918213 -0.09979248 C48.92093713 -0.1052747 55.49248468 -0.12929593 62.06417465 -0.15776443 C67.11711225 -0.17639917 72.17 -0.18159689 77.22296906 -0.18312836 C79.6454405 -0.18615402 82.06791109 -0.1941796 84.49034882 -0.20731354 C87.8822552 -0.22438936 91.27365631 -0.22248962 94.66558838 -0.21600342 C95.66428955 -0.2252182 96.66299072 -0.23443298 97.69195557 -0.243927 C103.38279007 -0.20987927 107.56899601 0.2012635 112.51031494 3.14044189 C115.37374083 6.6375475 115.89954448 9.41942086 115.9956665 13.87286377 C116.02730896 15.01654419 116.05895142 16.16022461 116.09155273 17.33856201 C116.11115051 18.58286987 116.13074829 19.82717773 116.15093994 21.10919189 C116.18262268 22.42407593 116.21430542 23.73895996 116.24694824 25.09368896 C116.31526959 27.94640082 116.3742201 30.79910278 116.42608643 33.65216064 C116.50873038 38.18513499 116.61530413 42.71738548 116.72320557 47.24981689 C116.88796145 54.31724737 117.02365777 61.38484023 117.13887787 68.45324707 C117.20487832 72.49375296 117.27728355 76.53392287 117.36431885 80.57403564 C117.45045825 84.57660963 117.52151442 88.57918392 117.58170319 92.58222961 C117.60676662 94.08455572 117.63704536 95.58680506 117.67287445 97.08891296 C117.72141285 99.16799252 117.75048627 101.24650572 117.77496338 103.32598877 C117.7963739 104.50125122 117.81778442 105.67651367 117.83984375 106.88739014 C117.38359375 111.39141173 116.08448182 114.69622293 112.71271133 117.78965282 C110.09142394 119.39735904 108.59554246 119.51525402 105.53851318 119.5146637 C104.03700966 119.52518517 104.03700966 119.52518517 102.50517273 119.53591919 C101.41310013 119.52827545 100.32102753 119.52063171 99.19586182 119.51275635 C97.46361107 119.51823235 97.46361107 119.51823235 95.69636536 119.52381897 C91.87378294 119.53193401 88.05162313 119.51830588 84.22906494 119.50372314 C81.57634892 119.50320465 78.92364898 119.50366952 76.27093506 119.50523376 C70.7092381 119.50611638 65.1476631 119.49504335 59.58599854 119.47662354 C53.15803506 119.45545635 46.73025024 119.45194621 40.30225897 119.45818549 C34.11605822 119.46388243 27.92992032 119.45822962 21.74372864 119.44701195 C19.11225132 119.44315758 16.48076861 119.44201271 13.84928894 119.44359779 C10.17434388 119.44396787 6.49967214 119.43136407 2.82476807 119.4151001 C1.73269547 119.41757751 0.64062286 119.42005493 -0.48454285 119.42260742 C-1.4855452 119.41552261 -2.48654755 119.40843781 -3.5178833 119.40113831 C-4.82088001 119.398059 -4.82088001 119.398059 -6.15019989 119.39491749 C-9.82255229 118.99546035 -11.86280582 117.89174127 -14.21917725 115.06768799 C-15.95761202 111.06233962 -15.88196715 107.62489707 -15.81781006 103.30450439 C-15.81643539 102.41688919 -15.81506073 101.52927399 -15.81364441 100.61476135 C-15.8045236 97.66468041 -15.77285259 94.71534374 -15.73968506 91.76544189 C-15.72565068 89.69716898 -15.71240076 87.62889061 -15.69989014 85.56060791 C-15.66035106 79.95332746 -15.59736756 74.34650864 -15.5300293 68.73950195 C-15.48853736 65.03805701 -15.45648017 61.3366275 -15.42669678 57.6350708 C-15.37497376 51.34118094 -15.30574202 45.04771002 -15.22320557 38.75415039 C-15.19260328 36.30957985 -15.16629533 33.86495165 -15.14434814 31.42028809 C-15.11113069 27.98157691 -15.05881034 24.54366717 -15.00140381 21.10528564 C-14.99499374 20.08227859 -14.98858368 19.05927155 -14.98197937 18.00526428 C-14.87059812 12.65065411 -14.51714369 8.75470643 -11.48968506 4.14044189 C-7.91180356 0.89798679 -4.75565147 0.0176981 0 0 Z " fill="#1A8A4C" transform="translate(2032.4896850585938,1747.8595581054688)"/>
<path d="M0 0 C9.76789154 8.01373332 14.04345257 17.51961533 15.2890625 29.91015625 C15.72610744 40.41823684 12.49907313 49.50113293 6.06640625 57.6953125 C5.44636719 58.52933594 4.82632812 59.36335938 4.1875 60.22265625 C-2.98552955 68.58458573 -13.26785654 71.98755263 -23.9375 72.97265625 C-36.38310006 73.37831466 -47.97472611 70.19667674 -57.19140625 61.5859375 C-66.46928349 51.65758179 -69.58621894 41.26601865 -69.24609375 27.7109375 C-68.60183439 16.31828457 -62.65641844 8.04667366 -54.62109375 0.4453125 C-39.28472143 -12.7186226 -15.89761386 -11.31887355 0 0 Z " fill="#229B59" transform="translate(1723.93359375,2307.3046875)"/>
<path d="M0 0 C7.48271241 5.93919326 12.82103135 13.63429382 14.61328125 23.07421875 C15.97459859 35.5270177 15.17125107 46.40465804 7.62890625 56.8125 C0.15806438 65.75366713 -8.84529295 71.22017444 -20.38671875 73.07421875 C-33.37953287 74.21644417 -45.19467617 71.54954653 -55.51171875 63.39453125 C-61.73331389 57.71496902 -67.76526834 48.7807401 -68.5637207 40.1640625 C-68.96723346 25.99127976 -68.17514754 15.51605915 -58.59765625 4.30078125 C-42.87060217 -11.53741809 -17.96640177 -12.12160346 0 0 Z " fill="#229B59" transform="translate(1831.38671875,2306.92578125)"/>
<path d="M0 0 C8.1576346 6.48708761 13.41231193 14.94347766 15.140625 25.2109375 C16.51940295 38.31707399 13.99740242 48.84146867 5.86328125 59.3359375 C-1.99517836 67.94749949 -12.72137218 72.29481684 -24.15234375 73.328125 C-35.64916851 73.8096674 -46.55345047 70.56042284 -55.38671875 63.078125 C-62.69780912 56.21102797 -67.97748257 47.47160171 -68.625 37.35546875 C-68.94764183 24.76226388 -67.19148832 14.66728384 -58.38671875 5.078125 C-52.71692967 -0.85284439 -47.24875196 -4.51845552 -39.38671875 -6.921875 C-38.79761719 -7.11394531 -38.20851563 -7.30601562 -37.6015625 -7.50390625 C-24.0925752 -10.05322131 -11.33891554 -7.63412135 0 0 Z " fill="#229B59" transform="translate(2363.38671875,2306.921875)"/>
<path d="M0 0 C1.24900356 1.03910877 2.4788054 2.10176784 3.6875 3.1875 C4.30367187 3.71214844 4.91984375 4.23679687 5.5546875 4.77734375 C11.63991405 10.32717483 16.08193502 17.88349194 16.88037109 26.1953125 C17.39425021 39.6994328 16.50446561 49.78587893 7.5 60.5625 C-1.65003206 69.96921612 -12.30112428 74.15658407 -25.375 74.5625 C-38.05750694 74.16565493 -48.44585348 69.57372608 -57.1875 60.375 C-65.98233536 50.07292254 -67.03682899 39.43293632 -66.49169922 26.328125 C-65.57524828 15.38065655 -57.64914649 6.78643012 -49.68359375 -0.05078125 C-35.91912567 -10.27775836 -13.80676012 -9.82809451 0 0 Z " fill="#229B59" transform="translate(2636.3125,2305.8125)"/>
<path d="M0 0 C23 0 23 0 28.359375 4.65234375 C30.171875 7.70117188 30.171875 7.70117188 31.75 10.9375 C32.91078611 12.98866182 34.07226166 15.0394336 35.234375 17.08984375 C36.47703125 19.37019531 37.7196875 21.65054688 39 24 C42.63 29.61 46.26 35.22 50 41 C50.33 27.47 50.66 13.94 51 0 C58.59 0 66.18 0 74 0 C74 26.4 74 52.8 74 80 C51 80 51 80 46.1875 75.44921875 C45.07990994 73.32235938 44.02093094 71.16978951 43 69 C41.42840395 66.47671714 39.73852095 64.03676911 38.0625 61.58203125 C37.29974414 60.42271633 36.54073472 59.26092931 35.78515625 58.09692383 C31.86168309 52.06141975 27.92990754 46.03131643 24 40 C23.67 53.2 23.34 66.4 23 80 C15.41 80 7.82 80 0 80 C0 53.6 0 27.2 0 0 Z " fill="#CA8D16" transform="translate(1742,2755)"/>
<path d="M0 0 C7.59 0 15.18 0 23 0 C23 9.9 23 19.8 23 30 C31.58 30 40.16 30 49 30 C49 20.1 49 10.2 49 0 C56.59 0 64.18 0 72 0 C72 26.4 72 52.8 72 80 C64.41 80 56.82 80 49 80 C49 69.44 49 58.88 49 48 C40.42 48 31.84 48 23 48 C23 58.56 23 69.12 23 80 C15.41 80 7.82 80 0 80 C0 53.6 0 27.2 0 0 Z " fill="#CA8D16" transform="translate(2353,2755)"/>
<path d="M0 0 C7.59 0 15.18 0 23 0 C23 9.9 23 19.8 23 30 C31.58 30 40.16 30 49 30 C49 20.1 49 10.2 49 0 C56.59 0 64.18 0 72 0 C72 26.4 72 52.8 72 80 C64.41 80 56.82 80 49 80 C49 69.44 49 58.88 49 48 C40.42 48 31.84 48 23 48 C23 58.56 23 69.12 23 80 C15.41 80 7.82 80 0 80 C0 53.6 0 27.2 0 0 Z " fill="#CA8D16" transform="translate(2062,2755)"/>
<path d="M0 0 C7.59 0 15.18 0 23 0 C23.33 9.9 23.66 19.8 24 30 C26.9390625 25.91625 26.9390625 25.91625 29.9375 21.75 C31.16251173 20.10137768 32.38772481 18.45290493 33.61328125 16.8046875 C35.66825194 13.99016225 37.44934388 11.29174146 38.91796875 8.1328125 C40.98741297 4.18334687 42.15729222 2.34607422 46 0 C54.90674014 -1.44340185 64.04909545 -0.72976958 73 0 C68.03045864 7.70843632 62.5340109 14.93634307 56.921875 22.18359375 C52.71489344 27.65106405 48.7384125 33.20121242 45 39 C45.35078613 39.47606689 45.70157227 39.95213379 46.06298828 40.44262695 C46.56040527 41.11769287 47.05782227 41.79275879 47.5703125 42.48828125 C48.13081299 43.24882812 48.69131348 44.009375 49.26879883 44.79296875 C50.51654171 46.4866037 51.76376656 48.1806204 53.01049805 49.875 C56.33228051 54.38792457 59.6625596 58.8940645 63.01171875 63.38671875 C63.96763916 64.67292114 63.96763916 64.67292114 64.94287109 65.98510742 C66.1731242 67.63995689 67.40644353 69.29253201 68.64306641 70.94262695 C69.2004248 71.69374756 69.7577832 72.44486816 70.33203125 73.21875 C70.82421143 73.87810547 71.3163916 74.53746094 71.82348633 75.21679688 C73 77 73 77 74 80 C50.48365221 82.84148786 50.48365221 82.84148786 43.54296875 78.44287109 C39.48755958 74.36046586 36.82885201 69.48699832 34.25097656 64.38232422 C32.3771494 60.81386102 30.04318839 57.63463536 27.6875 54.375 C26.470625 52.60125 25.25375 50.8275 24 49 C23.67 59.23 23.34 69.46 23 80 C15.41 80 7.82 80 0 80 C0 53.6 0 27.2 0 0 Z " fill="#CA8D16" transform="translate(1958,2755)"/>
<path d="M0 0 C8.91 0 17.82 0 27 0 C29.61606744 7.0796003 32.23175999 14.15932451 34.8443985 21.2401886 C36.06198065 24.5398426 37.28011725 27.8392891 38.49975586 31.13818359 C47.76581479 56.20397724 47.76581479 56.20397724 52.18359375 68.671875 C52.62131859 69.89333221 52.62131859 69.89333221 53.06788635 71.13946533 C54.14653234 74.2137667 55 76.71678721 55 80 C47.08 80 39.16 80 31 80 C27 69 27 69 27 67 C13.635 67.495 13.635 67.495 0 68 C-1.32 71.96 -2.64 75.92 -4 80 C-12.25 80 -20.5 80 -29 80 C-25.62426307 68.74754356 -25.62426307 68.74754356 -23.91870117 64.05395508 C-23.53787888 63.00198441 -23.15705658 61.95001373 -22.76469421 60.86616516 C-22.36152481 59.76177597 -21.95835541 58.65738678 -21.54296875 57.51953125 C-21.11752274 56.34847336 -20.69207672 55.17741547 -20.2537384 53.97087097 C-19.12876171 50.87706602 -18.00111628 47.78425004 -16.87249756 44.69177246 C-15.74166835 41.5893728 -14.61653868 38.48490407 -13.49023438 35.38085938 C-9.17286058 23.50890021 -4.79415297 11.68822419 0 0 Z M13 27 C7.98137691 37.64042813 7.98137691 37.64042813 6 49 C10.95 49 15.9 49 21 49 C18.69 41.74 16.38 34.48 14 27 C13.67 27 13.34 27 13 27 Z " fill="#CA8D16" transform="translate(2269,2755)"/>
<path d="M0 0 C8.91 0 17.82 0 27 0 C32.62636261 13.50327026 32.62636261 13.50327026 34.44775391 18.52783203 C34.85812897 19.65585236 35.26850403 20.78387268 35.6913147 21.94607544 C36.11544647 23.12144867 36.53957825 24.2968219 36.9765625 25.5078125 C37.43288195 26.76714225 37.88937788 28.02640806 38.34603882 29.28561401 C39.29408604 31.90181403 40.24009143 34.5187402 41.18457031 37.13623047 C42.38532008 40.46345455 43.59114049 43.78881413 44.79848671 47.11364937 C45.73910376 49.70567681 46.67705647 52.29866236 47.61423874 54.89193344 C48.27023456 56.7057535 48.92837495 58.5187975 49.58657837 60.33181763 C49.99064911 61.45353363 50.39471985 62.57524963 50.81103516 63.73095703 C51.16235504 64.70292023 51.51367493 65.67488342 51.87564087 66.67630005 C53.36544436 71.08028421 54.66407673 75.54692242 56 80 C47.75 80 39.5 80 31 80 C29.68 76.04 28.36 72.08 27 68 C18.09 67.67 9.18 67.34 0 67 C-0.99 70.63 -1.98 74.26 -3 78 C-3.33 78.66 -3.66 79.32 -4 80 C-11.92 80 -19.84 80 -28 80 C-27.32060264 75.92361582 -26.76287174 72.94837358 -25.37695312 69.2175293 C-24.87967209 67.86658173 -24.87967209 67.86658173 -24.37234497 66.48834229 C-24.01228363 65.52668152 -23.65222229 64.56502075 -23.28125 63.57421875 C-22.90692841 62.56123718 -22.53260681 61.54825562 -22.14694214 60.50457764 C-20.93604852 57.23043547 -19.71800539 53.95900233 -18.5 50.6875 C-17.26235858 47.34556354 -16.02658017 44.00294196 -14.79086304 40.66029358 C-13.97998147 38.46730447 -13.16848265 36.27454349 -12.35635376 34.08201599 C-8.15961174 22.74859761 -4.06959001 11.37977948 0 0 Z M13 27 C10.69 34.26 8.38 41.52 6 49 C10.95 49 15.9 49 21 49 C19.56995324 41.84976621 17.80491753 34.7493328 15 28 C14.34 27.67 13.68 27.34 13 27 Z " fill="#CA8D16" transform="translate(1873,2755)"/>
<path d="M0 0 C5.46364988 3.16676665 5.46364988 3.16676665 6.46875 6.1875 C6.56027344 6.79078125 6.65179687 7.3940625 6.74609375 8.015625 C0.40208549 10.77388946 0.40208549 10.77388946 -2.734375 11.9296875 C-9.99021587 14.63004583 -14.99446839 17.17282546 -18.62890625 24.328125 C-19.184907 25.55087462 -19.73183474 26.77800842 -20.25390625 28.015625 C-12.96330264 29.34118929 -5.07612723 30.24162041 2.05859375 27.953125 C7.9075377 23.73644448 12.50046446 18.26519193 17.16796875 12.8125 C17.68875 12.21953125 18.20953125 11.6265625 18.74609375 11.015625 C19.205 10.44328125 19.66390625 9.8709375 20.13671875 9.28125 C22.35890497 7.5337055 23.99879392 7.79287096 26.74609375 8.015625 C26.8011588 9.53603218 26.8393575 11.05705204 26.87109375 12.578125 C26.89429687 13.42503906 26.9175 14.27195312 26.94140625 15.14453125 C26.37097544 23.52986412 23.08844127 27.23941732 17.18359375 32.703125 C3.19185984 46.17872563 -7.41698684 60.25777359 -8.421875 80.37890625 C-8.16017392 88.47225445 -5.86676832 95.33105718 -1.25390625 102.015625 C7.34795691 109.59849822 17.45764689 111.66942208 28.74609375 111.015625 C40.81538881 109.05565401 52.38994518 104.96566018 63.921875 101.015625 C64.87271973 100.69078125 65.82356445 100.3659375 66.80322266 100.03125 C68.85132169 99.32442305 70.89499265 98.60468826 72.93505859 97.875 C73.98000488 97.50890625 75.02495117 97.1428125 76.1015625 96.765625 C77.0402417 96.43046875 77.9789209 96.0953125 78.94604492 95.75 C81.98410345 94.95320167 84.61877207 94.88641352 87.74609375 95.015625 C86.80906912 102.4764626 78.06931759 109.23756538 72.4296875 113.77734375 C56.7050133 125.75697359 40.5908139 131.51886255 20.74609375 130.015625 C10.47474631 128.40734823 -0.03886039 122.41906729 -6.25390625 114.015625 C-16.24500836 96.72490135 -18.61181669 78.41697343 -13.76220703 59.05224609 C-12.72872992 55.32626434 -11.53989559 51.66134236 -10.25390625 48.015625 C-11.35798828 47.68691406 -11.35798828 47.68691406 -12.484375 47.3515625 C-18.85058585 45.28275422 -22.6157097 43.71546626 -26.25390625 38.015625 C-28.92220168 30.0107387 -28.16574039 19.82406311 -24.5859375 12.234375 C-19.3008775 3.43110791 -10.90008689 -4.76052322 0 0 Z " fill="#CA8D16" transform="translate(2188.25390625,1984.984375)"/>
<path d="M0 0 C5.31175935 1.8430666 7.68404425 5.76391118 10.25 10.5625 C14.42384349 19.74718767 16.24548313 28.20730321 16.375 38.25 C16.38901855 38.99459473 16.40303711 39.73918945 16.41748047 40.50634766 C16.3667427 46.35940426 15.518674 52.24558804 11.4140625 56.734375 C-10.16732277 68.98581642 -41.61168921 71.06662921 -65.26953125 65.1875 C-74.73829099 62.32900649 -82.47366597 57.34975703 -88 49 C-92.94020041 39.51108675 -91.94034279 28.30755781 -88.85546875 18.38671875 C-87.7895902 15.41296626 -86.69035651 12.6763978 -85 10 C-84.01 9.67 -83.02 9.34 -82 9 C-81.34 9.33 -80.68 9.66 -80 10 C-80.87803188 17.52598753 -80.87803188 17.52598753 -81.515625 20.00390625 C-83.04548954 26.30842866 -82.26516783 32.08849243 -79.3828125 37.86328125 C-74.19395461 45.88109273 -66.40410954 49.24613588 -57.50390625 51.68359375 C-37.49386327 55.89470584 -11.4171381 54.58830386 7 45 C7.495 44.01 7.495 44.01 8 43 C7.24976563 43.02320312 6.49953125 43.04640625 5.7265625 43.0703125 C-4.45252492 43.24979263 -13.9408819 42.89953276 -22 36 C-25.52409716 31.48475052 -25.5712763 26.64666574 -25.40625 21.09765625 C-24.32525507 12.85506993 -20.08039017 7.40567079 -13.76953125 2.27734375 C-9.47325789 -0.82393967 -5.13626678 -0.63334417 0 0 Z M-18 18 C-18.58610371 20.32828629 -18.58610371 20.32828629 -18 23 C-12.98348341 29.19687344 -5.57191949 29.91070632 2 31 C3.66613353 31.04215251 5.33440731 31.0598228 7 31 C5.83694321 24.48688197 3.68218951 19.77180079 -1 15 C-7.42445342 11.16524873 -12.78867203 12.78867203 -18 18 Z " fill="#CA8D16" transform="translate(1972,2044)"/>
<path d="M0 0 C4.77979299 4.51368032 7.81954663 10.2558012 8.82421875 16.72265625 C7.0546875 17.39453125 7.0546875 17.39453125 4.82421875 17.72265625 C3 16.61328125 3 16.61328125 1.13671875 14.97265625 C-5.39026419 9.78485095 -11.66738559 8.38203598 -19.9140625 8.421875 C-22.36726084 8.74812072 -24.04161684 9.49685473 -26.17578125 10.72265625 C-27.01031029 18.23341759 -24.57275434 22.69955199 -20.17578125 28.72265625 C-19.80710937 29.25697266 -19.4384375 29.79128906 -19.05859375 30.34179688 C-16.10702113 32.50648759 -12.96097447 32.09037667 -9.4453125 32.015625 C-8.31968147 32.00925774 -8.31968147 32.00925774 -7.17131042 32.00276184 C-4.77660099 31.98598075 -2.38273591 31.94833115 0.01171875 31.91015625 C1.63605555 31.8951086 3.26040555 31.88142034 4.88476562 31.86914062 C8.86490823 31.8360793 12.84442038 31.78430219 16.82421875 31.72265625 C15.78129063 36.7165157 13.86746837 40.51114525 9.82421875 43.72265625 C5.18187044 44.94172841 0.60630431 44.97932479 -4.17578125 45.03515625 C-18.14441327 45.42034746 -32.83689742 45.83401309 -44.05078125 55.09765625 C-47.14674961 58.92208776 -47.96441606 62.15251481 -48.61328125 66.97265625 C-47.72131128 74.61811312 -43.51224971 81.26847834 -38.17578125 86.72265625 C-36.01868807 88.38133017 -33.9685156 89.85492367 -31.67578125 91.28515625 C-31.0612207 91.67082764 -30.44666016 92.05649902 -29.81347656 92.45385742 C-18.41802916 99.39549156 -6.10174525 102.12585765 6.82421875 104.72265625 C6.82421875 105.71265625 6.82421875 106.70265625 6.82421875 107.72265625 C-6.80289182 112.89156026 -18.13103473 113.87254596 -31.68359375 108.2734375 C-42.98981935 103.03545609 -52.13644294 96.39517011 -57.17578125 84.72265625 C-59.95317204 76.39048387 -59.05106273 65.24414638 -55.625 57.25 C-50.67037424 48.60945319 -43.81501062 43.33856219 -35.17578125 38.72265625 C-34.18578125 38.06265625 -33.19578125 37.40265625 -32.17578125 36.72265625 C-32.52511719 36.10519531 -32.87445312 35.48773437 -33.234375 34.8515625 C-36.59987592 28.58772651 -39.26160752 22.82794467 -37.73046875 15.62890625 C-35.11384413 7.80910854 -30.40029836 1.73280938 -23.17578125 -2.27734375 C-15.32713389 -5.53527284 -7.00719924 -4.87519136 0 0 Z " fill="#CA8D16" transform="translate(1929.17578125,1938.27734375)"/>
<path d="M0 0 C7.59 0 15.18 0 23 0 C23 20.46 23 40.92 23 62 C31.25 62 39.5 62 48 62 C48 67.94 48 73.88 48 80 C32.16 80 16.32 80 0 80 C0 53.6 0 27.2 0 0 Z " fill="#CA8D16" transform="translate(2168,2755)"/>
<path d="M0 0 C2.80643237 0.67645083 4.30514231 2.30569037 5.93359375 4.625 C13.45556222 18.15310299 12.97857567 37.13903017 9.3359375 51.78515625 C4.51227472 66.84439615 -4.87546445 77.62348489 -17.0390625 87.47265625 C-24.67640527 91.29132763 -37.27087684 88.32819275 -45.2890625 86.66015625 C-46.09851318 86.49491455 -46.90796387 86.32967285 -47.74194336 86.15942383 C-51.81582633 85.24556324 -54.90821251 84.40993218 -58.0390625 81.47265625 C-57.7090625 80.15265625 -57.3790625 78.83265625 -57.0390625 77.47265625 C-55.85570313 77.43527344 -54.67234375 77.39789062 -53.453125 77.359375 C-33.04683276 76.57742541 -18.30228537 69.68558997 -4.1015625 54.47265625 C-0.95322161 50.73028878 0.54642933 47.13221259 1.9609375 42.47265625 C1.32027344 42.84519531 0.67960937 43.21773437 0.01953125 43.6015625 C-4.10466857 45.85727238 -7.09584233 47.441731 -11.8515625 47.59765625 C-15.68305635 46.2453643 -17.4962458 44.61378276 -20.0390625 41.47265625 C-22.98336754 32.63974112 -21.4219772 23.47437778 -17.53515625 15.23828125 C-9.08181752 -0.38825614 -9.08181752 -0.38825614 0 0 Z M-9.0390625 22.47265625 C-10.0290625 23.95765625 -10.0290625 23.95765625 -11.0390625 25.47265625 C-8.7290625 25.80265625 -6.4190625 26.13265625 -4.0390625 26.47265625 C-4.0390625 25.48265625 -4.0390625 24.49265625 -4.0390625 23.47265625 C-5.6890625 23.14265625 -7.3390625 22.81265625 -9.0390625 22.47265625 Z " fill="#CA8D16" transform="translate(2314.0390625,1978.52734375)"/>
<path d="M0 0 C3.25896005 0.0651792 5.9358898 0.21214918 8.625 2.203125 C15.16835425 9.22359883 18.76250387 19.03839379 19.18359375 28.546875 C18.88940079 32.47779372 17.43070226 35.04200255 15 38 C14.38898437 38.75796875 13.77796875 39.5159375 13.1484375 40.296875 C-2.95033491 59.14707397 -28.01079861 75.06778057 -53.15625 77.27734375 C-61.49210853 77.5404706 -69.16904951 76.02275771 -76 71 C-80.56495766 66.60411484 -81.07936677 59.55086706 -81.3125 53.5 C-81.21880759 48.67058223 -79.76966347 44.45575982 -78 40 C-77.01 40 -76.02 40 -75 40 C-74.49370412 42.31449546 -74.02520585 44.56889297 -73.88671875 46.9375 C-73.63685128 50.70692919 -73.18885569 52.71367041 -71.0625 55.9375 C-64.81843127 60.14268915 -58.47015523 59.28968147 -51.3125 57.9375 C-32.00700723 53.27755347 -13.31101384 43.56799833 2 31 C2.66773437 30.4946875 3.33546875 29.989375 4.0234375 29.46875 C7.04148157 27.14499776 8.29066953 25.71813885 9 22 C8.43410156 21.59007812 7.86820313 21.18015625 7.28515625 20.7578125 C6.55167969 20.21898437 5.81820312 19.68015625 5.0625 19.125 C4.33160156 18.59132813 3.60070313 18.05765625 2.84765625 17.5078125 C1 16 1 16 0 14 C-0.07116382 11.62597499 -0.08409085 9.24999323 -0.0625 6.875 C-0.05347656 5.59367187 -0.04445313 4.31234375 -0.03515625 2.9921875 C-0.02355469 2.00476562 -0.01195313 1.01734375 0 0 Z " fill="#CA8D16" transform="translate(2241,1893)"/>
<path d="M0 0 C8.72053451 4.63966302 13.20560486 14.68796156 16.1640625 23.69140625 C17.52178507 28.96965315 17.63839261 33.20399591 15.01171875 38.1328125 C12.82421875 41.2578125 12.82421875 41.2578125 9.82421875 43.2578125 C7.63525391 42.8581543 7.63525391 42.8581543 5.11328125 41.95703125 C4.19804688 41.63927734 3.2828125 41.32152344 2.33984375 40.99414062 C1.3859375 40.64802734 0.43203125 40.30191406 -0.55078125 39.9453125 C-2.43268625 39.2799796 -4.31547348 38.61713581 -6.19921875 37.95703125 C-7.03372559 37.65627686 -7.86823242 37.35552246 -8.72802734 37.0456543 C-12.49972621 35.8316834 -16.21397113 35.10366274 -20.17578125 35.0078125 C-21.13484375 34.96914062 -21.13484375 34.96914062 -22.11328125 34.9296875 C-25.35028018 35.4446646 -26.75620966 35.95464642 -29.17578125 38.2578125 C-29.85931003 41.88714025 -29.68770118 45.4545399 -29.55078125 49.1328125 C-29.53080078 50.18275391 -29.51082031 51.23269531 -29.49023438 52.31445312 C-29.3719629 57.47684298 -29.13336369 62.61347653 -28.67578125 67.7578125 C-26.06626554 97.4509382 -26.06626554 97.4509382 -33.17578125 109.2578125 C-34.16578125 109.2578125 -35.15578125 109.2578125 -36.17578125 109.2578125 C-36.21316406 108.00613281 -36.25054688 106.75445313 -36.2890625 105.46484375 C-36.72649352 93.04725595 -37.73402911 80.76742715 -39.15942383 68.4230957 C-40.92693752 52.67923221 -40.93115156 41.71856223 -31.30859375 28.60546875 C-29.17578125 26.2578125 -29.17578125 26.2578125 -26.484375 24.8671875 C-23.84627572 23.40395802 -23.84627572 23.40395802 -23.390625 20.11328125 C-23.29910156 18.90285156 -23.20757813 17.69242188 -23.11328125 16.4453125 C-22.27001144 8.93324844 -21.16963616 5.96653837 -15.55078125 0.8828125 C-10.33481022 -1.62858096 -5.51350178 -1.88072772 0 0 Z M-15.17578125 10.2578125 C-16.49578125 14.2178125 -17.81578125 18.1778125 -19.17578125 22.2578125 C-18.12519531 22.43957031 -17.07460937 22.62132812 -15.9921875 22.80859375 C-8.49244597 24.13979787 -1.33339505 25.57370733 5.82421875 28.2578125 C4.18908143 21.17221744 -0.25483759 15.22497864 -6.23828125 11.1953125 C-9.61452811 9.95377233 -9.61452811 9.95377233 -15.17578125 10.2578125 Z " fill="#CA8D16" transform="translate(1986.17578125,1842.7421875)"/>
<path d="M0 0 C2.65159709 2.47482395 2.96964517 3.72680649 3.375 7.375 C2.88922614 12.07081394 1.45204396 15.25754725 -1.5625 18.875 C-3 20 -3 20 -5 20 C-5.39832031 19.15115234 -5.39832031 19.15115234 -5.8046875 18.28515625 C-6.33449219 17.18494141 -6.33449219 17.18494141 -6.875 16.0625 C-7.22304687 15.33160156 -7.57109375 14.60070313 -7.9296875 13.84765625 C-8.8684977 11.83667541 -8.8684977 11.83667541 -11 11 C-15.75455661 10.41994409 -19.17358231 10.58679115 -23.5 12.75 C-25.99606894 14.76502217 -25.99606894 14.76502217 -27.125 16.9375 C-26.91577624 20.38969197 -25.48212466 21.63607175 -23 24 C-13.2083643 31.36159472 2.63047757 28.39845126 14 27 C13.5628833 32.68251714 11.74794323 37.68958146 8 42 C4.40438043 43.63274477 0.77097256 44.06313381 -3.125 44.5625 C-12.45200254 46.09215681 -20.54288519 48.42470822 -29.10986328 52.41040039 C-29.83157715 52.74547607 -30.55329102 53.08055176 -31.296875 53.42578125 C-31.91916992 53.72911377 -32.54146484 54.03244629 -33.18261719 54.3449707 C-35 55 -35 55 -39 55 C-37.67494706 48.5403669 -33.40590065 44.61082626 -29 40 C-29.721875 39.443125 -30.44375 38.88625 -31.1875 38.3125 C-39.59052437 31.40334663 -39.59052437 31.40334663 -40.23828125 26.01953125 C-40.51794147 17.70331955 -37.42258054 12.17652222 -32 6 C-22.66864254 -1.13070042 -10.99465322 -7.15930907 0 0 Z " fill="#CA8D16" transform="translate(1861,2028)"/>
<path d="M0 0 C3.10815195 0.2201821 4.55684882 0.50262797 6.66015625 2.86328125 C14.59767679 16.72630459 17.13624547 29.95359801 14.33984375 45.72265625 C10.93460587 58.09059818 3.84702705 68.65135799 -7.22265625 75.34375 C-13.72711753 78.55582964 -20.15797791 80.09243038 -27.2421875 78.078125 C-30.5615596 76.83623521 -33.77893551 75.47717607 -37 74 C-38.25490234 73.42765625 -38.25490234 73.42765625 -39.53515625 72.84375 C-42.39101682 71.47542479 -44.74749005 70.25250995 -47 68 C-47 67.01 -47 66.02 -47 65 C-45.75605469 65.04640625 -44.51210937 65.0928125 -43.23046875 65.140625 C-25.65115096 65.60556472 -12.85737618 61.02585458 0.2578125 48.80859375 C4.49986612 44.45036398 4.49986612 44.45036398 7 39 C6.16041094 33.56175269 3.04898136 29.94755737 -0.75 26.1875 C-3.84486361 22.85354821 -4.52145467 20.60698967 -4.625 16.0625 C-4.32658235 11.05924235 -3.7671475 3.7671475 0 0 Z " fill="#CA8D16" transform="translate(2275,1936)"/>
<path d="M0 0 C3 1 3 1 4.53515625 4.0625 C5.05894921 5.36921146 5.56724282 6.68220858 6.0625 8 C6.45610718 9.03483521 6.45610718 9.03483521 6.85766602 10.09057617 C7.59037105 12.05422566 8.29932388 14.02473518 9 16 C9.28617188 16.77988281 9.57234375 17.55976562 9.8671875 18.36328125 C12.80027167 28.38800043 11.59062607 43.67578718 7 53 C1.88233965 61.51337851 -5.16748725 70.90126871 -15 74 C-26.24507519 75.55048206 -36.07269768 71.69547674 -45 65 C-44.67 63.68 -44.34 62.36 -44 61 C-42.96552734 61.23396484 -42.96552734 61.23396484 -41.91015625 61.47265625 C-29.98926832 63.94186623 -22.50430843 62.33411231 -12 56 C-5.86920003 51.78956786 -0.52669871 46.10435787 2 39 C1.77484186 33.27552494 -0.2180065 28.59260579 -2.5 23.4375 C-6.89336638 13.45979443 -6.89336638 13.45979443 -7 9 C-5.56640625 6.4453125 -5.56640625 6.4453125 -3.5625 4.125 C-2.90378906 3.34382813 -2.24507812 2.56265625 -1.56640625 1.7578125 C-1.04949219 1.17773438 -0.53257813 0.59765625 0 0 Z " fill="#CA8D16" transform="translate(1983,1931)"/>
<path d="M0 0 C0.99 0 1.98 0 3 0 C7.63297996 8.74474968 11.5539444 17.60611016 15.15380859 26.82104492 C16.84611851 31.14579112 18.5936791 35.38266661 20.625 39.5625 C27.80342165 54.98640597 32.84181051 72.97672081 32 90 C31.01 90 30.02 90 29 90 C26.47523956 85.10058285 24.21048814 80.19520544 22.1875 75.0625 C17.6546516 63.79528536 12.51225179 52.79107992 7.4624939 41.74923706 C6.84146988 40.39091983 6.22127764 39.03222196 5.60195923 37.67312622 C4.23809536 34.68392129 2.8594146 31.70594054 1.44213867 28.74145508 C0.76115112 27.30515747 0.76115112 27.30515747 0.06640625 25.83984375 C-0.32603271 25.02894287 -0.71847168 24.21804199 -1.12280273 23.38256836 C-3.87777005 15.89976122 -1.82166037 7.49808419 0 0 Z " fill="#CA8D16" transform="translate(2175,1842)"/>
<path d="M0 0 C8.72266741 3.81867928 16.759216 12.51843201 21 21 C21.65959036 29.1421564 21.94961668 37.12805513 17 44 C10.66202702 49.1738555 4.91638113 49.62378361 -3 49 C-7.75852474 47.356146 -10.19569483 45.15452617 -13 41 C-15.45720289 33.62839133 -14.6987729 26.57628483 -11.375 19.625 C-9.48461805 16.17572487 -7.65539689 13.39777549 -4.75 10.75 C-1.20954859 7.20954859 -0.83721222 4.85583089 0 0 Z M-4.0859375 20.0625 C-7.22966954 23.24472672 -8.95249921 26.05246756 -9.0625 30.5625 C-7.5280509 34.08270675 -5.27880802 36.14366834 -2 38 C1.61590398 39.28979668 4.57152189 39.4979554 8.21875 38.2265625 C11.25767286 36.76215402 13.60485518 35.39514482 16 33 C16 27.06431088 12.76581519 23.25464697 9 19 C3.00808451 13.5528041 1.50141289 15.02372583 -4.0859375 20.0625 Z " fill="#CA8D16" transform="translate(2221,2026)"/>
<path d="M0 0 C1.7492214 -0.08142927 3.49954542 -0.13938541 5.25 -0.1875 C6.22453125 -0.22230469 7.1990625 -0.25710938 8.203125 -0.29296875 C11.37468742 0.03924798 12.67040307 0.88672279 15 3 C14.69249629 5.14655501 14.3788634 7.29223285 14.0625 9.4375 C13.80146484 11.22994141 13.80146484 11.22994141 13.53515625 13.05859375 C13 16 13 16 12 17 C6.57269868 17.33228375 2.17150883 16.4516516 -3 15 C-2.5547115 9.72684667 -1.91626837 4.98229776 0 0 Z " fill="#CA8D16" transform="translate(2226,1971)"/>
<path d="M0 0 C5.11672973 3.50222763 8.90644332 6.58627581 12 12 C10.93119777 13.34500955 9.84437492 14.67571438 8.75 16 C8.14671875 16.7425 7.5434375 17.485 6.921875 18.25 C5 20 5 20 1 20 C-1.359375 18.03125 -1.359375 18.03125 -3.75 15.5 C-4.94882813 14.24703125 -4.94882813 14.24703125 -6.171875 12.96875 C-6.77515625 12.3190625 -7.3784375 11.669375 -8 11 C-6.63629701 8.00779732 -5.05091917 5.70973471 -2.875 3.25 C-2.33617187 2.63640625 -1.79734375 2.0228125 -1.2421875 1.390625 C-0.62730469 0.70226563 -0.62730469 0.70226563 0 0 Z " fill="#CA8D16" transform="translate(1961,2013)"/>
<path d="M0 0 C1.0384211 1.71866217 2.05514635 3.45044598 3.0625 5.1875 C3.63097656 6.15042969 4.19945312 7.11335938 4.78515625 8.10546875 C6.15767489 11.37568198 6.28049705 12.72013036 5 16 C3.51171875 17.36328125 3.51171875 17.36328125 1.6875 18.3125 C0.79611328 18.80169922 0.79611328 18.80169922 -0.11328125 19.30078125 C-2 20 -2 20 -6 20 C-7.03290841 18.06891037 -8.05098672 16.129882 -9.0625 14.1875 C-9.91521484 12.56908203 -9.91521484 12.56908203 -10.78515625 10.91796875 C-12 8 -12 8 -11 5 C-9.2578125 3.61328125 -9.2578125 3.61328125 -7.125 2.3125 C-6.42632813 1.87550781 -5.72765625 1.43851563 -5.0078125 0.98828125 C-3 0 -3 0 0 0 Z " fill="#CA8D16" transform="translate(1927,1905)"/>
<path d="M0 0 C2.83537391 1.30534195 4.31362383 3.14104341 6.3203125 5.515625 C7.02671875 6.34191406 7.733125 7.16820312 8.4609375 8.01953125 C8.99203125 8.65761719 9.523125 9.29570313 10.0703125 9.953125 C8.14744216 14.24691313 5.44552381 16.72466201 2.0703125 19.953125 C-1.38170389 18.47591078 -3.57930686 16.51518499 -6.1796875 13.828125 C-6.88609375 13.10367187 -7.5925 12.37921875 -8.3203125 11.6328125 C-8.85140625 11.07851562 -9.3825 10.52421875 -9.9296875 9.953125 C-8.62524182 7.10197945 -7.22416319 4.90564754 -5.0546875 2.640625 C-4.31605469 1.84205078 -4.31605469 1.84205078 -3.5625 1.02734375 C-1.9296875 -0.046875 -1.9296875 -0.046875 0 0 Z " fill="#CA8D16" transform="translate(1979.9296875,1898.046875)"/>
</svg>
