<?xml version="1.0" encoding="utf-8"?>
<!-- Generator: Adobe Illustrator 27.3.1, SVG Export Plug-In . SVG Version: 6.00 Build 0)  -->
<svg version="1.1" id="Layer_1" xmlns="http://www.w3.org/2000/svg" xmlns:xlink="http://www.w3.org/1999/xlink" x="0px" y="0px"
	 viewBox="0 0 1208 539.5" style="enable-background:new 0 0 1208 539.5;" xml:space="preserve">
<style type="text/css">
	.st0{fill:url(#SVGID_1_);}
	.st1{fill:#4A0F1B;}
	.st2{fill:url(#SVGID_00000163760633206592754630000017099605413116832641_);}
	.st3{fill:url(#SVGID_00000154415278254868923840000014873302016539335593_);}
	.st4{fill:#FFC45E;}
	.st5{fill:url(#SVGID_00000122701673410608926610000015761691255986439079_);}
	.st6{fill:url(#SVGID_00000075139362669247100660000014377630744938993034_);}
	.st7{fill:url(#SVGID_00000063619406700376251080000002334549449263338419_);}
	.st8{fill:url(#SVGID_00000163786915430139137520000006892647343075760300_);}
	.st9{fill:url(#SVGID_00000101096734116716926120000007058804383106329993_);}
	.st10{fill:url(#SVGID_00000054223617809015179070000012274026995716976806_);}
	.st11{fill:url(#SVGID_00000122716300595334268020000014683872033792235912_);}
	.st12{fill:url(#SVGID_00000129883813925346032680000001512016659586660252_);}
	.st13{fill:url(#SVGID_00000145020635698864732240000014653780082469327751_);}
	.st14{fill:url(#SVGID_00000039831766651899982020000007261631228211392927_);}
	.st15{fill:url(#SVGID_00000037684468073234392170000008013509063639360919_);}
	.st16{fill:url(#SVGID_00000098205317578089623610000001741298119917337791_);}
	.st17{fill:url(#SVGID_00000071540765276219475940000013903429880003655336_);}
	.st18{fill:url(#SVGID_00000047026813599778999360000005226247059590777231_);}
	.st19{fill:url(#SVGID_00000020366139810153689570000005467074800969412485_);}
	.st20{fill:url(#SVGID_00000111150173168041426850000007552906798688564634_);}
	.st21{fill:url(#SVGID_00000003107391054041136160000007296037286245210543_);}
	.st22{fill:url(#SVGID_00000046322746471548196420000001585842488655682958_);}
	.st23{fill:url(#SVGID_00000098184333320455071630000016714553124054790275_);}
	.st24{fill:url(#SVGID_00000090990824144574854230000017490540747516819852_);}
	.st25{fill:url(#SVGID_00000116947600967511558700000008804109136554626966_);}
	.st26{fill:url(#SVGID_00000094585586402517377380000011601296950361205146_);}
	.st27{fill:url(#SVGID_00000160889693009709596150000013858567868308357815_);}
	.st28{fill:url(#SVGID_00000058559612186707866450000017391426495358675608_);}
	.st29{fill:url(#SVGID_00000132069156385500792800000010789395107677780151_);}
	.st30{fill:url(#SVGID_00000156555265232201945160000015854535532404400016_);}
	.st31{fill:url(#SVGID_00000004509019964353017120000001515292787941315229_);}
	.st32{fill:url(#SVGID_00000056395142177545618470000016433546972628606634_);}
	.st33{fill:url(#SVGID_00000044868801456055382010000013461394734005648011_);}
	.st34{fill:url(#SVGID_00000110471254652637498040000009546188420996537729_);}
	.st35{fill:url(#SVGID_00000124131674772063707490000014189371284858688693_);}
	.st36{fill:url(#SVGID_00000000212563080118682330000005062318755091619510_);}
	.st37{fill:url(#SVGID_00000176751251942584506960000007681762096056080514_);}
	.st38{fill:url(#SVGID_00000056406186665995837760000006423967800608625597_);}
	.st39{fill:url(#SVGID_00000080920293317341302640000010581727583807956106_);}
	.st40{fill:url(#SVGID_00000034075096879399531900000015079010357606287779_);}
	.st41{fill:url(#SVGID_00000103944308978224244610000014859730290308533937_);}
	.st42{fill:url(#SVGID_00000166675051801672081350000016677060034733851068_);}
</style>
<g>
	<g>
		<g>
			
				<linearGradient id="SVGID_1_" gradientUnits="userSpaceOnUse" x1="250.65" y1="198.2" x2="250.65" y2="394.5" gradientTransform="matrix(1 0 0 -1 0 542)">
				<stop  offset="0" style="stop-color:#8C2323"/>
				<stop  offset="1" style="stop-color:#BA3636"/>
			</linearGradient>
			<path class="st0" d="M194.9,176.8c16.6,29.4,24.7,44.2,40.6,74.2c-4.9,37.1-7.1,55.7-11.1,92.8c27.2-10.1,54.5-19.2,82-27.1
				c-7.6-56.4-15.3-112.8-22.9-169.2C253.8,156.1,224.2,165.8,194.9,176.8z"/>
			<path class="st1" d="M306.4,316.7c-10.8-5.6-16.3-8.3-27.2-13.6c9.7-3,14.6-4.5,24.4-7.3C304.7,304.2,305.3,308.3,306.4,316.7z"
				/>
			
				<linearGradient id="SVGID_00000182525318304332368650000013416002345685877156_" gradientUnits="userSpaceOnUse" x1="937.35" y1="198.2" x2="937.35" y2="394.5" gradientTransform="matrix(1 0 0 -1 0 542)">
				<stop  offset="0" style="stop-color:#8C2323"/>
				<stop  offset="1" style="stop-color:#BA3636"/>
			</linearGradient>
			<path style="fill:url(#SVGID_00000182525318304332368650000013416002345685877156_);" d="M993.1,176.8
				c-16.6,29.4-24.7,44.2-40.6,74.2c4.9,37.1,7.1,55.7,11.1,92.8c-27.2-10.1-54.5-19.2-82-27.1c7.6-56.4,15.3-112.8,22.9-169.2
				C934.2,156.1,963.8,165.8,993.1,176.8z"/>
			<path class="st1" d="M881.6,316.7c10.8-5.6,16.3-8.3,27.2-13.6c-9.7-3-14.6-4.5-24.4-7.3C883.3,304.2,882.7,308.3,881.6,316.7z"
				/>
			
				<linearGradient id="SVGID_00000067922913631022973270000008055955222830340540_" gradientUnits="userSpaceOnUse" x1="593.9" y1="238.9" x2="593.9" y2="457.9" gradientTransform="matrix(1 0 0 -1 0 542)">
				<stop  offset="0" style="stop-color:#B51818"/>
				<stop  offset="1" style="stop-color:#FF4A4A"/>
			</linearGradient>
			<path style="fill:url(#SVGID_00000067922913631022973270000008055955222830340540_);" d="M908.8,303.1
				c-209.5-62.1-420.2-62.1-629.7,0c-8.3-56.2-16.6-112.4-24.9-168.6c225.9-67.2,453.5-67.2,679.4,0
				C925.4,190.7,917.1,246.9,908.8,303.1z"/>
		</g>
	</g>
	<g>
		<path class="st4" d="M257.3,155c0.2,1.7,0.5,3.4,0.7,5.1c222.9-65.7,448.9-65.7,671.9,0c0.2-1.7,0.5-3.4,0.7-5.1
			C707.3,89.3,480.7,89.3,257.3,155z"/>
		<path class="st4" d="M911.8,282.8c0.2-1.7,0.5-3.4,0.7-5.1c-211.6-61.7-425.6-61.7-637.2,0c0.2,1.7,0.5,3.4,0.7,5.1
			C487.2,221.1,700.8,221.1,911.8,282.8z"/>
	</g>
</g>
<g>
	<g>
		<g>
			
				<linearGradient id="SVGID_00000174581612334661749540000001712445832703998379_" gradientUnits="userSpaceOnUse" x1="357.8335" y1="345.5261" x2="370.9431" y2="404.9557" gradientTransform="matrix(0.987 -0.1609 -0.1609 -0.987 78.5197 645.3325)">
				<stop  offset="0" style="stop-color:#C78706"/>
				<stop  offset="1" style="stop-color:#FFEC45"/>
			</linearGradient>
			<polygon style="fill:url(#SVGID_00000174581612334661749540000001712445832703998379_);" points="375.2,170.2 383.6,187.5 
				402.6,189.9 385.3,198.3 382.9,217.3 374.6,200 355.5,197.6 372.8,189.2 			"/>
		</g>
		<g>
			
				<linearGradient id="SVGID_00000013876571227529072600000014037977234801139874_" gradientUnits="userSpaceOnUse" x1="287.3521" y1="359.1833" x2="300.4621" y2="418.6149" gradientTransform="matrix(0.9766 -0.2151 -0.2151 -0.9766 108.6653 676.3007)">
				<stop  offset="0" style="stop-color:#C78706"/>
				<stop  offset="1" style="stop-color:#FFEC45"/>
			</linearGradient>
			<polygon style="fill:url(#SVGID_00000013876571227529072600000014037977234801139874_);" points="306.9,187.3 316.2,204.1 
				335.4,205.5 318.6,214.8 317.2,234 307.9,217.2 288.7,215.8 305.5,206.5 			"/>
		</g>
	</g>
	<g>
		<g>
			
				<linearGradient id="SVGID_00000053523216817863971590000008543864759982164139_" gradientUnits="userSpaceOnUse" x1="720.8188" y1="286.3526" x2="733.9283" y2="345.7822" gradientTransform="matrix(-0.987 -0.1609 0.1609 -0.987 1477.2678 645.3325)">
				<stop  offset="0" style="stop-color:#C78706"/>
				<stop  offset="1" style="stop-color:#FFEC45"/>
			</linearGradient>
			<polygon style="fill:url(#SVGID_00000053523216817863971590000008543864759982164139_);" points="812.8,170.2 804.4,187.5 
				785.4,189.9 802.7,198.3 805.1,217.3 813.4,200 832.5,197.6 815.2,189.2 			"/>
		</g>
		<g>
			
				<linearGradient id="SVGID_00000059989169823650300040000014836400623332937640_" gradientUnits="userSpaceOnUse" x1="646.5277" y1="280.0735" x2="659.6376" y2="339.5051" gradientTransform="matrix(-0.9766 -0.2151 0.2151 -0.9766 1447.1221 676.3007)">
				<stop  offset="0" style="stop-color:#C78706"/>
				<stop  offset="1" style="stop-color:#FFEC45"/>
			</linearGradient>
			<polygon style="fill:url(#SVGID_00000059989169823650300040000014836400623332937640_);" points="881.1,187.3 871.8,204.1 
				852.6,205.5 869.4,214.8 870.8,234 880.1,217.2 899.3,215.8 882.5,206.5 			"/>
		</g>
	</g>
</g>
<g>
	<g>
		<g>
			
				<linearGradient id="SVGID_00000091732861982071521180000015068512184653726115_" gradientUnits="userSpaceOnUse" x1="987.9138" y1="-29.9907" x2="996.741" y2="10.0262" gradientTransform="matrix(0.9993 3.850000e-02 3.850000e-02 -0.9993 11.8366 460.886)">
				<stop  offset="0" style="stop-color:#C78706"/>
				<stop  offset="1" style="stop-color:#FFEC45"/>
			</linearGradient>
			<path style="fill:url(#SVGID_00000091732861982071521180000015068512184653726115_);" d="M973.4,493.2c0,0,23.5-20.9,69.1-5.5
				c0,0-16,19.3-40,19.8S973.4,493.2,973.4,493.2z"/>
			
				<linearGradient id="SVGID_00000022531584024628131590000017082890504345511852_" gradientUnits="userSpaceOnUse" x1="1860.934" y1="-1423.178" x2="1868.1376" y2="-1390.5227" gradientTransform="matrix(0.3928 -0.7838 0.884 0.4431 1485.9238 2540.353)">
				<stop  offset="0" style="stop-color:#C78706"/>
				<stop  offset="1" style="stop-color:#FFEC45"/>
			</linearGradient>
			<path style="fill:url(#SVGID_00000022531584024628131590000017082890504345511852_);" d="M972.9,491.9c0,0,24.4-13,33.3-64.4
				c0,0-20.1,6.4-30.7,29.4C964.9,480,972.9,491.9,972.9,491.9z"/>
		</g>
		<g>
			
				<linearGradient id="SVGID_00000052090725530468566960000014284678450371053240_" gradientUnits="userSpaceOnUse" x1="1151.446" y1="315.3045" x2="1161.3026" y2="359.9877" gradientTransform="matrix(0.9701 -0.2428 -0.2428 -0.9701 16.3096 1077.4523)">
				<stop  offset="0" style="stop-color:#C78706"/>
				<stop  offset="1" style="stop-color:#FFEC45"/>
			</linearGradient>
			<path style="fill:url(#SVGID_00000052090725530468566960000014284678450371053240_);" d="M1023,463.5c0,0,18-28.4,65.1-29.8
				c0,0-11.1,24.2-34,33.2C1031.1,475.8,1023,463.5,1023,463.5z"/>
			
				<linearGradient id="SVGID_00000048499440900187157430000000109270061006712244_" gradientUnits="userSpaceOnUse" x1="2299.0706" y1="-1418.6412" x2="2306.9902" y2="-1382.7394" gradientTransform="matrix(0.1576 -0.8624 0.9727 0.1778 2014.4174 2660.9753)">
				<stop  offset="0" style="stop-color:#C78706"/>
				<stop  offset="1" style="stop-color:#FFEC45"/>
			</linearGradient>
			<path style="fill:url(#SVGID_00000048499440900187157430000000109270061006712244_);" d="M1022.2,462.4c0,0,20.5-21.1,17.7-73.6
				c0,0-17.8,13.2-22.9,39.1C1011.9,453.8,1022.2,462.4,1022.2,462.4z"/>
		</g>
		<g>
			
				<linearGradient id="SVGID_00000132781935213983270000000001243205587708598916_" gradientUnits="userSpaceOnUse" x1="1285.3647" y1="485.218" x2="1295.2756" y2="530.1472" gradientTransform="matrix(0.929 -0.37 -0.37 -0.929 81.6396 1361.781)">
				<stop  offset="0" style="stop-color:#C78706"/>
				<stop  offset="1" style="stop-color:#FFEC45"/>
			</linearGradient>
			<path style="fill:url(#SVGID_00000132781935213983270000000001243205587708598916_);" d="M1059.7,412.3c0,0,14.3-30,59.1-39
				c0,0-8.1,24.9-29.1,37.2C1068.7,422.7,1059.7,412.3,1059.7,412.3z"/>
			
				<linearGradient id="SVGID_00000103947805639101226880000015483767621187483547_" gradientUnits="userSpaceOnUse" x1="2538.3794" y1="-1366.2052" x2="2546.4771" y2="-1329.4967" gradientTransform="matrix(4.130000e-02 -0.8757 0.9877 4.650000e-02 2273.874 2666.2686)">
				<stop  offset="0" style="stop-color:#C78706"/>
				<stop  offset="1" style="stop-color:#FFEC45"/>
			</linearGradient>
			<path style="fill:url(#SVGID_00000103947805639101226880000015483767621187483547_);" d="M1058.8,411.4c0,0,17.4-23.4,9.4-73.1
				c0,0-15.7,15.5-17.9,41.1C1048.2,404.8,1058.8,411.4,1058.8,411.4z"/>
		</g>
		<g>
			
				<linearGradient id="SVGID_00000139265326346845419100000001444647438840243359_" gradientUnits="userSpaceOnUse" x1="1498.2767" y1="697.3078" x2="1508.6289" y2="744.2378" gradientTransform="matrix(0.8352 -0.5499 -0.5499 -0.8352 264.4706 1781.0181)">
				<stop  offset="0" style="stop-color:#C78706"/>
				<stop  offset="1" style="stop-color:#FFEC45"/>
			</linearGradient>
			<path style="fill:url(#SVGID_00000139265326346845419100000001444647438840243359_);" d="M1090.6,359.7c0,0,9.2-33,51.7-53.3
				c0,0-4,26.5-22.6,43.9S1090.6,359.7,1090.6,359.7z"/>
			
				<linearGradient id="SVGID_00000035492117569192935800000014425995821719059074_" gradientUnits="userSpaceOnUse" x1="2857.3164" y1="-1260.7722" x2="2866.1746" y2="-1220.6145" gradientTransform="matrix(-0.1364 -0.866 0.9768 -0.1539 2674.4397 2615.2354)">
				<stop  offset="0" style="stop-color:#C78706"/>
				<stop  offset="1" style="stop-color:#FFEC45"/>
			</linearGradient>
			<path style="fill:url(#SVGID_00000035492117569192935800000014425995821719059074_);" d="M1089.6,359c0,0,13.3-27.4-2.4-74
				c0,0-12.9,19.2-11,44.8C1078.1,355.4,1089.6,359,1089.6,359z"/>
		</g>
		<g>
			
				<linearGradient id="SVGID_00000022539515690012418490000016304828035726722237_" gradientUnits="userSpaceOnUse" x1="1748.0166" y1="877.0286" x2="1758.501" y2="924.558" gradientTransform="matrix(0.7064 -0.7078 -0.7078 -0.7064 543.1131 2159.6462)">
				<stop  offset="0" style="stop-color:#C78706"/>
				<stop  offset="1" style="stop-color:#FFEC45"/>
			</linearGradient>
			<path style="fill:url(#SVGID_00000022539515690012418490000016304828035726722237_);" d="M1111.9,297.8c0,0,3.7-34.7,42.1-65.5
				c0,0,0.3,26.9-15.1,48.8C1123.5,302.9,1111.9,297.8,1111.9,297.8z"/>
			
				<linearGradient id="SVGID_00000145746344531970177040000017950807789966840476_" gradientUnits="userSpaceOnUse" x1="3158.2119" y1="-1108.3575" x2="3167.7632" y2="-1065.0582" gradientTransform="matrix(-0.3092 -0.8204 0.9253 -0.3487 3071.6248 2487.1716)">
				<stop  offset="0" style="stop-color:#C78706"/>
				<stop  offset="1" style="stop-color:#FFEC45"/>
			</linearGradient>
			<path style="fill:url(#SVGID_00000145746344531970177040000017950807789966840476_);" d="M1110.8,297.5c0,0,8.7-30.3-14.2-71.9
				c0,0-9.5,22.1-3.6,46.7C1099,296.8,1110.8,297.5,1110.8,297.5z"/>
		</g>
		<g>
			
				<linearGradient id="SVGID_00000170270129510463493970000000455311113170519954_" gradientUnits="userSpaceOnUse" x1="2139.2566" y1="1043.6212" x2="2149.3079" y2="1089.187" gradientTransform="matrix(0.463 -0.8863 -0.8863 -0.463 1104.2535 2599.5789)">
				<stop  offset="0" style="stop-color:#C78706"/>
				<stop  offset="1" style="stop-color:#FFEC45"/>
			</linearGradient>
			<path style="fill:url(#SVGID_00000170270129510463493970000000455311113170519954_);" d="M1124.6,232c0,0-4.6-34.5,24.7-78.4
				c0,0,6.7,25.6-2.9,52.2S1124.6,232,1124.6,232z"/>
			
				<linearGradient id="SVGID_00000015355079888017685060000015949440096944512426_" gradientUnits="userSpaceOnUse" x1="3512.2114" y1="-821.3232" x2="3522.4033" y2="-775.1209" gradientTransform="matrix(-0.5398 -0.6908 0.7792 -0.6089 3616.0007 2159.0569)">
				<stop  offset="0" style="stop-color:#C78706"/>
				<stop  offset="1" style="stop-color:#FFEC45"/>
			</linearGradient>
			<path style="fill:url(#SVGID_00000015355079888017685060000015949440096944512426_);" d="M1123.5,232.1c0,0,1.1-32.2-30.5-63.2
				c0,0-3.9,24.7,7.6,45.9S1123.5,232.1,1123.5,232.1z"/>
		</g>
		<g>
			
				<linearGradient id="SVGID_00000006699056650433089260000010355814596057943999_" gradientUnits="userSpaceOnUse" x1="2558.2205" y1="1104.1953" x2="2567.2166" y2="1144.9778" gradientTransform="matrix(0.1732 -0.9849 -0.9849 -0.1732 1803.1652 2849.7732)">
				<stop  offset="0" style="stop-color:#C78706"/>
				<stop  offset="1" style="stop-color:#FFEC45"/>
			</linearGradient>
			<path style="fill:url(#SVGID_00000006699056650433089260000010355814596057943999_);" d="M1120.6,166.3c0,0-12.7-31.1,4.8-84.2
				c0,0,12.5,21.8,9.7,50.9C1132.4,162.1,1120.6,166.3,1120.6,166.3z"/>
			
				<linearGradient id="SVGID_00000155868753741634638020000015345134844680489099_" gradientUnits="userSpaceOnUse" x1="3765.9719" y1="-462.5422" x2="3776.1536" y2="-416.3858" gradientTransform="matrix(-0.7235 -0.4951 0.5584 -0.8161 4063.3081 1669.3588)">
				<stop  offset="0" style="stop-color:#C78706"/>
				<stop  offset="1" style="stop-color:#FFEC45"/>
			</linearGradient>
			<path style="fill:url(#SVGID_00000155868753741634638020000015345134844680489099_);" d="M1119.6,166.8c0,0-6.6-31.1-44.2-48.6
				c0,0,2.2,25.1,18.2,40.8C1109.6,174.9,1119.6,166.8,1119.6,166.8z"/>
		</g>
		<g>
			
				<linearGradient id="SVGID_00000072258250295935559040000008034632830251696264_" gradientUnits="userSpaceOnUse" x1="3915.4585" y1="-274.4947" x2="3924.6074" y2="-233.0211" gradientTransform="matrix(-0.774 -0.4119 0.4645 -0.8729 4195.7188 1453.2693)">
				<stop  offset="0" style="stop-color:#C78706"/>
				<stop  offset="1" style="stop-color:#FFEC45"/>
			</linearGradient>
			<path style="fill:url(#SVGID_00000072258250295935559040000008034632830251696264_);" d="M1072.8,64.9c0,0-1.3-31.7-48.2-42.1
				c0,0,2,21.6,19.4,34.8C1057.3,67.7,1072.8,64.9,1072.8,64.9z"/>
		</g>
		<g>
			
				<linearGradient id="SVGID_00000061457329560377500160000010511907622020793990_" gradientUnits="userSpaceOnUse" x1="2965.0239" y1="1050.5833" x2="2972.7559" y2="1085.6349" gradientTransform="matrix(-0.1336 -0.991 -0.991 0.1336 2563.0051 2864.592)">
				<stop  offset="0" style="stop-color:#C78706"/>
				<stop  offset="1" style="stop-color:#FFEC45"/>
			</linearGradient>
			<path style="fill:url(#SVGID_00000061457329560377500160000010511907622020793990_);" d="M1099.8,104.8c0,0-19.5-24.8-15.6-82
				c0,0,17.1,16,21.5,44.8C1110,96.3,1099.8,104.8,1099.8,104.8z"/>
			
				<linearGradient id="SVGID_00000070085220936789855540000013304051562447668901_" gradientUnits="userSpaceOnUse" x1="3897.9939" y1="-64.6672" x2="3907.532" y2="-21.429" gradientTransform="matrix(-0.8396 -0.2524 0.2847 -0.947 4359.0889 1054.7594)">
				<stop  offset="0" style="stop-color:#C78706"/>
				<stop  offset="1" style="stop-color:#FFEC45"/>
			</linearGradient>
			<path style="fill:url(#SVGID_00000070085220936789855540000013304051562447668901_);" d="M1098.9,105.7c0,0-13.7-27.1-53.8-29.3
				c0,0,8.1,23,27.1,31.9C1091.3,117.2,1098.9,105.7,1098.9,105.7z"/>
		</g>
	</g>
	<g>
		<g>
			
				<linearGradient id="SVGID_00000081637434095876994610000009197142151825561520_" gradientUnits="userSpaceOnUse" x1="997.2555" y1="-29.6309" x2="1006.0826" y2="10.3862" gradientTransform="matrix(-0.9993 3.850000e-02 -3.850000e-02 -0.9993 1185.5125 460.886)">
				<stop  offset="0" style="stop-color:#C78706"/>
				<stop  offset="1" style="stop-color:#FFEC45"/>
			</linearGradient>
			<path style="fill:url(#SVGID_00000081637434095876994610000009197142151825561520_);" d="M214.6,493.2c0,0-23.5-20.9-69.1-5.5
				c0,0,16,19.3,40,19.8S214.6,493.2,214.6,493.2z"/>
			
				<linearGradient id="SVGID_00000085953985346728104210000014259402275197989558_" gradientUnits="userSpaceOnUse" x1="1865.7126" y1="-1414.7255" x2="1872.916" y2="-1382.0702" gradientTransform="matrix(-0.3928 -0.7838 -0.884 0.4431 -288.5748 2540.353)">
				<stop  offset="0" style="stop-color:#C78706"/>
				<stop  offset="1" style="stop-color:#FFEC45"/>
			</linearGradient>
			<path style="fill:url(#SVGID_00000085953985346728104210000014259402275197989558_);" d="M215.1,491.9c0,0-24.4-13-33.3-64.4
				c0,0,20.1,6.4,30.7,29.4C223.1,480,215.1,491.9,215.1,491.9z"/>
		</g>
		<g>
			
				<linearGradient id="SVGID_00000141432861162672980850000016246703615452420004_" gradientUnits="userSpaceOnUse" x1="1160.515" y1="313.0347" x2="1170.3717" y2="357.7179" gradientTransform="matrix(-0.9701 -0.2428 0.2428 -0.9701 1181.0394 1077.4523)">
				<stop  offset="0" style="stop-color:#C78706"/>
				<stop  offset="1" style="stop-color:#FFEC45"/>
			</linearGradient>
			<path style="fill:url(#SVGID_00000141432861162672980850000016246703615452420004_);" d="M165,463.5c0,0-18-28.4-65.1-29.8
				c0,0,11.1,24.2,34,33.2C156.9,475.8,165,463.5,165,463.5z"/>
			
				<linearGradient id="SVGID_00000149362056304599159510000005124117713470656438_" gradientUnits="userSpaceOnUse" x1="2300.9883" y1="-1409.3405" x2="2308.9077" y2="-1373.4386" gradientTransform="matrix(-0.1576 -0.8624 -0.9727 0.1778 -817.0685 2660.9753)">
				<stop  offset="0" style="stop-color:#C78706"/>
				<stop  offset="1" style="stop-color:#FFEC45"/>
			</linearGradient>
			<path style="fill:url(#SVGID_00000149362056304599159510000005124117713470656438_);" d="M165.8,462.4c0,0-20.5-21.1-17.7-73.6
				c0,0,17.8,13.2,22.9,39.1C176.1,453.8,165.8,462.4,165.8,462.4z"/>
		</g>
		<g>
			
				<linearGradient id="SVGID_00000096024656592261652840000010398089164090073530_" gradientUnits="userSpaceOnUse" x1="1294.0505" y1="481.7585" x2="1303.9614" y2="526.6878" gradientTransform="matrix(-0.929 -0.37 0.37 -0.929 1115.7094 1361.781)">
				<stop  offset="0" style="stop-color:#C78706"/>
				<stop  offset="1" style="stop-color:#FFEC45"/>
			</linearGradient>
			<path style="fill:url(#SVGID_00000096024656592261652840000010398089164090073530_);" d="M128.3,412.3c0,0-14.3-30-59.1-39
				c0,0,8.1,24.9,29.1,37.2C119.3,422.7,128.3,412.3,128.3,412.3z"/>
			
				<linearGradient id="SVGID_00000173883141982487020170000012357894950211949226_" gradientUnits="userSpaceOnUse" x1="2538.8811" y1="-1356.7609" x2="2546.9785" y2="-1320.0524" gradientTransform="matrix(-4.130000e-02 -0.8757 -0.9877 4.650000e-02 -1076.525 2666.2686)">
				<stop  offset="0" style="stop-color:#C78706"/>
				<stop  offset="1" style="stop-color:#FFEC45"/>
			</linearGradient>
			<path style="fill:url(#SVGID_00000173883141982487020170000012357894950211949226_);" d="M129.2,411.4c0,0-17.4-23.4-9.4-73.1
				c0,0,15.7,15.5,17.9,41.1C139.8,404.8,129.2,411.4,129.2,411.4z"/>
		</g>
		<g>
			
				<linearGradient id="SVGID_00000160887213018140599470000006452384143407535260_" gradientUnits="userSpaceOnUse" x1="1506.0853" y1="692.1666" x2="1516.4375" y2="739.0966" gradientTransform="matrix(-0.8352 -0.5499 0.5499 -0.8352 932.8782 1781.0181)">
				<stop  offset="0" style="stop-color:#C78706"/>
				<stop  offset="1" style="stop-color:#FFEC45"/>
			</linearGradient>
			<path style="fill:url(#SVGID_00000160887213018140599470000006452384143407535260_);" d="M97.4,359.7c0,0-9.2-33-51.7-53.3
				c0,0,4,26.5,22.6,43.9S97.4,359.7,97.4,359.7z"/>
			
				<linearGradient id="SVGID_00000159433797250221976730000013638048120499651509_" gradientUnits="userSpaceOnUse" x1="2855.6562" y1="-1251.4331" x2="2864.5146" y2="-1211.2754" gradientTransform="matrix(0.1364 -0.866 -0.9768 -0.1539 -1477.0906 2615.2354)">
				<stop  offset="0" style="stop-color:#C78706"/>
				<stop  offset="1" style="stop-color:#FFEC45"/>
			</linearGradient>
			<path style="fill:url(#SVGID_00000159433797250221976730000013638048120499651509_);" d="M98.4,359c0,0-13.3-27.4,2.4-74
				c0,0,12.9,19.2,11,44.8C109.9,355.4,98.4,359,98.4,359z"/>
		</g>
		<g>
			
				<linearGradient id="SVGID_00000148663662883232364410000010802927734575801225_" gradientUnits="userSpaceOnUse" x1="1754.6207" y1="870.4113" x2="1765.1053" y2="917.9406" gradientTransform="matrix(-0.7064 -0.7078 0.7078 -0.7064 654.236 2159.6462)">
				<stop  offset="0" style="stop-color:#C78706"/>
				<stop  offset="1" style="stop-color:#FFEC45"/>
			</linearGradient>
			<path style="fill:url(#SVGID_00000148663662883232364410000010802927734575801225_);" d="M76.1,297.8c0,0-3.7-34.7-42.1-65.5
				c0,0-0.3,26.9,15.1,48.8C64.5,302.9,76.1,297.8,76.1,297.8z"/>
			
				<linearGradient id="SVGID_00000158006766040069900740000014409358781228529808_" gradientUnits="userSpaceOnUse" x1="3154.4519" y1="-1099.5106" x2="3164.0032" y2="-1056.2113" gradientTransform="matrix(0.3092 -0.8204 -0.9253 -0.3487 -1874.2761 2487.1716)">
				<stop  offset="0" style="stop-color:#C78706"/>
				<stop  offset="1" style="stop-color:#FFEC45"/>
			</linearGradient>
			<path style="fill:url(#SVGID_00000158006766040069900740000014409358781228529808_);" d="M77.2,297.5c0,0-8.7-30.3,14.2-71.9
				c0,0,9.5,22.1,3.6,46.7C89,296.8,77.2,297.5,77.2,297.5z"/>
		</g>
		<g>
			
				<linearGradient id="SVGID_00000151527179508478954040000010759484310184246951_" gradientUnits="userSpaceOnUse" x1="2143.5857" y1="1035.3344" x2="2153.637" y2="1080.9001" gradientTransform="matrix(-0.463 -0.8863 0.8863 -0.463 93.0954 2599.5789)">
				<stop  offset="0" style="stop-color:#C78706"/>
				<stop  offset="1" style="stop-color:#FFEC45"/>
			</linearGradient>
			<path style="fill:url(#SVGID_00000151527179508478954040000010759484310184246951_);" d="M63.4,232c0,0,4.6-34.5-24.7-78.4
				c0,0-6.7,25.6,2.9,52.2S63.4,232,63.4,232z"/>
			
				<linearGradient id="SVGID_00000150097474582007814150000008670510413078789544_" gradientUnits="userSpaceOnUse" x1="3505.646" y1="-813.874" x2="3515.8374" y2="-767.6716" gradientTransform="matrix(0.5398 -0.6908 -0.7792 -0.6089 -2418.6519 2159.0569)">
				<stop  offset="0" style="stop-color:#C78706"/>
				<stop  offset="1" style="stop-color:#FFEC45"/>
			</linearGradient>
			<path style="fill:url(#SVGID_00000150097474582007814150000008670510413078789544_);" d="M64.5,232.1c0,0-1.1-32.2,30.5-63.2
				c0,0,3.9,24.7-7.6,45.9S64.5,232.1,64.5,232.1z"/>
		</g>
		<g>
			
				<linearGradient id="SVGID_00000013189758791862151960000016850372371134800771_" gradientUnits="userSpaceOnUse" x1="2559.8396" y1="1094.9878" x2="2568.8357" y2="1135.7701" gradientTransform="matrix(-0.1732 -0.9849 0.9849 -0.1732 -605.816 2849.7732)">
				<stop  offset="0" style="stop-color:#C78706"/>
				<stop  offset="1" style="stop-color:#FFEC45"/>
			</linearGradient>
			<path style="fill:url(#SVGID_00000013189758791862151960000016850372371134800771_);" d="M67.4,166.3c0,0,12.7-31.1-4.8-84.2
				c0,0-12.5,21.8-9.7,50.9S67.4,166.3,67.4,166.3z"/>
			
				<linearGradient id="SVGID_00000082326793681845255730000013381983546142706842_" gradientUnits="userSpaceOnUse" x1="3757.1711" y1="-457.203" x2="3767.3528" y2="-411.0465" gradientTransform="matrix(0.7235 -0.4951 -0.5584 -0.8161 -2865.9592 1669.3588)">
				<stop  offset="0" style="stop-color:#C78706"/>
				<stop  offset="1" style="stop-color:#FFEC45"/>
			</linearGradient>
			<path style="fill:url(#SVGID_00000082326793681845255730000013381983546142706842_);" d="M68.4,166.8c0,0,6.6-31.1,44.2-48.6
				c0,0-2.2,25.1-18.2,40.8C78.4,174.9,68.4,166.8,68.4,166.8z"/>
		</g>
		<g>
			
				<linearGradient id="SVGID_00000121240545145145260360000004422440520048974527_" gradientUnits="userSpaceOnUse" x1="3906.0457" y1="-270.0529" x2="3915.1946" y2="-228.5795" gradientTransform="matrix(0.774 -0.4119 -0.4645 -0.8729 -2998.3704 1453.2693)">
				<stop  offset="0" style="stop-color:#C78706"/>
				<stop  offset="1" style="stop-color:#FFEC45"/>
			</linearGradient>
			<path style="fill:url(#SVGID_00000121240545145145260360000004422440520048974527_);" d="M115.2,64.9c0,0,1.3-31.7,48.2-42.1
				c0,0-2,21.6-19.4,34.8C130.7,67.7,115.2,64.9,115.2,64.9z"/>
		</g>
		<g>
			
				<linearGradient id="SVGID_00000112592876915664753680000007093343294666504068_" gradientUnits="userSpaceOnUse" x1="2963.7747" y1="1041.3177" x2="2971.5066" y2="1076.3694" gradientTransform="matrix(0.1336 -0.991 0.991 0.1336 -1365.6561 2864.592)">
				<stop  offset="0" style="stop-color:#C78706"/>
				<stop  offset="1" style="stop-color:#FFEC45"/>
			</linearGradient>
			<path style="fill:url(#SVGID_00000112592876915664753680000007093343294666504068_);" d="M88.2,104.8c0,0,19.5-24.8,15.6-82
				c0,0-17.1,16-21.5,44.8C78,96.3,88.2,104.8,88.2,104.8z"/>
			
				<linearGradient id="SVGID_00000042711620229805577440000006145889172236373431_" gradientUnits="userSpaceOnUse" x1="3887.7817" y1="-61.9455" x2="3897.3198" y2="-18.7072" gradientTransform="matrix(0.8396 -0.2524 -0.2847 -0.947 -3161.74 1054.7594)">
				<stop  offset="0" style="stop-color:#C78706"/>
				<stop  offset="1" style="stop-color:#FFEC45"/>
			</linearGradient>
			<path style="fill:url(#SVGID_00000042711620229805577440000006145889172236373431_);" d="M89.1,105.7c0,0,13.7-27.1,53.8-29.3
				c0,0-8.1,23-27.1,31.9C96.7,117.2,89.1,105.7,89.1,105.7z"/>
		</g>
	</g>
</g>
</svg>
