<?xml version="1.0" encoding="utf-8"?>
<!-- Generator: Adobe Illustrator 27.3.1, SVG Export Plug-In . SVG Version: 6.00 Build 0)  -->
<svg version="1.1" id="Layer_1" xmlns="http://www.w3.org/2000/svg" xmlns:xlink="http://www.w3.org/1999/xlink" x="0px" y="0px"
	 viewBox="0 0 968 220" style="enable-background:new 0 0 968 220;" xml:space="preserve">
<style type="text/css">
	.st0{opacity:0.16;}
	.st1{fill:url(#SVGID_1_);}
	.st2{fill:url(#SVGID_00000123440350666259068780000001688977263146635928_);}
	.st3{fill:url(#SVGID_00000091722761303715064980000016295282575646895294_);}
	.st4{fill:url(#SVGID_00000172416118570654213510000012576492194735898014_);}
	.st5{fill:url(#SVGID_00000035531884730888778660000012085043564645078185_);}
	.st6{fill:url(#SVGID_00000159459097560969716640000012464332334111251361_);}
	.st7{fill:url(#SVGID_00000009553446598669860660000013146017074033131452_);}
	.st8{fill:url(#SVGID_00000048463111677428057350000010083480972572500635_);}
	.st9{fill:url(#SVGID_00000124869290843051996760000003124307504247119237_);}
	.st10{fill:url(#SVGID_00000144322008159237814740000016934226077845948575_);}
	.st11{fill:url(#SVGID_00000008127650508404948820000013809351090175115427_);}
	.st12{opacity:8.000000e-02;}
	.st13{fill:url(#SVGID_00000049909614980240884240000010845358418018017923_);}
	.st14{fill:url(#SVGID_00000039851007543064878110000001386327786735539384_);}
</style>
<g>
	<g>
		<g class="st0">
			<path d="M110,85.9l10.2-3.4l26.8,79.8l33.6-11.3l3.3,9.7l-43.8,14.7L110,85.9z"/>
			<path d="M198.9,124.1c4.1,16.2,14.8,20.7,25.3,18.2c7.6-1.8,11.8-4.4,15.3-7.2l3.8,8.2c-3.3,2.8-9.1,6.5-18.3,8.7
				c-17.9,4.2-31.7-6.6-36.4-26.5c-4.7-19.9,1.9-38,18.8-42c18.9-4.5,28.5,13.3,31.3,25.4c0.6,2.5,0.8,4.4,1,5.7L198.9,124.1z
				 M227.8,108.2c-1.7-7.7-7.4-18.8-19.2-16c-10.7,2.5-12.7,14.8-11.6,23.3L227.8,108.2z"/>
			<path d="M300.6,136.1l-2.2-8.3l-0.4,0.1c-2.4,5.8-8,11.5-16.4,12.9c-11.9,1.9-19.5-6.6-21.1-16.3c-2.6-16.2,8.6-27.1,31.4-30.6
				l-0.2-1.4c-0.9-5.5-3.8-15.3-15.9-13.3c-5.5,0.9-10.9,3.7-14.5,7.5l-3.7-7.6c4.3-4.4,11-7.9,18.4-9.1c18-2.9,24.6,10.3,26.8,23.7
				l4.1,25c0.9,5.8,2.1,11.4,3.6,15.9L300.6,136.1z M293.4,102.2c-11.7,1.6-24.6,6.1-22.5,19.1c1.3,7.9,6.5,10.9,12,10
				c7.7-1.2,11.6-7.6,12.4-13.5c0.2-1.3,0.2-2.7,0-4L293.4,102.2z"/>
			<path d="M376,27.4l8,81.5c0.6,6,1.4,12.8,2.2,17.4l-9.7,0.9l-1.6-11.7l-0.2,0c-2.6,7.8-9.3,14.3-18.9,15.2
				c-14.4,1.4-26.7-11.3-28.7-31.8c-2.3-22.4,8.6-37.4,23.1-38.8c9.1-0.9,15.7,3.4,18.9,8.6l0.2,0l-3.9-40.3L376,27.4z M371,87.4
				c-0.2-1.5-0.5-3.6-1-5.1c-2.4-7.6-8.9-13.5-17-12.7c-11.2,1.1-16.7,12.9-15.2,27.8c1.3,13.7,8.3,24.4,20,23.2
				c7.2-0.7,13.3-6.8,14.4-16.2c0.2-1.7,0.2-3.4,0-5.3L371,87.4z"/>
			<path d="M416.2,92.8c0.9,16.6,10.6,23.1,21.4,22.7c7.8-0.3,12.4-2,16.4-4.2l2.2,8.7c-3.7,2.1-10.2,4.6-19.7,5
				c-18.3,0.8-29.9-12.5-30.7-32.9c-0.8-20.4,9.1-37,26.5-37.7c19.5-0.8,25.4,18.4,25.9,30.9c0.1,2.5-0.1,4.5-0.1,5.8L416.2,92.8z
				 M447.6,82.7c-0.2-7.8-3.7-19.9-15.8-19.4c-11,0.5-15.3,12.1-15.8,20.7L447.6,82.7z"/>
			<path d="M481.7,75.9c0-8,0-14.8-0.4-21.1l9.5,0.1l0.3,13.3l0.5,0c2.8-9.1,9.3-14.8,16.6-14.8c1.2,0,2.1,0.2,3.1,0.4l-0.1,11.6
				c-1.1-0.3-2.2-0.4-3.7-0.4c-7.6,0-13.1,6.5-14.6,15.7c-0.3,1.7-0.5,3.6-0.5,5.7l-0.2,36.1l-10.7-0.1L481.7,75.9z"/>
			<path d="M529.9,122.9c0.5-4.6,1-11.4,1.3-17.5l3.9-81.8l10.7,0.5l-2,42.5l0.2,0c4.2-7.4,11.3-11.9,20.9-11.5
				c14.8,0.7,24.6,15.2,23.4,35.8c-1.2,24.2-15.2,35.6-28.5,34.9c-8.6-0.4-15.3-4.5-19.3-13.7l-0.4,0l-1,11.2L529.9,122.9z
				 M542.4,96.3c-0.1,1.5,0.1,3.1,0.3,4.5c1.7,8.6,7.7,14.8,15.6,15.2c11.3,0.5,18.6-9.6,19.3-25.1c0.7-13.6-4.9-25.5-16.5-26
				c-7.4-0.4-14.6,5-17.2,14.3c-0.3,1.4-0.8,3-0.9,5L542.4,96.3z"/>
			<path d="M665.6,99c-2.7,24.9-19.1,34.1-33.4,32.6c-16.1-1.7-27-16.4-24.7-37.7c2.4-22.6,16.9-34.4,33.3-32.6
				C657.8,63.1,667.8,78.4,665.6,99z M618.5,94.6c-1.6,14.8,4.7,26.7,15.2,27.8c10.3,1.1,19.2-9,20.8-24.2
				c1.2-11.4-2.2-26.4-15-27.8C626.8,69.1,619.9,81.8,618.5,94.6z"/>
			<path d="M715.6,142.1l0.6-8.6l-0.4-0.1c-4.2,4.7-11.3,8.3-19.7,6.8c-11.9-2.1-16.3-12.6-14.6-22.3c2.8-16.1,17-22.8,39.6-18.7
				l0.2-1.4c1-5.5,1.3-15.7-10.7-17.8c-5.5-0.9-11.5,0-16.2,2.3l-1-8.4c5.5-2.7,12.9-3.9,20.3-2.6c18,3.1,19.9,17.8,17.6,31.2
				l-4.3,25c-1,5.8-1.7,11.5-1.8,16.2L715.6,142.1z M719.9,107.8c-11.6-2.3-25.2-2.2-27.5,10.7c-1.4,7.9,2.6,12.4,8.1,13.3
				c7.7,1.3,13.5-3.4,16.1-8.7c0.6-1.2,1.1-2.5,1.3-3.8L719.9,107.8z"/>
			<path d="M759.8,103.6c1.9-7.8,3.3-14.5,4.4-20.7l9.2,2.2l-2.7,13l0.5,0.1C776,90,783.7,86,790.8,87.7c1.2,0.3,2,0.6,2.9,1.1
				l-2.7,11.3c-1-0.5-2.1-0.9-3.5-1.3c-7.4-1.8-14.2,3.4-17.8,12c-0.6,1.6-1.3,3.4-1.8,5.5l-8.4,35.1L749,149L759.8,103.6z"/>
			<path d="M874.1,81.7l-25.7,77.8c-1.9,5.7-3.9,12.3-5,16.8l-9.2-3.1l3.2-11.3l-0.2-0.1c-5.5,6.1-14.2,9.3-23.5,6.2
				c-13.7-4.5-19.9-21.2-13.4-40.7c7-21.4,23-30.7,36.8-26.2c8.7,2.9,13,9.5,13.8,15.5l0.2,0.1l12.7-38.4L874.1,81.7z M845.2,134.6
				c0.5-1.5,1-3.5,1.2-5.1c0.9-8-2.7-15.9-10.4-18.5c-10.6-3.5-20.5,5-25.2,19.3c-4.3,13-2.3,25.7,8.9,29.3c6.9,2.3,14.9-0.8,19.7-9
				c0.9-1.5,1.5-3,2.1-4.9L845.2,134.6z"/>
			<path d="M110,85.9l10.2-3.4l26.8,79.8l33.6-11.3l3.3,9.7l-43.8,14.7L110,85.9z"/>
			<path d="M198.9,124.1c4.1,16.2,14.8,20.7,25.3,18.2c7.6-1.8,11.8-4.4,15.3-7.2l3.8,8.2c-3.3,2.8-9.1,6.5-18.3,8.7
				c-17.9,4.2-31.7-6.6-36.4-26.5c-4.7-19.9,1.9-38,18.8-42c18.9-4.5,28.5,13.3,31.3,25.4c0.6,2.5,0.8,4.4,1,5.7L198.9,124.1z
				 M227.8,108.2c-1.7-7.7-7.4-18.8-19.2-16c-10.7,2.5-12.7,14.8-11.6,23.3L227.8,108.2z"/>
			<path d="M300.6,136.1l-2.2-8.3l-0.4,0.1c-2.4,5.8-8,11.5-16.4,12.9c-11.9,1.9-19.5-6.6-21.1-16.3c-2.6-16.2,8.6-27.1,31.4-30.6
				l-0.2-1.4c-0.9-5.5-3.8-15.3-15.9-13.3c-5.5,0.9-10.9,3.7-14.5,7.5l-3.7-7.6c4.3-4.4,11-7.9,18.4-9.1c18-2.9,24.6,10.3,26.8,23.7
				l4.1,25c0.9,5.8,2.1,11.4,3.6,15.9L300.6,136.1z M293.4,102.2c-11.7,1.6-24.6,6.1-22.5,19.1c1.3,7.9,6.5,10.9,12,10
				c7.7-1.2,11.6-7.6,12.4-13.5c0.2-1.3,0.2-2.7,0-4L293.4,102.2z"/>
			<path d="M376,27.4l8,81.5c0.6,6,1.4,12.8,2.2,17.4l-9.7,0.9l-1.6-11.7l-0.2,0c-2.6,7.8-9.3,14.3-18.9,15.2
				c-14.4,1.4-26.7-11.3-28.7-31.8c-2.3-22.4,8.6-37.4,23.1-38.8c9.1-0.9,15.7,3.4,18.9,8.6l0.2,0l-3.9-40.3L376,27.4z M371,87.4
				c-0.2-1.5-0.5-3.6-1-5.1c-2.4-7.6-8.9-13.5-17-12.7c-11.2,1.1-16.7,12.9-15.2,27.8c1.3,13.7,8.3,24.4,20,23.2
				c7.2-0.7,13.3-6.8,14.4-16.2c0.2-1.7,0.2-3.4,0-5.3L371,87.4z"/>
			<path d="M416.2,92.8c0.9,16.6,10.6,23.1,21.4,22.7c7.8-0.3,12.4-2,16.4-4.2l2.2,8.7c-3.7,2.1-10.2,4.6-19.7,5
				c-18.3,0.8-29.9-12.5-30.7-32.9c-0.8-20.4,9.1-37,26.5-37.7c19.5-0.8,25.4,18.4,25.9,30.9c0.1,2.5-0.1,4.5-0.1,5.8L416.2,92.8z
				 M447.6,82.7c-0.2-7.8-3.7-19.9-15.8-19.4c-11,0.5-15.3,12.1-15.8,20.7L447.6,82.7z"/>
			<path d="M481.7,75.9c0-8,0-14.8-0.4-21.1l9.5,0.1l0.3,13.3l0.5,0c2.8-9.1,9.3-14.8,16.6-14.8c1.2,0,2.1,0.2,3.1,0.4l-0.1,11.6
				c-1.1-0.3-2.2-0.4-3.7-0.4c-7.6,0-13.1,6.5-14.6,15.7c-0.3,1.7-0.5,3.6-0.5,5.7l-0.2,36.1l-10.7-0.1L481.7,75.9z"/>
			<path d="M529.9,122.9c0.5-4.6,1-11.4,1.3-17.5l3.9-81.8l10.7,0.5l-2,42.5l0.2,0c4.2-7.4,11.3-11.9,20.9-11.5
				c14.8,0.7,24.6,15.2,23.4,35.8c-1.2,24.2-15.2,35.6-28.5,34.9c-8.6-0.4-15.3-4.5-19.3-13.7l-0.4,0l-1,11.2L529.9,122.9z
				 M542.4,96.3c-0.1,1.5,0.1,3.1,0.3,4.5c1.7,8.6,7.7,14.8,15.6,15.2c11.3,0.5,18.6-9.6,19.3-25.1c0.7-13.6-4.9-25.5-16.5-26
				c-7.4-0.4-14.6,5-17.2,14.3c-0.3,1.4-0.8,3-0.9,5L542.4,96.3z"/>
			<path d="M665.6,99c-2.7,24.9-19.1,34.1-33.4,32.6c-16.1-1.7-27-16.4-24.7-37.7c2.4-22.6,16.9-34.4,33.3-32.6
				C657.8,63.1,667.8,78.4,665.6,99z M618.5,94.6c-1.6,14.8,4.7,26.7,15.2,27.8c10.3,1.1,19.2-9,20.8-24.2
				c1.2-11.4-2.2-26.4-15-27.8C626.8,69.1,619.9,81.8,618.5,94.6z"/>
			<path d="M715.6,142.1l0.6-8.6l-0.4-0.1c-4.2,4.7-11.3,8.3-19.7,6.8c-11.9-2.1-16.3-12.6-14.6-22.3c2.8-16.1,17-22.8,39.6-18.7
				l0.2-1.4c1-5.5,1.3-15.7-10.7-17.8c-5.5-0.9-11.5,0-16.2,2.3l-1-8.4c5.5-2.7,12.9-3.9,20.3-2.6c18,3.1,19.9,17.8,17.6,31.2
				l-4.3,25c-1,5.8-1.7,11.5-1.8,16.2L715.6,142.1z M719.9,107.8c-11.6-2.3-25.2-2.2-27.5,10.7c-1.4,7.9,2.6,12.4,8.1,13.3
				c7.7,1.3,13.5-3.4,16.1-8.7c0.6-1.2,1.1-2.5,1.3-3.8L719.9,107.8z"/>
			<path d="M759.8,103.6c1.9-7.8,3.3-14.5,4.4-20.7l9.2,2.2l-2.7,13l0.5,0.1C776,90,783.7,86,790.8,87.7c1.2,0.3,2,0.6,2.9,1.1
				l-2.7,11.3c-1-0.5-2.1-0.9-3.5-1.3c-7.4-1.8-14.2,3.4-17.8,12c-0.6,1.6-1.3,3.4-1.8,5.5l-8.4,35.1L749,149L759.8,103.6z"/>
			<path d="M874.1,81.7l-25.7,77.8c-1.9,5.7-3.9,12.3-5,16.8l-9.2-3.1l3.2-11.3l-0.2-0.1c-5.5,6.1-14.2,9.3-23.5,6.2
				c-13.7-4.5-19.9-21.2-13.4-40.7c7-21.4,23-30.7,36.8-26.2c8.7,2.9,13,9.5,13.8,15.5l0.2,0.1l12.7-38.4L874.1,81.7z M845.2,134.6
				c0.5-1.5,1-3.5,1.2-5.1c0.9-8-2.7-15.9-10.4-18.5c-10.6-3.5-20.5,5-25.2,19.3c-4.3,13-2.3,25.7,8.9,29.3c6.9,2.3,14.9-0.8,19.7-9
				c0.9-1.5,1.5-3,2.1-4.9L845.2,134.6z"/>
		</g>
		<g>
			<g>
				<path d="M109,84.9l10.2-3.4l26.8,79.8l33.6-11.3l3.3,9.7l-43.8,14.7L109,84.9z"/>
				<path d="M197.9,123.1c4.1,16.2,14.8,20.7,25.3,18.2c7.6-1.8,11.8-4.4,15.3-7.2l3.8,8.2c-3.3,2.8-9.1,6.5-18.3,8.7
					c-17.9,4.2-31.7-6.6-36.4-26.5c-4.7-19.9,1.9-38,18.8-42c18.9-4.5,28.5,13.3,31.3,25.4c0.6,2.5,0.8,4.4,1,5.7L197.9,123.1z
					 M226.8,107.2c-1.7-7.7-7.4-18.8-19.2-16c-10.7,2.5-12.7,14.8-11.6,23.3L226.8,107.2z"/>
				<path d="M299.6,135.1l-2.2-8.3l-0.4,0.1c-2.4,5.8-8,11.5-16.4,12.9c-11.9,1.9-19.5-6.6-21.1-16.3c-2.6-16.2,8.6-27.1,31.4-30.6
					l-0.2-1.4c-0.9-5.5-3.8-15.3-15.9-13.3c-5.5,0.9-10.9,3.7-14.5,7.5l-3.7-7.6c4.3-4.4,11-7.9,18.4-9.1
					c18-2.9,24.6,10.3,26.8,23.7l4.1,25c0.9,5.8,2.1,11.4,3.6,15.9L299.6,135.1z M292.4,101.2c-11.7,1.6-24.6,6.1-22.5,19.1
					c1.3,7.9,6.5,10.9,12,10c7.7-1.2,11.6-7.6,12.4-13.5c0.2-1.3,0.2-2.7,0-4L292.4,101.2z"/>
				<path d="M375,26.4l8,81.5c0.6,6,1.4,12.8,2.2,17.4l-9.7,0.9l-1.6-11.7l-0.2,0c-2.6,7.8-9.3,14.3-18.9,15.2
					c-14.4,1.4-26.7-11.3-28.7-31.8c-2.3-22.4,8.6-37.4,23.1-38.8c9.1-0.9,15.7,3.4,18.9,8.6l0.2,0l-3.9-40.3L375,26.4z M370,86.4
					c-0.2-1.5-0.5-3.6-1-5.1c-2.4-7.6-8.9-13.5-17-12.7c-11.2,1.1-16.7,12.9-15.2,27.8c1.3,13.7,8.3,24.4,20,23.2
					c7.2-0.7,13.3-6.8,14.4-16.2c0.2-1.7,0.2-3.4,0-5.3L370,86.4z"/>
				<path d="M415.2,91.8c0.9,16.6,10.6,23.1,21.4,22.7c7.8-0.3,12.4-2,16.4-4.2l2.2,8.7c-3.7,2.1-10.2,4.6-19.7,5
					c-18.3,0.8-29.9-12.5-30.7-32.9c-0.8-20.4,9.1-37,26.5-37.7c19.5-0.8,25.4,18.4,25.9,30.9c0.1,2.5-0.1,4.5-0.1,5.8L415.2,91.8z
					 M446.6,81.7c-0.2-7.8-3.7-19.9-15.8-19.4c-11,0.5-15.3,12.1-15.8,20.7L446.6,81.7z"/>
				<path d="M480.7,74.9c0-8,0-14.8-0.4-21.1l9.5,0.1l0.3,13.3l0.5,0c2.8-9.1,9.3-14.8,16.6-14.8c1.2,0,2.1,0.2,3.1,0.4l-0.1,11.6
					c-1.1-0.3-2.2-0.4-3.7-0.4c-7.6,0-13.1,6.5-14.6,15.7c-0.3,1.7-0.5,3.6-0.5,5.7l-0.2,36.1l-10.7-0.1L480.7,74.9z"/>
				<path d="M528.9,121.9c0.5-4.6,1-11.4,1.3-17.5l3.9-81.8l10.7,0.5l-2,42.5l0.2,0c4.2-7.4,11.3-11.9,20.9-11.5
					c14.8,0.7,24.6,15.2,23.4,35.8c-1.2,24.2-15.2,35.6-28.5,34.9c-8.6-0.4-15.3-4.5-19.3-13.7l-0.4,0l-1,11.2L528.9,121.9z
					 M541.4,95.3c-0.1,1.5,0.1,3.1,0.3,4.5c1.7,8.6,7.7,14.8,15.6,15.2c11.3,0.5,18.6-9.6,19.3-25.1c0.7-13.6-4.9-25.5-16.5-26
					c-7.4-0.4-14.6,5-17.2,14.3c-0.3,1.4-0.8,3-0.9,5L541.4,95.3z"/>
				<path d="M664.6,98c-2.7,24.9-19.1,34.1-33.4,32.6c-16.1-1.7-27-16.4-24.7-37.7c2.4-22.6,16.9-34.4,33.3-32.6
					C656.8,62.1,666.8,77.4,664.6,98z M617.5,93.6c-1.6,14.8,4.7,26.7,15.2,27.8c10.3,1.1,19.2-9,20.8-24.2
					c1.2-11.4-2.2-26.4-15-27.8C625.8,68.1,618.9,80.8,617.5,93.6z"/>
				<path d="M714.6,141.1l0.6-8.6l-0.4-0.1c-4.2,4.7-11.3,8.3-19.7,6.8c-11.9-2.1-16.3-12.6-14.6-22.3c2.8-16.1,17-22.8,39.6-18.7
					l0.2-1.4c1-5.5,1.3-15.7-10.7-17.8c-5.5-0.9-11.5,0-16.2,2.3l-1-8.4c5.5-2.7,12.9-3.9,20.3-2.6c18,3.1,19.9,17.8,17.6,31.2
					l-4.3,25c-1,5.8-1.7,11.5-1.8,16.2L714.6,141.1z M718.9,106.8c-11.6-2.3-25.2-2.2-27.5,10.7c-1.4,7.9,2.6,12.4,8.1,13.3
					c7.7,1.3,13.5-3.4,16.1-8.7c0.6-1.2,1.1-2.5,1.3-3.8L718.9,106.8z"/>
				<path d="M758.8,102.6c1.9-7.8,3.3-14.5,4.4-20.7l9.2,2.2l-2.7,13l0.5,0.1C775,89,782.7,85,789.8,86.7c1.2,0.3,2,0.6,2.9,1.1
					L790,99.1c-1-0.5-2.1-0.9-3.5-1.3c-7.4-1.8-14.2,3.4-17.8,12c-0.6,1.6-1.3,3.4-1.8,5.5l-8.4,35.1L748,148L758.8,102.6z"/>
				<path d="M873.1,80.7l-25.7,77.8c-1.9,5.7-3.9,12.3-5,16.8l-9.2-3.1l3.2-11.3l-0.2-0.1c-5.5,6.1-14.2,9.3-23.5,6.2
					c-13.7-4.5-19.9-21.2-13.4-40.7c7-21.4,23-30.7,36.8-26.2c8.7,2.9,13,9.5,13.8,15.5l0.2,0.1l12.7-38.4L873.1,80.7z M844.2,133.6
					c0.5-1.5,1-3.5,1.2-5.1c0.9-8-2.7-15.9-10.4-18.5c-10.6-3.5-20.5,5-25.2,19.3c-4.3,13-2.3,25.7,8.9,29.3
					c6.9,2.3,14.9-0.8,19.7-9c0.9-1.5,1.5-3,2.1-4.9L844.2,133.6z"/>
			</g>
			<g>
				<linearGradient id="SVGID_1_" gradientUnits="userSpaceOnUse" x1="491.0536" y1="175.2946" x2="491.0536" y2="22.6424">
					<stop  offset="0" style="stop-color:#2E3192"/>
					<stop  offset="0.1962" style="stop-color:#422F92"/>
					<stop  offset="0.4399" style="stop-color:#542E91"/>
					<stop  offset="0.6996" style="stop-color:#5F2D91"/>
					<stop  offset="1" style="stop-color:#622D91"/>
				</linearGradient>
				<path class="st1" d="M109,84.9l10.2-3.4l26.8,79.8l33.6-11.3l3.3,9.7l-43.8,14.7L109,84.9z"/>
				
					<linearGradient id="SVGID_00000088831841932444389190000010379669914370198963_" gradientUnits="userSpaceOnUse" x1="491.0536" y1="175.2946" x2="491.0536" y2="22.6424">
					<stop  offset="0" style="stop-color:#2E3192"/>
					<stop  offset="0.1962" style="stop-color:#422F92"/>
					<stop  offset="0.4399" style="stop-color:#542E91"/>
					<stop  offset="0.6996" style="stop-color:#5F2D91"/>
					<stop  offset="1" style="stop-color:#622D91"/>
				</linearGradient>
				<path style="fill:url(#SVGID_00000088831841932444389190000010379669914370198963_);" d="M197.9,123.1
					c4.1,16.2,14.8,20.7,25.3,18.2c7.6-1.8,11.8-4.4,15.3-7.2l3.8,8.2c-3.3,2.8-9.1,6.5-18.3,8.7c-17.9,4.2-31.7-6.6-36.4-26.5
					c-4.7-19.9,1.9-38,18.8-42c18.9-4.5,28.5,13.3,31.3,25.4c0.6,2.5,0.8,4.4,1,5.7L197.9,123.1z M226.8,107.2
					c-1.7-7.7-7.4-18.8-19.2-16c-10.7,2.5-12.7,14.8-11.6,23.3L226.8,107.2z"/>
				
					<linearGradient id="SVGID_00000114760689132559732200000014205722684382813864_" gradientUnits="userSpaceOnUse" x1="491.0536" y1="175.2946" x2="491.0536" y2="22.6424">
					<stop  offset="0" style="stop-color:#2E3192"/>
					<stop  offset="0.1962" style="stop-color:#422F92"/>
					<stop  offset="0.4399" style="stop-color:#542E91"/>
					<stop  offset="0.6996" style="stop-color:#5F2D91"/>
					<stop  offset="1" style="stop-color:#622D91"/>
				</linearGradient>
				<path style="fill:url(#SVGID_00000114760689132559732200000014205722684382813864_);" d="M299.6,135.1l-2.2-8.3l-0.4,0.1
					c-2.4,5.8-8,11.5-16.4,12.9c-11.9,1.9-19.5-6.6-21.1-16.3c-2.6-16.2,8.6-27.1,31.4-30.6l-0.2-1.4c-0.9-5.5-3.8-15.3-15.9-13.3
					c-5.5,0.9-10.9,3.7-14.5,7.5l-3.7-7.6c4.3-4.4,11-7.9,18.4-9.1c18-2.9,24.6,10.3,26.8,23.7l4.1,25c0.9,5.8,2.1,11.4,3.6,15.9
					L299.6,135.1z M292.4,101.2c-11.7,1.6-24.6,6.1-22.5,19.1c1.3,7.9,6.5,10.9,12,10c7.7-1.2,11.6-7.6,12.4-13.5
					c0.2-1.3,0.2-2.7,0-4L292.4,101.2z"/>
				
					<linearGradient id="SVGID_00000076596953518470102500000004410560708095602577_" gradientUnits="userSpaceOnUse" x1="491.0536" y1="175.2946" x2="491.0536" y2="22.6424">
					<stop  offset="0" style="stop-color:#2E3192"/>
					<stop  offset="0.1962" style="stop-color:#422F92"/>
					<stop  offset="0.4399" style="stop-color:#542E91"/>
					<stop  offset="0.6996" style="stop-color:#5F2D91"/>
					<stop  offset="1" style="stop-color:#622D91"/>
				</linearGradient>
				<path style="fill:url(#SVGID_00000076596953518470102500000004410560708095602577_);" d="M375,26.4l8,81.5
					c0.6,6,1.4,12.8,2.2,17.4l-9.7,0.9l-1.6-11.7l-0.2,0c-2.6,7.8-9.3,14.3-18.9,15.2c-14.4,1.4-26.7-11.3-28.7-31.8
					c-2.3-22.4,8.6-37.4,23.1-38.8c9.1-0.9,15.7,3.4,18.9,8.6l0.2,0l-3.9-40.3L375,26.4z M370,86.4c-0.2-1.5-0.5-3.6-1-5.1
					c-2.4-7.6-8.9-13.5-17-12.7c-11.2,1.1-16.7,12.9-15.2,27.8c1.3,13.7,8.3,24.4,20,23.2c7.2-0.7,13.3-6.8,14.4-16.2
					c0.2-1.7,0.2-3.4,0-5.3L370,86.4z"/>
				
					<linearGradient id="SVGID_00000055688081628343664800000010232583884446406019_" gradientUnits="userSpaceOnUse" x1="491.0536" y1="175.2946" x2="491.0536" y2="22.6424">
					<stop  offset="0" style="stop-color:#2E3192"/>
					<stop  offset="0.1962" style="stop-color:#422F92"/>
					<stop  offset="0.4399" style="stop-color:#542E91"/>
					<stop  offset="0.6996" style="stop-color:#5F2D91"/>
					<stop  offset="1" style="stop-color:#622D91"/>
				</linearGradient>
				<path style="fill:url(#SVGID_00000055688081628343664800000010232583884446406019_);" d="M415.2,91.8
					c0.9,16.6,10.6,23.1,21.4,22.7c7.8-0.3,12.4-2,16.4-4.2l2.2,8.7c-3.7,2.1-10.2,4.6-19.7,5c-18.3,0.8-29.9-12.5-30.7-32.9
					c-0.8-20.4,9.1-37,26.5-37.7c19.5-0.8,25.4,18.4,25.9,30.9c0.1,2.5-0.1,4.5-0.1,5.8L415.2,91.8z M446.6,81.7
					c-0.2-7.8-3.7-19.9-15.8-19.4c-11,0.5-15.3,12.1-15.8,20.7L446.6,81.7z"/>
				
					<linearGradient id="SVGID_00000183244212816259797180000009151365905811347080_" gradientUnits="userSpaceOnUse" x1="491.0536" y1="175.2946" x2="491.0536" y2="22.6424">
					<stop  offset="0" style="stop-color:#2E3192"/>
					<stop  offset="0.1962" style="stop-color:#422F92"/>
					<stop  offset="0.4399" style="stop-color:#542E91"/>
					<stop  offset="0.6996" style="stop-color:#5F2D91"/>
					<stop  offset="1" style="stop-color:#622D91"/>
				</linearGradient>
				<path style="fill:url(#SVGID_00000183244212816259797180000009151365905811347080_);" d="M480.7,74.9c0-8,0-14.8-0.4-21.1
					l9.5,0.1l0.3,13.3l0.5,0c2.8-9.1,9.3-14.8,16.6-14.8c1.2,0,2.1,0.2,3.1,0.4l-0.1,11.6c-1.1-0.3-2.2-0.4-3.7-0.4
					c-7.6,0-13.1,6.5-14.6,15.7c-0.3,1.7-0.5,3.6-0.5,5.7l-0.2,36.1l-10.7-0.1L480.7,74.9z"/>
				
					<linearGradient id="SVGID_00000171000423715430372900000007359083823544287929_" gradientUnits="userSpaceOnUse" x1="491.0536" y1="175.2946" x2="491.0536" y2="22.6424">
					<stop  offset="0" style="stop-color:#2E3192"/>
					<stop  offset="0.1962" style="stop-color:#422F92"/>
					<stop  offset="0.4399" style="stop-color:#542E91"/>
					<stop  offset="0.6996" style="stop-color:#5F2D91"/>
					<stop  offset="1" style="stop-color:#622D91"/>
				</linearGradient>
				<path style="fill:url(#SVGID_00000171000423715430372900000007359083823544287929_);" d="M528.9,121.9c0.5-4.6,1-11.4,1.3-17.5
					l3.9-81.8l10.7,0.5l-2,42.5l0.2,0c4.2-7.4,11.3-11.9,20.9-11.5c14.8,0.7,24.6,15.2,23.4,35.8c-1.2,24.2-15.2,35.6-28.5,34.9
					c-8.6-0.4-15.3-4.5-19.3-13.7l-0.4,0l-1,11.2L528.9,121.9z M541.4,95.3c-0.1,1.5,0.1,3.1,0.3,4.5c1.7,8.6,7.7,14.8,15.6,15.2
					c11.3,0.5,18.6-9.6,19.3-25.1c0.7-13.6-4.9-25.5-16.5-26c-7.4-0.4-14.6,5-17.2,14.3c-0.3,1.4-0.8,3-0.9,5L541.4,95.3z"/>
				
					<linearGradient id="SVGID_00000148629459295880438390000003920527180458029734_" gradientUnits="userSpaceOnUse" x1="491.0536" y1="175.2946" x2="491.0536" y2="22.6424">
					<stop  offset="0" style="stop-color:#2E3192"/>
					<stop  offset="0.1962" style="stop-color:#422F92"/>
					<stop  offset="0.4399" style="stop-color:#542E91"/>
					<stop  offset="0.6996" style="stop-color:#5F2D91"/>
					<stop  offset="1" style="stop-color:#622D91"/>
				</linearGradient>
				<path style="fill:url(#SVGID_00000148629459295880438390000003920527180458029734_);" d="M664.6,98
					c-2.7,24.9-19.1,34.1-33.4,32.6c-16.1-1.7-27-16.4-24.7-37.7c2.4-22.6,16.9-34.4,33.3-32.6C656.8,62.1,666.8,77.4,664.6,98z
					 M617.5,93.6c-1.6,14.8,4.7,26.7,15.2,27.8c10.3,1.1,19.2-9,20.8-24.2c1.2-11.4-2.2-26.4-15-27.8
					C625.8,68.1,618.9,80.8,617.5,93.6z"/>
				
					<linearGradient id="SVGID_00000051343980808589388710000013553431834011548846_" gradientUnits="userSpaceOnUse" x1="491.0536" y1="175.2946" x2="491.0536" y2="22.6424">
					<stop  offset="0" style="stop-color:#2E3192"/>
					<stop  offset="0.1962" style="stop-color:#422F92"/>
					<stop  offset="0.4399" style="stop-color:#542E91"/>
					<stop  offset="0.6996" style="stop-color:#5F2D91"/>
					<stop  offset="1" style="stop-color:#622D91"/>
				</linearGradient>
				<path style="fill:url(#SVGID_00000051343980808589388710000013553431834011548846_);" d="M714.6,141.1l0.6-8.6l-0.4-0.1
					c-4.2,4.7-11.3,8.3-19.7,6.8c-11.9-2.1-16.3-12.6-14.6-22.3c2.8-16.1,17-22.8,39.6-18.7l0.2-1.4c1-5.5,1.3-15.7-10.7-17.8
					c-5.5-0.9-11.5,0-16.2,2.3l-1-8.4c5.5-2.7,12.9-3.9,20.3-2.6c18,3.1,19.9,17.8,17.6,31.2l-4.3,25c-1,5.8-1.7,11.5-1.8,16.2
					L714.6,141.1z M718.9,106.8c-11.6-2.3-25.2-2.2-27.5,10.7c-1.4,7.9,2.6,12.4,8.1,13.3c7.7,1.3,13.5-3.4,16.1-8.7
					c0.6-1.2,1.1-2.5,1.3-3.8L718.9,106.8z"/>
				
					<linearGradient id="SVGID_00000032610310404760068990000001108244057586469527_" gradientUnits="userSpaceOnUse" x1="491.0536" y1="175.2946" x2="491.0536" y2="22.6424">
					<stop  offset="0" style="stop-color:#2E3192"/>
					<stop  offset="0.1962" style="stop-color:#422F92"/>
					<stop  offset="0.4399" style="stop-color:#542E91"/>
					<stop  offset="0.6996" style="stop-color:#5F2D91"/>
					<stop  offset="1" style="stop-color:#622D91"/>
				</linearGradient>
				<path style="fill:url(#SVGID_00000032610310404760068990000001108244057586469527_);" d="M758.8,102.6
					c1.9-7.8,3.3-14.5,4.4-20.7l9.2,2.2l-2.7,13l0.5,0.1C775,89,782.7,85,789.8,86.7c1.2,0.3,2,0.6,2.9,1.1L790,99.1
					c-1-0.5-2.1-0.9-3.5-1.3c-7.4-1.8-14.2,3.4-17.8,12c-0.6,1.6-1.3,3.4-1.8,5.5l-8.4,35.1L748,148L758.8,102.6z"/>
				
					<linearGradient id="SVGID_00000141419558422631337990000014719682555798717868_" gradientUnits="userSpaceOnUse" x1="491.0536" y1="175.2946" x2="491.0536" y2="22.6424">
					<stop  offset="0" style="stop-color:#2E3192"/>
					<stop  offset="0.1962" style="stop-color:#422F92"/>
					<stop  offset="0.4399" style="stop-color:#542E91"/>
					<stop  offset="0.6996" style="stop-color:#5F2D91"/>
					<stop  offset="1" style="stop-color:#622D91"/>
				</linearGradient>
				<path style="fill:url(#SVGID_00000141419558422631337990000014719682555798717868_);" d="M873.1,80.7l-25.7,77.8
					c-1.9,5.7-3.9,12.3-5,16.8l-9.2-3.1l3.2-11.3l-0.2-0.1c-5.5,6.1-14.2,9.3-23.5,6.2c-13.7-4.5-19.9-21.2-13.4-40.7
					c7-21.4,23-30.7,36.8-26.2c8.7,2.9,13,9.5,13.8,15.5l0.2,0.1l12.7-38.4L873.1,80.7z M844.2,133.6c0.5-1.5,1-3.5,1.2-5.1
					c0.9-8-2.7-15.9-10.4-18.5c-10.6-3.5-20.5,5-25.2,19.3c-4.3,13-2.3,25.7,8.9,29.3c6.9,2.3,14.9-0.8,19.7-9
					c0.9-1.5,1.5-3,2.1-4.9L844.2,133.6z"/>
			</g>
		</g>
	</g>
	<g>
		<g class="st12">
			<polygon points="113.3,139.3 92.9,141.1 81.1,124.4 76.5,144.3 57,150.4 74.5,161 74.3,181.4 89.7,168 109.1,174.5 101.1,155.7 
							"/>
			<polygon points="869.2,142.7 889.6,144.5 901.4,127.8 906,147.7 925.5,153.8 908,164.4 908.2,184.8 892.8,171.4 873.4,177.9 
				881.4,159.1 			"/>
		</g>
		<g>
			<g>
				
					<linearGradient id="SVGID_00000148633902267685840120000011630459090522835902_" gradientUnits="userSpaceOnUse" x1="72.1666" y1="179.9593" x2="100.1505" y2="131.4898">
					<stop  offset="0" style="stop-color:#C78706"/>
					<stop  offset="1" style="stop-color:#FFEC45"/>
				</linearGradient>
				<polygon style="fill:url(#SVGID_00000148633902267685840120000011630459090522835902_);" points="112.8,138.8 92.4,140.6 
					80.6,123.9 76,143.8 56.5,149.9 74,160.5 73.8,180.9 89.2,167.5 108.6,174 100.6,155.2 				"/>
				
					<linearGradient id="SVGID_00000059306809922379466590000000918185298952376742_" gradientUnits="userSpaceOnUse" x1="226.9368" y1="183.3438" x2="254.9207" y2="134.8743" gradientTransform="matrix(-1 0 0 1 1136.2701 0)">
					<stop  offset="0" style="stop-color:#C78706"/>
					<stop  offset="1" style="stop-color:#FFEC45"/>
				</linearGradient>
				<polygon style="fill:url(#SVGID_00000059306809922379466590000000918185298952376742_);" points="868.7,142.2 889.1,144 
					900.9,127.3 905.5,147.2 925,153.3 907.5,163.9 907.7,184.3 892.3,170.9 872.9,177.4 880.9,158.6 				"/>
			</g>
		</g>
	</g>
</g>
</svg>
