<?xml version="1.0" encoding="UTF-8"?>
<svg version="1.1" xmlns="http://www.w3.org/2000/svg" width="600" height="293">
<path d="M0 0 C1.08391022 -0.00281982 2.16782043 -0.00563965 3.28457642 -0.00854492 C4.48408432 -0.00652069 5.68359222 -0.00449646 6.91944885 -0.00241089 C8.1745929 -0.00416321 9.42973694 -0.00591553 10.72291565 -0.00772095 C14.1753697 -0.01229505 17.627794 -0.0105057 21.08024859 -0.00734186 C24.68681086 -0.00481759 28.2933705 -0.00715604 31.89993286 -0.00872803 C37.95868896 -0.01054976 44.01743288 -0.00814356 50.07618713 -0.00338745 C57.08746169 0.00205273 64.09870715 0.00029431 71.109981 -0.00521386 C77.12102554 -0.00974781 83.1320613 -0.01039407 89.143107 -0.00777519 C92.73697484 -0.00621365 96.330829 -0.00601523 99.92469597 -0.00931168 C103.93077703 -0.0127292 107.93680774 -0.00799602 111.94288635 -0.00241089 C113.73911186 -0.00544724 113.73911186 -0.00544724 115.57162476 -0.00854492 C116.6583548 -0.0057251 117.74508484 -0.00290527 118.86474609 0 C119.81289405 0.00037703 120.761042 0.00075405 121.73792171 0.0011425 C123.99586487 0.12698364 123.99586487 0.12698364 125.99586487 1.12698364 C126.62086487 4.18948364 126.62086487 4.18948364 126.99586487 7.12698364 C128.1152948 7.19067139 128.1152948 7.19067139 129.25733948 7.25564575 C138.46060486 7.86236967 147.47565863 9.15483729 156.55836487 10.68948364 C157.71314331 10.88297897 157.71314331 10.88297897 158.89125061 11.0803833 C184.98282989 15.48184322 210.73847678 21.20309718 235.99586487 29.12698364 C235.99586487 32.75698364 235.99586487 36.38698364 235.99586487 40.12698364 C236.86388733 40.42467651 237.73190979 40.72236938 238.62623596 41.02908325 C241.84325419 42.13311424 245.05983958 43.2383885 248.27613831 44.34451294 C249.66887001 44.82320359 251.06177291 45.30139646 252.45484924 45.77908325 C254.45595172 46.46535878 256.45643387 47.15341583 258.45680237 47.84182739 C259.66127014 48.25553589 260.86573792 48.66924438 262.10670471 49.0954895 C264.99586487 50.12698364 264.99586487 50.12698364 266.99586487 51.12698364 C265.55386436 54.94054593 263.81687379 58.471263 261.87867737 62.05667114 C261.27152893 63.18202271 260.66438049 64.30737427 260.03883362 65.46682739 C259.7234967 66.04803345 259.40815979 66.6292395 259.08326721 67.22805786 C258.12820687 68.98845066 257.17725345 70.75106955 256.22633362 72.51370239 C255.61660706 73.64163208 255.00688049 74.76956177 254.37867737 75.93167114 C253.5032428 77.57280884 253.5032428 77.57280884 252.61012268 79.24710083 C251.34085185 81.51151685 250.00888131 83.48655051 248.48805237 85.57229614 C246.28057384 90.83094918 247.06402579 95.46415514 247.74409485 101.04702759 C248.00946015 103.2392988 248.24208237 105.4333438 248.4690094 107.62991333 C248.9699395 112.4239879 249.51212295 117.21289512 250.05836487 122.00198364 C250.24677571 123.67252728 250.43492828 125.34310006 250.62281799 127.01370239 C251.07753336 131.05180394 251.53570798 135.08949871 251.99586487 139.12698364 C244.02925489 136.81189066 236.16930075 134.21360607 228.30836487 131.56448364 C218.21557608 128.14023663 218.21557608 128.14023663 207.99586487 125.12698364 C207.99586487 121.49698364 207.99586487 117.86698364 207.99586487 114.12698364 C171.20708448 104.90823503 134.74065864 98.76055608 96.99586487 95.12698364 C97.65586487 96.07573364 98.31586487 97.02448364 98.99586487 98.00198364 C100.99586487 101.12698364 100.99586487 101.12698364 100.99586487 103.12698364 C101.65586487 103.12698364 102.31586487 103.12698364 102.99586487 103.12698364 C108.88859482 115.71599763 110.26424516 130.22872302 105.97633362 143.59573364 C102.63880831 152.21213364 98.89086826 157.91431378 91.74586487 163.81448364 C88.97844293 165.83121584 88.97844293 165.83121584 87.99586487 168.12698364 C75.81361638 176.01420863 61.43418474 177.75302193 47.43336487 175.00198364 C35.09264906 171.8620382 23.98207108 163.59058947 17.37574768 152.64871216 C12.79055661 144.26929981 11.35100952 136.47793771 11.49586487 127.00198364 C11.47266174 125.47251099 11.47266174 125.47251099 11.44898987 123.91213989 C11.48405584 117.0830418 12.75443438 112.11347171 15.99586487 106.12698364 C16.57336487 104.95135864 17.15086487 103.77573364 17.74586487 102.56448364 C18.36461487 101.35792114 18.36461487 101.35792114 18.99586487 100.12698364 C19.65586487 100.12698364 20.31586487 100.12698364 20.99586487 100.12698364 C20.99586487 99.13698364 20.99586487 98.14698364 20.99586487 97.12698364 C21.65586487 97.12698364 22.31586487 97.12698364 22.99586487 97.12698364 C22.99586487 96.46698364 22.99586487 95.80698364 22.99586487 95.12698364 C-11.20099735 98.29815691 -44.49597639 103.49790997 -77.91917419 111.40237427 C-81.93988572 112.34677691 -85.96995792 113.24206735 -90.00413513 114.12698364 C-89.67413513 115.11698364 -89.34413513 116.10698364 -89.00413513 117.12698364 C-88.87631727 119.80093329 -88.96021642 122.44794222 -89.00413513 125.12698364 C-94.00226157 126.80130442 -99.00105948 128.47359983 -104.00047302 130.14407349 C-105.69889846 130.71188502 -107.39714351 131.28023643 -109.09519958 131.84915161 C-111.54483346 132.66976818 -113.99512303 133.48840049 -116.44554138 134.30667114 C-117.19686844 134.55883392 -117.9481955 134.8109967 -118.72229004 135.07080078 C-123.12235794 136.5376439 -127.53510641 137.88544368 -132.00413513 139.12698364 C-131.67876667 131.33707363 -131.0682346 123.84702906 -129.50413513 116.20901489 C-125.70965497 96.63572647 -127.27410688 84.69224726 -138.09397888 67.83792114 C-139.3870177 65.92723236 -140.6895175 64.02289015 -142.00413513 62.12698364 C-146.99018502 54.8999299 -146.99018502 54.8999299 -147.04124451 52.0708313 C-145.34205401 48.88604912 -142.69512517 48.61449512 -139.34397888 47.54885864 C-138.67951248 47.33255798 -138.01504608 47.11625732 -137.33044434 46.8934021 C-135.2055001 46.20562417 -133.07405978 45.54116182 -130.94163513 44.87698364 C-129.50039308 44.4149579 -128.05963027 43.95143432 -126.61936951 43.48635864 C-123.08635539 42.34912958 -119.54715631 41.2326969 -116.00413513 40.12698364 C-116.33413513 36.49698364 -116.66413513 32.86698364 -117.00413513 29.12698364 C-90.6982975 21.59705986 -64.33801628 15.14319449 -37.31663513 10.75198364 C-36.53522156 10.62442688 -35.75380798 10.49687012 -34.94871521 10.365448 C-25.99125752 8.91616903 -17.06858565 7.69550106 -8.00413513 7.12698364 C-7.69476013 6.15760864 -7.38538513 5.18823364 -7.06663513 4.18948364 C-5.45735127 -0.44904043 -4.6986465 0.00186913 0 0 Z " fill="#0A2C76" transform="translate(242.00413513183594,58.873016357421875)"/>
<path d="M0 0 C10.34194109 0.53696581 20.42661106 1.82939597 30.625 3.5625 C31.39235474 3.69149689 32.15970947 3.82049377 32.95031738 3.95339966 C59.02119246 8.36265129 84.76094497 14.08186509 110 22 C110 25.63 110 29.26 110 33 C110.86802246 33.29769287 111.73604492 33.59538574 112.63037109 33.90209961 C115.84738932 35.00613059 119.06397471 36.11140485 122.28027344 37.2175293 C123.67300514 37.69621995 125.06590804 38.17441282 126.45898438 38.65209961 C128.46008685 39.33837514 130.46056901 40.02643219 132.4609375 40.71484375 C133.66540527 41.12855225 134.86987305 41.54226074 136.11083984 41.96850586 C139 43 139 43 141 44 C139.55799949 47.81356229 137.82100893 51.34427936 135.8828125 54.9296875 C134.97208984 56.61771484 134.97208984 56.61771484 134.04296875 58.33984375 C133.72763184 58.9210498 133.41229492 59.50225586 133.08740234 60.10107422 C132.132342 61.86146702 131.18138858 63.62408591 130.23046875 65.38671875 C129.62074219 66.51464844 129.01101563 67.64257812 128.3828125 68.8046875 C127.50737793 70.4458252 127.50737793 70.4458252 126.61425781 72.12011719 C125.34498698 74.38453321 124.01301645 76.35956687 122.4921875 78.4453125 C120.28470897 83.70396554 121.06816092 88.33717149 121.74822998 93.92004395 C122.01359528 96.11231515 122.2462175 98.30636016 122.47314453 100.50292969 C122.97407463 105.29700426 123.51625808 110.08591147 124.0625 114.875 C124.25091084 116.54554364 124.43906342 118.21611642 124.62695312 119.88671875 C125.08166849 123.9248203 125.53984312 127.96251507 126 132 C118.03339002 129.68490702 110.17343589 127.08662243 102.3125 124.4375 C92.21971121 121.01325299 92.21971121 121.01325299 82 118 C82 114.37 82 110.74 82 107 C47.75953416 98.41982301 12.88039307 90.70823707 -22.4855957 88.81323242 C-23.64019287 88.7485376 -24.79479004 88.68384277 -25.984375 88.6171875 C-27.03206055 88.57062012 -28.07974609 88.52405273 -29.15917969 88.47607422 C-33.79196976 87.69969568 -35.88765816 85.40186201 -39 82 C-38 79 -38 79 -34.91015625 77.17578125 C-33.6326637 76.54434632 -32.3498293 75.92363056 -31.0625 75.3125 C-30.41603516 74.99216797 -29.76957031 74.67183594 -29.10351562 74.34179688 C-24.29509262 72 -24.29509262 72 -22 72 C-21.67 59.79 -21.34 47.58 -21 35 C-11.5625 34.5625 -11.5625 34.5625 -8.58422852 34.43188477 C-7.81522217 34.39377686 -7.04621582 34.35566895 -6.25390625 34.31640625 C-5.46314697 34.27974854 -4.6723877 34.24309082 -3.85766602 34.20532227 C-1.98598559 34.19436743 -1.98598559 34.19436743 -1 33 C-0.84019563 30.55391002 -0.74070553 28.13268942 -0.68359375 25.68359375 C-0.66281265 24.95253922 -0.64203156 24.22148468 -0.62062073 23.46827698 C-0.55504976 21.12478344 -0.49620568 18.78117461 -0.4375 16.4375 C-0.39432192 14.85220145 -0.35070787 13.26691471 -0.30664062 11.68164062 C-0.1993608 7.78787963 -0.0981151 3.89400228 0 0 Z " fill="#D93130" transform="translate(368,66)"/>
<path d="M0 0 C0.02505615 0.99443115 0.0501123 1.9888623 0.07592773 3.01342773 C0.16984882 6.69048747 0.27010619 10.3673515 0.37231445 14.04418945 C0.41572146 15.637893 0.45739219 17.2316448 0.49731445 18.82543945 C0.55487807 21.11163908 0.61861149 23.39759449 0.68359375 25.68359375 C0.70866249 26.7586039 0.70866249 26.7586039 0.73423767 27.85533142 C0.55018654 31.21527382 0.55018654 31.21527382 2 34 C3.48638992 34.15655027 4.97949127 34.25066943 6.47265625 34.31640625 C7.82133789 34.37924805 7.82133789 34.37924805 9.19726562 34.44335938 C10.14279297 34.48267578 11.08832031 34.52199219 12.0625 34.5625 C13.4865918 34.62727539 13.4865918 34.62727539 14.93945312 34.69335938 C17.29281353 34.79979276 19.64628354 34.90181008 22 35 C21.94650391 36.04341553 21.89300781 37.08683105 21.83789062 38.16186523 C20.08786285 56.49614696 20.08786285 56.49614696 24.61767578 73.58837891 C28.80943042 77.35271501 33.5520972 78.89445039 39 80 C37.69479073 83.91562781 35.45867858 85.92195417 32 88 C29.14836135 88.63045871 26.76669538 88.98534324 23.89453125 89.15234375 C23.11046906 89.2175119 22.32640686 89.28268005 21.51858521 89.349823 C19.83127854 89.4894994 18.14320402 89.62014092 16.45455933 89.74258423 C11.9307684 90.07632321 7.41494919 90.49438653 2.8984375 90.9140625 C1.97979416 90.99874283 1.06115082 91.08342316 0.1146698 91.17066956 C-8.67793015 92.01014256 -17.36508823 93.28498872 -26.0625 94.8125 C-27.12478317 94.99889542 -27.12478317 94.99889542 -28.20852661 95.1890564 C-42.54832314 97.73868569 -56.74376121 100.92393513 -70.91503906 104.27539062 C-74.93575059 105.21979327 -78.96582278 106.11508371 -83 107 C-82.67 107.99 -82.34 108.98 -82 110 C-81.87218214 112.67394964 -81.95608129 115.32095857 -82 118 C-86.99812644 119.67432077 -91.99692435 121.34661619 -96.99633789 123.01708984 C-98.69476333 123.58490137 -100.39300838 124.15325278 -102.09106445 124.72216797 C-104.54069833 125.54278454 -106.99098789 126.36141685 -109.44140625 127.1796875 C-110.19273331 127.43185028 -110.94406036 127.68401306 -111.71815491 127.94381714 C-116.11822281 129.41066026 -120.53097128 130.75846003 -125 132 C-124.67463154 124.21008999 -124.06409947 116.72004541 -122.5 109.08203125 C-118.70551983 89.50874283 -120.26997174 77.56526362 -131.08984375 60.7109375 C-132.38288257 58.80024872 -133.68538237 56.89590651 -135 55 C-139.98604989 47.77294626 -139.98604989 47.77294626 -140.03710938 44.94384766 C-138.33791888 41.75906548 -135.69099004 41.48751148 -132.33984375 40.421875 C-131.67537735 40.20557434 -131.01091095 39.98927368 -130.3263092 39.76641846 C-128.20136497 39.07864053 -126.06992465 38.41417817 -123.9375 37.75 C-122.49625794 37.28797426 -121.05549514 36.82445068 -119.61523438 36.359375 C-116.08222026 35.22214594 -112.54302118 34.10571325 -109 33 C-109.33 29.37 -109.66 25.74 -110 22 C-29.88071716 -0.93377241 -29.88071716 -0.93377241 0 0 Z " fill="#D93130" transform="translate(235,66)"/>
<path d="M0 0 C9.04040819 6.63976198 15.75162438 14.4153405 18.57421875 25.45703125 C20.40795821 38.20261386 17.91126182 49.7406128 10.38671875 60.33203125 C3.17221392 68.82426696 -6.7685832 74.78713242 -17.953125 75.765625 C-30.05190358 75.98513326 -38.54127641 73.70480221 -48.42578125 66.45703125 C-54.6864323 60.37312964 -58.92225315 53.81702686 -61.42578125 45.45703125 C-61.61527344 44.82667969 -61.80476563 44.19632813 -62 43.546875 C-64.29362099 32.28919399 -61.67774615 21.36900201 -55.73828125 11.70703125 C-49.72738193 3.38540932 -42.15225776 -2.59157195 -32.13671875 -5.12109375 C-20.82010767 -6.8821802 -9.83385706 -6.25502985 0 0 Z " fill="#E2E3E4" transform="translate(323.42578125,151.54296875)"/>
<path d="M0 0 C7.34119568 1.7679485 14.44423822 4.1269962 21.5625 6.625 C22.90199707 7.09498413 22.90199707 7.09498413 24.26855469 7.57446289 C30.71095545 9.85547773 30.71095545 9.85547773 33 11 C31.55799949 14.81356229 29.82100893 18.34427936 27.8828125 21.9296875 C26.97208984 23.61771484 26.97208984 23.61771484 26.04296875 25.33984375 C25.56996338 26.21165283 25.56996338 26.21165283 25.08740234 27.10107422 C24.132342 28.86146702 23.18138858 30.62408591 22.23046875 32.38671875 C21.62074219 33.51464844 21.01101563 34.64257812 20.3828125 35.8046875 C19.50737793 37.4458252 19.50737793 37.4458252 18.61425781 39.12011719 C17.34498698 41.38453321 16.01301645 43.35956687 14.4921875 45.4453125 C12.28470897 50.70396554 13.06816092 55.33717149 13.74822998 60.92004395 C14.01359528 63.11231515 14.2462175 65.30636016 14.47314453 67.50292969 C14.97407463 72.29700426 15.51625808 77.08591147 16.0625 81.875 C16.25091084 83.54554364 16.43906342 85.21611642 16.62695312 86.88671875 C17.08166849 90.9248203 17.53984312 94.96251507 18 99 C10.03339002 96.68490702 2.17343589 94.08662243 -5.6875 91.4375 C-15.78028879 88.01325299 -15.78028879 88.01325299 -26 85 C-26 81.37 -26 77.74 -26 74 C-60.24046584 65.41982301 -95.11960693 57.70823707 -130.4855957 55.81323242 C-131.64019287 55.7485376 -132.79479004 55.68384277 -133.984375 55.6171875 C-135.03206055 55.57062012 -136.07974609 55.52405273 -137.15917969 55.47607422 C-141.79196976 54.69969568 -143.88765816 52.40186201 -147 49 C-146 46 -146 46 -144.27856445 44.82495117 C-136.24983652 41.91816111 -125.61856753 44.25748633 -117.3125 45.1875 C-116.1155249 45.31987061 -114.9185498 45.45224121 -113.68530273 45.58862305 C-82.49180444 49.16294078 -51.72245012 54.63223976 -21.38720703 62.81591797 C-20.32872559 63.10096191 -19.27024414 63.38600586 -18.1796875 63.6796875 C-17.24882324 63.93476074 -16.31795898 64.18983398 -15.35888672 64.45263672 C-12.91653404 65.11301873 -12.91653404 65.11301873 -10 65 C-9.86424561 64.05906494 -9.72849121 63.11812988 -9.58862305 62.14868164 C-5.00668187 30.44286186 -5.00668187 30.44286186 -2.625 17.51953125 C-1.59197702 11.70232058 -0.78871859 5.85507568 0 0 Z " fill="#A22C2C" transform="translate(476,99)"/>
<path d="M0 0 C1.90512755 3.30023658 2.48745292 6.25503964 3 10.015625 C3.2475 11.76939453 3.2475 11.76939453 3.5 13.55859375 C3.7475 15.38583984 3.7475 15.38583984 4 17.25 C5.14584634 26.29090919 5.14584634 26.29090919 7.0234375 35.1953125 C8.2489713 39.9699922 8.94599445 44.74724587 9.625 49.625 C9.82609375 50.99785156 9.82609375 50.99785156 10.03125 52.3984375 C10.22074219 53.73648438 10.22074219 53.73648438 10.4140625 55.1015625 C10.5270166 55.89900879 10.6399707 56.69645508 10.75634766 57.51806641 C11.03508321 60.35737064 11.03875934 63.14886326 11 66 C12.01908447 65.72849121 13.03816895 65.45698242 14.08813477 65.17724609 C47.78053575 56.23242472 81.33128238 49.42038823 115.94836426 45.24859619 C117.88644737 45.01375914 119.82362865 44.77151368 121.76074219 44.52880859 C124.96310993 44.13587726 128.16665047 43.77761896 131.375 43.4375 C132.71884766 43.27266113 132.71884766 43.27266113 134.08984375 43.10449219 C140.03645552 42.54845142 143.09535785 43.56939451 148 47 C146.69479073 50.91562781 144.45867858 52.92195417 141 55 C138.14836135 55.63045871 135.76669538 55.98534324 132.89453125 56.15234375 C132.11046906 56.2175119 131.32640686 56.28268005 130.51858521 56.349823 C128.83127854 56.4894994 127.14320402 56.62014092 125.45455933 56.74258423 C120.9307684 57.07632321 116.41494919 57.49438653 111.8984375 57.9140625 C110.97979416 57.99874283 110.06115082 58.08342316 109.1146698 58.17066956 C100.32206985 59.01014256 91.63491177 60.28498872 82.9375 61.8125 C82.22931122 61.93676361 81.52112244 62.06102722 80.79147339 62.1890564 C66.45167686 64.73868569 52.25623879 67.92393513 38.08496094 71.27539062 C34.06424941 72.21979327 30.03417722 73.11508371 26 74 C26.33 74.99 26.66 75.98 27 77 C27.12781786 79.67394964 27.04391871 82.32095857 27 85 C22.00187356 86.67432077 17.00307565 88.34661619 12.00366211 90.01708984 C10.30523667 90.58490137 8.60699162 91.15325278 6.90893555 91.72216797 C4.45930167 92.54278454 2.00901211 93.36141685 -0.44140625 94.1796875 C-1.19273331 94.43185028 -1.94406036 94.68401306 -2.71815491 94.94381714 C-7.11822281 96.41066026 -11.53097128 97.75846003 -16 99 C-15.67463154 91.21008999 -15.06409947 83.72004541 -13.5 76.08203125 C-9.70551983 56.50874283 -11.26997174 44.56526362 -22.08984375 27.7109375 C-23.38288257 25.80024872 -24.68538237 23.89590651 -26 22 C-30.98604989 14.77294626 -30.98604989 14.77294626 -31.03710938 11.94384766 C-29.33791888 8.75906548 -26.69099004 8.48751148 -23.33984375 7.421875 C-22.34314415 7.09742401 -22.34314415 7.09742401 -21.3263092 6.76641846 C-19.20136497 6.07864053 -17.06992465 5.41417817 -14.9375 4.75 C-13.49625794 4.28797426 -12.05549514 3.82445068 -10.61523438 3.359375 C-7.08222026 2.22214594 -3.54302118 1.10571325 0 0 Z " fill="#A22C2C" transform="translate(126,99)"/>
<path d="M0 0 C24.75 0 49.5 0 75 0 C75 15.18 75 30.36 75 46 C59 54 59 54 51 53 C50.01 52.67 49.02 52.34 48 52 C44.35807728 51.76964558 40.7109529 51.81483725 37.0625 51.8125 C36.06025391 51.80025391 35.05800781 51.78800781 34.02539062 51.77539062 C33.05923828 51.77345703 32.09308594 51.77152344 31.09765625 51.76953125 C29.77519897 51.76336792 29.77519897 51.76336792 28.42602539 51.75708008 C25.99666393 51.84838661 25.99666393 51.84838661 24.05639648 53.0144043 C22 54 22 54 16 54 C10.72 51.36 5.44 48.72 0 46 C0 30.82 0 15.64 0 0 Z " fill="#6E13E1" transform="translate(264,88)"/>
<path d="M0 0 C39.27 0 78.54 0 119 0 C119 8.91 119 17.82 119 27 C114.05 27 109.1 27 104 27 C103.505 21.06 103.505 21.06 103 15 C74.29 15 45.58 15 16 15 C15.67 18.96 15.34 22.92 15 27 C10.05 27 5.1 27 0 27 C0 18.09 0 9.18 0 0 Z " fill="#6460F2" transform="translate(242,67)"/>
<path d="M0 0 C10.34194109 0.53696581 20.42661106 1.82939597 30.625 3.5625 C31.39235474 3.69149689 32.15970947 3.82049377 32.95031738 3.95339966 C59.00853435 8.36051048 84.78643095 14.03305538 110 22 C109.85866501 23.77119803 109.71176792 25.54195287 109.5625 27.3125 C109.44068359 28.79169922 109.44068359 28.79169922 109.31640625 30.30078125 C109 33 109 33 108 36 C103.58066848 35.44483522 99.49620273 34.64365086 95.25 33.3125 C84.70048409 30.21962487 73.94403464 27.99296762 63.20019531 25.6875 C61.28189305 25.2753899 59.36431132 24.85987115 57.44824219 24.4375 C43.06386656 21.26711674 28.50311162 19.16822263 13.93847656 17.01757812 C13.09437729 16.89154709 12.25027802 16.76551605 11.38059998 16.63566589 C9.77050404 16.39552111 8.15988715 16.15883813 6.54872131 15.92597961 C1.11233767 15.11233767 1.11233767 15.11233767 0 14 C-0.14420474 9.33353468 -0.04205476 4.66807837 0 0 Z " fill="#F34342" transform="translate(368,66)"/>
<path d="M0 0 C0 4.95 0 9.9 0 15 C-2.3203125 15.30292969 -4.640625 15.60585937 -7.03125 15.91796875 C-23.89939821 18.15067346 -40.59596435 20.59696289 -57.20117188 24.37060547 C-60.14504363 25.0326171 -63.09448568 25.66228333 -66.046875 26.28515625 C-75.72913491 28.33490214 -85.33047049 30.51934493 -94.87109375 33.15234375 C-98.88963538 34.24101233 -102.92658179 35.14243827 -107 36 C-108.76997725 31.28006065 -109.43008089 26.97010539 -110 22 C-33.40070505 0 -33.40070505 0 0 0 Z " fill="#F34342" transform="translate(235,66)"/>
<path d="M0 0 C1.1969751 0.13237061 2.3939502 0.26474121 3.62719727 0.40112305 C34.78657854 3.97153147 65.54888492 9.39742473 95.83740234 17.62841797 C96.89266113 17.91346191 97.94791992 18.19850586 99.03515625 18.4921875 C99.96078369 18.74726074 100.88641113 19.00233398 101.84008789 19.26513672 C104.54135989 19.95660304 104.54135989 19.95660304 108.3125 19.8125 C108.17154936 21.4379308 108.02457913 23.06284051 107.875 24.6875 C107.75318359 26.04488281 107.75318359 26.04488281 107.62890625 27.4296875 C107.3125 29.8125 107.3125 29.8125 106.3125 31.8125 C99.89881503 30.57184505 93.54052917 29.19189152 87.1953125 27.640625 C54.25801084 19.70343015 20.76704866 12.4443365 -13.1730957 10.62573242 C-14.32769287 10.5610376 -15.48229004 10.49634277 -16.671875 10.4296875 C-17.71956055 10.38312012 -18.76724609 10.33655273 -19.84667969 10.28857422 C-24.47946976 9.51219568 -26.57515816 7.21436201 -29.6875 3.8125 C-28.6875 0.8125 -28.6875 0.8125 -26.96606445 -0.36254883 C-18.93733652 -3.26933889 -8.30606753 -0.93001367 0 0 Z " fill="#C12221" transform="translate(358.6875,144.1875)"/>
<path d="M0 0 C0.763125 0.37125 1.52625 0.7425 2.3125 1.125 C2.869375 1.41375 3.42625 1.7025 4 2 C2.69479073 5.91562781 0.45867858 7.92195417 -3 10 C-5.85163865 10.63045871 -8.23330462 10.98534324 -11.10546875 11.15234375 C-11.88953094 11.2175119 -12.67359314 11.28268005 -13.48141479 11.349823 C-15.16872146 11.4894994 -16.85679598 11.62014092 -18.54544067 11.74258423 C-23.0692316 12.07632321 -27.58505081 12.49438653 -32.1015625 12.9140625 C-33.47952751 13.04108299 -33.47952751 13.04108299 -34.8853302 13.17066956 C-64.23915453 15.97322434 -93.59136171 22.66326385 -122.00390625 30.37109375 C-125.08747488 31.01836174 -127.8586876 31.11809445 -131 31 C-132.31626692 27.38026598 -133 24.90432869 -133 21 C-97.58713919 11.56515607 -62.39015481 4.40362834 -26 0 C-24.8130957 -0.1448584 -23.62619141 -0.2897168 -22.40332031 -0.43896484 C-19.43727158 -0.79172524 -16.47028724 -1.12268931 -13.5 -1.4375 C-12.68257324 -1.53063477 -11.86514648 -1.62376953 -11.02294922 -1.71972656 C-6.77710299 -2.12479749 -3.80269445 -1.98920985 0 0 Z " fill="#C12221" transform="translate(270,144)"/>
<path d="M0 0 C0.66 0 1.32 0 2 0 C3.00484204 1.95585325 4.00373805 3.91476237 5 5.875 C5.556875 6.96554688 6.11375 8.05609375 6.6875 9.1796875 C8 12 8 12 8 14 C8.66386719 14.06058594 9.32773437 14.12117187 10.01171875 14.18359375 C18.78207381 15.01581722 18.78207381 15.01581722 23 16 C21.61339295 19.29407157 20.17249185 20.68477262 17.3125 22.75 C15.2590341 24.67194226 14.11347039 26.04808209 13.77539062 28.88427734 C13.75359208 33.6330898 14.32933906 38.30537342 15 43 C11.29145451 42.50970003 8.52781638 42.00471201 5.4375 39.875 C2.29595722 37.80546632 2.29595722 37.80546632 -0.4375 38 C-3.45930464 39.17924083 -6.28768653 40.60474692 -9.1328125 42.16015625 C-11 43 -11 43 -14 43 C-13.82339844 41.94941406 -13.64679688 40.89882812 -13.46484375 39.81640625 C-12.18858783 31.53495122 -12.18858783 31.53495122 -14.9375 23.93359375 C-17.18952393 21.74138921 -19.42907714 19.80415639 -22 18 C-21.505 16.515 -21.505 16.515 -21 15 C-20.07058594 15.00644531 -19.14117187 15.01289063 -18.18359375 15.01953125 C-14.10354857 14.79404387 -10.84927849 14.40622496 -7 13 C-3.68844368 8.97102646 -1.83447262 4.89652466 0 0 Z " fill="#919191" transform="translate(301,163)"/>
<path d="M0 0 C5.94 0 11.88 0 18 0 C18 17.82 18 35.64 18 54 C12 52 12 52 0 46 C0 30.82 0 15.64 0 0 Z " fill="#F7F5FC" transform="translate(264,88)"/>
<path d="M0 0 C5.61 0 11.22 0 17 0 C17 15.18 17 30.36 17 46 C3 53 3 53 0 53 C0 35.51 0 18.02 0 0 Z " fill="#FDFDFE" transform="translate(322,88)"/>
<path d="M0 0 C6.66337644 3.03522444 9.43371691 8.3820436 12.203125 14.8515625 C14.76409022 21.75612558 15.18735663 29.50042255 12.8125 36.5 C10.31895243 39.93937596 8.35505772 42.55098121 3.9921875 43.3828125 C-4.03178801 43.80218404 -10.25905107 40.68075087 -16.3125 35.625 C-19.49594645 32.66395001 -21.91716516 29.81853054 -24 26 C-24 25.01 -24 24.02 -24 23 C-13.00505996 23.21444032 -4.31352418 26.21919189 5 32 C4.72285156 31.154375 4.44570312 30.30875 4.16015625 29.4375 C0.92181134 19.29606399 -0.17591037 10.63280478 0 0 Z " fill="#F3D637" transform="translate(70,220)"/>
<path d="M0 0 C6.363804 1.55214732 10.78323901 4.79153014 14.484375 10.1484375 C18.96967714 17.87898766 21.27830959 25.13503895 19 34 C16.89399067 37.82696471 14.07642241 40.41905705 10 42 C1.06019289 43.06962428 -6.6166475 42.40143179 -14 37 C-15.97448213 35.08819984 -17.4177284 33.26792263 -19 31 C-9.61552134 26.85978882 1.04278861 27.18959793 11 29 C10.41992188 28.10861328 10.41992188 28.10861328 9.828125 27.19921875 C4.42942166 18.60672803 0.76828676 10.17979963 0 0 Z " fill="#F6DB3A" transform="translate(88,240)"/>
<path d="M0 0 C0.32025581 9.23997322 0.0723192 17.50792003 -2.34375 26.5234375 C-3.08538133 28.89520696 -3.08538133 28.89520696 -3 31 C-2.24976563 30.59007812 -1.49953125 30.18015625 -0.7265625 29.7578125 C7.73715002 25.3021049 15.32858981 22.49097841 25 23 C23.05370677 29.9201537 16.88641268 36.12358189 11 40 C5.62255664 42.68872168 0.98605921 43.67584539 -5 43 C-9.08841844 40.88007933 -11.24026888 39.2124537 -13 35 C-15.53873154 24.66081106 -12.71457694 15.44292602 -7.6328125 6.41015625 C-3.29011345 0 -3.29011345 0 0 0 Z " fill="#F5DA3A" transform="translate(533,220)"/>
<path d="M0 0 C-2.47358429 10.78191741 -5.80323271 19.70484906 -12 29 C-11.113125 28.67 -10.22625 28.34 -9.3125 28 C-0.69078381 25.55164246 8.49221612 26.69280437 17 29 C17 33 17 33 15.4609375 34.6328125 C14.77257812 35.12523437 14.08421875 35.61765625 13.375 36.125 C12.70210937 36.62257813 12.02921875 37.12015625 11.3359375 37.6328125 C4.58037461 41.58673727 -2.36726223 41.76042219 -10 41 C-14.02635531 39.79277933 -16.38460508 37.8139094 -18.9375 34.4375 C-21.25365268 26.94406486 -20.7716808 20.86410769 -17.4375 13.75 C-14.16002042 7.78390243 -7.92247291 -2.6408243 0 0 Z " fill="#EECD32" transform="translate(516,241)"/>
<path d="M0 0 C0.66 0 1.32 0 2 0 C4.61380092 11.44591855 3.62821445 24.25476651 -2.375 34.5 C-4.55074476 37.61748502 -6.67779405 40.05529408 -10 42 C-13.37354087 42.49197471 -15.3956441 42.2358462 -18.5625 41 C-25.0082846 35.71115109 -27.66526664 28.04017952 -29 20 C-29.21408237 15.98362857 -29.18926174 12.01655469 -29 8 C-21.82390111 10.80316363 -17.48843741 19.46351584 -14.5 26.1875 C-13.98593885 27.45271085 -13.47985992 28.72142587 -13 30 C-12.608125 28.7625 -12.21625 27.525 -11.8125 26.25 C-8.73405141 17.05801267 -4.94896462 8.33953187 0 0 Z " fill="#F5DA39" transform="translate(588,98)"/>
<path d="M0 0 C0.66 0.33 1.32 0.66 2 1 C2.80347481 3.69543059 3.47033616 6.31910718 4.0625 9.0625 C4.2387793 9.86220215 4.41505859 10.6619043 4.59667969 11.48583984 C6.22436914 19.29659539 6.78309556 27.03960721 7 35 C7.37769531 34.43152344 7.75539063 33.86304688 8.14453125 33.27734375 C12.75517466 26.80948567 17.93599316 22.64329374 25 19 C25.66 19 26.32 19 27 19 C26.26197205 29.14788434 22.58282052 37.06571018 15 44 C11.2441444 46.24765628 8.37924511 46.46097317 4 46 C-0.72893135 43.31310719 -2.23193626 40.03898167 -4 35 C-6.87831615 23.22507029 -5.40980255 10.81960511 0 0 Z " fill="#F4D939" transform="translate(26,61)"/>
<path d="M0 0 C0.66 0 1.32 0 2 0 C3.97031543 10.41902799 3.35338138 20.70395646 1 31 C2.36125 29.700625 2.36125 29.700625 3.75 28.375 C10.6975059 22.44213999 18.81732295 18.35317989 28 18 C25.61754795 27.291563 20.0606078 34.03574259 12 39 C7.89492066 41.25779364 3.6147818 41.86696488 -1 41 C-4.91184582 38.60942756 -6.6153502 36.92665633 -8.375 32.6875 C-10.30431713 21.30452896 -8.01615165 11.03844664 -1.40234375 1.546875 C-0.93957031 1.03640625 -0.47679687 0.5259375 0 0 Z " fill="#F5DA39" transform="translate(546,194)"/>
<path d="M0 0 C5.06296921 4.70436027 6.47746804 12.03557272 7.359375 18.7265625 C7.56770847 25.28906669 6.61022306 32.30828265 2.74609375 37.7734375 C0.75950924 39.73295683 -1.15744104 40.90918526 -3.95703125 41.2109375 C-10.75819192 40.71678051 -15.11824565 37.12035661 -19.625 32.25 C-25.07278678 25.74392352 -27.53884258 19.30552639 -29 11 C-18.86809942 13.94583894 -11.45689688 20.90313957 -5 29 C-4.95512451 28.44127197 -4.91024902 27.88254395 -4.86401367 27.30688477 C-4.64997788 24.72432835 -4.41883023 22.14356254 -4.1875 19.5625 C-4.11724609 18.68400391 -4.04699219 17.80550781 -3.97460938 16.90039062 C-3.42184003 10.90837097 -2.16042 5.616062 0 0 Z M-4 31 C-3 33 -3 33 -3 33 Z " fill="#F5DA39" transform="translate(46,166)"/>
<path d="M0 0 C2 1 2 1 3.125 4.1875 C5.35801841 14.23608283 5.02200762 24.85498612 0 34 C-2.80506976 37.1203683 -4.51558438 38.83131641 -8.75 39.3125 C-14.64774691 38.74540895 -17.92687529 35.34470515 -21.625 31 C-27.55028693 23.0165935 -29.56681811 13.7899107 -30 4 C-19.54120968 7.41286842 -13.88413695 18.85991091 -9 28 C-8.84144531 27.12859375 -8.68289062 26.2571875 -8.51953125 25.359375 C-6.74863661 16.3190068 -4.13282605 8.26565211 0 0 Z " fill="#F5DA39" transform="translate(41,135)"/>
<path d="M0 0 C5.75823465 3.8388231 7.34747179 11.99370934 8.765625 18.52734375 C9.23515978 21.34790624 9.65732913 24.16145771 10 27 C12.48205097 24.04063154 14.63614279 21.01274363 16.6875 17.75 C20.10691566 12.54654138 24.24476609 8.02292789 29 4 C29.66 4 30.32 4 31 4 C31.69785695 14.46785422 28.0023782 25.07591597 21.5625 33.3125 C17.97375729 37.07630333 15.70947396 38.78631575 10.5 39.4375 C6.19270959 38.8990887 4.87113395 38.25912502 2 35 C-3.25920138 26.81902008 -3.02424318 16.39034867 -2 7 C-1.46212435 4.5962638 -0.77578764 2.34287869 0 0 Z " fill="#F4D939" transform="translate(561,135)"/>
<path d="M0 0 C0.66 0 1.32 0 2 0 C2.34336219 10.27543148 1.83594301 19.74416743 -0.34375 29.8046875 C-1.10058993 32.94610942 -1.10058993 32.94610942 -1 36 C-0.30777344 35.51080078 -0.30777344 35.51080078 0.3984375 35.01171875 C7.0591062 30.54933399 13.88582333 27.72616455 22 28 C20.3791672 35.02360881 15.70672975 41.55443469 9.6875 45.5625 C4.96959419 47.40168362 0.99963449 47.83892172 -4 47 C-8.15449262 44.6630979 -9.57857638 42.45669065 -11 38 C-12.22455856 24.08456183 -9.27718087 13.25563913 -1.46875 1.7421875 C-0.9840625 1.16726562 -0.499375 0.59234375 0 0 Z " fill="#F6DC3B" transform="translate(47,30)"/>
<path d="M0 0 C0.66 0 1.32 0 2 0 C5.10553778 9.9611589 5.66668516 19.65574634 6 30 C6.556875 29.34773438 7.11375 28.69546875 7.6875 28.0234375 C13.70603285 21.13059075 19.86216873 15.30826361 28 11 C28.66 11 29.32 11 30 11 C29.59030958 20.01318923 24.75542288 29.06733019 18.62890625 35.59375 C14.49640957 39.16137303 10.79602915 40.96955883 5.3125 41.0625 C1.27217196 39.76654572 -0.40348191 38.3383804 -3 35 C-6.62637532 26.22035449 -6.2842983 15.49373206 -3.0625 6.625 C-2.11174128 4.36907787 -1.09430132 2.18860265 0 0 Z " fill="#F4D939" transform="translate(556,166)"/>
<path d="M0 0 C3.59120795 3.16499866 5.59887047 6.64188885 7.5625 10.9375 C7.86551025 11.59049072 8.16852051 12.24348145 8.48071289 12.91625977 C11.24512139 19.11018073 12.81644033 25.31570589 14 32 C14.27972656 31.23816406 14.55945312 30.47632813 14.84765625 29.69140625 C18.23590602 20.96475652 22.20334639 13.47642409 30 8 C30.54563545 19.23099634 30.38637865 29.03034055 22.875 38.125 C20.21712491 41.00321706 18.75753585 41.91259202 14.75 42.375 C10.19759778 41.91975978 7.85956071 40.42318427 5 37 C-0.21912195 28.97453051 -1.32561002 20.48740548 -1.1875 11.125 C-1.18685547 10.27164063 -1.18621094 9.41828125 -1.18554688 8.5390625 C-1.14099493 2.28198987 -1.14099493 2.28198987 0 0 Z " fill="#F4D939" transform="translate(14,98)"/>
<path d="M0 0 C6.04635186 5.43833882 6.56706602 13.94070717 7 21.65234375 C7 29.837014 5.93139437 37.3281135 1 44 C-2.72513984 46.37125499 -5.50519584 46.21030749 -9.7578125 45.58984375 C-15.23651643 44.14858191 -17.92837474 40.43833314 -20.6875 35.8125 C-23.30706028 30.77618411 -26 24.7665171 -26 19 C-16.83038432 20.27087656 -10.54250467 28.1387 -5 35 C-4.97421875 33.8140625 -4.9484375 32.628125 -4.921875 31.40625 C-4.57476495 20.4409867 -3.11817338 10.51477069 0 0 Z " fill="#F5DA39" transform="translate(576,61)"/>
<path d="M0 0 C0.66 0 1.32 0 2 0 C3.4375 1.94140625 3.4375 1.94140625 5 4.5625 C5.515625 5.40941406 6.03125 6.25632813 6.5625 7.12890625 C9.43933954 12.87476783 10.29284522 18.17469802 10.3125 24.5625 C10.32925781 25.82191406 10.34601563 27.08132812 10.36328125 28.37890625 C9.89616471 33.0350034 8.43540155 36.34376744 5.375 39.875 C0.85199364 42.0174767 -3.61439435 41.83698368 -8.3046875 40.19140625 C-16.18542532 36.25103734 -22.84622279 29.27866518 -26 21 C-26 20.01 -26 19.02 -26 18 C-20.62559249 18.51544829 -16.74434434 19.8136167 -11.875 22.3125 C-10.10769531 23.20388672 -10.10769531 23.20388672 -8.3046875 24.11328125 C-5.25620107 25.85372917 -2.66312631 27.72378072 0 30 C-0.16242187 29.24203125 -0.32484375 28.4840625 -0.4921875 27.703125 C-1.17750358 22.7055893 -1.14467871 17.78775066 -1.125 12.75 C-1.13080078 11.24179688 -1.13080078 11.24179688 -1.13671875 9.703125 C-1.13542969 8.7440625 -1.13414063 7.785 -1.1328125 6.796875 C-1.13168457 5.92385742 -1.13055664 5.05083984 -1.12939453 4.15136719 C-1 2 -1 2 0 0 Z " fill="#F3D637" transform="translate(56,194)"/>
<path d="M0 0 C7.56989547 7.05581089 12.24804828 16.62613546 13 27 C13.18429967 33.16298104 13.26560773 39.13024726 9.5625 44.3125 C6.88580868 46.89911036 4.75310194 47.4962188 1.0625 47.6875 C-7.12428369 47.0379498 -11.41456465 42.98110503 -16.51953125 37 C-18.81688088 33.89645643 -20 31.90717754 -20 28 C-11.44968614 28.55163315 -4.58922439 31.1272379 3 35 C2.7834375 34.31679687 2.566875 33.63359375 2.34375 32.9296875 C-0.67341624 22.00642826 -0.29528366 11.24652186 0 0 Z " fill="#F3D838" transform="translate(555,30)"/>
<path d="M0 0 C0 0.66 0 1.32 0 2 C-0.95737061 2.08975098 -1.91474121 2.17950195 -2.90112305 2.27197266 C-34.76710808 5.29446586 -66.33550575 9.27261699 -97.36816406 17.32714844 C-101.43844315 18.3677504 -105.53090853 19.30834087 -109.625 20.25 C-113.36184232 21.11409741 -117.03573343 22.01068241 -120.7109375 23.109375 C-124 24 -124 24 -128 24 C-127.505 22.515 -127.505 22.515 -127 21 C-125.00756836 20.12792969 -125.00756836 20.12792969 -122.33984375 19.421875 C-121.33550293 19.15165527 -120.33116211 18.88143555 -119.29638672 18.60302734 C-118.1879541 18.32152832 -117.07952148 18.0400293 -115.9375 17.75 C-114.78008301 17.44916504 -113.62266602 17.14833008 -112.43017578 16.83837891 C-15.75743626 -7.87871813 -15.75743626 -7.87871813 0 0 Z " fill="#F9B458" transform="translate(265,141)"/>
<path d="M0 0 C1.47786987 0.12604614 1.47786987 0.12604614 2.9855957 0.25463867 C4.5802063 0.41863159 4.5802063 0.41863159 6.20703125 0.5859375 C7.32489014 0.69075439 8.44274902 0.79557129 9.59448242 0.90356445 C13.07154556 1.23802412 16.54525563 1.59880611 20.01953125 1.9609375 C21.02274414 2.05648926 22.02595703 2.15204102 23.05957031 2.25048828 C56.18106153 5.40677156 89.00325234 13.11090918 121.01953125 21.9609375 C121.01953125 22.9509375 121.01953125 23.9409375 121.01953125 24.9609375 C114.20621742 24.06585509 107.67174942 22.64434377 101.08203125 20.7109375 C65.44957291 10.48327918 27.89804473 5.82672069 -8.98046875 2.9609375 C-5.86045794 0.18508864 -4.13872555 -0.38369235 0 0 Z " fill="#F9B559" transform="translate(344.98046875,140.0390625)"/>
<path d="M0 0 C10.45973542 0.50721163 20.70963145 1.4713485 31.0625 3.125 C31.73787811 3.23159943 32.41325623 3.33819885 33.10910034 3.44802856 C58.19975344 7.43664556 84.00990277 12.60937486 108 21 C108 21.99 108 22.98 108 24 C103.58066848 23.44483522 99.49620273 22.64365086 95.25 21.3125 C84.70048409 18.21962487 73.94403464 15.99296762 63.20019531 13.6875 C61.28189305 13.2753899 59.36431132 12.85987115 57.44824219 12.4375 C38.81644233 8.33096469 19.85966796 5.81681362 1 3 C0.67 2.01 0.34 1.02 0 0 Z " fill="#FCB059" transform="translate(368,78)"/>
<path d="M0 0 C0 0.99 0 1.98 0 3 C-0.96486328 3.12528076 -1.92972656 3.25056152 -2.92382812 3.37963867 C-21.16157294 5.7625162 -39.25071713 8.29124662 -57.20117188 12.37060547 C-60.14504363 13.0326171 -63.09448568 13.66228333 -66.046875 14.28515625 C-75.72913491 16.33490214 -85.33047049 18.51934493 -94.87109375 21.15234375 C-98.88963538 22.24101233 -102.92658179 23.14243827 -107 24 C-107 23.01 -107 22.02 -107 21 C-79.73894318 11.6840168 -50.99874135 6.02809551 -22.5625 1.6875 C-21.45503418 1.51581299 -20.34756836 1.34412598 -19.20654297 1.16723633 C-12.75410794 0.22430921 -6.51962252 -0.221545 0 0 Z " fill="#FCB25A" transform="translate(235,78)"/>
<path d="M0 0 C-0.23902497 7.52928653 -2.0428593 12.2740435 -7 18 C-11.35007318 21.79585713 -15.46768534 23.13678331 -21.1875 23.0625 C-22.53908203 23.04896484 -22.53908203 23.04896484 -23.91796875 23.03515625 C-24.60503906 23.02355469 -25.29210938 23.01195313 -26 23 C-23.95453263 15.08727098 -21.27111386 9.53293633 -14.08203125 5.26953125 C-3.80581948 0 -3.80581948 0 0 0 Z " fill="#F5DB3A" transform="translate(79,30)"/>
<path d="M0 0 C10.16037694 2.56091468 17.85920845 6.25817254 24 15 C25.85042769 18.12337291 26 19.14766045 26 23 C19.6913892 23.58173665 15.06891094 23.37161045 9.8203125 19.62109375 C4.9961092 15.3248612 1.44562117 10.36073313 0 4 C0 2.68 0 1.36 0 0 Z " fill="#F5DB3A" transform="translate(524,30)"/>
<path d="M0 0 C0 4 0 4 -1.5390625 5.6328125 C-8.44611355 10.57381157 -13.52479034 12.29224861 -22 12 C-22.86916887 10.59248779 -23.71985149 9.1735479 -24.5625 7.75 C-25.27599609 6.56664062 -25.27599609 6.56664062 -26.00390625 5.359375 C-27.13022151 2.69155375 -27.0169313 1.65498232 -26 -1 C-17.60484933 -3.54090517 -8.30222861 -2.25145183 0 0 Z " fill="#F8E13E" transform="translate(533,270)"/>
<path d="M0 0 C4.85215664 2.17830862 7.56391666 5.62094628 10.296875 10.1484375 C11.3533786 14.43314656 9.9881774 17.70575596 8.625 21.8125 C8.3775 22.60076172 8.13 23.38902344 7.875 24.20117188 C7.2643831 26.13870627 6.63410431 28.07002481 6 30 C5.34 30 4.68 30 4 30 C0.9846312 19.68326648 -0.17764272 10.7375153 0 0 Z " fill="#FCE742" transform="translate(70,220)"/>
<path d="M0 0 C4.35158072 4.2119185 8.20296292 8.10347208 10 14 C9.64106713 17.6229787 8.42269221 20.66972797 7 24 C6.4333641 25.54015133 5.87048554 27.08169365 5.3125 28.625 C4.6628125 30.295625 4.6628125 30.295625 4 32 C3.34 31.67 2.68 31.34 2 31 C-0.01596164 24.07101298 -0.24852357 17.61611994 -0.125 10.4375 C-0.11597656 9.42880859 -0.10695313 8.42011719 -0.09765625 7.38085938 C-0.07433356 4.92031543 -0.04160763 2.46029104 0 0 Z " fill="#FCE742" transform="translate(555,30)"/>
<path d="M0 0 C-2.17684732 9.48849331 -4.78847398 17.64418661 -10 26 C-10.99 26 -11.98 26 -13 26 C-13.20379605 20.8032007 -13.20550798 16.80022325 -11 12 C-10.855625 11.01 -10.71125 10.02 -10.5625 9 C-9.78865128 4.87280684 -8.51020336 2.03826481 -5 -0.375 C-3 -1 -3 -1 0 0 Z " fill="#FDE842" transform="translate(516,241)"/>
<path d="M0 0 C0.66 0 1.32 0 2 0 C5.29995296 4.42911459 9.71785773 10.37678112 9 16 C6.5932157 19.27214494 3.89127607 22.15301043 1 25 C0.34 24.67 -0.32 24.34 -1 24 C-1.02893932 20.37501666 -1.04677792 16.75006287 -1.0625 13.125 C-1.07087891 12.09246094 -1.07925781 11.05992187 -1.08789062 9.99609375 C-1.09111328 9.00996094 -1.09433594 8.02382812 -1.09765625 7.0078125 C-1.10289307 6.09660645 -1.10812988 5.18540039 -1.11352539 4.24658203 C-1 2 -1 2 0 0 Z " fill="#FBE641" transform="translate(56,194)"/>
<path d="M0 0 C2.10090831 1.92676885 2.93131887 2.71840736 3.625 5.5625 C4.74614289 8.16977946 4.74614289 8.16977946 7.125 8.765625 C9.41209256 9.2659265 11.68117496 9.68032659 14 10 C11.2578125 12.9140625 11.2578125 12.9140625 8.9375 13.6875 C5.67849134 15.89521554 5.72529145 19.25266086 5 23 C2.9754262 21.06745228 1.57894208 19.36841312 0 17 C-2.41607417 16.20201782 -2.41607417 16.20201782 -5.125 15.8125 C-6.03507813 15.65394531 -6.94515625 15.49539062 -7.8828125 15.33203125 C-8.58148438 15.22246094 -9.28015625 15.11289063 -10 15 C-8.06407738 12.88346652 -7.31767583 12.06973372 -4.4375 11.4375 C-1.79172932 10.23932719 -1.79172932 10.23932719 -1.234375 7.65234375 C-0.73291339 5.10563513 -0.31838891 2.57562375 0 0 Z " fill="#F5D03B" transform="translate(188,107)"/>
<path d="M0 0 C2.26656844 2.90617542 3.74433095 5.52276264 5 9 C8.3 9 11.6 9 15 9 C11.89448334 12.10551666 10.10801767 12.81323934 6 14 C6 17.3 6 20.6 6 24 C2.89448334 20.89448334 2.18676066 19.10801767 1 15 C-2.3 15 -5.6 15 -9 15 C-6.7060466 13.27953495 -4.38585576 11.5905705 -2 10 C-1.20201782 7.58392583 -1.20201782 7.58392583 -0.8125 4.875 C-0.57466797 3.50988281 -0.57466797 3.50988281 -0.33203125 2.1171875 C-0.22246094 1.41851562 -0.11289063 0.71984375 0 0 Z " fill="#F5D43B" transform="translate(153,116)"/>
<path d="M0 0 C2.29013653 3.4352048 2.17842973 4.985331 2 9 C2.928125 9.268125 3.85625 9.53625 4.8125 9.8125 C7.85184289 10.94480421 8.90073617 11.69900511 11 14 C10.31292969 14.06316406 9.62585938 14.12632813 8.91796875 14.19140625 C3.67039421 14.69404067 3.67039421 14.69404067 -0.33203125 17.69140625 C-1.25807418 19.82547627 -1.25807418 19.82547627 -2 23 C-2.66 22.67 -3.32 22.34 -4 22 C-4 19.03 -4 16.06 -4 13 C-5.11375 12.8453125 -5.11375 12.8453125 -6.25 12.6875 C-9 12 -9 12 -13 9 C-9.7 8.67 -6.4 8.34 -3 8 C-2.690625 7.05125 -2.38125 6.1025 -2.0625 5.125 C-1 2 -1 2 0 0 Z " fill="#F5D53B" transform="translate(414,108)"/>
<path d="M0 0 C0.33 0 0.66 0 1 0 C0.99097656 0.67546875 0.98195313 1.3509375 0.97265625 2.046875 C0.96782307 7.31191181 0.96782307 7.31191181 3.625 11.5546875 C5.76008965 12.78636006 5.76008965 12.78636006 9 14 C9 14.33 9 14.66 9 15 C8.38511719 15.01417969 7.77023437 15.02835938 7.13671875 15.04296875 C4.6651226 15.18882052 2.40265902 15.39292245 0 16 C-1.99083177 18.4251788 -1.99083177 18.4251788 -3 21 C-3.66 21 -4.32 21 -5 21 C-5.33 18.69 -5.66 16.38 -6 14 C-6.763125 13.731875 -7.52625 13.46375 -8.3125 13.1875 C-11 12 -11 12 -14 9 C-10.7 9 -7.4 9 -4 9 C-3.71125 8.071875 -3.4225 7.14375 -3.125 6.1875 C-2 3 -2 3 0 0 Z " fill="#F6D73C" transform="translate(450,116)"/>
<path d="M0 0 C1.1577506 3.47325181 1.06866652 6.36067448 1 10 C-3.9723422 8.50829734 -8.41845739 6.39542583 -13 4 C-9.38656695 0.38656695 -4.97659681 -0.29274099 0 0 Z " fill="#50101B" transform="translate(152,173)"/>
<path d="M0 0 C8.5 0.625 8.5 0.625 13 4 C6.07 7.465 6.07 7.465 -1 11 C-0.67 7.37 -0.34 3.74 0 0 Z " fill="#4E0F1B" transform="translate(451,173)"/>
<path d="M0 0 C6.22987798 0.50512524 11.45474233 3.32604123 17 6 C17 6.33 17 6.66 17 7 C10.55380413 7.45236462 7.31722545 6.72205782 2 3 C1.34 2.01 0.68 1.02 0 0 Z " fill="#E9C42C" transform="translate(542,70)"/>
<path d="M0 0 C0 0.99 0 1.98 0 3 C-3.59888378 6.39788229 -7.53884909 8.3302184 -12.5 8.3125 C-14.2325 8.1578125 -14.2325 8.1578125 -16 8 C-14.35090519 4.70181039 -10.72914036 4.129244 -7.4375 2.875 C-6.72658203 2.59785156 -6.01566406 2.32070312 -5.28320312 2.03515625 C-3.52453504 1.35057404 -1.76256576 0.67448365 0 0 Z " fill="#E9C52C" transform="translate(61,69)"/>
<path d="M0 0 C0.33 0.99 0.66 1.98 1 3 C1.28875 3.598125 1.5775 4.19625 1.875 4.8125 C2.03258854 7.57029952 1.34187264 8.15324462 -0.375 10.25 C-1.24125 11.1575 -2.1075 12.065 -3 13 C-3.33 13 -3.66 13 -4 13 C-3.40546697 3.40546697 -3.40546697 3.40546697 0 0 Z " fill="#E6BF29" transform="translate(500,254)"/>
<path d="M0 0 C2.96175123 0.61277612 4.38058783 1.25372522 7 3 C4.36 3.33 1.72 3.66 -1 4 C-0.67 2.68 -0.34 1.36 0 0 Z " fill="#FAA255" transform="translate(168,88)"/>
<path d="M0 0 C-1.25 1.5 -1.25 1.5 -3 3 C-4.32 3 -5.64 3 -7 3 C-6.67 2.01 -6.34 1.02 -6 0 C-3 -1 -3 -1 0 0 Z " fill="#FBBA5A" transform="translate(144,162)"/>
</svg>
