<?xml version="1.0" encoding="utf-8"?>
<!-- Generator: Adobe Illustrator 27.3.1, SVG Export Plug-In . SVG Version: 6.00 Build 0)  -->
<svg version="1.1" id="Layer_1" xmlns="http://www.w3.org/2000/svg" xmlns:xlink="http://www.w3.org/1999/xlink" x="0px" y="0px"
	 viewBox="0 0 1208 213.5" style="enable-background:new 0 0 1208 213.5;" xml:space="preserve">
<style type="text/css">
	.st0{fill:rgb(203, 143, 21);}
	.st1{opacity:0.24;}
	.st2{fill:url(#SVGID_1_);}
</style>
<g>
	<path class="st0" d="M53.6,171.4H185c5.9,0,11.1-3.9,12.7-9.6l29.5-103.2c1.9-6.8-3.1-13.5-10.2-13.5H53.6
		c-6.7,0-12.1,5.4-12.1,12.1v102C41.5,166,46.9,171.4,53.6,171.4z"/>
	<g>
		<g class="st1">
			<path d="M1144.4,160.3c-1.8,6.2-8.2,11.2-14.4,11.2H206.6c-6.2,0-9.7-5-7.9-11.2l30.2-104c1.8-6.2,8.2-11.2,14.4-11.2h923.3
				c6.2,0,9.7,5,7.9,11.2L1144.4,160.3z"/>
		</g>
		<g>
			
				<linearGradient id="SVGID_1_" gradientUnits="userSpaceOnUse" x1="393.7213" y1="171.4416" x2="393.7213" y2="45.1352" gradientTransform="matrix(1 0 -0.2901 1 323.3149 0)">
				<stop  offset="0" style="stop-color:#433092"/>
				<stop  offset="0.1999" style="stop-color:#683995"/>
				<stop  offset="0.7519" style="stop-color:#C8519E"/>
				<stop  offset="1" style="stop-color:#EF5BA1"/>
			</linearGradient>
			<path class="st2" d="M1143.4,160.3c-1.8,6.2-8.2,11.2-14.4,11.2H205.6c-6.2,0-9.7-5-7.9-11.2l30.2-104
				c1.8-6.2,8.2-11.2,14.4-11.2h923.3c6.2,0,9.7,5,7.9,11.2L1143.4,160.3z"/>
		</g>
	</g>
</g>
</svg>
