<?xml version="1.0" encoding="iso-8859-1"?>
<!-- Generator: Adobe Illustrator 28.0.0, SVG Export Plug-In . SVG Version: 6.00 Build 0)  -->
<svg version="1.1" id="Layer_1" xmlns="http://www.w3.org/2000/svg" xmlns:xlink="http://www.w3.org/1999/xlink" x="0px" y="0px"
	 viewBox="0 0 512 512" style="enable-background:new 0 0 512 512;" xml:space="preserve">
<g>
	<g>
		<g>
			<g>
				<path style="fill:#FDCB50;" d="M324.575,459.018H48.105C27.06,459.018,10,441.958,10,420.913V210.269
					c0-21.045,17.06-38.105,38.105-38.105h276.469c21.045,0,38.105,17.06,38.105,38.105v210.644
					C362.68,441.958,345.62,459.018,324.575,459.018z"/>
			</g>
			<g>
				<path style="fill:#FD8F01;" d="M66.408,237.668c0-22.67,3.019-44.633,8.675-65.504H48.031c-21.004,0-38.031,17.094-38.031,38.18
					v210.495c0,21.086,17.027,38.18,38.031,38.18h152.798C120.994,417.668,66.408,334.068,66.408,237.668z"/>
			</g>
		</g>
		<g>
			<g>
				<g>
					<path style="fill:#FD6050;" d="M362.68,210.348v62.633c0,10.789-2.374,21.026-6.636,30.19
						c-11.341,24.427-36.018,41.358-64.634,41.358H81.27c-39.363,0-71.27-32.032-71.27-71.548v-62.633
						c0-21.091,17.027-38.184,38.036-38.184h276.609C345.653,172.164,362.68,189.257,362.68,210.348z"/>
				</g>
				<g>
					<path style="fill:#BC3C85;" d="M362.68,210.348v62.633c0,10.789-2.374,21.026-6.636,30.19h-13.973l-3.798-14.256
						c-7.866-2.242-15.419-5.405-22.562-9.424l-12.7,7.388l-35.435-35.715l7.327-12.782c-4.003-7.204-7.143-14.83-9.366-22.759
						l-14.146-3.824v-39.636h73.255C345.653,172.164,362.68,189.257,362.68,210.348z"/>
				</g>
			</g>
			<g>
				<path style="fill:#BC3C85;" d="M66.408,237.668c0-22.67,3.019-44.632,8.675-65.504H48.036C27.027,172.164,10,189.257,10,210.348
					v62.633c0,39.517,31.907,71.548,71.27,71.548h9.086C75.002,312.15,66.408,275.917,66.408,237.668z"/>
			</g>
		</g>
		<g>
			<g>
				<rect x="230.761" y="310.795" style="fill:#FFFFFF;" width="55.835" height="71.814"/>
			</g>
			<g>
				<rect x="86.085" y="310.795" style="fill:#FFFFFF;" width="55.835" height="71.814"/>
			</g>
		</g>
		<g>
			<path style="fill:#BC9AF4;" d="M373.371,265.992l-3.467-13.023c-7.178-2.048-14.081-4.931-20.603-8.604l-11.6,6.743
				l-32.369-32.614l6.688-11.679c-3.653-6.58-6.519-13.545-8.554-20.788l-12.92-3.493v-46.096l12.92-3.493
				c2.035-7.244,4.901-14.209,8.554-20.788l-6.688-11.679l32.369-32.614l11.6,6.743c6.522-3.672,13.424-6.555,20.603-8.603
				l3.467-13.024h45.804l3.469,13.024c7.178,2.049,14.081,4.931,20.602,8.603l11.6-6.743l32.369,32.614l-6.687,11.679
				c3.653,6.581,6.519,13.545,8.553,20.788l12.92,3.493v46.096l-12.92,3.493c-2.034,7.243-4.9,14.207-8.553,20.788l6.687,11.679
				l-32.369,32.614l-11.6-6.743c-6.522,3.673-13.425,6.556-20.602,8.604l-3.469,13.023H373.371z"/>
		</g>
		<g>
			<ellipse style="fill:#FFFFFF;" cx="396.274" cy="159.487" rx="37.968" ry="38.116"/>
		</g>
	</g>
	<g>
		<g>
			<path style="fill:#FD6050;" d="M242.48,174.581c-5.522,0-10-4.477-10-10v-27.68c0-7.725-6.242-14.009-13.915-14.009h-64.451
				c-7.673,0-13.915,6.284-13.915,14.009v27.68c0,5.523-4.478,10-10,10s-10-4.477-10-10v-27.68
				c0-18.752,15.214-34.009,33.915-34.009h64.451c18.701,0,33.915,15.256,33.915,34.009v27.68
				C252.48,170.104,248.003,174.581,242.48,174.581z"/>
		</g>
		<path style="fill:#052A75;" d="M504.609,126.786l-7.613-2.058c-1.433-4.211-3.13-8.334-5.079-12.337l3.976-6.942
			c2.234-3.904,1.588-8.82-1.581-12.013l-32.369-32.614c-3.206-3.231-8.19-3.888-12.124-1.601l-6.812,3.96
			c-3.929-1.935-7.978-3.625-12.112-5.055l-2.056-7.718c-1.166-4.379-5.132-7.426-9.663-7.426h-45.804
			c-4.532,0-8.498,3.048-9.663,7.428l-2.055,7.717c-4.134,1.43-8.182,3.12-12.111,5.055l-6.814-3.961
			c-3.934-2.287-8.917-1.629-12.123,1.601l-32.369,32.614c-3.169,3.193-3.815,8.11-1.58,12.014l3.976,6.942
			c-1.947,4.001-3.646,8.124-5.079,12.336l-7.614,2.059c-4.361,1.179-7.391,5.136-7.391,9.653v25.724H48.031
			C21.547,162.164,0,183.777,0,210.343v210.495c0,26.566,21.547,48.18,48.031,48.18h276.618c26.484,0,48.03-21.613,48.03-48.18
			v-144.87c0.229,0.016,0.459,0.024,0.691,0.024h45.804c4.531,0,8.497-3.047,9.663-7.426l2.056-7.718
			c4.134-1.43,8.182-3.12,12.112-5.056l6.812,3.961c3.935,2.289,8.918,1.629,12.124-1.601l32.369-32.614
			c3.169-3.193,3.815-8.109,1.581-12.013l-3.976-6.942c1.948-4.002,3.646-8.125,5.079-12.336l7.614-2.059
			c4.36-1.179,7.39-5.136,7.39-9.653v-46.096C512,131.922,508.971,127.965,504.609,126.786z M20,210.343
			c0-15.538,12.575-28.18,28.031-28.18h232.516v0.372c0,4.518,3.029,8.475,7.391,9.654l7.614,2.058
			c1.434,4.212,3.132,8.335,5.079,12.336l-3.976,6.942c-2.235,3.904-1.589,8.821,1.58,12.014l32.369,32.614
			c3.206,3.23,8.19,3.886,12.123,1.601l6.814-3.961c1.038,0.511,2.084,1.005,3.138,1.482v15.708
			c0,32.184-24.717,58.678-56.084,61.333v-23.521c0-5.523-4.478-10-10-10h-55.835c-5.522,0-10,4.477-10,10v23.74h-68.842v-23.74
			c0-5.523-4.478-10-10-10H86.085c-5.522,0-10,4.477-10,10v23.521C44.718,331.661,20,305.168,20,272.983V210.343z M276.596,320.794
			v51.813h-35.835v-51.813H276.596z M131.919,320.794v51.813H96.085v-51.813H131.919z M324.649,449.018H48.031
			c-15.456,0-28.031-12.642-28.031-28.18v-94.334c13.847,15.941,33.756,26.448,56.085,27.866v28.238c0,5.523,4.478,10,10,10h55.834
			c5.522,0,10-4.477,10-10v-28.073h68.842v28.073c0,5.523,4.478,10,10,10h55.835c5.522,0,10-4.477,10-10V354.37
			c22.329-1.419,42.237-11.926,56.084-27.866v94.334C352.68,436.376,340.105,449.018,324.649,449.018z M492,174.88l-5.53,1.495
			c-3.399,0.919-6.065,3.56-7.018,6.951c-1.817,6.475-4.397,12.746-7.668,18.637c-1.698,3.06-1.674,6.785,0.064,9.822l2.903,5.07
			L453.19,238.58l-4.918-2.859c-3.066-1.782-6.845-1.807-9.933-0.068c-5.828,3.282-12.032,5.873-18.439,7.701
			c-3.386,0.966-6.014,3.641-6.92,7.042l-1.491,5.597h-30.432l-1.49-5.596c-0.905-3.402-3.533-6.078-6.92-7.044
			c-6.409-1.829-12.613-4.419-18.438-7.701c-3.089-1.74-6.867-1.714-9.933,0.068l-4.92,2.86l-21.561-21.725l2.903-5.07
			c1.739-3.038,1.765-6.764,0.065-9.824c-3.269-5.887-5.85-12.158-7.671-18.639c-0.952-3.39-3.618-6.03-7.018-6.949l-5.529-1.494
			v-30.784l5.529-1.495c3.399-0.919,6.065-3.558,7.018-6.949c1.821-6.48,4.401-12.751,7.671-18.638
			c1.699-3.061,1.674-6.787-0.065-9.824l-2.903-5.07l21.561-21.725l4.92,2.86c3.064,1.781,6.843,1.807,9.932,0.068
			c5.828-3.281,12.031-5.872,18.439-7.7c3.386-0.966,6.015-3.641,6.92-7.044l1.49-5.596h30.432l1.491,5.598
			c0.906,3.402,3.534,6.077,6.919,7.042c6.412,1.83,12.616,4.42,18.439,7.7c3.09,1.74,6.869,1.714,9.934-0.068l4.918-2.859
			l21.562,21.725l-2.903,5.07c-1.738,3.038-1.763,6.763-0.064,9.823c3.271,5.891,5.851,12.161,7.668,18.637
			c0.952,3.391,3.618,6.032,7.019,6.951l5.529,1.495V174.88z"/>
	</g>
</g>
<g>
</g>
<g>
</g>
<g>
</g>
<g>
</g>
<g>
</g>
<g>
</g>
<g>
</g>
<g>
</g>
<g>
</g>
<g>
</g>
<g>
</g>
<g>
</g>
<g>
</g>
<g>
</g>
<g>
</g>
</svg>
