<?xml version="1.0" encoding="iso-8859-1"?>
<!-- Generator: Adobe Illustrator 27.0.0, SVG Export Plug-In . SVG Version: 6.00 Build 0)  -->
<svg version="1.1" id="Capa_1" xmlns="http://www.w3.org/2000/svg" xmlns:xlink="http://www.w3.org/1999/xlink" x="0px" y="0px"
	 viewBox="0 0 512 512" style="enable-background:new 0 0 512 512;" xml:space="preserve">
<g>
	<g>
		<path style="fill:#BC9AF4;" d="M382.284,441.751V10H84.787c-16.636,0-30.122,13.71-30.122,30.622v370.507
			c0,16.912,13.486,30.622,30.122,30.622H382.284z"/>
		<path style="fill:#6864F7;" d="M267.233,426.949c0,4.991,0.321,9.932,0.943,14.802h114.108V311.898
			c-30.731,0-59.623,11.967-81.353,33.698C279.2,367.326,267.233,396.218,267.233,426.949z"/>
		<path style="fill:#67CCD1;" d="M84.787,10c-16.636,0-30.122,13.71-30.122,30.622v370.506c0,16.912,13.486,30.622,30.122,30.622
			h14.057V10H84.787z"/>
		<path style="fill:#D2DCFD;" d="M382.284,441.751H84.787c-16.636,0-30.122-13.71-30.122-30.622s13.486-30.622,30.122-30.622
			h297.497V441.751z"/>
		<path style="fill:#93B2F4;" d="M382.284,380.506H276.958c-6.373,14.441-9.725,30.184-9.725,46.443
			c0,4.991,0.321,9.932,0.943,14.802h114.108V380.506z"/>
		<polygon style="fill:#FDCB50;" points="165.115,380.507 165.115,501.999 143.026,491.958 120.936,501.999 120.936,380.507 		"/>
		<rect x="153.068" y="77.631" style="fill:#FFFFFF;" width="107.145" height="44.18"/>
		
			<ellipse transform="matrix(0.7071 -0.7071 0.7071 0.7071 -189.9301 395.366)" style="fill:#FFFFFF;" cx="382.284" cy="426.949" rx="75.051" ry="75.051"/>
	</g>
	<g>
		<path style="fill:#052A75;" d="M382.284,0H84.788C62.664,0,44.665,18.223,44.665,40.623v370.506
			c0,22.399,17.999,40.623,40.123,40.623h26.148V502c0,3.4,1.728,6.567,4.586,8.408c2.859,1.841,6.457,2.103,9.552,0.696
			l17.952-8.16l17.952,8.16c1.32,0.6,2.731,0.896,4.138,0.896c1.892,0,3.774-0.537,5.414-1.592c2.859-1.841,4.586-5.008,4.586-8.408
			v-50.248h132.118v-20H175.115v-41.245h148.211v-20H108.845V20h263.439v331.898h20V10C392.284,4.477,387.807,0,382.284,0z
			 M130.936,390.506h24.18v95.963l-7.952-3.615c-2.629-1.195-5.647-1.195-8.276,0l-7.952,3.615V390.506z M64.665,40.623
			C64.665,29.251,73.692,20,84.788,20h4.057v350.506h-4.057c-7.331,0-14.202,2.01-20.123,5.501V40.623z M110.936,390.506v41.327
			l-0.041-0.082H84.788c-11.096,0-20.123-9.251-20.123-20.623s9.027-20.623,20.123-20.623H110.936z"/>
		<path style="fill:#052A75;" d="M317.979,165.991c0-5.523-4.477-10-10-10h-154.91c-5.523,0-10,4.477-10,10s4.477,10,10,10h154.91
			C313.501,175.991,317.979,171.514,317.979,165.991z"/>
		<path style="fill:#052A75;" d="M153.068,200.17c-5.523,0-10,4.477-10,10s4.477,10,10,10h124.788c5.523,0,10-4.477,10-10
			s-4.477-10-10-10H153.068z"/>
		<path style="fill:#052A75;" d="M153.068,131.811h107.145c5.523,0,10-4.477,10-10V77.632c0-5.523-4.477-10-10-10H153.068
			c-5.523,0-10,4.477-10,10v44.179C143.068,127.334,147.545,131.811,153.068,131.811z M163.068,87.632h87.145v24.179h-87.145V87.632
			z"/>
		<path style="fill:#67CCD1;" d="M382.284,512c-46.897,0-85.051-38.154-85.051-85.051c0-46.897,38.154-85.051,85.051-85.051
			c46.897,0,85.051,38.154,85.051,85.051C467.335,473.846,429.181,512,382.284,512z M382.284,361.898
			c-35.87,0-65.051,29.182-65.051,65.051c0,35.87,29.182,65.051,65.051,65.051c35.869,0,65.051-29.182,65.051-65.051
			C447.335,391.08,418.153,361.898,382.284,361.898z"/>
		<path style="fill:#67CCD1;" d="M374.85,452.763c-2.559,0-5.118-0.976-7.071-2.929l-22.077-22.077
			c-3.905-3.905-3.906-10.237,0-14.142s10.237-3.906,14.142,0l15.006,15.006l25.074-25.075c3.905-3.905,10.237-3.906,14.142,0
			s3.906,10.237,0,14.142l-32.146,32.146C379.969,451.786,377.409,452.763,374.85,452.763z"/>
	</g>
</g>
<g>
</g>
<g>
</g>
<g>
</g>
<g>
</g>
<g>
</g>
<g>
</g>
<g>
</g>
<g>
</g>
<g>
</g>
<g>
</g>
<g>
</g>
<g>
</g>
<g>
</g>
<g>
</g>
<g>
</g>
</svg>
