<svg id="Layer_1" enable-background="new 0 0 64 64" viewBox="0 0 64 64" xmlns="http://www.w3.org/2000/svg"><g id="Kaaba_2_"><path d="m56 15-24-11-24 11 24 11z" fill="#ecf0f1"/><path d="m32.4.1c-.3-.1-.7-.1-1 .1-.2.1-.4.5-.4.8v2c0 .4.2.7.6.9l27 12.5 1.4-3.4c0-.4-.2-.8-.6-.9z" fill="#34495e"/><path d="m32.4 2.1c-.3-.1-.7-.1-1 .1-.2.1-.4.5-.4.8v1c0 .4.2.7.6.9l27 12.5.8-3.3z" fill="#bdc3c7"/><path d="m31.6.1c.1-.1.3-.1.4-.1v4.1l-26.6 12.3-1.4-3.4c0-.4.2-.8.6-.9z" fill="#2c3e50"/><path d="m31.6 2.1c.1-.1.3-.1.4-.1v3.1l-26.6 12.3-.8-3.3z" fill="#95a5a6"/><path d="m5.4 12.1c-.3-.1-.7-.1-1 .1-.2.1-.4.5-.4.8v37.5c0 .4.2.7.6.9l27 12.5c.3.1.7.1 1-.1s.5-.5.5-.8v-38c0-.4-.2-.8-.6-.9z" fill="#34495e"/><path d="m58.6 12.1c.3-.1.7-.1 1 .1s.5.5.5.8v37.5c0 .4-.2.7-.6.9l-27 12.5c-.2.1-.4.1-.5.1v-40.1z" fill="#2c3e50"/><path d="m32.8 36.8c-.5.2-1.1.2-1.6 0l-.2-.1v-4.4l1 .4 28-12.4v4.4zm23.2-8.1v2.7l4-1.8v-2.7zm-25 12.9.6.3c.3.1.6.1.8 0l3.6-1.6v-2.7l-4 1.8-1-.4zm19-7.6v-2.7l-8 3.6v2.7zm-10 1.8-2 .9v2.7l2-.9zm14-3.6v-2.7l-2 .9v2.7z" fill="#f39c12"/><path d="m31.2 36.8-27.2-12.1v-4.4l28 12.4v4.3c-.3 0-.6-.1-.8-.2zm-3.2.7v2.7l3.6 1.6c.1.1.3.1.4.1v-2.6zm-20-6.2v-2.7l-4-1.8v2.7zm6 2.7 8 3.6v-2.6h.1l-8.1-3.7zm12 5.3v-2.7l-2-.9v2.7zm-14-6.2v-2.7l-2-.9v2.7z" fill="#f1c40f"/></g></svg>