<?xml version="1.0" encoding="iso-8859-1"?>
<!-- Generator: Adobe Illustrator 26.5.3, SVG Export Plug-In . SVG Version: 6.00 Build 0)  -->
<svg version="1.1" id="Capa_1" xmlns="http://www.w3.org/2000/svg" xmlns:xlink="http://www.w3.org/1999/xlink" x="0px" y="0px"
	 viewBox="0 0 512 512" style="enable-background:new 0 0 512 512;" xml:space="preserve">
<g>
	<g>
		<g>
			<path style="fill:#D66B59;" d="M462,476.836H50c-22.091,0-40-17.909-40-40V190.673h492v246.163
				C502,458.928,484.092,476.836,462,476.836z"/>
		</g>
		<g>
			<path style="fill:#D66B59;" d="M462,97.198H50c-22.091,0-40,17.909-40,40v65.484c0,40.715,33.006,73.721,73.721,73.721H428.28
				c40.715,0,73.721-33.006,73.721-73.721v-65.484C502,115.107,484.092,97.198,462,97.198z"/>
		</g>
		<g>
			<path style="fill:#B75245;" d="M152.068,255.295c0-22.325,2.867-43.979,8.239-64.622H10v246.163c0,22.091,17.909,40,40,40
				h229.876C203.47,432.583,152.068,349.945,152.068,255.295z"/>
		</g>
		<g>
			<path style="fill:#B75245;" d="M152.068,255.295c0-59.676,20.433-114.579,54.682-158.097H50c-22.091,0-40,17.909-40,40v65.484
				c0,40.715,33.006,73.721,73.721,73.721h69.219C152.372,269.441,152.068,262.404,152.068,255.295z"/>
		</g>
		<g>
			<path style="fill:#FECC42;" d="M293.519,305.459h-75.037c-9.97,0-18.052-8.082-18.052-18.052v-21.551
				c0-9.97,8.082-18.052,18.052-18.052h75.037c9.97,0,18.052,8.082,18.052,18.052v21.551
				C311.571,297.377,303.489,305.459,293.519,305.459z"/>
		</g>
	</g>
	<g>
		<g>
			<path style="fill:#63CCD2;" d="M344.965,97.198h-20V55.164c0-5.514-4.486-10-10-10H197.036c-5.514,0-10,4.486-10,10v42.034h-20
				V55.164c0-16.542,13.458-30,30-30h117.929c16.542,0,30,13.458,30,30V97.198z"/>
		</g>
		<path style="fill:#022777;" d="M462,87.198H50c-27.57,0-50,22.43-50,50v299.639c0,27.57,22.43,50,50,50h412
			c27.57,0,50-22.43,50-50V137.198C512,109.627,489.57,87.198,462,87.198z M20,137.198c0-16.542,13.458-30,30-30h412
			c16.542,0,30,13.458,30,30v65.484c0,35.136-28.585,63.721-63.721,63.721H321.571v-0.547c0-15.468-12.584-28.052-28.053-28.052
			h-75.036c-15.469,0-28.053,12.584-28.053,28.052v0.547H83.721C48.585,266.403,20,237.818,20,202.682V137.198z M301.571,265.856
			v21.551c0,4.44-3.612,8.053-8.053,8.053h-75.036c-4.44,0-8.053-3.612-8.053-8.053v-21.551c0-4.44,3.612-8.052,8.053-8.052h75.036
			C297.959,257.804,301.571,261.416,301.571,265.856z M492,436.836c0,16.542-13.458,30-30,30H50c-16.542,0-30-13.458-30-30v-179.94
			c15.368,18.036,38.224,29.507,63.721,29.507H190.43v1.004c0,15.468,12.584,28.053,28.053,28.053h75.036
			c15.469,0,28.053-12.584,28.053-28.053v-1.004h106.708c25.497,0,48.353-11.471,63.721-29.507V436.836z"/>
	</g>
</g>
<g>
</g>
<g>
</g>
<g>
</g>
<g>
</g>
<g>
</g>
<g>
</g>
<g>
</g>
<g>
</g>
<g>
</g>
<g>
</g>
<g>
</g>
<g>
</g>
<g>
</g>
<g>
</g>
<g>
</g>
</svg>
