<?xml version="1.0" encoding="iso-8859-1"?>
<!-- Generator: Adobe Illustrator 27.2.0, SVG Export Plug-In . SVG Version: 6.00 Build 0)  -->
<svg version="1.1" id="Capa_1" xmlns="http://www.w3.org/2000/svg" xmlns:xlink="http://www.w3.org/1999/xlink" x="0px" y="0px"
	 viewBox="0 0 510.003 510.003" style="enable-background:new 0 0 510.003 510.003;" xml:space="preserve">
<g>
	<g id="Rug">
		<g>
			<path style="fill:#BC9AF4;" d="M99.75,385.504c-39.073-20.782-90.499,4.898-89.749,53.807c0,0,0-364.745,0-364.745
				C9.584,27.323,58.098-5.073,99.75,17.496c123.066,69.553,207.056,51.903,339.255,53.806v368.008
				C306.685,437.434,222.671,454.995,99.75,385.504z"/>
		</g>
		<g>
			<path style="fill:#6864F7;" d="M376.993,382.582C187.039,385.391,41.989,196.538,91.726,13.932
				C50.87-1.23,9.671,31.344,10.001,74.566c0-0.001,0,364.745,0,364.745c-0.729-48.952,50.689-74.574,89.749-53.807
				c123.079,69.556,207.042,51.902,339.255,53.807v-63.288C419.009,380.307,398.268,382.582,376.993,382.582z"/>
		</g>
		<g>
			<path style="fill:#FD7DA0;" d="M10.001,135.561C9.593,88.301,58.095,55.932,99.75,78.492
				c89.081,48.127,148.557,57.076,247.761,53.806c0,16.843,13.654,30.498,30.498,30.498v185.021
				c-16.844,0-30.498,13.654-30.498,30.498c-99.2,3.29-158.83-5.741-247.761-53.809c-38.989-20.774-90.524,4.878-89.749,53.809
				V135.561z"/>
		</g>
		<g>
			<path style="fill:#DB4B86;" d="M82.349,87.938c0-5.197,0.139-10.36,0.404-15.491c-38.459-8.271-73.196,24.228-72.752,63.115
				c0-0.001,0,242.753,0,242.753c-0.732-48.949,50.692-74.575,89.749-53.807c76.139,41.316,141.031,57.74,227.11,53.807
				C188.016,354.513,82.349,233.574,82.349,87.938z"/>
		</g>
		<g>
			<polygon style="fill:#FDCB50;" points="439.005,101.801 500.001,71.303 500.001,162.796 439.005,132.299 			"/>
		</g>
		<g>
			<polygon style="fill:#FDCB50;" points="439.005,378.315 500.001,347.817 500.001,439.311 439.005,408.813 			"/>
		</g>
		<g>
			<path style="fill:#6864F7;" d="M131.993,439.311c0,33.687-27.309,60.996-60.996,60.996
				c-80.823-2.99-80.801-119.014,0.001-121.992C104.684,378.315,131.993,405.624,131.993,439.311z"/>
		</g>
		<g>
			<path style="fill:#FD8F01;" d="M70.997,378.315v60.996h60.996C131.993,405.624,104.684,378.315,70.997,378.315z"/>
		</g>
	</g>
	<path style="fill:#052A75;" d="M495.529,171.741c6.406,3.385,14.64-1.685,14.472-8.945c0,0,0-91.494,0-91.494
		c0-3.466-1.795-6.685-4.743-8.506c-2.945-1.821-6.627-1.988-9.729-0.438c0,0-46.524,23.262-46.524,23.262V71.302
		c0-5.523-4.478-10-10-10H285.161c-55.461,0-114.565-17.213-180.69-52.623C56.796-17.254-0.333,19.248,0.001,74.567
		c-0.001-0.001-0.001,364.744-0.001,364.744c3.535,93.948,138.386,94.139,141.992-0.001c0-8.48-1.5-16.616-4.24-24.163
		c52.393,22.937,100.948,34.164,147.408,34.164h153.844c5.522,0,10-4.477,10-10v-14.318l46.524,23.262
		c3.094,1.548,6.777,1.387,9.729-0.438c2.947-1.822,4.742-5.041,4.742-8.506v-91.494c0-3.466-1.795-6.685-4.743-8.506
		c-2.947-1.823-6.629-1.988-9.729-0.438c0,0-46.524,23.262-46.524,23.262V148.479L495.529,171.741z M490.001,87.483v59.134
		l-40.996-20.498v-18.138L490.001,87.483z M90.928,392.374c15.259,6.501,26.752,20.272,30.075,36.937H80.997v-40.005
		C84.445,389.994,87.762,391.026,90.928,392.374z M70.997,490.307c-61.632-1.59-69.564-87.719-10-101.001v50.005
		c0,5.523,4.478,10,10,10h50.006C116.341,472.657,95.694,490.307,70.997,490.307z M429.005,429.311
		c-122.267-1.924-203.569,15.499-324.534-52.623v0c-14.502-7.803-31.732-10.234-47.838-6.91
		c-13.314,2.627-27.013,8.738-36.632,18.783c0,0,0-313.995,0-313.995C19.8,34.109,60.344,7.581,95.03,26.311
		c124.094,69.857,208.607,53.462,333.975,54.991V429.311z M490.001,363.997v59.133l-40.996-20.498v-18.138L490.001,363.997z"/>
</g>
<g>
</g>
<g>
</g>
<g>
</g>
<g>
</g>
<g>
</g>
<g>
</g>
<g>
</g>
<g>
</g>
<g>
</g>
<g>
</g>
<g>
</g>
<g>
</g>
<g>
</g>
<g>
</g>
<g>
</g>
</svg>
