<svg clip-rule="evenodd" fill-rule="evenodd" height="512" stroke-linejoin="round" stroke-miterlimit="2" viewBox="0 0 64 64" width="512" xmlns="http://www.w3.org/2000/svg"><g transform="translate(-192 -192)"><g id="Icon"><g transform="translate(-384 -256)"><g><path d="m632 470c0-1.105-.895-2-2-2-7.808 0-36.192 0-44 0-1.105 0-2 .895-2 2v8c0 1.105.895 2 2 2h44c1.105 0 2-.895 2-2 0-2.22 0-5.78 0-8z" fill="#ff3d65"/></g><g><path d="m628 480h-40v26c0 1.105.895 2 2 2h36c1.105 0 2-.895 2-2 0-6.406 0-26 0-26z" fill="#e6375a"/></g><g><path d="m604 480h8v28h-8z" fill="#e6a327"/></g><g><path d="m602 468h12v12h-12z" fill="#feb62c"/></g></g><g transform="translate(128 2)"><path d="m120 230c0-1.105-.895-2-2-2-7.808 0-36.192 0-44 0-1.105 0-2 .895-2 2v12c0 1.105.895 2 2 2h44c1.105 0 2-.895 2-2 0-3.074 0-8.926 0-12z" fill="#4bba6c"/></g><path d="m209 235.6v6.4c0 .552.448 1 1 1s1-.448 1-1v-3h3c.552 0 1-.448 1-1s-.448-1-1-1h-3v-1.4c0-.159.063-.312.176-.424.112-.113.265-.176.424-.176h2.4c.552 0 1-.448 1-1s-.448-1-1-1c0 0-1.286 0-2.4 0-.69 0-1.351.274-1.838.762-.488.487-.762 1.148-.762 1.838z" fill="#f8f4f0"/><path d="m217 234v8c0 .552.448 1 1 1s1-.448 1-1v-3h1.4c.159 0 .312.063.424.176.113.112.176.265.176.424v2.4c0 .552.448 1 1 1s1-.448 1-1c0 0 0-1.286 0-2.4 0-.583-.196-1.145-.551-1.6.355-.455.551-1.017.551-1.6v-.8c0-.69-.274-1.351-.762-1.838-.487-.488-1.148-.762-1.838-.762-1.114 0-2.4 0-2.4 0-.552 0-1 .448-1 1zm2 3v-2h1.4c.159 0 .312.063.424.176.113.112.176.265.176.424v.8c0 .159-.063.312-.176.424-.112.113-.265.176-.424.176z" fill="#f8f4f0"/><path d="m225 235.6v4.8c0 .69.274 1.351.762 1.838.487.488 1.148.762 1.838.762h2.4c.552 0 1-.448 1-1s-.448-1-1-1h-2.4c-.159 0-.312-.063-.424-.176-.113-.112-.176-.265-.176-.424v-1.4h3c.552 0 1-.448 1-1s-.448-1-1-1h-3v-1.4c0-.159.063-.312.176-.424.112-.113.265-.176.424-.176h2.4c.552 0 1-.448 1-1s-.448-1-1-1h-2.4c-.69 0-1.351.274-1.838.762-.488.487-.762 1.148-.762 1.838z" fill="#f8f4f0"/><g transform="translate(8)"><path d="m225 235.6v4.8c0 .69.274 1.351.762 1.838.487.488 1.148.762 1.838.762h2.4c.552 0 1-.448 1-1s-.448-1-1-1h-2.4c-.159 0-.312-.063-.424-.176-.113-.112-.176-.265-.176-.424v-1.4h3c.552 0 1-.448 1-1s-.448-1-1-1h-3v-1.4c0-.159.063-.312.176-.424.112-.113.265-.176.424-.176h2.4c.552 0 1-.448 1-1s-.448-1-1-1h-2.4c-.69 0-1.351.274-1.838.762-.488.487-.762 1.148-.762 1.838z" fill="#f8f4f0"/></g><path d="m216 212c-4.415 0-8-3.585-8-8s3.585-8 8-8 8 3.585 8 8c0-4.415 3.585-8 8-8s8 3.585 8 8-3.585 8-8 8z" fill="#feb62c"/><path d="m216 200c2.208 0 4 1.792 4 4v4h-4c-2.208 0-4-1.792-4-4s1.792-4 4-4z" fill="#f8f4f0"/><g transform="matrix(-1 0 0 1 448 0)"><path d="m216 200c2.208 0 4 1.792 4 4v4h-4c-2.208 0-4-1.792-4-4s1.792-4 4-4z" fill="#f8f4f0"/></g><path d="m210.345 211h-8.345c-1.657 0-3 1.343-3 3v8c0 1.657 1.343 3 3 3h1v4h-1c-1.657 0-3 1.343-3 3v12c0 1.657 1.343 3 3 3h1v3c0 1.657 1.343 3 3 3h36c1.657 0 3-1.343 3-3v-3h1c1.657 0 3-1.343 3-3v-12c0-1.657-1.343-3-3-3h-1v-4h1c1.657 0 3-1.343 3-3v-8c0-1.657-1.343-3-3-3h-8.345c2.04-1.651 3.345-4.174 3.345-7 0-4.967-4.033-9-9-9-3.481 0-6.503 1.98-8 4.875-1.497-2.895-4.519-4.875-8-4.875-4.967 0-9 4.033-9 9 0 2.826 1.305 5.349 3.345 7zm8.655 40v-4h-14v3c0 .552.448 1 1 1zm2 0v-4h6v4zm22-4h-14v4h13c.552 0 1-.448 1-1zm3-16h-44c-.552 0-1 .448-1 1v12c0 .552.448 1 1 1h44c.552 0 1-.448 1-1v-12c0-.552-.448-1-1-1zm-27-6h-14v4h14zm2 4v-4h6v4zm25-16h-15v10h5c.552 0 1 .448 1 1s-.448 1-1 1h-7v4h14v-4h-3c-.552 0-1-.448-1-1s.448-1 1-1h6c.552 0 1-.448 1-1v-8c0-.552-.448-1-1-1zm-29 0h-15c-.552 0-1 .448-1 1v8c0 .552.448 1 1 1h15zm12 0h-10v10h10zm3-2h-16c-3.863 0-7-3.137-7-7s3.137-7 7-7 7 3.137 7 7c0 .552.448 1 1 1s1-.448 1-1c0-3.863 3.137-7 7-7s7 3.137 7 7-3.137 7-7 7z"/></g></g></svg>