<svg id="Layer_1" enable-background="new 0 0 75 75" height="512" viewBox="0 0 75 75" width="512" xmlns="http://www.w3.org/2000/svg"><g id="Dates"><g><g><path d="m69.4815826 56.9837799c-.1201172 2.7399902-1.2602539 5.5400391-3.4101563 7.2299805-1.8974075 1.3576584-3.5721588 1.7266769-6.1298866 2.1401367-6.6295433 1.0623856-13.6837807 1.5805435-20-.6401367-.7001953-.25-1.3901367-.5198975-2.0500488-.829834-2.130127-.9700928-4.0700684-2.2600098-5.7900391-3.8701172-1.41992-1.3000488-2.4299297-2.8199463-2.7399883-4.5699463-.5137005-3.1652031 1.2822189-6.1598969 3.6201153-8.3599854 2.5690231-2.5795059 7.6817322-5.3145523 14.9799805-6.1600342 3.0631714-.4391251 7.9688721-.1969032 11.2998047.1099854 4.279438.3792114 6.3090782 1.2597504 8.4001503 6.4199219 1.1067352 2.7067719 1.9629059 5.6107521 1.8200683 8.5300293z" fill="#b35b2e"/></g><g><path d="m68.9189224 58.736721c-.0277939.7495041-.1528549 1.6381302-.8469467 1.9295959-.6524048.2775688-1.3742828-.2082634-2.0822678-.2499466-2.0902367-.0844803-2.9358597 3.3528748-5.025383 3.095787-1.0411377-.1250572-1.6796494-1.193985-1.8877411-2.2212257-.1945343-1.0133476-.1111603-2.0822754-.444313-3.0678291-.5100174-1.4500771-2.1410446-2.8199768-1.3603897-5.7055779.413414-1.7028084 1.3776283-2.2586212 1.9989014-2.8178825.6107178-.5830994 1.1661949-1.1243401 2.013134-1.3742867 1.0411377-.2916336 2.3598442.1109924 2.7899208 1.1104431.2223282.5415802.1806412 1.193985.4998932 1.6659203.4304199.6108894 1.2631226.7356071 1.9294281 1.0411377 1.1384048.5136223 1.8741837 1.6796455 2.1934357 2.8873596.3127593 1.1560861.2712554 2.4312135.2223281 3.7065049z" fill="#9d3813"/></g><g><path d="m47.9615593 41.9238434c-8.1828651 3.1470108-10.0169029 7.672596-15.8200684 12.4300537-.8901348.7299805-1.8300762 1.4099121-2.7800274 2.0899658-.5120506-3.1550407 1.2747345-6.1528549 3.6201153-8.3599854.0598145-.0600586.119873-.1101074.1799316-.1500244 4.3756676-3.5439453 8.3571778-5.2636184 14.8000489-6.0100097z" fill="#9d3813"/></g><g><path d="m67.5765686 58.0868416c-.0214691.5790787-.1180954 1.2656479-.6543655 1.4908409-.5040588.2144547-1.0617981-.1609077-1.6088028-.1931152-1.6149559-.0652695-2.2682991 2.5904999-3.8827095 2.3918686-.8044014-.0966225-1.2977257-.9224968-1.4585037-1.7161636-.1503029-.7829323-.0858879-1.6088066-.3432846-2.370266-.3940506-1.1203575-1.654213-2.1787682-1.0510635-4.4082413.3194084-1.3156242 1.0643806-1.7450562 1.5443878-2.1771507.4718552-.4505119.9010277-.8686867 1.5553894-1.0618019.8044014-.2253227 1.8232613.0857582 2.1555481.8579521.171772.4184341.1395645.9224968.3862267 1.2871208.33255.4719849.975914.5683479 1.490715.8044052.8795471.3968315 1.4480286 1.2977257 1.6946869 2.2308273.2416076.8930779.2095717 1.8785591.1717757 2.8637238z" fill="#fab041"/></g><g><path d="m47.3313179 46.4255829c2.577774-.8789978 5.3681107-1.1272469 8.0605774-.7171364-9.0326614 2.669735-9.1843796 3.0626678-15.0303993 2.6450691 2.5423279-1.154953 5.2860947-1.8648834 8.0695419-2.087944" fill="#c2784f"/></g><g><path d="m49.661808 55.4453506c-1.1584702 1.7782784-3.5908661 2.4197197-5.6987114 2.6897163-1.3532715.1733437-2.8406563.299675-4.1987991.1729736.9390564-1.1461678 2.2578316-1.7470551 3.6940765-1.8856163 2.0834198-.2009963 4.14151-.6213301 6.203434-.9770736z" fill="#c2784f"/></g><g><path d="m40.4717445 50.9468155c-.4047928.8498955-1.1265907.8847466-6.5742569 2.3489304-.2328796.0625916-.4719963.1257515-.7119942.1020622-1.2056789-.1190338-.2918587-1.1710281.2361717-1.4623566.4998016-.2757568.9911995-.3815956 1.543972-.4895287.880394-.1719017 1.7560158-.3501701 2.6498451-.4394188.2874605-.0287017 2.8126527.0318719 2.8562623-.0596885z" fill="#c2784f"/></g><g><path d="m53.394886 64.6708374c.7128601.0166092.7311401-.5314713.0640106-.6881065-2.8475876-.6682625-6.1717834-.7270508-8.9610367.2502556 2.9123307.5195999 5.9508172.3692016 8.8970261.4378509z" fill="#c2784f"/></g><g><path d="m45.7825432 67.0210266c-1.4106407-.1176758-3.7747002-.5822678-5.8452721-1.3084641-.6973076-.246666-1.3836136-.5147934-2.0487137-.8258743-.0322075-.0751495-.0536804-.1607742-.064415-.246666.9332314-.1716385 1.5873337.7077866 2.58498.7077866 1.6517487.064415 3.3034973.4399033 4.826416 1.0940018.2888184.12854.5470048.2739258.5470048.579216z" fill="#c2784f"/></g><g><path d="m68.1769867 49.8067551c-.0214691-.0214729-.0429382-.0320778-.0641479-.0428123-.6328888-.4505119-1.1262207-1.083271-1.7913132-1.4801064-1.5420532-.899395-3.5431671-.3382721-5.1801796-.9973869-.7402496-.3110771-1.5983315-1.0618019-1.5553856-1.9413528.9224968.1500397 1.6732178.8580818 2.6169243.8473434 1.440567 0 1.6417007-.5791817 4.14011.6005554.2574005.1286964.5255356.2466621.7614594.3968315.2922897.5993995.7346954 1.6479721 1.0725326 2.6169281z" fill="#c2784f"/></g><g><g><path d="m63.2649498 58.0438957c-.525795.0535507-1.104744-.2681351-1.2550468-.7721939-.1070976-.3538895-.0107346-.7401199-.1393051-1.0832748-.1825066-.4612465-.7292519-.6757011-.9869118-1.0940056-.5896835-.94384.4828529-1.6408844 1.3087273-1.758976.8900261-.1287003 1.8769379.3862267 2.3595276 1.1262131 1.003868 1.5476722-.022667 3.4533462-1.2869912 3.5822372z" fill="#f7d78a"/></g></g><g><path d="m48.1715202 23.8739166c-.3400879 3.2999268-1.7900391 6.3798828-3.3701172 9.2999268-5.3198242 9.789917-12.5600586 18.8199463-22.16992 24.4300537-.3701172.2199707-.7399902.4299316-1.130127.6298828-2.5300293 1.3400879-5.3098145 2.3300781-8.119873 1.9799805-3.3701172-.4299316-6.3999028-2.9499512-7.4301763-6.1999512-.9499512-3.0600586-.2299805-6.3599854.670166-9.4399414 2.1101079-7.2700195 5.1599126-14.3100586 9.4599609-20.5400391s9.880127-11.6499014 16.5200176-15.2900381c4.8829651-2.627172 5.323246.5912952 6.5500488 1.7299805.9499512.8901367 2.369873 1 3.619873 1.3701172 2.3200684.6599121 2.6999512 3.0499268 3.8500977 4.8499746 1.3249175 2.1063976 1.8147209 4.7156773 1.5500495 7.1800537z" fill="#b35b2e"/></g><g><path d="m31.464056 13.1503696c-7.0964584 7.6176147-5.6199627 13.217371-9.1758404 14.1711674.5690365-2.9053249 1.0312672-5.2640152 2.6702824-7.7787361 3.0152302-4.6262283 4.9397697-4.7082987 6.505558-6.3924313z" fill="#c2784f"/></g><g><path d="m29.6850605 34.8724289c-.6571026-2.0255394.1161861-4.2263374 1.071682-6.1293907 2.5112553-5.0016403 6.3722553-9.3175259 11.0644932-12.3680553-.3766937.2354317-.364357 2.6456146-.4887619 3.1389637-.1538048.6099491-.3220863.9330254-.7560539 1.3841934-1.3541489 1.4078236-2.9155846 2.5976582-4.2379837 4.0547333-2.6852761 2.958744-4.9389058 6.3099517-6.6533757 9.9195556z" fill="#c2784f"/></g><g><path d="m7.7280188 52.3413048c1.0574722-.3409424 1.59657-1.4844246 2.0167456-2.5129852 1.0606718-2.5964584 2.1213436-5.1929131 3.1820526-7.7894669.2135782-.5228462.6218672-1.5113678-.0826797-1.8378716-.7591534-.3518143-1.0600281.6841202-1.3037119 1.1936188-1.0423585 2.1793938-1.69131 4.4205513-3.8124066 10.9467049z" fill="#c2784f"/></g><g><path d="m18.185957 47.6999626c3.094429-3.8633995 5.3540077-8.3920631 6.5800152-13.1877098-.0897026.3431091-1.1510925.9336662-1.4746761 1.1740685-.5983658.4445457-1.1699486.8568993-1.6765308 1.412838-2.6116411 2.8660964-3.0537053 6.816471-3.4288083 10.6008033z" fill="#c2784f"/></g><g><path d="m21.9924507 52.4211502c7.5075722-8.9852982 7.3774071-8.7192612 7.4880581-9.1642456.1526432-.6138687-.3246746-.8793259-.8372993-.6981773-.3930874.1389046-.6193447.5701065-.8675785.8668938-1.0725823 1.2823638-4.109211 3.7490081-5.7831803 8.9955291z" fill="#c2784f"/></g><g><path d="m11.841013 59.8569717c.1930561-.117981.4075642-.278862.5577192-.386116.7293253-.5469933 1.4908266-1.0725365 2.0807219-1.7804108 1.7804108-2.1236229 1.6517067-5.4163094 3.4964695-7.4863091-1.5936317.4249687-3.4060507.9516144-4.0220127 2.616993-.3003111.8044014-.1716061 1.7053337-.2895851 2.5740891 0 .7507744-.4719162 1.5980797-.8580294 2.2094231-.3753881.5791702-1.2548685 1.2119675-1.4479256 1.8447647-.02145.085804-.032176.1501541-.0536261.2145081z" fill="#c2784f"/></g><g><path d="m42.126339 26.3810806c-2.3767395 6.0415611-2.2430954 9.147419-3.0625458 11.5334015-.7267914 2.1161919-2.1875305 3.8869934-3.6189575 5.6067314.1842117-.2213249.2093544-.9290924.2874107-1.2194138.1129646-.4201584.2396202-.8366318.3795128-1.2486076 1.0879822-3.2040329 1.6034546-2.895031 1.6276169-4.0030518.0189056-.8670082.0009995-1.7262383.1076927-2.5897675.54142-4.3820533 3.281826-5.100561 4.2792702-8.0792922z" fill="#c2784f"/></g><g><path d="m48.2213249 21.8938141c-.8089256-.4855537-3.4498634-1.4520073-5.0200195-2.9400635-1.0197754-.9599609-1.7597656-2.2299805-2.869873-3.1098623-1.1699219-.9200439-2.6499023-1.3400879-3.9099121-2.1600342-1.7600098-1.1600342-2.8500977-3.2399902-3.0100098-5.3399658.5300293-.25 1.0998535-.4500732 1.6599121-.5400391 2.6530685-.4827328 3.0152664 1.681592 4.0800781 2.6699219.9499512.8901367 2.369873 1 3.619873 1.3701172 2.3200684.6599121 2.6999512 3.0499268 3.8500977 4.8499746.9952126 1.582222 1.4958229 3.3959503 1.5998535 5.1999512z" fill="#9d3813"/></g><g><path d="m47.7387314 19.0575657c-1.7596626-1.9621449-3.946949-2.7961922-4.5046043-3.2711582-.6517105-.5384216-.9774246-1.3971004-1.3621445-1.9090166-.2478485-.3865891-2.0225792-1.0668564-2.9172668-1.9198828-.4074402-.396965-.7292519-.8795538-1.040329-1.3621435-.5623016-.843792-1.1875801-1.8696947-.354023-2.3595285.0107384-.0107355.0214729-.0107355.0322075-.021472.4278336-.2632804.6980515-.0994587.8473473-.085886 1.9958496.2066402 3.405098 1.3709707 5.0408707 2.7779646 1.4944038 1.2604399 2.5870361 2.3539438 3.4108582 4.1613178.6004179 1.2656517.932968 2.6491356.8470839 3.9898052z" fill="#fab041"/></g><g><path d="m46.2587547 13.9202032c-.4181747.2573986-.9654388.1823788-1.3836136-.0535479-.8936386-.5141954-1.2649765-1.533288-2.0377159-2.1343384-.4888306-.3871336-1.2032433-.6416931-1.3836136-1.3193302-.1503028-.5255327.2251893-1.1046132.707779-1.2012367.7681084-.2194595 1.0398293.9863567 2.5954552 1.9198837.3003426.1715117.6114197.3218136.8580818.5792112.5539474.5539485.6019783 1.4396449.6436271 2.2093583z" fill="#f7d78a"/></g><g opacity=".59"><path d="m18.1009293 30.2550716c.9273701-.3648739 2.1475506-.3421345 2.7385063.4603004.4925385.6687965.357008 1.6089802.0666924 2.3871822-.5382309 1.4427452-1.540453 2.7082825-2.8216953 3.5629158-1.6764812 1.1181488-2.9766827-.8532982-2.9003105-2.4374313.0820426-1.7017478 1.354864-3.3584193 2.9168071-3.9729671z" fill="#fff"/></g></g></g></svg>