<?xml version="1.0" encoding="UTF-8"?>
<svg version="1.1" xmlns="http://www.w3.org/2000/svg" width="200" height="200">
<path d="M0 0 C12.79615608 11.40100448 21.04154293 22.59854273 22.453125 40.01953125 C22.99343193 52.93991426 18.56403305 65.44155297 9.85546875 74.98046875 C7.06313364 77.6416576 7.06313364 77.6416576 7.3203125 80.109375 C8.13283927 82.27662127 8.13283927 82.27662127 10.54296875 82.85546875 C14.46444579 84.54883384 16.07024936 87.56502768 18.29296875 91.04296875 C19.26086475 92.50403477 20.23100535 93.96361577 21.203125 95.421875 C21.70730957 96.18258301 22.21149414 96.94329102 22.73095703 97.72705078 C25.30578621 101.5446234 28.01755826 105.26035778 30.73046875 108.98046875 C34.06106741 113.55656426 37.37488739 118.14042057 40.609375 122.78515625 C41.1444165 123.552229 41.67945801 124.31930176 42.23071289 125.10961914 C43.2407069 126.56155458 44.2466899 128.01629202 45.24780273 129.47436523 C47.97535117 133.39093109 50.85174947 136.70817893 54.29296875 140.04296875 C56.35575254 143.27466335 57.29296875 145.19973086 57.29296875 149.04296875 C55.96459428 153.02809215 54.23186178 155.03410208 51.29296875 158.04296875 C47.21423167 159.40254778 43.55366659 159.67418324 39.29296875 159.04296875 C35.42815892 156.46642886 34.09891382 153.75583021 32.58984375 149.52734375 C30.24998045 143.54895779 26.93540173 138.47133606 23.35546875 133.16796875 C22.01654696 131.15259624 20.67801305 129.13696598 19.33984375 127.12109375 C18.66630859 126.11240234 17.99277344 125.10371094 17.29882812 124.06445312 C13.64244777 118.55674094 10.07708707 112.98961225 6.50610352 107.42626953 C4.42428946 104.20754 2.37821262 101.14644887 -0.0625 98.18359375 C-2.22950112 95.3628892 -1.85809233 93.51737359 -1.70703125 90.04296875 C-2.36703125 89.05296875 -3.02703125 88.06296875 -3.70703125 87.04296875 C-6.48379824 87.54783547 -9.06762783 88.16332191 -11.75 89.05859375 C-22.80347899 92.23080172 -37.63095029 91.57172746 -47.70703125 86.04296875 C-48.62484375 85.54539062 -49.54265625 85.0478125 -50.48828125 84.53515625 C-63.53718457 76.82769962 -73.63858425 65.19910422 -78.046875 50.54296875 C-80.6295257 36.85033546 -79.40920579 23.35597085 -72.01953125 11.35546875 C-63.85113919 0.14673226 -53.65720921 -7.62949566 -39.83203125 -10.39453125 C-25.41389369 -12.30993347 -11.33968394 -9.41294118 0 0 Z " fill="#ACABB1" transform="translate(111.70703125,25.95703125)"/>
<path d="M0 0 C0.74620605 0.00418945 1.49241211 0.00837891 2.26123047 0.01269531 C8.12989442 0.13238601 13.26703596 0.96022315 18.6875 3.3125 C19.32945313 3.56773438 19.97140625 3.82296875 20.6328125 4.0859375 C27.86454421 7.49831307 31.48027102 14.9209492 34.08544922 22.14892578 C35.10294577 25.80547666 35.1762414 29.34858995 35.125 33.125 C35.11742676 33.91181152 35.10985352 34.69862305 35.10205078 35.50927734 C34.7570715 47.76989153 29.76481744 56.60461077 21.0625 65 C11.01050481 73.22264522 0.38961799 74.4848096 -12.15966797 73.55175781 C-22.23118144 72.43244695 -30.36444143 67.07041674 -36.75 59.375 C-41.56291869 49.94167937 -41.85856751 38.192736 -39.25 28 C-35.15567295 16.48231363 -26.13450278 7.62511955 -15.3125 2.3125 C-10.07445222 0.53233217 -5.4669186 -0.0420247 0 0 Z " fill="#BFDBEB" transform="translate(86.3125,29.6875)"/>
<path d="M0 0 C9.23044621 6.59317587 13.54990294 16.61768768 15.6875 27.5 C16.87783445 40.83174588 14.5439469 52.72017509 7 64 C5.88094537 65.33540519 4.73721106 66.65078161 3.5625 67.9375 C0.77016489 70.59868885 0.77016489 70.59868885 1.02734375 73.06640625 C1.83987052 75.23365252 1.83987052 75.23365252 4.25 75.8125 C8.17147704 77.50586509 9.77728061 80.52205893 12 84 C12.967896 85.46106602 13.9380366 86.92064702 14.91015625 88.37890625 C15.41434082 89.13961426 15.91852539 89.90032227 16.43798828 90.68408203 C19.01281746 94.50165465 21.72458951 98.21738903 24.4375 101.9375 C27.76809866 106.51359551 31.08191864 111.09745182 34.31640625 115.7421875 C34.85144775 116.50926025 35.38648926 117.27633301 35.93774414 118.06665039 C36.94773815 119.51858583 37.95372115 120.97332327 38.95483398 122.43139648 C41.68238242 126.34796234 44.55878072 129.66521018 48 133 C50.06278379 136.2316946 51 138.15676211 51 142 C49.67162553 145.9851234 47.93889303 147.99113333 45 151 C40.92126292 152.35957903 37.26069784 152.63121449 33 152 C29.13519017 149.42346011 27.80594507 146.71286146 26.296875 142.484375 C23.9570117 136.50598904 20.64243298 131.42836731 17.0625 126.125 C15.72357821 124.10962749 14.3850443 122.09399723 13.046875 120.078125 C12.37333984 119.06943359 11.69980469 118.06074219 11.00585938 117.02148438 C7.34947902 111.51377219 3.78411832 105.9466435 0.21313477 100.38330078 C-1.86867929 97.16457125 -3.91475613 94.10348012 -6.35546875 91.140625 C-8.52246987 88.31992045 -8.15106108 86.47440484 -8 83 C-8.66 82.01 -9.32 81.02 -10 80 C-12.77676699 80.50486672 -15.36059658 81.12035316 -18.04296875 82.015625 C-29.08012275 85.1831479 -43.94455944 84.54504198 -54 79 C-64.66852368 72.99721448 -64.66852368 72.99721448 -68 68 C-65.52619541 69.1874262 -63.26383311 70.46573823 -60.9375 71.9375 C-49.80306096 78.1830782 -34.79847816 79.13905108 -22.5 75.875 C-9.89011697 71.25209968 -1.28346619 63.66655765 5 52 C5.5775 50.989375 6.155 49.97875 6.75 48.9375 C11.55377632 37.64862566 11.49289789 25.13256435 7.21875 13.69921875 C5.75899854 10.46624356 4.07304702 7.53240515 2.05078125 4.62109375 C1 3 1 3 0 0 Z " fill="#55A657" transform="translate(118,33)"/>
<path d="M0 0 C7.84578893 5.99901092 14.48175017 15.15696059 16.5390625 24.94140625 C17.65656093 37.71788138 17.05675424 49.06193335 9.2890625 59.69140625 C1.90225366 68.47402398 -6.74754783 75.53292504 -18.4609375 76.94140625 C-33.93309186 77.77513892 -43.37805205 75.26223405 -55.47265625 65.28125 C-60.28457895 60.86597169 -62.88607052 55.88340696 -65.4609375 49.94140625 C-65.94240234 48.97074219 -65.94240234 48.97074219 -66.43359375 47.98046875 C-70.65506766 38.67359138 -68.93143583 28.29408559 -65.72265625 18.94921875 C-63.84034466 14.4619744 -61.51565718 10.7170695 -58.4609375 6.94140625 C-57.98269531 6.3278125 -57.50445312 5.71421875 -57.01171875 5.08203125 C-42.29029739 -11.67888174 -17.50642113 -11.81067003 0 0 Z M-51.7734375 15.37890625 C-59.81802544 25.33993342 -61.28678034 36.42267747 -60.4609375 48.94140625 C-59.35855322 55.935525 -56.8800662 61.30453672 -51.4609375 65.94140625 C-40.21885607 73.9741146 -28.92660509 75.27552892 -15.4609375 73.94140625 C-6.00381285 71.87364426 1.31673378 66.21751645 7.5390625 58.94140625 C14.63619806 47.58319521 16.73169631 34.96487508 13.85546875 21.81640625 C12.93008088 19.35894468 11.87547139 17.19947645 10.5390625 14.94140625 C10.13816406 14.21566406 9.73726563 13.48992188 9.32421875 12.7421875 C5.08622826 6.09652706 -1.32696426 3.282947 -8.79296875 1.33203125 C-25.98173189 -1.18462514 -39.83067947 2.30158621 -51.7734375 15.37890625 Z " fill="#8F9297" transform="translate(106.4609375,29.05859375)"/>
<path d="M0 0 C9.23044621 6.59317587 13.54990294 16.61768768 15.6875 27.5 C17.07384514 43.02706551 13.34096237 56.36734112 3.5 68.625 C1.14288993 71.17983675 0.23530674 71.93079214 -3.1875 72.9375 C-4.115625 72.958125 -5.04375 72.97875 -6 73 C-7.33737094 73.31674575 -8.67288808 73.64270064 -10 74 C-10.07734375 74.77730469 -10.1546875 75.55460937 -10.234375 76.35546875 C-11 79 -11 79 -12.765625 80.36328125 C-23.61816376 84.50977012 -38.0171523 85.13478072 -49.125 81.4375 C-56.11419287 78.3001786 -63.67261902 74.49107147 -68 68 C-65.52619541 69.1874262 -63.26383311 70.46573823 -60.9375 71.9375 C-49.80306096 78.1830782 -34.79847816 79.13905108 -22.5 75.875 C-9.89011697 71.25209968 -1.28346619 63.66655765 5 52 C5.5775 50.989375 6.155 49.97875 6.75 48.9375 C11.55377632 37.64862566 11.49289789 25.13256435 7.21875 13.69921875 C5.75899854 10.46624356 4.07304702 7.53240515 2.05078125 4.62109375 C1 3 1 3 0 0 Z " fill="#433E3B" transform="translate(118,33)"/>
<path d="M0 0 C0.99 0 1.98 0 3 0 C4.34350586 1.49023438 4.34350586 1.49023438 5.71484375 3.59375 C6.23014648 4.36895996 6.74544922 5.14416992 7.27636719 5.94287109 C8.09862793 7.2086499 8.09862793 7.2086499 8.9375 8.5 C13.21378212 14.92645549 17.56817338 21.23689208 22.25 27.375 C27.37768747 34.11400522 32.24740055 40.99111596 37 48 C35.61482883 51.4340702 34.34555636 52.70022022 31 54.25 C30.29875 54.58515625 29.5975 54.9203125 28.875 55.265625 C27 56 27 56 25 56 C24.78085938 55.11699219 24.56171875 54.23398438 24.3359375 53.32421875 C19.82643625 36.25777297 9.98018327 22.38773551 -1.4921875 9.1171875 C-2.23855469 8.06917969 -2.23855469 8.06917969 -3 7 C-2.67 6.01 -2.34 5.02 -2 4 C1.24000075 5.08000025 1.6336358 5.49783862 3.48046875 8.16015625 C3.92197266 8.78857422 4.36347656 9.41699219 4.81835938 10.06445312 C5.49608398 11.05348633 5.49608398 11.05348633 6.1875 12.0625 C6.65091797 12.72572266 7.11433594 13.38894531 7.59179688 14.07226562 C8.73472863 15.71007505 9.8682718 17.35442897 11 19 C10.54109375 18.29875 10.0821875 17.5975 9.609375 16.875 C6.05198951 11.37450479 2.79479035 5.92495554 0 0 Z " fill="#88B52C" transform="translate(124,113)"/>
<path d="M0 0 C0.495 2.475 0.495 2.475 1 5 C-0.86591797 4.93039063 -0.86591797 4.93039063 -2.76953125 4.859375 C-15.77313842 4.51552333 -25.66751196 5.4140279 -36 14.0859375 C-42.7397688 20.53610686 -48.61921689 29.62672878 -49.11352539 39.19824219 C-49.10828857 39.97329102 -49.10305176 40.74833984 -49.09765625 41.546875 C-49.09443359 42.39121094 -49.09121094 43.23554687 -49.08789062 44.10546875 C-49.07951172 44.97816406 -49.07113281 45.85085937 -49.0625 46.75 C-49.05798828 47.63816406 -49.05347656 48.52632812 -49.04882812 49.44140625 C-49.037074 51.62767329 -49.02064249 53.81380179 -49 56 C-49.66 56 -50.32 56 -51 56 C-54.68269696 43.24208553 -55.30128244 33.46348703 -50 21 C-44.46000204 11.72926924 -36.28166799 4.43337567 -26 1 C-21.88325326 -0.00476531 -17.78462995 -0.32736748 -13.5625 -0.625 C-12.28503906 -0.72039063 -11.00757813 -0.81578125 -9.69140625 -0.9140625 C-6.28367855 -0.99339584 -3.32764411 -0.6891875 0 0 Z " fill="#96A1AA" transform="translate(96,26)"/>
<path d="M0 0 C4.23179197 1.746171 5.45191735 3.85808417 7.296875 7.9140625 C8.35911779 11.06538278 8.14941885 12.88980781 7 16 C4.80718514 19.35602847 2.91080826 21.69639725 -1 23 C-5.84510801 23.63512652 -8.96415607 23.79341237 -12.9375 20.75 C-17 15.33333333 -17 15.33333333 -17 11 C-16.35933594 10.70867187 -15.71867188 10.41734375 -15.05859375 10.1171875 C-9.23391562 7.35675882 -4.70849405 4.40141835 0 0 Z " fill="#8F8F93" transform="translate(161,162)"/>
<path d="M0 0 C-3.3767923 1.12559743 -4.60545699 0.74471956 -8 0 C-11.5603583 -0.2362357 -15.12002192 -0.23088424 -18.6875 -0.25 C-20.10192383 -0.2809375 -20.10192383 -0.2809375 -21.54492188 -0.3125 C-33.80795461 -0.37992561 -44.53557909 3.93513671 -54.3125 11.3125 C-63.02224468 20.02224468 -67.02224305 30.77865467 -67.3125 43 C-67.20033921 55.40778758 -62.366791 68.70356556 -54 78 C-54.495 78.99 -54.495 78.99 -55 80 C-64.9362098 70.00499606 -70.40624243 57.91987621 -70.375 43.8125 C-70.32230271 29.41504561 -65.63462456 18.97487451 -56 8.375 C-40.33881526 -6.67977523 -19.29182054 -7.85963059 0 0 Z " fill="#C6C5C9" transform="translate(103,20)"/>
<path d="M0 0 C27.71138044 -0.51211997 27.71138044 -0.51211997 40.0703125 10.9140625 C49.15156678 20.73064101 53.42351619 34.27130845 53.26953125 47.33203125 C52.87084898 52.75757691 51.59581225 57.81361019 50 63 C49.01 63 48.02 63 47 63 C47.33 62.01 47.66 61.02 48 60 C50.79795727 48.68739577 49.95849016 36.15643708 44.3125 25.94921875 C42.63475299 23.19841271 40.99608489 20.52997748 39 18 C38.34 18 37.68 18 37 18 C36.34 17.13375 35.68 16.2675 35 15.375 C28.59734046 7.43269799 18.34135493 3.71788924 8.48046875 2.6015625 C5.32039393 2.34820872 2.1667618 2.14394372 -1 2 C-0.67 1.34 -0.34 0.68 0 0 Z " fill="#ABA9AF" transform="translate(76,19)"/>
<path d="M0 0 C3.85544487 1.28514829 4.39453777 2.73048711 6.5625 6.125 C7.27019531 7.218125 7.97789063 8.31125 8.70703125 9.4375 C9.08166504 10.02144531 9.45629883 10.60539063 9.84228516 11.20703125 C11.77671064 14.20290235 13.76644738 17.16153442 15.75 20.125 C16.58737789 21.38272043 17.4246132 22.64053579 18.26171875 23.8984375 C20.25485775 26.88925043 22.26004249 29.87171225 24.26953125 32.8515625 C24.81706055 33.66608887 25.36458984 34.48061523 25.92871094 35.31982422 C27.00078613 36.91448 28.07556871 38.50731966 29.15332031 40.09814453 C29.64026367 40.82372559 30.12720703 41.54930664 30.62890625 42.296875 C31.06275635 42.93979492 31.49660645 43.58271484 31.94360352 44.24511719 C33 46 33 46 34 49 C34.94875 48.484375 35.8975 47.96875 36.875 47.4375 C37.90625 46.963125 38.9375 46.48875 40 46 C40.99 46.495 40.99 46.495 42 47 C40.59447701 48.03612271 39.17508306 49.05344925 37.75 50.0625 C36.96109375 50.63097656 36.1721875 51.19945312 35.359375 51.78515625 C33 53 33 53 31.00366211 52.78466797 C28.52267396 51.81307105 27.93766159 50.92909027 26.58203125 48.66015625 C25.91953369 47.57855225 25.91953369 47.57855225 25.24365234 46.47509766 C24.77137207 45.67894043 24.2990918 44.8827832 23.8125 44.0625 C22.76174051 42.34084252 21.70818751 40.62088789 20.65234375 38.90234375 C20.07726074 37.96374512 19.50217773 37.02514648 18.90966797 36.05810547 C16.82221736 32.71530232 14.67500961 29.41770837 12.50390625 26.12890625 C12.12081802 25.54808792 11.7377298 24.96726959 11.34303284 24.36885071 C9.80929406 22.04607274 8.27382077 19.72449308 6.73208618 17.40701294 C5.64820692 15.77654061 4.57009656 14.14223788 3.4921875 12.5078125 C2.86683105 11.56566895 2.24147461 10.62352539 1.59716797 9.65283203 C0.09216782 7.15308706 -1.00717624 4.7378619 -2 2 C-1.34 1.34 -0.68 0.68 0 0 Z " fill="#249B58" transform="translate(114,120)"/>
<path d="M0 0 C4.13051467 7.34119154 2.90047739 18.33585063 1.34765625 26.37890625 C-2.48689057 37.94837584 -11.45012163 47.27348961 -22.125 52.875 C-30.99289948 57.26533712 -44.35798468 57.71258676 -53.875 54.9375 C-62.54591229 51.41287344 -72.03606832 44.55737191 -76.5 36.1875 C-77 34 -77 34 -76 32 C-75.01 32 -74.02 32 -73 32 C-72.67 33.175625 -72.34 34.35125 -72 35.5625 C-69.38062527 42.47813889 -63.79988246 46.37026844 -57.25 49.375 C-47.12020637 53.56538226 -33.6931369 53.95349131 -23.4375 50.0625 C-12.72633475 44.69942705 -6.3425189 37.072622 -2 26 C-1.07493615 22.94082227 -0.89407639 20.24151227 -0.9375 17.05078125 C-0.94910156 15.65569336 -0.94910156 15.65569336 -0.9609375 14.23242188 C-0.98027344 12.78706055 -0.98027344 12.78706055 -1 11.3125 C-1.02538689 9.39198188 -1.04646143 7.47140019 -1.0625 5.55078125 C-1.07410156 4.70169189 -1.08570312 3.85260254 -1.09765625 2.9777832 C-1 1 -1 1 0 0 Z " fill="#93979C" transform="translate(121,50)"/>
<path d="M0 0 C7.52810529 6.45266168 11.47835423 16.04959888 12.3359375 25.83203125 C12.47284762 39.78317253 8.78075004 49.73045767 -1 60 C-3.14402119 61.74545101 -5.40201631 63.23148777 -7.75 64.6875 C-8.68622192 65.26939087 -8.68622192 65.26939087 -9.64135742 65.86303711 C-20.4105412 72.39982711 -31.30660961 73.65463278 -43.74609375 71.53125 C-52.21157332 68.99613312 -59.86353006 64.19105792 -65 57 C-61.79165161 58.47569342 -59.13503083 60.32401073 -56.3125 62.4375 C-45.98662998 69.63113949 -35.84408647 70.00028621 -23.578125 68.75390625 C-12.56699976 66.54713115 -3.36999331 59.25067049 2.75 50.125 C6.91736265 42.87601379 8.54261389 35.88599392 8.4375 27.5625 C8.43137695 26.73210205 8.42525391 25.9017041 8.41894531 25.04614258 C8.18432232 15.83719025 5.20216574 9.43166534 0 2 C0 1.34 0 0.68 0 0 Z " fill="#C1C0C5" transform="translate(114,36)"/>
<path d="M0 0 C3.90456829 1.30152276 5.15490357 3.67598138 7.375 6.9375 C8.26467588 8.21680641 9.15535143 9.49541802 10.046875 10.7734375 C10.52189453 11.45760742 10.99691406 12.14177734 11.48632812 12.84667969 C13.0537031 15.076397 14.65367507 17.27888047 16.265625 19.4765625 C34 43.65581225 34 43.65581225 34 49 C29.77777778 52 29.77777778 52 27 52 C26.78085938 51.11699219 26.56171875 50.23398438 26.3359375 49.32421875 C21.82643625 32.25777297 11.98018327 18.38773551 0.5078125 5.1171875 C-0.23855469 4.06917969 -0.23855469 4.06917969 -1 3 C-0.67 2.01 -0.34 1.02 0 0 Z " fill="#92B929" transform="translate(122,117)"/>
<path d="M0 0 C0.474375 0.66 0.94875 1.32 1.4375 2 C3.2788361 4.3569102 4.20008848 4.34668731 7 5 C7.33 5.99 7.66 6.98 8 8 C3.38 11.3 -1.24 14.6 -6 18 C-6.66 17.67 -7.32 17.34 -8 17 C-7.9071875 15.63875 -7.9071875 15.63875 -7.8125 14.25 C-7.69720532 11.00193706 -7.69720532 11.00193706 -9.5625 8.9375 C-11 7 -11 7 -11.125 4.4375 C-10 2 -10 2 -6.625 0.125 C-3 -1 -3 -1 0 0 Z " fill="#7C7B7F" transform="translate(118,105)"/>
<path d="M0 0 C2.97 0 5.94 0 9 0 C7.86746348 7.92775565 5.4774039 13.38245335 1 20 C-1.31 19.67 -3.62 19.34 -6 19 C-5.72736328 18.19949219 -5.72736328 18.19949219 -5.44921875 17.3828125 C-3.5063945 11.62408217 -1.71615568 5.83006078 0 0 Z " fill="#D6EBF3" transform="translate(106,70)"/>
<path d="M0 0 C3 0.5625 3 0.5625 5.4375 2.6875 C7 5.5625 7 5.5625 7.0625 8.625 C5.7033773 12.38257452 4.54695633 13.71191409 1 15.5625 C-2.70291519 15.06040981 -5.06342394 14.69419608 -7.5 11.75 C-8.14766973 8.91644492 -7.96232648 7.31200423 -7 4.5625 C-4.81492345 1.56813584 -3.66717106 0.68759457 0 0 Z " fill="#E0E9F0" transform="translate(72,33.4375)"/>
<path d="M0 0 C9.23044621 6.59317587 13.54990294 16.61768768 15.6875 27.5 C17.17682331 44.18042111 12.54800197 57.78548446 1.80859375 70.63671875 C-0.55472819 72.41814285 -2.1121638 72.26163302 -5 72 C-4 70 -4 70 -1.875 68.9375 C6.68602735 63.16811201 10.70443191 53.78422131 13 44 C14.05548949 34.27944439 12.64990397 25.35353009 10 16 C9.34 16 8.68 16 8 16 C5.33333333 10.66666667 2.66666667 5.33333333 0 0 Z " fill="#534C48" transform="translate(118,33)"/>
<path d="M0 0 C2.31 0 4.62 0 7 0 C9.37905675 4.7581135 8.33431286 11.99632677 7 17 C5.00045254 17.04254356 2.99958364 17.04080783 1 17 C0 16 0 16 -0.09765625 12.40234375 C-0.0909822 10.91403133 -0.07902183 9.42573568 -0.0625 7.9375 C-0.05798828 7.17888672 -0.05347656 6.42027344 -0.04882812 5.63867188 C-0.0370068 3.75908129 -0.01907078 1.87953101 0 0 Z " fill="#D5EAF3" transform="translate(97,48)"/>
<path d="M0 0 C2.47380459 1.1874262 4.73616689 2.46573823 7.0625 3.9375 C11.70546581 6.64420715 16.81102203 7.76140128 22 9 C21.01 9.495 21.01 9.495 20 10 C20 10.66 20 11.32 20 12 C32.32226627 13.11146807 42.3460702 13.61012843 54 9 C54.66 9 55.32 9 56 9 C56 8.34 56 7.68 56 7 C56.66 7.33 57.32 7.66 58 8 C57 11 57 11 55.234375 12.16796875 C44.46351206 16.58808703 29.9873089 17.13626564 18.875 13.4375 C11.88580713 10.3001786 4.32738098 6.49107147 0 0 Z " fill="#524C47" transform="translate(50,101)"/>
<path d="M0 0 C1.8125 0.05078125 1.8125 0.05078125 4 0.3125 C4.721875 0.39113281 5.44375 0.46976563 6.1875 0.55078125 C7.0846875 0.77314453 7.0846875 0.77314453 8 1 C9.16343227 3.32686453 9.19895988 4.84721413 9.25 7.4375 C9.28867188 8.61119141 9.28867188 8.61119141 9.328125 9.80859375 C8.92174807 12.52261109 8.17604183 13.37570338 6 15 C3.375 15.25 3.375 15.25 1 15 C0.67 14.67 0.34 14.34 0 14 C0.22291995 11.75715233 0.58463628 9.54943351 0.94140625 7.32421875 C1.00890019 4.64695909 0.36517743 3.26837467 -1 1 C-0.67 0.67 -0.34 0.34 0 0 Z " fill="#A3A3A8" transform="translate(155,167)"/>
<path d="M0 0 C1.65 0 3.3 0 5 0 C6.46133311 4.64651427 5.39260421 7.39346788 3.5625 11.8125 C3.08941406 12.97394531 2.61632812 14.13539062 2.12890625 15.33203125 C1.75636719 16.21246094 1.38382812 17.09289062 1 18 C-0.65 18 -2.3 18 -4 18 C-5.68550367 14.62899267 -3.68863036 11.27985368 -2.5625 7.875 C-2.19801758 6.74384766 -2.19801758 6.74384766 -1.82617188 5.58984375 C-1.22404181 3.72442121 -0.61286537 1.86192317 0 0 Z " fill="#D6EBF3" transform="translate(96,69)"/>
<path d="M0 0 C1.98 0 3.96 0 6 0 C6 5.61 6 11.22 6 17 C3.69 17 1.38 17 -1 17 C-0.67 11.39 -0.34 5.78 0 0 Z " fill="#D7EBF3" transform="translate(109,49)"/>
<path d="M0 0 C0.33 0 0.66 0 1 0 C0.97679687 1.12277344 0.95359375 2.24554688 0.9296875 3.40234375 C0.8170538 11.28318269 0.95644311 18.33666165 3 26 C3.125 29.0625 3.125 29.0625 3 31 C2.34 31 1.68 31 1 31 C-2.43807955 24.86162621 -3.34884965 19.59194032 -2.875 12.6875 C-2.82867432 12.00623047 -2.78234863 11.32496094 -2.73461914 10.62304688 C-2.38501716 6.76366872 -1.64289241 3.5098156 0 0 Z " fill="#8A8D92" transform="translate(42,53)"/>
<path d="M0 0 C0.12375 0.53625 0.2475 1.0725 0.375 1.625 C0.684375 2.800625 0.684375 2.800625 1 4 C1.2475 5.03125 1.495 6.0625 1.75 7.125 C2.71840973 10.19354687 2.71840973 10.19354687 5.5 11.25 C6.325 11.4975 7.15 11.745 8 12 C8.66 12.66 9.32 13.32 10 14 C2.78164826 14.61172472 2.78164826 14.61172472 -0.875 11.75 C-3.54463595 8.295177 -5 6.39516531 -5 2 C-3.35 1.34 -1.7 0.68 0 0 Z " fill="#747277" transform="translate(149,171)"/>
<path d="M0 0 C4.25809108 1.74805844 5.42315316 3.91268904 7.31640625 7.95703125 C8.20234642 10.60472672 7.97365381 12.40358984 7 15 C4.67527795 12.14693203 3.2491742 9.45925163 2 6 C0.35 6.33 -1.3 6.66 -3 7 C-3.66 6.01 -4.32 5.02 -5 4 C-3.35 2.68 -1.7 1.36 0 0 Z " fill="#838386" transform="translate(161,162)"/>
<path d="M0 0 C4.26525609 4.0208514 7.71504127 8.41207085 11.1875 13.125 C11.98704102 14.19814453 11.98704102 14.19814453 12.80273438 15.29296875 C14.93382103 18.16122375 17.01725503 21.02588255 19 24 C17.02 24.99 17.02 24.99 15 26 C14.75507813 25.44054687 14.51015625 24.88109375 14.2578125 24.3046875 C11.25961105 17.87406231 7.53456364 12.30914017 3.30322266 6.64794922 C0 2.19328184 0 2.19328184 0 0 Z " fill="#5EA834" transform="translate(141,140)"/>
<path d="M0 0 C0.33 1.32 0.66 2.64 1 4 C-0.42859407 5.03325986 -1.86822383 6.05127634 -3.3125 7.0625 C-4.51326172 7.91521484 -4.51326172 7.91521484 -5.73828125 8.78515625 C-6.48464844 9.18605469 -7.23101562 9.58695313 -8 10 C-8.99 9.67 -9.98 9.34 -11 9 C-5.9059081 1.31509847 -5.9059081 1.31509847 -2.125 0 C-1.42375 0 -0.7225 0 0 0 Z " fill="#949698" transform="translate(122,111)"/>
<path d="M0 0 C0.474375 0.66 0.94875 1.32 1.4375 2 C3.2788361 4.3569102 4.20008848 4.34668731 7 5 C7.33 5.99 7.66 6.98 8 8 C7.01 8.33 6.02 8.66 5 9 C4.67 8.34 4.34 7.68 4 7 C2.35 7 0.7 7 -1 7 C-1.33 5.02 -1.66 3.04 -2 1 C-3.32 0.67 -4.64 0.34 -6 0 C-3 -1 -3 -1 0 0 Z " fill="#7D7E7D" transform="translate(118,105)"/>
<path d="M0 0 C-2.94289954 2.94289954 -5.11473658 2.97327103 -9.234375 3.09765625 C-10.39453125 3.08605469 -11.5546875 3.07445313 -12.75 3.0625 C-13.92046875 3.05347656 -15.0909375 3.04445313 -16.296875 3.03515625 C-17.18890625 3.02355469 -18.0809375 3.01195313 -19 3 C-19 2.34 -19 1.68 -19 1 C-16.39674384 0.63752129 -13.79279598 0.28472345 -11.1875 -0.0625 C-10.44951172 -0.16626953 -9.71152344 -0.27003906 -8.95117188 -0.37695312 C-5.56825221 -0.82086566 -3.27944975 -1.09314992 0 0 Z " fill="#909094" transform="translate(94,103)"/>
<path d="M0 0 C2.54668117 1.22240696 4.93979337 2.55691459 7.375 4 C10.47372359 5.79364562 13.55379509 6.99135466 17 8 C16.67 8.66 16.34 9.32 16 10 C11.03437847 9.53401792 8.42325039 8.19372405 4.625 5 C3.75101563 4.278125 2.87703125 3.55625 1.9765625 2.8125 C1.32429688 2.214375 0.67203125 1.61625 0 1 C0 0.67 0 0.34 0 0 Z " fill="#47433F" transform="translate(50,101)"/>
<path d="M0 0 C4.18441341 1.39480447 5.50674116 4.36739247 7.75 7.9375 C8.17410156 8.58396484 8.59820312 9.23042969 9.03515625 9.89648438 C10.09285685 11.55538613 11.05468148 13.27458455 12 15 C11.67 15.66 11.34 16.32 11 17 C9.3459856 14.92272602 7.70180656 12.83882992 6.0625 10.75 C5.59392578 10.16347656 5.12535156 9.57695313 4.64257812 8.97265625 C2.32647685 6.00671361 0.73252745 3.68717165 0 0 Z " fill="#5CA834" transform="translate(124,116)"/>
<path d="M0 0 C5.61 0.33 11.22 0.66 17 1 C17 1.33 17 1.66 17 2 C13.04 2 9.08 2 5 2 C5 2.66 5 3.32 5 4 C2.69 3.67 0.38 3.34 -2 3 C-1.34 2.67 -0.68 2.34 0 2 C0 1.34 0 0.68 0 0 Z " fill="#9DA4AC" transform="translate(70,102)"/>
<path d="M0 0 C1.32 0 2.64 0 4 0 C4.33 1.65 4.66 3.3 5 5 C4.01 5.66 3.02 6.32 2 7 C0 4 0 4 0 0 Z " fill="#A2A1A6" transform="translate(112,106)"/>
<path d="M0 0 C0.33 0 0.66 0 1 0 C1.21192221 5.19209404 0.5912689 9.126739 -1 14 C-1.33 14 -1.66 14 -2 14 C-2.3690205 4.58997722 -2.3690205 4.58997722 0 0 Z " fill="#82888D" transform="translate(42,53)"/>
<path d="M0 0 C0.99 0 1.98 0 3 0 C5.1875 3 5.1875 3 7 6 C5.02 6.99 5.02 6.99 3 8 C0 2.25 0 2.25 0 0 Z " fill="#4AA03B" transform="translate(153,158)"/>
<path d="M0 0 C2 4 2 4 1.5390625 6.140625 C1.23742187 6.83671875 0.93578125 7.5328125 0.625 8.25 C0.32851562 8.95640625 0.03203125 9.6628125 -0.2734375 10.390625 C-0.51320313 10.92171875 -0.75296875 11.4528125 -1 12 C-1.66 11.67 -2.32 11.34 -3 11 C-2.01 7.37 -1.02 3.74 0 0 Z " fill="#979BA1" transform="translate(120,72)"/>
<path d="M0 0 C0.33 0 0.66 0 1 0 C0.67 2.97 0.34 5.94 0 9 C-0.99 9 -1.98 9 -3 9 C-2.01 6.03 -1.02 3.06 0 0 Z " fill="#A4A3A8" transform="translate(126,73)"/>
<path d="M0 0 C6.57142857 5 6.57142857 5 8 10 C7.01 10.495 7.01 10.495 6 11 C5.18357746 9.73168307 4.37200895 8.46024069 3.5625 7.1875 C3.11003906 6.47980469 2.65757813 5.77210937 2.19140625 5.04296875 C1 3 1 3 0 0 Z " fill="#5E5856" transform="translate(118,33)"/>
<path d="M0 0 C0.33 1.32 0.66 2.64 1 4 C0.21625 3.814375 -0.5675 3.62875 -1.375 3.4375 C-3.97089775 2.74037734 -3.97089775 2.74037734 -6 4 C-5.67 3.01 -5.34 2.02 -5 1 C-3.35 0.67 -1.7 0.34 0 0 Z " fill="#8D8E91" transform="translate(122,111)"/>
<path d="M0 0 C1.74627478 2.61941217 2.38722388 4.03824877 3 7 C2.01 7 1.02 7 0 7 C-0.66 5.35 -1.32 3.7 -2 2 C-1.34 1.34 -0.68 0.68 0 0 Z " fill="#8E8E92" transform="translate(111,107)"/>
<path d="M0 0 C0.33 1.32 0.66 2.64 1 4 C-0.32 4.33 -1.64 4.66 -3 5 C-3.66 4.01 -4.32 3.02 -5 2 C-3.35 1.34 -1.7 0.68 0 0 Z " fill="#7B7B7F" transform="translate(149,171)"/>
<path d="M0 0 C1.1875 2.0625 1.1875 2.0625 2 4 C1.01 4.66 0.02 5.32 -1 6 C-1.33 4.35 -1.66 2.7 -2 1 C-3.32 0.67 -4.64 0.34 -6 0 C-3 -1 -3 -1 0 0 Z " fill="#838286" transform="translate(118,105)"/>
</svg>
