<?xml version="1.0" encoding="UTF-8"?>
<svg version="1.1" xmlns="http://www.w3.org/2000/svg" width="200" height="200">
<path d="M0 0 C10.48607979 11.08103467 15.65971997 24.75103949 16.015625 39.8359375 C15.53202839 42.3787197 14.66568116 43.14464866 12.65234375 44.74609375 C10.52681732 45.1292038 10.52681732 45.1292038 8.02185059 45.14050293 C7.07126266 45.15185272 6.12067474 45.16320251 5.14128113 45.17489624 C4.10014664 45.17196564 3.05901215 45.16903503 1.98632812 45.16601562 C0.88855545 45.17448517 -0.20921722 45.18295471 -1.34025574 45.19168091 C-4.97825624 45.21512946 -8.61583582 45.21607124 -12.25390625 45.21484375 C-14.77592134 45.22194 -17.2979348 45.2296382 -19.81994629 45.23791504 C-25.10934567 45.25137757 -30.39858876 45.25310089 -35.68798828 45.24707031 C-41.80428962 45.24042544 -47.9199885 45.26331 -54.03616762 45.30038404 C-59.91856262 45.33474859 -65.80077123 45.34142063 -71.68327332 45.33729553 C-74.18720801 45.33899334 -76.69115017 45.34869875 -79.19502258 45.36643982 C-82.69105335 45.38848572 -86.18561643 45.3789998 -89.68164062 45.36132812 C-90.72277512 45.37459137 -91.76390961 45.38785461 -92.83659363 45.40151978 C-95.43832633 45.3708416 -97.80770219 45.30891152 -100.34765625 44.74609375 C-102.80435799 42.04175803 -103.2752174 40.65355493 -103.5625 37.0546875 C-101.94655615 20.3262547 -95.29192925 6.66449206 -82.34765625 -4.25390625 C-59.30420096 -21.48841037 -21.10503886 -19.11868226 0 0 Z " fill="#010000" transform="translate(144.34765625,125.25390625)"/>
<path d="M0 0 C8.16113828 5.69636497 13.40637865 13.88650337 15.578125 23.5625 C16.73720991 34.65901435 16.43362121 44.9566518 9.66015625 54.171875 C2.30585411 62.97100464 -6.38948175 68.80836701 -18 69.8984375 C-31.14480633 70.03827587 -40.60534312 67.1069948 -50.10546875 57.9375 C-58.14910502 49.27203649 -60.00041577 39.19713509 -59.76171875 27.75 C-59.14827389 16.55017683 -52.90635505 8.62509697 -44.984375 1.3125 C-31.43867218 -7.93822388 -14.12616493 -8.38456241 0 0 Z " fill="#020100" transform="translate(122.421875,36.4375)"/>
<path d="M0 0 C1.19818359 -0.01224609 2.39636719 -0.02449219 3.63085938 -0.03710938 C17.00407976 -0.05921387 26.87039332 3.08665602 36.8359375 12.23828125 C43.65004832 19.4117861 47.6875 27.23014663 47.6875 37.1875 C16.3375 37.1875 -15.0125 37.1875 -47.3125 37.1875 C-46.1389297 26.62536727 -42.91132604 18.78632604 -35.3125 11.1875 C-23.74831279 2.05060806 -14.5396097 0.0077462 0 0 Z " fill="#C88D23" transform="translate(100.3125,121.8125)"/>
<path d="M0 0 C6.87173358 3.65815022 12.05693138 8.56068482 14.5546875 16.1171875 C16.01170164 24.23483773 15.71506647 31.8131595 11.55078125 39.02734375 C7.1176077 45.13503322 1.44588072 49.78209858 -6.0625 51.25 C-14.48001112 52.28761564 -21.09888363 51.22573281 -28.0625 46.25 C-33.93038566 41.05747476 -37.60908473 35.37651779 -38.3046875 27.51171875 C-38.50123796 19.44223045 -37.07953402 13.71933334 -32.0625 7.25 C-23.14076239 -1.67173761 -12.29956637 -5.25057119 0 0 Z " fill="#C88C23" transform="translate(112.0625,43.75)"/>
</svg>
