<?xml version="1.0" encoding="iso-8859-1"?>
<!-- Generator: Adobe Illustrator 27.2.0, SVG Export Plug-In . SVG Version: 6.00 Build 0)  -->
<svg version="1.1" id="Capa_1" xmlns="http://www.w3.org/2000/svg" xmlns:xlink="http://www.w3.org/1999/xlink" x="0px" y="0px"
	 viewBox="0 0 510 510" style="enable-background:new 0 0 510 510;" xml:space="preserve">
<g>
	<g>
		<path style="fill:#FFFFFF;" d="M75.333,108l98-98c0,0,158.562,0,228.667,0c8.664,0,16.973,3.438,23.099,9.571
			c6.127,6.125,9.568,14.431,9.568,23.095c0,89.09,0,335.577,0,424.667c0,8.665-3.441,16.97-9.568,23.095
			C418.973,496.562,410.664,500,402,500c-68.331,0-225.669,0-294,0c-18.041,0-32.667-14.627-32.667-32.667
			C75.333,373.188,75.333,108,75.333,108z"/>
		<path style="fill:#D2DCFD;" d="M116.64,111.155c0-16.217,1.341-32.119,3.879-47.619l-44.533,44.532c0,0,0,265.188,0,359.333
			c0,18.04,14.626,32.667,32.667,32.667c68.331,0,225.669,0,294,0c8.664,0,16.973-3.438,23.099-9.571
			c6.127-6.125,9.568-14.431,9.568-23.095c0-16.751,0-39.067,0-64.854c-8.605,0.761-17.311,1.173-26.114,1.173
			C247.626,403.72,116.64,272.734,116.64,111.155z"/>
		<path style="fill:#D2DCFD;" d="M157,124.333c18.041,0,32.667-14.627,32.667-32.667c0-33.794,0-81.667,0-81.667
			c-10.274,0-16.333,0-16.333,0l-98,98c0,0,0,5.934,0,16.333l0,0C75.333,124.333,123.21,124.333,157,124.333z"/>
		<circle style="fill:#FD6050;" cx="255" cy="285.498" r="98"/>
	</g>
	<g>
		<path style="fill:#052A75;" d="M432.174,12.504C424.119,4.441,413.403,0,402,0H173.333c-2.652,0-5.195,1.054-7.071,2.929l-98,98
			c-1.875,1.875-2.929,4.419-2.929,7.071v359.334C65.333,490.86,84.474,510,108,510h294c11.403,0,22.119-4.441,30.169-12.499
			c8.06-8.057,12.498-18.771,12.498-30.167V42.667C444.667,31.27,440.228,20.556,432.174,12.504z M177.476,20h2.191v71.667
			c0,12.498-10.168,22.667-22.667,22.667H85.333v-2.191L177.476,20z M424.667,467.334c0,6.053-2.357,11.744-6.644,16.028
			C413.748,487.643,408.057,490,402,490H108c-12.499,0-22.667-10.168-22.667-22.666v-333H157c23.526,0,42.667-19.14,42.667-42.667
			V20H402c6.057,0,11.748,2.357,16.028,6.644c4.281,4.279,6.639,9.97,6.639,16.023V467.334z"/>
		<path style="fill:#052A75;" d="M255,393.498c-59.552,0-108-48.449-108-108c0-59.551,48.448-108,108-108s108,48.449,108,108
			C363,345.049,314.552,393.498,255,393.498z M255,197.498c-48.523,0-88,39.477-88,88c0,48.524,39.477,88,88,88s88-39.476,88-88
			C343,236.975,303.523,197.498,255,197.498z"/>
		<path style="fill:#052A75;" d="M269.143,285.498l16.024-16.024c3.905-3.905,3.905-10.237,0-14.142
			c-3.905-3.905-10.235-3.905-14.143,0L255,271.356l-16.024-16.024c-3.906-3.905-10.236-3.905-14.143,0
			c-3.905,3.905-3.905,10.237,0,14.142l16.024,16.024l-16.024,16.024c-3.905,3.905-3.905,10.237,0,14.142
			c1.953,1.953,4.512,2.929,7.071,2.929c2.559,0,5.118-0.977,7.071-2.929L255,299.641l16.024,16.024
			c1.953,1.953,4.512,2.929,7.071,2.929s5.118-0.977,7.071-2.929c3.905-3.905,3.905-10.237,0-14.142L269.143,285.498z"/>
	</g>
</g>
<g>
</g>
<g>
</g>
<g>
</g>
<g>
</g>
<g>
</g>
<g>
</g>
<g>
</g>
<g>
</g>
<g>
</g>
<g>
</g>
<g>
</g>
<g>
</g>
<g>
</g>
<g>
</g>
<g>
</g>
</svg>
