<?xml version="1.0" encoding="iso-8859-1"?>
<!-- Generator: Adobe Illustrator 27.2.0, SVG Export Plug-In . SVG Version: 6.00 Build 0)  -->
<svg version="1.1" id="Capa_1" xmlns="http://www.w3.org/2000/svg" xmlns:xlink="http://www.w3.org/1999/xlink" x="0px" y="0px"
	 viewBox="0 0 509.516 509.516" style="enable-background:new 0 0 509.516 509.516;" xml:space="preserve">
<g>
	<g>
		<g>
			<path style="fill:#FFFFFF;" d="M77.007,360.248c-7.819,37.074-33.239,67.594-67.032,82.262l-0.002,0.002
				c16.764,19.276,41.38,31.448,68.817,31.448c28.037,0,53.127-12.709,69.903-32.719c36.08,24.932,79.756,39.519,126.813,39.519
				c123.969,0,224.466-101.242,224.466-226.131S399.476,28.498,275.507,28.498S51.041,129.741,51.041,254.629
				c0,38.155,9.38,74.103,25.944,105.631L77.007,360.248z"/>
			<path style="fill:#FFFFFF;" d="M275.506,482.26c-45.399,0-89.126-13.487-126.547-39.018
				c-17.69,20.493-43.185,32.217-70.169,32.217c-26.788,0-52.284-11.65-69.949-31.963l-1.025-1.179l1.376-1.102l0.186-0.082
				c33.624-14.595,58.275-44.707,66.041-80.63c-16.932-32.409-25.878-69.006-25.878-105.874c0-60.8,23.503-117.962,66.18-160.956
				c42.68-42.996,99.426-66.675,159.786-66.675s117.106,23.679,159.786,66.675c42.677,42.994,66.18,100.155,66.18,160.956
				s-23.503,117.962-66.18,160.956C392.613,458.581,335.866,482.26,275.506,482.26z M148.422,439.23l1.124,0.777
				c37.164,25.68,80.72,39.254,125.96,39.254c122.944,0,222.966-100.769,222.966-224.631S398.45,29.998,275.506,29.998
				S52.541,130.767,52.541,254.629c0,36.054,8.667,71.842,25.081,103.607l1.487-0.776l-0.633,3.098
				c-7.687,36.445-32.295,67.135-66.018,82.49c17.031,18.718,41.089,29.412,66.333,29.412c26.547,0,51.606-11.73,68.754-32.183
				L148.422,439.23z"/>
		</g>
		<path style="fill:#D2DCFD;" d="M153.334,262.055c0-93.742,42.534-177.542,109.345-233.181
			C144.68,35.573,51.041,134.079,51.041,254.629c0,38.155,9.38,74.103,25.944,105.631l0.022-0.012
			c-7.819,37.074-33.239,67.594-67.032,82.262l-0.002,0.002c16.764,19.276,41.38,31.448,68.817,31.448
			c28.037,0,53.127-12.709,69.903-32.719c27.953,19.315,60.467,32.416,95.578,37.341
			C188.159,423.536,153.334,346.868,153.334,262.055z"/>
		<circle style="fill:#D63B78;" cx="275.507" cy="254.629" r="123.128"/>
	</g>
	<g>
		<path style="fill:#052A75;" d="M275.506,387.758c-73.407,0-133.128-59.721-133.128-133.128s59.721-133.128,133.128-133.128
			s133.128,59.721,133.128,133.128S348.914,387.758,275.506,387.758z M275.506,141.501c-62.379,0-113.128,50.749-113.128,113.128
			s50.749,113.128,113.128,113.128c62.379,0,113.128-50.749,113.128-113.128S337.886,141.501,275.506,141.501z"/>
		<g>
			<path style="fill:#052A75;" d="M441.325,87.686C354.035-3.95,196.974-3.955,109.688,87.689
				C38.309,157.61,20.611,272.962,66.445,361.575c-7.852,31.981-30.235,58.646-60.451,71.761c-0.001,0-0.001,0.001-0.002,0.001
				c-6.119,2.562-7.983,10.781-3.564,15.736c37.08,44.04,107.919,46.504,147.851,5.219c89.647,58.816,216.531,44.813,291.047-32.723
				C532.245,333.693,532.249,175.564,441.325,87.686z M275.506,470.76c-43.517,0.001-85.41-13.062-121.154-37.763
				c-1.243-0.842-2.666-1.428-4.155-1.634c-2.703-0.442-5.548,0.334-7.696,2.024c-28.422,35.121-81.005,41.046-115.6,11.749
				c30.525-17.721,52.502-47.791,59.891-82.824c0.53-2.513,0.056-4.999-1.135-7.06C10.309,214.212,115.613,37.107,275.509,38.5
				C560.004,50.34,559.946,458.95,275.506,470.76z"/>
			<path style="fill:#052A75;" d="M289.649,254.629l35.19-35.19c3.905-3.905,3.905-10.237,0-14.142
				c-3.906-3.906-10.237-3.904-14.142-0.001l-35.191,35.191l-35.191-35.191c-3.905-3.905-10.237-3.905-14.143,0.001
				c-3.905,3.905-3.905,10.237,0.001,14.142l35.191,35.19l-35.191,35.19c-3.905,3.905-3.906,10.237-0.001,14.142
				c1.953,1.953,4.512,2.929,7.071,2.929c2.559,0,5.119-0.977,7.071-2.929l35.191-35.191l35.191,35.191
				c1.952,1.953,4.512,2.929,7.071,2.929s5.119-0.977,7.071-2.929c3.905-3.905,3.905-10.237,0-14.142L289.649,254.629z"/>
		</g>
	</g>
</g>
<g>
</g>
<g>
</g>
<g>
</g>
<g>
</g>
<g>
</g>
<g>
</g>
<g>
</g>
<g>
</g>
<g>
</g>
<g>
</g>
<g>
</g>
<g>
</g>
<g>
</g>
<g>
</g>
<g>
</g>
</svg>
