<?xml version="1.0" encoding="iso-8859-1"?>
<!-- Generator: Adobe Illustrator 27.2.0, SVG Export Plug-In . SVG Version: 6.00 Build 0)  -->
<svg version="1.1" id="Capa_1" xmlns="http://www.w3.org/2000/svg" xmlns:xlink="http://www.w3.org/1999/xlink" x="0px" y="0px"
	 viewBox="0 0 510 510" style="enable-background:new 0 0 510 510;" xml:space="preserve">
<g>
	<g>
		<g>
			<g>
				<g>
					<path style="fill:#FFFFFF;" d="M77.034,360.619c-7.819,37.074-33.239,67.594-67.032,82.262L10,442.883
						c16.764,19.276,41.38,31.448,68.817,31.448c28.037,0,53.127-12.709,69.903-32.719c36.08,24.932,79.756,39.519,126.813,39.519
						C399.503,481.131,500,379.889,500,255S399.503,28.869,275.534,28.869S51.068,130.111,51.068,255
						c0,38.155,9.38,74.103,25.944,105.631L77.034,360.619z"/>
					<path style="fill:#FFFFFF;" d="M275.534,482.631c-45.399,0-89.126-13.487-126.547-39.018
						c-17.69,20.493-43.185,32.217-70.169,32.217c-26.788,0-52.284-11.65-69.949-31.963l-1.025-1.179l1.376-1.102l0.186-0.081
						c33.624-14.595,58.275-44.708,66.04-80.63C58.514,328.465,49.568,291.868,49.568,255c0-60.8,23.503-117.962,66.18-160.956
						c42.68-42.996,99.426-66.675,159.786-66.675S392.64,51.048,435.32,94.044C477.997,137.038,501.5,194.2,501.5,255
						s-23.503,117.962-66.18,160.956C392.64,458.952,335.894,482.631,275.534,482.631z M148.449,439.601l1.124,0.777
						c37.164,25.68,80.72,39.253,125.96,39.253C398.478,479.631,498.5,378.862,498.5,255S398.478,30.369,275.534,30.369
						S52.568,131.138,52.568,255c0,36.054,8.667,71.842,25.08,103.607l1.487-0.776l-0.633,3.098
						c-7.687,36.445-32.295,67.135-66.018,82.49c17.031,18.718,41.089,29.412,66.333,29.412c26.547,0,51.606-11.73,68.754-32.183
						L148.449,439.601z"/>
				</g>
			</g>
			<path style="fill:#D2DCFD;" d="M153.362,262.426c0-93.742,42.534-177.542,109.345-233.181
				C144.708,35.944,51.068,134.45,51.068,255c0,38.155,9.38,74.103,25.944,105.631l0.022-0.012
				c-7.819,37.074-33.239,67.594-67.032,82.262L10,442.883c16.764,19.276,41.38,31.448,68.817,31.448
				c28.037,0,53.127-12.709,69.903-32.719c27.953,19.315,60.467,32.416,95.578,37.341
				C188.187,423.907,153.362,347.239,153.362,262.426z"/>
		</g>
		<circle style="fill:#B1D952;" cx="275.534" cy="255" r="123.128"/>
	</g>
	<g>
		<path style="fill:#052A75;" d="M275.534,388.128c-73.407,0-133.128-59.721-133.128-133.128s59.721-133.128,133.128-133.128
			S408.662,181.593,408.662,255S348.941,388.128,275.534,388.128z M275.534,141.872c-62.379,0-113.128,50.749-113.128,113.128
			s50.749,113.128,113.128,113.128c62.379,0,113.128-50.749,113.128-113.128S337.913,141.872,275.534,141.872z"/>
		<g>
			<g>
				<g>
					<path style="fill:#052A75;" d="M275.534,491.131c-44.665,0-87.773-12.581-125.224-36.462
						c-18.946,18.952-44.537,29.662-71.493,29.662c-29.249,0-57.082-12.715-76.363-34.885c-1.787-2.055-2.659-4.75-2.414-7.462
						s1.586-5.208,3.712-6.909c0.691-0.553,1.456-1.014,2.268-1.367c30.201-13.109,52.582-39.755,60.444-71.715
						C49.839,329.077,41.068,292.169,41.068,255c0-63.059,24.379-122.347,68.647-166.943
						c44.288-44.616,103.176-69.188,165.818-69.188S397.065,43.44,441.353,88.057C485.621,132.653,510,191.941,510,255
						s-24.379,122.347-68.648,166.943C397.065,466.56,338.176,491.131,275.534,491.131z M148.727,431.611
						c1.967,0,3.95,0.579,5.679,1.773c35.737,24.694,77.622,37.747,121.128,37.747C393.791,471.131,490,374.175,490,255
						S393.791,38.869,275.534,38.869C157.277,38.869,61.068,135.825,61.068,255c0,34.997,8.483,69.731,24.538,100.488
						c1.274,2.123,1.742,4.684,1.212,7.195c-7.389,35.033-29.359,65.109-59.885,82.83c14.503,12.077,32.822,18.818,51.883,18.818
						c24.026,0,46.712-10.623,62.24-29.144C143.025,432.84,145.86,431.611,148.727,431.611z"/>
				</g>
			</g>
			<path style="fill:#052A75;" d="M260.567,303.171c-4.239,0-8.224-1.651-11.221-4.648l-32.49-32.49
				c-3.905-3.905-3.905-10.237,0-14.143c3.905-3.905,10.237-3.905,14.142,0l29.568,29.568l59.503-59.503
				c3.905-3.904,10.236-3.905,14.142,0c3.905,3.905,3.905,10.237,0,14.143l-62.425,62.424
				C268.791,301.52,264.806,303.171,260.567,303.171z"/>
		</g>
	</g>
</g>
<g>
</g>
<g>
</g>
<g>
</g>
<g>
</g>
<g>
</g>
<g>
</g>
<g>
</g>
<g>
</g>
<g>
</g>
<g>
</g>
<g>
</g>
<g>
</g>
<g>
</g>
<g>
</g>
<g>
</g>
</svg>
