<?xml version="1.0" encoding="iso-8859-1"?>
<!-- Generator: Adobe Illustrator 27.2.0, SVG Export Plug-In . SVG Version: 6.00 Build 0)  -->
<svg version="1.1" id="Capa_1" xmlns="http://www.w3.org/2000/svg" xmlns:xlink="http://www.w3.org/1999/xlink" x="0px" y="0px"
	 viewBox="0 0 509.516 509.516" style="enable-background:new 0 0 509.516 509.516;" xml:space="preserve">
<g>
	<g>
		<g>
			<path style="fill:#FFFFFF;" d="M77.007,360.248c-7.819,37.074-33.239,67.594-67.032,82.262l-0.002,0.002
				c16.764,19.276,41.38,31.448,68.817,31.448c28.037,0,53.127-12.709,69.903-32.719c36.08,24.932,79.756,39.519,126.813,39.519
				c123.969,0,224.466-101.242,224.466-226.131S399.476,28.498,275.506,28.498S51.04,129.74,51.04,254.629
				c0,38.155,9.38,74.103,25.944,105.631L77.007,360.248z"/>
			<path style="fill:#FFFFFF;" d="M275.507,482.26c-45.4,0-89.127-13.487-126.548-39.018
				c-17.689,20.493-43.184,32.217-70.169,32.217c-26.788,0-52.283-11.65-69.949-31.963l-0.918-1.056l1.19-1.191l0.264-0.116
				c33.625-14.595,58.276-44.707,66.042-80.63c-16.933-32.41-25.879-69.007-25.879-105.874c0-60.8,23.503-117.962,66.18-160.956
				c42.681-42.996,99.427-66.675,159.787-66.675c60.359,0,117.106,23.679,159.786,66.675c42.677,42.994,66.18,100.155,66.18,160.956
				s-23.503,117.962-66.18,160.956C392.613,458.581,335.866,482.26,275.507,482.26z M148.422,439.23l1.124,0.777
				c37.163,25.68,80.72,39.254,125.961,39.254c122.943,0,222.966-100.769,222.966-224.631S398.45,29.998,275.507,29.998
				c-122.944,0-222.967,100.769-222.967,224.631c0,36.053,8.668,71.842,25.081,103.607l1.486-0.776l-0.633,3.098
				c-7.687,36.445-32.294,67.135-66.018,82.49c17.03,18.718,41.089,29.412,66.333,29.412c26.547,0,51.606-11.73,68.754-32.183
				L148.422,439.23z"/>
		</g>
		<path style="fill:#FDCB50;" d="M323.762,373.827h-96.511c-19.998,0-36.21-16.212-36.21-36.21V231.069
			c0-3.226,2.615-5.842,5.842-5.842h157.248c3.226,0,5.842,2.615,5.842,5.842v106.548
			C359.972,357.615,343.76,373.827,323.762,373.827z"/>
		<path style="fill:#D2DCFD;" d="M153.334,262.055c0-93.742,42.534-177.542,109.345-233.181
			C144.68,35.573,51.04,134.079,51.04,254.629c0,38.155,9.38,74.103,25.944,105.631l0.022-0.012
			c-7.819,37.074-33.239,67.594-67.032,82.262l-0.002,0.002c16.764,19.276,41.38,31.448,68.817,31.448
			c28.037,0,53.127-12.709,69.903-32.719c27.953,19.315,60.467,32.416,95.578,37.341
			C188.159,423.536,153.334,346.868,153.334,262.055z"/>
	</g>
	<g>
		<path style="fill:#052A75;" d="M441.325,87.686C354.034-3.951,196.974-3.955,109.687,87.688
			C38.309,157.61,20.61,272.961,66.444,361.575c-7.852,31.981-30.235,58.647-60.451,71.762c-0.002,0.001-0.003,0.002-0.005,0.003
			c-6.117,2.557-7.977,10.786-3.561,15.735c37.081,44.04,107.919,46.504,147.852,5.22c89.646,58.816,216.531,44.813,291.046-32.723
			C532.244,333.693,532.249,175.564,441.325,87.686z M275.507,470.76c-43.517,0.001-85.409-13.061-121.152-37.761
			c-1.368-0.941-2.96-1.517-4.606-1.704c-2.574-0.267-5.216,0.491-7.25,2.094c-28.421,35.12-81.005,41.042-115.598,11.747
			c30.525-17.721,52.502-47.791,59.891-82.824c0.53-2.514,0.056-5.001-1.137-7.063C10.309,214.208,115.614,37.107,275.509,38.5
			C560.003,50.34,559.946,458.949,275.507,470.76z"/>
		<path style="fill:#052A75;" d="M354.131,215.227h-22.709v-46.081c0-30.832-25.083-55.915-55.915-55.915
			c-30.832,0-55.915,25.083-55.915,55.915c0,5.523,4.478,10,10,10c5.523,0,10-4.477,10-10c0-19.803,16.111-35.915,35.915-35.915
			s35.915,16.111,35.915,35.915v46.081H196.883c-8.735,0-15.842,7.106-15.842,15.842v106.548c0,25.48,20.729,46.21,46.21,46.21
			h96.512c25.48,0,46.21-20.73,46.21-46.21V231.069C369.972,222.334,362.866,215.227,354.131,215.227z M349.972,337.617
			c0,14.453-11.758,26.21-26.21,26.21h-96.512c-14.452,0-26.21-11.758-26.21-26.21v-102.39h148.932V337.617z"/>
		<path style="fill:#052A75;" d="M275.507,324.868c-5.522,0-10-4.477-10-10v-30.681c0-5.523,4.478-10,10-10c5.522,0,10,4.477,10,10
			v30.681C285.507,320.391,281.029,324.868,275.507,324.868z"/>
	</g>
</g>
<g>
</g>
<g>
</g>
<g>
</g>
<g>
</g>
<g>
</g>
<g>
</g>
<g>
</g>
<g>
</g>
<g>
</g>
<g>
</g>
<g>
</g>
<g>
</g>
<g>
</g>
<g>
</g>
<g>
</g>
</svg>
