<?xml version="1.0" encoding="iso-8859-1"?>
<!-- Generator: Adobe Illustrator 27.2.0, SVG Export Plug-In . SVG Version: 6.00 Build 0)  -->
<svg version="1.1" id="Capa_1" xmlns="http://www.w3.org/2000/svg" xmlns:xlink="http://www.w3.org/1999/xlink" x="0px" y="0px"
	 viewBox="0 0 510 510" style="enable-background:new 0 0 510 510;" xml:space="preserve">
<g>
	<g>
		<path style="fill:#FFFFFF;" d="M336.666,320.333c0,0,0-24.5,0-49c0-27.062,21.938-49,49-49c0,0,0-120.121,0-179.667
			c0-8.664-3.442-16.973-9.568-23.099C369.973,13.441,361.664,10,353,10c-70.104,0-228.667,0-228.667,0l-98,98
			c0,0,0,265.191,0,359.333C26.333,485.374,40.959,500,59,500c70.104,0,228.667,0,228.667,0V320.333H336.666z"/>
		<path style="fill:#D2DCFD;" d="M26.333,108c0,0,0,5.934,0,16.333c0,0,47.876,0,81.667,0c18.041,0,32.667-14.626,32.667-32.667
			c0-33.79,0-81.667,0-81.667c-10.274,0-16.333,0-16.333,0L26.333,108z"/>
		<path style="fill:#D2DCFD;" d="M287.666,320.333h49c0,0,0-24.5,0-49c0-0.335,0.019-0.666,0.025-1h-49.025
			c-27.614,0-50,22.386-50,50V500c29.507,0,50,0,50,0V320.333z"/>
		<rect x="287.666" y="320.333" style="fill:#FD8F01;" width="196" height="179.667"/>
	</g>
	<g>
		<path style="fill:#052A75;" d="M271.333,216H108c-5.523,0-10-4.477-10-10c0-5.523,4.477-10,10-10h163.333c5.522,0,10,4.477,10,10
			C281.333,211.523,276.855,216,271.333,216z"/>
		<path style="fill:#052A75;" d="M206,281.333h-98c-5.523,0-10-4.477-10-10c0-5.523,4.477-10,10-10h98c5.523,0,10,4.477,10,10
			C216,276.856,211.523,281.333,206,281.333z"/>
		<path style="fill:#052A75;" d="M206,346.667h-98c-5.523,0-10-4.477-10-10c0-5.523,4.477-10,10-10h98c5.523,0,10,4.477,10,10
			C216,342.19,211.523,346.667,206,346.667z"/>
		<path style="fill:#052A75;" d="M206,412h-98c-5.523,0-10-4.477-10-10s4.477-10,10-10h98c5.523,0,10,4.477,10,10
			S211.523,412,206,412z"/>
		<path style="fill:#052A75;" d="M385.667,444.667c-5.522,0-10-4.477-10-10v-49c0-5.523,4.478-10,10-10c5.523,0,10,4.477,10,10v49
			C395.667,440.19,391.189,444.667,385.667,444.667z"/>
		<path style="fill:#052A75;" d="M483.667,310.333h-137v-39c0-21.505,17.495-39,39-39c21.505,0,39,17.495,39,39
			c0,5.523,4.478,10,10,10c5.523,0,10-4.477,10-10c0-29.123-21.216-53.369-49-58.135V42.667c0-11.398-4.438-22.112-12.497-30.169
			C375.111,4.439,364.397,0,353,0H124.333c-2.652,0-5.196,1.054-7.071,2.929l-98,98c-1.875,1.875-2.929,4.419-2.929,7.071v359.333
			C16.333,490.86,35.473,510,59,510h228.667h196c5.523,0,10-4.477,10-10V320.333C493.667,314.811,489.189,310.333,483.667,310.333z
			 M128.475,20h2.191v71.667c0,12.498-10.168,22.667-22.666,22.667H36.333v-2.191L128.475,20z M277.667,320.333V490H59
			c-12.499,0-22.667-10.168-22.667-22.667v-333H108c23.526,0,42.666-19.14,42.666-42.667V20H353c6.055,0,11.747,2.358,16.028,6.64
			c4.281,4.28,6.639,9.972,6.639,16.027v170.532c-27.784,4.766-49,29.012-49,58.135v39h-39
			C282.144,310.333,277.667,314.811,277.667,320.333z M473.667,490h-176V330.333h176V490z"/>
	</g>
</g>
<g>
</g>
<g>
</g>
<g>
</g>
<g>
</g>
<g>
</g>
<g>
</g>
<g>
</g>
<g>
</g>
<g>
</g>
<g>
</g>
<g>
</g>
<g>
</g>
<g>
</g>
<g>
</g>
<g>
</g>
</svg>
