<?xml version="1.0" encoding="UTF-8"?>
<svg version="1.1" xmlns="http://www.w3.org/2000/svg" width="512" height="512">
<path d="M0 0 C4.16982767 1.05391249 6.97201414 3.73916561 10.1328125 6.5390625 C11.29103516 7.48458984 11.29103516 7.48458984 12.47265625 8.44921875 C42.97449325 34.22881242 57.70259311 76.4429985 63.74731445 114.60986328 C64.0592017 116.61124237 64.0592017 116.61124237 65.1328125 118.5390625 C65.95072266 118.21421875 65.95072266 118.21421875 66.78515625 117.8828125 C74.23498104 115.13210796 80.33369917 114.40937283 87.9140625 117.0625 C88.70876953 117.33755371 89.50347656 117.61260742 90.32226562 117.89599609 C90.91974609 118.10820801 91.51722656 118.32041992 92.1328125 118.5390625 C92.26816406 117.45753906 92.40351563 116.37601562 92.54296875 115.26171875 C98.24600757 73.19889774 115.88169426 32.05947186 148.37890625 3.84375 C152.26434632 0.95346719 155.42548846 0.02579783 160.2265625 0.16015625 C162.1328125 0.5390625 162.1328125 0.5390625 164.6328125 2.6640625 C166.40020554 6.05156583 166.7605582 7.7725883 166.1328125 11.5390625 C163.58939154 15.67212157 159.89151384 18.54531557 156.2578125 21.69140625 C155.5565625 22.30113281 154.8553125 22.91085938 154.1328125 23.5390625 C153.5140625 24.07660156 152.8953125 24.61414063 152.2578125 25.16796875 C140.68789678 35.94245276 132.45546721 50.19376318 126.1328125 64.5390625 C125.63056152 65.66538086 125.63056152 65.66538086 125.11816406 66.81445312 C117.42311551 84.31436636 109.75490416 105.18627038 110.1328125 124.5390625 C111.18404297 124.879375 112.23527344 125.2196875 113.31835938 125.5703125 C135.62240657 132.79472704 157.89691217 140.10084687 180.12960815 147.54208374 C191.23272308 151.25750847 202.34284642 154.94773806 213.48046875 158.55859375 C214.47412445 158.8808493 215.46778015 159.20310486 216.49154663 159.53512573 C221.21593238 161.06598046 225.94186362 162.5918552 230.66992188 164.11132812 C232.35678716 164.65619944 234.043637 165.20111862 235.73046875 165.74609375 C236.48240005 165.9860054 237.23433136 166.22591705 238.00904846 166.47309875 C250.99192811 170.6773156 250.99192811 170.6773156 254.0546875 174.40234375 C254.74800171 175.22714233 254.74800171 175.22714233 255.45532227 176.06860352 C255.92639404 176.65697998 256.39746582 177.24535645 256.8828125 177.8515625 C257.39448975 178.46894287 257.90616699 179.08632324 258.43334961 179.72241211 C262.39364096 184.5312067 266.23801533 189.43570061 270.05761719 194.35668945 C273.15389722 198.33706523 276.35252437 202.20934357 279.6328125 206.0390625 C284.92424658 212.22439668 289.97272915 218.57921171 294.94628906 225.02197266 C295.99410701 226.36171355 297.07296787 227.67704979 298.15625 228.98828125 C300.58842137 231.98567554 301.99737495 233.91112478 302.8203125 237.7265625 C301.86807508 241.62207924 300.18088745 242.94468476 297.1328125 245.5390625 C294.45517353 246.91684027 291.68566957 247.89701405 288.83984375 248.87109375 C288.05260422 249.1525676 287.26536469 249.43404144 286.45426941 249.7240448 C283.95578698 250.61325951 281.45076413 251.4822062 278.9453125 252.3515625 C277.25021199 252.95384384 275.55554518 253.55734733 273.86132812 254.16210938 C272.25038252 254.73285165 270.63906673 255.3025504 269.02734375 255.87109375 C268.26589554 256.13976761 267.50444733 256.40844147 266.71992493 256.68525696 C261.37064272 258.5390625 261.37064272 258.5390625 259.1328125 258.5390625 C259.13649967 259.24051486 259.14018684 259.94196722 259.14398575 260.66467571 C259.23232199 277.73232622 259.29851485 294.79991867 259.34006119 311.86774731 C259.36068672 320.12163184 259.38880703 328.37536379 259.43457031 336.62915039 C259.4744385 343.82313635 259.50024538 351.0170118 259.50916648 358.21110517 C259.51438131 362.02039953 259.52663747 365.82937775 259.55573273 369.63857079 C259.58290182 373.22467362 259.59125466 376.81033036 259.58524323 380.39652634 C259.58686675 382.33866314 259.60838183 384.28075145 259.63049316 386.22276306 C259.62499451 387.38237549 259.61949585 388.54198792 259.61383057 389.73674011 C259.61751774 390.74241626 259.62120491 391.7480924 259.62500381 392.78424358 C258.99762912 396.29569048 257.55748425 397.974169 255.1328125 400.5390625 C253.25968933 401.66459656 253.25968933 401.66459656 251.29370117 402.3815918 C250.54285248 402.66420364 249.79200378 402.94681549 249.0184021 403.23799133 C248.20408722 403.52683701 247.38977234 403.81568268 246.55078125 404.11328125 C245.68635406 404.43423264 244.82192688 404.75518402 243.93130493 405.08586121 C241.06587669 406.14662542 238.19318473 407.18614703 235.3203125 408.2265625 C233.28864529 408.97558487 231.25765007 409.72643221 229.22729492 410.47900391 C226.05870281 411.65319304 222.88971889 412.82618491 219.71864319 413.99365234 C209.7209462 417.67522569 199.77126837 421.47661262 189.82876587 425.30429077 C184.95910438 427.17850615 180.08703908 429.04644583 175.21484375 430.9140625 C173.74590919 431.47724434 173.74590919 431.47724434 172.24729919 432.05180359 C164.88449926 434.87270156 157.51585886 437.67803076 150.14453125 440.4765625 C149.06439758 440.88671097 147.98426392 441.29685944 146.87139893 441.71943665 C141.51226033 443.7537574 136.15210954 445.78536068 130.79052734 447.81323242 C121.63735945 451.27891068 112.49679004 454.76531341 103.41015625 458.40234375 C101.96422796 458.97746494 100.51826578 459.55250094 99.07226562 460.12744141 C96.50721425 461.1480817 93.9528714 462.18730624 91.40039062 463.23974609 C90.28986328 463.6827002 89.17933594 464.1256543 88.03515625 464.58203125 C87.10179443 464.96383545 86.16843262 465.34563965 85.20678711 465.73901367 C76.9580253 467.88587988 70.5389444 466.02882548 62.8125 462.90234375 C61.82083328 462.51561493 60.82916656 462.12888611 59.80744934 461.73043823 C56.53535836 460.45113943 53.27187831 459.15118452 50.0078125 457.8515625 C47.6970387 456.94466589 45.38558292 456.03950523 43.07348633 455.13598633 C39.45555703 453.72166557 35.83821066 452.30598181 32.22303772 450.8846283 C20.28185953 446.18981747 8.29684404 441.61316146 -3.69589233 437.05200195 C-9.45253111 434.86183985 -15.20674484 432.66532912 -20.9609375 430.46875 C-22.06302048 430.04813293 -23.16510345 429.62751587 -24.30058289 429.19415283 C-36.17365038 424.66122341 -48.03984608 420.11030225 -59.89501953 415.53076172 C-66.23701432 413.0818088 -72.57921539 410.63642693 -78.94972229 408.2624054 C-80.83177873 407.56099355 -82.71218262 406.85515249 -84.5925293 406.14916992 C-86.81196467 405.31733162 -89.03454409 404.49380629 -91.26098633 403.6809082 C-92.69607544 403.1408313 -92.69607544 403.1408313 -94.16015625 402.58984375 C-94.9802417 402.28731689 -95.80032715 401.98479004 -96.64526367 401.6730957 C-99.36413627 400.28542806 -100.91735179 398.89659131 -102.8671875 396.5390625 C-103.35937881 393.89167404 -103.35937881 393.89167404 -103.34820557 390.81903076 C-103.35370422 389.65237885 -103.35920288 388.48572693 -103.36486816 387.28372192 C-103.35048706 386.00770111 -103.33610596 384.7316803 -103.32128906 383.41699219 C-103.32016051 382.0568139 -103.3207946 380.69663317 -103.32305908 379.3364563 C-103.32420688 375.64651459 -103.30068763 371.95709285 -103.27276325 368.267272 C-103.24776017 364.41024346 -103.24540847 360.55320303 -103.24066162 356.69610596 C-103.22822859 349.39335173 -103.19540269 342.09083699 -103.15526366 334.78818822 C-103.11055603 326.47389814 -103.08856147 318.15959663 -103.06848192 309.84521627 C-103.02667023 292.74302648 -102.95631196 275.64106981 -102.8671875 258.5390625 C-103.61892809 258.33618055 -104.37066868 258.13329861 -105.14518929 257.92426872 C-106.13320974 257.65647165 -107.1212302 257.38867458 -108.13919067 257.11276245 C-109.11780626 256.8480055 -110.09642185 256.58324856 -111.10469246 256.31046867 C-116.75656674 254.73222486 -122.23485113 252.67938449 -127.7421875 250.6640625 C-128.9384375 250.24253906 -130.1346875 249.82101562 -131.3671875 249.38671875 C-142.89497942 245.17017741 -142.89497942 245.17017741 -145.8671875 240.5390625 C-146.6828772 236.04507395 -146.31556132 234.21288035 -143.77734375 230.3984375 C-142.84478166 229.34696707 -141.8945094 228.31101201 -140.9296875 227.2890625 C-139.9092402 226.14925696 -138.88972154 225.0086194 -137.87109375 223.8671875 C-137.36078613 223.30580078 -136.85047852 222.74441406 -136.32470703 222.16601562 C-134.25566505 219.85645184 -132.31213146 217.4534757 -130.3671875 215.0390625 C-126.61930952 210.4345267 -122.79735306 205.89887059 -118.953125 201.375 C-116.05473927 197.9584671 -113.1956365 194.51401412 -110.3671875 191.0390625 C-106.95143863 186.85400082 -103.5197872 182.68332174 -100.0546875 178.5390625 C-99.37019531 177.71051758 -99.37019531 177.71051758 -98.671875 176.86523438 C-93.90686282 171.19360483 -89.71949466 168.92106959 -82.69848633 166.71972656 C-81.87628538 166.45491234 -81.05408443 166.19009811 -80.20696831 165.91725922 C-78.41881831 165.34227616 -76.62953419 164.77081097 -74.83926964 164.20244598 C-70.9689641 162.97360881 -67.10417633 161.72781765 -63.23886204 160.48338699 C-61.20404001 159.82856721 -59.1689209 159.17466998 -57.13352108 158.52164841 C-46.2796508 155.03806506 -35.45352453 151.47166783 -24.62890625 147.8984375 C-22.70723478 147.26484046 -20.78553271 146.63133622 -18.86380005 145.9979248 C-14.06592164 144.41635752 -9.26836436 142.83381859 -4.47088623 141.2510376 C-0.49853934 139.94066778 3.47403748 138.63099579 7.44662189 137.32134628 C15.64994442 134.61693778 23.85313183 131.91211931 32.0559082 129.20605469 C32.78964661 128.96406845 33.52338501 128.72208221 34.27935791 128.47276306 C38.23279393 127.1683278 42.18412264 125.85779573 46.1328125 124.5390625 C44.87530398 93.03847405 32.72850863 58.53588276 12.1328125 34.5390625 C11.44058594 33.71019531 10.74835938 32.88132813 10.03515625 32.02734375 C6.78068044 28.26490982 3.43275869 24.75623009 -0.32421875 21.49609375 C-0.92008789 20.97337891 -1.51595703 20.45066406 -2.12988281 19.91210938 C-3.30471708 18.89345221 -4.49509913 17.89237972 -5.70214844 16.91210938 C-8.7683364 14.26096296 -9.81646065 12.94061456 -10.33203125 8.859375 C-9.44596473 2.53032843 -6.65507812 -0.46659219 0 0 Z " fill="#343333" transform="translate(177.8671875,45.4609375)"/>
<path d="M0 0 C0 63.03 0 126.06 0 191 C-3.567184 190.2865632 -6.40274093 189.58085833 -9.73461914 188.3203125 C-10.65510544 187.9741539 -11.57559174 187.6279953 -12.52397156 187.27134705 C-13.51766251 186.89305252 -14.51135345 186.514758 -15.53515625 186.125 C-16.58407547 185.72902115 -17.63299469 185.3330423 -18.71369934 184.92506409 C-22.16484473 183.62075206 -25.61372176 182.31055704 -29.0625 181 C-31.47992101 180.08439703 -33.89740217 179.16895286 -36.31494141 178.25366211 C-58.25050063 169.93957178 -80.12268644 161.46664395 -102 153 C-120.15 146.07 -138.3 139.14 -157 132 C-157 91.41 -157 50.82 -157 9 C-152.84877732 9.69187045 -149.64610489 10.33727521 -145.78466797 11.69555664 C-144.78443604 12.04479187 -143.7842041 12.3940271 -142.75366211 12.75384521 C-141.13923218 13.32621918 -141.13923218 13.32621918 -139.4921875 13.91015625 C-137.78421997 14.50972137 -137.78421997 14.50972137 -136.04174805 15.12139893 C-132.95676688 16.2058175 -129.87344492 17.29480519 -126.79073334 18.38565445 C-124.23132395 19.28991645 -121.67012177 20.18903855 -119.10891914 21.08820629 C-106.26424497 25.59916192 -93.446044 30.17149456 -80.6875 34.921875 C-79.16166794 35.48756447 -79.16166794 35.48756447 -77.60501099 36.06468201 C-72.85234557 37.82737392 -68.1064551 39.60496253 -63.37060547 41.41235352 C-61.68220044 42.0424576 -59.99357436 42.67196979 -58.3046875 43.30078125 C-57.55928711 43.59245178 -56.81388672 43.88412231 -56.04589844 44.18463135 C-51.3323273 45.91606684 -48.01798504 46.21719883 -43 45 C-40.97991161 43.73250855 -40.97991161 43.73250855 -39.5 41.9375 C-38.9225 41.30714844 -38.345 40.67679687 -37.75 40.02734375 C-37.1725 39.35832031 -36.595 38.68929687 -36 38 C-35.4225 37.34128906 -34.845 36.68257813 -34.25 36.00390625 C-33.07881091 34.66279017 -31.91216601 33.31769269 -30.75 31.96875 C-29.06201714 30.06976929 -27.31230266 28.27994012 -25.5 26.5 C-23.20673964 24.24202057 -21.03571972 21.94003496 -18.9375 19.5 C-15.26338686 15.2430965 -11.45182535 11.11919577 -7.625 7 C-6.67741821 5.97422852 -6.67741821 5.97422852 -5.71069336 4.92773438 C-5.11780518 4.29158203 -4.52491699 3.65542969 -3.9140625 3 C-3.3773291 2.4225 -2.8405957 1.845 -2.28759766 1.25 C-1 0 -1 0 0 0 Z " fill="#FEA621" transform="translate(248,301)"/>
<path d="M0 0 C1.10809433 0.93621737 2.21423851 1.87474317 3.31958008 2.81420898 C3.93577713 3.33659653 4.55197418 3.85898407 5.18684387 4.39720154 C7.88337249 6.78088591 10.28309869 9.3894227 12.6875 12.0625 C13.73165287 13.20844083 14.7759272 14.354271 15.8203125 15.5 C16.60970215 16.37011719 16.60970215 16.37011719 17.41503906 17.2578125 C19.94749189 20.04148215 22.50592632 22.80100057 25.0625 25.5625 C28.08824552 28.83268999 31.10488797 32.11008685 34.09375 35.4140625 C34.59253662 35.96376709 35.09132324 36.51347168 35.60522461 37.07983398 C36.98011438 38.59661219 38.35149855 40.11656594 39.72265625 41.63671875 C41.9618492 44.1292938 41.9618492 44.1292938 45 46 C51.82171484 45.59377507 58.57442349 42.97118814 64.97265625 40.71875 C65.91422073 40.39269272 66.85578522 40.06663544 67.82588196 39.73069763 C70.90724661 38.66080792 73.98492541 37.58073881 77.0625 36.5 C79.21625913 35.74928842 81.37006855 34.9987211 83.52392578 34.24829102 C101.69451245 27.89581496 119.76625048 21.27709523 137.79711914 14.5390625 C138.79752731 14.16709244 139.79793549 13.79512238 140.82865906 13.41188049 C142.70092368 12.71550902 144.5717156 12.01516045 146.44075012 11.31016541 C147.26516098 11.00405838 148.08957184 10.69795135 148.93896484 10.38256836 C149.65498871 10.11407578 150.37101257 9.84558319 151.10873413 9.56895447 C153 9 153 9 156 9 C156 49.59 156 90.18 156 132 C105.70654171 151.43156343 105.70654171 151.43156343 86.28662109 158.77276611 C81.46097893 160.59705845 76.6367057 162.42495973 71.81231689 164.25256348 C69.37255532 165.17678825 66.93273711 166.1008635 64.49285889 167.02478027 C53.89122761 171.03958418 43.29324711 175.06392492 32.6987915 179.09762573 C30.92755925 179.77189732 29.15620105 180.44583816 27.38470459 181.11941528 C24.96448031 182.03970265 22.54464836 182.96101211 20.125 183.8828125 C19.39507843 184.16045944 18.66515686 184.43810638 17.91311646 184.72416687 C13.1911924 186.52637418 8.50283803 188.39727818 3.84765625 190.36669922 C2 191 2 191 -1 191 C-1.09692129 152.82475315 -0.8370619 114.65359393 -0.55461788 76.47972429 C-0.49278864 68.11372363 -0.43295977 59.74770896 -0.37324238 51.38169301 C-0.25094456 34.25444634 -0.12631286 17.12721752 0 0 Z " fill="#FEA621" transform="translate(264,301)"/>
<path d="M0 0 C0.0093457 0.80219971 0.01869141 1.60439941 0.02832031 2.4309082 C0.08193742 6.05873639 0.16560298 9.68526292 0.25 13.3125 C0.26417969 14.57513672 0.27835938 15.83777344 0.29296875 17.13867188 C0.32519531 18.34716797 0.35742188 19.55566406 0.390625 20.80078125 C0.41157227 21.91622314 0.43251953 23.03166504 0.45410156 24.1809082 C0.75239581 27.08302994 0.75239581 27.08302994 2.81152344 28.89526367 C6.1366024 30.57375344 8.47754005 29.91323036 12 29 C14.03624095 25.94563857 14.31953947 24.84516446 14.6328125 21.33203125 C14.71660156 20.43935547 14.80039062 19.54667969 14.88671875 18.62695312 C14.96535156 17.69818359 15.04398438 16.76941406 15.125 15.8125 C15.21136719 14.87212891 15.29773438 13.93175781 15.38671875 12.96289062 C15.59873483 10.64249241 15.80140736 8.32157393 16 6 C23.5837349 7.99240129 31.04426975 10.24257035 38.48828125 12.703125 C39.57021759 13.05821136 40.65215393 13.41329773 41.76687622 13.77914429 C45.28290164 14.93362506 48.79768967 16.09182579 52.3125 17.25 C54.7519316 18.05158277 57.19146731 18.85284875 59.63110352 19.65380859 C63.36979392 20.88128977 67.10842329 22.10895288 70.84672546 23.33761597 C83.37046504 27.45343238 95.90320144 31.5414754 108.4375 35.625 C110.43596366 36.27633686 112.43441773 36.92770315 114.43286133 37.57910156 C118.95512808 39.05308077 123.47751992 40.52667546 128 42 C128 42.66 128 43.32 128 44 C126.33252464 44.55471481 126.33252464 44.55471481 124.63136292 45.12063599 C113.94493578 48.67590085 103.25909253 52.23291608 92.57376194 55.7914753 C87.08566261 57.61913172 81.597387 59.44625436 76.10864258 61.27197266 C70.79782905 63.03854399 65.4875242 64.80663683 60.17756271 66.57576752 C58.06095838 67.28074174 55.94420045 67.98525496 53.82728958 68.68930817 C42.50770626 72.45482548 31.20361606 76.25722468 19.93701172 80.17871094 C18.03206247 80.83935611 16.12710955 81.49999071 14.22215271 82.16061401 C10.68390483 83.38838823 7.15105195 84.63025493 3.6207428 85.88064575 C2.03891392 86.43116382 0.45692753 86.98122959 -1.12524414 87.53076172 C-2.17527335 87.90967623 -2.17527335 87.90967623 -3.24651527 88.29624557 C-9.92932998 90.59260307 -15.27800686 90.53918134 -21.92724609 88.29443359 C-23.05718994 87.91867187 -24.18713379 87.54291016 -25.35131836 87.15576172 C-26.56311768 86.74084473 -27.77491699 86.32592773 -29.0234375 85.8984375 C-30.31374563 85.4649246 -31.60436187 85.03232782 -32.89526367 84.60058594 C-36.34509866 83.44385346 -39.79041314 82.27417852 -43.23497772 81.10186005 C-46.82029337 79.88410511 -50.40966047 78.67840757 -53.99853516 77.47119141 C-61.71757799 74.87197367 -69.43074832 72.2556653 -77.14160156 69.63226318 C-78.88077456 69.04056281 -80.62007028 68.4492232 -82.359375 67.85791016 C-90.31156286 65.15391463 -98.26175649 62.44415802 -106.20629883 59.71777344 C-121.7705113 54.3771527 -137.37911717 49.17222293 -153 44 C-153 43.34 -153 42.68 -153 42 C-92.36957629 21.72517153 -92.36957629 21.72517153 -67.61465454 13.64434814 C-65.7966152 13.05085722 -63.97888314 12.45642415 -62.16146851 11.86102295 C-59.66853367 11.04488995 -57.17436564 10.23266116 -54.6796875 9.421875 C-53.96487717 9.18745697 -53.25006683 8.95303894 -52.51359558 8.71151733 C-49.0328891 7.58622949 -45.60662026 6.62246238 -42 6 C-41.23873891 8.72389326 -40.87128123 11.17914189 -40.82421875 14.00390625 C-40.78844727 15.11475586 -40.78844727 15.11475586 -40.75195312 16.24804688 C-40.7088835 17.79463791 -40.67768761 19.34160394 -40.65820312 20.88867188 C-40.51704506 25.36468706 -40.51704506 25.36468706 -38.18359375 29.03515625 C-34.84865146 30.5087354 -32.45989242 29.89700915 -29 29 C-26.70825923 25.56238884 -26.70475953 24.07928385 -26.5859375 20.01953125 C-26.54726562 18.85615234 -26.50859375 17.69277344 -26.46875 16.49414062 C-26.4378125 15.27919922 -26.406875 14.06425781 -26.375 12.8125 C-26.33632812 11.58595703 -26.29765625 10.35941406 -26.2578125 9.09570312 C-26.16343897 6.06395344 -26.07785451 3.03221159 -26 0 C-24.10749224 -0.69246823 -22.20918776 -1.36910705 -20.30859375 -2.0390625 C-19.25212646 -2.41756348 -18.19565918 -2.79606445 -17.10717773 -3.18603516 C-10.81086996 -4.83543329 -5.80004637 -2.326225 0 0 Z " fill="#CBCBCB" transform="translate(269,181)"/>
<path d="M0 0 C29.09355725 9.35842132 58.1079617 18.9527891 87.10571289 28.60351562 C92.86889528 30.52118968 98.63379608 32.43361244 104.39953107 34.34359562 C110.02098666 36.2061898 115.64026291 38.07529699 121.25876808 39.94677353 C123.62606891 40.73425071 125.99404481 41.51970151 128.36270714 42.30307388 C131.63391262 43.3854309 134.90255625 44.47519717 138.1706543 45.56689453 C139.14326706 45.88682877 140.11587982 46.206763 141.1179657 46.53639221 C142.00121521 46.83312332 142.88446472 47.12985443 143.79447937 47.43557739 C144.56313167 47.69099871 145.33178396 47.94642002 146.12372875 48.20958138 C148 49 148 49 150 51 C148.69289062 52.39798828 148.69289062 52.39798828 147.359375 53.82421875 C141.5563305 60.03426411 135.75859353 66.24868209 130 72.5 C125.49454609 77.38938497 120.97185827 82.26240484 116.4375 87.125 C115.84130859 87.76501953 115.24511719 88.40503906 114.63085938 89.06445312 C114.07076172 89.66451172 113.51066406 90.26457031 112.93359375 90.8828125 C112.43915771 91.41277832 111.94472168 91.94274414 111.43530273 92.48876953 C110.96165283 92.98747559 110.48800293 93.48618164 110 94 C109.58886963 94.57991699 109.17773926 95.15983398 108.75415039 95.75732422 C107 97 107 97 104.10766602 96.9597168 C98.32631398 95.83294126 92.80317191 93.63434144 87.27734375 91.64453125 C85.99900156 91.18960346 84.72044653 90.73527336 83.44169617 90.28149414 C79.9894013 89.05462272 76.54000759 87.81977798 73.09107208 86.58349991 C69.47632619 85.28938546 65.85891584 84.00276488 62.24169922 82.71557617 C56.97682528 80.84134792 51.71279884 78.96477257 46.44982147 77.08522511 C36.73567952 73.61612455 27.01576156 70.16352291 17.29296875 66.71875 C15.86675341 66.21335844 14.44053981 65.70796195 13.014328 65.20256042 C10.92081561 64.4607201 8.82729547 63.71890166 6.73375607 62.97713757 C-0.39433095 60.45154267 -7.52172634 57.92400586 -14.6484375 55.39453125 C-16.28816277 54.81312378 -16.28816277 54.81312378 -17.96101379 54.2199707 C-24.65216473 51.84445507 -31.33087271 49.43666353 -38 47 C-36.09685015 42.91993316 -33.39165575 39.79389265 -30.4375 36.4375 C-29.34276361 35.17793997 -28.24902202 33.91751466 -27.15625 32.65625 C-26.61742188 32.03492188 -26.07859375 31.41359375 -25.5234375 30.7734375 C-23.4521603 28.36225841 -21.44078991 25.90532091 -19.4375 23.4375 C-15.62212428 18.737904 -11.73005601 14.10919328 -7.80444336 9.50170898 C-5.14637972 6.37702603 -2.55598755 3.20842899 0 0 Z " fill="#FD6F0D" transform="translate(92,233)"/>
<path d="M0 0 C1.95735644 2.03357749 3.50191532 3.91090392 5.125 6.1875 C6.09402932 7.48481272 7.06544337 8.78034709 8.0390625 10.07421875 C8.53051758 10.73341309 9.02197266 11.39260742 9.52832031 12.07177734 C11.74441959 14.97535267 14.11315991 17.73649341 16.5 20.5 C20.95170867 25.68831656 25.20895688 31.00727274 29.38476562 36.41992188 C31.10951032 38.64631645 32.7970343 40.80140856 34.8125 42.7734375 C36 44 36 44 36 46 C30.40007461 47.9838555 24.80009594 49.96756054 19.20007324 51.95114136 C17.10265587 52.69406678 15.00524379 53.43700713 12.90783691 54.17996216 C-0.24063243 58.8373637 -13.38994568 63.49236673 -26.5406971 68.14332008 C-28.68204873 68.90065413 -30.82338085 69.65804333 -32.96470642 70.41545105 C-34.39517207 70.92141739 -35.82563776 71.42738357 -37.25610352 71.93334961 C-37.96327861 72.18348407 -38.6704537 72.43361853 -39.39905834 72.69133282 C-43.55118908 74.15993463 -47.70344551 75.62818025 -51.85583401 77.09605312 C-53.84498562 77.79935831 -55.83398885 78.50308193 -57.82298279 79.20683289 C-60.40739655 80.12113522 -62.99255211 81.03329501 -65.57826233 81.94392395 C-71.40150684 83.99752661 -77.21614063 86.06940141 -83.00733566 88.21198559 C-84.96815453 88.93720641 -86.93063378 89.65774772 -88.89361572 90.37709045 C-91.33148098 91.27286923 -93.76576291 92.17848177 -96.19573975 93.09544373 C-97.28131165 93.49264114 -98.36688354 93.88983856 -99.48535156 94.29907227 C-100.43331604 94.65284439 -101.38128052 95.00661652 -102.35797119 95.37110901 C-105.33626041 96.08004119 -107.09488313 95.9093131 -110 95 C-112.2109375 93.21484375 -112.2109375 93.21484375 -114.375 90.9375 C-115.43847656 89.83728516 -115.43847656 89.83728516 -116.5234375 88.71484375 C-118.49022184 86.55882622 -120.41751429 84.38155657 -122.33203125 82.1796875 C-125.89593559 78.0883828 -129.58510265 74.12957441 -133.3125 70.1875 C-134.62288668 68.79342997 -135.93278048 67.39889649 -137.2421875 66.00390625 C-137.87737305 65.32730957 -138.51255859 64.65071289 -139.16699219 63.95361328 C-140.07433105 62.98657471 -140.07433105 62.98657471 -141 62 C-141.54817383 61.41589355 -142.09634766 60.83178711 -142.66113281 60.22998047 C-144.09220197 58.70007554 -145.51617782 57.16395609 -146.9375 55.625 C-147.73027344 54.77164063 -148.52304687 53.91828125 -149.33984375 53.0390625 C-151 51 -151 51 -151 49 C-149.76064697 48.58862793 -148.52129395 48.17725586 -147.24438477 47.75341797 C-116.31437736 37.48361804 -116.31437736 37.48361804 -85.45370483 27.00793457 C-69.35756872 21.4852682 -53.24519333 16.00999411 -37.11258411 10.59478283 C-33.8705755 9.50651204 -30.6294289 8.41583983 -27.39041138 7.31869507 C-23.7678617 6.09326692 -20.14220591 4.87749979 -16.515625 3.6640625 C-15.42485153 3.29292831 -14.33407806 2.92179413 -13.21025085 2.53941345 C-12.20017471 2.20365799 -11.19009857 1.86790253 -10.14941406 1.52197266 C-9.27158264 1.22666656 -8.39375122 0.93136047 -7.48931885 0.62710571 C-4.83031367 -0.04274714 -2.7278588 -0.30138009 0 0 Z " fill="#FE6F0D" transform="translate(422,234)"/>
<path d="M0 0 C4.08370015 4.56026878 6.88613774 9.84186804 9.90234375 15.13671875 C14.04072824 20.78557504 21.29982081 21.02257567 27.84960938 22.23632812 C31.5954533 23.03170115 33.61777427 23.65794637 36.52734375 26.26171875 C38.31437319 29.58455068 38.6250518 31.27853777 38 35 C36.2421875 37.7109375 36.2421875 37.7109375 33.875 40.375 C32.23996317 42.24125416 30.61595055 44.11719523 29 46 C28.45327637 46.57435791 27.90655273 47.14871582 27.34326172 47.74047852 C23.96065759 51.6097705 22.60356313 54.21272749 22.7734375 59.41796875 C22.94173907 61.34423282 23.142943 63.26787289 23.375 65.1875 C24.46312732 74.94826114 24.46312732 74.94826114 22.6015625 79.17578125 C19.3377902 81.46434231 17.28106446 81.6439656 13.359375 81.42529297 C10.22935606 80.86108633 7.80664271 79.65942133 5.02734375 78.15454102 C-1.29432977 74.73739069 -1.29432977 74.73739069 -8.2890625 74.35546875 C-12.09047604 75.5899484 -15.49527294 77.32498535 -19 79.22265625 C-23.28665994 81.39277785 -27.27166333 82.01018949 -32 81 C-34.58203125 79.2265625 -34.58203125 79.2265625 -36 76 C-36.23498125 72.10405683 -35.93734993 68.26543573 -35.6875 64.375 C-35.28592209 54.03767131 -35.28592209 54.03767131 -40.25 45.375 C-41.79870861 43.87994743 -43.37810374 42.41532084 -45 41 C-47.44083111 38.11072223 -48.87927292 35.73945339 -49.5 31.9375 C-48.8350923 28.03116725 -47.89902713 26.74418295 -45 24 C-41.5388864 22.67055328 -38.00117428 21.93076825 -34.375 21.1875 C-33.40820312 20.97158203 -32.44140625 20.75566406 -31.4453125 20.53320312 C-24.47532242 19 -24.47532242 19 -22 19 C-21.7525 18.31292969 -21.505 17.62585938 -21.25 16.91796875 C-19.79324749 13.5173621 -17.95543269 10.44048381 -16 7.3125 C-15.64421875 6.73177734 -15.2884375 6.15105469 -14.921875 5.55273438 C-11.17294665 -0.49730858 -11.17294665 -0.49730858 -8.25 -1.75 C-4.98653239 -2.11260751 -2.9736888 -1.3629407 0 0 Z " fill="#323333" transform="translate(162,90)"/>
<path d="M0 0 C4.74477862 1.35451944 6.82752597 5.69611398 9.33984375 9.66796875 C9.9225 10.50328125 10.50515625 11.33859375 11.10546875 12.19921875 C15.33984375 18.29355286 15.33984375 18.29355286 15.33984375 20.66796875 C16.58121094 20.93351562 17.82257813 21.1990625 19.1015625 21.47265625 C20.74353897 21.82919971 22.38546334 22.18598319 24.02734375 22.54296875 C25.25227539 22.80400391 25.25227539 22.80400391 26.50195312 23.0703125 C36.98809141 25.36282856 36.98809141 25.36282856 40.15234375 28.41796875 C41.84678227 31.62848385 42.02224647 33.05123431 41.33984375 36.66796875 C38.88093541 40.57756048 35.95086579 44.21480959 32.51855469 47.31079102 C29.53818143 50.1936859 27.53159645 52.27827453 26.9519043 56.47949219 C27.05454458 59.63929237 27.33145883 62.71746321 27.71484375 65.85546875 C28.94345497 76.67116855 28.94345497 76.67116855 26.37890625 80.90625 C22.55228836 83.12450793 19.60083222 83.51763014 15.33984375 82.66796875 C13.16619443 81.84003393 11.12831729 80.86297097 9.04858398 79.82250977 C2.37754252 76.4345186 2.37754252 76.4345186 -4.90283203 76.0234375 C-8.52339946 77.25666524 -11.79769756 79.01820086 -15.1484375 80.84375 C-19.86905021 83.29594815 -22.48110629 83.70377874 -27.66015625 82.66796875 C-30.22265625 80.85546875 -30.22265625 80.85546875 -31.66015625 77.66796875 C-32.19011029 72.96072992 -32.02489951 68.37542315 -31.03515625 63.7421875 C-29.93903734 58.19741229 -29.93903734 58.19741229 -31.64404297 52.95263672 C-33.85558025 49.9479849 -36.33321853 47.2550573 -38.92578125 44.578125 C-42.18665673 41.10762182 -44.40504714 38.41728833 -45.09765625 33.66796875 C-44.51970759 29.70489223 -43.60687366 28.4070464 -40.66015625 25.66796875 C-38.2318378 24.99073741 -35.84389588 24.65829405 -33.34716797 24.31396484 C-24.85635045 23.20291537 -24.85635045 23.20291537 -17.75 18.83300781 C-14.7128642 14.71198018 -12.50567526 10.2243142 -10.58544922 5.48974609 C-8.13499143 0.66512446 -5.16732378 -0.17587326 0 0 Z " fill="#323333" transform="translate(357.66015625,88.33203125)"/>
<path d="M0 0 C3.60639366 0.93728992 4.84800562 3.02657882 6.8671875 6.03125 C8.26953125 8.58984375 8.26953125 8.58984375 9.453125 11.6171875 C12.13998588 17.81805011 12.13998588 17.81805011 17.57128906 21.53320312 C21.28715549 22.58867742 24.99116697 23.37275578 28.80493164 23.9831543 C35.77567744 25.12486595 35.77567744 25.12486595 38.875 28.04296875 C40.69472023 31.36637936 41.00415398 32.84326784 40.26953125 36.58984375 C38.04149306 40.3547404 35.32786017 43.65284002 32.0546875 46.55078125 C28.75994295 49.75866961 26.4520944 52.35971808 26.06347656 57.10693359 C26.10004998 61.04399427 26.35223298 64.9198088 26.76977539 68.83447266 C27.51799639 76.00716002 27.51799639 76.00716002 25.9453125 79.6953125 C23.45900895 82.50616849 22.48108206 82.5718733 18.63671875 82.8984375 C14.57011843 82.85357856 11.95901796 81.65778356 8.43530273 79.74438477 C4.09205331 77.42026051 -0.11478479 75.20367098 -5.13818359 75.9453125 C-9.17407474 77.17834289 -12.84946195 78.9178191 -16.609375 80.8125 C-20.87333958 82.88729881 -24.02021311 83.06137634 -28.73046875 82.58984375 C-31.23046875 80.71484375 -31.23046875 80.71484375 -32.73046875 77.58984375 C-33.29925782 73.15493769 -32.99218112 68.88041285 -32.10546875 64.5078125 C-30.98333035 58.51334322 -30.98333035 58.51334322 -32.71435547 52.82275391 C-34.91110836 49.80667604 -37.39023667 47.12865612 -39.99609375 44.46484375 C-43.27652038 41.01570947 -45.4757512 38.33647837 -46.16796875 33.58984375 C-45.59038701 29.62928328 -44.67277294 28.32892573 -41.73046875 25.58984375 C-39.31907816 24.91222161 -36.94869042 24.57992717 -34.46826172 24.23583984 C-27.51447088 23.25248773 -21.55449534 22.31888803 -17.0078125 16.59765625 C-14.6116051 13.03024954 -12.57060878 9.30198945 -10.74755859 5.41162109 C-8.06985053 0.61539988 -5.30043166 -0.21407236 0 0 Z " fill="#323333" transform="translate(258.73046875,-0.58984375)"/>
<path d="M0 0 C2.30249844 2.1481035 3.88117993 4.35003882 5.5625 7 C9.09060822 11.85896424 13.2780914 12.9144205 19 14 C19 15.32 19 16.64 19 18 C18.195625 18.78375 17.39125 19.5675 16.5625 20.375 C12.24312698 25.06042158 13.09055744 31.99027926 13 38 C12.40832031 37.86722656 11.81664062 37.73445313 11.20703125 37.59765625 C9.5744217 37.23278266 7.94021519 36.87499953 6.3046875 36.5234375 C4 36 4 36 1.4375 35.1875 C-1.84178703 34.93524715 -4.14968813 36.01435886 -7.1328125 37.30859375 C-9 38 -9 38 -12 38 C-11.91878906 37.16597656 -11.83757812 36.33195312 -11.75390625 35.47265625 C-11.39509334 29.07992825 -11.35492214 24.9167005 -15.5 19.8125 C-16.1496875 19.11769531 -16.799375 18.42289063 -17.46875 17.70703125 C-19 16 -19 16 -19 14 C-17.82244141 13.86658203 -17.82244141 13.86658203 -16.62109375 13.73046875 C-11.5958921 12.87340982 -8.12124126 12.26069913 -4.64453125 8.3515625 C-2.94206799 5.62060081 -1.39729166 2.89790419 0 0 Z " fill="#1A9EFB" transform="translate(355,112)"/>
<path d="M0 0 C0.66 0 1.32 0 2 0 C2.94969876 1.4024963 3.83535521 2.84867868 4.6875 4.3125 C8.33534677 9.98000827 11.42862677 11.16414669 17.9375 12.6875 C18.9584375 12.8421875 18.9584375 12.8421875 20 13 C18.98902242 15.94868461 18.09248994 17.89897252 15.96875 20.21875 C13.49060753 23.71961794 13.40891507 26.06152198 13.25 30.3125 C13.16492188 32.19388672 13.16492188 32.19388672 13.078125 34.11328125 C13.03945313 35.54220703 13.03945313 35.54220703 13 37 C12.35933594 36.77183594 11.71867187 36.54367188 11.05859375 36.30859375 C3.45129479 33.7803856 -1.54726106 33.89469211 -9 37 C-9.99 37 -10.98 37 -12 37 C-11.91878906 36.16597656 -11.83757812 35.33195312 -11.75390625 34.47265625 C-11.39509334 28.07992825 -11.35492214 23.9167005 -15.5 18.8125 C-16.1496875 18.11769531 -16.799375 17.42289063 -17.46875 16.70703125 C-19 15 -19 15 -19 13 C-17.82244141 12.84917969 -17.82244141 12.84917969 -16.62109375 12.6953125 C-9.97610021 11.53585885 -9.97610021 11.53585885 -4.71484375 7.57421875 C-3.52009225 5.78082319 -2.37900567 3.9500621 -1.3046875 2.08203125 C-0.87414062 1.39496094 -0.44359375 0.70789063 0 0 Z " fill="#1A9EFB" transform="translate(255,24)"/>
<path d="M0 0 C2.44261014 2.26813799 4.03273486 4.06416032 5.5625 7.0625 C9.18331073 11.42604114 13.58846995 11.93635444 19 13 C19 16 19 16 17.72265625 17.33203125 C17.17480469 17.82058594 16.62695312 18.30914062 16.0625 18.8125 C11.3859388 23.89619712 12.01820442 30.43730749 12 37 C11.35933594 36.77183594 10.71867187 36.54367188 10.05859375 36.30859375 C2.45129479 33.7803856 -2.54726106 33.89469211 -10 37 C-10.99 37 -11.98 37 -13 37 C-12.93039063 36.154375 -12.86078125 35.30875 -12.7890625 34.4375 C-12.34553782 26.35692406 -12.34553782 26.35692406 -15.9375 19.375 C-16.48277344 18.78460938 -17.02804688 18.19421875 -17.58984375 17.5859375 C-19 16 -19 16 -20 13 C-19.33613281 12.89042969 -18.67226562 12.78085938 -17.98828125 12.66796875 C-9.70860837 11.35265617 -9.70860837 11.35265617 -3.59375 6.02734375 C-2.33603486 4.0464424 -1.1434901 2.04855036 0 0 Z " fill="#1A9FFB" transform="translate(156,113)"/>
</svg>
