<?xml version="1.0" encoding="UTF-8"?>
<svg version="1.1" xmlns="http://www.w3.org/2000/svg" width="512" height="512">
<path d="M0 0 C0.71478516 -0.01861084 1.42957031 -0.03722168 2.16601562 -0.05639648 C15.42138594 0.09693945 27.66083494 7.4268973 39.3125 13.0625 C41.06352452 13.90284795 42.81491524 14.74243322 44.56665039 15.58129883 C48.21593783 17.32958115 51.86362467 19.08114123 55.51025391 20.83496094 C63.64109095 24.74200741 71.79182617 28.60713781 79.9420166 32.47360229 C83.20843634 34.02369032 86.47385242 35.57588172 89.73873901 37.12919617 C91.26745559 37.85490267 92.79731896 38.57819908 94.32839966 39.29890442 C98.18550444 41.11642252 102.01609632 42.97188935 105.82080078 44.89697266 C106.59166519 45.27952713 107.3625296 45.6620816 108.15675354 46.05622864 C109.61970034 46.78306095 111.07593409 47.52362528 112.52378845 48.28007507 C116.43929473 50.21932962 116.43929473 50.21932962 120.66577148 49.83276367 C121.45669189 49.39295166 122.2476123 48.95313965 123.0625 48.5 C127.20860395 46.9068106 130.67555712 46.24243078 135.10864258 46.20947266 C136.86625664 46.1903331 136.86625664 46.1903331 138.65937805 46.17080688 C139.91260361 46.16858124 141.16582916 46.16635559 142.45703125 46.1640625 C143.7589592 46.1574057 145.06088715 46.1507489 146.40226746 46.14389038 C149.15338456 46.13194952 151.90437641 46.12820618 154.65551758 46.12939453 C158.15904885 46.12959741 161.66176609 46.1023151 165.16510487 46.06785011 C168.5332573 46.04009331 171.9012662 46.04142825 175.26953125 46.0390625 C176.51668411 46.02469147 177.76383698 46.01032043 179.04878235 45.99551392 C185.69788148 46.03015128 190.26903297 46.71611835 196.17631531 49.74386597 C198.20903672 50.74905555 198.20903672 50.74905555 201.125 49.98242188 C202.5790625 49.24862305 202.5790625 49.24862305 204.0625 48.5 C205.31186147 47.93673259 206.56191584 47.37500064 207.8125 46.81445312 C209.23086028 46.14027034 210.64742786 45.4623074 212.0625 44.78125 C212.83885803 44.41111786 213.61521606 44.04098572 214.4151001 43.65963745 C216.09065908 42.86030133 217.76545982 42.05937424 219.4395752 41.25701904 C222.0984943 39.98274998 224.75940489 38.71273002 227.42089844 37.44384766 C231.12176235 35.67913087 234.821917 33.91294102 238.52148438 32.14550781 C278.93668124 12.84301746 278.93668124 12.84301746 294 6 C294.74991211 5.65630371 295.49982422 5.31260742 296.27246094 4.95849609 C307.63786566 -0.13902482 320.91465507 -1.94125246 333 2 C348.68482971 8.85306406 355.63157845 20.09931953 361.81460571 35.35580444 C363.30124392 39.15113207 364.71475841 42.97214688 366.10498047 46.80371094 C366.81814966 48.76554144 367.54331507 50.72265424 368.26953125 52.6796875 C373.62855315 67.25456742 376.22178669 79.44566347 371.0625 94.5 C370.39188237 95.90563316 369.70231008 97.30233255 368.99707031 98.69091797 C368.63526672 99.40585419 368.27346313 100.12079041 367.9006958 100.85739136 C367.62409119 101.39945221 367.34748657 101.94151306 367.0625 102.5 C368.37444336 102.47905273 369.68638672 102.45810547 371.03808594 102.43652344 C375.90581344 102.3641203 380.77349335 102.31819887 385.64160156 102.28027344 C387.74845382 102.26015874 389.85525025 102.23286333 391.96191406 102.19824219 C394.99037447 102.14971832 398.01809678 102.12702984 401.046875 102.109375 C402.45957672 102.07840729 402.45957672 102.07840729 403.90081787 102.04681396 C404.78142883 102.04651184 405.66203979 102.04620972 406.56933594 102.04589844 C407.34210876 102.03701599 408.11488159 102.02813354 408.91107178 102.01898193 C412.22204206 102.75925135 413.17386343 103.64246398 415.0625 106.5 C415.66497479 110.11488038 415.60840842 113.69800651 415.58007812 117.35546875 C415.59059204 119.01456772 415.59059204 119.01456772 415.60131836 120.70718384 C415.61894017 124.36754373 415.60726001 128.02713208 415.59375 131.6875 C415.59644369 134.22811024 415.60032508 136.76871947 415.60534668 139.30932617 C415.61124745 144.63568888 415.60304079 149.96177442 415.58398438 155.28808594 C415.56221566 161.44352219 415.56926719 167.59842848 415.59129 173.75385189 C415.61163745 179.67844489 415.60947329 185.60287338 415.59776306 191.52749634 C415.5950914 194.04733352 415.5983809 196.56718418 415.60768127 199.08700562 C415.61782014 202.60654726 415.60238141 206.12506595 415.58007812 209.64453125 C415.58817505 210.68985016 415.59627197 211.73516907 415.60461426 212.81216431 C415.59333496 213.77109589 415.58205566 214.73002747 415.57043457 215.71801758 C415.56817242 216.96570671 415.56817242 216.96570671 415.56586456 218.23860168 C414.84683892 221.46887156 413.75400468 222.58889791 411.0625 224.5 C407.67089844 224.95410156 407.67089844 224.95410156 403.671875 224.890625 C402.61495453 224.88213531 402.61495453 224.88213531 401.53668213 224.87347412 C399.29458572 224.85115078 397.05411012 224.80096754 394.8125 224.75 C393.28908565 224.72992952 391.76564614 224.7116797 390.2421875 224.6953125 C386.5151017 224.65130118 382.78895913 224.58230372 379.0625 224.5 C379.06618717 225.55798168 379.06987434 226.61596336 379.07367325 227.7060051 C379.16239931 253.42728497 379.22816868 279.14854504 379.26974869 304.86994553 C379.29038998 317.30853457 379.31854058 329.74702264 379.36425781 342.18554688 C379.40407752 353.024651 379.4299214 363.86368202 379.43885398 374.70285726 C379.44407695 380.44423677 379.4563855 386.18540708 379.48542023 391.92671967 C379.51251235 397.32751524 379.52095752 402.72801485 379.51493073 408.12887192 C379.51603374 410.1138787 379.52402436 412.09889509 379.5393219 414.08384323 C379.55915277 416.78907071 379.55446457 419.4931731 379.54351807 422.19842529 C379.55516943 422.98830928 379.5668208 423.77819326 379.57882524 424.59201312 C379.54006511 428.12308806 379.3318604 430.13177498 377.21993637 433.01884842 C375.0625 434.5 375.0625 434.5 372.0625 434.5 C372.0625 439.78 372.0625 445.06 372.0625 450.5 C373.7125 450.83 375.3625 451.16 377.0625 451.5 C379.27702075 454.82178113 379.31825617 455.87886354 379.3371582 459.75 C379.34669022 460.82121094 379.35622223 461.89242188 379.36604309 462.99609375 C379.36467598 464.73052734 379.36467598 464.73052734 379.36328125 466.5 C379.36756638 467.68722656 379.3718515 468.87445313 379.37626648 470.09765625 C379.382013 472.60936851 379.38250769 475.12109741 379.37817383 477.6328125 C379.37501259 481.48466224 379.39847468 485.33574521 379.42382812 489.1875 C379.42610087 491.62499903 379.42680473 494.06250013 379.42578125 496.5 C379.434991 497.65628906 379.44420074 498.81257813 379.45368958 500.00390625 C379.44434639 501.61072266 379.44434639 501.61072266 379.43481445 503.25 C379.43544388 504.19359375 379.4360733 505.1371875 379.4367218 506.109375 C379.0625 508.5 379.0625 508.5 377.98528004 510.12581885 C375.03582379 512.2337496 372.5163019 511.87619344 368.92379761 511.87752342 C368.18848068 511.88188374 367.45316376 511.88624407 366.69556451 511.89073652 C364.21206101 511.90175391 361.72910564 511.89124095 359.24560547 511.88095093 C357.45498811 511.88440494 355.66437288 511.88916776 353.87376213 511.89513266 C348.93799159 511.90770764 344.00239407 511.90144288 339.06662273 511.89217401 C333.74958281 511.88541034 328.43257348 511.89585137 323.11553955 511.90411377 C312.69343643 511.91748206 302.27139798 511.91455961 291.84929228 511.90587585 C283.38208706 511.89911186 274.91490001 511.898177 266.44769287 511.9014473 C265.24445873 511.901907 264.04122459 511.90236669 262.80152881 511.90284032 C260.3574926 511.90379946 257.91345639 511.9047721 255.46942019 511.9057581 C232.52979483 511.91432106 209.59020537 511.90446366 186.65058589 511.888357 C166.94998197 511.874953 147.24943108 511.87728084 127.54882812 511.89111328 C104.6935622 511.90715311 81.83832779 511.913497 58.98305702 511.90427649 C56.54780706 511.9033208 54.1125571 511.90237769 51.67730713 511.9014473 C49.87983199 511.90075306 49.87983199 511.90075306 48.04604423 511.90004479 C39.58503012 511.8974501 31.12403593 511.90183619 22.6630249 511.90888596 C12.35758282 511.91728343 2.05220933 511.91505784 -8.25322485 511.89904372 C-13.51529816 511.89113734 -18.77725696 511.88810955 -24.03932953 511.89799118 C-28.85054686 511.90688978 -33.66154286 511.90208562 -38.47273993 511.88605852 C-40.21898864 511.8826901 -41.96525581 511.88445061 -43.71149278 511.89168589 C-46.07419851 511.90072915 -48.43613306 511.89153368 -50.79879761 511.87752342 C-52.11442122 511.87703637 -53.43004482 511.87654931 -54.78553581 511.87604749 C-57.9375 511.5 -57.9375 511.5 -59.86059743 510.27668458 C-61.27046373 507.95067312 -61.31023706 506.41346434 -61.30664349 503.69552326 C-61.31261663 502.70026577 -61.31858978 501.70500828 -61.32474393 500.67959148 C-61.31163614 499.03515529 -61.31163614 499.03515529 -61.29826355 497.35749817 C-61.30082682 496.19520602 -61.3033901 495.03291388 -61.30603105 493.83540076 C-61.31012647 490.60399815 -61.30071927 487.37295421 -61.28569686 484.14159405 C-61.27276628 480.65899662 -61.27712384 477.17641655 -61.27940369 473.69380188 C-61.28097831 467.65821664 -61.2715494 461.62272854 -61.25469017 455.58716774 C-61.23033031 446.86072863 -61.222498 438.13433658 -61.2187262 429.40786716 C-61.21215697 415.2504818 -61.19218305 401.09314824 -61.16381836 386.93579102 C-61.13628997 373.18156189 -61.11505042 359.42734681 -61.10229492 345.6730957 C-61.10150675 344.82557713 -61.10071858 343.97805856 -61.09990653 343.1048576 C-61.09599147 338.85319336 -61.09220033 334.60152901 -61.08847082 330.3498646 C-61.05736024 295.06653947 -61.00451164 259.78327451 -60.9375 224.5 C-61.88592773 224.52094727 -62.83435547 224.54189453 -63.81152344 224.56347656 C-67.33766425 224.6317356 -70.86310099 224.68183929 -74.38964844 224.71972656 C-75.91450085 224.73981599 -77.43927648 224.76709316 -78.96386719 224.80175781 C-81.15839598 224.85039796 -83.35190469 224.87299396 -85.546875 224.890625 C-86.86655273 224.91157227 -88.18623047 224.93251953 -89.54589844 224.95410156 C-92.9375 224.5 -92.9375 224.5 -95.36706543 222.64343262 C-97.39192581 219.8797697 -97.45339396 218.18809618 -97.46875 214.78125 C-97.47390625 213.68425781 -97.4790625 212.58726562 -97.484375 211.45703125 C-97.46890625 210.31621094 -97.4534375 209.17539063 -97.4375 208 C-97.46070312 206.28876953 -97.46070312 206.28876953 -97.484375 204.54296875 C-97.47921875 203.44597656 -97.4740625 202.34898437 -97.46875 201.21875 C-97.46423828 200.21779297 -97.45972656 199.21683594 -97.45507812 198.18554688 C-96.8009063 194.79125911 -95.65887895 193.57495893 -92.9375 191.5 C-91.9475 191.5 -90.9575 191.5 -89.9375 191.5 C-89.9375 186.22 -89.9375 180.94 -89.9375 175.5 C-91.5875 175.17 -93.2375 174.84 -94.9375 174.5 C-97.29544836 170.96307747 -97.19988703 169.44928944 -97.22802734 165.25610352 C-97.24078705 163.967892 -97.25354675 162.67968048 -97.26669312 161.35243225 C-97.26975042 159.94459178 -97.27197836 158.53674929 -97.2734375 157.12890625 C-97.27986439 155.68545905 -97.28659267 154.24201317 -97.29360962 152.79856873 C-97.30558436 149.77315246 -97.30929021 146.7478504 -97.30810547 143.72241211 C-97.30790217 139.84728331 -97.33521386 135.972887 -97.36964989 132.09793186 C-97.3918959 129.1167617 -97.39594375 126.13576852 -97.39488602 123.15452385 C-97.39724509 121.72597667 -97.40608597 120.29742484 -97.42155075 118.86895943 C-97.44116193 116.87049942 -97.43286272 114.87182455 -97.42333984 112.87329102 C-97.42618988 111.73650406 -97.42903992 110.5997171 -97.43197632 109.42848206 C-96.82156771 105.81340368 -95.88480365 104.63478979 -92.9375 102.5 C-90.78607178 102.01898193 -90.78607178 102.01898193 -88.44433594 102.04589844 C-87.12341949 102.04635162 -87.12341949 102.04635162 -85.77581787 102.04681396 C-84.36311615 102.07778168 -84.36311615 102.07778168 -82.921875 102.109375 C-81.95090881 102.11503479 -80.97994263 102.12069458 -79.97955322 102.12652588 C-76.88169831 102.14889689 -73.78500467 102.19909527 -70.6875 102.25 C-68.58595422 102.27006403 -66.48439028 102.28831497 -64.3828125 102.3046875 C-59.2339283 102.3487642 -54.08591097 102.41779742 -48.9375 102.5 C-49.28321045 101.75886963 -49.6289209 101.01773926 -49.98510742 100.25415039 C-50.43732666 99.27438232 -50.8895459 98.29461426 -51.35546875 97.28515625 C-52.02872192 95.83314819 -52.02872192 95.83314819 -52.71557617 94.35180664 C-60.30062776 76.64931161 -52.88872897 59.64473385 -46.5625 42.75 C-46.10447998 41.51854248 -45.64645996 40.28708496 -45.17456055 39.01831055 C-39.1703287 23.29727424 -32.63986802 11.37540872 -17.4765625 3.16796875 C-11.71835525 0.6609339 -6.2024889 0.10315855 0 0 Z " fill="#020100" transform="translate(96.9375,0.5)"/>
<path d="M0 0 C13.86 0 27.72 0 42 0 C42.0093457 6.18911133 42.01869141 12.37822266 42.02832031 18.75488281 C42.06202932 39.16291432 42.11734177 59.57084453 42.18390274 79.9787941 C42.22374281 92.35679599 42.25611004 104.73473384 42.27099609 117.11279297 C42.28398687 127.89923198 42.31088555 138.68553038 42.35461307 149.47189021 C42.37728582 155.18527361 42.3929072 160.89848321 42.39188385 166.61191559 C42.39114067 171.98652971 42.40895346 177.36075881 42.44116783 182.73527336 C42.44970583 184.71057061 42.45139049 186.68591085 42.44580269 188.66121864 C42.43919982 191.35339656 42.45699348 194.04433603 42.48101807 196.73638916 C42.47325765 197.52238219 42.46549723 198.30837523 42.45750165 199.11818624 C42.51207955 202.56070462 42.69727275 204.59383411 44.78243637 207.39147568 C47.19496306 209.23344945 47.19496306 209.23344945 51 211 C51 215.95 51 220.9 51 226 C47.535 226.99 47.535 226.99 44 228 C39.35720391 241.92838828 42.35798647 257.32255468 42 272 C-9.81 272 -61.62 272 -115 272 C-115 183.89 -115 95.78 -115 5 C-112.12240415 6.43879793 -111.70703287 8.33996099 -110.34765625 11.23828125 C-109.82365234 12.35501221 -109.29964844 13.47174316 -108.75976562 14.62231445 C-108.19315057 15.85198046 -107.62741766 17.08205327 -107.0625 18.3125 C-106.77576416 18.93281097 -106.48902832 19.55312195 -106.19360352 20.19223022 C-99.87134165 33.90004745 -94.26120122 47.8496748 -89 62 C-88.71688965 62.76054687 -88.4337793 63.52109375 -88.14208984 64.3046875 C-83.88212365 75.93270042 -80.99677401 87.99976021 -78 100 C-77.73509766 101.05171387 -77.47019531 102.10342773 -77.19726562 103.18701172 C-71.48871883 125.94172154 -71.48871883 125.94172154 -70.11254883 137.52075195 C-69.66636427 140.79526613 -69.14514216 142.80989697 -67.12109375 145.4609375 C-64.98601317 147.28464704 -64.98601317 147.28464704 -61.6875 147.3125 C-56.15712777 145.34406243 -54.21803358 141.76066658 -51 137 C-50.20415417 135.88245074 -49.40582648 134.76666615 -48.60546875 133.65234375 C-44.25741525 127.52771863 -40.15031958 121.31581861 -36.3203125 114.8515625 C-35.69648682 113.8011377 -35.07266113 112.75071289 -34.42993164 111.66845703 C-33.19662291 109.57591152 -31.97674376 107.47538563 -30.77124023 105.36669922 C-30.20864502 104.41037598 -29.6460498 103.45405273 -29.06640625 102.46875 C-28.57084229 101.60701172 -28.07527832 100.74527344 -27.56469727 99.85742188 C-27.04834717 99.24447266 -26.53199707 98.63152344 -26 98 C-21.80684705 98 -21.22538303 98.20005565 -18.05859375 100.52734375 C-17.31569092 101.06762207 -16.57278809 101.60790039 -15.80737305 102.16455078 C-15.02531494 102.74962402 -14.24325684 103.33469727 -13.4375 103.9375 C-12.22477417 104.83057861 -12.22477417 104.83057861 -10.98754883 105.74169922 C-3.63109152 111.19446991 3.42163921 116.93784143 10.37890625 122.890625 C10.95987061 123.3861084 11.54083496 123.8815918 12.1394043 124.39208984 C13.26280678 125.35193605 14.38298992 126.31556844 15.49926758 127.28369141 C21.10271968 132.35601053 21.10271968 132.35601053 28.125 133.9375 C31.52340162 132.82932556 32.25765516 132.0658911 34 129 C34.55959778 119.94034679 32.14221084 110.51210921 30.3125 101.6875 C30.17961578 101.0387088 30.04673157 100.3899176 29.90982056 99.72146606 C23.13455998 66.6751364 13.12066885 35.01078564 0.95874023 3.59082031 C0 1 0 1 0 0 Z " fill="#FDC53A" transform="translate(418,225)"/>
<path d="M0 0 C13.86 0 27.72 0 42 0 C38.77229045 9.14517707 35.54196064 18.27386752 32.22143555 27.3828125 C27.59649402 40.13260135 23.46371036 52.8896695 20 66 C19.5911899 67.4908975 19.18233645 68.98178312 18.7734375 70.47265625 C15.74053971 81.81067165 13.4574192 93.30284285 11.1875 104.8125 C11.02839142 105.61011749 10.86928284 106.40773499 10.70535278 107.22952271 C10.24786982 109.53313108 9.80011904 111.83841532 9.35546875 114.14453125 C9.21823395 114.83238708 9.08099915 115.52024292 8.93960571 116.22894287 C8.12352222 120.54181808 7.70158073 124.61481085 8 129 C9.9594012 132.1264113 9.9594012 132.1264113 13 134 C18.32168908 133.86658718 21.23325331 131.58422117 25 128.125 C26.15184143 127.11122742 27.30554645 126.09956899 28.4609375 125.08984375 C29.04842773 124.57276855 29.63591797 124.05569336 30.24121094 123.52294922 C35.31461567 119.12984834 40.67239368 115.07718503 46 111 C46.79937988 110.38527832 47.59875977 109.77055664 48.42236328 109.13720703 C51.00136869 107.16209961 53.59247417 105.20399705 56.1875 103.25 C57.0139502 102.61666748 57.84040039 101.98333496 58.69189453 101.33081055 C59.46774902 100.75242432 60.24360352 100.17403809 61.04296875 99.578125 C61.73414795 99.05637695 62.42532715 98.53462891 63.13745117 97.99707031 C63.75209229 97.66803711 64.3667334 97.33900391 65 97 C68.52826474 98.17608825 68.7535425 98.79470324 70.53125 101.91015625 C71.0065918 102.72750244 71.48193359 103.54484863 71.97167969 104.38696289 C72.47602539 105.26989014 72.98037109 106.15281738 73.5 107.0625 C78.9342475 116.35001737 84.74662928 125.24721852 91 134 C91.40831055 134.57202148 91.81662109 135.14404297 92.23730469 135.73339844 C95.85041058 141.08714219 95.85041058 141.08714219 100 146 C105.12715406 146.65029991 105.12715406 146.65029991 109.57226562 144.7331543 C111.24554566 142.70192739 111.51076 141.53109882 111.8515625 138.94140625 C111.97539307 138.09980957 112.09922363 137.25821289 112.22680664 136.39111328 C112.35821045 135.4576709 112.48961426 134.52422852 112.625 133.5625 C118.12106923 99.0944932 128.217023 64.39710214 142.78173828 32.66162109 C144.18666194 29.59218667 145.55975419 26.50924829 146.93359375 23.42578125 C147.9335598 21.19992014 148.93484112 18.9746494 149.9375 16.75 C150.64712891 15.16626587 150.64712891 15.16626587 151.37109375 13.55053711 C151.81453125 12.57995361 152.25796875 11.60937012 152.71484375 10.609375 C153.10792725 9.74280273 153.50101074 8.87623047 153.90600586 7.98339844 C155 6 155 6 157 5 C157 93.11 157 181.22 157 272 C105.19 272 53.38 272 0 272 C0 182.24 0 92.48 0 0 Z " fill="#FDC53A" transform="translate(52,225)"/>
<path d="M0 0 C21.12 0 42.24 0 64 0 C64 89.76 64 179.52 64 272 C42.88 272 21.76 272 0 272 C0 182.24 0 92.48 0 0 Z " fill="#FE433F" transform="translate(224,225)"/>
<path d="M0 0 C1.88944131 2.5443223 3.54568897 5.04898241 5.1875 7.75 C5.70578369 8.58982422 6.22406738 9.42964844 6.75805664 10.29492188 C8.52544649 13.18498681 10.26633225 16.08958445 12 19 C12.63228516 20.06025391 13.26457031 21.12050781 13.91601562 22.21289062 C37.52258577 62.07086811 56.35059346 104.99682719 68.05761719 149.88891602 C68.62598994 152.06629234 69.20306432 154.24122684 69.78125 156.41601562 C76.25702353 180.92857866 76.25702353 180.92857866 76 188 C72.08112168 185.44971457 68.31498484 182.77175102 64.59619141 179.93847656 C61.80889124 177.81606866 58.99829022 175.72542998 56.1875 173.63427734 C54.73980356 172.55270592 53.29699032 171.46456448 51.859375 170.36962891 C41.88526364 162.26796524 41.88526364 162.26796524 29.625 160.61328125 C28.820625 160.80470703 28.820625 160.80470703 28 161 C27.59031982 162.08655884 27.59031982 162.08655884 27.17236328 163.19506836 C26.03622709 165.91332508 24.73797462 168.34344983 23.2421875 170.87890625 C22.70247314 171.79518799 22.16275879 172.71146973 21.60668945 173.65551758 C21.03523193 174.61482178 20.46377441 175.57412598 19.875 176.5625 C19.29258545 177.54307373 18.7101709 178.52364746 18.11010742 179.53393555 C6.26141572 199.36929214 6.26141572 199.36929214 3 201 C2.79955078 200.13648926 2.59910156 199.27297852 2.39257812 198.38330078 C-8.36943417 152.30309736 -23.18779895 108.1010465 -47 67 C-47.49886719 66.13552246 -47.99773437 65.27104492 -48.51171875 64.38037109 C-54.17878344 54.6141539 -60.07776327 45.08645985 -66.69946289 35.93408203 C-70 31.30928935 -70 31.30928935 -70 28 C-69.35933594 27.731875 -68.71867187 27.46375 -68.05859375 27.1875 C-61.06717977 24.02000395 -55.51082238 20.02164477 -52 13 C-50.25683594 12.37744141 -50.25683594 12.37744141 -47.984375 11.8515625 C-46.73575684 11.55366821 -46.73575684 11.55366821 -45.46191406 11.24975586 C-44.56698242 11.04358643 -43.67205078 10.83741699 -42.75 10.625 C-36.85933108 9.21575155 -31.02331515 7.78175345 -25.25 5.9375 C-20.32799732 4.37140824 -15.38180027 3.01179895 -10.375 1.75 C-9.68696289 1.57460693 -8.99892578 1.39921387 -8.29003906 1.21850586 C-5.44349635 0.5132717 -2.94535027 0 0 0 Z " fill="#FD433F" transform="translate(357,143)"/>
<path d="M0 0 C5.85253886 0.67590462 11.33734641 2.08537843 17 3.6875 C23.09002867 5.40900062 29.1663801 7.06748869 35.34375 8.44921875 C36.37371094 8.68874268 37.40367187 8.9282666 38.46484375 9.17504883 C40.44103452 9.63078716 42.42287038 10.06290322 44.41015625 10.4675293 C50.58509877 11.92836874 53.29411215 13.77645185 56.73876953 19.11035156 C58.36133458 21.54137237 60.2136745 22.91348533 62.6875 24.4375 C63.43386719 24.91058594 64.18023437 25.38367188 64.94921875 25.87109375 C67.09157386 27.1307824 67.09157386 27.1307824 70 28 C69.38058778 31.13324071 68.33796101 33.28571291 66.55078125 35.921875 C66.03926514 36.68798096 65.52774902 37.45408691 65.00073242 38.2434082 C64.44361572 39.0705835 63.88649902 39.89775879 63.3125 40.75 C55.72161449 52.22395218 48.79210907 64.03983676 42 76 C41.60474121 76.68835938 41.20948242 77.37671875 40.80224609 78.0859375 C26.0455143 103.90156216 15.3934548 132.53442867 7 161 C6.7839209 161.72815918 6.5678418 162.45631836 6.34521484 163.20654297 C2.67646813 175.67695413 -0.22050058 188.30546309 -3 201 C-7.18083994 197.3168791 -9.84150483 192.81334816 -12.75 188.125 C-13.2756958 187.28453125 -13.8013916 186.4440625 -14.34301758 185.578125 C-26.12001828 166.63994517 -26.12001828 166.63994517 -28 161 C-36.56184991 159.95855595 -41.10788562 162.23024276 -47.8125 167.375 C-49.10909546 168.32596558 -49.10909546 168.32596558 -50.43188477 169.29614258 C-52.97515038 171.17180984 -55.4911002 173.0786921 -58 175 C-58.69254883 175.52674316 -59.38509766 176.05348633 -60.09863281 176.59619141 C-62.87554572 178.71190075 -65.63461639 180.84367078 -68.37109375 183.01171875 C-70.83198647 184.87292885 -73.32359686 186.46993287 -76 188 C-69.13580902 122.23147243 -36.05130409 54.58931317 0 0 Z " fill="#FD433F" transform="translate(155,143)"/>
<path d="M0 0 C9.56819957 5.65393611 13.29618102 18.92980033 17.00683594 28.82910156 C17.86951115 31.11048448 18.76978501 33.37459066 19.671875 35.640625 C24.03124526 46.9677524 27.00776348 58.9356055 21.9375 70.625 C14.48074349 83.00446206 1.15889768 85.0486756 -11.86328125 88.58203125 C-16.53148148 89.85650374 -21.17099701 91.218965 -25.81079102 92.59277344 C-35.06392216 95.33236672 -44.32367512 97.88573093 -53.70263672 100.15625 C-59.53105944 101.5850482 -65.26477524 103.23600251 -71 105 C-78.48240726 107.30047804 -85.99541611 109.31474971 -93.60107422 111.16479492 C-100.25775614 112.78968028 -106.8553622 114.58829721 -113.44189453 116.47680664 C-118.79857049 118 -118.79857049 118 -121 118 C-121.37327912 112.7538013 -121.64391207 107.51541877 -121.82397461 102.2590332 C-121.89903746 100.47608868 -122.00115007 98.69405678 -122.1315918 96.91430664 C-123.15178382 82.62761754 -123.15178382 82.62761754 -119.66259766 78.36685181 C-116.1385055 75.43288007 -112.14954505 73.57755735 -107.94033813 71.82266235 C-105.24575711 70.68021696 -102.72405284 69.26231013 -100.1640625 67.84765625 C-98.32241405 66.90997071 -96.47595978 65.9816687 -94.625 65.0625 C-93.11703857 64.31226562 -93.11703857 64.31226562 -91.57861328 63.546875 C-71.13484178 53.55425042 -49.62704177 43.96229597 -26.5625 43.6875 C-25.75490234 43.65849609 -24.94730469 43.62949219 -24.11523438 43.59960938 C-17.2516742 43.52771068 -12.24207634 45.32789171 -6.93359375 49.703125 C-6.19302734 50.46882813 -6.19302734 50.46882813 -5.4375 51.25 C-2.75859627 53.66530451 -2.03488143 53.99418643 1.75 54.625 C4.99124839 54.2748686 4.99124839 54.2748686 6.9375 52.375 C8.37270595 49.16689259 8.61667866 47.49451242 8 44 C3.6411949 36.53719733 -3.93961378 32.83262874 -11.875 30.1875 C-45.12898049 22.11749637 -84.87893754 41.66472714 -112.60791016 58.00317383 C-117.72068279 61 -117.72068279 61 -121 61 C-121.13277344 60.10796875 -121.26554687 59.2159375 -121.40234375 58.296875 C-121.57894531 57.12640625 -121.75554687 55.9559375 -121.9375 54.75 C-122.11152344 53.58984375 -122.28554688 52.4296875 -122.46484375 51.234375 C-122.87359084 48.76399111 -123.3727214 46.41720545 -124 44 C-106.58705163 35.48239642 -89.16591862 27.00456235 -71.55126953 18.91015625 C-65.04702631 15.91036657 -58.58045075 12.84628206 -52.140625 9.7109375 C-51.38963531 9.34535233 -50.63864563 8.97976715 -49.86489868 8.60310364 C-46.18515687 6.80960292 -42.50861873 5.00980141 -38.83544922 3.20288086 C-37.49708693 2.54798035 -36.15870881 1.89311223 -34.8203125 1.23828125 C-33.06098389 0.3726355 -33.06098389 0.3726355 -31.26611328 -0.51049805 C-20.47627201 -5.4311754 -10.56923638 -5.58743365 0 0 Z " fill="#FC433F" transform="translate(430,21)"/>
<path d="M0 0 C0.8446582 0.41878418 1.68931641 0.83756836 2.55957031 1.26904297 C5.69010364 2.82015418 8.83580918 4.33739755 11.984375 5.8515625 C15.65734793 7.61924037 19.32939532 9.38850693 22.99560547 11.17016602 C31.45357734 15.27820106 39.95368455 19.28393134 48.4921875 23.22265625 C62.19477674 29.54467886 75.78910952 36.07586606 89.3671875 42.66015625 C88.3771875 48.60015625 87.3871875 54.54015625 86.3671875 60.66015625 C82.87361708 59.26272808 79.79142314 57.89184787 76.515625 56.12109375 C47.25054933 40.46762182 7.28404679 19.47213657 -26.9453125 29.55078125 C-33.79897575 32.37990968 -40.59025225 36.70573282 -43.6328125 43.66015625 C-43.50440596 48.72953128 -43.50440596 48.72953128 -40.6328125 52.66015625 C-37.7108628 53.26889577 -36.44112813 53.44483268 -33.6328125 52.66015625 C-30.99499654 50.80015781 -28.63518273 48.78733156 -26.2578125 46.60546875 C-18.24205728 40.66522157 -6.68399615 41.89856563 2.78125 43.08984375 C20.78924963 46.57110382 37.9193652 53.73752814 54.3671875 61.66015625 C55.23327637 62.0773291 56.09936523 62.49450195 56.99169922 62.92431641 C59.62245456 64.20023033 62.2465325 65.48863214 64.8671875 66.78515625 C65.64328369 67.16841064 66.41937988 67.55166504 67.21899414 67.9465332 C68.76892092 68.72601222 70.30518418 69.53320912 71.82714844 70.3659668 C74.4321388 71.75803177 74.4321388 71.75803177 77.60253906 72.83911133 C81.30551483 74.41677993 83.63549742 75.68297115 86.3671875 78.66015625 C88.3461081 84.86124755 87.4885483 91.70219259 87.1171875 98.09765625 C87.05694639 99.89630695 87.00220175 101.69515068 86.953125 103.49414062 C86.82132206 107.88759774 86.61463583 112.27175521 86.3671875 116.66015625 C78.0423307 114.93855527 69.80288761 113.07935471 61.6171875 110.78515625 C60.67746094 110.52541016 59.73773438 110.26566406 58.76953125 109.99804688 C55.96763664 109.22269174 53.1672707 108.44202407 50.3671875 107.66015625 C48.82038488 107.23020826 47.2735145 106.80050397 45.7265625 106.37109375 C43.54957916 105.76659126 41.3727113 105.16169561 39.19628906 104.55517578 C33.25910849 102.90186697 27.31398046 101.27850928 21.3671875 99.66015625 C5.50662762 95.33889873 -10.32362105 90.94144905 -26.08984375 86.28515625 C-29.3083694 85.33473371 -32.5287594 84.40656925 -35.76953125 83.53515625 C-44.64559303 81.06099269 -50.91307351 78.12958937 -55.5703125 69.91015625 C-56.27644275 68.50268307 -56.96768689 67.08746442 -57.6328125 65.66015625 C-57.9628125 65.00015625 -58.2928125 64.34015625 -58.6328125 63.66015625 C-59.82215514 52.0060827 -57.69029215 42.80536112 -53.40820312 32.04882812 C-52.50399942 29.77556978 -51.63993151 27.49001298 -50.78125 25.19921875 C-45.83599157 12.20876781 -41.44329348 1.64692651 -28.2109375 -4.45703125 C-17.93349746 -7.97627587 -9.20058112 -4.46080242 0 0 Z " fill="#FC433F" transform="translate(116.6328125,22.33984375)"/>
<path d="M0 0 C7.59046801 -0.15441563 15.18051947 -0.2581453 22.7722168 -0.32958984 C25.34496185 -0.359429 27.91760826 -0.40011553 30.48999023 -0.45263672 C46.25410796 -0.76601423 60.01288451 0.03338597 74.94509888 5.28826904 C77.61686109 6.21365463 80.32244922 6.96269486 83.0546875 7.6875 C83.86268799 7.90817139 84.67068848 8.12884277 85.50317383 8.35620117 C86.28587646 8.56865479 87.0685791 8.7811084 87.875 9 C88.75502686 9.24145752 89.63505371 9.48291504 90.54174805 9.73168945 C95.50213213 11.08428341 100.47275292 12.37475642 105.46484375 13.60546875 C106.52525879 13.87037109 107.58567383 14.13527344 108.67822266 14.40820312 C110.73376668 14.91928714 112.79200624 15.4196746 114.85302734 15.90820312 C116.23482178 16.25334961 116.23482178 16.25334961 117.64453125 16.60546875 C118.87200073 16.90167114 118.87200073 16.90167114 120.12426758 17.20385742 C121.05275513 17.597948 121.05275513 17.597948 122 18 C123 21 123 21 121.92700195 23.28637695 C121.36972412 24.17800537 120.81244629 25.06963379 120.23828125 25.98828125 C119.61977295 26.99342773 119.00126465 27.99857422 118.36401367 29.03417969 C117.68701416 30.11602539 117.01001465 31.19787109 116.3125 32.3125 C114.91592952 34.59311092 113.52201819 36.87507869 112.1328125 39.16015625 C111.7811351 39.73724335 111.4294577 40.31433044 111.06712341 40.90890503 C101.98381643 55.86455822 94.13924354 71.41641191 86.84106445 87.30786133 C86 89 86 89 85 90 C82.35261911 90.09511266 79.73140999 90.12555635 77.08374023 90.11352539 C76.25454071 90.11367142 75.42534119 90.11381744 74.5710144 90.1139679 C71.81684802 90.11326851 69.06274839 90.10547493 66.30859375 90.09765625 C64.40430234 90.09579216 62.50001045 90.09436822 60.59571838 90.09336853 C55.57332037 90.08954263 50.55095108 90.07971173 45.52856445 90.06866455 C40.4077188 90.05845198 35.28686852 90.05387124 30.16601562 90.04882812 C20.11066443 90.03808953 10.0553346 90.02101224 0 90 C-0.03867187 88.77023438 -0.03867187 88.77023438 -0.078125 87.515625 C-0.16320312 85.89914063 -0.16320312 85.89914063 -0.25 84.25 C-0.29640625 83.18265625 -0.3428125 82.1153125 -0.390625 81.015625 C-1.12247551 77.39390325 -2.12886116 76.26025823 -5 74 C-6.32 73.34 -7.64 72.68 -9 72 C-9 67.05 -9 62.1 -9 57 C-6.69 56.34 -4.38 55.68 -2 55 C-1.01035763 52.03107289 -0.84726273 49.98850092 -0.79467773 46.88598633 C-0.77473251 45.84513382 -0.75478729 44.80428131 -0.73423767 43.73188782 C-0.71752518 42.60993515 -0.70081268 41.48798248 -0.68359375 40.33203125 C-0.6524221 38.60710701 -0.6524221 38.60710701 -0.62062073 36.84733582 C-0.55516658 33.16911875 -0.49625926 29.49082952 -0.4375 25.8125 C-0.39431087 23.32095604 -0.35069645 20.82941941 -0.30664062 18.33789062 C-0.19948939 12.22533699 -0.09771517 6.11271136 0 0 Z " fill="#FEC63A" transform="translate(16,119)"/>
<path d="M0 0 C1.66567017 0.00453186 1.66567017 0.00453186 3.36499023 0.00915527 C7.46998535 0.02472256 11.57484684 0.0666054 15.6796875 0.10546875 C24.8784375 0.16734375 34.0771875 0.22921875 43.5546875 0.29296875 C43.5546875 29.99296875 43.5546875 59.69296875 43.5546875 90.29296875 C15.5046875 90.29296875 -12.5453125 90.29296875 -41.4453125 90.29296875 C-44.0853125 85.01296875 -46.7253125 79.73296875 -49.4453125 74.29296875 C-57.59945341 58.18356842 -65.88327471 42.09950755 -75.93359375 27.06689453 C-76.40152344 26.35903809 -76.86945313 25.65118164 -77.3515625 24.921875 C-77.99061523 23.98130249 -77.99061523 23.98130249 -78.64257812 23.02172852 C-79.4453125 21.29296875 -79.4453125 21.29296875 -78.4453125 18.29296875 C-76.70214844 17.55688477 -76.70214844 17.55688477 -74.4296875 17.046875 C-73.18179443 16.7540564 -73.18179443 16.7540564 -71.90869141 16.45532227 C-71.01327637 16.25737061 -70.11786133 16.05941895 -69.1953125 15.85546875 C-67.34311984 15.42064432 -65.49155279 14.98314628 -63.640625 14.54296875 C-62.73989258 14.33027344 -61.83916016 14.11757812 -60.91113281 13.8984375 C-57.9239894 13.1649607 -54.99952764 12.2928176 -52.0703125 11.35546875 C-45.26586793 9.18440083 -38.38192283 7.33683996 -31.48486328 5.48657227 C-30.59138184 5.24608154 -29.69790039 5.00559082 -28.77734375 4.7578125 C-27.59748901 4.44251587 -27.59748901 4.44251587 -26.39379883 4.12084961 C-24.70053264 3.64541153 -23.01404422 3.13811851 -21.35876465 2.54377747 C-14.17303067 0.08305635 -7.55015758 -0.09823817 0 0 Z " fill="#FEC63A" transform="translate(452.4453125,118.70703125)"/>
<path d="M0 0 C1.15367065 -0.00145523 2.30734131 -0.00291046 3.49597168 -0.00440979 C5.93012014 -0.00275308 8.36427933 0.00878247 10.79833984 0.02954102 C14.51835756 0.05849341 18.23694929 0.05014417 21.95703125 0.03710938 C24.32552774 0.04334721 26.69401974 0.0517385 29.0625 0.0625 C30.17202026 0.05956436 31.28154053 0.05662872 32.42468262 0.05360413 C38.00860267 0.12162366 42.26199604 0.24614064 47.03125 3.49609375 C51.37408531 8.30842477 52.15894409 10.86974687 52.22412109 17.29736328 C52.23638733 18.34654182 52.23638733 18.34654182 52.24890137 19.41691589 C52.27376161 21.73757066 52.29027722 24.05816401 52.3046875 26.37890625 C52.31001118 27.17246395 52.31533485 27.96602165 52.32081985 28.78362656 C52.34756041 32.98790267 52.36692813 37.19214907 52.38134766 41.39648438 C52.39466228 44.86908454 52.4224667 48.34109365 52.46337891 51.81347656 C52.51283354 56.0109583 52.53748497 60.20790573 52.54457474 64.40566635 C52.5512678 66.00119734 52.56643911 67.59671733 52.59046555 69.19208145 C52.81004519 84.66100826 52.81004519 84.66100826 48.47880554 90.10371399 C42.90821551 95.46197251 36.60821133 94.94942555 29.31640625 94.9296875 C28.18730331 94.93492935 27.05820038 94.9401712 25.8948822 94.9455719 C23.51204245 94.95198239 21.129171 94.95066776 18.74633789 94.94213867 C15.10961301 94.93363086 11.47446042 94.96240275 7.83789062 94.99414062 C5.51822964 94.99575288 3.19856588 94.99517463 0.87890625 94.9921875 C-0.20357895 95.00342148 -1.28606415 95.01465546 -2.40135193 95.02622986 C-8.7900758 94.96754084 -12.90789512 94.54288912 -17.96875 90.49609375 C-21.35597143 85.48715186 -22.47079934 82.25937958 -22.48632812 76.09545898 C-22.4933374 75.3920639 -22.50034668 74.68866882 -22.50756836 73.96395874 C-22.52504021 71.66045562 -22.51356687 69.35820105 -22.5 67.0546875 C-22.50269775 65.44238552 -22.50658253 63.83008513 -22.51159668 62.2177887 C-22.51747677 58.84791488 -22.5089762 55.47846671 -22.49023438 52.10864258 C-22.46742685 47.79883481 -22.48058802 43.49002256 -22.50452423 39.18025112 C-22.51900716 35.85411635 -22.51436521 32.52821604 -22.50401306 29.20207405 C-22.5013536 27.61332136 -22.50458799 26.02454707 -22.51393127 24.43581963 C-22.52414081 22.21242069 -22.50853828 19.99061484 -22.48632812 17.76733398 C-22.48314575 16.50493393 -22.47996338 15.24253387 -22.47668457 13.94187927 C-21.70972642 8.73889948 -19.23814434 5.6853458 -15.46679688 2.15209961 C-10.32761754 -0.28083265 -5.61802603 -0.05688295 0 0 Z " fill="#FD433F" transform="translate(240.96875,62.50390625)"/>
<path d="M0 0 C5.85253886 0.67590462 11.33734641 2.08537843 17 3.6875 C23.09002867 5.40900062 29.1663801 7.06748869 35.34375 8.44921875 C36.37371094 8.68874268 37.40367187 8.9282666 38.46484375 9.17504883 C40.44103452 9.63078716 42.42287038 10.06290322 44.41015625 10.4675293 C50.58509877 11.92836874 53.29411215 13.77645185 56.73876953 19.11035156 C58.36133458 21.54137237 60.2136745 22.91348533 62.6875 24.4375 C63.43386719 24.91058594 64.18023437 25.38367188 64.94921875 25.87109375 C67.09157386 27.1307824 67.09157386 27.1307824 70 28 C69.36099618 31.3917472 68.06337475 33.72381745 66.1640625 36.58984375 C65.59429687 37.45673828 65.02453125 38.32363281 64.4375 39.21679688 C63.839375 40.11462891 63.24125 41.01246094 62.625 41.9375 C61.449803 43.71697406 60.27530192 45.49690794 59.1015625 47.27734375 C58.31773193 48.45671509 58.31773193 48.45671509 57.51806641 49.65991211 C55.95231944 52.07349922 54.46623966 54.52493263 53 57 C46.87953632 56.4027102 41.31668973 55.08264491 35.4375 53.3125 C26.78088059 50.76847922 18.08796438 48.43296576 9.34790039 46.1940918 C2.61552762 44.45646391 -4.05727621 42.57094099 -10.68652344 40.47241211 C-16.90146116 38.53862882 -16.90146116 38.53862882 -23 40 C-21.29856478 35.32795086 -18.97272459 31.08318692 -16.5625 26.75 C-16.13018066 25.97092285 -15.69786133 25.1918457 -15.25244141 24.38916016 C-10.54290683 16.01571881 -5.32217586 7.99338199 0 0 Z " fill="#E82E2E" transform="translate(155,143)"/>
<path d="M0 0 C1.28344727 1.47436523 1.28344727 1.47436523 2.56640625 3.55859375 C3.04754883 4.32969482 3.52869141 5.1007959 4.02441406 5.89526367 C4.53198242 6.73420166 5.03955078 7.57313965 5.5625 8.4375 C6.08682617 9.28610596 6.61115234 10.13471191 7.15136719 11.0090332 C12.22723195 19.26382292 17.1461414 27.6131337 22 36 C18.86783281 38.08811146 16.48933531 38.82715337 12.875 39.8125 C11.58569805 40.16840452 10.2966448 40.52521096 9.0078125 40.8828125 C8.33911133 41.0674707 7.67041016 41.25212891 6.98144531 41.44238281 C3.89074095 42.31216704 0.82297731 43.25726678 -2.25 44.1875 C-8.27705301 45.99686679 -14.3447187 47.62901704 -20.43359375 49.21484375 C-21.18812836 49.41190414 -21.94266296 49.60896454 -22.72006226 49.81199646 C-26.55946119 50.81376717 -30.40069143 51.80749333 -34.24511719 52.78979492 C-35.6882133 53.16431099 -37.13124962 53.5390575 -38.57421875 53.9140625 C-39.2330455 54.07958115 -39.89187225 54.24509979 -40.57066345 54.41563416 C-44.6767093 55.49138494 -48.26836648 56.98455146 -52 59 C-52.54527344 58.06800781 -53.09054687 57.13601562 -53.65234375 56.17578125 C-58.24165803 48.39867366 -63.03361997 40.91276846 -68.34765625 33.609375 C-70 31 -70 31 -70 28 C-69.35933594 27.731875 -68.71867187 27.46375 -68.05859375 27.1875 C-61.06717977 24.02000395 -55.51082238 20.02164477 -52 13 C-50.25683594 12.37744141 -50.25683594 12.37744141 -47.984375 11.8515625 C-46.73575684 11.55366821 -46.73575684 11.55366821 -45.46191406 11.24975586 C-44.56698242 11.04358643 -43.67205078 10.83741699 -42.75 10.625 C-36.85933108 9.21575155 -31.02331515 7.78175345 -25.25 5.9375 C-20.32799732 4.37140824 -15.38180027 3.01179895 -10.375 1.75 C-9.68696289 1.57460693 -8.99892578 1.39921387 -8.29003906 1.21850586 C-5.44349635 0.5132717 -2.94535027 0 0 0 Z " fill="#E82E2E" transform="translate(357,143)"/>
<path d="M0 0 C21.12 0 42.24 0 64 0 C64 89.76 64 179.52 64 272 C63.67 272 63.34 272 63 272 C63 191.15 63 110.3 63 27 C42.54 27 22.08 27 1 27 C1 107.85 1 188.7 1 272 C0.67 272 0.34 272 0 272 C0 182.24 0 92.48 0 0 Z " fill="#D52D2C" transform="translate(224,225)"/>
<path d="M0 0 C1.06613525 0.00370605 2.13227051 0.00741211 3.23071289 0.01123047 C9.09943363 0.4471391 12.77365074 1.47398342 16.8046875 5.875 C19.97936366 10.09177727 22.56049247 14.59668307 25.02392578 19.2578125 C27.04779017 23.00493275 29.42804668 26.47680975 31.8125 30 C35.4375 35.60227273 35.4375 35.60227273 35.4375 37.875 C12.3375 37.875 -10.7625 37.875 -34.5625 37.875 C-33.04540674 34.08226685 -31.76991152 31.44278384 -29.55078125 28.14453125 C-28.95716797 27.25830078 -28.36355469 26.37207031 -27.75195312 25.45898438 C-27.13255859 24.54439453 -26.51316406 23.62980469 -25.875 22.6875 C-25.27494141 21.79224609 -24.67488281 20.89699219 -24.05664062 19.97460938 C-22.84229765 18.16809485 -21.61505915 16.37018362 -20.37524414 14.58105469 C-18.52769487 11.89506862 -18.52769487 11.89506862 -16.95092773 9.03613281 C-12.52387114 1.61663373 -8.56982987 -0.06296912 0 0 Z " fill="#FDC53A" transform="translate(255.5625,171.125)"/>
<path d="M0 0 C13.86 0 27.72 0 42 0 C42 8.91 42 17.82 42 27 C26.16 27.495 26.16 27.495 10 28 C8.35 23.565625 6.7 19.13125 5 14.5625 C4.47792969 13.16201416 3.95585937 11.76152832 3.41796875 10.31860352 C3.01191406 9.22475342 2.60585938 8.13090332 2.1875 7.00390625 C1.76855469 5.87799072 1.34960938 4.7520752 0.91796875 3.59204102 C0 1 0 1 0 0 Z " fill="#EEAF25" transform="translate(418,225)"/>
<path d="M0 0 C13.86 0 27.72 0 42 0 C38.7015155 9.34570608 35.38691725 18.68597757 32 28 C21.44 27.67 10.88 27.34 0 27 C0 18.09 0 9.18 0 0 Z " fill="#EEAF25" transform="translate(52,225)"/>
<path d="M0 0 C3.10917016 3.10917016 4.79472962 6.17817163 6.6875 10.0625 C7.00783203 10.69994141 7.32816406 11.33738281 7.65820312 11.99414062 C10 16.73265925 10 16.73265925 10 19 C6.7 19 3.4 19 0 19 C0 12.73 0 6.46 0 0 Z " fill="#E9AC24" transform="translate(304,233)"/>
<path d="M0 0 C0.33 0 0.66 0 1 0 C1 6.27 1 12.54 1 19 C-2.3 19 -5.6 19 -9 19 C-7.6077541 14.37324343 -5.70479016 10.35313769 -3.375 6.125 C-2.74335938 4.97257813 -2.11171875 3.82015625 -1.4609375 2.6328125 C-0.97882813 1.76398438 -0.49671875 0.89515625 0 0 Z " fill="#E9AC24" transform="translate(207,233)"/>
</svg>
