<?xml version="1.0" encoding="utf-8"?>
<!-- Generator: Adobe Illustrator 24.2.3, SVG Export Plug-In . SVG Version: 6.00 Build 0)  -->
<svg version="1.1" id="Layer_1" xmlns="http://www.w3.org/2000/svg" xmlns:xlink="http://www.w3.org/1999/xlink" x="0px" y="0px"
	 viewBox="0 0 1000 1000" style="enable-background:new 0 0 1000 1000;" xml:space="preserve">
<style type="text/css">
	.st0{fill:#CA8D16;}
	.st1{fill:url(#SVGID_1_);}
	.st2{fill:url(#SVGID_2_);}
	.st3{fill:url(#SVGID_3_);}
	.st4{fill:url(#SVGID_4_);}
	.st5{fill:url(#SVGID_5_);}
	.st6{fill:url(#SVGID_6_);}
	.st7{fill:url(#SVGID_7_);}
	.st8{fill:url(#SVGID_8_);}
	.st9{fill:url(#SVGID_9_);}
	.st10{fill:url(#SVGID_10_);}
	.st11{fill:url(#SVGID_11_);}
	.st12{fill:url(#SVGID_12_);}
	.st13{fill:#229B59;}
</style>
<g>
	<g>
		<g>
			<g>
				<g>
					<path class="st0" d="M526.08,450.3c-0.3-0.06-3.9-10.86-4.07-7.55c-0.03,0.96-0.75,3.55-0.2,4.43
						c1.87,3.99,6.35,13.52,6.66,15.08C531.02,467.49,528.96,455.58,526.08,450.3z"/>
					<path class="st0" d="M534.23,473.46c0.08,0.34-1.06,3.14-0.27,3.14c1.94,0.09,2.53,0.91,3.16,0.19l0.51-2.79
						C537.4,473.08,534.78,472.73,534.23,473.46z M537.88,454.71c0.08,4.51,0.06,2.55,2.69,5.05c-2.18,4.23-22.17,14.73-20.69,4.96
						c-0.88-3.46-2.78,6.14,0.92,7.1c5.87,3.29,17.52-3.98,20.94-9.2C543.55,460.62,539.69,452.91,537.88,454.71z"/>
					<path class="st0" d="M549.1,469.34c-0.52-1.66-1.94-5.47-3.18-4.26c-2.33,6.56,0.73,4.31,2.07,8.84
						c-1.34,3.4-8.01,8.17-12.39,6.33c-2.77,0.48,2.78,2.3,4.32,3.07C546.6,484.13,551.14,475.19,549.1,469.34z"/>
					<path class="st0" d="M529.46,503.14c-8.05-0.42-7.95-10.64-3.52-15.53c1.95-2.78,4.11-3.85,5.25-5.94
						c1.22-6.09-1.16-2.62-4.19,0.7c-1.89,2.03-4.56,1.56-6.94,0.67c1.56-5.04,8.1-3.97,6.44-5.45c-6.24-5.78-12.23,9.85-3.39,9.94
						c-6.92,18.72,10.09,26.95,22.33,12.92C549.32,496.28,534.19,504.79,529.46,503.14z"/>
					<path class="st0" d="M551.22,479.13c-2.57,5.36,1.06,9.02,4.52,5.49c1.47,2.67-6.11,7.82-7.99,8.43
						c-2.42,0.98-4.79-0.11-6.25,0.81c0.31,1.38,2.43,1.09,4.31,1.74c4.3,0.79,5.1,0.93,8.29-2.75
						C561.57,486,556.92,466.56,551.22,479.13z M552.48,480.79c0.85-1.09,1.65-1.03,2.39,0.17
						C553.93,481.58,553.13,481.52,552.48,480.79z"/>
					<path class="st0" d="M537.87,491.6c-0.13-0.57-0.48-1.19-1.04-1.85c-0.56-0.66-1.24-1.34-2.04-2.05
						c-0.8-0.7-1.26-1.12-1.39-1.26l-0.24,0.07c-0.18,0.81-0.28,1.37-0.3,1.68c-0.76,0.67-1.37,1.34-1.82,2.03
						c-0.77,1.14-1.19,2.2-1.25,3.17c-0.12,1.75,0.37,3.04,1.48,3.87c0.48,0.37,1.14,0.58,1.99,0.64c1.36,0.1,2.56-0.34,3.6-1.31
						c0.28-0.3,0.53-0.75,0.75-1.36c0.21-0.6,0.34-1.18,0.38-1.72C538.04,492.81,538,492.18,537.87,491.6z M536.21,494.93
						c-0.88,0.55-1.78,0.8-2.7,0.73c-0.73-0.05-1.36-0.32-1.91-0.81c-0.54-0.49-0.79-1.04-0.75-1.66c0.08-1.16,1.02-2.36,2.83-3.61
						c1.13,0.77,1.99,1.57,2.57,2.39c0.55,0.8,0.81,1.44,0.78,1.9C537,494.25,536.73,494.61,536.21,494.93z"/>
				</g>
				<g>
					<path class="st0" d="M474.97,455.52c-0.53,0.51-1.21,1.21-2.04,2.11c1.26,1.29,2.07,2.14,2.43,2.57
						c0.78-0.55,1.47-1.22,2.08-2.02C476.63,457.15,475.81,456.26,474.97,455.52z M477.61,466.67l-1.31-3.18l-0.13-0.04
						c-0.59,0.78-1.21,1.66-1.87,2.66c0.86,1.62,1.6,3.35,2.23,5.19c0.15,0.62,0.22,1.03,0.2,1.23c-0.03,0.31-0.14,0.63-0.34,0.96
						c-0.93,1.63-2.18,2.96-3.77,3.98c-1.58,1.02-3.15,1.47-4.69,1.34c-0.83-0.08-1.64-0.3-2.46-0.65l-0.32,0.74
						c2.16,1.37,4.02,2.13,5.61,2.28c1.17,0.11,2.47-0.45,3.9-1.69c2.11-2.1,3.25-4.09,3.43-5.97l0.23-2.48
						C478.46,469.64,478.22,468.18,477.61,466.67z"/>
					<path class="st0" d="M462.22,457.31c-0.65,0.35-1.49,0.85-2.53,1.5c0.87,1.57,1.42,2.61,1.66,3.12c0.9-0.32,1.74-0.79,2.54-1.4
						C463.38,459.32,462.82,458.25,462.22,457.31z M453.32,477.38c0.95-0.58,2.1-0.99,3.43-1.24c2.11-0.38,4.92-0.58,8.44-0.61
						l1.85-2.46l-0.08-0.1c-2.09-0.01-4.3,0.09-6.62,0.28c-0.64,0.05-1.07,0.03-1.31-0.06c-0.43-0.17-1.04-0.83-1.8-1.99
						c-0.46-0.74-0.76-1.37-0.89-1.89c-0.13-0.53-0.11-1.02,0.07-1.49c0.18-0.46,0.78-0.75,1.8-0.88c1.02-0.13,2.09,0.02,3.2,0.44
						c1.18,0.45,2.18,1.1,3,1.94l0.51-0.32c-0.65-2.27-1.83-3.73-3.53-4.38c-0.77-0.29-1.58-0.35-2.43-0.18
						c-0.84,0.17-1.65,0.56-2.43,1.16c-1.04,0.83-1.76,1.78-2.17,2.87c-0.35,0.9-0.41,1.77-0.19,2.62c0.22,0.85,0.75,1.91,1.6,3.18
						c-3.11,1.15-5.14,2.98-6.09,5.48c-0.5,1.32-0.69,2.59-0.58,3.8c0.11,1.21,0.48,2.29,1.12,3.25c0.63,0.95,1.45,1.81,2.45,2.55
						c1.01,0.74,2.17,1.36,3.47,1.86c1.68,0.64,2.96,0.89,3.84,0.76c1.25-0.19,2.73-0.53,4.44-1.02v-0.43
						c-1.74-0.2-3.61-0.68-5.61-1.43c-2.87-1.09-4.98-2.53-6.34-4.31c-1.36-1.78-1.71-3.55-1.03-5.33
						C451.74,478.65,452.37,477.96,453.32,477.38z"/>
					<path class="st0" d="M470.76,483.34c-0.51,0.53-1.16,1.27-1.94,2.21c1.3,1.22,2.15,2.04,2.54,2.46
						c0.75-0.58,1.41-1.29,1.98-2.12C472.49,484.9,471.63,484.05,470.76,483.34z M476.34,495.29c-0.96-3.03-2.32-4.59-4.08-4.68
						c-0.96-0.05-1.95,0.4-2.98,1.36c-1.19,1.11-1.83,2.56-1.92,4.35c-0.03,0.55,0.05,1.1,0.25,1.64c0.65,1.66,2.42,2.56,5.29,2.71
						c1.09,0.06,1.91,0.07,2.46,0.04c0.06,0.18,0.09,0.35,0.08,0.5c-0.01,0.28-0.55,0.61-1.6,0.98c-0.94,0.36-1.96,0.64-3.05,0.83
						c-2.76,0.53-5.34,0.72-7.74,0.6c-3.17-0.16-5.53-0.77-7.09-1.81c-0.89-0.6-1.58-1.35-2.07-2.25c-0.48-0.9-0.7-1.86-0.65-2.88
						c0.05-0.98,0.33-2.11,0.83-3.39l-0.88-0.43c-0.97,1.62-1.51,3.41-1.61,5.38c-0.14,2.66,0.86,4.75,3,6.28
						c1.75,1.25,4.3,1.96,7.64,2.13c2.45,0.13,5.38-0.19,8.81-0.95c0.7-0.16,1.25-0.29,1.64-0.39c0.39-0.1,0.88-0.26,1.48-0.5
						c0.6-0.23,1.18-0.5,1.74-0.82c0.67-0.71,1.04-1.8,1.12-3.29C477.1,498.79,476.88,496.99,476.34,495.29z M468.81,495.4
						c0.02-0.45,0.32-0.88,0.89-1.3c0.57-0.41,1.21-0.6,1.91-0.57c0.86,0.05,1.62,0.53,2.27,1.44c0.65,0.91,1.07,1.96,1.25,3.13
						C470.83,497.91,468.72,497.01,468.81,495.4z"/>
					<path class="st0" d="M480.53,448.75c-0.52-1.91-1.35-3.58-2.47-5.02c-0.66-0.81-1.52-1.33-2.58-1.56
						c-0.69-0.14-1.44,0.01-2.24,0.47c-0.37,0.22-0.74,0.56-1.11,1.03c-0.36,0.46-0.6,0.92-0.69,1.36
						c-0.15,0.71-0.24,1.69-0.28,2.94c-0.92,0.37-1.79,1.19-2.59,2.45c-0.59,0.89-0.99,1.82-1.19,2.79
						c-0.16,0.74-0.2,1.61-0.12,2.63c0.08,0.88,0.2,2.06,0.37,3.56c0.16,1.5,0.29,2.68,0.37,3.55c0.09,0.87,0.14,1.81,0.16,2.81
						c0.02,1.01-0.03,1.81-0.14,2.42l0.51,0.18c0.63-1.29,1.03-2.33,1.2-3.14c0.13-0.63,0.18-1.31,0.15-2.02
						c-0.05-1.09-0.15-2.58-0.31-4.47c-0.16-1.9-0.26-3.41-0.31-4.55c-0.04-1.14,0.01-2.06,0.16-2.75c0.08-0.37,0.48-0.66,1.21-0.89
						c0.73-0.22,1.65-0.21,2.75,0.02c1.52,0.32,3.48,0.94,5.89,1.85c0.7-0.84,1.11-1.57,1.24-2.18
						C480.63,449.7,480.63,449.21,480.53,448.75z M478.19,449.2c-1.23-0.56-2.35-0.95-3.35-1.17c-1.23-0.26-2.26-0.34-3.08-0.23
						c0.36-0.56,0.69-1.23,1-2.01l0.17-1.16c0.49-0.06,0.96-0.05,1.4,0.04c0.94,0.2,1.7,0.66,2.28,1.37
						c0.58,0.72,1.15,1.7,1.72,2.94L478.19,449.2z"/>
					<path class="st0" d="M449.86,493.39c-1.81,0.32-3.49,0.48-5.05,0.48c-1.42,0-2.71-0.4-3.87-1.2c-0.76-0.52-1.14-1.15-1.14-1.89
						c0-0.36,0.28-0.71,0.84-1.05c0.82-0.56,1.68-0.84,2.58-0.84c0.66,0,1.19,0.24,1.59,0.72c0.34,0.44,0.63,1,0.87,1.68h0.18
						c0.92-0.86,1.38-1.79,1.38-2.79c0-0.68-0.28-1.24-0.85-1.68c-0.57-0.44-1.26-0.66-2.06-0.66c-0.8,0-1.68,0.2-2.64,0.61
						c-0.96,0.41-1.8,0.96-2.52,1.64c-1.34,1.26-2.01,2.63-2.01,4.11c0,1.64,1.1,2.84,3.3,3.6v0.15c-0.48,0.18-1.05,0.59-1.71,1.21
						l-1.35,2.19l0.3,0.3c2.98-1.76,6.58-2.88,10.8-3.37l1.48-2.97L449.86,493.39z"/>
				</g>
			</g>
			<g>
				<g>
					<g>
						<linearGradient id="SVGID_1_" gradientUnits="userSpaceOnUse" x1="510.4598" y1="330.8431" x2="588.0934" y2="393.3793">
							<stop  offset="0.0836" style="stop-color:#005523"/>
							<stop  offset="0.7194" style="stop-color:#3CB882"/>
						</linearGradient>
						<path class="st1" d="M605.5,326.84c-12.05,4.51-23.39,8.76-35.31,13.22c2.65,3.24,5.09,6.23,7.89,9.65
							c-10.73,4.04-21.04,8.09-31.48,11.77c-3.29,1.16-3.45,1.93-1.3,4.59c5.51,6.82,5.39,6.94-1.48,12.69
							c-12.06,10.11-24.13,20.2-36.24,30.33C488.14,357.83,552.89,299.04,605.5,326.84z"/>
						
							<linearGradient id="SVGID_2_" gradientUnits="userSpaceOnUse" x1="638.9061" y1="330.8431" x2="716.5397" y2="393.3793" gradientTransform="matrix(-1 0 0 1 1128.3933 0)">
							<stop  offset="0.0836" style="stop-color:#005523"/>
							<stop  offset="0.7194" style="stop-color:#3CB882"/>
						</linearGradient>
						<path class="st2" d="M394.45,326.84c12.05,4.51,23.39,8.76,35.31,13.22c-2.65,3.24-5.09,6.23-7.89,9.65
							c10.73,4.04,21.04,8.09,31.48,11.77c3.29,1.16,3.45,1.93,1.3,4.59c-5.51,6.82-5.39,6.94,1.48,12.69
							c12.06,10.11,24.13,20.2,36.24,30.33C511.81,357.83,447.06,299.04,394.45,326.84z"/>
					</g>
					<g>
						<linearGradient id="SVGID_3_" gradientUnits="userSpaceOnUse" x1="375.4858" y1="423.6099" x2="445.7084" y2="493.8325">
							<stop  offset="0.1482" style="stop-color:#005523"/>
							<stop  offset="0.7889" style="stop-color:#3CB882"/>
						</linearGradient>
						<path class="st3" d="M477.68,435.63c-13.91,11.66-27.55,22.96-41,34.47c-4.92,4.47-7.31-4.65-11.12-7.34
							c-5.65,9.52-11.39,18.64-16.52,28.1c-3.98,7.85-6.81-2.3-10.7-5.27c-6.42,10.8-12.65,21.25-19.05,32
							C360.89,464.93,425.6,408.15,477.68,435.63z"/>
						
							<linearGradient id="SVGID_4_" gradientUnits="userSpaceOnUse" x1="545.9191" y1="423.6099" x2="616.1417" y2="493.8325" gradientTransform="matrix(-1 0 0 1 1170.3802 0)">
							<stop  offset="0.1482" style="stop-color:#005523"/>
							<stop  offset="0.7889" style="stop-color:#3CB882"/>
						</linearGradient>
						<path class="st4" d="M522.26,435.63c13.91,11.66,27.55,22.96,41,34.47c4.92,4.47,7.31-4.65,11.12-7.34
							c5.65,9.52,11.39,18.64,16.52,28.1c3.98,7.85,6.81-2.3,10.7-5.27c6.42,10.8,12.65,21.25,19.05,32
							C639.06,464.93,574.35,408.15,522.26,435.63z"/>
					</g>
					<g>
						<linearGradient id="SVGID_5_" gradientUnits="userSpaceOnUse" x1="416.0899" y1="453.1288" x2="416.0899" y2="328.5041">
							<stop  offset="0.1065" style="stop-color:#3CB882"/>
							<stop  offset="0.8575" style="stop-color:#005523"/>
						</linearGradient>
						<path class="st5" d="M479.83,420.07c-18.09,0-35.64-0.1-53.18,0.09c-6.63,0.1-2.65-7.84-3.7-12.6
							c-12.02,4.19-23.56,8.22-35.52,12.39c-0.83-6.21,3.16-14.97-6.28-10.38c-9.58,3.42-19.15,6.84-28.8,10.3
							C369.97,368.54,459.14,365.31,479.83,420.07z"/>
						
							<linearGradient id="SVGID_6_" gradientUnits="userSpaceOnUse" x1="612.167" y1="453.1288" x2="612.167" y2="328.5041" gradientTransform="matrix(-1 0 0 1 1196.0242 0)">
							<stop  offset="0.1065" style="stop-color:#3CB882"/>
							<stop  offset="0.8575" style="stop-color:#005523"/>
						</linearGradient>
						<path class="st6" d="M520.11,420.07c18.09,0,35.64-0.1,53.18,0.09c6.63,0.1,2.65-7.84,3.7-12.6
							c12.02,4.19,23.56,8.22,35.52,12.39c0.83-6.21-3.16-14.97,6.28-10.38c9.58,3.42,19.15,6.84,28.8,10.3
							C629.97,368.54,540.81,365.31,520.11,420.07z"/>
					</g>
				</g>
				<g>
					<linearGradient id="SVGID_7_" gradientUnits="userSpaceOnUse" x1="499.9735" y1="509.969" x2="499.9735" y2="481.644">
						<stop  offset="0" style="stop-color:#3CA782"/>
						<stop  offset="0.1881" style="stop-color:#35A177"/>
						<stop  offset="0.5222" style="stop-color:#229158"/>
						<stop  offset="0.9607" style="stop-color:#037728"/>
						<stop  offset="1" style="stop-color:#007523"/>
					</linearGradient>
					<path class="st7" d="M513.71,481.64h-27.47c-1.49,0-2.71,1.2-2.74,2.69l-0.38,22.85c-0.03,1.53,1.21,2.78,2.74,2.78h28.23
						c1.53,0,2.76-1.25,2.74-2.78l-0.38-22.85C516.42,482.84,515.2,481.64,513.71,481.64z"/>
					<linearGradient id="SVGID_8_" gradientUnits="userSpaceOnUse" x1="499.9735" y1="479.0238" x2="499.9735" y2="450.6989">
						<stop  offset="0" style="stop-color:#3CA782"/>
						<stop  offset="0.1881" style="stop-color:#35A177"/>
						<stop  offset="0.5222" style="stop-color:#229158"/>
						<stop  offset="0.9607" style="stop-color:#037728"/>
						<stop  offset="1" style="stop-color:#007523"/>
					</linearGradient>
					<path class="st8" d="M513.19,450.7h-26.44c-1.49,0-2.71,1.2-2.74,2.69l-0.38,22.85c-0.03,1.53,1.21,2.78,2.74,2.78h27.2
						c1.53,0,2.76-1.25,2.74-2.78l-0.38-22.85C515.9,451.9,514.69,450.7,513.19,450.7z"/>
					<linearGradient id="SVGID_9_" gradientUnits="userSpaceOnUse" x1="499.9735" y1="454.2167" x2="499.9735" y2="421.6113">
						<stop  offset="0" style="stop-color:#3CA782"/>
						<stop  offset="0.1881" style="stop-color:#35A177"/>
						<stop  offset="0.5222" style="stop-color:#229158"/>
						<stop  offset="0.9607" style="stop-color:#037728"/>
						<stop  offset="1" style="stop-color:#007523"/>
					</linearGradient>
					<path class="st9" d="M512.68,419.73h-25.41c-1.49,0-2.71,1.2-2.74,2.69l-0.38,22.88c-0.03,1.53,1.21,2.78,2.74,2.78h26.17
						c1.53,0,2.76-1.25,2.74-2.78l-0.38-22.88C515.39,420.92,514.17,419.73,512.68,419.73z"/>
					<linearGradient id="SVGID_10_" gradientUnits="userSpaceOnUse" x1="499.9735" y1="571.8594" x2="499.9735" y2="543.5345">
						<stop  offset="0" style="stop-color:#3CA782"/>
						<stop  offset="0.1881" style="stop-color:#35A177"/>
						<stop  offset="0.5222" style="stop-color:#229158"/>
						<stop  offset="0.9607" style="stop-color:#037728"/>
						<stop  offset="1" style="stop-color:#007523"/>
					</linearGradient>
					<path class="st10" d="M482.48,546.22l-0.38,22.85c-0.03,1.53,1.21,2.78,2.74,2.78h30.28c1.53,0,2.76-1.25,2.74-2.78
						l-0.38-22.85c-0.02-1.49-1.24-2.69-2.74-2.69h-29.52C483.72,543.53,482.5,544.73,482.48,546.22z"/>
					<linearGradient id="SVGID_11_" gradientUnits="userSpaceOnUse" x1="499.9735" y1="540.9142" x2="499.9735" y2="512.5892">
						<stop  offset="0" style="stop-color:#3CA782"/>
						<stop  offset="0.1881" style="stop-color:#35A177"/>
						<stop  offset="0.5222" style="stop-color:#229158"/>
						<stop  offset="0.9607" style="stop-color:#037728"/>
						<stop  offset="1" style="stop-color:#007523"/>
					</linearGradient>
					<path class="st11" d="M514.22,512.59h-28.5c-1.49,0-2.71,1.2-2.74,2.69l-0.38,22.85c-0.03,1.53,1.21,2.78,2.74,2.78h29.26
						c1.53,0,2.76-1.25,2.74-2.78l-0.38-22.85C516.93,513.79,515.72,512.59,514.22,512.59z"/>
					<linearGradient id="SVGID_12_" gradientUnits="userSpaceOnUse" x1="499.9735" y1="602.8046" x2="499.9735" y2="574.4797">
						<stop  offset="0" style="stop-color:#3CA782"/>
						<stop  offset="0.1881" style="stop-color:#35A177"/>
						<stop  offset="0.5222" style="stop-color:#229158"/>
						<stop  offset="0.9607" style="stop-color:#037728"/>
						<stop  offset="1" style="stop-color:#007523"/>
					</linearGradient>
					<path class="st12" d="M484.32,602.8h31.31c1.53,0,2.76-1.25,2.73-2.78l-0.38-22.85c-0.02-1.49-1.24-2.69-2.74-2.69H484.7
						c-1.49,0-2.71,1.2-2.74,2.69l-0.38,22.85C481.56,601.55,482.79,602.8,484.32,602.8z"/>
				</g>
			</g>
		</g>
		<g>
			<path class="st13" d="M407.22,571.03c2.87,0,5.26-0.93,7.12-2.8c1.88-1.89,2.82-4.16,2.82-6.81c0-2.63-0.94-4.9-2.82-6.78
				c-1.87-1.87-4.25-2.81-7.12-2.81c-2.88,0-5.24,0.94-7.13,2.81c-1.87,1.88-2.8,4.15-2.8,6.78c0,2.66,0.93,4.92,2.8,6.81
				C401.98,570.1,404.34,571.03,407.22,571.03z"/>
			<path class="st13" d="M433.07,571.03c2.86,0,5.23-0.93,7.11-2.8c1.89-1.89,2.83-4.16,2.83-6.81c0-2.63-0.94-4.9-2.83-6.78
				c-1.88-1.87-4.25-2.81-7.11-2.81c-2.88,0-5.26,0.94-7.13,2.81c-1.87,1.88-2.81,4.15-2.81,6.78c0,2.66,0.94,4.92,2.81,6.81
				C427.82,570.1,430.19,571.03,433.07,571.03z"/>
			<path class="st13" d="M560.71,571.03c2.85,0,5.23-0.93,7.16-2.8c1.9-1.89,2.87-4.16,2.87-6.81c0-2.63-0.97-4.9-2.87-6.78
				c-1.93-1.87-4.31-2.81-7.16-2.81c-2.73,0-5.05,0.94-6.98,2.81c-1.91,1.88-2.86,4.15-2.86,6.78c0,2.66,0.94,4.92,2.86,6.81
				C555.66,570.1,557.98,571.03,560.71,571.03z"/>
			<path class="st13" d="M626.7,571.03c2.85,0,5.23-0.93,7.13-2.8c1.93-1.89,2.88-4.16,2.88-6.81c0-2.63-0.96-4.9-2.88-6.78
				c-1.9-1.87-4.29-2.81-7.13-2.81c-2.75,0-5.08,0.94-6.98,2.81c-1.93,1.88-2.89,4.15-2.89,6.78c0,2.66,0.97,4.92,2.89,6.81
				C621.62,570.1,623.94,571.03,626.7,571.03z"/>
			<path class="st13" d="M636.83,645.78c-5.34,4.65-12.72,7.18-21.23,7.43h-12.08l-3.68-0.1c-2.42,0.02-4.82-0.41-7.22-1.28
				c-2.37-0.87-4.57-2.82-6.58-5.9c-1.99,3.09-4.17,5.06-6.54,5.95c-2.39,0.88-4.79,1.33-7.21,1.33h-54.04
				c-4.75,0-8.59-1.13-11.52-3.4c-2.91-2.25-5.17-4.77-6.7-7.54c-1.89,3.66-4.54,6.38-7.96,8.22c-3.43,1.81-7.44,2.72-12.09,2.72
				H450.9c-7.66,0-13.87-6.21-13.87-13.87V620.9c-0.06-2.99-0.56-5.97-1.64-8.68c-0.91-2.27-2.05-3.98-3.34-5.02
				c-8.45-6.72-27.11,6.38-33.58,10.69c-6.29,4.19-11.08,8.74-14.57,12.05l-0.04,0.04c-1.47,1.4-0.62,4.18,1.28,4.18l38.76-0.08
				v5.26c0,7.66-6.21,13.87-13.87,13.87h-49.84c-6.98,0.01-9.96-9.55-6.21-15.68c5.23-8.55,12.53-15.58,19.61-22.31
				c3.71-3.53,9.32-8.85,16.78-13.82c10.47-6.98,34.99-23.32,51.88-9.89c5.46,4.35,9.37,11.51,11.35,20.8c0,0,0.01,0.06,0.03,0.16
				c0.11,0.72,0.57,3.76,0.61,6.41l0.09,5.15c0.1,5.54,4.61,9.97,10.15,9.97h6.52c5.62,0,10.21-4.52,10.29-10.14l0.23-15.74
				c0.03-1.49,1.24-2.69,2.74-2.69h31.54c1.5,0,2.71,1.2,2.74,2.69l0.24,15.78c0.08,5.63,4.67,10.14,10.3,10.14l48.68-0.04
				c-0.96-1.97-1.91-4.24-2.73-6.8c-0.2-0.63-0.39-1.25-0.55-1.86c-0.32-1.13-0.55-2.3-0.7-3.47c-0.22-1.74-0.45-3.23-0.65-4.43
				c-0.6-3.62-0.93-4.68-1.56-5.75c-0.89-1.53-2.03-2.52-2.82-3.09c-1.51-1.04-4.78-2.98-9.37-3.4c-3.77-0.35-6.78,0.48-8.44,1.07
				c-3.43,1.19-6.86,2.37-10.29,3.56L536,591.77c1.33-0.43,3.08-0.98,5.23-1.65c2.16-0.65,4.44-1.29,6.86-1.91
				c2.44-0.59,4.95-1.13,7.55-1.57c2.6-0.44,5.05-0.66,7.36-0.66c5.31,0,9.75,0.95,13.34,2.81c3.58,1.88,6.52,4.31,8.78,7.29
				s3.95,6.27,5.05,9.86c0.44,1.45,0.91,2.55,1.3,4.09c0.24,0.98,0.4,1.88,0.7,3.65c0.6,3.54,0.65,4.62,1.23,6.99
				c0.21,0.88,0.39,1.5,0.51,1.89c0.28,0.91,0.57,1.72,0.84,2.4c0,0.01,0,0.01,0,0.01c0.15,0.41,0.3,0.78,0.44,1.09
				c0.68,1.45,1.39,2.61,2.04,3.53c0,0.01,0.01,0.02,0.01,0.02c2.3,2.69,5.71,4.4,9.52,4.4h8.69c0.93-0.03,1.81-0.09,2.63-0.19
				c4.37-0.76,7.96-3.79,9.51-7.84c0.42-1.32,0.69-2.79,0.83-4.38c0.12-1.42,0.12-2.94,0-4.55c-0.14-2.04-0.49-4.24-1.05-6.55
				c-0.77-3.17-1.94-6.57-3.55-10.13c-1.66-3.66-0.78-8.94,2.06-11.78l0.07-0.06c4.43-4.43,11.85-3.09,14.57,2.55
				C651.12,613.06,649.93,634.37,636.83,645.78z"/>
		</g>
	</g>
	<g>
		<path class="st0" d="M435.74,680.31h-5.29l-7.05-10.64v10.64h-5.29v-19.04h5.29l7.05,10.77v-10.77h5.29V680.31z"/>
		<path class="st0" d="M456.21,677.2h-6.75l-1.03,3.11h-5.56l6.94-19.04h6.1l6.91,19.04h-5.59L456.21,677.2z M454.88,673.15
			l-2.05-6.16l-2.03,6.16H454.88z"/>
		<path class="st0" d="M481.21,680.31l-5.97-8.34v8.34h-5.29v-19.04h5.29v8.21l5.91-8.21h6.1l-6.99,9.23l7.34,9.8H481.21z"/>
		<path class="st0" d="M511.99,661.27v19.04h-5.29v-7.64h-6.45v7.64h-5.29v-19.04h5.29v7.16h6.45v-7.16H511.99z"/>
		<path class="st0" d="M525.7,676.26h5.91v4.05h-11.21v-19.04h5.29V676.26z"/>
		<path class="st0" d="M551.11,677.2h-6.75l-1.03,3.11h-5.56l6.94-19.04h6.1l6.91,19.04h-5.59L551.11,677.2z M549.79,673.15
			l-2.05-6.16l-2.02,6.16H549.79z"/>
		<path class="st0" d="M581.89,661.27v19.04h-5.29v-7.64h-6.45v7.64h-5.29v-19.04h5.29v7.16h6.45v-7.16H581.89z"/>
	</g>
</g>
</svg>
