<?xml version="1.0" encoding="utf-8"?>
<!-- Generator: Adobe Illustrator 27.3.1, SVG Export Plug-In . SVG Version: 6.00 Build 0)  -->
<svg version="1.1" id="Layer_1" xmlns="http://www.w3.org/2000/svg" xmlns:xlink="http://www.w3.org/1999/xlink" x="0px" y="0px"
	 viewBox="0 0 512 512" style="enable-background:new 0 0 512 512;" xml:space="preserve">
<style type="text/css">
	.st0{fill:#FFFFFF;}
	.st1{fill:#AE6AD0;}
	.st2{fill:#FFFFFF;stroke:#AE6AD0;stroke-width:6;stroke-miterlimit:10;}
</style>
<path class="st0" d="M156.3,359.9c-7.9-0.8-14.4-3.9-18.6-10.2c-2.6-4-5.3-8.8-5.5-13.3c-0.6-13.2,0-26.5,0.1-39.7
	c0-0.7,0.2-1.5-0.4-1.9c3.1,11.2,5.6,22.6,9.6,33.4C145.5,338.9,151.1,349,156.3,359.9z"/>
<path class="st0" d="M102.2,141.2c0,4.4-3.6,7.8-7.9,7.7c-4.4-0.1-7.6-3.6-7.6-8.1c0-4.3,3.8-7.8,8-7.7
	C99,133.2,102.2,136.7,102.2,141.2z"/>
<g>
	<path class="st1" d="M233.2,313.3c-8.3,0-14.6-6.3-14.6-14.6v-85.5c0-8.3,6.3-14.6,14.6-14.6s14.6,6.3,14.6,14.6v85.5
		C247.7,307,241.4,313.3,233.2,313.3z"/>
	<path class="st1" d="M188,358.5c-8.3,0-14.6-6.3-14.6-14.6V168.1c0-8.3,6.3-14.6,14.6-14.6s14.6,6.3,14.6,14.6v175.8
		C202.6,352.1,196.3,358.5,188,358.5z"/>
	<path class="st1" d="M142.4,400.7c-8.3,0-14.6-6.3-14.6-14.6V125.9c0-8.3,6.3-14.6,14.6-14.6c8.3,0,14.6,6.3,14.6,14.6v260.3
		C156.9,394.4,150.6,400.7,142.4,400.7z"/>
	<path class="st1" d="M97.2,358.5c-8.3,0-14.6-6.3-14.6-14.6V168.1c0-8.3,6.3-14.6,14.6-14.6s14.6,6.3,14.6,14.6v175.8
		C111.8,352.1,105.5,358.5,97.2,358.5z"/>
	<path class="st1" d="M51.6,316.2c-8.3,0-14.6-6.3-14.6-14.6v-91.3c0-8.3,6.3-14.6,14.6-14.6s14.6,6.3,14.6,14.6v91.3
		C66.1,309.9,59.8,316.2,51.6,316.2z"/>
	<path class="st1" d="M369.6,400.7c-8.3,0-14.6-6.3-14.6-14.6V125.9c0-8.3,6.3-14.6,14.6-14.6c8.3,0,14.6,6.3,14.6,14.6v260.3
		C384.2,394.4,377.9,400.7,369.6,400.7z"/>
	<path class="st1" d="M324,358.5c-8.3,0-14.6-6.3-14.6-14.6V168.1c0-8.3,6.3-14.6,14.6-14.6c8.3,0,14.6,6.3,14.6,14.6v175.8
		C338.6,352.1,332.2,358.5,324,358.5z"/>
	<path class="st1" d="M278.8,335.6c-8.3,0-14.6-6.3-14.6-14.6V190.9c0-8.3,6.3-14.6,14.6-14.6c8.3,0,14.6,6.3,14.6,14.6v130.1
		C293.4,329.3,287.1,335.6,278.8,335.6z"/>
	<path class="st1" d="M414.8,358.5c-8.3,0-14.6-6.3-14.6-14.6V168.1c0-8.3,6.3-14.6,14.6-14.6c8.3,0,14.6,6.3,14.6,14.6v175.8
		C429.4,352.1,423,358.5,414.8,358.5z"/>
	<path class="st1" d="M460.4,316.2c-8.3,0-14.6-6.3-14.6-14.6v-91.3c0-8.3,6.3-14.6,14.6-14.6c8.3,0,14.6,6.3,14.6,14.6v91.3
		C475,309.9,468.7,316.2,460.4,316.2z"/>
</g>
<circle class="st2" cx="142.4" cy="256" r="68.6"/>
<g>
	<path class="st1" d="M179.4,224.1c-6.7,0.7-8.9,1.8-9.2,6.6c-0.1,3.4-0.3,7.8-0.3,17.5v42h-4L121,235.4v26.2
		c0,9.4,0.3,14.2,0.5,17.2c0.2,5.3,2.8,6.9,10.4,7.5v2.9h-25.5v-2.9c6.5-0.5,9-2.1,9.4-7.2c0.3-3.4,0.5-8.1,0.5-17.6v-26.7
		c0-2.9-0.2-4.6-2.1-6.9c-2-2.6-4.2-3.3-9.3-3.8v-2.9h15.7l44.5,52.7v-25.7c0-9.8-0.2-14.3-0.5-17.4c-0.3-4.7-2.7-6.2-11.1-6.7v-2.9
		h25.9V224.1z"/>
</g>
</svg>
