<?xml version="1.0" encoding="utf-8"?>
<!-- Generator: Adobe Illustrator 27.3.1, SVG Export Plug-In . SVG Version: 6.00 Build 0)  -->
<svg version="1.1" id="Layer_1" xmlns="http://www.w3.org/2000/svg" xmlns:xlink="http://www.w3.org/1999/xlink" x="0px" y="0px"
	 viewBox="0 0 512 512" style="enable-background:new 0 0 512 512;" xml:space="preserve">
<style type="text/css">
	.st0{fill:#FFFFFF;}
	.st1{fill:#458350;}
	.st2{fill:#7E604D;}
	.st3{fill:#8E6E59;}
	.st4{fill:#AC866B;}
</style>
<path class="st0" d="M370.9,187.7l6.5-5.8l-6.9-0.6l-0.1-0.2l11-0.8l1.3,0.8l1-0.9l6-0.5l-2-3.2l24-21.7l-12.8-10l11.6-8.9
	l-40.2-5.7l4.1-7.8l-20.1,5.5l-0.2,0l-0.1,0.1l-22,6c0.6-0.7,1.2-1.4,1.8-2.2l12.3-15.8l-4.8-1c1-1.5,1.9-3,2.8-4.6l9.1-15.3
	l-1.5-0.3l-0.5-6.4c-0.5-6.6-1.2-13.1-2.2-19.5l-2.3-15.5c0,0-14.7,5.8-14.8,5.9l-1-17.3l-15.9,20.3l-5.5,0.4
	c0.8-3.6,1.8-7.2,3-10.6l9.2-26.6l-25.9,11.2c-7.4,3.2-14.5,6.8-21.3,10.9l-1.8,1.1l-1.3,1.6c-4.3,5-8.2,10.3-11.7,15.7l-0.4,0.7
	l-0.3,0.7c-1.7,3.6-3.2,7.2-4.6,10.9l-4.2-2.2l-3,13.4l-3.6-6.6l0.3-3.9l-6.1-6.7l-9.5-17.3l-1.3,5.5l-15.4-16.8l-4.5,9.9
	l-34.3-18.1l4.3,43.3l3.6,6.3l-36.2-17.2l7.3,16.3l-16.6,1.7l13,35.9l-1.8,1l2.9,2.2l0.2,0.5l0.5,0l14,10.6l-3.9,1.9l0.9,0.6
	l-7.5-1.1l-0.3-0.2l-0.4,0.1l-19.4-2.9l4.5,7l-38.1,10.5l11.6,7.2l-11.5,11.3l24.6,18.3l-1.9,4l6.8-0.3l1.2,0.9l1.4-1.1l9.1-0.4
	l-2.2,3.9l9.7-0.8c-0.1,0.8-0.2,1.6-0.3,2.4c-0.6,0.6-1.1,1.3-1.6,1.9c-1.4,2.1-2.8,4.1-4.1,6.3c-2.8,4.6-3,10.3-0.4,15
	c2.5,4.6,7.4,7.4,12.6,7.4l0.4,0l0.3,0c1.8-0.1,3.6-0.1,5.4-0.1l1.2,0c2,0,3.9-0.4,5.7-1.2c2.6-1.1,5.4-2.2,8.1-3l1-0.3l1-0.5
	c2.6-1.3,5.3-2.6,8-3.7c0.9,0.2,1.8,0.3,2.7,0.3c1.7,0,3.4-0.3,5.1-0.9c3-1.1,6-2.1,9.1-3c0.7-0.2,1.4-0.5,2.1-0.8
	c4.2,1.6,8,3,11.4,3.6c-0.8,4.2,0.1,8.7,2.8,12.3l4.5,5.8c1,6.4,3.5,11.7,7.3,15.8c-0.1,1.3-0.2,2.7-0.3,4c-5.7,4.1-7.9,11.7-5,18.3
	l3.7,8.8c-0.1,3.5-0.3,7.1-0.4,10.7c-3.2,4.1-4.2,9.7-2.2,14.9l1.7,4.6c-0.1,6-0.2,12.1-0.3,18.3c-3.3,4.2-4.3,10-2.1,15.3l1.9,4.7
	c0,6.4,0,12.9,0,19.5c-3.8,4.5-4.7,11-2,16.6l2.1,4.2c0,7.2,0.1,14.4,0.2,21.8c-5.7,4.4-7.5,12.4-4.1,19l4.4,8.7
	c0,2.6,0.1,5.1,0.1,7.7l-3.4,33.6l29.3,0.4l6.6,0.1l0,0l19.5,0.3l1.3-18.8l-1-7.1l-3.5-0.4c0-2.2,0.1-4.5,0.1-6.7l2.2-4.3
	c2.8-5.6,1.9-12.1-1.8-16.6c0.1-6.4,0.2-12.7,0.2-19l1.4-2.6c2.9-5.4,2.3-11.9-1.2-16.6c0-7.4,0.1-14.8,0.1-22.1l2.1-5.4
	c2-5.2,1-10.8-2.2-15c0-8-0.1-15.8-0.3-23.2l1.9-6.4c1.4-4.7,0.4-9.6-2.3-13.3c0-1.2-0.1-2.5-0.1-3.7c-0.1-4.5-0.3-9-0.5-13.4
	l2.6-8.1c1.8-5.6,0.2-11.6-3.8-15.5c-0.2-3.7-0.5-7.2-0.7-10.7c0.2-0.2,0.4-0.4,0.6-0.5c0.2-0.2,0.5-0.5,0.7-0.7
	c0.3-0.3,0.6-0.7,0.9-1.1c0.2-0.3,0.4-0.5,0.7-0.8c0.3-0.4,0.5-0.8,0.8-1.2c0.2-0.3,0.4-0.6,0.5-0.9c0.3-0.4,0.5-0.9,0.7-1.4
	c0.1-0.3,0.3-0.6,0.5-0.9c0.2-0.5,0.4-1,0.6-1.5c0.1-0.3,0.3-0.7,0.4-1c0.1-0.4,0.2-0.8,0.3-1.1l6.9-11.6c1.8-3,2.4-6.4,2-9.7
	l34.5,8.1l0.1-0.4l29,9.5l-1.1-4.3l10.3,3l0.9,1.2l1.3-0.5l5.9,1.7l-0.8-3.8l29.8-11.9l-8.5-13.8l13.8-4.2L370.9,187.7z"/>
<g id="_x37__1_">
	<g>
		<g>
			<g>
				<path class="st1" d="M110.3,165.7l9.3-9.1l11.8,0.9l-8.8-5.4l21.7-6l14,9.4l-6-9.4l31.3,4.7l12.9,12.6l2.6-6l18.9,19.5
					c0,0,0.7-7,0.9-5c0.2,1.9,29.7,30.3,29.7,30.3s-30.7-22.9-44-23.3l-26.4-0.2l1.6-10.8l-6.4,9.5l-18.7,1.5l8-14.7l-12.5,11.7
					l-14.6,0.7l5.5-11.2l-8,1.2l-10.7,8.3L110.3,165.7z"/>
				<path class="st1" d="M390.8,219l-6.8-11.1l-12.2-2l10.3-3.1l-20.2-11.2l-16.6,5.8l8.6-7.7l-32.8-3l-16.4,9.1l-1-6.4l-24.4,14.4
					c0,0,1.2-7,0.5-5.1c-0.7,1.9-38.2,22.3-38.2,22.3s37.1-14.8,50.6-12l26.6,6.2l1.4-10.9l3.8,10.7l18.4,6l-4-16.3l9.4,14.4
					l14.4,4.2l-2.4-12.2l7.8,3.1l8.5,10.7L390.8,219z"/>
				<path class="st1" d="M401.1,151.2l-10.3-8l-12.2,2.4l8.6-6.6l-23-3.3l-13.7,11.3l5.4-10.2l-32,8.8l-12.3,14.3l-3.2-5.7l-18,22.2
					c0,0-1.3-7-1.3-5c0,2-28.2,34.4-28.2,34.4s29.8-27,43.6-29.2l27.3-3.6l-2.5-10.7l7.4,8.7l19.4-0.9l-9.5-13.8l13.9,10.2l15.1-1.2
					l-6.6-10.6l8.4,0.2l11.7,7.1L401.1,151.2z"/>
				<path class="st1" d="M341.8,61.2c-4,1.6-8,3.1-12,4.5c-1.5,4.4-3.1,8.8-4.9,13.1c0-4.2-0.2-8.4-0.4-12.6
					c-5,6.4-10.3,12.4-15.8,18c0.1,6.6,0,13.1-0.4,19.7c-1.2-4.1-2.5-8.2-3.9-12.2c-4.6,10.8-10,21.1-16.1,30.8
					c0,6.7-0.3,13.5-0.9,20.3c-2-0.9-3.9-1.9-5.9-2.8c-0.6,10.1-1.9,20.3-3.9,30.6c0,0-4.5-5.6-3.6-3.8c2.5,1.9-13.1,47.4-14.7,47.3
					c1.3,0.2,21.5-40.8,31-51.8c7.5-6.9,14.5-14.3,21.2-22.3c-2.8-2.5-5.7-4.9-8.6-7.3c3.8,0.7,7.5,1.3,11.3,1.9
					c4.9-5.3,9.7-10.8,14.2-16.6c-5.5-1.1-10.9-2.3-16.3-3.5c5.6-0.9,11.3-2.1,16.9-3.3c3.3-4.7,6.4-9.5,9.4-14.5
					c-4.1-0.8-8.1-1.5-12.2-2.3c1.8-2.5,3.6-4.9,5.4-7.5c4.2-1.8,8.4-3.8,12.5-5.8C343.5,74.4,342.8,67.8,341.8,61.2z"/>
				<path class="st1" d="M145.7,88.5l13.3-1.4l10.4,9.8l-5.2-11.6l23,11l7.8,19.4l-0.5-13.2l26.2,28.2l5.2,21.4l5.5-3.5l7.1,32.4
					c0,0,4.3-5.9,3.5-4c-0.8,1.9,11.3,50.6,11.3,50.6s-16.1-44.4-28-55l-24-20.2l7.1-8.8l-10.8,3.9l-17.9-12.8l15.1-7.5l-17.6,1.3
					l-13.7-10.4l10.9-6.2l-8-5l-14.2-0.4L145.7,88.5z"/>
				<path class="st1" d="M183.1,46.7l16.7,8.8l7.6,12.1l5.2-11.6l16.9,18.4l-1.7,22.8l3.8-16.4l13.8,25.1l-0.2,22l8.5-11l-3.4,42.1
					c0,0,12.1-11.4,10.8-9.7c-1.3,1.7-7.9,58.5-7.9,58.5s-6.8-31.1-14.8-50.9c-3.3-8.1-8-10-10.6-13.9l-11.8-20.9l14.4-6.9
					l-11.4,1.1l-14.2-16.8l10.5-3.7l-11.4-3L193,79.5l-8-14.1L183.1,46.7z"/>
				<path class="st1" d="M146.9,211.5c1.3-2.1,2.7-4.2,4.1-6.2c0.3-0.4,0.6-0.7,1-0.9c1.3-0.6,2.6-1.3,4-1.9c1.9-0.9,2-3.5,0.3-4.4
					c0,0-0.1,0-0.1,0c-1.6-0.8-1.7-3.1-0.1-4.2c3.6-2.4,7.4-4.6,11.3-6.7c0.5-0.3,1.1-0.3,1.6-0.2c5.6,1.3,11.1,2.9,16.5,4.7
					c-1.7-0.9-3.3-1.7-5-2.4c-2.1-0.9-1.6-4.2,0.7-4.6c4.6-0.9,9.3-1.5,14.1-2c0.3,0,0.7,0,1,0.1c2.9,1,5.8,2.1,8.6,3.2
					c2.2,0.9,4.3-1.9,2.8-3.8c-0.4-0.6-0.8-1.1-1.2-1.6c8.7,4.1,17.1,9,24.9,14.5c1.8,1.3,4.2-0.7,3.5-2.9c-0.8-2.3-1.4-4.2-1.1-3.5
					c1.4-0.1,14.8,12.8,24.9,23.5c1.9,2-0.6,5.2-2.9,3.8c-7.4-4.4-16.5-9.1-24.3-10.8c-6.6-1.7-9.5,0.2-12.8,0.3c-0.1,0-0.3,0-0.4,0
					c-6.1-0.5-23.1-9.1-28.8-8.7c-0.3-3.6,10.6,1.5,10.1-2.1c-0.5,2-1,4-1.6,6c-0.2,0.9-0.9,1.5-1.7,1.7c-3.6,1-7.2,2.2-10.7,3.5
					c-1.4,0.5-2.9-0.4-3-2c-0.1-1.4-0.2-2.9-0.3-4.4c-1.3,2-2.5,4-3.8,6c-0.3,0.4-0.7,0.8-1.2,1c-3.4,1.4-6.7,2.9-9.9,4.5
					c-0.1,0-0.2,0.1-0.3,0.1c-3.3,1.1-6.5,2.3-9.7,3.6c-0.3,0.1-0.6,0.2-0.9,0.2c-2.6,0-5.2,0-7.7,0.2
					C147,215.2,145.9,213.1,146.9,211.5z"/>
				<path class="st1" d="M303.5,36.9c-2.1,6.2-3.7,12.4-4.7,18.5c-3.3,4-6.3,8.2-9,12.4c4.6-0.6,9.1-1.1,13.7-1.4
					c-3.6,7.4-6.3,14.9-8.1,22.3c-6.6,3.7-13.1,7.9-19.1,12.7c4.9-2.8,10-5.4,15.1-7.6c-3.8,8.1-6.6,16.4-8.3,24.9
					c-4.7,4.9-9,10.3-12.9,16.2c4.3-1.4,8.6-2.7,13-3.7c-8.6,9.4-15.9,20.5-21.1,33.3c-0.1-0.2,15-5.5,13.2-4.4
					c-5.3-1.7-18.9,53.4-14.8,55.7c-0.9-0.1-9.9-35.6-9-58.3c-0.2-9.3-3.4-13.5-3.9-18.6c-0.1-8.7,0.6-17.4,2.2-26.1
					c5.2,1.2,10.4,2.4,15.5,3.6c-3.2-2.1-6.3-4.3-9.4-6.5c0.3-7.8,1.3-15.6,3-23.4c3.2,1.7,6.5,3.4,9.7,5.1
					c-1.6-3.5-3.2-7.1-4.5-10.7c1.8-6,4.1-11.9,6.9-17.8c3.4-5.2,7.2-10.4,11.4-15.3C289.2,43.7,296.2,40.1,303.5,36.9z"/>
			</g>
			<g>
				<path class="st2" d="M252.6,227.4c-0.8,0-1.7-0.5-2.1-1.4l-13-26.2c-0.7-1.4-0.3-3.1,0.9-3.8c1.2-0.8,2.6-0.3,3.3,1l13,26.2
					c0.7,1.4,0.3,3.1-0.9,3.8C253.4,227.2,253,227.4,252.6,227.4z"/>
			</g>
			<g>
				<path class="st2" d="M245.4,244.9c-0.7,0-1.3-0.3-1.8-0.9l-16-20.8c-0.9-1.2-0.8-2.9,0.2-4c1-1,2.5-0.9,3.4,0.2l16,20.8
					c0.9,1.2,0.8,2.9-0.2,4C246.6,244.7,246,244.9,245.4,244.9z"/>
			</g>
			<g>
				<path class="st2" d="M259.5,215.5c-0.1,0-0.1,0-0.2,0c-1.3-0.1-2.3-1.5-2.2-3l1.6-22.5c0.1-1.5,1.3-2.7,2.6-2.6
					c1.3,0.1,2.3,1.5,2.2,3l-1.6,22.5C261.8,214.3,260.7,215.5,259.5,215.5z"/>
			</g>
			<g>
				<path class="st2" d="M262.6,229.4c-0.4,0-0.9-0.1-1.3-0.4c-1.1-0.8-1.5-2.6-0.8-3.9l10.6-19.6c0.7-1.3,2.2-1.7,3.3-0.9
					c1.1,0.8,1.5,2.6,0.8,3.9l-10.6,19.6C264.2,228.9,263.4,229.4,262.6,229.4z"/>
			</g>
			<g>
				<path class="st2" d="M265,249c-0.5,0-1-0.2-1.4-0.5c-1.1-0.9-1.4-2.6-0.6-3.9l12.9-21.6c0.8-1.3,2.3-1.6,3.4-0.7
					c1.1,0.9,1.4,2.6,0.6,3.9L267,247.8C266.5,248.6,265.8,249,265,249z"/>
			</g>
			<path class="st2" d="M258.5,243.2l-14.8,0.7c-0.8,8.9-1.4,18.8-1.9,29.5l-1.3-3c-0.6-1.4-2-2-3.2-1.3c-1.2,0.7-1.7,2.4-1.1,3.8
				l5.1,12.1c-0.3,6.8-0.5,13.9-0.7,21.2c-0.6-0.2-1.2-0.2-1.8,0.1c-1.2,0.6-1.8,2.3-1.3,3.7l2.7,7.3c-0.2,9.5-0.3,19.2-0.4,29.3
				c-0.6-0.3-1.4-0.3-2,0c-1.2,0.7-1.7,2.3-1.2,3.7l3.1,7.5c-0.1,10.2-0.1,20.7,0,31.4c-0.8-0.6-1.7-0.7-2.6-0.1
				c-1.2,0.8-1.6,2.5-0.9,3.8l3.5,7.2c0.1,13.5,0.2,27.2,0.3,41.1l-1.8-3.5c-0.7-1.3-2.2-1.8-3.3-1c-1.2,0.8-1.5,2.5-0.8,3.8l6.1,12
				c0.1,10.9,0.3,21.9,0.5,32.9h25c0-0.5,0-1.1,0-1.6C239.6,406.9,243.5,323.4,258.5,243.2z"/>
			<path class="st2" d="M272.1,233.6c0,14.9-6.4,16.8-15.4,17c0,0,0,0,0,0c-0.6,0-1.2,0-1.8,0c-10,0-20.2-3.7-20.2-19.7
				c0-15.9,10.2-38.1,20.2-38.1c5,0,9.4,6.3,12.5,14.6C270.3,215.6,272.1,225.7,272.1,233.6z"/>
		</g>
		<path class="st3" d="M272.1,233.6c0,14.9-6.4,16.8-15.4,17c0,0,0,0,0,0c-1.8-1-3.3-2.3-4.7-3.9c-9.5-11.2-4.9-27,5.1-35.9
			c3.2-2.8,6.7-3.8,10.2-3.4C270.3,215.6,272.1,225.7,272.1,233.6z"/>
		<path class="st3" d="M269.9,413.8c0.7-1.3,0.4-3.1-0.8-3.9c-0.7-0.5-1.5-0.5-2.2-0.1c0-2.2,0-4.4,0.1-6.6c0.1-9,0.1-17.9,0.1-26.6
			l3.2-8c0.5-1.4,0-3.1-1.2-3.7c-0.6-0.3-1.4-0.3-2,0c0-11.6-0.2-22.9-0.3-33.9l2.6-8.6c0.4-1.5-0.3-3.1-1.5-3.6
			c-0.4-0.2-0.9-0.2-1.3-0.1c-0.1-3.5-0.2-7-0.3-10.4c-0.2-5.6-0.3-11-0.6-16.4L269,281c0.5-1.5-0.2-3.1-1.4-3.6c-1-0.4-2,0-2.6,0.8
			c-0.6-11.8-1.4-22.8-2.4-32.9h-7c-14,75.1-15.8,152.5,5.6,225.2c0.1,0.4,0.2,0.8,0.3,1.2l0.1-0.1c1.4,4.6,2.8,9.1,4.3,13.6
			c0.2-7.7,0.3-15.4,0.4-23.1l3.6-7.2c0.7-1.4,0.3-3.1-0.9-3.8c-0.9-0.6-1.8-0.5-2.6,0.1c0.2-10.6,0.3-21.2,0.4-31.6L269.9,413.8z"
			/>
		<path class="st4" d="M258.2,256.9C256,259,247.3,399,261.1,456C262.5,419.2,258.2,256.9,258.2,256.9z"/>
	</g>
	<path class="st1" d="M238.2,486.6l0.9-8.8c3.1,3.1,5.7-1.8,5.7-1.8c3.5,4,6.1,6.1,6.1,6.1l2.6-4.4c3.1-2.6,6.6,4.4,6.6,4.4
		c2.2-1.8,4-5.3,4-5.3l3.1,4.8l2.6-7l0.9,6.1l-0.4,6.1L238.2,486.6z"/>
</g>
</svg>
