<?xml version="1.0" encoding="utf-8"?>
<!-- Generator: Adobe Illustrator 27.3.1, SVG Export Plug-In . SVG Version: 6.00 Build 0)  -->
<svg version="1.1" id="Layer_1" xmlns="http://www.w3.org/2000/svg" xmlns:xlink="http://www.w3.org/1999/xlink" x="0px" y="0px"
	 viewBox="0 0 512 512" style="enable-background:new 0 0 512 512;" xml:space="preserve">
<style type="text/css">
	.st0{fill:#FFFFFF;}
	.st1{fill:#975927;}
	.st2{fill:#7E604D;}
	.st3{fill:#8E6E59;}
	.st4{fill:#AC866B;}
</style>
<path class="st0" d="M380.3,183.3l7.1-6.4l-7.4-0.7l-0.2-0.2l11.9-0.9l1.4,0.8l1.1-1l6.5-0.5l-2.1-3.5l26-23.7l-13.9-10.9l12.6-9.7
	l-43.5-6.2l4.5-8.5l-21.8,6l-0.2,0l-0.1,0.1l-23.8,6.6c0.6-0.8,1.3-1.6,1.9-2.4l13.3-17.2l-5.2-1.1c1-1.7,2-3.3,3-5l9.9-16.7
	l-1.6-0.3l-0.5-6.9c-0.5-7.2-1.3-14.3-2.4-21.3L354,36.9c0,0-15.9,6.4-16,6.4l-1.1-18.9l-17.2,22.1l-6,0.4c0.9-3.9,1.9-7.8,3.3-11.6
	l10-29l-28,12.2c-8,3.5-15.7,7.4-23,11.9l-1.9,1.1l-1.4,1.7c-4.6,5.5-8.9,11.2-12.6,17.1l-0.5,0.7l-0.4,0.8c-1.8,3.9-3.5,7.8-5,11.9
	l-4.5-2.4l-3.2,14.6l-3.9-7.2l0.3-4.3l-6.6-7.3l-10.3-18.9l-1.4,6L207.9,26l-4.8,10.8l-37.2-19.7l4.7,47.2l3.9,6.8l-39.1-18.8
	l7.9,17.7l-18,1.9l14.1,39.1l-1.9,1.1l3.2,2.4l0.2,0.5l0.5,0l15.1,11.6l-4.2,2.1l1,0.7l-8.1-1.2l-0.4-0.2l-0.4,0.1l-21-3.2l4.9,7.7
	l-41.3,11.5l12.6,7.8L87,164.3l26.7,20l-2.1,4.3l7.4-0.4l1.3,1l1.5-1.1l9.9-0.5l-2.3,4.3l10.5-0.9c-0.2,0.9-0.3,1.7-0.3,2.6
	c-0.6,0.7-1.2,1.4-1.7,2.1c-1.5,2.2-3,4.5-4.4,6.9c-3.1,5-3.2,11.2-0.4,16.3c2.8,5,8,8.1,13.6,8.1l0.5,0l0.4,0
	c2-0.1,3.9-0.1,5.9-0.1l1.3,0c2.1,0,4.2-0.4,6.2-1.3c2.9-1.2,5.8-2.3,8.7-3.3l1-0.3l1.1-0.5c2.8-1.4,5.8-2.8,8.7-4
	c1,0.2,2,0.3,3,0.3c1.8,0,3.7-0.3,5.5-1c3.2-1.2,6.5-2.3,9.9-3.2c0.8-0.2,1.6-0.5,2.3-0.9c4.6,1.7,8.7,3.2,12.3,4
	c-0.9,4.6,0.1,9.5,3.1,13.4l4.8,6.3c1,7,3.8,12.8,7.9,17.2c-0.1,1.5-0.2,2.9-0.3,4.4c-6.2,4.5-8.5,12.8-5.5,20l4,9.6
	c-0.1,3.8-0.3,7.7-0.4,11.6c-3.4,4.4-4.5,10.5-2.4,16.2l1.9,5c-0.1,6.5-0.2,13.2-0.3,19.9c-3.6,4.5-4.6,10.9-2.3,16.7l2.1,5.2
	c0,7,0,14,0,21.2c-4.1,4.9-5.1,12-2.2,18.1l2.2,4.6c0,7.8,0.1,15.7,0.2,23.7c-6.1,4.8-8.1,13.5-4.5,20.7l4.8,9.5
	c0,2.8,0.1,5.6,0.1,8.4l-3.7,36.6l31.8,0.4l7.1,0.1l0,0L283,506l1.4-20.5l-1.1-7.7l-3.8-0.4c0-2.5,0.1-4.9,0.1-7.4l2.3-4.7
	c3-6.1,2.1-13.1-2-18.1c0.1-6.9,0.2-13.8,0.3-20.7l1.5-2.8c3.2-5.9,2.5-12.9-1.3-18.1c0.1-8.1,0.1-16.1,0.1-24l2.3-5.9
	c2.2-5.7,1.1-11.8-2.4-16.3c-0.1-8.7-0.1-17.2-0.3-25.3l2-6.9c1.5-5.1,0.4-10.5-2.5-14.5c0-1.4-0.1-2.7-0.1-4
	c-0.1-4.9-0.3-9.8-0.5-14.6l2.8-8.8c1.9-6.1,0.2-12.6-4.1-16.9c-0.3-4.1-0.5-7.9-0.8-11.6c0.2-0.2,0.4-0.4,0.6-0.6
	c0.3-0.3,0.6-0.5,0.8-0.8c0.3-0.4,0.7-0.8,1-1.2c0.2-0.3,0.5-0.6,0.7-0.9c0.3-0.4,0.6-0.9,0.9-1.4c0.2-0.3,0.4-0.6,0.6-0.9
	c0.3-0.5,0.5-1,0.8-1.5c0.2-0.3,0.3-0.7,0.5-1c0.2-0.5,0.4-1.1,0.6-1.6c0.1-0.4,0.3-0.7,0.4-1.1c0.1-0.4,0.2-0.8,0.3-1.2l7.5-12.6
	c2-3.3,2.6-7,2.2-10.6l37.3,8.8l0.1-0.5l31.4,10.4l-1.2-4.7l11.1,3.3l1,1.3l1.4-0.6l6.4,1.9l-0.8-4.1l32.3-13l-9.2-15.1l15-4.6
	L380.3,183.3z"/>
<g id="_x37__1_">
	<g>
		<g>
			<g>
				<path class="st1" d="M98.4,158.3l10-9.9l12.8,1l-9.5-5.8l23.5-6.5l15.1,10.2l-6.5-10.2l33.9,5.1l13.9,13.6l2.8-6.5l20.5,21.2
					c0,0,0.8-7.6,1-5.5c0.2,2.1,32.1,32.8,32.1,32.8s-33.2-24.8-47.6-25.3l-28.6-0.2l1.7-11.7l-6.9,10.2l-20.2,1.7l8.7-15.9
					l-13.5,12.6L126,170l5.9-12.1l-8.7,1.3l-11.6,9L98.4,158.3z"/>
				<path class="st1" d="M401.9,216l-7.4-12l-13.2-2.2l11.2-3.4l-21.9-12.1l-18,6.3l9.3-8.3l-35.5-3.3l-17.7,9.8l-1.1-7l-26.4,15.6
					c0,0,1.3-7.6,0.5-5.6c-0.8,2-41.3,24.1-41.3,24.1s40.2-16,54.8-13l28.8,6.7l1.5-11.8l4.1,11.6l19.9,6.5l-4.4-17.6l10.2,15.6
					l15.6,4.6l-2.6-13.2l8.4,3.3l9.2,11.6L401.9,216z"/>
				<path class="st1" d="M413,142.6l-11.2-8.7l-13.2,2.6l9.3-7.1l-24.9-3.5l-14.8,12.2l5.9-11.1l-34.6,9.5L316.3,152l-3.5-6.2
					l-19.5,24c0,0-1.4-7.5-1.4-5.4c0,2.2-30.5,37.3-30.5,37.3s32.3-29.2,47.1-31.6l29.5-3.9l-2.7-11.6l8,9.5l21-0.9l-10.3-15l15,11
					l16.3-1.3l-7.1-11.5l9.1,0.2l12.7,7.6L413,142.6z"/>
				<path class="st1" d="M348.9,45.2c-4.3,1.7-8.7,3.3-13,4.9c-1.6,4.8-3.4,9.5-5.3,14.1c0-4.6-0.2-9.1-0.5-13.7
					C324.7,57.4,319,63.9,313,70c0.1,7.1,0,14.2-0.5,21.4c-1.3-4.5-2.7-8.9-4.2-13.2c-5,11.7-10.9,22.8-17.5,33.4
					c0,7.3-0.3,14.6-1,22c-2.1-1-4.2-2-6.4-3c-0.6,10.9-2,22-4.2,33.1c0,0-4.9-6-3.9-4.1c2.7,2-14.1,51.3-15.9,51.2
					c1.4,0.3,23.3-44.1,33.6-56.1c8.1-7.5,15.7-15.5,22.9-24.1c-3.1-2.7-6.2-5.3-9.3-7.9c4.1,0.7,8.1,1.4,12.2,2
					c5.4-5.7,10.5-11.7,15.4-18c-5.9-1.2-11.8-2.5-17.7-3.8c6.1-1,12.2-2.2,18.3-3.6c3.5-5.1,6.9-10.3,10.1-15.7
					c-4.4-0.8-8.8-1.6-13.2-2.5c2-2.7,3.9-5.4,5.8-8.1c4.5-2,9.1-4.1,13.6-6.3C350.7,59.4,349.9,52.3,348.9,45.2z"/>
				<path class="st1" d="M136.7,74.7l14.4-1.5l11.2,10.6l-5.6-12.6l24.9,11.9L190,104l-0.6-14.3l28.3,30.5l5.6,23.1l6-3.8l7.7,35.1
					c0,0,4.7-6.4,3.7-4.3c-0.9,2.1,12.2,54.8,12.2,54.8s-17.4-48.1-30.3-59.5l-26-21.9l7.7-9.5l-11.7,4.2l-19.4-13.9l16.3-8.1
					l-19,1.4l-14.8-11.3l11.8-6.7l-8.6-5.4l-15.3-0.5L136.7,74.7z"/>
				<path class="st1" d="M177.2,29.4l18,9.5l8.2,13.1l5.6-12.6l18.3,20l-1.8,24.7l4.1-17.7l14.9,27.1l-0.2,23.8l9.2-11.9l-3.7,45.6
					c0,0,13.1-12.3,11.7-10.5c-1.4,1.8-8.6,63.4-8.6,63.4s-7.4-33.7-16-55.1c-3.6-8.8-8.7-10.9-11.5-15l-12.8-22.6l15.5-7.4
					l-12.3,1.2l-15.4-18.2l11.3-4l-12.3-3.2L187.9,65l-8.7-15.2L177.2,29.4z"/>
				<path class="st1" d="M137.9,207.8c1.4-2.3,2.9-4.5,4.4-6.7c0.3-0.4,0.6-0.7,1.1-1c1.4-0.7,2.9-1.4,4.3-2c2-0.9,2.2-3.8,0.3-4.7
					c0,0-0.1,0-0.1,0c-1.7-0.9-1.8-3.4-0.1-4.5c3.9-2.6,8-5,12.2-7.3c0.5-0.3,1.2-0.4,1.8-0.3c6.1,1.4,12,3.1,17.8,5.1
					c-1.8-0.9-3.6-1.8-5.5-2.6c-2.2-1-1.7-4.5,0.8-5c5-0.9,10.1-1.7,15.2-2.2c0.4,0,0.7,0,1.1,0.1c3.1,1.1,6.3,2.2,9.3,3.5
					c2.4,1,4.6-2,3.1-4.1c-0.4-0.6-0.9-1.2-1.3-1.8c9.5,4.4,18.5,9.7,27,15.7c1.9,1.4,4.6-0.8,3.8-3.1c-0.8-2.5-1.5-4.5-1.2-3.8
					c1.5-0.1,16,13.9,27,25.4c2,2.1-0.7,5.6-3.1,4.1c-8-4.8-17.8-9.8-26.3-11.7c-7.1-1.9-10.3,0.2-13.9,0.3c-0.1,0-0.3,0-0.4,0
					c-6.7-0.6-25-9.8-31.2-9.4c-0.3-3.9,11.4,1.7,10.9-2.3c-0.6,2.2-1.1,4.3-1.7,6.5c-0.3,0.9-1,1.6-1.8,1.9
					c-3.9,1.1-7.8,2.4-11.5,3.7c-1.5,0.6-3.1-0.4-3.2-2.1c-0.1-1.6-0.3-3.2-0.4-4.7c-1.4,2.2-2.7,4.3-4.1,6.5
					c-0.3,0.5-0.7,0.9-1.3,1.1c-3.7,1.5-7.3,3.1-10.8,4.9c-0.1,0-0.2,0.1-0.3,0.1c-3.6,1.2-7.1,2.5-10.5,3.9
					c-0.3,0.1-0.6,0.2-0.9,0.2c-2.8,0-5.6,0-8.4,0.2C138,211.8,136.9,209.6,137.9,207.8z"/>
				<path class="st1" d="M307.4,18.9c-2.3,6.7-4,13.4-5.1,20c-3.6,4.4-6.8,8.8-9.8,13.4c5-0.7,9.9-1.2,14.8-1.5
					c-3.9,8-6.8,16.1-8.7,24.2c-7.2,4-14.1,8.5-20.7,13.7c5.3-3.1,10.8-5.8,16.4-8.2c-4.1,8.7-7.1,17.8-9,26.9
					c-5.1,5.3-9.7,11.2-13.9,17.5c4.6-1.5,9.3-2.9,14-4c-9.4,10.1-17.2,22.2-22.9,36c-0.1-0.2,16.2-5.9,14.3-4.8
					c-5.8-1.8-20.5,57.8-16,60.2c-1-0.1-10.7-38.6-9.7-63.1c-0.2-10.1-3.6-14.6-4.2-20.1c-0.1-9.4,0.7-18.9,2.4-28.2
					c5.6,1.3,11.2,2.6,16.8,3.9c-3.4-2.3-6.8-4.6-10.2-7c0.3-8.4,1.4-16.9,3.3-25.4c3.5,1.9,7,3.7,10.5,5.5
					c-1.8-3.8-3.4-7.6-4.9-11.6c2-6.5,4.5-12.9,7.5-19.3c3.7-5.7,7.8-11.2,12.3-16.5C291.9,26.2,299.5,22.3,307.4,18.9z"/>
			</g>
			<g>
				<path class="st2" d="M252.4,225c-0.9,0-1.8-0.5-2.3-1.5l-14-28.3c-0.7-1.5-0.3-3.3,1-4.1c1.3-0.8,2.9-0.3,3.6,1.1l14,28.3
					c0.7,1.5,0.3,3.3-1,4.2C253.2,224.9,252.8,225,252.4,225z"/>
			</g>
			<g>
				<path class="st2" d="M244.5,244c-0.7,0-1.4-0.4-2-1l-17.3-22.5c-1-1.3-0.9-3.2,0.2-4.3c1.1-1.1,2.7-1,3.7,0.3l17.3,22.5
					c1,1.3,0.9,3.2-0.2,4.3C245.8,243.7,245.2,244,244.5,244z"/>
			</g>
			<g>
				<path class="st2" d="M259.8,212.1c-0.1,0-0.1,0-0.2,0c-1.4-0.1-2.5-1.6-2.4-3.3l1.8-24.3c0.1-1.7,1.4-2.9,2.8-2.8
					c1.4,0.1,2.5,1.6,2.4,3.3l-1.8,24.3C262.3,210.9,261.1,212.1,259.8,212.1z"/>
			</g>
			<g>
				<path class="st2" d="M263.1,227.2c-0.5,0-1-0.1-1.4-0.5c-1.2-0.9-1.6-2.8-0.8-4.2l11.5-21.2c0.8-1.4,2.4-1.8,3.6-1
					c1.2,0.9,1.6,2.8,0.8,4.2l-11.5,21.2C264.9,226.7,264,227.2,263.1,227.2z"/>
			</g>
			<g>
				<path class="st2" d="M265.7,248.5c-0.5,0-1-0.2-1.5-0.5c-1.2-1-1.5-2.8-0.7-4.2l13.9-23.4c0.8-1.4,2.4-1.7,3.6-0.8
					c1.2,0.9,1.5,2.8,0.7,4.2l-13.9,23.4C267.4,248,266.6,248.5,265.7,248.5z"/>
			</g>
			<path class="st2" d="M258.8,242.1l-16,0.8c-0.8,9.7-1.5,20.4-2.1,31.9l-1.4-3.2c-0.6-1.5-2.2-2.1-3.5-1.4
				c-1.3,0.8-1.8,2.6-1.2,4.1l5.5,13.1c-0.3,7.4-0.5,15-0.7,22.9c-0.6-0.2-1.3-0.3-1.9,0.1c-1.3,0.7-1.9,2.5-1.4,4l3,7.9
				c-0.2,10.2-0.4,20.8-0.4,31.7c-0.7-0.3-1.5-0.4-2.2,0c-1.3,0.7-1.9,2.5-1.3,4l3.3,8.1c-0.1,11.1-0.1,22.5,0,34
				c-0.8-0.6-1.9-0.8-2.8-0.1c-1.3,0.8-1.7,2.7-1,4.1l3.8,7.8c0.1,14.6,0.2,29.4,0.4,44.5l-1.9-3.8c-0.7-1.4-2.3-1.9-3.6-1.1
				c-1.3,0.9-1.7,2.7-0.9,4.2l6.6,13c0.1,11.8,0.3,23.7,0.5,35.6h27.1c0-0.6,0-1.2,0-1.8C238.3,419.3,242.5,328.9,258.8,242.1z"/>
			<path class="st2" d="M273.4,231.7c0,16.2-6.9,18.2-16.7,18.4c0,0,0,0,0,0c-0.6,0-1.3,0-2,0c-10.8,0-21.9-4-21.9-21.3
				c0-17.3,11.1-41.2,21.9-41.2c5.5,0,10.2,6.8,13.5,15.8C271.5,212.3,273.4,223.2,273.4,231.7z"/>
		</g>
		<path class="st3" d="M273.4,231.7c0,16.2-6.9,18.2-16.7,18.4c0,0,0,0,0,0c-1.9-1.1-3.6-2.5-5-4.2c-10.3-12.1-5.3-29.2,5.5-38.8
			c3.4-3.1,7.3-4.1,11-3.7C271.5,212.3,273.4,223.2,273.4,231.7z"/>
		<path class="st3" d="M271.1,426.7c0.8-1.4,0.4-3.3-0.8-4.2c-0.8-0.5-1.7-0.5-2.4-0.1c0-2.4,0-4.8,0.1-7.1
			c0.1-9.8,0.1-19.4,0.1-28.8l3.4-8.7c0.6-1.5,0-3.3-1.3-4c-0.7-0.4-1.5-0.3-2.1,0c0-12.6-0.2-24.8-0.4-36.7l2.8-9.4
			c0.5-1.6-0.3-3.3-1.7-3.9c-0.5-0.2-0.9-0.2-1.4-0.1c-0.1-3.8-0.2-7.5-0.3-11.2c-0.2-6-0.4-11.9-0.6-17.7l3.7-11.7
			c0.5-1.6-0.2-3.3-1.6-3.9c-1-0.4-2.2,0-2.9,0.9c-0.7-12.7-1.5-24.7-2.6-35.6h-7.6c-15.2,81.3-17.1,165.1,6.1,243.7
			c0.1,0.4,0.2,0.8,0.3,1.3l0.1-0.1c1.5,4.9,3,9.9,4.7,14.7c0.2-8.3,0.3-16.7,0.5-25l3.9-7.8c0.7-1.5,0.3-3.3-0.9-4.2
			c-0.9-0.6-2-0.5-2.8,0.1c0.2-11.5,0.3-22.9,0.5-34.2L271.1,426.7z"/>
		<path class="st4" d="M258.4,256.9c-2.3,2.3-11.7,153.8,3.1,215.5C263,432.6,258.4,256.9,258.4,256.9z"/>
	</g>
	<path class="st1" d="M236.8,505.5l1-9.5c3.3,3.3,6.2-1.9,6.2-1.9c3.8,4.3,6.7,6.7,6.7,6.7l2.8-4.7c3.3-2.8,7.1,4.7,7.1,4.7
		c2.4-1.9,4.3-5.7,4.3-5.7l3.3,5.2l2.8-7.6l0.9,6.7l-0.5,6.7L236.8,505.5z"/>
</g>
</svg>
