<svg id="reg" enable-background="new 0 0 24 24" viewBox="0 0 24 24" xmlns="http://www.w3.org/2000/svg"><g><circle cx="12" cy="12" fill="#ffc107" r="12"/></g><g><path d="m17.163 17h-10.326c-.365 0-.677-.263-.739-.623l-1.087-6.333c-.048-.277.064-.558.289-.727.226-.17.525-.197.779-.074l2.894 1.409 2.372-4.267c.264-.477 1.047-.477 1.311 0l2.372 4.267 2.894-1.409c.253-.123.553-.096.779.074.225.169.336.449.289.727l-1.087 6.333c-.063.36-.375.623-.74.623z" fill="#ff8f00"/></g><g><path d="m12 24c-6.617 0-12-5.383-12-12s5.383-12 12-12 12 5.383 12 12-5.383 12-12 12zm0-22.5c-5.79 0-10.5 4.71-10.5 10.5s4.71 10.5 10.5 10.5 10.5-4.71 10.5-10.5-4.71-10.5-10.5-10.5z"/></g><g><path d="m17.163 17h-10.326c-.365 0-.677-.263-.739-.623l-1.087-6.333c-.048-.277.064-.558.289-.727.226-.17.525-.197.779-.074l2.894 1.409 2.372-4.267c.264-.477 1.047-.477 1.311 0l2.372 4.267 2.894-1.409c.253-.123.554-.096.779.074.225.169.336.449.289.727l-1.087 6.333c-.063.36-.375.623-.74.623zm-9.694-1.5h9.062l.732-4.269-2.217 1.08c-.36.176-.791.039-.984-.31l-2.062-3.707-2.062 3.708c-.193.349-.625.485-.984.31l-2.217-1.08z"/></g></svg>