<?xml version="1.0" encoding="utf-8"?>
<!-- Generator: Adobe Illustrator 27.3.1, SVG Export Plug-In . SVG Version: 6.00 Build 0)  -->
<svg version="1.1" id="Layer_1" xmlns="http://www.w3.org/2000/svg" xmlns:xlink="http://www.w3.org/1999/xlink" x="0px" y="0px"
	 viewBox="0 0 512 512" style="enable-background:new 0 0 512 512;" xml:space="preserve">
<style type="text/css">
	.st0{fill:#AE6AD0;}
	.st1{fill:#FFFFFF;}
</style>
<g>
	<path class="st0" d="M131.7,244.9c15.6-71.6,56.9-119.8,129.1-136c65.9-14.8,123.2,5.2,165,58.1c47.7,60.4,48.1,125.8,11,192.6
		c1.4,0.3,3.2,0.6,5.1,0.9c25.6,4,43.7,24.7,43.9,50.4c0.1,6.8-0.1,13.5,0.1,20.3c0.1,2.6-0.7,3.7-3.4,3.5c-1.9-0.2-3.7,0-5.6,0
		c-113.4,0-226.8,0.1-340.3-0.1c-34.2-0.1-58.9-15.9-73.5-46.8c-4.2-9-6.1-18.7-6.1-28.6c0-53-0.1-106,0.1-159c0-4-1-6.5-4.2-9
		c-19.8-15.8-24.2-43.6-10.1-64.3c3-4.4,7.5-7.8,11.1-11.8c1.4-1.6,2.9-3.6,3-5.5c0.3-8.6,0.3-17.3,0.1-25.9c0-1.8-0.9-3.9-2-5.4
		C51.3,73,51.9,66,56.8,61.4c4.9-4.7,12.3-4.9,17.4-0.5c5,4.3,6.2,11.8,2.2,16.8c-2.3,2.9-3.1,5.9-2.9,9.5
		c0.3,6.1,0.1,12.1,0.1,18.4c6.8,0,13.4,0,20.4,0c0-7.4,0.1-15.2-0.1-23c0-1.1-1.2-2.3-2-3.3c-4.5-5.6-4.3-12.8,0.7-17.7
		c4.9-4.9,12.2-5.3,17.4-1c5.5,4.5,6.4,11.8,2.4,17.9c-0.9,1.4-1.6,3.1-1.6,4.7c-0.2,9-0.4,18.1-0.2,27.1c0,1.9,1.4,4.3,3,5.6
		c11.5,9.2,18,21,18.1,35.7c0.3,28.7,0.1,57.4,0.2,86.1C131.7,240,131.7,242.5,131.7,244.9z M296.5,360
		c51.2,0.7,90.2-42.2,90.7-88.8c0.5-53-44.1-93.9-94.9-91.5c-47.1,2.2-87,41.9-86.3,92.1C206.7,320.4,248.6,361,296.5,360z
		 M156.3,359.9c-5.2-10.9-10.8-21-14.8-31.7c-4-10.8-6.5-22.3-9.6-33.4c0.6,0.4,0.4,1.2,0.4,1.9c-0.2,13.2-0.8,26.5-0.1,39.7
		c0.2,4.5,2.9,9.3,5.5,13.3C141.9,356.1,148.4,359.2,156.3,359.9z M102.2,141.2c0-4.5-3.2-8-7.6-8.1c-4.2-0.1-7.9,3.4-8,7.7
		c0,4.5,3.2,8,7.6,8.1S102.2,145.6,102.2,141.2z"/>
	<path class="st1" d="M296.5,360c-47.9,1-89.8-39.6-90.5-88.2c-0.7-50.2,39.2-89.9,86.3-92.1c50.8-2.4,95.4,38.5,94.9,91.5
		C386.7,317.8,347.7,360.8,296.5,360z M382.9,271.3c1.3-43.1-31.4-84.9-81.9-87.3c-49.7-2.4-89.6,34.6-90.8,84.1
		c-1.1,47.2,34.4,85.8,83.2,87.8C341.2,357.8,382.6,320.5,382.9,271.3z"/>
	<path class="st1" d="M156.3,359.9c-7.9-0.8-14.4-3.9-18.6-10.2c-2.6-4-5.3-8.8-5.5-13.3c-0.6-13.2,0-26.5,0.1-39.7
		c0-0.7,0.2-1.5-0.4-1.9c3.1,11.2,5.6,22.6,9.6,33.4C145.5,338.9,151.1,349,156.3,359.9z"/>
	<path class="st1" d="M102.2,141.2c0,4.4-3.6,7.8-7.9,7.7c-4.4-0.1-7.6-3.6-7.6-8.1c0-4.3,3.8-7.8,8-7.7
		C99,133.2,102.2,136.7,102.2,141.2z"/>
	<g>
		<path class="st0" d="M286.1,289.4c-2.8,0-5-2.2-5-5v-29.2c0-2.8,2.2-5,5-5c2.8,0,5,2.2,5,5v29.2
			C291,287.3,288.9,289.4,286.1,289.4z"/>
		<path class="st0" d="M270.6,304.9c-2.8,0-5-2.2-5-5v-60.1c0-2.8,2.2-5,5-5s5,2.2,5,5v60.1C275.6,302.7,273.4,304.9,270.6,304.9z"
			/>
		<path class="st0" d="M255,319.3c-2.8,0-5-2.2-5-5v-89c0-2.8,2.2-5,5-5c2.8,0,5,2.2,5,5v89C260,317.1,257.8,319.3,255,319.3z"/>
		<path class="st0" d="M239.6,304.9c-2.8,0-5-2.2-5-5v-60.1c0-2.8,2.2-5,5-5c2.8,0,5,2.2,5,5v60.1
			C244.5,302.7,242.4,304.9,239.6,304.9z"/>
		<path class="st0" d="M223.9,290.4c-2.8,0-5-2.2-5-5v-31.2c0-2.8,2.2-5,5-5c2.8,0,5,2.2,5,5v31.2
			C228.9,288.2,226.8,290.4,223.9,290.4z"/>
		<path class="st0" d="M332.7,319.3c-2.8,0-5-2.2-5-5v-89c0-2.8,2.2-5,5-5c2.8,0,5,2.2,5,5v89C337.7,317.1,335.6,319.3,332.7,319.3z
			"/>
		<path class="st0" d="M317.1,304.9c-2.8,0-5-2.2-5-5v-60.1c0-2.8,2.2-5,5-5s5,2.2,5,5v60.1C322.1,302.7,319.9,304.9,317.1,304.9z"
			/>
		<path class="st0" d="M301.7,297.1c-2.8,0-5-2.2-5-5v-44.5c0-2.8,2.2-5,5-5c2.8,0,5,2.2,5,5v44.5
			C306.7,294.9,304.5,297.1,301.7,297.1z"/>
		<path class="st0" d="M348.2,304.9c-2.8,0-5-2.2-5-5v-60.1c0-2.8,2.2-5,5-5c2.8,0,5,2.2,5,5v60.1
			C353.2,302.7,351,304.9,348.2,304.9z"/>
		<path class="st0" d="M363.8,290.4c-2.8,0-5-2.2-5-5v-31.2c0-2.8,2.2-5,5-5c2.8,0,5,2.2,5,5v31.2
			C368.8,288.2,366.6,290.4,363.8,290.4z"/>
	</g>
</g>
</svg>
