<svg xmlns="http://www.w3.org/2000/svg" version="1.1" xmlns:xlink="http://www.w3.org/1999/xlink" width="512" height="512" x="0" y="0" viewBox="0 0 32 32" style="enable-background:new 0 0 512 512" xml:space="preserve" class=""><g><path fill="#efac00" d="M29.889 12.472a2.013 2.013 0 0 0-1.6-1.366l-7.187-1.103-3.221-6.834a1.984 1.984 0 0 0-1.807-1.168c-.778 0-1.471.448-1.807 1.166l-3.222 6.837-7.187 1.103a2.016 2.016 0 0 0-1.6 1.366 2.09 2.09 0 0 0 .477 2.13l5.23 5.382-1.236 7.612c-.13.802.194 1.584.847 2.043a1.961 1.961 0 0 0 2.085.111l6.396-3.568 6.431 3.568a1.95 1.95 0 0 0 2.084-.111 2.066 2.066 0 0 0 .847-2.042l-1.236-7.612 5.23-5.382a2.09 2.09 0 0 0 .477-2.13z" opacity="0.9411764705882353" data-original="#ffcb2b" class=""></path></g></svg>