<?xml version="1.0" encoding="UTF-8"?>
<svg version="1.1" xmlns="http://www.w3.org/2000/svg" width="300" height="223">
<path d="M0 0 C3.73184855 1.69584002 7.53702387 2.77880375 11.4765625 3.88671875 C21.0272702 6.60691038 30.10864313 9.68669788 38.9140625 14.32421875 C39.8834375 14.77796875 40.8528125 15.23171875 41.8515625 15.69921875 C46.09261554 17.94957342 49.99185472 20.56238732 53.9140625 23.32421875 C54.61789062 23.77667969 55.32171875 24.22914062 56.046875 24.6953125 C58.80453203 26.66586499 60.58130798 28.14562371 61.51953125 31.46875 C61.99905262 39.49101297 58.63294051 47.4322532 54.79394531 54.33959961 C50.00945757 63.11022673 47.91724601 72.60282613 45.43994141 82.21020508 C41.37136322 97.88035549 35.69349791 112.31787097 28.19921875 126.6640625 C26.76905987 129.13197285 26.76905987 129.13197285 26.9140625 131.32421875 C28.77394945 132.44845663 30.67905313 133.49828498 32.6015625 134.51171875 C37.98396134 137.58102057 41.13451768 139.7651291 43.9140625 145.32421875 C44.5390625 148.94921875 44.5390625 148.94921875 43.9140625 152.32421875 C40.42386868 156.47330898 36.59520345 158.75146233 31.7265625 160.94921875 C26.6215359 163.2018579 26.6215359 163.2018579 22.9140625 167.32421875 C21.21264648 168.31982422 21.21264648 168.31982422 19.16015625 169.19140625 C18.39598389 169.5174585 17.63181152 169.84351074 16.84448242 170.17944336 C16.02181885 170.51596924 15.19915527 170.85249512 14.3515625 171.19921875 C13.08566284 171.7243103 13.08566284 171.7243103 11.79418945 172.26000977 C-11.0328012 181.51742133 -30.39775434 182.6997267 -54.40161133 177.86254883 C-76.45311743 173.44021404 -91.61378305 177.1882679 -111.91552734 185.50610352 C-132.93671567 194.02538884 -156.13781595 195.35789006 -177.4609375 187.01171875 C-184.65035587 183.7852008 -191.69705844 180.09040731 -196.0859375 173.32421875 C-197.29237316 169.70491177 -197.40862309 167.1319087 -197.0859375 163.32421875 C-193.70683626 156.70118033 -187.65306928 151.70160081 -181.0859375 148.32421875 C-180.4259375 148.32421875 -179.7659375 148.32421875 -179.0859375 148.32421875 C-178.90417969 147.67195312 -178.72242188 147.0196875 -178.53515625 146.34765625 C-174.70745744 133.03904193 -174.70745744 133.03904193 -169.0859375 128.32421875 C-168.4259375 128.32421875 -167.7659375 128.32421875 -167.0859375 128.32421875 C-167.88640291 126.14337809 -167.88640291 126.14337809 -170.01171875 125.6484375 C-171.19314453 125.33326172 -171.19314453 125.33326172 -172.3984375 125.01171875 C-176.78425246 123.60051015 -178.60786525 122.3404048 -181.0859375 118.32421875 C-181.52091553 117.67662598 -181.95589355 117.0290332 -182.40405273 116.36181641 C-187.00639949 109.22572887 -189.52332864 101.85806245 -191.9609375 93.76171875 C-192.36629506 92.4860442 -192.77254133 91.2106517 -193.1796875 89.93554688 C-197.87384695 74.64759561 -197.87384695 74.64759561 -194.96484375 67.61328125 C-192.56145375 64.6852427 -189.87044344 62.18139878 -187.0234375 59.69921875 C-182.49605356 55.71555155 -179.16590504 52.75228026 -178.0234375 46.63671875 C-177.85199219 45.74984375 -177.68054688 44.86296875 -177.50390625 43.94921875 C-177.13899729 41.6574541 -176.96692835 39.44938485 -176.8359375 37.13671875 C-175.83351544 32.0410733 -174.21322502 29.46776211 -170.0859375 26.32421875 C-162.45968509 22.25753428 -154.29624191 19.60371571 -146.0234375 17.1875 C-143.5728059 16.46730109 -141.17986442 15.67649495 -138.7734375 14.82421875 C-133.82814209 13.13580632 -128.75291727 11.95846289 -123.66870117 10.76953125 C-119.75192673 9.83401613 -119.75192673 9.83401613 -116.05078125 8.28515625 C-113.1291459 6.85628489 -110.16252763 6.53884925 -106.9609375 6.01171875 C-100.84740474 4.94923282 -94.92292932 3.54104272 -88.9609375 1.82421875 C-81.38975164 -0.34575371 -73.82110502 -2.16959351 -66.0859375 -3.67578125 C-65.42770996 -3.81258301 -64.76948242 -3.94938477 -64.09130859 -4.09033203 C-43.93655741 -8.27214824 -18.92358677 -9.29432801 0 0 Z " fill="#777777" transform="translate(225.0859375,18.67578125)"/>
<path d="M0 0 C3.1478486 0.57524137 6.25882292 0.90709703 9.44116211 1.21508789 C15.52078007 1.81287871 20.83552777 2.36064946 26.15625 5.5625 C28.5935229 6.83067452 30.96580961 7.37729165 33.640625 8 C44.70489501 10.58772434 55.05785391 14.18489476 65.078125 19.5625 C66.36907587 20.16819464 67.6607231 20.7724077 68.953125 21.375 C75.40905842 24.60296671 83.03746664 28.50151246 87.078125 34.5625 C86.93217167 41.4223064 83.90906163 47.41729609 81.078125 53.5625 C80.41103516 55.03396484 80.41103516 55.03396484 79.73046875 56.53515625 C76.13754026 63.81108664 71.58758779 69.37620524 63.86328125 72.44140625 C63.17105469 72.66699219 62.47882813 72.89257812 61.765625 73.125 C57.34490633 74.84833101 56.50994271 76.6212782 54.078125 80.5625 C49.91187248 82.86530139 46.32155323 82.68092785 41.640625 82.5 C25.88857223 82.31985301 16.43797345 86.43613492 4.55175781 96.50854492 C3.078125 97.5625 3.078125 97.5625 1.078125 97.5625 C1.243125 98.42875 1.408125 99.295 1.578125 100.1875 C2.47078731 106.26011822 2.15452312 112.44216132 2.078125 118.5625 C1.748125 118.5625 1.418125 118.5625 1.078125 118.5625 C1.02914062 117.716875 0.98015625 116.87125 0.9296875 116 C0.41823405 106.60098451 0.41823405 106.60098451 -1.921875 97.5625 C-4.25520833 96.14583333 -4.25520833 96.14583333 -6.921875 95.5625 C-7.49808594 95.0675 -8.07429687 94.5725 -8.66796875 94.0625 C-15.99159837 89.18854199 -31.24979546 91.44254838 -39.796875 91.375 C-40.84190186 91.36186768 -41.88692871 91.34873535 -42.96362305 91.33520508 C-48.78037843 91.32920223 -54.10260135 91.78437693 -59.76391602 93.14990234 C-65.68120883 94.28127748 -70.99119369 92.26344549 -76.515625 90.32421875 C-83.91401527 87.98219585 -91.58058487 87.31702943 -99.29296875 86.90625 C-101.921875 86.5625 -101.921875 86.5625 -103.91015625 85.515625 C-106.64676859 84.21905527 -108.66673699 84.58368239 -111.671875 84.8125 C-120.62651997 84.98470471 -129.81507551 81.86012737 -137.34765625 76.99609375 C-140.94006974 74.99546287 -144.61033761 74.28547231 -148.609375 73.4375 C-156.72425241 71.66131129 -156.72425241 71.66131129 -158.921875 70.5625 C-157.79843903 67.52922288 -156.69031471 66.37725177 -154.109375 64.3125 C-147.81899727 59.17561452 -145.67853146 53.97032852 -144.859375 45.9375 C-144.71822266 44.06191406 -144.71822266 44.06191406 -144.57421875 42.1484375 C-143.6943955 37.31204384 -141.87868853 34.0225256 -137.90625 31.05859375 C-131.33797557 27.94670149 -124.61652154 25.74892403 -117.6640625 23.68359375 C-114.89889718 22.85519871 -112.19744236 21.97649312 -109.484375 21 C-104.47538336 19.28512279 -99.29377348 18.20644775 -94.12329102 17.09545898 C-90.65327482 16.32376583 -87.45422598 15.44443368 -84.203125 13.9921875 C-81.32288852 12.73722732 -79.1226233 12.10096125 -76.046875 11.6875 C-70.98698335 10.86282153 -66.19389964 9.54386327 -61.296875 8.0625 C-49.97287569 4.65475827 -38.57399536 2.53510305 -26.921875 0.5625 C-25.68695313 0.35238281 -24.45203125 0.14226563 -23.1796875 -0.07421875 C-14.99175344 -1.40735813 -8.11181317 -1.7915661 0 0 Z " fill="#9D9D9D" transform="translate(195.921875,16.4375)"/>
<path d="M0 0 C3.73184855 1.69584002 7.53702387 2.77880375 11.4765625 3.88671875 C21.0272702 6.60691038 30.10864313 9.68669788 38.9140625 14.32421875 C39.8834375 14.77796875 40.8528125 15.23171875 41.8515625 15.69921875 C46.09261554 17.94957342 49.99185472 20.56238732 53.9140625 23.32421875 C54.61789062 23.77667969 55.32171875 24.22914062 56.046875 24.6953125 C58.80453203 26.66586499 60.58130798 28.14562371 61.51953125 31.46875 C61.99905262 39.49101297 58.63294051 47.4322532 54.79394531 54.33959961 C50.00945757 63.11022673 47.91724601 72.60282613 45.43994141 82.21020508 C41.37136322 97.88035549 35.69349791 112.31787097 28.19921875 126.6640625 C26.76905987 129.13197285 26.76905987 129.13197285 26.9140625 131.32421875 C28.77394945 132.44845663 30.67905313 133.49828498 32.6015625 134.51171875 C37.98396134 137.58102057 41.13451768 139.7651291 43.9140625 145.32421875 C44.5390625 148.94921875 44.5390625 148.94921875 43.9140625 152.32421875 C40.42386868 156.47330898 36.59520345 158.75146233 31.7265625 160.94921875 C26.6215359 163.2018579 26.6215359 163.2018579 22.9140625 167.32421875 C21.21264648 168.31982422 21.21264648 168.31982422 19.16015625 169.19140625 C18.39598389 169.5174585 17.63181152 169.84351074 16.84448242 170.17944336 C16.02181885 170.51596924 15.19915527 170.85249512 14.3515625 171.19921875 C13.08566284 171.7243103 13.08566284 171.7243103 11.79418945 172.26000977 C-11.0328012 181.51742133 -30.39775434 182.6997267 -54.40161133 177.86254883 C-76.45311743 173.44021404 -91.61378305 177.1882679 -111.91552734 185.50610352 C-132.93671567 194.02538884 -156.13781595 195.35789006 -177.4609375 187.01171875 C-184.65035587 183.7852008 -191.69705844 180.09040731 -196.0859375 173.32421875 C-197.29237316 169.70491177 -197.40862309 167.1319087 -197.0859375 163.32421875 C-193.70683626 156.70118033 -187.65306928 151.70160081 -181.0859375 148.32421875 C-180.4259375 148.32421875 -179.7659375 148.32421875 -179.0859375 148.32421875 C-178.90417969 147.67195312 -178.72242188 147.0196875 -178.53515625 146.34765625 C-174.70745744 133.03904193 -174.70745744 133.03904193 -169.0859375 128.32421875 C-168.4259375 128.32421875 -167.7659375 128.32421875 -167.0859375 128.32421875 C-167.88640291 126.14337809 -167.88640291 126.14337809 -170.01171875 125.6484375 C-171.19314453 125.33326172 -171.19314453 125.33326172 -172.3984375 125.01171875 C-176.78425246 123.60051015 -178.60786525 122.3404048 -181.0859375 118.32421875 C-181.52091553 117.67662598 -181.95589355 117.0290332 -182.40405273 116.36181641 C-187.00639949 109.22572887 -189.52332864 101.85806245 -191.9609375 93.76171875 C-192.36629506 92.4860442 -192.77254133 91.2106517 -193.1796875 89.93554688 C-197.87384695 74.64759561 -197.87384695 74.64759561 -194.96484375 67.61328125 C-192.56145375 64.6852427 -189.87044344 62.18139878 -187.0234375 59.69921875 C-182.49605356 55.71555155 -179.16590504 52.75228026 -178.0234375 46.63671875 C-177.85199219 45.74984375 -177.68054688 44.86296875 -177.50390625 43.94921875 C-177.13899729 41.6574541 -176.96692835 39.44938485 -176.8359375 37.13671875 C-175.83351544 32.0410733 -174.21322502 29.46776211 -170.0859375 26.32421875 C-162.45968509 22.25753428 -154.29624191 19.60371571 -146.0234375 17.1875 C-143.5728059 16.46730109 -141.17986442 15.67649495 -138.7734375 14.82421875 C-133.82814209 13.13580632 -128.75291727 11.95846289 -123.66870117 10.76953125 C-119.75192673 9.83401613 -119.75192673 9.83401613 -116.05078125 8.28515625 C-113.1291459 6.85628489 -110.16252763 6.53884925 -106.9609375 6.01171875 C-100.84740474 4.94923282 -94.92292932 3.54104272 -88.9609375 1.82421875 C-81.38975164 -0.34575371 -73.82110502 -2.16959351 -66.0859375 -3.67578125 C-65.42770996 -3.81258301 -64.76948242 -3.94938477 -64.09130859 -4.09033203 C-43.93655741 -8.27214824 -18.92358677 -9.29432801 0 0 Z M-56.0859375 -1.67578125 C-57.43879037 -1.45565716 -58.79165534 -1.23560743 -60.14453125 -1.015625 C-72.27702057 0.99849745 -84.1138613 3.69536339 -95.8359375 7.44921875 C-101.06321621 9.11777654 -106.18861042 10.11786747 -111.625 10.83203125 C-114.32716403 11.21005047 -114.32716403 11.21005047 -117.0859375 13.32421875 C-119.28735352 13.94677734 -119.28735352 13.94677734 -121.83984375 14.47265625 C-122.77763672 14.67375 -123.71542969 14.87484375 -124.68164062 15.08203125 C-126.63173896 15.48771333 -128.58224981 15.89141844 -130.53320312 16.29296875 C-136.21466567 17.51512135 -141.42117633 19.1102333 -146.77514648 21.36962891 C-151.26463898 23.22424229 -155.93316318 24.54469867 -160.5703125 25.98046875 C-165.22191323 27.75841392 -168.78518061 29.68643491 -171.91015625 33.62109375 C-173.37392157 36.98629508 -173.61647508 39.91998582 -173.8984375 43.57421875 C-174.65063092 50.43787983 -176.18683676 55.32924519 -181.0859375 60.32421875 C-183.96877872 62.54880462 -186.85103815 64.68918518 -189.890625 66.6953125 C-192.72769162 70.09272502 -192.75110576 72.06348853 -192.51660156 76.3918457 C-191.66521323 82.18891217 -189.86554793 87.65198831 -188.0234375 93.19921875 C-187.65283203 94.38902344 -187.28222656 95.57882813 -186.90039062 96.8046875 C-182.58199939 110.74692822 -182.58199939 110.74692822 -173.13452148 121.18505859 C-170.48372742 122.41420912 -167.86115949 123.41755419 -165.0859375 124.32421875 C-164.4259375 124.65421875 -163.7659375 124.98421875 -163.0859375 125.32421875 C-161.63014163 125.41977292 -160.1698579 125.45406566 -158.7109375 125.44921875 C-157.55464844 125.45308594 -157.55464844 125.45308594 -156.375 125.45703125 C-154.14455602 125.32761982 -152.24307266 124.87433153 -150.0859375 124.32421875 C-147.75292817 124.28533526 -145.41883949 124.27935525 -143.0859375 124.32421875 C-144.28476563 124.43636719 -144.28476563 124.43636719 -145.5078125 124.55078125 C-154.65425519 125.64577791 -164.80747977 128.00075315 -171.0859375 135.32421875 C-172.10858808 137.55487422 -172.10858808 137.55487422 -172.875 140.0703125 C-173.32746094 141.44993164 -173.32746094 141.44993164 -173.7890625 142.85742188 C-174.09328125 143.81583984 -174.3975 144.77425781 -174.7109375 145.76171875 C-175.02289063 146.71626953 -175.33484375 147.67082031 -175.65625 148.65429688 C-179.06019953 158.76808045 -179.06019953 158.76808045 -179.0859375 169.32421875 C-177.06552535 172.26136656 -177.06552535 172.26136656 -174.0859375 174.32421875 C-172.7865625 175.43796875 -172.7865625 175.43796875 -171.4609375 176.57421875 C-163.64317495 180.6278734 -153.23002212 179.53179379 -144.5859375 179.57421875 C-143.53535156 179.59484375 -142.48476562 179.61546875 -141.40234375 179.63671875 C-130.60408407 179.6901094 -121.09247158 177.41584742 -112.0859375 171.32421875 C-111.46203125 170.90527344 -110.838125 170.48632812 -110.1953125 170.0546875 C-107.69333217 168.02621279 -106.34538095 166.34695234 -105.546875 163.19921875 C-104.97115001 153.50279779 -108.5283393 143.58190796 -111.0859375 134.32421875 C-110.46002271 136.34476893 -109.83525141 138.36567335 -109.2109375 140.38671875 C-108.84097656 141.57523438 -108.47101563 142.76375 -108.08984375 143.98828125 C-107.36015845 146.41299428 -106.72203073 148.80027985 -106.1484375 151.26171875 C-104.83960906 155.03422425 -103.25453225 157.88694313 -100.0859375 160.32421875 C-96.77698363 161.28320294 -93.51669469 161.43499962 -90.0859375 161.57421875 C-84.63307869 161.89032651 -80.14732355 162.15981024 -75.0859375 164.32421875 C-66.86479881 165.74675286 -58.49519262 165.62528986 -50.171875 165.75390625 C-43.78327694 165.92579678 -38.35855301 166.60459544 -32.30664062 168.65185547 C-24.96561503 170.87450108 -15.19676176 170.36242069 -8.05859375 167.48046875 C-0.23206641 162.89303887 5.41965413 154.34799852 10.9140625 147.32421875 C11.3766748 146.74986084 11.83928711 146.17550293 12.31591797 145.58374023 C16.53617626 140.19849341 19.69168153 134.47367494 22.7890625 128.38671875 C23.31008545 127.36819824 23.8311084 126.34967773 24.36791992 125.30029297 C25.41122065 123.25170587 26.45029771 121.20096154 27.48486328 119.14794922 C28.70997008 116.72745293 29.96084332 114.32331729 31.22265625 111.921875 C37.34823855 99.96295869 40.52457429 87.27141398 43.9140625 74.32421875 C46.5951654 64.24047618 49.70904656 54.95381843 54.36328125 45.59375 C56.91671511 40.21031387 58.80047326 36.22633654 56.9140625 30.32421875 C54.94039623 28.28043006 54.94039623 28.28043006 52.3515625 26.76171875 C51.4440625 26.17648438 50.5365625 25.59125 49.6015625 24.98828125 C48.7146875 24.43914063 47.8278125 23.89 46.9140625 23.32421875 C46.2128125 22.85757813 45.5115625 22.3909375 44.7890625 21.91015625 C40.05720775 18.80010656 35.1424686 16.47657926 29.9140625 14.32421875 C28.72296875 13.83115234 28.72296875 13.83115234 27.5078125 13.328125 C24.98544775 12.30241655 22.45342094 11.30707284 19.9140625 10.32421875 C19.0375 9.98261719 18.1609375 9.64101563 17.2578125 9.2890625 C11.4898466 7.10950067 5.76179785 5.45584957 -0.26171875 4.1328125 C-3.0859375 3.32421875 -3.0859375 3.32421875 -5.71484375 1.8359375 C-10.57729322 -0.34455838 -15.44706923 -0.72030455 -20.7109375 -1.30078125 C-22.7658523 -1.54103248 -24.82055049 -1.78314562 -26.875 -2.02734375 C-27.77943848 -2.12869629 -28.68387695 -2.23004883 -29.61572266 -2.33447266 C-31.83744711 -2.64144743 -33.91588382 -3.12542598 -36.0859375 -3.67578125 C-42.87186672 -4.10892567 -49.41145624 -2.80574075 -56.0859375 -1.67578125 Z " fill="#171717" transform="translate(225.0859375,18.67578125)"/>
<path d="M0 0 C1.30174424 2.60348847 0.77469866 3.43599346 -0.0390625 6.19140625 C-0.2868042 7.04460449 -0.5345459 7.89780273 -0.78979492 8.77685547 C-1.0654126 9.69611816 -1.34103027 10.61538086 -1.625 11.5625 C-2.19687372 13.49341286 -2.76848529 15.42440337 -3.33984375 17.35546875 C-3.62585449 18.31630371 -3.91186523 19.27713867 -4.20654297 20.26708984 C-4.89096766 22.62445907 -5.52614253 24.98406838 -6.12890625 27.36328125 C-9.15294833 39.02965796 -14.2010248 49.54240658 -19.62744141 60.27294922 C-20.87645517 62.7545365 -22.08926357 65.2501356 -23.29296875 67.75390625 C-27.90404744 77.14193728 -33.45254708 84.78383944 -40.56298828 92.43945312 C-41.93407687 93.92840968 -43.26322585 95.45566297 -44.58984375 96.984375 C-49.41779371 102.54334567 -53.35550578 107.06829219 -61 108 C-63.51891116 108.11659115 -66.04092308 108.17497976 -68.5625 108.1875 C-69.86316406 108.20167969 -71.16382813 108.21585937 -72.50390625 108.23046875 C-75.68701826 108.02063232 -77.36406237 107.69692677 -80 106 C-79.34 106 -78.68 106 -78 106 C-77.88406494 105.44538086 -77.76812988 104.89076172 -77.64868164 104.31933594 C-77.12075566 101.79605555 -76.59163973 99.27302612 -76.0625 96.75 C-75.88009766 95.87730469 -75.69769531 95.00460938 -75.50976562 94.10546875 C-75.33251953 93.26113281 -75.15527344 92.41679687 -74.97265625 91.546875 C-74.81031494 90.77182617 -74.64797363 89.99677734 -74.48071289 89.19824219 C-74.18420987 87.84236958 -73.85041214 86.49331625 -73.45742798 85.16220093 C-72.9397755 82.71532683 -73.01390932 80.69941895 -73.20043945 78.20654297 C-73.2983654 76.78388626 -73.2983654 76.78388626 -73.39826965 75.33248901 C-73.46922348 74.31268951 -73.54017731 73.29289001 -73.61328125 72.2421875 C-73.79096274 68.93267886 -73.95595805 65.62266842 -74.12084961 62.3125 C-74.24809853 60.03012453 -74.39896495 57.74893732 -74.57397461 55.46972656 C-75.96028127 36.95521868 -75.96028127 36.95521868 -72.66986084 31.99475098 C-68.97636361 28.29869246 -64.69206009 26.18911776 -60 24 C-58.65659793 23.01356771 -57.32013155 22.01736448 -56 21 C-47.15132192 18.09428544 -38.69166736 17.73441524 -29.49609375 18.08984375 C-26.06248599 18.00160579 -23.98778504 17.65200523 -21 16 C-20.443125 15.05125 -19.88625 14.1025 -19.3125 13.125 C-16.42799015 9.22701372 -14.00631551 8.63591179 -9.55078125 7.078125 C-5.63081746 5.42129497 -3.05818433 2.92521979 0 0 Z " fill="#5D5D5D" transform="translate(271,80)"/>
<path d="M0 0 C13.70731707 0.70731707 13.70731707 0.70731707 19 6 C20.28974647 9.74010284 21.16641316 13.60085938 22.125 17.4375 C22.40214844 18.48099609 22.67929688 19.52449219 22.96484375 20.59960938 C24.66553049 27.34790085 26.05673735 34.03459976 25 41 C23.3125 43.68359375 23.3125 43.68359375 21 45.4375 C20.175 46.06785156 19.35 46.69820312 18.5 47.34765625 C8.26912275 54.10962668 -1.22958638 55.32684955 -13.375 55.1875 C-14.96441406 55.1865332 -14.96441406 55.1865332 -16.5859375 55.18554688 C-36.80694485 55.07403397 -36.80694485 55.07403397 -42.0625 51.125 C-42.77535156 50.61195313 -43.48820312 50.09890625 -44.22265625 49.5703125 C-46.3696847 47.67337747 -47.84516881 45.99326629 -48.29638672 43.09863281 C-48.32033476 36.90876776 -47.02413039 31.61522128 -45.125 25.75 C-44.85558594 24.87859375 -44.58617187 24.0071875 -44.30859375 23.109375 C-43.02557703 19.00372149 -41.68613905 14.96160826 -40 11 C-39.5875 11.556875 -39.175 12.11375 -38.75 12.6875 C-37.51694538 14.31689361 -36.21776815 15.89726595 -34.875 17.4375 C-32.94068229 20.08106754 -32.36738701 21.78536369 -32 25 C-31.67 24.01 -31.34 23.02 -31 22 C-30.24460937 22.15339844 -29.48921875 22.30679688 -28.7109375 22.46484375 C-23.6909083 23.1887848 -18.68939556 23.36319153 -13.625 23.5625 C-12.60277344 23.60568359 -11.58054688 23.64886719 -10.52734375 23.69335938 C-8.01834712 23.79887792 -5.50926057 23.90099213 -3 24 C-2.690625 24.94875 -2.38125 25.8975 -2.0625 26.875 C-1.12605258 29.86080408 -1.12605258 29.86080408 0 32 C-0.495 27.545 -0.495 27.545 -1 23 C0.13179687 22.45730469 1.26359375 21.91460937 2.4296875 21.35546875 C3.9116661 20.63323867 5.39342563 19.91055895 6.875 19.1875 C7.62136719 18.83107422 8.36773437 18.47464844 9.13671875 18.10742188 C9.85214844 17.75615234 10.56757812 17.40488281 11.3046875 17.04296875 C11.96452637 16.72352295 12.62436523 16.40407715 13.30419922 16.07495117 C15.32192417 14.95670383 15.32192417 14.95670383 17 12 C17.58333333 9.5 17.58333333 9.5 17 7 C13.4230345 4.39916611 9.96576039 3.29979086 5.6875 2.3125 C4.08455078 1.93544922 4.08455078 1.93544922 2.44921875 1.55078125 C1.64097656 1.36902344 0.83273438 1.18726563 0 1 C0 0.67 0 0.34 0 0 Z " fill="#565656" transform="translate(94,143)"/>
<path d="M0 0 C0.66 0 1.32 0 2 0 C2.25652344 0.96679688 2.51304688 1.93359375 2.77734375 2.9296875 C5.32256495 11.86095377 8.27432713 19.25939585 16 25 C19.77438239 26.99102704 23.70953378 28.46834011 27.7421875 29.84375 C31 31 31 31 34 33 C35.48517854 33.5042957 36.98805872 33.95774348 38.5 34.375 C42.27568745 35.45927176 45.94637691 36.6842972 49.625 38.0625 C53.34068544 39.43964216 56.97992206 40.54887093 60.8359375 41.4375 C64.67191044 42.434576 68.39827755 43.77382805 72.1484375 45.05078125 C74.48456403 45.82842337 76.81368192 46.53787489 79.1875 47.1875 C82 48 82 48 83 49 C89.40620479 50.03837292 95.93869755 50.08326077 102.4140625 50.17578125 C103.15976501 50.18777557 103.90546753 50.1997699 104.67376709 50.21212769 C107.77308978 50.26063574 110.87200608 50.30819136 113.97167969 50.32592773 C130.53027418 50.43855945 130.53027418 50.43855945 138 55 C140.88976184 56.44488092 142.7823284 56.33286258 146 56 C148.36660807 54.59367227 150.40844066 53.23449659 152.5625 51.5625 C156.24172193 48.75252114 159.25761056 46.48571959 164 46 C160.1255612 49.11118163 156.23208329 52.19600985 152.3125 55.25 C151.44141602 55.93835938 151.44141602 55.93835938 150.55273438 56.640625 C146.22853888 60 146.22853888 60 144 60 C144.165 60.86625 144.33 61.7325 144.5 62.625 C145.39266231 68.69761822 145.07639812 74.87966132 145 81 C144.67 81 144.34 81 144 81 C143.95101562 80.154375 143.90203125 79.30875 143.8515625 78.4375 C143.34010905 69.03848451 143.34010905 69.03848451 141 60 C138.66666667 58.58333333 138.66666667 58.58333333 136 58 C135.42378906 57.505 134.84757813 57.01 134.25390625 56.5 C126.93027663 51.62604199 111.67207954 53.88004838 103.125 53.8125 C102.07997314 53.79936768 101.03494629 53.78623535 99.95825195 53.77270508 C94.14149657 53.76670223 88.81927365 54.22187693 83.15795898 55.58740234 C77.24066617 56.71877748 71.93068131 54.70094549 66.40625 52.76171875 C59.00785973 50.41969585 51.34129013 49.75452943 43.62890625 49.34375 C41 49 41 49 39.01171875 47.953125 C36.27510641 46.65655527 34.25513801 47.02118239 31.25 47.25 C22.29535503 47.42220471 13.10679949 44.29762737 5.57421875 39.43359375 C1.98180526 37.43296287 -1.68846261 36.72297231 -5.6875 35.875 C-13.80237741 34.09881129 -13.80237741 34.09881129 -16 33 C-14.87656403 29.96672288 -13.76843971 28.81475177 -11.1875 26.75 C-4.81571692 21.5466368 -2.71086977 16.17629874 -1.75 8.0625 C-1.62109375 6.75410156 -1.4921875 5.44570313 -1.359375 4.09765625 C-1 1 -1 1 0 0 Z " fill="#A4A4A4" transform="translate(53,54)"/>
<path d="M0 0 C3.01803928 2.56867327 4.30834723 5.84278542 5.94140625 9.40234375 C8.97530511 15.87308116 12.41844489 21.65230932 16.69140625 27.40234375 C18.94140625 30.65234375 18.94140625 30.65234375 18.94140625 32.65234375 C15.1706408 32.71133996 11.39999699 32.74626943 7.62890625 32.77734375 C6.57638672 32.79410156 5.52386719 32.81085938 4.43945312 32.828125 C-11.51072141 32.92627992 -11.51072141 32.92627992 -18.05859375 29.65234375 C-19.50844482 29.51527346 -20.96300214 29.42595948 -22.41796875 29.36328125 C-23.28679687 29.30785156 -24.155625 29.25242188 -25.05078125 29.1953125 C-26.8724712 29.08435971 -28.69564856 28.99538933 -30.51953125 28.9296875 C-35.35654037 28.58011014 -38.30470053 28.05180022 -41.64453125 24.375 C-44.6936459 20.1786937 -44.90365198 16.68795124 -45.05859375 11.65234375 C-38.26847757 9.37957381 -31.78642032 8.11004561 -24.68359375 7.33984375 C-16.86476123 6.39413406 -11.05766707 4.89845602 -4.3359375 0.6640625 C-2.05859375 -0.34765625 -2.05859375 -0.34765625 0 0 Z " fill="#555555" transform="translate(163.05859375,151.34765625)"/>
<path d="M0 0 C2 2 2 2 2.1875 5.25 C0.67610267 10.02283369 -1.25255092 11.20096958 -5.43359375 13.7109375 C-9.16928619 15.5873127 -12.96903654 16.91364105 -17 18 C-16.855625 18.58007812 -16.71125 19.16015625 -16.5625 19.7578125 C-15.49110572 24.26659675 -14.76054064 28.33054247 -15 33 C-16.57554035 30.11371599 -17.46276373 27.46657616 -18.125 24.25 C-18.29257813 23.45078125 -18.46015625 22.6515625 -18.6328125 21.828125 C-18.75398438 21.22484375 -18.87515625 20.6215625 -19 20 C-19.63502441 19.98018066 -20.27004883 19.96036133 -20.92431641 19.93994141 C-23.82493326 19.84418878 -26.72487905 19.73471454 -29.625 19.625 C-30.62402344 19.5940625 -31.62304688 19.563125 -32.65234375 19.53125 C-37.77732101 19.32760852 -42.20268917 19.01388817 -47 17 C-47.33 18.65 -47.66 20.3 -48 22 C-48.33 22 -48.66 22 -49 22 C-49.0928125 20.453125 -49.0928125 20.453125 -49.1875 18.875 C-49.970165 15.14228999 -50.2161855 14.43728468 -52.625 11.875 C-55 9 -55 9 -54.9375 6.51953125 C-53.17113941 1.77243716 -48.34116634 0.13499984 -44 -2 C-30.70806273 -6.89702952 -12.72597004 -6.57384417 0 0 Z " fill="#9D9D9D" transform="translate(110,148)"/>
<path d="M0 0 C13.70731707 0.70731707 13.70731707 0.70731707 19 6 C20.28974647 9.74010284 21.16641316 13.60085938 22.125 17.4375 C22.40214844 18.48099609 22.67929688 19.52449219 22.96484375 20.59960938 C24.66553049 27.34790085 26.05673735 34.03459976 25 41 C23.3125 43.68359375 23.3125 43.68359375 21 45.4375 C20.175 46.06785156 19.35 46.69820312 18.5 47.34765625 C8.26912275 54.10962668 -1.22958638 55.32684955 -13.375 55.1875 C-14.96441406 55.1865332 -14.96441406 55.1865332 -16.5859375 55.18554688 C-21.78594887 55.15687034 -26.97443503 55.0116603 -32.1640625 54.67578125 C-33.04787598 54.61946533 -33.93168945 54.56314941 -34.84228516 54.50512695 C-37 54 -37 54 -39 51 C-34.30120482 46.14457831 -34.30120482 46.14457831 -30.1875 45.6875 C-26.27717269 46.07086542 -24.85013996 47.3873717 -22 50 C-19.77109005 51.11445498 -18.46944894 51.16480286 -16 51.1875 C-15.29875 51.20167969 -14.5975 51.21585938 -13.875 51.23046875 C-11.75475062 51.16512323 -11.75475062 51.16512323 -10 49 C-8.68 49 -7.36 49 -6 49 C-5.67 48.01 -5.34 47.02 -5 46 C-3.02 46.99 -1.04 47.98 1 49 C0.31530883 35.97390046 0.31530883 35.97390046 -1 23 C0.13179687 22.45730469 1.26359375 21.91460937 2.4296875 21.35546875 C3.9116661 20.63323867 5.39342563 19.91055895 6.875 19.1875 C7.62136719 18.83107422 8.36773437 18.47464844 9.13671875 18.10742188 C9.85214844 17.75615234 10.56757812 17.40488281 11.3046875 17.04296875 C11.96452637 16.72352295 12.62436523 16.40407715 13.30419922 16.07495117 C15.32192417 14.95670383 15.32192417 14.95670383 17 12 C17.58333333 9.5 17.58333333 9.5 17 7 C13.4230345 4.39916611 9.96576039 3.29979086 5.6875 2.3125 C4.08455078 1.93544922 4.08455078 1.93544922 2.44921875 1.55078125 C1.64097656 1.36902344 0.83273438 1.18726563 0 1 C0 0.67 0 0.34 0 0 Z " fill="#5C5C5C" transform="translate(94,143)"/>
<path d="M0 0 C0.66 0 1.32 0 2 0 C2.38478516 1.45019531 2.38478516 1.45019531 2.77734375 2.9296875 C5.32256495 11.86095377 8.27432713 19.25939585 16 25 C19.77438239 26.99102704 23.70953378 28.46834011 27.7421875 29.84375 C31 31 31 31 34 33 C35.48517854 33.5042957 36.98805872 33.95774348 38.5 34.375 C42.27568745 35.45927176 45.94637691 36.6842972 49.625 38.0625 C53.34068544 39.43964216 56.97992206 40.54887093 60.8359375 41.4375 C64.67191044 42.434576 68.39827755 43.77382805 72.1484375 45.05078125 C74.48456403 45.82842337 76.81368192 46.53787489 79.1875 47.1875 C82 48 82 48 83 49 C89.40620479 50.03837292 95.93869755 50.08326077 102.4140625 50.17578125 C103.15976501 50.18777557 103.90546753 50.1997699 104.67376709 50.21212769 C107.77308978 50.26063574 110.87200608 50.30819136 113.97167969 50.32592773 C130.53027418 50.43855945 130.53027418 50.43855945 138 55 C140.88976184 56.44488092 142.7823284 56.33286258 146 56 C148.36660807 54.59367227 150.40844066 53.23449659 152.5625 51.5625 C156.24172193 48.75252114 159.25761056 46.48571959 164 46 C160.1255612 49.11118163 156.23208329 52.19600985 152.3125 55.25 C151.44141602 55.93835938 151.44141602 55.93835938 150.55273438 56.640625 C146.22853888 60 146.22853888 60 144 60 C144.165 60.86625 144.33 61.7325 144.5 62.625 C145.39266231 68.69761822 145.07639812 74.87966132 145 81 C144.67 81 144.34 81 144 81 C143.95101562 80.154375 143.90203125 79.30875 143.8515625 78.4375 C143.34010905 69.03848451 143.34010905 69.03848451 141 60 C138.66666667 58.58333333 138.66666667 58.58333333 136 58 C135.43023437 57.505 134.86046875 57.01 134.2734375 56.5 C131.14746369 54.43750182 128.72859969 54.4844129 125 54.3125 C124.31446045 54.27761475 123.6289209 54.24272949 122.92260742 54.20678711 C116.19986196 53.90804834 109.4664669 53.96275117 102.74023438 54.12426758 C98.26145571 54.19015834 95.13033305 53.8990867 91 52 C88.46382385 51.65611171 85.95597517 51.50113869 83.40234375 51.34375 C80.86568271 50.98078062 79.24853014 50.18773165 77 49 C75.69834363 48.66322648 74.38384449 48.37354464 73.0625 48.125 C66.91319359 46.83465374 60.97811336 44.91777314 55 43 C53.49373047 42.51853516 53.49373047 42.51853516 51.95703125 42.02734375 C41.4140722 38.58730295 31.06026898 34.67302555 21 30 C19.9275 29.525625 18.855 29.05125 17.75 28.5625 C14.55325017 26.74616487 12.46801487 24.7211446 10 22 C9.175 21.13375 8.35 20.2675 7.5 19.375 C3.07782329 13.97011735 -0.44685531 7.06031398 0 0 Z " fill="#B5B5B5" transform="translate(53,54)"/>
<path d="M0 0 C3.00856735 3.00856735 3.31203682 6.07840941 3.625 10.1875 C3.59680636 13.73989847 3.38776137 15.47011794 1.2734375 18.359375 C-9.64941859 28.34384139 -20.97339533 30.3527358 -35.375 30.1875 C-36.96441406 30.1865332 -36.96441406 30.1865332 -38.5859375 30.18554688 C-43.78594887 30.15687034 -48.97443503 30.0116603 -54.1640625 29.67578125 C-55.04787598 29.61946533 -55.93168945 29.56314941 -56.84228516 29.50512695 C-59 29 -59 29 -61 26 C-56.30120482 21.14457831 -56.30120482 21.14457831 -52.1875 20.6875 C-48.27717269 21.07086542 -46.85013996 22.3873717 -44 25 C-41.77109005 26.11445498 -40.46944894 26.16480286 -38 26.1875 C-36.948125 26.20876953 -36.948125 26.20876953 -35.875 26.23046875 C-33.75475062 26.16512323 -33.75475062 26.16512323 -32 24 C-30.68 24 -29.36 24 -28 24 C-27.505 22.515 -27.505 22.515 -27 21 C-24.03 22.65 -21.06 24.3 -18 26 C-13.78400773 23.61373715 -13.78400773 23.61373715 -10.9375 19.875 C-10 18 -10 18 -7.5625 17.1875 C-4.65336262 16.15366922 -4.65336262 16.15366922 -3.25 12.6875 C-2.25209124 9.74366916 -1.49517665 7.05358935 -1 4 C-0.67516582 2.66457061 -0.3449145 1.33038449 0 0 Z " fill="#464646" transform="translate(116,168)"/>
<path d="M0 0 C0.61875 0.8353125 0.61875 0.8353125 1.25 1.6875 C2.9793901 4.05991652 2.9793901 4.05991652 5.125 6.25 C7.88581911 10.29920136 8.40915699 14.46322667 7.63867188 19.24023438 C7.06047329 21.56303216 6.39858911 23.83949409 5.6875 26.125 C5.46126953 26.89714844 5.23503906 27.66929687 5.00195312 28.46484375 C3.75792794 32.67373589 2.41381469 36.84484509 1 41 C-2.89034275 39.41504555 -5.44496238 37.33574356 -8 34 C-9.13005708 27.32371907 -7.16299017 21.04407195 -5.125 14.75 C-4.85558594 13.87859375 -4.58617187 13.0071875 -4.30859375 12.109375 C-3.02557703 8.00372149 -1.68613905 3.96160826 0 0 Z " fill="#777777" transform="translate(54,154)"/>
<path d="M0 0 C2.97 0.99 5.94 1.98 9 3 C7.02 3.99 7.02 3.99 5 5 C3.86609726 5.9013073 2.76172018 6.84083067 1.6875 7.8125 C-7.4371699 15.73859038 -7.4371699 15.73859038 -13.8125 17.3125 C-18.15350286 18.43721438 -20.69355091 20.17978519 -24.0625 23.125 C-28.02604421 26.51349021 -30.49936839 27.80521787 -35.68359375 27.92578125 C-38.40087259 28.01284415 -40.90345188 28.50525925 -43.5625 29.0625 C-44.40941406 29.23910156 -45.25632813 29.41570313 -46.12890625 29.59765625 C-47.05509766 29.79681641 -47.05509766 29.79681641 -48 30 C-45.03832195 26.80568258 -42.12345932 25.46767196 -38 24 C-37.05125 24.0825 -36.1025 24.165 -35.125 24.25 C-30.74459564 23.89956765 -28.68461063 21.70396381 -25.37109375 18.94921875 C-23.06843808 17.05626129 -20.72113084 15.35273792 -18.25 13.6875 C-17.55390625 13.21699219 -16.8578125 12.74648438 -16.140625 12.26171875 C-14 11 -14 11 -11.5 10.05078125 C-8.74099079 8.89113519 -6.96701296 7.49700404 -4.75 5.5 C-4.06421875 4.8915625 -3.3784375 4.283125 -2.671875 3.65625 C-0.9106521 2.08853599 -0.9106521 2.08853599 0 0 Z " fill="#606060" transform="translate(233,25)"/>
<path d="M0 0 C3.00856735 3.00856735 3.31203682 6.07840941 3.625 10.1875 C3.59680636 13.73989847 3.38776137 15.47011794 1.2734375 18.359375 C-3.85537335 23.04756636 -9.90307297 27.65858941 -17 28.25 C-17.99 28.12625 -17.99 28.12625 -19 28 C-14.25 23.125 -14.25 23.125 -12 22 C-11.731875 21.360625 -11.46375 20.72125 -11.1875 20.0625 C-10 18 -10 18 -7.5625 17.1875 C-4.65336262 16.15366922 -4.65336262 16.15366922 -3.25 12.6875 C-2.25209124 9.74366916 -1.49517665 7.05358935 -1 4 C-0.67516582 2.66457061 -0.3449145 1.33038449 0 0 Z " fill="#4D4D4D" transform="translate(116,168)"/>
<path d="M0 0 C1.3303125 0.433125 1.3303125 0.433125 2.6875 0.875 C2.18330031 5.21111731 1.50949293 8.46914646 -1.3125 11.875 C-4.4375 12.75 -4.4375 12.75 -7.3125 12.875 C-8.3125 11.875 -8.3125 11.875 -8.6875 9.1875 C-8.0934093 3.9396988 -5.83713838 -0.22026937 0 0 Z " fill="#393939" transform="translate(239.3125,145.125)"/>
<path d="M0 0 C0.99 0 1.98 0 3 0 C3 2 3 2 0.75 4.375 C-0.1575 5.24125 -1.065 6.1075 -2 7 C-3.051875 8.11375 -3.051875 8.11375 -4.125 9.25 C-7.78027818 12.66159297 -11.81527507 12.08264603 -16.5 12 C-23.05824849 11.93447708 -29.47974336 12.22641023 -36 13 C-35.67 12.34 -35.34 11.68 -35 11 C-32.83984375 10.40234375 -32.83984375 10.40234375 -29.9375 9.9375 C-28.32101563 9.67646484 -28.32101563 9.67646484 -26.671875 9.41015625 C-24.00961544 9.11277619 -21.5513131 8.94790522 -18.890625 8.93359375 C-11.28488342 9.1155396 -11.28488342 9.1155396 -4.53125 6.16015625 C-2.66638523 4.00388438 -2.66638523 4.00388438 -1.26171875 1.71484375 C-0.84535156 1.14894531 -0.42898437 0.58304687 0 0 Z " fill="#AFAFAF" transform="translate(254,87)"/>
<path d="M0 0 C-0.2846076 3.41529114 -0.79660671 4.78498424 -3.1875 7.3125 C-6.42716122 9.25629673 -8.28801837 9.34530062 -12 9 C-12.33 7.35 -12.66 5.7 -13 4 C-8.46559267 -0.53440733 -6.55783615 -1.7050374 0 0 Z " fill="#393939" transform="translate(223,170)"/>
<path d="M0 0 C2 3 2 3 2 5 C2.78375 4.938125 3.5675 4.87625 4.375 4.8125 C5.674375 4.9053125 5.674375 4.9053125 7 5 C9.29633824 8.44450737 9.54016485 10.93812283 10 15 C6 15 6 15 3.3125 12.5625 C2.549375 11.716875 1.78625 10.87125 1 10 C0.67 9.67 0.34 9.34 0 9 C-0.07179964 7.48071962 -0.08392007 5.95832518 -0.0625 4.4375 C-0.05347656 3.61121094 -0.04445312 2.78492188 -0.03515625 1.93359375 C-0.02355469 1.29550781 -0.01195312 0.65742188 0 0 Z " fill="#5F5F5F" transform="translate(46,179)"/>
<path d="M0 0 C1.1446875 0.3403125 1.1446875 0.3403125 2.3125 0.6875 C3 3 3 3 3.3125 5.6875 C2.1875 7.5625 2.1875 7.5625 0.3125 8.6875 C-2.375 8.375 -2.375 8.375 -4.6875 7.6875 C-5.375 5.375 -5.375 5.375 -5.6875 2.6875 C-4.0011022 -0.12316299 -3.27764429 -0.38112143 0 0 Z " fill="#3A3A3A" transform="translate(223.6875,156.3125)"/>
<path d="M0 0 C2 1 2 1 3.1875 3.875 C5.52936044 7.91269042 7.67252907 8.48158915 12 10 C13.34013497 10.65288627 14.67741528 11.31225595 16 12 C9.25 12.125 9.25 12.125 7 11 C6.67 12.65 6.34 14.3 6 16 C5.67 16 5.34 16 5 16 C4.9071875 14.453125 4.9071875 14.453125 4.8125 12.875 C4.03628786 9.17306517 3.7363287 8.35334854 1.375 5.75 C0.199375 4.38875 0.199375 4.38875 -1 3 C-0.67 2.01 -0.34 1.02 0 0 Z " fill="#ABABAB" transform="translate(56,154)"/>
<path d="M0 0 C0.33 0.99 0.66 1.98 1 3 C-0.57017193 4.36940568 -2.15665391 5.72012895 -3.75 7.0625 C-4.63171875 7.81660156 -5.5134375 8.57070312 -6.421875 9.34765625 C-9 11 -9 11 -11.328125 10.74609375 C-11.87984375 10.49988281 -12.4315625 10.25367187 -13 10 C-12.22076172 9.41992188 -12.22076172 9.41992188 -11.42578125 8.828125 C-7.5657369 5.94557801 -3.73973042 3.03853097 0 0 Z " fill="#B3B3B3" transform="translate(271,77)"/>
<path d="M0 0 C-1 2 -1 2 -3.3984375 2.88671875 C-4.87183594 3.28310547 -4.87183594 3.28310547 -6.375 3.6875 C-7.35210937 3.95949219 -8.32921875 4.23148438 -9.3359375 4.51171875 C-12 5 -12 5 -15 4 C-13.4470724 3.12855131 -11.88214564 2.27846343 -10.3125 1.4375 C-9.44238281 0.96183594 -8.57226562 0.48617187 -7.67578125 -0.00390625 C-4.61671247 -1.14268368 -3.08136961 -0.92718689 0 0 Z " fill="#676767" transform="translate(200,50)"/>
<path d="M0 0 C0 2 0 2 -2.25 4.375 C-3.1575 5.24125 -4.065 6.1075 -5 7 C-6.1446875 8.1446875 -6.1446875 8.1446875 -7.3125 9.3125 C-7.869375 9.869375 -8.42625 10.42625 -9 11 C-9.33 10.01 -9.66 9.02 -10 8 C-8.671875 5.95703125 -8.671875 5.95703125 -6.75 3.8125 C-6.12609375 3.09707031 -5.5021875 2.38164063 -4.859375 1.64453125 C-3 0 -3 0 0 0 Z " fill="#B6B6B6" transform="translate(257,87)"/>
<path d="M0 0 C2.0625 0.4375 2.0625 0.4375 4 1 C3.42655063 3.86724686 3.1385485 4.8614515 1 7 C0.01 7 -0.98 7 -2 7 C-1.125 1.125 -1.125 1.125 0 0 Z " fill="#3B3B3B" transform="translate(244,137)"/>
<path d="M0 0 C1.98 0.495 1.98 0.495 4 1 C3.67 2.32 3.34 3.64 3 5 C1.68 4.67 0.36 4.34 -1 4 C-0.67 2.68 -0.34 1.36 0 0 Z " fill="#3D3D3D" transform="translate(224,148)"/>
<path d="M0 0 C0.99 0.33 1.98 0.66 3 1 C2.34 2.32 1.68 3.64 1 5 C0.01 4.67 -0.98 4.34 -2 4 C-2 3.01 -2 2.02 -2 1 C-1.34 0.67 -0.68 0.34 0 0 Z " fill="#3C3C3C" transform="translate(227,164)"/>
</svg>
