<?xml version="1.0" encoding="UTF-8"?>
<svg version="1.1" xmlns="http://www.w3.org/2000/svg" width="300" height="223">
<path d="M0 0 C1.50734943 0.13171347 3.01522159 0.25751629 4.5234375 0.37890625 C12.30139371 1.0333146 19.53413961 1.68585612 26.79296875 4.7265625 C31.4898866 6.59159931 36.30413361 8.05243041 41.125 9.5625 C81.41177624 22.23381882 81.41177624 22.23381882 92 35 C94.42000946 42.86503075 91.2776091 50.73364546 88 58 C87.21808054 59.26534684 86.42978249 60.52676419 85.63671875 61.78515625 C81.83938543 68.43614456 80.45108095 75.98295285 78.60644531 83.34991455 C74.20668569 100.77994769 68.61945814 116.17653395 60 132 C58.9802486 133.99108437 57.98709079 135.99247076 57 138 C57.825 138.20625 58.65 138.4125 59.5 138.625 C65.73087176 141.07284248 71.41943001 145.27108802 75 151 C76.06308146 154.40186066 76.36792729 156.13502377 74.96484375 159.43359375 C72.40592917 162.77595336 69.33370326 164.27616513 65.625 166.0625 C60.35100346 168.64347259 60.35100346 168.64347259 55.5546875 171.99609375 C52.13242393 174.68052985 48.4742867 176.27666634 44.5 178 C43.70190918 178.34885254 42.90381836 178.69770508 42.08154297 179.05712891 C18.50700833 189.17672144 -2.43693771 189.35967829 -27 183.3125 C-47.44010683 178.89173271 -63.32815468 184.69007134 -81.93994141 192.59057617 C-102.27272231 201.06217038 -125.1996512 201.28724136 -145.734375 193.4140625 C-152.96232145 190.28425794 -161.34053873 186.40369771 -165 179 C-166.10475782 174.23885018 -166.13079573 170.08927973 -163.76953125 165.7265625 C-160.6065845 161.80480904 -157.34126721 159.57237772 -152.875 157.3125 C-147.15704293 154.17238137 -146.01756577 150.08144567 -144.0859375 144.07421875 C-142.37934404 139.24296316 -139.57769113 136.57769113 -136 133 C-136.68707031 132.74605469 -137.37414062 132.49210938 -138.08203125 132.23046875 C-139.43361328 131.71419922 -139.43361328 131.71419922 -140.8125 131.1875 C-141.70582031 130.85105469 -142.59914063 130.51460937 -143.51953125 130.16796875 C-149.88434134 127.17099518 -153.32065583 120.24182414 -156 114 C-158.43848178 106.94883567 -160.3609138 99.73771055 -162.29125977 92.53417969 C-162.8548665 90.518941 -163.51324136 88.53026338 -164.203125 86.5546875 C-165.46568697 82.50706237 -165.11312395 79.05704386 -164 75 C-160.98390009 70.43015165 -157.03306871 67.13888111 -152.8671875 63.61328125 C-148.44620786 59.79348085 -146.96761012 56.83528143 -146 51 C-145.91021352 49.33366852 -145.82705556 47.6669687 -145.75 46 C-145.21247472 40.35598456 -143.24683666 36.7581134 -139 33 C-132.01046525 28.6195724 -123.74895773 26.5407743 -115.89453125 24.2109375 C-113.2287796 23.41188095 -110.64923502 22.49609974 -108.05859375 21.48046875 C-103.86928546 19.87724778 -99.6278571 18.88227733 -95.25 17.9375 C-90.91729511 16.9993752 -86.95717716 16.04324834 -83 14 C-81.36313688 13.69677321 -79.71469102 13.45379449 -78.0625 13.25 C-72.06526944 12.33130659 -66.37236762 10.76682412 -60.5625 9.0625 C-49.54327798 5.83954016 -38.63999557 3.09475238 -27.2578125 1.4765625 C-25.05924806 1.15494996 -22.86605669 0.79455615 -20.6796875 0.3984375 C-13.42014605 -0.88871524 -7.27656671 -0.92948845 0 0 Z " 
fill="#C67489" transform="translate(187,13)"/>
<path d="M0 0 C2.13224361 2.65931506 3.53879975 5.07345594 4.75 8.25 C8.37844666 16.59267849 13.68615789 21.5748216 22 25 C22.68835938 25.32484375 23.37671875 25.6496875 24.0859375 25.984375 C29.38812992 28.47276855 34.8112138 30.32340277 40.3984375 32.0703125 C43 33 43 33 46 35 C47.44836671 35.50565815 48.91648196 35.9563024 50.39453125 36.3671875 C51.69535645 36.73324097 51.69535645 36.73324097 53.02246094 37.10668945 C53.94317383 37.36023193 54.86388672 37.61377441 55.8125 37.875 C56.7499707 38.13821045 57.68744141 38.4014209 58.65332031 38.67260742 C61.43425847 39.45310882 64.21689064 40.22728146 67 41 C69.75122783 41.76662266 72.50096591 42.53800433 75.25 43.3125 C76.34828125 43.61800781 77.4465625 43.92351562 78.578125 44.23828125 C81 45 81 45 82 46 C83.99603206 46.20888708 85.99742941 46.36775477 88 46.5 C93.88888889 46.88888889 93.88888889 46.88888889 95 48 C98.06870168 48.04818374 101.11975887 48.04108086 104.1875 48 C129.32536927 47.88357952 129.32536927 47.88357952 140 55 C143.04801096 55.54741576 145.07506946 55.57063076 147.7578125 53.91552734 C149.7146657 52.38595512 151.60724656 50.79561147 153.5 49.1875 C164.36634709 40.57297424 175.06245862 39.60933364 188.60473633 39.55200195 C193.37299643 39.49009398 193.37299643 39.49009398 197.4140625 37.125 C197.93742188 36.42375 198.46078125 35.7225 199 35 C202.47493855 31.0424311 205.13369042 29.42041567 209.99609375 27.82421875 C213.23871946 26.4905072 215.44108941 24.3669923 218 22 C219.30619377 25.63685323 218.66966893 27.77030189 217.4375 31.375 C216.04262723 35.61198555 214.7641543 39.821897 213.67578125 44.1484375 C210.62717429 56.21597334 206.75635837 66.9797662 201 78 C200.15821223 79.65201681 199.31709157 81.30437367 198.4765625 82.95703125 C192.69856142 94.22179695 186.8784043 104.23707737 178.23828125 113.57421875 C176.18563755 115.79881166 174.21217917 118.07082882 172.25 120.375 C166.26745293 127.1497565 161.51148846 129.40039606 152.58203125 130.22265625 C148.08609919 130.3870544 144.35569618 129.90180509 140.078125 128.51171875 C133.27505585 126.58762415 126.65605606 126.55148263 119.625 126.5 C111.03654188 126.43671662 103.25312531 125.8471428 94.91552734 123.71728516 C91.10612401 122.78008645 87.40141385 122.33934563 83.5 121.9375 C72.99962558 120.85232351 72.99962558 120.85232351 68.87890625 117.03515625 C66.22448193 112.74724005 65.17148841 108.29695302 63.9375 103.4375 C63.45477113 101.55908289 62.96415617 99.68267088 62.46484375 97.80859375 C62.254646 96.98157959 62.04444824 96.15456543 61.82788086 95.30249023 C60.50130261 91.61303005 58.97514011 89.48457883 55.453125 87.734375 C43.70264489 84.12325184 29.00316544 82.71527925 17 86 C14.22975592 86.27649269 11.81513735 86.17873888 9 86 C7.99207435 85.00798897 6.99229816 84.00764298 6 83 C3.99233638 82.47589714 3.99233638 82.47589714 1.8125 82.125 C-3.96649498 80.23301137 -6.17280544 76.43538437 -9.078125 71.29296875 C-12.85004371 63.41687984 -14.99461703 54.81579036 -17.30908203 46.42529297 C-17.86986725 44.45679815 -18.50939821 42.51085924 -19.171875 40.57421875 C-20.53704418 36.33060324 -20.83179895 33.14319616 -19 29 C-16.60672219 26.65336779 -14.16430966 24.62951506 -11.51928711 22.58642578 C-3.59378525 16.46320039 -2.07358493 9.56676684 0 0 Z " 
fill="#BC879E" transform="translate(46,59)"/>
<path d="M0 0 C7.77440437 7.8697123 9.84349704 22.47767596 10.4375 33.25 C10.32085417 37.17912263 9.64225741 39.74552847 6.734375 42.62890625 C-4.54499981 51.54570931 -16.02226536 53.50342103 -30.06225586 53.33618164 C-32.19487962 53.31241777 -34.32625997 53.31566579 -36.45898438 53.32226562 C-53.8579516 53.28943882 -53.8579516 53.28943882 -60.375 48.0625 C-61.02210937 47.55847656 -61.66921875 47.05445313 -62.3359375 46.53515625 C-65.45191433 43.66055791 -66.34134412 41.06171126 -67 37 C-68.32291667 39.96875 -68.32291667 39.96875 -67.0625 42.8125 C-63.96976867 47.59217569 -60.24907155 51.01751389 -54.70141602 52.69506836 C-47.28666918 54.04589229 -40.00500681 54.34016066 -32.47485352 54.31567383 C-30.43647431 54.3124984 -28.39953091 54.33612283 -26.36132812 54.36132812 C-13.27229006 54.3677349 -3.05983336 51.46727161 7.4375 43.5625 C10.25729404 40.74270596 10.88854068 38.75828338 12 35 C15.66769392 35.45033939 19.33391893 35.91172852 23 36.375 C24.02996094 36.50132812 25.05992187 36.62765625 26.12109375 36.7578125 C30.47583338 37.3125564 34.60226817 37.88821387 38.8359375 39.078125 C46.0924211 41.0372633 54.04070417 40.36053261 61.49609375 40.390625 C69.61663917 40.53872005 76.32845241 41.59710331 84.02636719 44.10424805 C92.02100209 46.51248413 100.30859613 44.94362371 108 42 C111.123732 40.04557944 113.49887676 37.69163848 116 35 C116.825 34.13503906 117.65 33.27007812 118.5 32.37890625 C126.75073936 23.52655048 133.06371288 14.53778779 139 4 C145.79129594 5.01630309 151.4164266 8.95007466 156 14 C158.16316163 17.24474244 159 19.10720332 159 23 C156.85676887 28.01161566 153.32843824 29.79704085 148.625 32.0625 C143.35100346 34.64347259 143.35100346 34.64347259 138.5546875 37.99609375 C135.13242393 40.68052985 131.4742867 42.27666634 127.5 44 C126.70190918 44.34885254 125.90381836 44.69770508 125.08154297 45.05712891 C101.50700833 55.17672144 80.56306229 55.35967829 56 49.3125 C35.55989317 44.89173271 19.67184532 50.69007134 1.06005859 58.59057617 C-19.27272231 67.06217038 -42.1996512 67.28724136 -62.734375 59.4140625 C-69.96232145 56.28425794 -78.34053873 52.40369771 -82 45 C-83.10475782 40.23885018 -83.13079573 36.08927973 -80.76953125 31.7265625 C-76.49772623 26.42993014 -70.94663772 23.15877738 -65 20 C-64 22 -64 22 -64 25 C-63.67386719 23.97519531 -63.34773438 22.95039063 -63.01171875 21.89453125 C-62.57063753 20.53374877 -62.12921307 19.17307751 -61.6875 17.8125 C-61.47416016 17.13896484 -61.26082031 16.46542969 -61.04101562 15.77148438 C-58.30563666 7.40204127 -54.54123821 2.87807988 -46.68359375 -1.203125 C-33.52366672 -6.64332773 -12.82661829 -6.61224488 0 0 Z " 
fill="#161616" transform="translate(104,147)"/>
<path d="M0 0 C1.30619377 3.63685323 0.66966893 5.77030189 -0.5625 9.375 C-1.95737277 13.61198555 -3.2358457 17.821897 -4.32421875 22.1484375 C-7.37282571 34.21597334 -11.24364163 44.9797662 -17 56 C-17.84178777 57.65201681 -18.68290843 59.30437367 -19.5234375 60.95703125 C-25.30143858 72.22179695 -31.1215957 82.23707737 -39.76171875 91.57421875 C-41.81436245 93.79881166 -43.78782083 96.07082882 -45.75 98.375 C-51.74717318 105.1663194 -56.59206756 107.53677597 -65.59375 108.1875 C-70.55517464 108.3070524 -74.29572965 107.71559497 -79 106 C-78.77280273 105.13387085 -78.77280273 105.13387085 -78.54101562 104.25024414 C-75.52299135 92.52986294 -73.24218621 81.65670684 -73.87646484 69.51904297 C-74.02584007 66.47308719 -74.11619918 63.4271618 -74.20703125 60.37890625 C-74.35290706 55.81065701 -74.50210127 51.24276693 -74.68359375 46.67578125 C-74.72025146 45.72614502 -74.75690918 44.77650879 -74.79467773 43.7980957 C-75.01321975 40.81984357 -75.46683412 37.93688476 -76 35 C-74.45505859 34.16662109 -74.45505859 34.16662109 -72.87890625 33.31640625 C-69.20984088 31.22440338 -66.14949744 28.685312 -62.9375 25.9375 C-53.00829625 18.00706939 -41.70685733 17.60219925 -29.39599609 17.55249023 C-24.62737302 17.49003598 -24.62737302 17.49003598 -20.5859375 15.125 C-20.06257813 14.42375 -19.53921875 13.7225 -19 13 C-15.52506145 9.0424311 -12.86630958 7.42041567 -8.00390625 5.82421875 C-4.76128054 4.4905072 -2.55891059 2.3669923 0 0 Z " 
fill="#C298A5" transform="translate(264,81)"/>
<path d="M0 0 C7.31004249 5.68138017 8.99101302 20.05916025 10.26171875 28.7578125 C10.5383695 35.24223611 10.5383695 35.24223611 8.88671875 38.3203125 C0.58848788 46.02581259 -9.33171573 50.24524418 -20.5859375 50.15625 C-21.40146591 50.15912018 -22.21699432 50.16199036 -23.05723572 50.16494751 C-24.76903993 50.16697551 -26.48086798 50.16153483 -28.19262695 50.14892578 C-30.79756888 50.13283235 -33.40096451 50.14882774 -36.00585938 50.16796875 C-37.6783888 50.1659865 -39.35091728 50.1621432 -41.0234375 50.15625 C-42.17840477 50.16535904 -42.17840477 50.16535904 -43.35670471 50.1746521 C-50.76110621 50.0793145 -56.18627999 47.83392793 -61.73828125 42.7578125 C-64.72610774 38.27607276 -63.71540015 34.91900463 -62.73828125 29.7578125 C-61.35051111 24.00446585 -59.60953127 18.37008913 -57.73828125 12.7578125 C-57.30902344 11.44103516 -57.30902344 11.44103516 -56.87109375 10.09765625 C-54.41213818 4.0205232 -49.58605035 1.2910566 -43.73828125 -1.2421875 C-29.90318729 -5.93655357 -13.46690795 -6.10909662 0 0 Z " 
fill="#C299A7" transform="translate(102.73828125,148.2421875)"/>
<path d="M0 0 C1.50734943 0.13171347 3.01522159 0.25751629 4.5234375 0.37890625 C12.30139371 1.0333146 19.53413961 1.68585612 26.79296875 4.7265625 C31.4898866 6.59159931 36.30413361 8.05243041 41.125 9.5625 C81.41177624 22.23381882 81.41177624 22.23381882 92 35 C94.42000946 42.86503075 91.2776091 50.73364546 88 58 C87.21808054 59.26534684 86.42978249 60.52676419 85.63671875 61.78515625 C81.83965244 68.43567689 80.45208235 75.98101815 78.6078186 83.34744263 C74.4666966 99.73452131 69.47929622 114.61333199 61.35302734 129.515625 C60.08427434 131.8452588 58.87081481 134.19439848 57.67578125 136.5625 C54.31723318 143.16569416 50.79077375 149.33724388 46 155 C45.5663916 155.51949219 45.1327832 156.03898438 44.68603516 156.57421875 C41.18131847 160.76738259 37.61254981 164.89954467 34 169 C33.32324219 169.77601563 32.64648438 170.55203125 31.94921875 171.3515625 C26.66992475 177.05562728 20.68698286 179.21561399 13 180 C12.37996094 180.06445312 11.75992188 180.12890625 11.12109375 180.1953125 C6.20771446 180.46676992 2.28949172 179.54513289 -2.37890625 178.015625 C-9.98681579 175.78124156 -17.05117006 175.45421584 -24.9375 175.4375 C-34.16240236 175.2790624 -42.73717052 174.94686573 -51.71875 172.765625 C-57.7325241 171.36241104 -63.8742158 170.73856973 -70 170 C-70.4125 170.91652344 -70.825 171.83304688 -71.25 172.77734375 C-75.6120678 180.81016949 -84.69880493 184.95622848 -93 188 C-98.92835795 189.45776103 -104.95408495 189.18600911 -111.01757812 189.18530273 C-113.09786998 189.18747171 -115.17761548 189.20560425 -117.2578125 189.22460938 C-139.55726254 189.32326476 -139.55726254 189.32326476 -148 181 C-150.77028672 177.66659425 -151.64356034 175.36638582 -152 171 C-151.5625 168.125 -151.5625 168.125 -151 166 C-150.67 166 -150.34 166 -150 166 C-149.87625 166.79664063 -149.7525 167.59328125 -149.625 168.4140625 C-148.33311774 175.05110763 -147.0945613 179.04098296 -141.42578125 182.9140625 C-133.64818813 186.39581916 -125.821512 186.3725381 -117.4387207 186.37060547 C-115.33395983 186.37495565 -113.23134146 186.41129297 -111.12695312 186.44921875 C-97.85162471 186.56129087 -86.22235487 183.93678489 -76 175 C-73.64880601 171.47320901 -73.78556548 169.97120515 -73.875 165.8125 C-73.89304687 164.72582031 -73.91109375 163.63914063 -73.9296875 162.51953125 C-73.95289062 161.68808594 -73.97609375 160.85664063 -74 160 C-73.01 161.175625 -73.01 161.175625 -72 162.375 C-66.29400488 167.36774573 -59.59353314 167.14869316 -52.3449707 167.63769531 C-49.09719753 167.98947222 -46.1714282 168.66223387 -43.01953125 169.50390625 C-34.57364661 171.51368672 -26.27991092 171.46408538 -17.640625 171.52734375 C-10.84239686 171.6500294 -4.88570723 172.22358846 1.59863281 174.33081055 C8.31651281 176.20288345 16.53294849 175.58208284 23 173 C28.78335719 169.42439742 33.15464887 163.73403815 37.625 158.6875 C38.16350586 158.08397705 38.70201172 157.4804541 39.25683594 156.85864258 C59.87473662 132.9801339 71.12592476 99.46152489 77 69 C76.59910156 69.39832031 76.19820312 69.79664062 75.78515625 70.20703125 C72.45112677 73.31425601 69.81599235 75.26216199 65.375 76.4375 C60.2107692 77.88911513 58.74128767 80.51425654 56 85 C53.30039951 86.34980025 50.7503348 86.19094391 47.78051758 86.28833008 C32.98445809 86.79509333 22.06898504 88.05754804 10.50317383 97.8840332 C5.71840316 101.88449547 5.71840316 101.88449547 1.79296875 102.515625 C-1.11920539 101.97799285 -2.78207631 101.25733945 -5.1875 99.5625 C-9.03148074 96.90128257 -12.00620885 95.89027629 -16.68359375 95.68359375 C-17.6063208 95.64169922 -18.52904785 95.59980469 -19.47973633 95.55664062 C-20.45579834 95.51732422 -21.43186035 95.47800781 -22.4375 95.4375 C-23.92189575 95.37272461 -23.92189575 95.37272461 -25.4362793 95.30664062 C-31.65014134 95.04987368 -37.83229832 94.92056601 -44.05078125 95.0625 C-46 95 -46 95 -47 94 C-50.03623255 93.71450351 -53.07257785 93.55131186 -56.1171875 93.37890625 C-59 93 -59 93 -62 91 C-63.56871802 90.54971983 -65.1561937 90.16379754 -66.75 89.8125 C-73.15879603 88.28098624 -79.4467809 86.41787093 -85.75 84.5 C-86.73194336 84.20327393 -87.71388672 83.90654785 -88.72558594 83.60083008 C-97.18034115 81.0147286 -105.24520029 77.97935774 -113.265625 74.24609375 C-114.96734295 73.47059657 -116.68457466 72.72727429 -118.421875 72.03515625 C-128.90481622 67.82390573 -134.31688545 61.21576235 -138.75 51.0625 C-139.1625 50.051875 -139.575 49.04125 -140 48 C-140.21914062 48.85722656 -140.43828125 49.71445312 -140.6640625 50.59765625 C-143.43061953 60.57300618 -146.41575655 65.51060775 -154.8125 71.375 C-157.78539965 73.66378061 -159.64228033 75.18853627 -160.375 78.9375 C-160.46391911 85.48416946 -157.85223336 91.8092617 -155.71289062 97.91259766 C-155.02603736 99.92376047 -154.40160697 101.94329057 -153.796875 103.98046875 C-151.40775252 111.912836 -148.75065401 119.83939838 -143 126 C-140.61738573 127.27151008 -138.55496951 127.9859702 -135.91796875 128.53515625 C-134 129 -134 129 -132 131 C-130.01178687 131.39764263 -128.01055661 131.73775349 -126 132 C-129 134 -129 134 -132.4375 135.875 C-140.2293827 140.39298241 -142.50582845 146.60170277 -144.84765625 155.0625 C-145.3461426 156.98630662 -145.82814286 158.91450504 -146.2890625 160.84765625 C-146.64097656 161.91306641 -146.64097656 161.91306641 -147 163 C-147.66 163.33 -148.32 163.66 -149 164 C-148.06913674 152.13149343 -144.86137941 141.22842373 -136 133 C-136.68707031 132.74605469 -137.37414062 132.49210938 -138.08203125 132.23046875 C-139.43361328 131.71419922 -139.43361328 131.71419922 -140.8125 131.1875 C-141.70582031 130.85105469 -142.59914063 130.51460937 -143.51953125 130.16796875 C-149.88434134 127.17099518 -153.32065583 120.24182414 -156 114 C-158.43848178 106.94883567 -160.3609138 99.73771055 -162.29125977 92.53417969 C-162.8548665 90.518941 -163.51324136 88.53026338 -164.203125 86.5546875 C-165.46568697 82.50706237 -165.11312395 79.05704386 -164 75 C-160.98390009 70.43015165 -157.03306871 67.13888111 -152.8671875 63.61328125 C-148.44620786 59.79348085 -146.96761012 56.83528143 -146 51 C-145.91021352 49.33366852 -145.82705556 47.6669687 -145.75 46 C-145.21247472 40.35598456 -143.24683666 36.7581134 -139 33 C-132.01046525 28.6195724 -123.74895773 26.5407743 -115.89453125 24.2109375 C-113.2287796 23.41188095 -110.64923502 22.49609974 -108.05859375 21.48046875 C-103.86928546 19.87724778 -99.6278571 18.88227733 -95.25 17.9375 C-90.91729511 16.9993752 -86.95717716 16.04324834 -83 14 C-81.36313688 13.69677321 -79.71469102 13.45379449 -78.0625 13.25 C-72.06526944 12.33130659 -66.37236762 10.76682412 -60.5625 9.0625 C-49.54327798 5.83954016 -38.63999557 3.09475238 -27.2578125 1.4765625 C-25.05924806 1.15494996 -22.86605669 0.79455615 -20.6796875 0.3984375 C-13.42014605 -0.88871524 -7.27656671 -0.92948845 0 0 Z M-18.8125 3.9375 C-19.91207031 4.11152344 -21.01164062 4.28554688 -22.14453125 4.46484375 C-25.05867723 4.94396916 -25.05867723 4.94396916 -28 6 C-29.51960001 6.10341323 -31.0408454 6.18332343 -32.5625 6.25 C-42.28668862 7.06034905 -51.61991967 10.37244457 -60.91796875 13.18359375 C-66.07985319 14.72033797 -70.92467848 16.13584616 -76.3125 16.5 C-79.66084222 16.73184978 -82.0021765 17.310689 -85 18.8125 C-90.20334737 21.3909029 -95.68380831 22.36739543 -101.35351562 23.42895508 C-106.05536885 24.36349444 -109.83393703 25.79849474 -114.05541992 28.0546875 C-118.25883008 30.09807785 -122.88281141 30.828608 -127.4140625 31.875 C-132.09129002 33.3423655 -135.54274737 35.54274737 -139 39 C-138.53150135 48.53214571 -134.33559399 57.37416801 -127.921875 64.28125 C-124.91864478 66.96706564 -121.7083034 68.50042711 -118 70 C-116.88625 70.495 -115.7725 70.99 -114.625 71.5 C-110.93997656 73.02483729 -107.23771416 74.49910736 -103.52734375 75.9609375 C-101.20038356 76.91761665 -98.95418488 77.97282764 -96.6875 79.0625 C-92.0083293 81.18714111 -87.21551646 82.14784399 -82.20703125 83.21484375 C-78.39755722 84.14749208 -74.95573897 85.54631763 -71.359375 87.0859375 C-68.23577431 88.29607419 -65.09623375 88.97804105 -61.8125 89.60546875 C-60 90 -60 90 -58 91 C-56.19129862 91.20379734 -54.37763408 91.36500995 -52.5625 91.5 C-49.43691282 91.73306642 -46.98575171 92.00474943 -44 93 C-42.52494384 93.06985821 -41.0468592 93.08442439 -39.5703125 93.0625 C-38.69866455 93.05371826 -37.8270166 93.04493652 -36.92895508 93.03588867 C-36.0036499 93.02404541 -35.07834473 93.01220215 -34.125 93 C-10.42841813 92.91327321 -10.42841813 92.91327321 -2.4140625 98.0390625 C1.11499191 99.44383173 3.34763221 98.93285584 7 98 C10.27849495 96.07370961 10.27849495 96.07370961 13.375 93.625 C18.34746819 89.9748522 22.92137691 87.26779476 29 86 C29.87785156 85.81566406 30.75570312 85.63132812 31.66015625 85.44140625 C34.3715571 85.08305737 36.8115618 84.95530787 39.53125 84.96484375 C48.35831737 85.40085195 48.35831737 85.40085195 56.1875 82.296875 C57.52899896 80.20430109 57.52899896 80.20430109 58.63671875 77.98046875 C60.49300686 75.28379805 62.21375757 74.93682911 65.3125 74 C73.77243958 71.31394049 78.94121352 66.47994648 83.01464844 58.68310547 C88.14613276 48.80266925 88.14613276 48.80266925 89 38 C75.78993964 22.85501217 50.95668531 14.93026456 31.9765625 10.87109375 C29.38659074 10.11313614 27.30998301 9.19828542 24.90234375 8.01953125 C19.39715837 5.50856523 13.91006803 4.88339773 7.9375 4.25 C6.90044922 4.12496094 5.86339844 3.99992187 4.79492188 3.87109375 C-3.26863702 2.94048645 -10.75587018 2.62817819 -18.8125 3.9375 Z " 
fill="#675455" transform="translate(187,13)"/>
<path d="M0 0 C3.66990339 4.99637449 6.37144979 10.6871055 9.0625 16.25 C10.71931633 19.65519355 12.28528325 22.61253645 14.8125 25.4375 C17.14517908 28.17006692 17.46433588 29.5498623 18 33 C-6.1832613 33.57656632 -6.1832613 33.57656632 -15.90625 30.79296875 C-21.01851265 29.4826287 -26.22716656 29.06904283 -31.46875 28.52734375 C-35.92361474 27.86207081 -38.89667175 27.04028092 -42.1875 23.9375 C-44.54921273 20.10989661 -45.27190312 16.39732193 -46 12 C-44.948125 11.71125 -43.89625 11.4225 -42.8125 11.125 C-39.2151346 10.1685707 -39.2151346 10.1685707 -36.82421875 8.9765625 C-32.91694908 7.62550107 -29.10403052 7.52910825 -25 7.25 C-17.16285479 6.60035877 -11.35320402 4.96005004 -4.37109375 1.2421875 C-2 0 -2 0 0 0 Z " 
fill="#AB7A8C" transform="translate(157,152)"/>
<path d="M0 0 C1.50734943 0.13171347 3.01522159 0.25751629 4.5234375 0.37890625 C12.30139371 1.0333146 19.53413961 1.68585612 26.79296875 4.7265625 C31.4898866 6.59159931 36.30413361 8.05243041 41.125 9.5625 C81.41177624 22.23381882 81.41177624 22.23381882 92 35 C94.42000946 42.86503075 91.2776091 50.73364546 88 58 C87.21808054 59.26534684 86.42978249 60.52676419 85.63671875 61.78515625 C81.839329 68.4362434 80.45108622 75.98312002 78.60644531 83.35018921 C74.23273575 100.67522696 68.87795327 116.39689454 60 132 C59.24106445 133.37828979 59.24106445 133.37828979 58.46679688 134.78442383 C57.74073242 135.88113403 57.74073242 135.88113403 57 137 C56.34 137 55.68 137 55 137 C57.03524763 129.93649351 60.57492684 123.49439844 63.8359375 116.9375 C68.70851638 106.95400959 71.96252206 96.79263884 74.5 86 C77.19664531 74.96199291 80.38038525 64.89050606 85.60546875 54.7578125 C89.68037943 46.75904168 89.68037943 46.75904168 90 38 C84.66577256 30.82638379 75.33257894 26.31650172 67.23046875 22.9609375 C64.82867908 21.92619099 62.55900728 20.7270087 60.25 19.5 C51.91412623 15.28682969 42.7723494 13.09125137 33.73046875 10.90625 C31.36053723 10.11966329 29.57980734 9.22457872 27.421875 8.015625 C22.19465527 5.33732637 16.84445498 4.84494905 11.0625 4.25 C9.95221436 4.13003662 8.84192871 4.01007324 7.69799805 3.88647461 C-9.31465232 2.15230095 -24.2807803 3.45329927 -41 7 C-42.07048584 7.22357178 -42.07048584 7.22357178 -43.16259766 7.45166016 C-49.86736681 8.80258155 -49.86736681 8.80258155 -56.33032227 10.97045898 C-58.98307472 11.99347289 -61.48927433 12.62259065 -64.2734375 13.18359375 C-65.2634375 13.38919922 -66.2534375 13.59480469 -67.2734375 13.80664062 C-69.33288194 14.22553266 -71.39277657 14.64221775 -73.453125 15.05664062 C-79.01091522 16.21511508 -83.83578408 17.67155 -89 20 C-91.703125 20.58984375 -91.703125 20.58984375 -94.25 20.9375 C-98.06051668 21.55363514 -101.48451834 22.4380122 -105.0859375 23.8203125 C-109.07858071 25.31316989 -113.0807675 26.69016591 -117.1484375 27.96484375 C-118.68564453 28.45307617 -118.68564453 28.45307617 -120.25390625 28.95117188 C-122.35484759 29.61511141 -124.4591248 30.26857606 -126.56640625 30.91210938 C-134.05294441 33.31748 -137.61054818 35.41582227 -142 42 C-142.58498095 45.76987723 -142.95434788 49.5408617 -143.33984375 53.3359375 C-143.99530301 56.97393031 -144.89054926 59.01563712 -147 62 C-147.804375 63.175625 -147.804375 63.175625 -148.625 64.375 C-150.8419282 66.82528906 -152.96908259 68.50089355 -155.625 70.4375 C-158.5112845 72.63069644 -159.90101306 73.81344768 -161.625 77.0625 C-162.6006374 84.70499298 -159.14691278 92.44064004 -156.875 99.625 C-156.32585937 101.43677734 -156.32585937 101.43677734 -155.765625 103.28515625 C-151.43947318 117.33619512 -151.43947318 117.33619512 -142 128 C-140.88625 128.28875 -139.7725 128.5775 -138.625 128.875 C-134.90922841 130.02817049 -132.85047922 131.40865526 -130 134 C-130.59167969 134.29390625 -131.18335938 134.5878125 -131.79296875 134.890625 C-140.24582458 139.68930987 -142.35690091 146.14511417 -144.89453125 155.1875 C-145.3976276 157.0908399 -145.87713026 159.0006997 -146.32421875 160.91796875 C-146.65873047 161.94857422 -146.65873047 161.94857422 -147 163 C-147.66 163.33 -148.32 163.66 -149 164 C-148.06913674 152.13149343 -144.86137941 141.22842373 -136 133 C-136.68707031 132.74605469 -137.37414062 132.49210938 -138.08203125 132.23046875 C-139.43361328 131.71419922 -139.43361328 131.71419922 -140.8125 131.1875 C-141.70582031 130.85105469 -142.59914063 130.51460937 -143.51953125 130.16796875 C-149.88434134 127.17099518 -153.32065583 120.24182414 -156 114 C-158.43848178 106.94883567 -160.3609138 99.73771055 -162.29125977 92.53417969 C-162.8548665 90.518941 -163.51324136 88.53026338 -164.203125 86.5546875 C-165.46568697 82.50706237 -165.11312395 79.05704386 -164 75 C-160.98390009 70.43015165 -157.03306871 67.13888111 -152.8671875 63.61328125 C-148.44620786 59.79348085 -146.96761012 56.83528143 -146 51 C-145.91021352 49.33366852 -145.82705556 47.6669687 -145.75 46 C-145.21247472 40.35598456 -143.24683666 36.7581134 -139 33 C-132.01046525 28.6195724 -123.74895773 26.5407743 -115.89453125 24.2109375 C-113.2287796 23.41188095 -110.64923502 22.49609974 -108.05859375 21.48046875 C-103.86928546 19.87724778 -99.6278571 18.88227733 -95.25 17.9375 C-90.91729511 16.9993752 -86.95717716 16.04324834 -83 14 C-81.36313688 13.69677321 -79.71469102 13.45379449 -78.0625 13.25 C-72.06526944 12.33130659 -66.37236762 10.76682412 -60.5625 9.0625 C-49.54327798 5.83954016 -38.63999557 3.09475238 -27.2578125 1.4765625 C-25.05924806 1.15494996 -22.86605669 0.79455615 -20.6796875 0.3984375 C-13.42014605 -0.88871524 -7.27656671 -0.92948845 0 0 Z " 
fill="#973A62" transform="translate(187,13)"/>
<path d="M0 0 C1.25 2.8125 1.25 2.8125 1 6 C-3.24883707 12.03060745 -11.19361873 14.99508618 -18 17 C-21.75567054 17.54292108 -25.22980443 17.35683046 -29 17 C-29.67853027 16.94392578 -30.35706055 16.88785156 -31.05615234 16.83007812 C-33.33169919 16.63734462 -35.6029971 16.41816142 -37.875 16.1875 C-38.96397583 16.08296509 -38.96397583 16.08296509 -40.07495117 15.97631836 C-45.45833194 15.34749752 -49.09447619 14.03693924 -52.8125 10.0625 C-54 8 -54 8 -54 4 C-54.66 3.67 -55.32 3.34 -56 3 C-41.07026092 -7.41374577 -15.72570598 -11.34961186 0 0 Z " 
fill="#C599A1" transform="translate(105,150)"/>
<path d="M0 0 C2.23008785 3.34513178 3.08880825 6.53946898 4.0625 10.375 C4.23587891 11.035 4.40925781 11.695 4.58789062 12.375 C8.46159011 27.27612752 8.46159011 27.27612752 5.625 32.5625 C-2.72482313 40.31590719 -12.63497104 44.50788995 -23.953125 44.328125 C-25.18709015 44.32531525 -25.18709015 44.32531525 -26.44598389 44.32244873 C-28.17041123 44.31577237 -29.89482457 44.30194697 -31.61914062 44.28125 C-34.25665383 44.24992096 -36.89356854 44.24025393 -39.53125 44.234375 C-41.21354895 44.2252101 -42.89584185 44.21483597 -44.578125 44.203125 C-45.36358704 44.19887512 -46.14904907 44.19462524 -46.95831299 44.19024658 C-50.46787739 44.14435043 -53.62227708 43.93943321 -57 43 C-57 41.35 -57 39.7 -57 38 C-52.89210262 36.00829218 -49.54899046 35.57084996 -45 36 C-44.34 36.99 -43.68 37.98 -43 39 C-39.00476188 41.16884355 -35.49498149 41.33924389 -31 41 C-30.34 40.34 -29.68 39.68 -29 39 C-27.9790625 38.7525 -27.9790625 38.7525 -26.9375 38.5 C-26.298125 38.335 -25.65875 38.17 -25 38 C-24.505 37.01 -24.505 37.01 -24 36 C-23.401875 36.309375 -22.80375 36.61875 -22.1875 36.9375 C-19.91043228 38.10209704 -19.91043228 38.10209704 -17 39 C-16.5825693 32.1819652 -17.93580031 26.00190796 -19.44140625 19.390625 C-20.27994828 14.30073349 -20.27994828 14.30073349 -19 12 C-16.48828125 10.69140625 -16.48828125 10.69140625 -13.3125 9.5625 C-7.92609498 7.48488664 -2.72202657 5.44405314 0 0 Z " 
fill="#9C7B87" transform="translate(106,154)"/>
<path d="M0 0 C2.24113911 2.24113911 2.69594137 4.06095229 3.54492188 7.05322266 C5.76109981 14.72963024 8.33729985 21.10691301 15 26 C18.27222961 27.5653311 21.52651325 28.80043556 24.96484375 29.953125 C27.4548764 30.81197796 29.4142363 31.67744322 31.625 33.0625 C39.63300633 37.65968882 48.53832622 39.70705153 57.41796875 41.9921875 C61.33463316 43.09414979 64.97514642 44.52807247 68.7109375 46.12109375 C71.80905942 47.31064568 74.93395019 47.98380834 78.1875 48.60546875 C80 49 80 49 82 50 C83.80870138 50.20379734 85.62236592 50.36500995 87.4375 50.5 C90.56308718 50.73306642 93.01424829 51.00474943 96 52 C97.47505616 52.06985821 98.9531408 52.08442439 100.4296875 52.0625 C101.73715942 52.04932739 101.73715942 52.04932739 103.07104492 52.03588867 C103.9963501 52.02404541 104.92165527 52.01220215 105.875 52 C129.57158187 51.91327321 129.57158187 51.91327321 137.5859375 57.0390625 C141.11499191 58.44383173 143.34763221 57.93285584 147 57 C150.27849495 55.07370961 150.27849495 55.07370961 153.375 52.625 C158.34746819 48.9748522 162.92137691 46.26779476 169 45 C169.87785156 44.81566406 170.75570312 44.63132813 171.66015625 44.44140625 C174.3715571 44.08305737 176.8115618 43.95530787 179.53125 43.96484375 C188.35831737 44.40085195 188.35831737 44.40085195 196.1875 41.296875 C197.52857438 39.2060478 197.52857438 39.2060478 198.62890625 36.98828125 C200.95504286 33.61505181 204.51597653 33.15447843 208.296875 32.0078125 C212.40102198 30.47765366 214.89188145 28.03904925 218 25 C218.33 26.32 218.66 27.64 219 29 C218.2575 29.2475 217.515 29.495 216.75 29.75 C213.94132792 30.80644199 213.94132792 30.80644199 212.25 32.9375 C209.8490743 35.13834856 208.63171949 35.49065941 205.5625 36.3125 C200.31003073 37.85886842 198.79987541 40.41838569 196 45 C193.30039951 46.34980025 190.7503348 46.19094391 187.78051758 46.28833008 C172.98445809 46.79509333 162.06898504 48.05754804 150.50317383 57.8840332 C145.71840316 61.88449547 145.71840316 61.88449547 141.79296875 62.515625 C138.88079461 61.97799285 137.21792369 61.25733945 134.8125 59.5625 C130.96851926 56.90128257 127.99379115 55.89027629 123.31640625 55.68359375 C122.3936792 55.64169922 121.47095215 55.59980469 120.52026367 55.55664062 C119.54420166 55.51732422 118.56813965 55.47800781 117.5625 55.4375 C116.07810425 55.37272461 116.07810425 55.37272461 114.5637207 55.30664062 C108.34985866 55.04987368 102.16770168 54.92056601 95.94921875 55.0625 C94 55 94 55 93 54 C89.96376745 53.71450351 86.92742215 53.55131186 83.8828125 53.37890625 C81 53 81 53 78 51 C76.43128198 50.54971983 74.8438063 50.16379754 73.25 49.8125 C66.84120397 48.28098624 60.5532191 46.41787093 54.25 44.5 C53.26805664 44.20327393 52.28611328 43.90654785 51.27441406 43.60083008 C42.81965885 41.0147286 34.75479971 37.97935774 26.734375 34.24609375 C25.03265705 33.47059657 23.31542534 32.72727429 21.578125 32.03515625 C13.11883414 28.63685492 6.76444529 23.38216485 3 15 C2.42572266 13.76830078 2.42572266 13.76830078 1.83984375 12.51171875 C-0.20985059 7.82174017 -1.40170526 5.08231197 0 0 Z " 
fill="#A65359" transform="translate(47,53)"/>
<path d="M0 0 C1.04220703 0.10070801 2.08441406 0.20141602 3.15820312 0.30517578 C9.46244562 1.05342693 14.34264286 2.54583599 19.87792969 5.67871094 C22.70837679 7.14770919 25.43507576 7.70087734 28.546875 8.27734375 C33.81791803 9.39866812 38.93150785 11.17883016 44.0625 12.8125 C43.7325 13.4725 43.4025 14.1325 43.0625 14.8125 C39.39267179 13.82389322 35.72754597 12.818675 32.0625 11.8125 C30.31453125 11.34263672 30.31453125 11.34263672 28.53125 10.86328125 C26.75234375 10.37408203 26.75234375 10.37408203 24.9375 9.875 C23.84179688 9.57722656 22.74609375 9.27945312 21.6171875 8.97265625 C18.82790142 8.06230684 16.46535897 7.06637451 13.84765625 5.796875 C8.56883098 3.39877691 3.35227133 2.64853605 -2.375 2 C-3.41962402 1.8760083 -4.46424805 1.7520166 -5.54052734 1.62426758 C-16.84557171 0.41159485 -28.09124093 0.06615982 -38.9375 3.8125 C-40.51622536 3.97194081 -42.10150797 4.07576169 -43.6875 4.125 C-53.34353467 4.86069788 -62.63045763 8.20702668 -71.85546875 10.99609375 C-77.01735319 12.53283797 -81.86217848 13.94834616 -87.25 14.3125 C-90.59834222 14.54434978 -92.9396765 15.123189 -95.9375 16.625 C-101.14084737 19.2034029 -106.62130831 20.17989543 -112.29101562 21.24145508 C-116.99286885 22.17599444 -120.77143703 23.61099474 -124.99291992 25.8671875 C-129.19633008 27.91057785 -133.82031141 28.641108 -138.3515625 29.6875 C-143.65765557 31.35215665 -148.14209718 33.8660584 -150.9375 38.8125 C-151.3639234 41.05744589 -151.3639234 41.05744589 -151.375 43.4375 C-152.00393639 51.79865437 -154.97355052 58.84855052 -160.9375 64.8125 C-162.51824332 65.92037139 -164.10176568 67.02428426 -165.6875 68.125 C-168.67393355 70.43224465 -170.58056289 71.97550079 -171.3125 75.75 C-171.40141911 82.29666946 -168.78973336 88.6217617 -166.65039062 94.72509766 C-165.96353736 96.73626047 -165.33910697 98.75579057 -164.734375 100.79296875 C-162.34525252 108.725336 -159.68815401 116.65189838 -153.9375 122.8125 C-151.55488573 124.08401008 -149.49246951 124.7984702 -146.85546875 125.34765625 C-144.9375 125.8125 -144.9375 125.8125 -142.9375 127.8125 C-140.94928687 128.21014263 -138.94805661 128.55025349 -136.9375 128.8125 C-138.5 130.0625 -138.5 130.0625 -140.9375 130.8125 C-142.67880882 129.89256326 -144.41602691 128.95525944 -146.0703125 127.88671875 C-148.13920605 126.58473564 -148.13920605 126.58473564 -151.625 125.875 C-158.04946026 123.81432407 -160.34310345 117.61791187 -163.39770508 111.98852539 C-165.97050831 106.68178729 -167.60284071 101.14972387 -169.25 95.5 C-169.59611328 94.35982422 -169.94222656 93.21964844 -170.29882812 92.04492188 C-174.79774407 77.02222595 -174.79774407 77.02222595 -172.21875 71.6015625 C-170.06387661 68.59262343 -167.12549075 66.66102902 -164.16015625 64.49609375 C-158.89587842 60.5085652 -156.2295243 56.38029018 -154.9375 49.8125 C-154.82649525 47.97956799 -154.72282984 46.1461824 -154.625 44.3125 C-154.17584317 38.94470768 -153.03649973 35.42281119 -148.9375 31.8125 C-142.32819072 27.52784433 -133.7550077 25.68731601 -126.30859375 23.26171875 C-122.87683293 22.13783724 -119.49746623 20.91753111 -116.125 19.625 C-111.14130756 17.76863234 -106.08348097 16.60957219 -100.8828125 15.5234375 C-97.9912557 14.90487879 -97.9912557 14.90487879 -95.57861328 13.84204102 C-92.95911977 12.82092767 -90.48580738 12.19133288 -87.734375 11.62890625 C-86.75339844 11.42330078 -85.77242188 11.21769531 -84.76171875 11.00585938 C-82.72800228 10.58852112 -80.69415004 10.17184391 -78.66015625 9.75585938 C-73.27780718 8.62662143 -68.12158972 7.2995588 -62.93066406 5.48413086 C-57.74505996 3.7367525 -52.29575744 2.8689815 -46.9375 1.8125 C-45.93855713 1.60294678 -45.93855713 1.60294678 -44.91943359 1.38916016 C-29.63601363 -1.81070421 -15.48544149 -1.63901986 0 0 Z " 
fill="#685157" transform="translate(197.9375,16.1875)"/>
<path d="M0 0 C3.73339026 5.60008538 4.24998729 10.09227447 3.75 16.75 C3.66234375 18.06484375 3.5746875 19.3796875 3.484375 20.734375 C3 24 3 24 1 26 C0.731875 26.825 0.46375 27.65 0.1875 28.5 C-1.35697652 31.75152952 -2.74103397 31.72820838 -6 33 C-7.03013277 34.64821244 -8.03114628 36.31503702 -9 38 C-11.08984375 39.15625 -11.08984375 39.15625 -13 40 C-12.95359375 38.78183594 -12.9071875 37.56367188 -12.859375 36.30859375 C-12.82183342 34.68492052 -12.78543583 33.06122055 -12.75 31.4375 C-12.71648437 30.63763672 -12.68296875 29.83777344 -12.6484375 29.01367188 C-12.57867014 24.74042078 -12.79513445 21.83907174 -15.078125 18.16015625 C-17 15 -17 15 -17.11328125 12.74609375 C-15.38422793 10.03421013 -13.09808631 9.33302196 -10.1875 8.0625 C-5.52099231 6.02196862 -2.93337774 4.19764224 0 0 Z " 
fill="#B47D7E" transform="translate(106,154)"/>
<path d="M0 0 C0.46535156 0.47308594 0.93070312 0.94617188 1.41015625 1.43359375 C5.24197715 3.75118075 9.03260722 3.74524085 13.4375 4.0625 C18.69335179 4.46679629 23.13131669 4.85377082 28 7 C32.35064891 7.88636677 36.51112867 8.13408516 40.9453125 8.17578125 C42.28386954 8.19899974 43.62241122 8.22311788 44.9609375 8.24804688 C47.03395622 8.28288957 49.10641382 8.31237854 51.1796875 8.32592773 C59.43402693 8.39016768 66.71065156 9.05559679 74.4753418 12.08813477 C76.94168878 12.97893894 79.08636493 13.37750447 81.6875 13.625 C82.780625 13.74875 83.87375 13.8725 85 14 C85.33 14.66 85.66 15.32 86 16 C80.28877489 16.39387759 76.04494204 15.81485408 70.59765625 14.01953125 C62.99743494 11.77780366 55.94334026 11.4542042 48.0625 11.4375 C38.83759764 11.2790624 30.26282948 10.94686573 21.28125 8.765625 C15.2674759 7.36241104 9.1257842 6.73856973 3 6 C2.5875 6.91652344 2.175 7.83304688 1.75 8.77734375 C-2.6120678 16.81016949 -11.69880493 20.95622848 -20 24 C-25.92835795 25.45776103 -31.95408495 25.18600911 -38.01757812 25.18530273 C-40.09786998 25.18747171 -42.17761548 25.20560425 -44.2578125 25.22460938 C-66.55726254 25.32326476 -66.55726254 25.32326476 -75 17 C-77.77028672 13.66659425 -78.64356034 11.36638582 -79 7 C-78.5625 4.125 -78.5625 4.125 -78 2 C-77.67 2 -77.34 2 -77 2 C-76.814375 3.19496094 -76.814375 3.19496094 -76.625 4.4140625 C-75.33311774 11.05110763 -74.0945613 15.04098296 -68.42578125 18.9140625 C-60.64818813 22.39581916 -52.821512 22.3725381 -44.4387207 22.37060547 C-42.33395983 22.37495565 -40.23134146 22.41129297 -38.12695312 22.44921875 C-24.85162471 22.56129087 -13.22235487 19.93678489 -3 11 C-1.06604999 8.09907498 -0.69868059 7.10325263 -0.375 3.8125 C-0.189375 1.9253125 -0.189375 1.9253125 0 0 Z " 
fill="#8D375C" transform="translate(114,177)"/>
<path d="M0 0 C1.66666667 1.66666667 3.33333333 3.33333333 5 5 C5.55292725 5.46929932 6.10585449 5.93859863 6.67553711 6.42211914 C8 8 8 8 7.87890625 11.93359375 C7.01280519 17.7488437 5.47835718 23.39600666 3.9375 29.0625 C3.65583984 30.11888672 3.37417969 31.17527344 3.08398438 32.26367188 C2.39510271 34.84405915 1.70034171 37.42270414 1 40 C-5.94163192 35.68076236 -5.94163192 35.68076236 -8 32 C-9.25356166 22.06944121 -3.82629126 9.05852209 0 0 Z " 
fill="#C498A0" transform="translate(47,156)"/>
<path d="M0 0 C7.77440437 7.8697123 9.84349704 22.47767596 10.4375 33.25 C10.32085417 37.17912263 9.64225741 39.74552847 6.734375 42.62890625 C-4.54499981 51.54570931 -16.02226536 53.50342103 -30.06225586 53.33618164 C-32.19487962 53.31241777 -34.32625997 53.31566579 -36.45898438 53.32226562 C-53.8579516 53.28943882 -53.8579516 53.28943882 -60.375 48.0625 C-61.02210937 47.55847656 -61.66921875 47.05445313 -62.3359375 46.53515625 C-65.46877918 43.64499949 -66.46388119 41.11024425 -67 37 C-67.07568444 33.99785073 -67.05886888 31.00231313 -67 28 C-66.34 28.33 -65.68 28.66 -65 29 C-64.68546875 27.85402344 -64.3709375 26.70804688 -64.046875 25.52734375 C-63.61507164 23.99725794 -63.18275239 22.46731766 -62.75 20.9375 C-62.54503906 20.18533203 -62.34007812 19.43316406 -62.12890625 18.65820312 C-60.11100405 11.59554543 -57.57973768 5.19391829 -51.125 1.1328125 C-36.9377894 -6.43022256 -14.61946262 -7.53647334 0 0 Z M-55 6 C-57.08656897 8.46706096 -58.00301993 10.94169629 -59 14 C-59.20463867 14.61375488 -59.40927734 15.22750977 -59.62011719 15.85986328 C-64.89138232 29.3145268 -64.89138232 29.3145268 -64.109375 42.828125 C-60.74246714 47.21789095 -56.38595999 49.98463236 -51 51 C-45.74576448 51.29481371 -40.4936296 51.35597035 -35.23193359 51.4050293 C-33.51167538 51.426456 -31.79152152 51.46037324 -30.07177734 51.50756836 C-16.63169093 51.87218163 -5.48676541 50.61777758 5.3125 41.75 C8.62894176 38.38626659 8.62894176 38.38626659 9.171875 33.89453125 C8.98377605 29.63238015 8.26625214 25.81506153 7.25 21.6875 C7.06880615 20.94419434 6.8876123 20.20088867 6.70092773 19.43505859 C4.64602081 9.27646406 4.64602081 9.27646406 -1.2265625 1.34765625 C-17.09277897 -6.36198415 -41.17553854 -5.62755092 -55 6 Z " 
fill="#34282C" transform="translate(104,147)"/>
<path d="M0 0 C4.95 1.485 4.95 1.485 10 3 C8.60319814 5.79360372 6.69732996 6.41678459 4 8 C2.16718779 9.31647157 0.35461396 10.65584449 -1.44921875 12.01171875 C-3 13 -3 13 -5 13 C-5.33 13.99 -5.66 14.98 -6 16 C-8.1171875 16.6328125 -8.1171875 16.6328125 -10.875 17.125 C-15.87464756 18.3200062 -18.69083413 20.13205524 -22.5 23.5625 C-30.19845095 30.31783587 -38.14399407 30.32314774 -48 30 C-44.29900672 26.0091699 -40.07479996 24.15368889 -34.625 23.75 C-30.07857858 22.80936109 -27.78413287 20.76215083 -24.26171875 17.84375 C-19.9899417 14.36140325 -15.61217277 11.59395839 -10.4375 9.6875 C-5.65551766 7.33998139 -3.32439369 4.13853092 0 0 Z " 
fill="#BC929A" transform="translate(226,26)"/>
<path d="M0 0 C0.99 0.33 1.98 0.66 3 1 C-2.22736407 10.26837601 -7.58068023 18.29427266 -15 26 C-16.21551781 27.41050712 -17.42430445 28.82685416 -18.625 30.25 C-23.466278 35.77330561 -27.72130469 40.13411922 -35 42 C-38.4453125 42.1171875 -38.4453125 42.1171875 -42.125 41.875 C-43.32382813 41.81054688 -44.52265625 41.74609375 -45.7578125 41.6796875 C-49.2503991 41.28561717 -52.2281202 40.21942656 -55.51171875 38.984375 C-62.84400499 36.42866129 -69.99692786 36.39717635 -77.6875 36.375 C-97.57236762 36.21381619 -97.57236762 36.21381619 -104 33 C-105.39933748 32.82861966 -106.80457143 32.70370865 -108.2109375 32.60546875 C-109.04367188 32.53650391 -109.87640625 32.46753906 -110.734375 32.39648438 C-112.48614086 32.2578461 -114.23880727 32.13012773 -115.9921875 32.01367188 C-122.39874933 31.45507505 -122.39874933 31.45507505 -125.5546875 29.06640625 C-127.00536154 26.99233445 -127.64394228 25.49240406 -128 23 C-127.34 23.78375 -126.68 24.5675 -126 25.375 C-120.29400488 30.36774573 -113.59353314 30.14869316 -106.3449707 30.63769531 C-103.09719753 30.98947222 -100.1714282 31.66223387 -97.01953125 32.50390625 C-88.57364661 34.51368672 -80.27991092 34.46408538 -71.640625 34.52734375 C-64.84558625 34.64997184 -59.0221017 35.32581325 -52.52832031 37.31884766 C-48.57248492 38.38458546 -44.76308648 38.47658583 -40.6875 38.4375 C-39.54958008 38.4674707 -39.54958008 38.4674707 -38.38867188 38.49804688 C-32.21287451 38.49269059 -28.90694791 36.47815733 -24.19921875 32.46484375 C-14.87445642 23.04370144 -5.45505375 12.19364956 0 0 Z " 
fill="#8D3A5D" transform="translate(241,150)"/>
<path d="M0 0 C2.24113911 2.24113911 2.69594137 4.06095229 3.54492188 7.05322266 C5.76109981 14.72963024 8.33729985 21.10691301 15 26 C18.27222961 27.5653311 21.52651325 28.80043556 24.96484375 29.953125 C27.4548764 30.81197796 29.4142363 31.67744322 31.625 33.0625 C39.63300633 37.65968882 48.53832622 39.70705153 57.41796875 41.9921875 C61.34452778 43.09693366 64.99395486 44.53930924 68.7421875 46.12890625 C71.67427683 47.26014487 74.60760759 47.88529865 77.68359375 48.49609375 C81.86057912 49.40474655 85.92317847 50.72333355 90 52 C90 52.33 90 52.66 90 53 C88.5629191 53.05422947 87.12524538 53.09289723 85.6875 53.125 C84.88699219 53.14820313 84.08648437 53.17140625 83.26171875 53.1953125 C81 53 81 53 78 51 C76.43128198 50.54971983 74.8438063 50.16379754 73.25 49.8125 C66.84120397 48.28098624 60.5532191 46.41787093 54.25 44.5 C53.26805664 44.20327393 52.28611328 43.90654785 51.27441406 43.60083008 C42.81965885 41.0147286 34.75479971 37.97935774 26.734375 34.24609375 C25.03265705 33.47059657 23.31542534 32.72727429 21.578125 32.03515625 C13.11883414 28.63685492 6.76444529 23.38216485 3 15 C2.42572266 13.76830078 2.42572266 13.76830078 1.83984375 12.51171875 C-0.20985059 7.82174017 -1.40170526 5.08231197 0 0 Z " 
fill="#923C72" transform="translate(47,53)"/>
<path d="M0 0 C0.33 0 0.66 0 1 0 C4.28944995 14.59693417 4.28944995 14.59693417 1.625 19.5625 C-4.01506827 24.79970625 -10.48450655 28.36619708 -18 30 C-16.57847097 26.56463819 -14.92739556 25.19554667 -12 23 C-11.5359375 21.9790625 -11.5359375 21.9790625 -11.0625 20.9375 C-10 19 -10 19 -7.5 18.0625 C-4.76116049 17.22103951 -4.76116049 17.22103951 -3.75 14.4375 C-3.37875 13.2309375 -3.37875 13.2309375 -3 12 C-2.67 11.67 -2.34 11.34 -2 11 C-1.60545777 9.15400312 -1.25823134 7.29774178 -0.9375 5.4375 C-0.76089844 4.42558594 -0.58429688 3.41367188 -0.40234375 2.37109375 C-0.26957031 1.58863281 -0.13679688 0.80617187 0 0 Z " 
fill="#7B5B56" transform="translate(110,167)"/>
<path d="M0 0 C0.99 1.175625 0.99 1.175625 2 2.375 C7.70599512 7.36774573 14.40646686 7.14869316 21.6550293 7.63769531 C24.90280247 7.98947222 27.8285718 8.66223387 30.98046875 9.50390625 C39.42635339 11.51368672 47.72008908 11.46408538 56.359375 11.52734375 C63.17335127 11.6503136 69.08444632 12.29797118 75.6015625 14.30517578 C78.78768721 15.22819196 81.88280948 15.50982847 85.1875 15.6875 C86.84845703 15.78611328 86.84845703 15.78611328 88.54296875 15.88671875 C89.35378906 15.92410156 90.16460937 15.96148437 91 16 C91 16.33 91 16.66 91 17 C84.2423024 18.6894244 79.11349032 18.53981226 72.703125 16.01953125 C65.28097797 13.47274381 58.08669314 13.39741747 50.3125 13.375 C30.42763238 13.21381619 30.42763238 13.21381619 24 10 C22.60066252 9.82861966 21.19542857 9.70370865 19.7890625 9.60546875 C18.95632812 9.53650391 18.12359375 9.46753906 17.265625 9.39648438 C15.51385914 9.2578461 13.76119273 9.13012773 12.0078125 9.01367188 C5.60125067 8.45507505 5.60125067 8.45507505 2.4453125 6.06640625 C0.99463846 3.99233445 0.35605772 2.49240406 0 0 Z " 
fill="#615154" transform="translate(113,173)"/>
<path d="M0 0 C0.99 0.33 1.98 0.66 3 1 C4.0625 3.3125 4.0625 3.3125 5 6 C5.34417969 6.55171875 5.68835938 7.1034375 6.04296875 7.671875 C7.43030047 11.04677174 7.28925427 14.34900505 7.25 17.9375 C7.25773437 18.64068359 7.26546875 19.34386719 7.2734375 20.06835938 C7.25812118 24.15398718 6.81163257 27.32641173 5 31 C4.67 31 4.34 31 4 31 C3.13208781 26.58591907 2.28305429 22.16841366 1.4375 17.75 C1.19064453 16.49574219 0.94378906 15.24148437 0.68945312 13.94921875 C0.46064453 12.74394531 0.23183594 11.53867188 -0.00390625 10.296875 C-0.21861572 9.18666992 -0.4333252 8.07646484 -0.65454102 6.93261719 C-0.97544121 4.20848068 -0.89509721 2.55742061 0 0 Z " 
fill="#8C768E" transform="translate(87,166)"/>
<path d="M0 0 C0.495 1.98 0.495 1.98 1 4 C0.2575 4.2475 -0.485 4.495 -1.25 4.75 C-4.05867208 5.80644199 -4.05867208 5.80644199 -5.75 7.9375 C-8.1509257 10.13834856 -9.36828051 10.49065941 -12.4375 11.3125 C-17.68996927 12.85886842 -19.20012459 15.41838569 -22 20 C-24.24078402 21.12039201 -25.61669048 21.17950154 -28.10546875 21.28125 C-29.33426758 21.33732422 -29.33426758 21.33732422 -30.58789062 21.39453125 C-31.87469727 21.44673828 -31.87469727 21.44673828 -33.1875 21.5 C-38.85890812 21.73540049 -44.39363929 22.0896302 -50 23 C-49.505 21.515 -49.505 21.515 -49 20 C-45.4471956 19.26752247 -42.08315214 18.94608128 -38.46875 18.96484375 C-29.64168263 19.40085195 -29.64168263 19.40085195 -21.8125 16.296875 C-20.47142562 14.2060478 -20.47142562 14.2060478 -19.37109375 11.98828125 C-17.04495714 8.61505181 -13.48402347 8.15447843 -9.703125 7.0078125 C-5.59897802 5.47765366 -3.10811855 3.03904925 0 0 Z " 
fill="#B36456" transform="translate(265,78)"/>
<path d="M0 0 C1.39365402 4.1906402 0.4085576 7.28539521 -0.625 11.46484375 C-1.04585164 14.30997618 -0.81446518 16.25003611 0 19 C4.20733159 24.19729197 9.02315646 26.63729 15.54858398 27.43237305 C17.37885132 27.47164917 17.37885132 27.47164917 19.24609375 27.51171875 C20.23005882 27.53864555 20.23005882 27.53864555 21.23390198 27.56611633 C23.30170512 27.61972153 25.36928438 27.65395093 27.4375 27.6875 C28.85094231 27.72071743 30.26435523 27.75521111 31.67773438 27.79101562 C35.11827446 27.87541619 38.55889366 27.94246279 42 28 C42 28.33 42 28.66 42 29 C11.73272317 32.15636406 11.73272317 32.15636406 0.6640625 23.53515625 C-2.46877918 20.64499949 -3.46388119 18.11024425 -4 14 C-4.07568444 10.99785073 -4.05886888 8.00231313 -4 5 C-3.01 5.495 -3.01 5.495 -2 6 C-1.34 4.02 -0.68 2.04 0 0 Z " 
fill="#3A282F" transform="translate(41,170)"/>
<path d="M0 0 C1.175625 0.4125 2.35125 0.825 3.5625 1.25 C7.8106704 2.67722444 12.09716739 3.82380411 16.4375 4.9375 C21.72837579 6.29911762 26.71369237 7.99635964 31.7421875 10.12890625 C34.67427683 11.26014487 37.60760759 11.88529865 40.68359375 12.49609375 C44.86057912 13.40474655 48.92317847 14.72333355 53 16 C53 16.33 53 16.66 53 17 C51.5629191 17.05422947 50.12524538 17.09289723 48.6875 17.125 C47.48673828 17.15980469 47.48673828 17.15980469 46.26171875 17.1953125 C44 17 44 17 41 15 C39.43128198 14.54971983 37.8438063 14.16379754 36.25 13.8125 C29.84120397 12.28098624 23.5532191 10.41787093 17.25 8.5 C16.26805664 8.20327393 15.28611328 7.90654785 14.27441406 7.60083008 C8.76713885 5.91629017 3.36820309 4.0862211 -2 2 C-1.34 1.34 -0.68 0.68 0 0 Z " 
fill="#994469" transform="translate(84,89)"/>
<path d="M0 0 C2.3125 0.375 2.3125 0.375 3.3125 1.375 C3.00707852 6.66897231 1.94422245 9.50897287 -1.6875 13.375 C-3.3375 13.045 -4.9875 12.715 -6.6875 12.375 C-7.00447773 8.33353394 -7.04502198 5.99735307 -5 2.4375 C-2.6875 0.375 -2.6875 0.375 0 0 Z " 
fill="#6E575A" transform="translate(231.6875,145.625)"/>
<path d="M0 0 C0.33 1.65 0.66 3.3 1 5 C-4.16923077 9.92307692 -4.16923077 9.92307692 -8.375 10.3125 C-9.24125 10.209375 -10.1075 10.10625 -11 10 C-11.33 8.35 -11.66 6.7 -12 5 C-7.90746174 1.10234452 -5.90669543 -0.70317803 0 0 Z " 
fill="#6A5661" transform="translate(215,170)"/>
<path d="M0 0 C1.258125 -0.020625 2.51625 -0.04125 3.8125 -0.0625 C4.52019531 -0.07410156 5.22789062 -0.08570312 5.95703125 -0.09765625 C8 0 8 0 11 1 C12.49851558 1.06989345 14.00001542 1.08441536 15.5 1.0625 C16.38268555 1.05395996 17.26537109 1.04541992 18.17480469 1.03662109 C19.10711914 1.02453613 20.03943359 1.01245117 21 1 C38.29580186 0.89680309 38.29580186 0.89680309 43 2 C43.495 2.99 43.495 2.99 44 4 C39.18029078 4.07473903 34.36092665 4.12887722 29.54077148 4.16479492 C27.90464391 4.17978456 26.26855585 4.20018332 24.63256836 4.22631836 C7.89783459 4.48676127 7.89783459 4.48676127 0 1 C0 0.67 0 0.34 0 0 Z " 
fill="#A04B60" transform="translate(132,104)"/>
<path d="M0 0 C0.33 0 0.66 0 1 0 C1.66 2.31 2.32 4.62 3 7 C4.65 7.33 6.3 7.66 8 8 C8.95024979 11.69541586 8.95024979 14.30458414 8 18 C1.21178821 13.77622378 1.21178821 13.77622378 -1 10 C-1.07421875 7.421875 -1.07421875 7.421875 -0.6875 4.75 C-0.56761719 3.85796875 -0.44773438 2.9659375 -0.32421875 2.046875 C-0.21722656 1.37140625 -0.11023437 0.6959375 0 0 Z " 
fill="#967787" transform="translate(40,178)"/>
<path d="M0 0 C3.125 0.375 3.125 0.375 6 1 C6.04254356 2.99954746 6.04080783 5.00041636 6 7 C5 8 5 8 2 8.125 C-1 8 -1 8 -2 7 C-2.1875 4.5625 -2.1875 4.5625 -2 2 C-1.34 1.34 -0.68 0.68 0 0 Z " 
fill="#6A565E" transform="translate(214,157)"/>
<path d="M0 0 C0.66 0 1.32 0 2 0 C2.391875 1.093125 2.78375 2.18625 3.1875 3.3125 C4.79695436 6.99125282 6.19277787 8.42745173 10 10 C12.97991071 10.79130402 15.96883942 11.43867397 19 12 C19 12.33 19 12.66 19 13 C17.84371094 13.07347656 17.84371094 13.07347656 16.6640625 13.1484375 C15.66117188 13.22320312 14.65828125 13.29796875 13.625 13.375 C12.62726562 13.44460937 11.62953125 13.51421875 10.6015625 13.5859375 C7.84491121 13.76363964 7.84491121 13.76363964 6 16 C5.773125 14.96875 5.54625 13.9375 5.3125 12.875 C4.4882552 9.88105197 3.39141617 8.04835732 1.3125 5.75 C0.549375 4.8425 -0.21375 3.935 -1 3 C-0.67 2.01 -0.34 1.02 0 0 Z " 
fill="#B8AEB5" transform="translate(49,154)"/>
<path d="M0 0 C2.71743027 2.71743027 3.50932886 5.86942046 4.6875 9.4375 C4.92533203 10.11876953 5.16316406 10.80003906 5.40820312 11.50195312 C7.12211809 16.63364573 7.12211809 16.63364573 6 20 C3.87729253 16.8159388 2.2572964 13.50655761 0.75 10 C0.39421875 9.175 0.0384375 8.35 -0.328125 7.5 C-1.10146437 4.62245815 -0.79156127 2.84150201 0 0 Z " 
fill="#8D3673" transform="translate(47,53)"/>
<path d="M0 0 C1.13732426 3.40401948 0.83989957 5.77456664 0.0625 9.25 C-0.13214844 10.14203125 -0.32679687 11.0340625 -0.52734375 11.953125 C-0.68332031 12.62859375 -0.83929688 13.3040625 -1 14 C-1.99 14 -2.98 14 -4 14 C-4 11.03 -4 8.06 -4 5 C-3.01 5.495 -3.01 5.495 -2 6 C-1.34 4.02 -0.68 2.04 0 0 Z " 
fill="#552B3E" transform="translate(41,170)"/>
<path d="M0 0 C-0.25 2.375 -0.25 2.375 -1 5 C-3.0625 6.3125 -3.0625 6.3125 -5 7 C-5.6875 5.1875 -5.6875 5.1875 -6 3 C-4.04862098 0.26806937 -3.44686768 0 0 0 Z " 
fill="#745B5A" transform="translate(241,138)"/>
<path d="M0 0 C0.33 0 0.66 0 1 0 C1.38885039 1.78871178 1.76069196 3.58112874 2.125 5.375 C2.33382812 6.37273437 2.54265625 7.37046875 2.7578125 8.3984375 C2.83773437 9.25695312 2.91765625 10.11546875 3 11 C2.34 11.66 1.68 12.32 1 13 C-1.48887372 8.31506124 -0.85687773 5.0555786 0 0 Z " 
fill="#803354" transform="translate(36,179)"/>
<path d="M0 0 C0.99 0.33 1.98 0.66 3 1 C2.34 4.63 1.68 8.26 1 12 C0.67 12 0.34 12 0 12 C0 8.04 0 4.08 0 0 Z " 
fill="#765B6A" transform="translate(44,57)"/>
<path d="M0 0 C2.97 1.98 2.97 1.98 6 4 C4.68 4.33 3.36 4.66 2 5 C2 5.99 2 6.98 2 8 C1.34 8 0.68 8 0 8 C0 5.36 0 2.72 0 0 Z " 
fill="#953A61" transform="translate(114,177)"/>
<path d="M0 0 C1.11375 1.175625 1.11375 1.175625 2.25 2.375 C4.54433318 4.56504531 6.12158858 5.82731386 9 7 C7.25 7.75 7.25 7.75 5 8 C1.99535358 5.68212991 0.53895377 3.7726764 0 0 Z " 
fill="#68515D" transform="translate(113,173)"/>
<path d="M0 0 C0.99 0.33 1.98 0.66 3 1 C3 2.32 3 3.64 3 5 C1.68 5 0.36 5 -1 5 C-0.67 3.35 -0.34 1.7 0 0 Z " 
fill="#6F5960" transform="translate(218,149)"/>
<path d="M0 0 C2 2 2 2 2.125 5.125 C2.08375 6.07375 2.0425 7.0225 2 8 C1.34 8 0.68 8 0 8 C-1.125 2.25 -1.125 2.25 0 0 Z " 
fill="#852D6C" transform="translate(47,53)"/>
</svg>
