<?xml version="1.0" standalone="no"?>
<!DOCTYPE svg PUBLIC "-//W3C//DTD SVG 20010904//EN"
 "http://www.w3.org/TR/2001/REC-SVG-20010904/DTD/svg10.dtd">
<svg version="1.0" xmlns="http://www.w3.org/2000/svg"
 width="1911.000000pt" height="1291.000000pt" viewBox="0 0 1911.000000 1291.000000"
 preserveAspectRatio="xMidYMid meet">

<g transform="translate(0.000000,1291.000000) scale(0.100000,-0.100000)"
fill="#000000" stroke="none">
<path d="M3555 11900 c-127 -10 -181 -27 -265 -86 -25 -17 -67 -44 -93 -59
-40 -23 -48 -32 -43 -49 11 -39 70 -1147 116 -2156 117 -2617 137 -4756 55
-6140 -48 -813 -128 -1443 -240 -1900 -53 -215 -84 -310 -101 -310 -8 0 -14
-6 -14 -14 0 -27 19 -66 33 -66 7 0 29 -16 48 -36 84 -88 244 -184 386 -232
194 -67 476 -69 683 -6 77 23 201 88 234 123 27 28 28 31 17 81 -6 28 -15 59
-20 68 -35 66 -157 1710 -171 2312 -5 201 -14 426 -20 500 -14 185 -15 1809
-1 1823 6 6 11 29 11 52 0 35 3 40 23 41 12 1 198 17 412 37 1104 104 2074
172 3115 219 361 16 1461 16 1730 0 449 -27 744 -57 1220 -123 839 -116 1024
-140 1225 -163 822 -94 1627 -139 2900 -164 l350 -7 6 -450 c6 -517 -6 -1448
-21 -1515 -5 -25 -9 -161 -10 -304 0 -371 -65 -1364 -136 -2091 -14 -142 -30
-267 -35 -276 -5 -10 -14 -41 -20 -69 -11 -50 -10 -53 17 -81 33 -35 157 -100
234 -123 207 -63 489 -61 683 6 142 48 302 144 386 232 19 20 41 36 48 36 14
0 33 39 33 66 0 8 -6 14 -14 14 -17 0 -48 95 -101 310 -334 1361 -378 4210
-140 8990 34 680 64 1180 71 1206 5 17 -3 26 -43 49 -26 15 -68 42 -93 59 -99
69 -157 83 -387 92 -134 5 -209 3 -263 -6 -234 -39 -430 -160 -496 -305 l-25
-54 26 -353 c14 -194 24 -382 24 -418 -5 -185 8 -333 31 -365 4 -5 10 -22 14
-37 5 -20 2 -28 -11 -32 -10 -3 -202 -48 -428 -101 -2817 -659 -5208 -845
-7275 -565 -766 104 -1483 270 -2175 504 -219 73 -548 198 -627 237 -35 18
-41 66 -28 239 11 149 10 135 46 643 l25 358 -25 54 c-65 142 -247 257 -474
301 -77 15 -235 16 -407 4z m-256 -299 c45 -27 126 -69 181 -93 55 -23 100
-49 100 -56 0 -7 24 -28 53 -46 232 -150 340 -455 388 -1089 8 -108 10 -309 6
-635 -7 -563 -24 -875 -107 -1947 -180 -2311 -221 -3127 -221 -4319 1 -905 35
-1587 117 -2319 13 -120 24 -223 24 -229 0 -14 -159 -2 -283 23 -126 25 -276
79 -343 123 -29 20 -81 62 -115 93 l-61 58 35 112 c142 447 248 1199 301 2138
68 1172 68 2829 0 4730 -8 237 -13 471 -10 520 3 57 2 79 -3 60 -7 -23 -9 -9
-10 55 -2 146 -67 1571 -91 1995 -13 226 -13 294 1 275 11 -16 10 7 -17 320
-9 101 -19 206 -23 232 -5 26 -7 48 -6 48 1 0 39 -22 84 -49z m12780 -109 c-4
-26 -14 -131 -23 -232 -27 -313 -28 -336 -17 -320 14 19 14 -49 1 -275 -24
-424 -89 -1849 -91 -1995 -1 -64 -3 -78 -10 -55 -5 19 -6 -3 -3 -60 3 -49 -2
-283 -10 -520 -68 -1901 -68 -3558 0 -4730 53 -939 159 -1691 301 -2138 l35
-112 -61 -58 c-34 -31 -86 -73 -115 -93 -67 -44 -217 -98 -343 -123 -124 -25
-283 -37 -283 -23 0 6 11 109 24 229 82 732 116 1414 117 2319 0 1192 -41
2008 -221 4319 -83 1072 -100 1384 -107 1947 -4 326 -2 527 6 635 48 634 156
939 389 1089 28 18 52 39 52 46 0 7 45 33 99 56 55 24 135 65 178 91 43 27 81
49 84 50 3 1 3 -21 -2 -47z m-12842 -219 c-2 -16 -4 -5 -4 22 0 28 2 40 4 28
2 -13 2 -35 0 -50z m12830 -110 c-2 -16 -4 -5 -4 22 0 28 2 40 4 28 2 -13 2
-35 0 -50z m-12820 -60 c-2 -21 -4 -4 -4 37 0 41 2 58 4 38 2 -21 2 -55 0 -75z
m12810 -110 c-2 -21 -4 -4 -4 37 0 41 2 58 4 38 2 -21 2 -55 0 -75z m-11629
-1300 c164 -2051 169 -2438 37 -2964 -49 -194 -259 -797 -288 -826 -24 -25 -5
763 44 1777 46 963 125 2275 139 2308 6 13 10 72 10 132 0 61 3 110 8 110 4 0
27 -242 50 -537z m10512 335 c-1 -73 1 -144 4 -158 12 -50 98 -1508 135 -2300
38 -775 52 -1224 49 -1510 l-3 -285 -114 365 c-223 715 -312 1056 -368 1410
-14 90 -18 171 -17 370 0 298 0 300 119 1005 46 275 95 577 109 670 27 178 76
538 76 555 0 6 2 10 5 10 3 0 5 -60 5 -132z m-7587 -3895 c-13 -2 -35 -2 -50
0 -16 2 -5 4 22 4 28 0 40 -2 28 -4z"/>
<path d="M3283 10725 c0 -38 2 -53 4 -32 2 20 2 52 0 70 -2 17 -4 1 -4 -38z"/>
<path d="M3293 10560 c0 -30 2 -43 4 -27 2 15 2 39 0 55 -2 15 -4 2 -4 -28z"/>
<path d="M3324 9850 c0 -69 1 -97 3 -62 2 34 2 90 0 125 -2 34 -3 6 -3 -63z"/>
<path d="M16013 10615 c0 -38 2 -53 4 -32 2 20 2 52 0 70 -2 17 -4 1 -4 -38z"/>
<path d="M16003 10450 c0 -30 2 -43 4 -27 2 15 2 39 0 55 -2 15 -4 2 -4 -28z"/>
<path d="M15974 9740 c0 -69 1 -97 3 -62 2 34 2 90 0 125 -2 34 -3 6 -3 -63z"/>
</g>
</svg>
