<svg height="60" viewBox="0 0 60 60" width="60" xmlns="http://www.w3.org/2000/svg" xmlns:sketch="http://www.bohemiancoding.com/sketch/ns"><g id="black" fill="none" fill-rule="evenodd"><g id="pinterest"><path id="Pinterest" d="m30 60c16.5685433 0 30-13.4314567 30-30s-13.4314567-30-30-30-30 13.4314567-30 30 13.4314567 30 30 30z" fill="#000"/><path id="Pinterest" d="m32.7594534 39.0844011c6.6056073 0 11.0867004-6.1473518 11.0867004-14.3760905 0-6.2204093-5.1628578-12.0160029-13.0074213-12.0160029-9.7623395 0-14.6848863 7.1452029-14.6848863 13.1034471 0 3.6077773 1.3370243 6.8174965 4.2077983 8.0137753.4703145.1960225.8917422.0063136 1.0286842-.5249316.0936506-.3682939.3201201-1.2972966.4184827-1.6836294.1378254-.5261342.0848156-.7104315-.2950878-1.1692205-.8269525-.9975504-1.3546943-2.2864289-1.3546943-4.1140687 0-5.3004261 3.8829662-10.0455552 10.115738-10.0455552 5.5162564 0 8.5492991 3.4409176 8.5492991 8.0384284 0 6.0478374-2.621628 11.1522409-6.5146071 11.1522409-2.15043 0-3.7580987-1.814712-3.2433149-4.0401092.6163859-2.657128 1.8144069-5.5259122 1.8144069-7.4440472 0-1.7160994-.9026387-3.1492889-2.7715279-3.1492889-2.1978442 0-3.9627753 2.3216047-3.9627753 5.4300055 0 1.9797678.6564377 3.3191551.6564377 3.3191551s-2.249087 9.7268682-2.6440099 11.4297391c-.3581105 1.5507429-.4117092 3.255117-.3613499 4.6955221.1504888 1.2921856 1.4021086 2.3444539 2.4879255.9268981.7633408-1.2455851 1.5841088-2.818576 2.0087761-4.3951747.2532689-.9329111 1.4459889-5.7655287 1.4459889-5.7655287.7147485 1.3901968 2.8012722 2.6144359 5.0194369 2.6144359z" fill="#fff"/></g></g></svg>