<?xml version="1.0" encoding="iso-8859-1"?>
<!-- Generator: Adobe Illustrator 28.0.0, SVG Export Plug-In . SVG Version: 6.00 Build 0)  -->
<svg version="1.1" id="Layer_1" xmlns="http://www.w3.org/2000/svg" xmlns:xlink="http://www.w3.org/1999/xlink" x="0px" y="0px"
	 viewBox="0 0 512 512" style="enable-background:new 0 0 512 512;" xml:space="preserve">
<g>
	<g>
		<g>
			<g>
				<g>
					<path style="fill:#FD6050;" d="M452.186,255.999c0,11.323-0.838,22.457-2.47,33.325
						c-10.454,69.841-53.286,129.036-112.647,161.663c-31.462,17.294-67.577,27.132-105.976,27.132
						C108.984,478.12,10,378.676,10,255.999S108.984,33.879,231.093,33.879S452.186,133.323,452.186,255.999z"/>
				</g>
				<g>
					<path style="fill:#DB4B86;" d="M449.716,289.325c-10.454,69.841-53.286,129.036-112.647,161.663
						c-18.471-18.136-29.929-43.451-29.929-71.459c0-55.228,44.563-100.009,99.535-100.009
						C422.092,279.52,436.692,283.043,449.716,289.325z"/>
				</g>
			</g>
			<g>
				<g>
					<ellipse style="fill:#FD6050;" cx="231.092" cy="256" rx="221.092" ry="222.12"/>
				</g>
				<g>
					<path style="fill:#DB4B86;" d="M153.579,199.405c0-62.772,22.472-120.271,59.774-164.821C99.54,43.662,10,139.322,10,255.999
						c0,122.677,98.984,222.121,221.093,222.121c38.398,0,74.514-9.838,105.976-27.132c2.22-1.22,4.417-2.478,6.59-3.772
						C234.269,418.369,153.579,318.354,153.579,199.405z"/>
				</g>
			</g>
		</g>
		<g>
			<g>
				<g>
					<path style="fill:#FFFFFF;" d="M394.842,255.999c0,8.309-0.618,16.485-1.808,24.462c-7.719,51.827-39.589,95.821-83.7,120.029
						c-23.257,12.763-49.922,20.02-78.241,20.02c-90.294,0-163.749-73.796-163.749-164.51s73.455-164.51,163.749-164.51
						S394.842,165.285,394.842,255.999z"/>
				</g>
				<g>
					<path style="fill:#D2DCFD;" d="M393.034,280.461c-7.719,51.827-39.589,95.821-83.7,120.029
						c-1.445-6.758-2.194-13.771-2.194-20.961C307.14,328.954,344.512,287.131,393.034,280.461z"/>
				</g>
			</g>
			<g>
				<path style="fill:#D2DCFD;" d="M153.579,199.405c0-34.342,6.726-67.105,18.926-97.033
					c-61.442,23.729-105.162,83.643-105.162,153.627c0,90.714,73.455,164.51,163.749,164.51c13.931,0,27.461-1.756,40.382-5.06
					C200.583,369.946,153.579,290.19,153.579,199.405z"/>
			</g>
		</g>
		<g>
			<g>
				<g>
					<ellipse style="fill:#FDBEB9;" cx="231.092" cy="256" rx="106.405" ry="106.899"/>
				</g>
			</g>
		</g>
		<g>
			<ellipse style="fill:#FFFFFF;" cx="231.092" cy="256" rx="49.061" ry="49.289"/>
		</g>
		<g>
			<ellipse style="fill:#B1D952;" cx="420.851" cy="396.594" rx="81.149" ry="81.526"/>
		</g>
	</g>
	<g>
		<g>
			<path style="fill:#FD6050;" d="M231.093,372.899c-64.187,0-116.405-52.441-116.405-116.899s52.219-116.899,116.405-116.899
				c64.186,0,116.404,52.441,116.404,116.899S295.278,372.899,231.093,372.899z M231.093,159.101
				c-53.158,0-96.405,43.469-96.405,96.899s43.247,96.899,96.405,96.899c53.157,0,96.404-43.469,96.404-96.899
				S284.25,159.101,231.093,159.101z"/>
		</g>
		<path style="fill:#052A75;" d="M455.434,311.911c4.481-18.201,6.751-36.991,6.751-55.911c0-55.353-19.16-107.75-54.328-149.547
			l22.681-2.523c5.489-0.61,9.443-5.555,8.833-11.044c-0.61-5.489-5.568-9.451-11.044-8.833l-13.463,1.497l5.887-5.914
			c3.896-3.914,3.881-10.246-0.033-14.142s-10.246-3.882-14.143,0.033l-5.77,5.797l1.487-13.489
			c0.605-5.49-3.354-10.43-8.844-11.036c-5.476-0.608-10.431,3.354-11.035,8.844l-2.507,22.745
			c-41.6-35.286-93.734-54.508-148.812-54.508c-61.736,0-119.774,24.15-163.424,68.003C24.032,135.723,0,194.007,0,256
			s24.032,120.277,67.669,164.117c43.649,43.853,101.688,68.003,163.424,68.003c42.304,0,83.468-11.518,119.43-33.364
			c16.731,20.363,42.046,33.364,70.328,33.364c50.26,0,91.148-41.058,91.148-91.526C512,358.411,488.595,325.615,455.434,311.911z
			 M231.093,468.12C114.695,468.12,20,372.963,20,256S114.695,43.88,231.093,43.88c54.625,0,104.471,20.958,141.992,55.292
			l-147.5,148.186c-3.896,3.915-3.881,10.246,0.033,14.142c1.951,1.942,4.503,2.913,7.055,2.913c2.566,0,5.134-0.982,7.088-2.945
			l147.431-148.116c34.149,37.7,54.993,87.775,54.993,142.649c0,17.044-2.012,33.967-5.984,50.367
			c-4.991-0.853-10.119-1.298-15.349-1.298c-50.26,0-91.148,41.058-91.148,91.526c0,14.894,3.561,28.967,9.873,41.409
			C306.878,457.725,269.503,468.12,231.093,468.12z M420.852,468.12c-39.231,0-71.148-32.086-71.148-71.526
			s31.917-71.526,71.148-71.526S492,357.155,492,396.594S460.083,468.12,420.852,468.12z"/>
		<g>
			<path style="fill:#FFFFFF;" d="M417.139,421.944c-2.338,0-4.684-0.815-6.576-2.469l-14.186-12.393
				c-4.159-3.633-4.585-9.951-0.952-14.11c3.636-4.159,9.951-4.585,14.11-0.952l6.95,6.072l17.449-18.429
				c3.797-4.01,10.127-4.184,14.137-0.386c4.011,3.797,4.184,10.126,0.387,14.137l-24.055,25.405
				C422.44,420.892,419.794,421.944,417.139,421.944z"/>
		</g>
	</g>
</g>
<g>
</g>
<g>
</g>
<g>
</g>
<g>
</g>
<g>
</g>
<g>
</g>
<g>
</g>
<g>
</g>
<g>
</g>
<g>
</g>
<g>
</g>
<g>
</g>
<g>
</g>
<g>
</g>
<g>
</g>
</svg>
