<?xml version="1.0" encoding="iso-8859-1"?>
<!-- Generator: Adobe Illustrator 26.5.3, SVG Export Plug-In . SVG Version: 6.00 Build 0)  -->
<svg version="1.1" id="Capa_1" xmlns="http://www.w3.org/2000/svg" xmlns:xlink="http://www.w3.org/1999/xlink" x="0px" y="0px"
	 viewBox="0 0 510.148 510.148" style="enable-background:new 0 0 510.148 510.148;" xml:space="preserve">
<g>
	<g>
		<path style="fill:#FDCB50;" d="M427.027,500.148H83.121c-12.191,0-22.074-9.883-22.074-22.074v0
			c0-12.191,9.883-22.074,22.074-22.074h343.906c12.191,0,22.074,9.883,22.074,22.074v0
			C449.102,490.265,439.219,500.148,427.027,500.148z"/>
		<path style="fill:#D46B5C;" d="M356.145,102.004C331.24,71.497,294.401,54,255.074,54s-76.166,17.497-101.071,48.004
			c-8.617,10.556-19.165,19.008-30.93,25.021V456h264.002V127.028l-0.003-0.003C375.309,121.011,364.761,112.559,356.145,102.004z"
			/>
		<path style="fill:#B55348;" d="M198.628,85.762c0-6.482,0.24-12.907,0.675-19.279c-17.308,8.189-32.806,20.217-45.3,35.522
			c-8.617,10.556-19.165,19.008-30.93,25.021V456h264.002V349.554C277.448,312.032,198.628,208.106,198.628,85.762z"/>
		<polygon style="fill:#FDCB50;" points="79.073,138.495 79.073,456 123.073,456 123.073,127 		"/>
		<g>
			<path style="fill:#FDCB50;" d="M431.075,137.579c-29.164,0-56.475-12.966-74.93-35.575C331.24,71.497,294.401,54,255.074,54
				s-76.166,17.497-101.071,48.004c-18.456,22.608-45.767,35.574-74.93,35.574c-12.15,0-22-9.85-22-22s9.85-22,22-22
				c15.894,0,30.781-7.071,40.845-19.399C153.215,33.393,202.478,10,255.074,10S356.933,33.393,390.23,74.179
				c10.064,12.329,24.952,19.399,40.845,19.399c12.15,0,22,9.85,22,22S443.226,137.579,431.075,137.579z"/>
		</g>
		<g>
			<path style="fill:#FDCB50;" d="M431.075,137.579c-29.164,0-56.475-12.966-74.93-35.575C331.24,71.497,294.401,54,255.074,54
				s-76.166,17.497-101.071,48.004c-18.456,22.608-45.767,35.574-74.93,35.574c-12.15,0-22-9.85-22-22s9.85-22,22-22
				c15.894,0,30.781-7.071,40.845-19.399C153.215,33.393,202.478,10,255.074,10S356.933,33.393,390.23,74.179
				c10.064,12.329,24.952,19.399,40.845,19.399c12.15,0,22,9.85,22,22S443.226,137.579,431.075,137.579z"/>
		</g>
		<polygon style="fill:#FDCB50;" points="431.075,138.495 431.075,456 387.075,456 387.075,127.028 		"/>
		<path style="fill:#FDE0BE;" d="M255.074,282.627c-48.601,0-88-39.399-88-88s39.399-88,88-88s88,39.399,88,88
			S303.675,282.627,255.074,282.627z"/>
		<path style="fill:#F7B073;" d="M255.074,282.627c7.669,0,15.108-0.983,22.201-2.827c-40.097-41.34-67.503-95.056-75.915-154.876
			c-20.851,16.092-34.286,41.327-34.286,69.703C167.074,243.228,206.473,282.627,255.074,282.627z"/>
	</g>
	<g>
		<path style="fill:#FDCB50;" d="M265.074,348.242v-63.615c0-5.523-4.477-10-10-10s-10,4.477-10,10v63.615
			c-9.856,3.965-16.817,13.608-16.817,24.883c0,14.811,12.007,26.817,26.817,26.817s26.817-12.007,26.817-26.817
			C281.891,361.85,274.93,352.207,265.074,348.242z"/>
		<g>
			<path style="fill:#052A75;" d="M255.074,96.627c-54.038,0-98,43.962-98,98s43.962,98,98,98s98-43.962,98-98
				S309.112,96.627,255.074,96.627z M255.074,272.627c-43.009,0-78-34.991-78-78s34.991-78,78-78s78,34.991,78,78
				S298.083,272.627,255.074,272.627z"/>
			<path style="fill:#052A75;" d="M279.116,156.443l-24.042,24.042l-9.166-9.166c-3.905-3.905-10.237-3.905-14.142,0
				s-3.905,10.237,0,14.142l16.237,16.236c1.953,1.953,4.512,2.929,7.071,2.929s5.119-0.976,7.071-2.929l31.113-31.112
				c3.905-3.905,3.906-10.237,0-14.142C289.353,152.538,283.021,152.539,279.116,156.443z"/>
			<path style="fill:#052A75;" d="M441.075,449.247V145.97c12.761-4.21,22-16.238,22-30.391c0-17.645-14.355-32-32-32
				c-12.878,0-24.942-5.731-33.099-15.724C362.772,24.732,310.687,0,255.074,0S147.376,24.732,112.172,67.856
				c-8.157,9.992-20.221,15.723-33.099,15.723c-17.645,0-32,14.355-32,32c0,14.153,9.239,26.182,22,30.391v303.277
				c-10.664,5.218-18.026,16.177-18.026,28.827c0,17.686,14.388,32.074,32.074,32.074h343.906c17.686,0,32.074-14.389,32.074-32.074
				C459.102,465.425,451.739,454.465,441.075,449.247z M133.073,446V132.94c10.795-6.342,20.521-14.621,28.677-24.612
				C184.748,80.157,218.763,64,255.074,64s70.327,16.157,93.324,44.328c8.156,9.991,17.882,18.27,28.677,24.612V446H133.073z
				 M89.073,446V147.106c8.239-0.767,16.283-2.475,24-5.062V446H89.073z M397.075,142.044c7.717,2.587,15.761,4.295,24,5.062V446
				h-24V142.044z M79.073,103.579c18.91,0,36.621-8.411,48.592-23.075C159.055,42.053,205.494,20,255.074,20
				s96.02,22.053,127.409,60.503c11.971,14.665,29.682,23.076,48.592,23.076c6.617,0,12,5.383,12,12s-5.383,12-12,12
				c-26.148,0-50.635-11.626-67.184-31.898C337.079,62.836,297.417,44,255.074,44s-82.005,18.837-108.817,51.681
				c-16.548,20.271-41.036,31.898-67.184,31.898c-6.617,0-12-5.383-12-12S72.457,103.579,79.073,103.579z M427.027,490.148H83.121
				c-6.658,0-12.074-5.417-12.074-12.074S76.463,466,83.121,466h343.906c6.658,0,12.074,5.417,12.074,12.074
				S433.685,490.148,427.027,490.148z"/>
		</g>
	</g>
</g>
<g>
</g>
<g>
</g>
<g>
</g>
<g>
</g>
<g>
</g>
<g>
</g>
<g>
</g>
<g>
</g>
<g>
</g>
<g>
</g>
<g>
</g>
<g>
</g>
<g>
</g>
<g>
</g>
<g>
</g>
</svg>
