<?xml version="1.0" encoding="iso-8859-1"?>
<!-- Generator: Adobe Illustrator 27.2.0, SVG Export Plug-In . SVG Version: 6.00 Build 0)  -->
<svg version="1.1" id="Capa_1" xmlns="http://www.w3.org/2000/svg" xmlns:xlink="http://www.w3.org/1999/xlink" x="0px" y="0px"
	 viewBox="0 0 510.003 510.003" style="enable-background:new 0 0 510.003 510.003;" xml:space="preserve">
<g>
	<g>
		<g>
			<g>
				<polygon style="fill:#FDCB50;" points="199.354,10 339.606,10 269.824,168.393 412.574,168.393 199.601,500 255.868,273.508 
					97.429,273.508 				"/>
			</g>
		</g>
		<g>
			<path style="fill:#FD8F01;" d="M303.582,338.097C232.126,252.158,199.425,124.115,224.496,10h-25.142L97.429,273.508h158.439
				L199.601,500L303.582,338.097z"/>
		</g>
	</g>
	<g>
		<path style="fill:#052A75;" d="M199.596,510.001c-6.319,0.114-11.367-6.27-9.701-12.412c0,0,53.184-214.081,53.184-214.081H97.429
			c-3.298,0-6.384-1.626-8.249-4.347c-1.865-2.72-2.268-6.185-1.078-9.261L190.028,6.393C191.518,2.54,195.223,0,199.354,0h140.252
			c3.379,0,6.53,1.707,8.376,4.537s2.138,6.402,0.775,9.495l-63.601,144.361h127.417c3.657,0,7.022,1.997,8.776,5.206
			c1.753,3.21,1.614,7.121-0.362,10.198L208.014,505.404C206.126,508.345,202.914,510.001,199.596,510.001z M112.018,263.508h143.85
			c3.077,0,5.982,1.417,7.877,3.84c1.896,2.424,2.57,5.585,1.828,8.571l-41.671,167.738l170.365-265.264H269.824
			c-3.379,0-6.53-1.707-8.376-4.537s-2.138-6.402-0.775-9.495L324.273,20H206.208L112.018,263.508z"/>
	</g>
</g>
<g>
</g>
<g>
</g>
<g>
</g>
<g>
</g>
<g>
</g>
<g>
</g>
<g>
</g>
<g>
</g>
<g>
</g>
<g>
</g>
<g>
</g>
<g>
</g>
<g>
</g>
<g>
</g>
<g>
</g>
</svg>
