<?xml version="1.0" encoding="UTF-8"?>
<svg xmlns="http://www.w3.org/2000/svg" xmlns:xlink="http://www.w3.org/1999/xlink" version="1.1" id="Capa_1" x="0px" y="0px" viewBox="0 0 512 512" style="enable-background:new 0 0 512 512;" xml:space="preserve" width="512" height="512">
<g>
	<g>
		<path style="fill:#918B8B;" d="M303.381,418.119H173.803v62.214c0,13.347,10.82,24.167,24.167,24.167h81.243&#10;&#9;&#9;&#9;c13.347,0,24.167-10.82,24.167-24.167V418.119z"/>
		<path style="fill:#7F7C7C;" d="M303.378,418.12v62.21c0,13.35-10.82,24.17-24.16,24.17h-30c13.34,0,24.16-10.82,24.16-24.17&#10;&#9;&#9;&#9;v-62.21H303.378z"/>
		<path style="fill:#EB5569;" d="M194.994,170.13c1.411,13.135,11.899,23.791,25.01,25.402c4.14,0.506,8.14,0.13,11.827-0.956&#10;&#9;&#9;&#9;c3.378-0.995,6.761,1.526,6.761,5.047v51.047h-51.047c-3.491,0-6.062,3.34-5.069,6.689c1.111,3.708,1.486,7.733,0.977,11.891&#10;&#9;&#9;&#9;c-1.603,13.102-12.258,23.582-25.377,25.001c-17.352,1.87-32.033-11.666-32.033-28.642c0-2.806,0.401-5.528,1.152-8.092&#10;&#9;&#9;&#9;c0.994-3.415-1.47-6.847-5.027-6.847H95.014c-0.66-5.72-0.985-11.549-0.952-17.453c0.409-75.863,60.333-138.433,134.94-143.417&#10;&#9;&#9;&#9;c5.183-0.346,9.591,3.738,9.591,8.932v35.515c0,3.558-3.432,6.021-6.847,5.019c-2.564-0.743-5.286-1.144-8.092-1.144&#10;&#9;&#9;&#9;C206.685,138.122,193.132,152.794,194.994,170.13z"/>
		<path style="fill:#E53950;" d="M194.998,170.13c1.41,13.13,11.9,23.79,25.01,25.4c4.14,0.51,8.14,0.13,11.82-0.95&#10;&#9;&#9;&#9;c3.38-1,6.76,1.52,6.76,5.04v51.05h-30v-51.05c0-3.52-3.38-6.04-6.76-5.04c-3.68,1.08-7.68,1.46-11.82,0.95&#10;&#9;&#9;&#9;c-13.11-1.61-23.6-12.27-25.01-25.4c-1.87-17.34,11.69-32.01,28.65-32.01c2.81,0,5.53,0.4,8.1,1.15c3.41,1,6.84-1.47,6.84-5.02&#10;&#9;&#9;&#9;V98.73c0-2.15-0.75-4.11-2-5.64c7.28-1.67,14.77-2.78,22.41-3.29c5.19-0.35,9.59,3.74,9.59,8.93v35.52c0,3.55-3.43,6.02-6.84,5.02&#10;&#9;&#9;&#9;c-2.57-0.75-5.29-1.15-8.1-1.15C206.688,138.12,193.128,152.79,194.998,170.13z"/>
		<path style="fill:#528CD7;" d="M464.997,151.765c0,2.732-0.077,5.445-0.227,8.139c-0.266,4.769-4.165,8.52-8.941,8.52h-18.94&#10;&#9;&#9;&#9;c-3.49,0-6.071-3.349-5.069-6.689c1.102-3.708,1.486-7.724,0.977-11.883c-1.603-13.102-12.242-23.59-25.369-25.018&#10;&#9;&#9;&#9;c-17.361-1.896-32.058,11.666-32.058,28.642c0,2.814,0.401,5.528,1.144,8.1c1.002,3.415-1.461,6.847-5.019,6.847h-39.188&#10;&#9;&#9;&#9;c-6.54,0-11.842-5.302-11.842-11.842v-39.204c0-3.522-3.383-6.042-6.761-5.047c-3.688,1.086-7.687,1.461-11.827,0.956&#10;&#9;&#9;&#9;c-13.11-1.612-23.599-12.267-25.01-25.402c-1.862-17.336,11.691-32.008,28.659-32.008c2.806,0,5.528,0.401,8.092,1.144&#10;&#9;&#9;&#9;c3.415,1.002,6.847-1.461,6.847-5.019V16.114c0-4.996,4.234-8.909,9.221-8.597C404.897,12.225,465.101,75.054,464.997,151.765z"/>
		<path style="fill:#2E73CD;" d="M464.998,151.76c0,2.74-0.08,5.45-0.23,8.14c-0.26,4.77-4.16,8.52-8.94,8.52h-18.94&#10;&#9;&#9;&#9;c-2.02,0-3.75-1.13-4.63-2.73c1.45-1.51,2.39-3.54,2.51-5.79c0.15-2.69,0.23-5.4,0.23-8.14c0.09-68.83-48.37-126.48-112.66-140.99&#10;&#9;&#9;&#9;c1.7-2.13,4.39-3.43,7.35-3.25C404.898,12.23,465.098,75.05,464.998,151.76z"/>
		<path style="fill:#FFE177;" d="M371.752,250.67c5.598,0,9.853,5.089,8.804,10.588c-5.033,26.373-17.243,50.2-34.51,69.377&#10;&#9;&#9;&#9;c-20.985,23.306-35.782,51.497-41.669,82.294l-0.994,5.194h-64.792v-51.047c0-3.49,3.34-6.071,6.689-5.069&#10;&#9;&#9;&#9;c3.708,1.102,7.733,1.487,11.891,0.977c13.102-1.612,23.582-12.258,25.001-25.386c1.871-17.344-11.666-32.032-28.642-32.032&#10;&#9;&#9;&#9;c-2.809,0-5.535,0.402-8.101,1.155c-3.411,1.001-6.838-1.475-6.838-5.03V250.67h51.03c3.521,0,6.042-3.382,5.048-6.76&#10;&#9;&#9;&#9;c-1.086-3.688-1.462-7.68-0.956-11.812c1.603-13.102,12.242-23.59,25.369-25.018c17.361-1.896,32.058,11.666,32.058,28.642&#10;&#9;&#9;&#9;c0,2.814-0.401,5.528-1.152,8.1c-0.994,3.415,1.47,6.847,5.027,6.847H371.752z"/>
		<path style="fill:#FFD15B;" d="M380.558,261.26c-5.04,26.37-17.25,50.2-34.51,69.37c-20.99,23.31-35.78,51.5-41.67,82.3&#10;&#9;&#9;&#9;l-0.99,5.19h-30l0.99-5.19c5.89-30.8,20.68-58.99,41.67-82.3c17.26-19.17,29.47-43,34.51-69.37c1.05-5.5-3.21-10.59-8.81-10.59&#10;&#9;&#9;&#9;h-16.73c-3.56,0-6.02-3.43-5.03-6.85c0.75-2.57,1.15-5.28,1.15-8.1c0-10.41-5.53-19.54-13.82-24.6c3.51-2.15,7.5-3.57,11.76-4.04&#10;&#9;&#9;&#9;c17.36-1.9,32.06,11.67,32.06,28.64c0,2.82-0.4,5.53-1.15,8.1c-0.99,3.42,1.47,6.85,5.03,6.85h16.73&#10;&#9;&#9;&#9;C377.348,250.67,381.608,255.76,380.558,261.26z"/>
		<path style="fill:#0ED2B3;" d="M282.173,337.599c-1.42,13.127-11.899,23.774-25.001,25.386c-4.159,0.509-8.184,0.125-11.891-0.977&#10;&#9;&#9;&#9;c-3.349-1.002-6.689,1.578-6.689,5.069v51.047H173.8l-0.935-4.927c-5.77-30.145-19.348-58.437-40.233-80.925&#10;&#9;&#9;&#9;c-20.384-21.953-34.02-50.253-37.619-81.601h27.156c3.49,0,6.071,3.34,5.069,6.689c-1.102,3.708-1.486,7.724-0.977,11.883&#10;&#9;&#9;&#9;c1.603,13.102,12.25,23.573,25.369,25.001c17.369,1.896,32.049-11.649,32.049-28.634c0-2.806-0.401-5.528-1.152-8.092&#10;&#9;&#9;&#9;c-1.002-3.415,1.461-6.847,5.027-6.847h51.038v51.021c0,3.566,3.432,6.029,6.847,5.027c2.564-0.751,5.286-1.152,8.092-1.152&#10;&#9;&#9;&#9;C270.508,305.566,284.044,320.255,282.173,337.599z"/>
		<path style="fill:#0AB69F;" d="M282.168,337.6c-1.41,13.13-11.89,23.77-25,25.38c-4.15,0.51-8.18,0.13-11.89-0.97&#10;&#9;&#9;&#9;c-3.35-1-6.69,1.58-6.69,5.07v51.04h-30v-51.04c0-3.49,3.34-6.07,6.69-5.07c3.71,1.1,7.74,1.48,11.89,0.97&#10;&#9;&#9;&#9;c13.11-1.61,23.59-12.25,25-25.38c1.88-17.35-11.66-32.03-28.64-32.03c-2.8,0-5.53,0.4-8.09,1.15c-3.41,1-6.85-1.46-6.85-5.03&#10;&#9;&#9;&#9;v-51.02h30v51.02c0,3.57,3.44,6.03,6.85,5.03c2.56-0.75,5.29-1.15,8.09-1.15C270.508,305.57,284.048,320.25,282.168,337.6z"/>
		<rect x="173.803" y="446.31" style="fill:#CDBFBA;" width="129.578" height="30"/>
		<rect x="273.378" y="446.31" style="fill:#B9ACAC;" width="30" height="30"/>
	</g>
	<g>
		<path style="fill:none;stroke:#000000;stroke-width:15;stroke-linecap:round;stroke-linejoin:round;stroke-miterlimit:10;" d="&#10;&#9;&#9;&#9;M303.381,418.119H173.803v62.214c0,13.347,10.82,24.167,24.167,24.167h81.243c13.347,0,24.167-10.82,24.167-24.167V418.119z"/>
		<path style="fill:none;stroke:#000000;stroke-width:15;stroke-linecap:round;stroke-linejoin:round;stroke-miterlimit:10;" d="&#10;&#9;&#9;&#9;M194.994,170.13c1.411,13.135,11.899,23.791,25.01,25.402c4.14,0.506,8.14,0.13,11.827-0.956c3.378-0.995,6.761,1.526,6.761,5.047&#10;&#9;&#9;&#9;v51.047h-51.047c-3.491,0-6.062,3.34-5.069,6.689c1.111,3.708,1.486,7.733,0.977,11.891&#10;&#9;&#9;&#9;c-1.603,13.102-12.258,23.582-25.377,25.001c-17.352,1.87-32.033-11.666-32.033-28.642c0-2.806,0.401-5.528,1.152-8.092&#10;&#9;&#9;&#9;c0.994-3.415-1.47-6.847-5.027-6.847H95.014c-0.66-5.72-0.985-11.549-0.952-17.453c0.409-75.863,60.333-138.433,134.94-143.417&#10;&#9;&#9;&#9;c5.183-0.346,9.591,3.738,9.591,8.932v35.515c0,3.558-3.432,6.021-6.847,5.019c-2.564-0.743-5.286-1.144-8.092-1.144&#10;&#9;&#9;&#9;C206.685,138.122,193.132,152.794,194.994,170.13z"/>
		<path style="fill:none;stroke:#000000;stroke-width:15;stroke-linecap:round;stroke-linejoin:round;stroke-miterlimit:10;" d="&#10;&#9;&#9;&#9;M296.182,57.426c2.931-1.004,6.075-1.55,9.346-1.55c2.806,0,5.528,0.401,8.092,1.144c3.415,1.002,6.847-1.461,6.847-5.019V16.114&#10;&#9;&#9;&#9;c0-4.996,4.234-8.909,9.221-8.597c75.209,4.708,135.413,67.537,135.31,144.247c0,2.732-0.077,5.445-0.227,8.139&#10;&#9;&#9;&#9;c-0.266,4.769-4.165,8.52-8.941,8.52h-18.94c-3.49,0-6.071-3.349-5.069-6.689c1.102-3.708,1.486-7.724,0.977-11.883&#10;&#9;&#9;&#9;c-1.603-13.102-12.242-23.59-25.369-25.018c-17.361-1.896-32.058,11.666-32.058,28.642c0,2.814,0.401,5.528,1.144,8.1&#10;&#9;&#9;&#9;c1.002,3.415-1.461,6.847-5.019,6.847h-39.188c-6.54,0-11.842-5.302-11.842-11.842v-39.204c0-3.522-3.383-6.042-6.761-5.047&#10;&#9;&#9;&#9;c-3.688,1.086-7.687,1.461-11.827,0.956c-13.11-1.612-23.599-12.267-25.01-25.402c-0.125-1.168-0.181-2.324-0.17-3.465"/>
		<path style="fill:none;stroke:#000000;stroke-width:15;stroke-linecap:round;stroke-linejoin:round;stroke-miterlimit:10;" d="&#10;&#9;&#9;&#9;M371.752,250.67c5.598,0,9.853,5.089,8.804,10.588c-5.033,26.373-17.243,50.2-34.51,69.377&#10;&#9;&#9;&#9;c-20.985,23.306-35.782,51.497-41.669,82.294l-0.994,5.194h-64.792v-51.047c0-3.49,3.34-6.071,6.689-5.069&#10;&#9;&#9;&#9;c3.708,1.102,7.733,1.487,11.891,0.977c13.102-1.612,23.582-12.258,25.001-25.386c1.871-17.344-11.666-32.032-28.642-32.032&#10;&#9;&#9;&#9;c-2.809,0-5.535,0.402-8.101,1.155c-3.411,1.001-6.838-1.475-6.838-5.03V250.67h51.03c3.521,0,6.042-3.382,5.048-6.76&#10;&#9;&#9;&#9;c-1.086-3.688-1.462-7.68-0.956-11.812c1.603-13.102,12.242-23.59,25.369-25.018c17.361-1.896,32.058,11.666,32.058,28.642&#10;&#9;&#9;&#9;c0,2.814-0.401,5.528-1.152,8.1c-0.994,3.415,1.47,6.847,5.027,6.847H371.752z"/>
		<path style="fill:none;stroke:#000000;stroke-width:15;stroke-linecap:round;stroke-linejoin:round;stroke-miterlimit:10;" d="&#10;&#9;&#9;&#9;M132.633,332.271c-20.384-21.953-34.02-50.253-37.619-81.601h27.156c3.49,0,6.071,3.34,5.069,6.689&#10;&#9;&#9;&#9;c-1.102,3.708-1.486,7.724-0.977,11.883c1.603,13.102,12.25,23.573,25.369,25.001c17.369,1.896,32.049-11.649,32.049-28.634&#10;&#9;&#9;&#9;c0-2.806-0.401-5.528-1.152-8.092c-1.002-3.415,1.461-6.847,5.027-6.847h51.038v51.021c0,3.566,3.432,6.029,6.847,5.027&#10;&#9;&#9;&#9;c2.564-0.751,5.286-1.152,8.092-1.152c16.977,0,30.513,14.688,28.642,32.032c-1.42,13.127-11.899,23.774-25.001,25.386&#10;&#9;&#9;&#9;c-4.159,0.509-8.184,0.125-11.891-0.977c-3.349-1.002-6.689,1.578-6.689,5.069v51.047H173.8l-0.935-4.927&#10;&#9;&#9;&#9;c-3.462-18.088-9.735-35.508-18.711-51.407"/>
		
			<polyline style="fill:none;stroke:#000000;stroke-width:15;stroke-linecap:round;stroke-linejoin:round;stroke-miterlimit:10;" points="&#10;&#9;&#9;&#9;227.44,446.31 303.381,446.31 303.381,476.31 173.803,476.31 173.803,446.31 192.902,446.31 &#9;&#9;"/>
		<g>
			
				<line style="fill:none;stroke:#000000;stroke-width:15;stroke-linecap:round;stroke-linejoin:round;stroke-miterlimit:10;" x1="418.328" y1="300.357" x2="444.41" y2="301.768"/>
			
				<line style="fill:none;stroke:#000000;stroke-width:15;stroke-linecap:round;stroke-linejoin:round;stroke-miterlimit:10;" x1="395.698" y1="358.99" x2="415.437" y2="375.034"/>
			
				<line style="fill:none;stroke:#000000;stroke-width:15;stroke-linecap:round;stroke-linejoin:round;stroke-miterlimit:10;" x1="349.645" y1="418.373" x2="342.927" y2="393.125"/>
		</g>
		<g>
			
				<line style="fill:none;stroke:#000000;stroke-width:15;stroke-linecap:round;stroke-linejoin:round;stroke-miterlimit:10;" x1="157.34" y1="69.762" x2="153.256" y2="43.963"/>
			
				<line style="fill:none;stroke:#000000;stroke-width:15;stroke-linecap:round;stroke-linejoin:round;stroke-miterlimit:10;" x1="101.341" y1="98.295" x2="83.354" y2="80.308"/>
			
				<line style="fill:none;stroke:#000000;stroke-width:15;stroke-linecap:round;stroke-linejoin:round;stroke-miterlimit:10;" x1="47.003" y1="150.204" x2="72.808" y2="154.293"/>
		</g>
	</g>
</g>















</svg>
