<svg id="color_line" enable-background="new 0 0 256 256" viewBox="0 0 256 256" xmlns="http://www.w3.org/2000/svg"><g><g><g><path d="m156.9142 92.3006h-27.3103c3.2232-2.358 5.3182-6.1666 5.3182-10.466 0-7.1577-5.8031-12.961-12.9612-12.961-7.1584 0-12.9612 5.8033-12.9612 12.961 0 4.2994 2.0949 8.108 5.3181 10.466h-25.3717v85.3674h29.6824v-5.0963c0-10.5502 4.9121-20.4329 13.1454-27.0298 15.3839-12.3262 25.1254-30.8727 25.1481-52.6425-.0002-.2002-.0059-.399-.0078-.5988z" fill="#3b97d3"/><path d="m100.2235 111.0643c-4.8355 0-9.0499 2.6504-11.2774 6.5759v-25.3396h-67.9676c-.0019.1998-.0081.3986-.0083.5988.0243 21.715 9.8476 40.2248 25.2047 52.5547 8.2022 6.5854 13.0919 16.4417 13.0919 26.9604v5.2535h29.6793v-47.2571c2.2275 3.9255 6.4419 6.5757 11.2774 6.5757 7.1583 0 12.9616-5.8028 12.9616-12.9612 0-7.1581-5.8033-12.9611-12.9616-12.9611z" fill="#fcc62d"/><path d="m88.9461 64.3815c-2.2276 3.9255-6.442 6.5758-11.2779 6.5758-7.1577 0-12.961-5.8028-12.961-12.9612 0-7.1581 5.8033-12.9612 12.961-12.9612 4.8359 0 9.0503 2.6504 11.2779 6.5759v-28.0651c-37.3192.0016-67.6091 30.6534-67.9676 68.609h26.6925c-2.8714 2.3774-4.7008 5.9688-4.7008 9.9875 0 7.1582 5.8028 12.9615 12.9612 12.9615 7.1581 0 12.9612-5.8033 12.9612-12.9615 0-4.0187-1.8296-7.6101-4.7009-9.9875h24.7545v-27.7732z" fill="#ff5e58"/></g><path d="m109.7173 185.6658h-41.5423v-17.2839c2.2917-2.2917 3.5765-3.5765 5.8682-5.8682h29.8059c2.2917 2.2917 3.5765 3.5765 5.8682 5.8682z" fill="#8d969d"/><path d="m97.5741 234.7544h-17.2559c-3.0376 0-5.5-2.4624-5.5-5.5v-34.1158h28.2559v34.1158c0 3.0375-2.4625 5.5-5.5 5.5z" fill="#8d969d"/><path d="m109.0142 219.9318h-40.1361c-6.0751 0-11-4.9249-11-11v-31.4392h62.1361v31.4392c0 6.05-4.95 11-11 11z" fill="#afb7bb"/><path d="m194.9255 86.059c-3.6948-1.5157-6.6424-4.7103-7.6741-8.8841-1.7175-6.9486 2.5232-13.9748 9.4725-15.6925 6.949-1.7176 13.9751 2.5236 15.6926 9.4722 1.0317 4.1738-.0882 8.3738-2.6514 11.4363l26.5124-6.5533c-9.2344-35.9283-44.186-58.2978-79.9423-50.8702-.8426.175-1.6753.3704-2.5033.5751l6.6994 27.1035c-3.1044-3.2763-7.8317-4.8379-12.5263-3.6775-6.9486 1.7175-11.1898 8.7436-9.4722 15.6926 1.7177 6.9493 8.7439 11.19 15.6925 9.4724 4.6946-1.1604 8.1499-4.7445 9.3705-9.0898l6.6994 27.1034z" fill="#20a5a5"/></g><g><path d="m156.9142 89.5508h-21.2776c1.314-2.3294 2.0354-4.9855 2.0354-7.7161 0-8.663-7.0479-15.711-15.7113-15.711-8.663 0-15.711 7.048-15.711 15.711 0 2.7307.7211 5.3867 2.0351 7.7161h-16.5885v-25.1695c0-1.2482-.8411-2.3402-2.0483-2.6587-1.2074-.3201-2.4771.2154-3.0935 1.3014-1.8141 3.1969-5.2191 5.1831-8.8862 5.1831-5.6302 0-10.211-4.5805-10.211-10.211s4.5807-10.2115 10.211-10.2115c3.6668 0 7.0718 1.9862 8.8862 5.1831.6163 1.086 1.8866 1.621 3.0938 1.3014 1.2069-.3185 2.048-1.4104 2.048-2.6587v-28.065c0-.7294-.2898-1.4287-.8054-1.9443-.5159-.5162-1.2155-.8057-1.9446-.8057-18.7809.0011-36.4663 7.4186-49.7987 20.8871-12.9622 13.0752-20.4654 29.8878-20.9118 50.5266 0 22.018 9.3253 41.8273 26.2174 55.3898 7.6667 6.1547 12.0637 15.1996 12.0637 24.8155v2.7023c-.8259.4744-1.3887 1.3551-1.3887 2.376v11.3663h-3.2385v5.5h3.2385v7.9111h-3.2385v5.5h3.2385v1.1618c0 7.5818 6.1682 13.75 13.75 13.75h3.1899v6.5726c0 4.5493 3.701 8.25 8.25 8.25h17.256c4.549 0 8.25-3.7007 8.25-8.25v-6.5726h3.1902c7.5818 0 13.75-6.1682 13.75-13.75v-1.1618h3.2385v-5.5h-3.2385v-7.9111h3.2385v-5.5h-3.2385v-11.3663c0-1.0198-.5614-1.8996-1.3857-2.3744v-2.5466c0-9.6449 4.4158-18.7145 12.115-24.8837 16.8588-13.5083 26.1559-32.9646 26.1784-54.7927-.0003-.132.3197-3.2618-2.7578-3.3445zm-70.7179-63.1963v18.454c-2.5027-1.6183-5.4554-2.5239-8.528-2.5239-8.663 0-15.711 7.048-15.711 15.7115 0 8.663 7.0479 15.711 15.711 15.711 3.0728 0 6.0253-.9056 8.528-2.5239v18.2214h-22.0046c-1.1593 0-2.1944.7272-2.5873 1.8181s-.0596 2.3106.8336 3.0502c2.3544 1.9492 3.7047 4.8173 3.7047 7.8692 0 5.6305-4.5807 10.2115-10.2113 10.2115s-10.2113-4.581-10.2113-10.2115c0-3.0519 1.3503-5.92 3.7044-7.8692.8932-.7396 1.2265-1.9594.8336-3.0502-.3929-1.0909-1.4279-1.8181-2.5873-1.8181h-23.8595c1.7142-34.116 28.926-61.6122 62.385-63.0501zm-38.2997 116.9556c-15.0082-12.05-23.5275-29.1242-24.1409-48.2593h18.1559c-1.0982 2.1698-1.6913 4.5894-1.6913 7.0915 0 8.6636 7.048 15.7115 15.7113 15.7115s15.7113-7.048 15.7113-15.7115c0-2.5015-.5932-4.9217-1.6916-7.0915h16.2451v22.5892c0 1.2482.8411 2.3402 2.0483 2.6587 1.2077.3196 2.4774-.2159 3.0935-1.3014 1.8141-3.1969 5.2188-5.1831 8.8854-5.1831 5.6308 0 10.2118 4.581 10.2118 10.2115s-4.581 10.211-10.2118 10.211c-3.6668 0-7.0713-1.9862-8.8854-5.1831-.6158-1.0855-1.8858-1.621-3.0935-1.3014-1.2072.3185-2.0483 1.4105-2.0483 2.6587v29.353h-12.153c-.7291 0-1.4287.2895-1.9443.8051l-5.8685 5.8685c-.5156.5156-.8054 1.215-.8054 1.9443v6.361h-3.4082v-2.3284c-.0001-11.2922-5.1466-21.9001-14.1204-29.1043zm54.8136 21.9538 4.2571 4.2571v5.2218h-36.0421v-5.2218l4.2571-4.2571zm-2.3861 63.9907c0 1.5163-1.2337 2.75-2.75 2.75h-17.256c-1.5163 0-2.75-1.2337-2.75-2.75v-6.5726h22.756zm16.9402-20.3226c0 4.5493-3.701 8.25-8.25 8.25h-40.136c-4.549 0-8.25-3.7007-8.25-8.25v-1.1618h56.636zm0-6.6618h-56.636v-7.9111h56.636zm0-13.4111h-56.636v-8.6163h56.636zm12.7902-45.4636c-9.0089 7.2193-14.1759 17.8535-14.1759 29.1763v2.171h-3.4112v-6.361c0-.7294-.2898-1.4287-.8054-1.9443l-5.8685-5.8685c-.5156-.5156-1.2149-.8051-1.9443-.8051h-12.1529v-22.5511c2.5024 1.6183 5.4549 2.5239 8.5271 2.5239 8.6636 0 15.7118-7.0479 15.7118-15.711 0-8.6636-7.0482-15.7115-15.7118-15.7115-3.0725 0-6.0248.905-8.5271 2.5239v-15.7873h22.6214c1.1897 0 2.2443-.7648 2.6138-1.896.3695-1.1306-.0298-2.3708-.9899-3.0733-2.6249-1.9207-4.1919-5.0037-4.1919-8.2468 0-5.6305 4.5807-10.211 10.211-10.211 5.6305 0 10.2113 4.5805 10.2113 10.211 0 3.2431-1.567 6.3261-4.1921 8.2468-.9601.7025-1.3597 1.9427-.9899 3.0733.3695 1.1311 1.4241 1.896 2.6138 1.896h24.533c-.6083 19.2446-9.1072 36.3462-24.0823 48.3447z"/><path d="m238.941 75.1531c-9.5987-37.3447-46.1267-60.5688-83.1655-52.8784-.7882.1638-1.6154.354-2.6034.5983-.7082.1746-2.351 1.1773-2.0099 3.3295l5.0674 20.5004c-2.8177-.9706-5.9015-1.1424-8.8846-.4039-8.4098 2.0786-13.5604 10.6122-11.4821 19.0223 2.0794 8.4101 10.6127 13.5631 19.0223 11.4818 2.9828-.7374 5.6319-2.3246 7.6731-4.4967l5.0671 20.5009c.1751.7079 1.1198 2.384 3.3295 2.0093l24.6302-6.0881c1.155-.2852 1.9954-1.281 2.0826-2.4675.0875-1.1865-.5981-2.2945-1.6989-2.7462-3.0089-1.2343-5.2696-3.8511-6.0479-7.0001-.6545-2.6474-.2387-5.3915 1.1706-7.7263 1.4096-2.3354 3.644-3.9816 6.292-4.6363 2.6485-.6531 5.3918-.2385 7.7271 1.1709 2.3351 1.4094 3.9816 3.6437 4.6358 6.2917.7785 3.1485-.0032 6.5173-2.0904 9.0116-.7638.912-.854 2.2123-.224 3.221.63 1.0092 1.8372 1.4985 2.9925 1.2133l26.5125-6.5533c.7125-.1756 1.3248-.6295 1.701-1.259.3766-.63.4856-1.3841.303-2.0952zm-23.9789 3.1206c.7168-2.5765.7793-5.3281.1241-7.9788-1.0068-4.074-3.5401-7.512-7.1331-9.6803-3.5933-2.1694-7.8158-2.8091-11.8889-1.8015-4.0742 1.0065-7.5123 3.5401-9.6809 7.1328s-2.8085 7.8149-1.8015 11.8884c.6553 2.6512 1.9924 5.0569 3.8272 7.0028l-16.1039 3.9805-6.0395-24.4342c-.2997-1.2117-1.3779-2.07-2.6265-2.0894-.0145-.0005-.029-.0005-.0438-.0005-1.2302 0-2.3133.8186-2.6469 2.0061-.9942 3.539-3.8232 6.2842-7.3831 7.1645-5.4651 1.3508-11.0116-1.997-12.3629-7.4626-1.3508-5.4662 1.9967-11.0124 7.4623-12.3637 3.5605-.8792 7.3423.231 9.8705 2.8999.8588.9056 2.2204 1.1209 3.3156.521 1.0954-.5989 1.6497-1.8605 1.3503-3.0728l-6.0272-24.3837c33.1657-6.7359 65.8418 13.4186 75.6954 46.2451z"/></g></g></svg>