<?xml version="1.0" encoding="UTF-8"?>
<svg version="1.1" xmlns="http://www.w3.org/2000/svg" width="230" height="157">
<path d="M0 0 C2.01578974 0.58474784 4.03739202 1.14504575 6.06030273 1.70458984 C22.23366929 6.30371876 31.42858164 13.62988431 40.42382812 27.43408203 C46.29754418 36.4318332 52.75483447 44.77838682 60.07397461 52.64599609 C72.4604216 65.96535864 72.4604216 65.96535864 72.32397461 73.33349609 C70.31659087 78.72211131 67.85493518 80.64952583 62.88647461 83.39599609 C56.71109061 86.83144863 53.54133835 90.53682681 49.63647461 96.27099609 C41.65221737 106.87665108 29.82102387 109.15031921 17.33569336 110.97021484 C16.17682617 111.13134766 15.01795898 111.29248047 13.82397461 111.45849609 C12.08567383 111.71179688 12.08567383 111.71179688 10.31225586 111.97021484 C-13.16933138 115.33988894 -34.0665685 113.06640132 -57.27001953 108.61206055 C-60.36731779 108.02027149 -63.46769659 107.44705081 -66.56860352 106.87451172 C-85.73617528 103.26391842 -101.56473174 97.12461063 -118.17602539 86.77099609 C-119.039375 86.2436084 -119.039375 86.2436084 -119.92016602 85.70556641 C-125.18834916 82.33479587 -129.22713758 78.15697274 -131.67602539 72.33349609 C-133.27346299 63.14150992 -129.89590158 56.24032078 -125.67602539 48.27099609 C-125.12301758 47.16433594 -124.57000977 46.05767578 -124.00024414 44.91748047 C-114.24038207 25.92501323 -97.57334488 9.06192354 -77.25024414 1.61083984 C-51.15183353 -6.25933885 -26.13112467 -7.62808346 0 0 Z " fill="#8E8E8E" transform="translate(145.676025390625,24.66650390625)"/>
<path d="M0 0 C2.01578974 0.58474784 4.03739202 1.14504575 6.06030273 1.70458984 C22.23366929 6.30371876 31.42858164 13.62988431 40.42382812 27.43408203 C46.29754418 36.4318332 52.75483447 44.77838682 60.07397461 52.64599609 C72.4604216 65.96535864 72.4604216 65.96535864 72.32397461 73.33349609 C70.31659087 78.72211131 67.85493518 80.64952583 62.88647461 83.39599609 C56.71109061 86.83144863 53.54133835 90.53682681 49.63647461 96.27099609 C41.65221737 106.87665108 29.82102387 109.15031921 17.33569336 110.97021484 C16.17682617 111.13134766 15.01795898 111.29248047 13.82397461 111.45849609 C12.08567383 111.71179688 12.08567383 111.71179688 10.31225586 111.97021484 C-13.16933138 115.33988894 -34.0665685 113.06640132 -57.27001953 108.61206055 C-60.36731779 108.02027149 -63.46769659 107.44705081 -66.56860352 106.87451172 C-85.73617528 103.26391842 -101.56473174 97.12461063 -118.17602539 86.77099609 C-119.039375 86.2436084 -119.039375 86.2436084 -119.92016602 85.70556641 C-124.05018598 83.06303307 -126.7242873 80.171857 -129.67602539 76.33349609 C-128.68602539 75.83849609 -128.68602539 75.83849609 -127.67602539 75.33349609 C-125.45336914 76.11865234 -125.45336914 76.11865234 -122.61352539 77.39599609 C-104.83408295 85.06471946 -86.27455941 92.13280331 -66.78149414 86.77880859 C-62.79450339 85.93554895 -58.72954666 86.1811717 -54.67602539 86.33349609 C-55.82775894 88.80149656 -56.72386105 90.38133175 -58.67602539 92.33349609 C-58.74149437 94.84397095 -58.74149437 94.84397095 -57.67602539 97.33349609 C-53.24138877 100.67735516 -48.00158493 102.00386136 -42.73852539 103.52099609 C-41.81080322 103.78928223 -40.88308105 104.05756836 -39.92724609 104.33398438 C-32.33973551 106.40205207 -25.54891946 107.04801085 -17.67602539 106.33349609 C-15.02754675 100.88010207 -13.99612245 96.0435009 -13.35961914 90.04052734 C-13.25762711 89.17207687 -13.15563507 88.3036264 -13.05055237 87.40885925 C-12.72807495 84.65562681 -12.41954122 81.90110312 -12.11352539 79.14599609 C-11.80280825 76.38034876 -11.48888617 73.61522731 -11.16578674 70.85099792 C-10.96569361 69.13677866 -10.77278613 67.42170128 -10.58799744 65.70576477 C-10.452593 64.5388636 -10.452593 64.5388636 -10.31445312 63.34838867 C-10.2391185 62.66778885 -10.16378387 61.98718903 -10.08616638 61.28596497 C-9.61941264 59.06399212 -8.76476431 57.31691779 -7.67602539 55.33349609 C-5.53747689 57.47204459 -5.24947476 58.46624923 -4.67602539 61.33349609 C-4.45688477 60.74181641 -4.23774414 60.15013672 -4.01196289 59.54052734 C-1.76976718 53.9532673 0.11850613 50.49760438 5.32397461 47.33349609 C10.55275955 46.58652682 13.87406196 47.56466156 18.32397461 50.33349609 C19.6778078 51.64600942 21.01468501 52.97654499 22.32397461 54.33349609 C22.10741211 53.48271484 21.89084961 52.63193359 21.66772461 51.75537109 C19.16425984 40.8606633 19.01847604 30.47853649 19.32397461 19.33349609 C18.66397461 19.33349609 18.00397461 19.33349609 17.32397461 19.33349609 C16.97334961 18.46724609 16.62272461 17.60099609 16.26147461 16.70849609 C11.26104564 7.99807143 3.46406535 5.50631447 -5.73852539 2.52099609 C-6.89674805 2.1271875 -8.0549707 1.73337891 -9.24829102 1.32763672 C-16.14619077 -0.98222862 -22.56049196 -2.66768456 -29.85571289 -2.98291016 C-30.78383789 -3.02480469 -31.71196289 -3.06669922 -32.66821289 -3.10986328 C-33.61954102 -3.14917969 -34.57086914 -3.18849609 -35.55102539 -3.22900391 C-36.52555664 -3.2721875 -37.50008789 -3.31537109 -38.50415039 -3.35986328 C-40.89465341 -3.46532665 -43.28524983 -3.56744566 -45.67602539 -3.66650391 C-45.67602539 -3.99650391 -45.67602539 -4.32650391 -45.67602539 -4.66650391 C-29.86723656 -7.05273618 -15.21414853 -4.4412476 0 0 Z " fill="#5B5B5B" transform="translate(145.676025390625,24.66650390625)"/>
<path d="M0 0 C1.16273437 -0.00773437 2.32546875 -0.01546875 3.5234375 -0.0234375 C14.93999104 0.00239181 24.27404491 2.67322479 35 6.4375 C36.093125 6.79908203 37.18625 7.16066406 38.3125 7.53320312 C44.9840289 9.87954592 50.16057967 12.39918913 54.375 18.25 C55.3125 21.1875 55.3125 21.1875 55.375 23.25 C56.035 23.25 56.695 23.25 57.375 23.25 C57.39481934 23.80349121 57.41463867 24.35698242 57.43505859 24.92724609 C57.76734364 38.21545648 57.76734364 38.21545648 59.97265625 51.27734375 C60.45332891 53.6340398 60.43757222 55.85139811 60.375 58.25 C57.00561102 57.12687034 55.84325907 55.71825907 53.375 53.25 C49.72211807 52.03237269 47.21745864 51.85924149 43.375 52.25 C38.03479444 55.43358408 36.49550247 58.55535626 34.8203125 64.45703125 C34.67335938 65.04871094 34.52640625 65.64039062 34.375 66.25 C33.715 65.92 33.055 65.59 32.375 65.25 C31.91796875 63.10546875 31.91796875 63.10546875 31.5625 60.4375 C30.90118773 56.88167481 30.55428674 55.46514409 28.1875 52.625 C23.81977746 50.48966898 20.60308953 50.61135276 15.94921875 51.9453125 C10.37747442 53.95756614 4.99785761 56.40191941 1.375 61.25 C0.29012495 64.22246035 -0.28303495 67.10950464 -0.625 70.25 C-3.65294412 69.93180926 -5.18535231 69.74013355 -7.2578125 67.4296875 C-7.75023437 66.66914062 -8.24265625 65.90859375 -8.75 65.125 C-17.10244746 53.89973622 -31.00871227 49.99296531 -43.625 45.25 C-44.6989502 44.84362305 -45.77290039 44.43724609 -46.87939453 44.01855469 C-53.78614043 41.40616375 -60.70134887 38.81723677 -67.625 36.25 C-69.05271812 28.35454679 -69.05271812 28.35454679 -67.55859375 24.49609375 C-65.18384956 21.73755252 -62.58761753 19.4866301 -59.6875 17.3125 C-59.1097583 16.8779248 -58.5320166 16.44334961 -57.93676758 15.99560547 C-47.60900015 8.41861951 -37.04327385 4.79201448 -24.625 2.25 C-23.40441895 1.98074707 -23.40441895 1.98074707 -22.15917969 1.70605469 C-14.74000835 0.1832718 -7.55836873 -0.05061408 0 0 Z " fill="#ADADAD" transform="translate(107.625,20.75)"/>
<path d="M0 0 C1.21816406 0.28875 2.43632812 0.5775 3.69140625 0.875 C11.05288547 2.86589078 15.26602293 4.93907679 19.20166016 11.58789062 C22.37201875 18.07434643 24.90937261 24.75712457 27.44140625 31.51171875 C31.41558139 41.7657858 36.12676635 49.69988 44.63671875 56.72265625 C51.12017894 62.51828373 56.49548799 69.88840786 57.125 78.75 C56.96 79.9875 56.795 81.225 56.625 82.5 C51.30266643 86.43298149 44.70063543 88.09278103 38.5 90.1875 C36.74042969 90.81108398 36.74042969 90.81108398 34.9453125 91.44726562 C27.63249511 93.92143551 21.34320356 95.1099522 13.625 94.5 C13.295 93.51 12.965 92.52 12.625 91.5 C6.80752897 93.43703307 2.50230622 95.75392965 -2.3125 99.5 C-7.5010002 103.38892972 -11.98906811 105.95856816 -18.375 107.5 C-17.90715088 106.37368164 -17.43930176 105.24736328 -16.95727539 104.08691406 C-15.22971324 99.466644 -14.57976478 94.99392684 -14.05859375 90.109375 C-13.95660172 89.24233948 -13.85460968 88.37530396 -13.74952698 87.48199463 C-13.42759915 84.73900202 -13.11878959 81.99477952 -12.8125 79.25 C-12.50170022 76.49108018 -12.18784814 73.73266795 -11.86476135 70.97515869 C-11.6647687 69.26649483 -11.47185751 67.55698313 -11.28697205 65.84661865 C-10.46099341 58.75795543 -10.46099341 58.75795543 -8.375 55.5 C-6.2364515 57.6385485 -5.94844937 58.63275314 -5.375 61.5 C-5.15585938 60.90832031 -4.93671875 60.31664063 -4.7109375 59.70703125 C-2.46874179 54.1197712 -0.58046847 50.66410829 4.625 47.5 C9.85378494 46.75303072 13.17508735 47.73116546 17.625 50.5 C18.97883319 51.81251333 20.3157104 53.1430489 21.625 54.5 C21.4084375 53.64921875 21.191875 52.7984375 20.96875 51.921875 C18.46528523 41.02716721 18.31950143 30.6450404 18.625 19.5 C17.965 19.5 17.305 19.5 16.625 19.5 C16.274375 18.63375 15.92375 17.7675 15.5625 16.875 C10.56207103 8.16457534 2.76509074 5.67281838 -6.4375 2.6875 C-7.59572266 2.29369141 -8.75394531 1.89988281 -9.94726562 1.49414062 C-16.84516538 -0.81572471 -23.25946657 -2.50118065 -30.5546875 -2.81640625 C-31.4828125 -2.85830078 -32.4109375 -2.90019531 -33.3671875 -2.94335938 C-34.31851563 -2.98267578 -35.26984375 -3.02199219 -36.25 -3.0625 C-37.22453125 -3.10568359 -38.1990625 -3.14886719 -39.203125 -3.19335938 C-41.59362802 -3.29882274 -43.98422444 -3.40094175 -46.375 -3.5 C-46.375 -3.83 -46.375 -4.16 -46.375 -4.5 C-30.38554312 -6.91350293 -15.50057313 -4.14686315 0 0 Z " fill="#727272" transform="translate(146.375,24.5)"/>
<path d="M0 0 C0.66 0 1.32 0 2 0 C2.04898438 1.25554688 2.09796875 2.51109375 2.1484375 3.8046875 C2.57729123 15.49614452 2.57729123 15.49614452 4.59765625 26.9921875 C5.07249828 29.36178755 5.06298858 31.58963688 5 34 C1.63061102 32.87687034 0.46825907 31.46825907 -2 29 C-5.65288193 27.78237269 -8.15754136 27.60924149 -12 28 C-17.34020556 31.18358408 -18.87949753 34.30535626 -20.5546875 40.20703125 C-20.70164062 40.79871094 -20.84859375 41.39039063 -21 42 C-21.66 41.67 -22.32 41.34 -23 41 C-23.45703125 38.85546875 -23.45703125 38.85546875 -23.8125 36.1875 C-24.47381227 32.63167481 -24.82071326 31.21514409 -27.1875 28.375 C-31.55522254 26.23966898 -34.77191047 26.36135276 -39.42578125 27.6953125 C-44.99752558 29.70756614 -50.37714239 32.15191941 -54 37 C-55.08487505 39.97246035 -55.65803495 42.85950464 -56 46 C-59.02794412 45.68180926 -60.56035231 45.49013355 -62.6328125 43.1796875 C-63.12523437 42.41914062 -63.61765625 41.65859375 -64.125 40.875 C-73.54254653 28.21829734 -90.72717731 24.08841736 -104.92578125 18.78515625 C-105.88887207 18.42349365 -106.85196289 18.06183105 -107.84423828 17.68920898 C-109.71343366 16.98958485 -111.58545528 16.29745741 -113.46044922 15.61352539 C-114.30236816 15.30020264 -115.14428711 14.98687988 -116.01171875 14.6640625 C-116.75897217 14.39029785 -117.50622559 14.1165332 -118.27612305 13.83447266 C-120 13 -120 13 -121 11 C-114.48192012 12.38682551 -108.08930188 14.02763797 -101.6875 15.875 C-100.76541748 16.13893555 -99.84333496 16.40287109 -98.89331055 16.67480469 C-93.9910567 18.0905994 -89.13663597 19.5834803 -84.3125 21.25 C-68.03928448 26.74306853 -54.38569165 25.69845744 -38.09985352 21.13476562 C-30.56069085 19.1196954 -23.74807445 18.48216401 -15.9753418 19.22265625 C-13.52735779 19.45515805 -13.52735779 19.45515805 -10 19 C-5.83370666 15.23431179 -4.08233792 11.43054616 -2.1875 6.125 C-1.76855469 4.97257812 -1.34960938 3.82015625 -0.91796875 2.6328125 C-0.61503906 1.76398437 -0.31210938 0.89515625 0 0 Z " fill="#E9E9E9" transform="translate(163,45)"/>
<path d="M0 0 C2.9375 2.5 2.9375 2.5 5 5 C4.195625 4.690625 3.39125 4.38125 2.5625 4.0625 C-3.83983569 3.95017832 -7.89105204 9.02677642 -12.3671875 13.21484375 C-19.79517038 20.13012074 -19.79517038 20.13012074 -25 20 C-26 19 -26 19 -26.4375 16.375 C-25.81014019 11.53536715 -23.68307228 9.10420041 -20 6 C-13.63422509 2.16079622 -7.56485509 -0.78257122 0 0 Z " fill="#757575" transform="translate(133,71)"/>
<path d="M0 0 C1.24403138 2.48806276 1.06732288 4.23976186 1 7 C1 7.99 1 8.98 1 10 C0.09507813 10.39832031 0.09507813 10.39832031 -0.828125 10.8046875 C-1.62734375 11.15789063 -2.4265625 11.51109375 -3.25 11.875 C-4.43335938 12.39707031 -4.43335938 12.39707031 -5.640625 12.9296875 C-7.78868608 13.90413905 -9.89829202 14.92986429 -12 16 C-10.57139081 11.50891248 -8.06922708 8.53830684 -4.875 5.1875 C-4.40707031 4.68541016 -3.93914063 4.18332031 -3.45703125 3.66601562 C-2.31098175 2.43810545 -1.15634689 1.21821785 0 0 Z " fill="#737373" transform="translate(39,46)"/>
<path d="M0 0 C5.69305433 1.23876645 11.35370013 2.56276003 17 4 C16.67 4.99 16.34 5.98 16 7 C10.3856009 5.43551329 5.13189662 3.83604813 0 1 C0 0.67 0 0.34 0 0 Z " fill="#DEDEDE" transform="translate(42,56)"/>
</svg>
