<?xml version="1.0" encoding="UTF-8"?>
<svg version="1.1" xmlns="http://www.w3.org/2000/svg" width="230" height="157">
<path d="M0 0 C0.67643555 -0.00620361 1.35287109 -0.01240723 2.04980469 -0.01879883 C13.77408532 0.27331074 25.52990105 4.13089913 36.75 7.25 C37.93013672 7.559375 39.11027344 7.86875 40.32617188 8.1875 C55.78068341 12.49800017 65.86451416 20.69940118 74.3125 34.0625 C81.9884359 45.84938226 90.30528394 56.63571545 100.23608398 66.62011719 C104.70383628 71.22833002 107.5625 75.46598494 107.5625 82.125 C105.77577166 88.15520815 101.78014373 90.43599407 96.5625 93.4375 C91.53577248 96.35984307 88.5083684 99.61594506 85.25 104.4453125 C77.03570149 116.18640222 65.90081164 118.65393086 52.45068359 121.05566406 C48.95083678 121.65390252 45.44671551 122.2095315 41.9375 122.75 C40.84977295 122.92547363 39.7620459 123.10094727 38.64135742 123.28173828 C18.94073266 126.11223036 0.32293842 124.16968171 -19.14404297 120.50219727 C-22.82532702 119.81008842 -26.51131982 119.14998965 -30.19921875 118.49414062 C-52.07446986 114.53254102 -70.62289109 108.87458463 -89.5 96.9375 C-90.21470459 96.49067871 -90.92940918 96.04385742 -91.66577148 95.58349609 C-97.2958266 91.92279082 -101.79704709 87.84239802 -104.4375 81.5 C-105.97299341 71.84595432 -102.91156198 64.76016252 -98.4375 56.375 C-97.88449219 55.27285156 -97.33148438 54.17070313 -96.76171875 53.03515625 C-93.03673309 45.81639094 -88.70990413 39.65964466 -83.4375 33.5 C-82.57682225 32.40625053 -81.71614506 31.31250061 -80.85546875 30.21875 C-78.06131747 27.07702255 -75.07662393 24.55304353 -71.75 22 C-71.12988037 21.52224121 -70.50976074 21.04448242 -69.87084961 20.55224609 C-50.07947073 5.49676207 -24.67768278 0.13767549 0 0 Z " fill="#8E5730" transform="translate(114.4375,16.5)"/>
<path d="M0 0 C0.66 0.33 1.32 0.66 2 1 C1.690625 2.3921875 1.690625 2.3921875 1.375 3.8125 C0.63307034 7.15173402 0.63307034 7.15173402 3 10 C4.96671435 10.95765038 4.96671435 10.95765038 7.3046875 11.61328125 C8.18866211 11.88873779 9.07263672 12.16419434 9.98339844 12.44799805 C10.93762695 12.73328369 11.89185547 13.01856934 12.875 13.3125 C13.85500977 13.61518799 14.83501953 13.91787598 15.84472656 14.22973633 C21.61427764 16.0040912 27.4023154 17.71618557 33.19067383 19.42797852 C56.685194 26.40035782 56.685194 26.40035782 64 35 C64.93791651 36.78075655 65.81566305 38.59474257 66.625 40.4375 C68.36945203 44.48435421 68.36945203 44.48435421 72.4375 46.375 C79.67507664 45.61314983 84.54385736 39.78705068 89.41210938 34.80273438 C93.11808515 31.22304349 95.89325091 30.2748313 101 30 C103.93429402 35.86858804 101.6473406 45.01449534 100.79296875 51.328125 C100.6669075 52.28015808 100.54084625 53.23219116 100.41096497 54.21307373 C100.14421244 56.21017801 99.87428553 58.20686065 99.60131836 60.203125 C99.18700236 63.25366403 98.791359 66.30626615 98.39648438 69.359375 C98.13394706 71.30744491 97.87031322 73.25536742 97.60546875 75.203125 C97.43183052 76.56573456 97.43183052 76.56573456 97.25468445 77.95587158 C96.28533844 84.839934 94.34305813 89.32482413 89 94 C81.48907116 96.50364295 74.34204046 94.35629724 66.94921875 92.40234375 C65.89579788 92.13039688 64.84237701 91.85845001 63.7570343 91.57826233 C61.52940266 91.00040222 59.30303451 90.41765203 57.07788086 89.83032227 C53.73972034 88.95125169 50.3967879 88.09266878 47.05273438 87.23632812 C28.82715735 82.51134169 11.55526324 76.62307696 -5.375 68.375 C-6.53515625 67.8284375 -7.6953125 67.281875 -8.890625 66.71875 C-10.00695313 66.17992188 -11.12328125 65.64109375 -12.2734375 65.0859375 C-13.25747559 64.6120459 -14.24151367 64.1381543 -15.25537109 63.64990234 C-18.35540804 61.78635051 -20.53723335 59.63724058 -23 57 C-23.58652344 56.51257324 -24.17304688 56.02514648 -24.77734375 55.52294922 C-27.15936876 52.55588213 -26.57293196 49.02673761 -26.4765625 45.38769531 C-25.61879203 39.29014253 -22.87146838 34.25662617 -20 28.875 C-19.17048828 27.22177734 -19.17048828 27.22177734 -18.32421875 25.53515625 C-14.604377 18.32635948 -10.28239451 12.14078362 -5 6 C-3.99870737 4.79273759 -2.99850678 3.58456755 -2 2.375 C-1.34 1.59125 -0.68 0.8075 0 0 Z " fill="#663016" transform="translate(36,44)"/>
<path d="M0 0 C3.42824543 3.89152184 5.2657473 6.17354281 4.9375 11.375 C4.20642615 17.8140735 1.80725227 23.75604876 -2 29 C-6.17480696 31.54945894 -9.10423589 32.45541992 -14 32 C-14.33 31.67 -14.66 31.34 -15 31 C-22.00184367 30.82619537 -28.49562422 32.04855218 -35.20483398 33.86352539 C-53.8345454 38.85714619 -70.85115925 38.9208953 -88.8203125 31.80810547 C-92.59914026 30.40712878 -96.48245925 29.40697402 -100.375 28.375 C-105.58083971 26.95558256 -110.7819195 25.53194547 -115.9375 23.9375 C-116.85402344 23.65777344 -117.77054688 23.37804688 -118.71484375 23.08984375 C-121.42170022 21.79888143 -122.5135896 20.58527486 -124 18 C-124 13.64681626 -122.6946786 10.84310094 -119.76171875 7.6328125 C-108.34277288 -2.95060074 -95.07550213 -8.77569733 -80 -12 C-79.30100586 -12.15098145 -78.60201172 -12.30196289 -77.88183594 -12.45751953 C-52.58212254 -17.73256099 -21.51644166 -16.11306458 0 0 Z " fill="#BE7E53" transform="translate(160,33)"/>
<path d="M0 0 C0.33 0 0.66 0 1 0 C1.029729 0.86782104 1.029729 0.86782104 1.06005859 1.75317383 C1.45570954 15.94214917 1.45570954 15.94214917 3.59765625 29.94140625 C4 32 4 32 4 36 C2 36 2 36 -0.5 33.5625 C-1.325 32.716875 -2.15 31.87125 -3 31 C-6.77871942 29.11064029 -10.90542893 29.24011795 -15 30 C-19.96810098 33.40294722 -21.83692732 38.30094388 -23 44 C-23.99 43.505 -23.99 43.505 -25 43 C-25.59765625 40.75 -25.59765625 40.75 -26.0625 38 C-26.4045351 34.69940294 -26.4045351 34.69940294 -28 32 C-31.74919789 31.5589179 -33.53000274 31.69914827 -36.74609375 33.7578125 C-37.63425781 34.53898437 -38.52242187 35.32015625 -39.4375 36.125 C-40.39011719 36.94226563 -41.34273437 37.75953125 -42.32421875 38.6015625 C-43.90402448 40.01762194 -45.47373487 41.4453291 -47.01953125 42.8984375 C-50.83515389 46.4298264 -53.52469282 48.20661537 -59 48 C-62.1190384 45.9503462 -63.26772099 43.48573121 -64.75 40.1875 C-67.07073839 35.22111986 -70.79575723 32.36703425 -75 29 C-75.66 28.34 -76.32 27.68 -77 27 C-75.72511719 26.99742188 -74.45023437 26.99484375 -73.13671875 26.9921875 C-60.69309834 26.78453964 -49.18913269 25.06661601 -37.10229492 22.08349609 C-26.59074751 19.50461731 -26.59074751 19.50461731 -21 20 C-20.67 20.33 -20.34 20.66 -20 21 C-14.85181427 20.95745301 -9.94059493 20.50275105 -6 17 C-2.08228393 11.53523128 -0.36435808 6.67989818 0 0 Z " fill="#6C3E1F" transform="translate(166,43)"/>
<path d="M0 0 C4.7051022 2.67046341 4.7051022 2.67046341 6.23046875 4.375 C8.82258284 6.75539616 11.86558669 8.15371898 15 9.6875 C15.70350586 10.03345215 16.40701172 10.3794043 17.13183594 10.73583984 C30.9055559 17.41739229 44.81440515 23.04003956 59.59277344 27.06640625 C62.17839212 27.77487614 64.7583956 28.4969764 67.33691406 29.23046875 C102.25414807 39.12678027 123.7430255 39.61759198 157.56689453 25.80029297 C160.7546381 24.49810534 163.94535722 23.20344853 167.13671875 21.91015625 C169.19027991 21.07595333 171.24367129 20.24133231 173.296875 19.40625 C174.23770935 19.02384155 175.1785437 18.64143311 176.14788818 18.24743652 C181.23749919 16.1671332 186.25348511 14.00011639 191.21221924 11.62243652 C191.80218689 11.41703247 192.39215454 11.21162842 193 11 C193.99 11.495 193.99 11.495 195 12 C194.13375 12.99 193.2675 13.98 192.375 15 C190.12865735 17.59193383 188.13004334 20.23846641 186.1875 23.0625 C176.37495133 36.03714876 159.3370469 36.94563455 144.375 39.25 C142.74340942 39.51321045 142.74340942 39.51321045 141.07885742 39.78173828 C121.37823266 42.61223036 102.76043842 40.66968171 83.29345703 37.00219727 C79.61217298 36.31008842 75.92618018 35.64998965 72.23828125 34.99414062 C50.36303014 31.03254102 31.81460891 25.37458463 12.9375 13.4375 C12.22279541 12.99067871 11.50809082 12.54385742 10.77172852 12.08349609 C6.33211683 9.19682633 3.10238514 6.31189201 0 2 C0 1.34 0 0.68 0 0 Z " fill="#B57218" transform="translate(12,100)"/>
<path d="M0 0 C0.99 0 1.98 0 3 0 C3 0.66 3 1.32 3 2 C-10.6254674 8.10796814 -24.3866533 13.8489992 -38.24047852 19.41601562 C-40.03089678 20.13561887 -41.82061806 20.85695882 -43.60961914 21.58007812 C-46.16329489 22.61113747 -48.71982102 23.63477596 -51.27734375 24.65625 C-52.03812729 24.96421509 -52.79891083 25.27218018 -53.58274841 25.58947754 C-60.86882527 28.4792513 -67.56935057 30.27751249 -75.5 30.125 C-76.7271875 30.10695312 -77.954375 30.08890625 -79.21875 30.0703125 C-80.1365625 30.04710937 -81.054375 30.02390625 -82 30 C-81.21625 29.38125 -80.4325 28.7625 -79.625 28.125 C-77.03162353 26.10141339 -77.03162353 26.10141339 -75 24 C-73.42832905 23.46446768 -71.84218305 22.97106007 -70.25 22.5 C-64.34422415 20.47183224 -59.86380617 17.30354493 -55.03613281 13.44140625 C-50.89715631 10.24014778 -48.07937868 9.32874151 -43 9 C-42.505 9.99 -42.505 9.99 -42 11 C-32.34478442 11.90255828 -24.31172417 9.22781343 -15.375 6.0625 C-13.98878414 5.58772188 -12.60206726 5.11440397 -11.21484375 4.64257812 C-5.1582658 3.05037939 -5.1582658 3.05037939 0 0 Z " fill="#8A4E23" transform="translate(204,109)"/>
<path d="M0 0 C9.30991458 1.04563317 18.10572333 4.16896581 27 7 C28.05960938 7.33128906 29.11921875 7.66257812 30.2109375 8.00390625 C40.29100254 11.54941809 46.20576897 18.34347459 51.00390625 27.6796875 C52 30 52 30 52 32 C49.66471585 31.82701599 48.30822418 31.29774631 46.62109375 29.66796875 C43 25.42788462 43 25.42788462 43 23 C42.40574219 22.72542969 41.81148437 22.45085937 41.19921875 22.16796875 C39.09625767 21.05112086 37.6025364 19.8644318 35.8125 18.3125 C29.92975637 13.80422918 22.94708459 11.48542745 16.09912109 8.82275391 C13.06816106 7.63476422 10.06540432 6.38194548 7.0625 5.125 C5.65677734 4.54105469 5.65677734 4.54105469 4.22265625 3.9453125 C2.79654649 3.33877724 1.38612382 2.69306191 0 2 C0 1.34 0 0.68 0 0 Z " fill="#421D0B" transform="translate(54,60)"/>
<path d="M0 0 C-1 2 -1 2 -3.44140625 2.82421875 C-4.47136719 3.10910156 -5.50132813 3.39398438 -6.5625 3.6875 C-13.27515235 5.85312951 -18.81112631 8.76323092 -22.15234375 15.23046875 C-23.114618 17.63382469 -23.114618 17.63382469 -24 21 C-26.31216523 18.90156433 -27.50904841 17.12427217 -28.6875 14.25 C-31.04977663 9.26807809 -34.76941456 6.38813119 -39 3 C-39.66 2.34 -40.32 1.68 -41 1 C-40.25427734 1.00523682 -39.50855469 1.01047363 -38.74023438 1.01586914 C-35.32683166 1.03679239 -31.91344249 1.04970873 -28.5 1.0625 C-27.32695313 1.07087891 -26.15390625 1.07925781 -24.9453125 1.08789062 C-16.56411499 1.11143331 -8.34688414 -0.17389342 0 0 Z " fill="#683B1E" transform="translate(130,69)"/>
<path d="M0 0 C0.495 0.33 0.99 0.66 1.5 1 C1.5 1.33 1.5 1.66 1.5 2 C-0.01013672 2.29390625 -0.01013672 2.29390625 -1.55078125 2.59375 C-6.35026678 3.96606703 -9.23802038 7.03171188 -12.6875 10.5 C-13.88531536 11.68116124 -15.08701935 12.85839471 -16.29296875 14.03125 C-16.8139917 14.55267578 -17.33501465 15.07410156 -17.87182617 15.61132812 C-21.31037351 18.54407026 -24.01834114 19.24898105 -28.5 19 C-29.25 16.875 -29.25 16.875 -29.5 14 C-25.92854369 7.00589806 -19.99495049 1.90768764 -12.55078125 -0.53515625 C-8.22958981 -1.51462631 -4.1808471 -1.67233884 0 0 Z " fill="#91592F" transform="translate(135.5,72)"/>
<path d="M0 0 C2.18408203 1.52319336 2.18408203 1.52319336 4 3 C-14.37703027 6.02555538 -32.30732124 8.96686269 -51 8 C-51 7.67 -51 7.34 -51 7 C-50.08605469 6.99742188 -49.17210938 6.99484375 -48.23046875 6.9921875 C-37.2610909 6.74333081 -27.00637512 4.66826737 -16.35620117 2.08349609 C-5.02169062 -0.63270638 -5.02169062 -0.63270638 0 0 Z " fill="#8D5C3A" transform="translate(145,63)"/>
<path d="M0 0 C0.66 0.33 1.32 0.66 2 1 C1.79375 1.9075 1.5875 2.815 1.375 3.75 C0.97513823 7.21546863 1.34524705 8.09470856 3 11 C2.443125 11.14695312 1.88625 11.29390625 1.3125 11.4453125 C-4.77945028 13.23585194 -9.15870791 15.92381674 -14 20 C-12.69248561 16.33509512 -11.12195206 13.59072086 -8.6875 10.5625 C-8.07132813 9.79164062 -7.45515625 9.02078125 -6.8203125 8.2265625 C-4.56510732 5.46804973 -2.30155647 2.72002129 0 0 Z " fill="#8E532E" transform="translate(36,44)"/>
<path d="M0 0 C0.33 0 0.66 0 1 0 C1.59672183 7.51869512 0.14352972 11.74031045 -4 18 C-4.99 18 -5.98 18 -7 18 C-6.66226563 17.3709375 -6.32453125 16.741875 -5.9765625 16.09375 C-3.19444972 10.75466652 -1.20192989 5.90038308 0 0 Z " fill="#8C603D" transform="translate(165,42)"/>
</svg>
